M48
; DRILL file {KiCad (5.1.4-0-10_14)} date Sunday, August 09, 2020 at 05:16:08 PM
; FORMAT={-:-/ absolute / inch / decimal}
; #@! TF.CreationDate,2020-08-09T17:16:08-05:00
; #@! TF.GenerationSoftware,Kicad,Pcbnew,(5.1.4-0-10_14)
; #@! TF.FileFunction,NonPlated,1,2,NPTH
FMAT,2
INCH
T1C0.0256
T2C0.0315
T3C0.0670
T4C0.1570
%
G90
G05
T1
X7.48Y-1.8568
X7.7075Y-1.8568
X11.605Y-1.8568
X11.8325Y-1.8568
T2
X4.6378Y-3.8275
X4.6378Y-3.8825
X4.6378Y-3.9375
X4.6378Y-3.9925
X4.6378Y-4.0475
X10.8461Y-1.7354
X10.9061Y-1.7354
X10.9661Y-1.7354
X11.0261Y-1.7354
X11.0861Y-1.7354
X14.6719Y-2.3175
X14.6719Y-2.3775
X14.6719Y-2.4375
X14.6719Y-2.5075
X14.6719Y-2.5675
X13.8487Y-1.7344
X13.9087Y-1.7344
X13.9688Y-1.7344
X14.0288Y-1.7344
X14.0887Y-1.7344
X14.6719Y-3.8175
X14.6719Y-3.8775
X14.6719Y-3.9375
X14.6719Y-3.9975
X14.6719Y-4.0575
X11.6275Y-4.6406
X5.3438Y-4.6406
X5.2237Y-1.7344
X5.2837Y-1.7344
X5.2237Y-4.6406
X5.2837Y-4.6406
X5.4638Y-4.6406
X5.4037Y-4.6406
X11.5675Y-4.6406
X5.4638Y-1.7344
X5.4037Y-1.7344
X5.3438Y-1.7344
X9.1745Y-4.0432
X9.3123Y-3.8046
X10.138Y-4.0432
X10.0002Y-3.8046
X11.6875Y-4.6406
X11.7475Y-4.6406
X11.8075Y-4.6406
X8.2237Y-1.7344
X8.2837Y-1.7344
X8.3438Y-1.7344
X8.4038Y-1.7344
X8.4637Y-1.7344
X13.8487Y-4.6406
X13.9087Y-4.6406
X13.9688Y-4.6406
X14.0288Y-4.6406
X14.0887Y-4.6406
X7.505Y-4.6406
X7.565Y-4.6406
X7.625Y-4.6406
X7.685Y-4.6406
X7.745Y-4.6406
X4.6378Y-2.3275
X4.6378Y-2.3825
X4.6378Y-2.4375
X4.6378Y-2.4925
X4.6378Y-2.5475
T3
X13.3937Y-2.8125
X13.7937Y-2.8125
X12.6437Y-2.8125
X13.0437Y-2.8125
X8.1687Y-2.8125
X11.8937Y-4.3125
X12.2937Y-4.3125
X13.3937Y-4.3125
X13.7937Y-4.3125
X7.7687Y-3.5625
X8.1687Y-3.5625
X11.1437Y-3.5625
X11.5437Y-3.5625
X12.6437Y-2.0625
X13.0437Y-2.0625
X15.1437Y-3.5625
X15.5437Y-3.5625
X14.1437Y-3.563
X10.7937Y-2.8125
X14.5437Y-3.563
X7.0187Y-2.0625
X8.5187Y-2.8125
X8.9187Y-2.8125
X7.7687Y-2.0625
X8.1687Y-2.0625
X7.0187Y-4.3125
X7.4188Y-4.3125
X8.5187Y-3.5625
X8.9187Y-3.5625
X7.4188Y-2.0625
X10.3937Y-2.8125
X10.3937Y-3.5625
X10.7937Y-3.5625
X7.4188Y-2.8125
X8.9187Y-2.0625
X12.2937Y-3.5625
X13.3937Y-2.0625
X11.8937Y-3.5625
X13.7937Y-2.0625
X8.5187Y-2.0625
X7.0187Y-2.8125
X8.9194Y-4.4937
X12.6437Y-3.5625
X13.0437Y-3.5625
X9.2658Y-4.6937
X15.1437Y-2.0625
X15.5437Y-2.0625
X6.2687Y-2.8125
X6.6688Y-2.8125
X6.2687Y-4.3125
X6.6688Y-4.3125
X7.7687Y-2.8125
X14.1437Y-4.3125
X5.5187Y-4.3125
X5.9188Y-4.3125
X4.7687Y-4.3125
X5.1688Y-4.3125
X13.3937Y-3.5625
X10.3937Y-2.0625
X10.7937Y-2.0625
X13.7937Y-3.5625
X14.5437Y-4.3125
X15.1437Y-2.8125
X15.5437Y-2.8125
X14.1437Y-2.8125
X14.5437Y-2.8125
X8.4733Y-4.4582
X14.1437Y-2.0625
X14.5437Y-2.0625
X15.1437Y-4.3125
X15.5437Y-4.3125
X5.5187Y-3.5625
X5.9188Y-3.5625
X13.0437Y-4.3125
X11.8937Y-2.8125
X12.2937Y-2.8125
X4.7687Y-2.8125
X5.1688Y-2.8125
X8.087Y-4.3547
X3.7687Y-4.3125
X4.1688Y-4.3125
X12.6437Y-4.3125
X10.0449Y-4.6947
X3.7687Y-2.8125
X4.1688Y-2.8125
X7.0187Y-3.5625
X7.4188Y-3.5625
X4.7687Y-2.0625
X5.1688Y-2.0625
X10.3913Y-4.4947
X11.1437Y-2.8125
X11.5437Y-2.8125
X3.7687Y-3.5625
X4.1688Y-3.5625
X3.7687Y-2.0625
X5.5187Y-2.8125
X5.9188Y-2.8125
X4.1688Y-2.0625
X11.1437Y-2.0625
X11.5437Y-2.0625
X5.5187Y-2.0625
X5.9188Y-2.0625
X10.8372Y-4.4588
X11.2236Y-4.3552
X6.2687Y-3.5625
X4.7687Y-3.563
X5.1688Y-3.563
X11.8937Y-2.0625
X12.2937Y-2.0625
X6.2687Y-2.0625
X6.6688Y-2.0625
X6.6688Y-3.5625
T4
X8.7188Y-3.5625
X15.3438Y-3.5625
X15.3438Y-2.0625
X6.4688Y-2.8125
X6.4688Y-4.3125
X13.5938Y-2.8125
X12.8438Y-2.8125
X13.5938Y-3.5625
X10.5938Y-3.5625
X14.3438Y-2.8125
X13.5938Y-2.0625
X12.8438Y-3.5625
X7.9688Y-2.8125
X15.3438Y-2.8125
X7.2188Y-2.8125
X8.7188Y-2.0625
X3.9688Y-4.3125
X9.0926Y-4.5937
X10.5938Y-2.0625
X3.9688Y-2.8125
X4.9688Y-4.3125
X8.2802Y-4.4065
X14.3438Y-2.0625
X15.3438Y-4.3125
X5.7188Y-4.3125
X14.3438Y-4.3125
X7.2188Y-3.5625
X5.7188Y-3.5625
X12.0938Y-2.8125
X4.9688Y-2.8125
X11.3438Y-2.8125
X4.9688Y-2.0625
X7.9688Y-3.5625
X6.4688Y-3.5625
X4.9688Y-3.563
X5.7188Y-2.8125
X10.2181Y-4.5947
X11.3438Y-2.0625
X11.0304Y-4.407
X10.5938Y-2.8125
X12.0938Y-2.0625
X12.0938Y-4.3125
X5.7188Y-2.0625
X13.5938Y-4.3125
X12.8438Y-2.0625
X6.4688Y-2.0625
X3.9688Y-2.0625
X12.8438Y-4.3125
X3.9688Y-3.5625
X14.3438Y-3.563
X11.3438Y-3.5625
X8.7188Y-2.8125
X7.2188Y-2.0625
X7.9688Y-2.0625
X7.2188Y-4.3125
X12.0938Y-3.5625
T0
M30
