G04 #@! TF.GenerationSoftware,KiCad,Pcbnew,(5.1.4-0-10_14)*
G04 #@! TF.CreationDate,2020-08-09T17:11:43-05:00*
G04 #@! TF.ProjectId,Dori_bottom_plate,446f7269-5f62-46f7-9474-6f6d5f706c61,rev?*
G04 #@! TF.SameCoordinates,Original*
G04 #@! TF.FileFunction,Legend,Bot*
G04 #@! TF.FilePolarity,Positive*
%FSLAX46Y46*%
G04 Gerber Fmt 4.6, Leading zero omitted, Abs format (unit mm)*
G04 Created by KiCad (PCBNEW (5.1.4-0-10_14)) date 2020-08-09 17:11:43*
%MOMM*%
%LPD*%
G04 APERTURE LIST*
%ADD10C,0.250000*%
%ADD11C,3.602000*%
%ADD12C,0.902000*%
G04 APERTURE END LIST*
D10*
X374650000Y-64690625D02*
X374650000Y-65484375D01*
X374650000Y-63103125D02*
X374650000Y-63896875D01*
X374650000Y-61515625D02*
X374650000Y-62309375D01*
X374650000Y-59928125D02*
X374650000Y-60721875D01*
X374650000Y-58340625D02*
X374650000Y-59134375D01*
X374650000Y-102790625D02*
X374650000Y-103584375D01*
X374650000Y-101203125D02*
X374650000Y-101996875D01*
X374650000Y-99615625D02*
X374650000Y-100409375D01*
X374650000Y-98028125D02*
X374650000Y-98821875D01*
X374650000Y-96440625D02*
X374650000Y-97234375D01*
X115887500Y-102790625D02*
X115887500Y-103584375D01*
X115887500Y-101203125D02*
X115887500Y-101996875D01*
X115887500Y-99615625D02*
X115887500Y-100409375D01*
X115887500Y-98028125D02*
X115887500Y-98821875D01*
X115887500Y-96440625D02*
X115887500Y-97234375D01*
X115887500Y-64690625D02*
X115887500Y-65484375D01*
X115887500Y-63103125D02*
X115887500Y-63896875D01*
X115887500Y-61515625D02*
X115887500Y-62309375D01*
X115887500Y-59928125D02*
X115887500Y-60721875D01*
X115887500Y-58340625D02*
X115887500Y-59134375D01*
%LPC*%
D11*
X278606250Y-80962500D03*
X211918550Y-80962500D03*
X135731250Y-61912500D03*
X380206250Y-100012500D03*
X380206250Y-61912500D03*
D12*
X373459375Y-61912500D03*
X373459375Y-60388500D03*
X373459375Y-58864500D03*
X373459375Y-63690500D03*
X373459375Y-65214500D03*
X373459375Y-100012500D03*
X373459375Y-98488500D03*
X373459375Y-96964500D03*
X373459375Y-101536500D03*
X373459375Y-103060500D03*
X278606250Y-43259375D03*
X280130250Y-43259375D03*
X281654250Y-43259375D03*
X277082250Y-43259375D03*
X275558250Y-43259375D03*
X354806250Y-43259375D03*
X356330250Y-43259375D03*
X357854250Y-43259375D03*
X353282250Y-43259375D03*
X351758250Y-43259375D03*
X135731250Y-43259375D03*
X137255250Y-43259375D03*
X138779250Y-43259375D03*
X134207250Y-43259375D03*
X132683250Y-43259375D03*
X211931250Y-43259375D03*
X213455250Y-43259375D03*
X214979250Y-43259375D03*
X210407250Y-43259375D03*
X208883250Y-43259375D03*
X193675000Y-118665625D03*
X195199000Y-118665625D03*
X196723000Y-118665625D03*
X192151000Y-118665625D03*
X190627000Y-118665625D03*
X135731250Y-118665625D03*
X137255250Y-118665625D03*
X138779250Y-118665625D03*
X134207250Y-118665625D03*
X132683250Y-118665625D03*
X296862500Y-118665625D03*
X298386500Y-118665625D03*
X299910500Y-118665625D03*
X295338500Y-118665625D03*
X293814500Y-118665625D03*
X354806250Y-118665625D03*
X356330250Y-118665625D03*
X357854250Y-118665625D03*
X353282250Y-118665625D03*
X351758250Y-118665625D03*
X117006250Y-61912500D03*
X117006250Y-60515500D03*
X117006250Y-59118500D03*
X117006250Y-63309500D03*
X117006250Y-64706500D03*
D11*
X110331250Y-100012500D03*
X354806250Y-61912500D03*
X221853125Y-105171875D03*
D12*
X117005893Y-100012500D03*
X117005893Y-98615500D03*
X117005893Y-97218500D03*
X117005893Y-101409500D03*
X117005893Y-102806500D03*
D11*
X211931250Y-61940000D03*
X135731250Y-100012500D03*
X278606250Y-61912500D03*
X268684375Y-105171875D03*
X354806250Y-100012500D03*
X110331250Y-61912500D03*
M02*
