M48
; DRILL file {KiCad (5.1.4-0)} date Wednesday, October 13, 2021 at 02:40:21 PM
; FORMAT={-:-/ absolute / inch / decimal}
; #@! TF.CreationDate,2021-10-13T14:40:21-05:00
; #@! TF.GenerationSoftware,Kicad,Pcbnew,(5.1.4-0)
; #@! TF.FileFunction,NonPlated,1,2,NPTH
FMAT,2
INCH
T1C0.0256
T2C0.0670
T3C0.0709
T4C0.1570
%
G90
G05
T1
X9.73Y-0.9036
X9.9576Y-0.9036
T2
X8.5187Y-2.0156
X8.9187Y-2.0156
X12.2688Y-4.0781
X12.6688Y-4.0781
X11.5188Y-3.4214
X11.9188Y-3.4214
X10.7688Y-2.0156
X6.2687Y-1.9214
X6.6688Y-1.9214
X10.7688Y-3.5156
X11.1688Y-3.5156
X5.1688Y-4.3125
X11.1688Y-2.0156
X13.7688Y-3.5625
X14.1688Y-3.5625
X12.2688Y-2.5781
X12.6688Y-2.5781
X4.7687Y-4.3125
X13.0188Y-2.6714
X13.4188Y-2.6714
X12.2688Y-1.0781
X12.6688Y-1.0781
X13.7688Y-2.8125
X14.1688Y-2.8125
X11.5188Y-1.9219
X11.9188Y-1.9219
X13.0188Y-4.1719
X11.9188Y-1.1719
X5.5185Y-3.5625
X13.4188Y-1.9214
X14.5188Y-3.5625
X5.9185Y-3.5625
X13.0188Y-1.9214
X4.7688Y-1.3125
X5.1688Y-1.3125
X13.4188Y-4.1719
X11.5188Y-1.1719
X13.0188Y-1.1719
X13.4188Y-1.1719
X7.7687Y-1.9214
X12.2688Y-3.3281
X13.7688Y-2.0625
X14.1688Y-2.0625
X12.2688Y-1.8281
X12.6688Y-1.8281
X12.6688Y-3.3281
X4.7687Y-3.562
X5.1688Y-3.562
X14.9188Y-4.3125
X8.1687Y-1.9214
X14.5188Y-4.3125
X5.5187Y-4.3125
X5.9188Y-4.3125
X11.2452Y-4.3635
X11.6316Y-4.26
X14.5188Y-1.3125
X14.9188Y-1.3125
X6.2688Y-4.1719
X6.6688Y-4.1719
X6.2687Y-3.4214
X6.6688Y-3.4214
X5.5187Y-2.0625
X5.9188Y-2.0625
X13.7688Y-4.3125
X8.5188Y-1.2656
X10.7688Y-1.2656
X11.1688Y-1.2656
X14.1688Y-4.3125
X8.9188Y-1.2656
X14.9188Y-3.5625
X14.5188Y-2.0625
X14.9188Y-2.0625
X8.0568Y-4.2608
X8.4432Y-4.3643
X7.7687Y-2.6714
X8.1687Y-2.6714
X8.5187Y-2.7656
X8.9187Y-2.7656
X13.7688Y-1.3125
X14.1688Y-1.3125
X7.0187Y-3.3281
X7.4188Y-3.3281
X7.7688Y-1.1719
X8.1688Y-1.1719
X4.7687Y-2.8125
X5.1688Y-2.8125
X7.7687Y-3.4219
X8.1687Y-3.4219
X14.5198Y-2.812
X14.9198Y-2.812
X4.7687Y-2.0625
X5.1688Y-2.0625
X7.0187Y-1.8281
X7.4188Y-1.8281
X7.4188Y-2.5781
X5.5187Y-2.8125
X5.9188Y-2.8125
X7.0187Y-2.5781
X6.2688Y-1.1719
X7.0188Y-1.0781
X7.4188Y-1.0781
X8.5187Y-3.5156
X8.9187Y-3.5156
X6.6688Y-1.1719
X5.5188Y-1.3125
X5.9188Y-1.3125
X10.7688Y-2.7656
X11.1688Y-2.7656
X6.6688Y-2.6719
X13.0188Y-3.4214
X13.4188Y-3.4214
X6.2687Y-2.6719
X11.5188Y-2.6714
X11.9188Y-2.6714
X7.0198Y-4.0776
X7.4197Y-4.0776
T3
X10.4469Y-4.3268
X10.6469Y-4.6732
X9.0407Y-4.6732
X9.2407Y-4.3268
T4
X14.7188Y-3.5625
X4.9688Y-2.8125
X7.9688Y-3.4219
X14.7198Y-2.812
X5.7188Y-2.8125
X13.9688Y-1.3125
X11.7188Y-2.6714
X4.9688Y-2.0625
X10.5469Y-4.5
X7.9688Y-1.1719
X7.9688Y-2.6714
X8.7188Y-2.7656
X13.2188Y-3.4214
X7.2188Y-2.5781
X7.2197Y-4.0776
X7.2188Y-1.0781
X9.1407Y-4.5
X7.2188Y-1.8281
X12.4688Y-4.0781
X6.4688Y-1.1719
X5.7185Y-3.5625
X10.9688Y-2.7656
X13.9688Y-3.5625
X12.4688Y-1.0781
X8.7188Y-2.0156
X5.7188Y-1.3125
X10.9688Y-2.0156
X8.7188Y-3.5156
X11.7188Y-3.4214
X13.2188Y-2.6714
X13.2188Y-1.9214
X6.4688Y-2.6719
X4.9688Y-4.3125
X7.2188Y-3.3281
X6.4688Y-1.9214
X11.7188Y-1.1719
X13.2188Y-1.1719
X12.4688Y-3.3281
X6.4688Y-3.4214
X10.9688Y-1.2656
X8.7188Y-1.2656
X14.7188Y-4.3125
X5.7188Y-4.3125
X10.9688Y-3.5156
X12.4688Y-2.5781
X4.9688Y-3.562
X13.9688Y-2.8125
X14.7188Y-1.3125
X6.4688Y-4.1719
X13.2188Y-4.1719
X11.4384Y-4.3118
X11.7188Y-1.9219
X12.4688Y-1.8281
X5.7188Y-2.0625
X13.9688Y-4.3125
X7.9688Y-1.9214
X4.9688Y-1.3125
X14.7188Y-2.0625
X8.25Y-4.3125
X13.9688Y-2.0625
T0
M30
