G04 #@! TF.GenerationSoftware,KiCad,Pcbnew,(5.1.4-0)*
G04 #@! TF.CreationDate,2021-10-12T16:31:04-05:00*
G04 #@! TF.ProjectId,niko,6e696b6f-2e6b-4696-9361-645f70636258,rev?*
G04 #@! TF.SameCoordinates,Original*
G04 #@! TF.FileFunction,Profile,NP*
%FSLAX46Y46*%
G04 Gerber Fmt 4.6, Leading zero omitted, Abs format (unit mm)*
G04 Created by KiCad (PCBNEW (5.1.4-0)) date 2021-10-12 16:31:04*
%MOMM*%
%LPD*%
G04 APERTURE LIST*
%ADD10C,0.050000*%
G04 APERTURE END LIST*
D10*
X172641350Y-114300480D02*
X155972530Y-114300480D01*
X333376400Y-114300480D02*
X317898210Y-114300480D01*
X315516950Y-111919220D02*
X301229390Y-111919220D01*
X317898210Y-114300480D02*
X315516950Y-111919220D01*
X175022610Y-111919220D02*
X189310170Y-111919220D01*
X172641350Y-114300480D02*
X175022610Y-111919220D01*
X249550000Y-18200000D02*
G75*
G02X250400000Y-19050000I0J-850000D01*
G01*
X240150000Y-19050000D02*
G75*
G02X241000000Y-18200000I850000J0D01*
G01*
X239750000Y-23800000D02*
G75*
G03X240150000Y-23400000I0J400000D01*
G01*
X240150000Y-23400000D02*
X240150000Y-19050000D01*
X250800000Y-23800000D02*
G75*
G02X250400000Y-23400000I0J400000D01*
G01*
X239750000Y-23800000D02*
X213100000Y-23800000D01*
X250400000Y-19050000D02*
X250400000Y-23400000D01*
X241000000Y-18200000D02*
X249550000Y-18200000D01*
X191691430Y-19050080D02*
X194072690Y-21431340D01*
X120253630Y-117872370D02*
X117872370Y-115491110D01*
X175022610Y-19050080D02*
X191691430Y-19050080D01*
X172641350Y-21431340D02*
X175022610Y-19050080D01*
X155972530Y-21431340D02*
X172641350Y-21431340D01*
X152400640Y-25003230D02*
X155972530Y-21431340D01*
X120253630Y-25003230D02*
X152400640Y-25003230D01*
X117872370Y-27384490D02*
X120253630Y-25003230D01*
X210741510Y-21431340D02*
X194072690Y-21431340D01*
X213100000Y-23800000D02*
X210741510Y-21431340D01*
X277400000Y-23800000D02*
X250800000Y-23800000D01*
X279798050Y-21431340D02*
X277400000Y-23800000D01*
X296466870Y-21431340D02*
X279798050Y-21431340D01*
X298848130Y-19050080D02*
X296466870Y-21431340D01*
X315516950Y-19050080D02*
X298848130Y-19050080D01*
X317898210Y-21431340D02*
X315516950Y-19050080D01*
X334567030Y-21431340D02*
X317898210Y-21431340D01*
X338138920Y-25003230D02*
X334567030Y-21431340D01*
X370285930Y-25003230D02*
X338138920Y-25003230D01*
X372667190Y-27384490D02*
X370285930Y-25003230D01*
X372667190Y-115491110D02*
X372667190Y-27384490D01*
X370285930Y-117872370D02*
X372667190Y-115491110D01*
X336948290Y-117872370D02*
X370285930Y-117872370D01*
X333376400Y-114300480D02*
X336948290Y-117872370D01*
X255985450Y-125016150D02*
X301229390Y-111919220D01*
X234554110Y-125016150D02*
X255985450Y-125016150D01*
X189310170Y-111919220D02*
X234554110Y-125016150D01*
X153591270Y-117872370D02*
X155972530Y-114300480D01*
X120253630Y-117872370D02*
X153591270Y-117872370D01*
X117872370Y-27384490D02*
X117872370Y-115491110D01*
M02*
