M48
; DRILL file {KiCad (5.1.4-0)} date Tuesday, October 12, 2021 at 04:31:06 PM
; FORMAT={-:-/ absolute / inch / decimal}
; #@! TF.CreationDate,2021-10-12T16:31:06-05:00
; #@! TF.GenerationSoftware,Kicad,Pcbnew,(5.1.4-0)
; #@! TF.FileFunction,Plated,1,2,PTH
FMAT,2
INCH
T1C0.0118
T2C0.0157
T3C0.0236
T4C0.0394
T5C0.0420
T6C0.0591
T7C0.0600
%
G90
G05
T1
X8.9646Y-1.7205
X9.0709Y-2.2008
X9.0709Y-2.2323
X9.0709Y-2.2638
X9.0709Y-2.2953
X9.3268Y-2.2008
X9.3268Y-2.2323
X9.3268Y-2.2638
X9.3268Y-2.2953
X9.4134Y-1.7205
X9.5315Y-1.0236
X9.6049Y-1.0037
X9.7244Y-1.0039
X9.7992Y-2.8976
X9.8031Y-1.0236
X9.8285Y-2.9171
X9.8504Y-2.8701
X10.9685Y-2.3898
T2
X9.122Y-2.3211
X9.4685Y-2.0512
X9.4695Y-2.3573
X9.4695Y-2.5344
X9.6299Y-2.7244
X9.878Y-2.7244
X10.185Y-2.185
T4
X9.361Y-3.4172
X9.361Y-3.5156
X9.361Y-3.6141
X9.9319Y-3.4172
X9.9319Y-3.6141
T5
X5.3358Y-2.2875
X5.3358Y-2.4875
X5.3358Y-2.6875
X5.3518Y-2.1875
X5.3518Y-2.3875
X5.3518Y-2.5875
T7
X7.0697Y-3.9776
X7.3197Y-3.8776
X6.3187Y-2.5719
X6.5687Y-2.4719
X11.1938Y-1.0719
X11.4438Y-0.9719
X10.4438Y-1.1656
X10.6938Y-1.0656
X14.1937Y-3.4625
X4.8187Y-4.2125
X8.5687Y-1.9156
X8.8187Y-1.8156
X14.1937Y-4.2125
X5.0687Y-4.1125
X6.3188Y-4.0719
X14.4437Y-4.1125
X10.4437Y-2.6656
X7.8187Y-1.8214
X8.0687Y-1.7214
X6.5688Y-3.9719
X10.6937Y-2.5656
X11.9437Y-2.4781
X12.1937Y-2.3781
X8.5687Y-3.4156
X10.6937Y-3.3156
X6.3187Y-1.8214
X6.5687Y-1.7214
X12.6937Y-4.0719
X8.8187Y-3.3156
X11.9437Y-3.2281
X12.1937Y-3.1281
X12.6937Y-3.3214
X8.3984Y-4.1452
X12.9437Y-3.2214
X8.131Y-4.1771
X12.6937Y-2.5714
X12.9437Y-2.4714
X12.9437Y-3.9719
X11.4437Y-1.7219
X13.4437Y-2.7125
X13.6937Y-2.6125
X8.5688Y-1.1656
X11.1937Y-1.8219
X9.0139Y-4.2915
X9.2804Y-4.3299
X10.8918Y-4.2547
X11.1074Y-4.0935
X8.8188Y-1.0656
X7.0688Y-0.9781
X13.4437Y-4.2125
X13.6937Y-4.1125
X10.4437Y-1.9156
X10.6937Y-1.8156
X5.5687Y-1.9625
X5.8187Y-1.8625
X10.0395Y-4.4406
X7.3188Y-0.8781
X10.206Y-4.229
X13.4437Y-3.4625
X13.6937Y-3.3625
X14.4437Y-3.3625
X11.9437Y-1.7281
X12.1937Y-1.6281
X8.5687Y-2.6656
X8.8187Y-2.5656
X11.1937Y-2.5714
X11.4437Y-2.4714
X12.6938Y-1.0719
X12.9438Y-0.9719
X5.5687Y-2.7125
X5.8187Y-2.6125
X7.0687Y-3.2281
X13.6938Y-1.1125
X14.4438Y-1.1125
X13.4437Y-1.9625
X13.6937Y-1.8625
X7.0687Y-2.4781
X7.3187Y-2.3781
X13.4438Y-1.2125
X7.3187Y-3.1281
X14.1938Y-1.2125
X12.6937Y-1.8214
X12.9437Y-1.7214
X12.1937Y-3.8781
X11.9438Y-0.9781
X12.1938Y-0.8781
X7.8187Y-2.5714
X8.0687Y-2.4714
X5.5685Y-3.4625
X5.8185Y-3.3625
X7.8188Y-1.0719
X8.0688Y-0.9719
X6.3188Y-1.0719
X6.5688Y-0.9719
X11.9437Y-3.9781
X14.1947Y-2.712
X14.4447Y-2.612
X5.5688Y-1.2125
X5.8188Y-1.1125
X4.8187Y-1.9625
X5.0687Y-1.8625
X6.3187Y-3.3214
X5.0688Y-1.1125
X7.8187Y-3.3219
X5.5687Y-4.2125
X5.8187Y-4.1125
X6.5687Y-3.2214
X8.0687Y-3.2219
X4.8188Y-1.2125
X14.1937Y-1.9625
X14.4437Y-1.8625
X4.8187Y-2.7125
X5.0687Y-2.6125
X7.0687Y-1.7281
X7.3187Y-1.6281
X11.1937Y-3.3214
X11.4437Y-3.2214
X4.8187Y-3.462
X5.0687Y-3.362
X10.4437Y-3.4156
T3
G00X9.487Y-0.7482
M15
G01X9.487Y-0.7718
M16
G05
G00X9.487Y-0.9037
M15
G01X9.487Y-0.947
M16
G05
G00X9.8256Y-0.7482
M15
G01X9.8256Y-0.7718
M16
G05
G00X9.8256Y-0.9037
M15
G01X9.8256Y-0.947
M16
G05
T6
G00X9.6307Y-3.2952
M15
G01X9.6819Y-3.2952
M16
G05
G00X9.6307Y-3.7361
M15
G01X9.6819Y-3.7361
M16
G05
T0
M30
