M48
; DRILL file {KiCad (5.1.4-0)} date Tuesday, October 12, 2021 at 04:31:06 PM
; FORMAT={-:-/ absolute / inch / decimal}
; #@! TF.CreationDate,2021-10-12T16:31:06-05:00
; #@! TF.GenerationSoftware,Kicad,Pcbnew,(5.1.4-0)
; #@! TF.FileFunction,NonPlated,1,2,NPTH
FMAT,2
INCH
T1C0.0256
T2C0.0670
T3C0.1570
%
G90
G05
T1
X9.5425Y-0.9036
X9.7701Y-0.9036
T2
X13.3937Y-2.8125
X13.7937Y-2.8125
X5.5187Y-2.0625
X7.0198Y-4.0776
X7.4197Y-4.0776
X4.7687Y-2.8125
X5.1688Y-2.8125
X5.5187Y-4.3125
X5.9188Y-4.3125
X7.4188Y-1.8281
X7.7687Y-1.9214
X8.1687Y-1.9214
X7.0187Y-1.8281
X8.5187Y-2.0156
X8.9187Y-2.0156
X6.2688Y-4.1719
X6.6688Y-4.1719
X5.1688Y-3.562
X7.7687Y-3.4219
X8.1687Y-3.4219
X4.7687Y-3.562
X6.6688Y-2.6719
X4.7687Y-4.3125
X5.1688Y-4.3125
X10.3937Y-2.7656
X10.7937Y-2.7656
X6.2687Y-2.6719
X11.1437Y-3.4214
X11.5437Y-3.4214
X11.8937Y-2.5781
X8.9187Y-3.5156
X8.5187Y-3.5156
X12.2937Y-3.3281
X12.2937Y-2.5781
X10.3937Y-3.5156
X10.7937Y-3.5156
X13.0437Y-4.1719
X10.3937Y-2.0156
X10.7937Y-2.0156
X14.1437Y-4.3125
X14.5437Y-4.3125
X6.2687Y-1.9214
X6.6688Y-1.9214
X11.8937Y-3.3281
X8.0568Y-4.2608
X8.4432Y-4.3643
X12.6437Y-2.6714
X13.0437Y-2.6714
X12.6437Y-4.1719
X5.9188Y-2.0625
X12.6437Y-3.4214
X13.0437Y-3.4214
X8.5188Y-1.2656
X8.9188Y-1.2656
X9.267Y-4.5531
X11.1438Y-1.1719
X11.5438Y-1.1719
X11.1437Y-1.9219
X11.5437Y-1.9219
X8.9206Y-4.3531
X13.3937Y-4.3125
X13.7937Y-4.3125
X11.8937Y-1.8281
X12.2937Y-1.8281
X11.5437Y-2.6714
X10.3926Y-4.3522
X12.6438Y-1.1719
X13.0438Y-1.1719
X13.7937Y-3.5625
X10.0462Y-4.5522
X13.3937Y-3.5625
X11.1437Y-2.6714
X7.0187Y-3.3281
X10.3938Y-1.2656
X10.7938Y-1.2656
X8.5187Y-2.7656
X5.5187Y-2.8125
X5.9188Y-2.8125
X10.8694Y-4.3643
X8.9187Y-2.7656
X11.2557Y-4.2608
X7.7688Y-1.1719
X8.1688Y-1.1719
X6.2688Y-1.1719
X6.6688Y-1.1719
X7.4188Y-3.3281
X7.0188Y-1.0781
X7.4188Y-1.0781
X14.1437Y-2.0625
X14.1448Y-2.812
X14.5448Y-2.812
X14.1438Y-1.3125
X14.5438Y-1.3125
X13.3937Y-2.0625
X13.7937Y-2.0625
X11.8938Y-1.0781
X12.2938Y-1.0781
X7.0187Y-2.5781
X12.2937Y-4.0781
X13.0437Y-1.9214
X14.5437Y-3.5625
X8.1687Y-2.6714
X5.5185Y-3.5625
X5.9185Y-3.5625
X14.1437Y-3.5625
X11.8937Y-4.0781
X7.4188Y-2.5781
X13.7938Y-1.3125
X5.1688Y-2.0625
X13.3938Y-1.3125
X4.7687Y-2.0625
X12.6437Y-1.9214
X5.5188Y-1.3125
X5.9188Y-1.3125
X7.7687Y-2.6714
X6.2687Y-3.4214
X5.1688Y-1.3125
X14.5437Y-2.0625
X6.6688Y-3.4214
X4.7688Y-1.3125
T3
X5.7188Y-4.3125
X6.4688Y-4.1719
X11.3438Y-3.4214
X10.5938Y-2.7656
X8.7188Y-3.5156
X12.0938Y-2.5781
X7.9688Y-1.9214
X8.7188Y-2.0156
X10.5938Y-3.5156
X8.25Y-4.3125
X12.8438Y-2.6714
X4.9688Y-3.562
X8.7188Y-1.2656
X13.5938Y-2.8125
X10.5938Y-2.0156
X14.3438Y-4.3125
X12.0938Y-3.3281
X11.3438Y-1.9219
X6.4688Y-1.9214
X12.8438Y-4.1719
X12.8438Y-3.4214
X13.5938Y-4.3125
X13.5938Y-3.5625
X9.0938Y-4.4531
X5.7188Y-2.0625
X11.0625Y-4.3125
X10.2194Y-4.4522
X7.2188Y-1.0781
X14.3447Y-2.812
X11.3438Y-1.1719
X12.0938Y-1.8281
X14.3438Y-1.3125
X13.5938Y-2.0625
X12.0938Y-1.0781
X10.5938Y-1.2656
X8.7188Y-2.7656
X12.8438Y-1.1719
X5.7188Y-2.8125
X7.2188Y-2.5781
X13.5938Y-1.3125
X6.4688Y-3.4214
X14.3438Y-2.0625
X5.7185Y-3.5625
X7.9688Y-1.1719
X6.4688Y-1.1719
X4.9688Y-2.8125
X5.7188Y-1.3125
X4.9688Y-2.0625
X7.2188Y-3.3281
X12.8438Y-1.9214
X12.0938Y-4.0781
X11.3438Y-2.6714
X14.3438Y-3.5625
X7.2188Y-1.8281
X7.9688Y-2.6714
X7.9688Y-3.4219
X4.9688Y-1.3125
X7.2197Y-4.0776
X6.4688Y-2.6719
X4.9688Y-4.3125
T0
M30
