G04 #@! TF.GenerationSoftware,KiCad,Pcbnew,(5.1.4-0)*
G04 #@! TF.CreationDate,2021-10-20T15:49:36-05:00*
G04 #@! TF.ProjectId,pcb,7063622e-6b69-4636-9164-5f7063625858,rev?*
G04 #@! TF.SameCoordinates,Original*
G04 #@! TF.FileFunction,Profile,NP*
%FSLAX46Y46*%
G04 Gerber Fmt 4.6, Leading zero omitted, Abs format (unit mm)*
G04 Created by KiCad (PCBNEW (5.1.4-0)) date 2021-10-20 15:49:36*
%MOMM*%
%LPD*%
G04 APERTURE LIST*
%ADD10C,0.050000*%
G04 APERTURE END LIST*
D10*
X244912520Y-19050000D02*
X210741510Y-19050080D01*
X289323090Y-19050080D02*
X255162520Y-19050000D01*
X198835210Y-114300480D02*
X216694660Y-120253630D01*
X172641350Y-114300480D02*
X198835210Y-114300480D01*
X173831980Y-19050080D02*
X210741510Y-19050080D01*
X289323090Y-19050080D02*
X308373170Y-19050080D01*
X326232620Y-19050080D02*
X379810970Y-25003230D01*
X301229390Y-114300480D02*
X283369940Y-120253630D01*
X327423250Y-114300480D02*
X301229390Y-114300480D01*
X254312520Y-18200000D02*
G75*
G02X255162520Y-19050000I0J-850000D01*
G01*
X355998370Y-98822290D02*
X379810970Y-98822290D01*
X344092070Y-114300480D02*
X355998370Y-98822290D01*
X342901440Y-114300480D02*
X344092070Y-114300480D01*
X145256860Y-98822290D02*
X120253630Y-98822290D01*
X155972530Y-114300480D02*
X145256860Y-98822290D01*
X382192230Y-96441030D02*
G75*
G02X379810970Y-98822290I-2381260J0D01*
G01*
X379810970Y-25003230D02*
G75*
G02X382192230Y-27384490I0J-2381260D01*
G01*
X117872370Y-27384490D02*
G75*
G02X120253630Y-25003230I2381260J0D01*
G01*
X120253630Y-98822290D02*
G75*
G02X117872370Y-96441030I0J2381260D01*
G01*
X216694660Y-120253630D02*
X233363480Y-129778670D01*
X283369940Y-120253630D02*
X266701120Y-129778670D01*
X172641350Y-114300480D02*
X155972530Y-114300480D01*
X342901440Y-114300480D02*
X327423250Y-114300480D01*
X244912520Y-19050000D02*
G75*
G02X245762520Y-18200000I850000J0D01*
G01*
X245762520Y-18200000D02*
X254312520Y-18200000D01*
X120253630Y-25003230D02*
X173831980Y-19050080D01*
X326232620Y-19050080D02*
X308373170Y-19050080D01*
X382192230Y-96441030D02*
X382192230Y-27384490D01*
X233363480Y-129778670D02*
X266701120Y-129778670D01*
X117872370Y-27384490D02*
X117872370Y-96441030D01*
M02*
