G04 #@! TF.GenerationSoftware,KiCad,Pcbnew,(5.1.4-0)*
G04 #@! TF.CreationDate,2021-10-13T14:40:19-05:00*
G04 #@! TF.ProjectId,niko,6e696b6f-2e6b-4696-9361-645f70636258,rev?*
G04 #@! TF.SameCoordinates,Original*
G04 #@! TF.FileFunction,Legend,Top*
G04 #@! TF.FilePolarity,Positive*
%FSLAX46Y46*%
G04 Gerber Fmt 4.6, Leading zero omitted, Abs format (unit mm)*
G04 Created by KiCad (PCBNEW (5.1.4-0)) date 2021-10-13 14:40:19*
%MOMM*%
%LPD*%
G04 APERTURE LIST*
%ADD10C,0.150000*%
%ADD11C,0.381000*%
%ADD12C,0.120000*%
%ADD13C,2.388000*%
%ADD14C,4.089800*%
%ADD15C,1.902000*%
%ADD16C,1.803800*%
%ADD17C,2.642000*%
%ADD18O,1.402000X2.502000*%
%ADD19O,1.402000X2.002000*%
%ADD20C,0.752000*%
%ADD21C,2.102000*%
%ADD22R,3.302000X2.102000*%
%ADD23R,2.102000X2.102000*%
%ADD24C,0.100000*%
%ADD25C,1.803400*%
G04 APERTURE END LIST*
D10*
X118772380Y-85559047D02*
X119486666Y-85559047D01*
X119629523Y-85606666D01*
X119724761Y-85701904D01*
X119772380Y-85844761D01*
X119772380Y-85940000D01*
X119772380Y-84606666D02*
X119772380Y-85082857D01*
X118772380Y-85082857D01*
X119677142Y-83701904D02*
X119724761Y-83749523D01*
X119772380Y-83892380D01*
X119772380Y-83987619D01*
X119724761Y-84130476D01*
X119629523Y-84225714D01*
X119534285Y-84273333D01*
X119343809Y-84320952D01*
X119200952Y-84320952D01*
X119010476Y-84273333D01*
X118915238Y-84225714D01*
X118820000Y-84130476D01*
X118772380Y-83987619D01*
X118772380Y-83892380D01*
X118820000Y-83749523D01*
X118867619Y-83701904D01*
X118772380Y-82987619D02*
X119486666Y-82987619D01*
X119629523Y-83035238D01*
X119724761Y-83130476D01*
X119772380Y-83273333D01*
X119772380Y-83368571D01*
X119772380Y-82035238D02*
X119772380Y-82511428D01*
X118772380Y-82511428D01*
X119677142Y-81130476D02*
X119724761Y-81178095D01*
X119772380Y-81320952D01*
X119772380Y-81416190D01*
X119724761Y-81559047D01*
X119629523Y-81654285D01*
X119534285Y-81701904D01*
X119343809Y-81749523D01*
X119200952Y-81749523D01*
X119010476Y-81701904D01*
X118915238Y-81654285D01*
X118820000Y-81559047D01*
X118772380Y-81416190D01*
X118772380Y-81320952D01*
X118820000Y-81178095D01*
X118867619Y-81130476D01*
X118772380Y-80416190D02*
X119486666Y-80416190D01*
X119629523Y-80463809D01*
X119724761Y-80559047D01*
X119772380Y-80701904D01*
X119772380Y-80797142D01*
X119772380Y-79463809D02*
X119772380Y-79940000D01*
X118772380Y-79940000D01*
X119677142Y-78559047D02*
X119724761Y-78606666D01*
X119772380Y-78749523D01*
X119772380Y-78844761D01*
X119724761Y-78987619D01*
X119629523Y-79082857D01*
X119534285Y-79130476D01*
X119343809Y-79178095D01*
X119200952Y-79178095D01*
X119010476Y-79130476D01*
X118915238Y-79082857D01*
X118820000Y-78987619D01*
X118772380Y-78844761D01*
X118772380Y-78749523D01*
X118820000Y-78606666D01*
X118867619Y-78559047D01*
X118772380Y-77844761D02*
X119486666Y-77844761D01*
X119629523Y-77892380D01*
X119724761Y-77987619D01*
X119772380Y-78130476D01*
X119772380Y-78225714D01*
X119772380Y-76892380D02*
X119772380Y-77368571D01*
X118772380Y-77368571D01*
X119677142Y-75987619D02*
X119724761Y-76035238D01*
X119772380Y-76178095D01*
X119772380Y-76273333D01*
X119724761Y-76416190D01*
X119629523Y-76511428D01*
X119534285Y-76559047D01*
X119343809Y-76606666D01*
X119200952Y-76606666D01*
X119010476Y-76559047D01*
X118915238Y-76511428D01*
X118820000Y-76416190D01*
X118772380Y-76273333D01*
X118772380Y-76178095D01*
X118820000Y-76035238D01*
X118867619Y-75987619D01*
D11*
X223498589Y-116624741D02*
X224387589Y-115084948D01*
X228959589Y-107166012D02*
X229848589Y-105626219D01*
X229848589Y-105626219D02*
X231388382Y-106515219D01*
X239307318Y-111087219D02*
X240847111Y-111976219D01*
X240847111Y-111976219D02*
X239958111Y-113516012D01*
X235386111Y-121434948D02*
X234497111Y-122974741D01*
X234497111Y-122974741D02*
X232957318Y-122085741D01*
X225038382Y-117513741D02*
X223498589Y-116624741D01*
X268676218Y-106515219D02*
X270216011Y-105626219D01*
X259217489Y-111976219D02*
X260757282Y-111087219D01*
X260106489Y-113516012D02*
X259217489Y-111976219D01*
X265567489Y-122974741D02*
X264678489Y-121434948D01*
X267107282Y-122085741D02*
X265567489Y-122974741D01*
X276566011Y-116624741D02*
X275026218Y-117513741D01*
X275677011Y-115084948D02*
X276566011Y-116624741D01*
X270216011Y-105626219D02*
X271105011Y-107166012D01*
D12*
X249532300Y-89297250D02*
X250532300Y-89297250D01*
X250032300Y-88797250D02*
X250032300Y-89797250D01*
X256132300Y-92797250D02*
X256132300Y-95197250D01*
X256132300Y-87997250D02*
X256132300Y-90597250D01*
X256132300Y-83397250D02*
X256132300Y-85797250D01*
X242832300Y-85197250D02*
X242532300Y-85497250D01*
X242232300Y-85197250D02*
X242832300Y-85197250D01*
X242532300Y-85497250D02*
X242232300Y-85197250D01*
X243932300Y-83397250D02*
X243932300Y-95197250D01*
X248032300Y-83397250D02*
X243932300Y-83397250D01*
X248032300Y-95197250D02*
X243932300Y-95197250D01*
X256132300Y-95197250D02*
X252032300Y-95197250D01*
X252032300Y-83397250D02*
X256132300Y-83397250D01*
X253032300Y-89297250D02*
G75*
G03X253032300Y-89297250I-3000000J0D01*
G01*
%LPC*%
D13*
X229043441Y-109560775D03*
X228068145Y-116330037D03*
D14*
X232172850Y-114300480D03*
D15*
X229632850Y-118699889D03*
X234712850Y-109901071D03*
X270431750Y-118699889D03*
X265351750Y-109901071D03*
D14*
X267891750Y-114300480D03*
D13*
X268186455Y-109730923D03*
X273561159Y-113960185D03*
D14*
X145256250Y-52387500D03*
D16*
X140176250Y-52387500D03*
X150336250Y-52387500D03*
D17*
X147796250Y-47307500D03*
X141446250Y-49847500D03*
D14*
X221456250Y-70247170D03*
D16*
X216376250Y-70247170D03*
X226536250Y-70247170D03*
D17*
X223996250Y-65167170D03*
X217646250Y-67707170D03*
D14*
X373856290Y-109537500D03*
D16*
X368776290Y-109537500D03*
X378936290Y-109537500D03*
D17*
X376396290Y-104457500D03*
X370046290Y-106997500D03*
D14*
X373857820Y-33337640D03*
D16*
X368777820Y-33337640D03*
X378937820Y-33337640D03*
D17*
X376397820Y-28257640D03*
X370047820Y-30797640D03*
D14*
X354807740Y-33337640D03*
D16*
X349727740Y-33337640D03*
X359887740Y-33337640D03*
D17*
X357347740Y-28257640D03*
X350997740Y-30797640D03*
D14*
X335757660Y-29765750D03*
D16*
X330677660Y-29765750D03*
X340837660Y-29765750D03*
D17*
X338297660Y-24685750D03*
X331947660Y-27225750D03*
D14*
X316707580Y-27384490D03*
D16*
X311627580Y-27384490D03*
X321787580Y-27384490D03*
D17*
X319247580Y-22304490D03*
X312897580Y-24844490D03*
D14*
X297657500Y-29765750D03*
D16*
X292577500Y-29765750D03*
X302737500Y-29765750D03*
D17*
X300197500Y-24685750D03*
X293847500Y-27225750D03*
D14*
X278607420Y-32147010D03*
D16*
X273527420Y-32147010D03*
X283687420Y-32147010D03*
D17*
X281147420Y-27067010D03*
X274797420Y-29607010D03*
D14*
X221457180Y-32147010D03*
D16*
X216377180Y-32147010D03*
X226537180Y-32147010D03*
D17*
X223997180Y-27067010D03*
X217647180Y-29607010D03*
D14*
X202407100Y-29765750D03*
D16*
X197327100Y-29765750D03*
X207487100Y-29765750D03*
D17*
X204947100Y-24685750D03*
X198597100Y-27225750D03*
D14*
X183357020Y-27384490D03*
D16*
X178277020Y-27384490D03*
X188437020Y-27384490D03*
D17*
X185897020Y-22304490D03*
X179547020Y-24844490D03*
D14*
X164306940Y-29765750D03*
D16*
X159226940Y-29765750D03*
X169386940Y-29765750D03*
D17*
X166846940Y-24685750D03*
X160496940Y-27225750D03*
D14*
X145256860Y-33337640D03*
D16*
X140176860Y-33337640D03*
X150336860Y-33337640D03*
D17*
X147796860Y-28257640D03*
X141446860Y-30797640D03*
D14*
X126206780Y-33337640D03*
D16*
X121126780Y-33337640D03*
X131286780Y-33337640D03*
D17*
X128746780Y-28257640D03*
X122396780Y-30797640D03*
D18*
X245732300Y-23503230D03*
X254332300Y-23503230D03*
D19*
X254332300Y-19303230D03*
D20*
X252922300Y-22952230D03*
X247142300Y-22952230D03*
D19*
X245732300Y-19303230D03*
D14*
X202406250Y-48803130D03*
D16*
X197326250Y-48803130D03*
X207486250Y-48803130D03*
D17*
X204946250Y-43723130D03*
X198596250Y-46263130D03*
D14*
X373881690Y-71424800D03*
D16*
X368801690Y-71424800D03*
X378961690Y-71424800D03*
D17*
X376421690Y-66344800D03*
X370071690Y-68884800D03*
D14*
X297656290Y-67853210D03*
D16*
X292576290Y-67853210D03*
X302736290Y-67853210D03*
D17*
X300196290Y-62773210D03*
X293846290Y-65313210D03*
D14*
X316706290Y-103584370D03*
D16*
X311626290Y-103584370D03*
X321786290Y-103584370D03*
D17*
X319246290Y-98504370D03*
X312896290Y-101044370D03*
D14*
X335756290Y-48803130D03*
D16*
X330676290Y-48803130D03*
X340836290Y-48803130D03*
D17*
X338296290Y-43723130D03*
X331946290Y-46263130D03*
D14*
X183356250Y-84534370D03*
D16*
X178276250Y-84534370D03*
X188436250Y-84534370D03*
D17*
X185896250Y-79454370D03*
X179546250Y-81994370D03*
D14*
X202406250Y-67853210D03*
D16*
X197326250Y-67853210D03*
X207486250Y-67853210D03*
D17*
X204946250Y-62773210D03*
X198596250Y-65313210D03*
D14*
X183381650Y-103572110D03*
D16*
X178301650Y-103572110D03*
X188461650Y-103572110D03*
D17*
X185921650Y-98492110D03*
X179571650Y-101032110D03*
D14*
X164306250Y-67865910D03*
D16*
X159226250Y-67865910D03*
X169386250Y-67865910D03*
D17*
X166846250Y-62785910D03*
X160496250Y-65325910D03*
D14*
X164306250Y-48803130D03*
D16*
X159226250Y-48803130D03*
X169386250Y-48803130D03*
D17*
X166846250Y-43723130D03*
X160496250Y-46263130D03*
D14*
X297656290Y-86903290D03*
D16*
X292576290Y-86903290D03*
X302736290Y-86903290D03*
D17*
X300196290Y-81823290D03*
X293846290Y-84363290D03*
D14*
X278606290Y-89297250D03*
D16*
X273526290Y-89297250D03*
X283686290Y-89297250D03*
D17*
X281146290Y-84217250D03*
X274796290Y-86757250D03*
D14*
X335756290Y-105966070D03*
D16*
X330676290Y-105966070D03*
X340836290Y-105966070D03*
D17*
X338296290Y-100886070D03*
X331946290Y-103426070D03*
D21*
X257032300Y-91797250D03*
X257032300Y-86797250D03*
D22*
X250032300Y-94897250D03*
X250032300Y-83697250D03*
D21*
X242532300Y-91797250D03*
X242532300Y-89297250D03*
D23*
X242532300Y-86797250D03*
D24*
G36*
X136023661Y-67363231D02*
G01*
X136067426Y-67369723D01*
X136110345Y-67380473D01*
X136152003Y-67395379D01*
X136191999Y-67414296D01*
X136229949Y-67437042D01*
X136265486Y-67463398D01*
X136298269Y-67493111D01*
X136327982Y-67525894D01*
X136354338Y-67561431D01*
X136377084Y-67599381D01*
X136396001Y-67639377D01*
X136410907Y-67681035D01*
X136421657Y-67723954D01*
X136428149Y-67767719D01*
X136430320Y-67811910D01*
X136430320Y-68713610D01*
X136428149Y-68757801D01*
X136421657Y-68801566D01*
X136410907Y-68844485D01*
X136396001Y-68886143D01*
X136377084Y-68926139D01*
X136354338Y-68964089D01*
X136327982Y-68999626D01*
X136298269Y-69032409D01*
X136265486Y-69062122D01*
X136229949Y-69088478D01*
X136191999Y-69111224D01*
X136152003Y-69130141D01*
X136110345Y-69145047D01*
X136067426Y-69155797D01*
X136023661Y-69162289D01*
X135979470Y-69164460D01*
X135077770Y-69164460D01*
X135033579Y-69162289D01*
X134989814Y-69155797D01*
X134946895Y-69145047D01*
X134905237Y-69130141D01*
X134865241Y-69111224D01*
X134827291Y-69088478D01*
X134791754Y-69062122D01*
X134758971Y-69032409D01*
X134729258Y-68999626D01*
X134702902Y-68964089D01*
X134680156Y-68926139D01*
X134661239Y-68886143D01*
X134646333Y-68844485D01*
X134635583Y-68801566D01*
X134629091Y-68757801D01*
X134626920Y-68713610D01*
X134626920Y-67811910D01*
X134629091Y-67767719D01*
X134635583Y-67723954D01*
X134646333Y-67681035D01*
X134661239Y-67639377D01*
X134680156Y-67599381D01*
X134702902Y-67561431D01*
X134729258Y-67525894D01*
X134758971Y-67493111D01*
X134791754Y-67463398D01*
X134827291Y-67437042D01*
X134865241Y-67414296D01*
X134905237Y-67395379D01*
X134946895Y-67380473D01*
X134989814Y-67369723D01*
X135033579Y-67363231D01*
X135077770Y-67361060D01*
X135979470Y-67361060D01*
X136023661Y-67363231D01*
X136023661Y-67363231D01*
G37*
D25*
X135528620Y-68262760D03*
X135935020Y-65722760D03*
X135528620Y-63182760D03*
X135935020Y-60642760D03*
X135528620Y-58102760D03*
X135935020Y-55562760D03*
D14*
X126206250Y-52387500D03*
D16*
X121126250Y-52387500D03*
X131286250Y-52387500D03*
D17*
X128746250Y-47307500D03*
X122396250Y-49847500D03*
X179546250Y-43894370D03*
X185896250Y-41354370D03*
D16*
X188436250Y-46434370D03*
X178276250Y-46434370D03*
D14*
X183356250Y-46434370D03*
X221456250Y-51197090D03*
D16*
X216376250Y-51197090D03*
X226536250Y-51197090D03*
D17*
X223996250Y-46117090D03*
X217646250Y-48657090D03*
D14*
X278606290Y-51197090D03*
D16*
X273526290Y-51197090D03*
X283686290Y-51197090D03*
D17*
X281146290Y-46117090D03*
X274796290Y-48657090D03*
D14*
X297656290Y-48815830D03*
D16*
X292576290Y-48815830D03*
X302736290Y-48815830D03*
D17*
X300196290Y-43735830D03*
X293846290Y-46275830D03*
D14*
X316706290Y-46434370D03*
D16*
X311626290Y-46434370D03*
X321786290Y-46434370D03*
D17*
X319246290Y-41354370D03*
X312896290Y-43894370D03*
D14*
X354806290Y-52387500D03*
D16*
X349726290Y-52387500D03*
X359886290Y-52387500D03*
D17*
X357346290Y-47307500D03*
X350996290Y-49847500D03*
D14*
X373856290Y-52387500D03*
D16*
X368776290Y-52387500D03*
X378936290Y-52387500D03*
D17*
X376396290Y-47307500D03*
X370046290Y-49847500D03*
X122396250Y-68897500D03*
X128746250Y-66357500D03*
D16*
X131286250Y-71437500D03*
X121126250Y-71437500D03*
D14*
X126206250Y-71437500D03*
X145256250Y-71437500D03*
D16*
X140176250Y-71437500D03*
X150336250Y-71437500D03*
D17*
X147796250Y-66357500D03*
X141446250Y-68897500D03*
D14*
X183356250Y-65484370D03*
D16*
X178276250Y-65484370D03*
X188436250Y-65484370D03*
D17*
X185896250Y-60404370D03*
X179546250Y-62944370D03*
D14*
X278606290Y-70247170D03*
D16*
X273526290Y-70247170D03*
X283686290Y-70247170D03*
D17*
X281146290Y-65167170D03*
X274796290Y-67707170D03*
D14*
X316706290Y-65484370D03*
D16*
X311626290Y-65484370D03*
X321786290Y-65484370D03*
D17*
X319246290Y-60404370D03*
X312896290Y-62944370D03*
D14*
X335756290Y-67853210D03*
D16*
X330676290Y-67853210D03*
X340836290Y-67853210D03*
D17*
X338296290Y-62773210D03*
X331946290Y-65313210D03*
D14*
X354806290Y-71437500D03*
D16*
X349726290Y-71437500D03*
X359886290Y-71437500D03*
D17*
X357346290Y-66357500D03*
X350996290Y-68897500D03*
D14*
X126206250Y-90474800D03*
D16*
X121126250Y-90474800D03*
X131286250Y-90474800D03*
D17*
X128746250Y-85394800D03*
X122396250Y-87934800D03*
D14*
X145250000Y-90487300D03*
D16*
X140170000Y-90487300D03*
X150330000Y-90487300D03*
D17*
X147790000Y-85407300D03*
X141440000Y-87947300D03*
D14*
X164306250Y-86903290D03*
D16*
X159226250Y-86903290D03*
X169386250Y-86903290D03*
D17*
X166846250Y-81823290D03*
X160496250Y-84363290D03*
X198596250Y-84375990D03*
X204946250Y-81835990D03*
D16*
X207486250Y-86915990D03*
X197326250Y-86915990D03*
D14*
X202406250Y-86915990D03*
X221456250Y-89297250D03*
D16*
X216376250Y-89297250D03*
X226536250Y-89297250D03*
D17*
X223996250Y-84217250D03*
X217646250Y-86757250D03*
D14*
X316706290Y-84534370D03*
D16*
X311626290Y-84534370D03*
X321786290Y-84534370D03*
D17*
X319246290Y-79454370D03*
X312896290Y-81994370D03*
D14*
X335756290Y-86903290D03*
D16*
X330676290Y-86903290D03*
X340836290Y-86903290D03*
D17*
X338296290Y-81823290D03*
X331946290Y-84363290D03*
D14*
X354806290Y-90487500D03*
D16*
X349726290Y-90487500D03*
X359886290Y-90487500D03*
D17*
X357346290Y-85407500D03*
X350996290Y-87947500D03*
D14*
X126206250Y-109537500D03*
D16*
X121126250Y-109537500D03*
X131286250Y-109537500D03*
D17*
X128746250Y-104457500D03*
X122396250Y-106997500D03*
D14*
X145256250Y-109537500D03*
D16*
X140176250Y-109537500D03*
X150336250Y-109537500D03*
D17*
X147796250Y-104457500D03*
X141446250Y-106997500D03*
D14*
X164306940Y-105966070D03*
D16*
X159226940Y-105966070D03*
X169386940Y-105966070D03*
D17*
X166846940Y-100886070D03*
X160496940Y-103426070D03*
X206528102Y-106098408D03*
X213319132Y-105288457D03*
D16*
X214457783Y-110852760D03*
X204643976Y-108223159D03*
D14*
X209550880Y-109537960D03*
X290534968Y-109519119D03*
D16*
X285628064Y-110833919D03*
X295441871Y-108204318D03*
D17*
X291673618Y-103954815D03*
X286197390Y-108051768D03*
D14*
X354806290Y-109537500D03*
D16*
X349726290Y-109537500D03*
X359886290Y-109537500D03*
D17*
X357346290Y-104457500D03*
X350996290Y-106997500D03*
D14*
X373856290Y-90487500D03*
D16*
X368776290Y-90487500D03*
X378936290Y-90487500D03*
D17*
X376396290Y-85407500D03*
X370046290Y-87947500D03*
M02*
