G04 #@! TF.GenerationSoftware,KiCad,Pcbnew,(5.1.4-0)*
G04 #@! TF.CreationDate,2021-10-31T23:39:43-05:00*
G04 #@! TF.ProjectId,pcb,7063622e-6b69-4636-9164-5f7063625858,rev?*
G04 #@! TF.SameCoordinates,Original*
G04 #@! TF.FileFunction,Legend,Top*
G04 #@! TF.FilePolarity,Positive*
%FSLAX46Y46*%
G04 Gerber Fmt 4.6, Leading zero omitted, Abs format (unit mm)*
G04 Created by KiCad (PCBNEW (5.1.4-0)) date 2021-10-31 23:39:43*
%MOMM*%
%LPD*%
G04 APERTURE LIST*
%ADD10C,0.200000*%
%ADD11C,0.150000*%
%ADD12C,0.381000*%
%ADD13C,0.120000*%
%ADD14O,1.402000X2.002000*%
%ADD15C,0.752000*%
%ADD16O,1.402000X2.502000*%
%ADD17C,4.089800*%
%ADD18C,1.803800*%
%ADD19C,2.642000*%
%ADD20C,2.388000*%
%ADD21C,1.902000*%
%ADD22C,2.102000*%
%ADD23R,3.302000X2.102000*%
%ADD24R,2.102000X2.102000*%
%ADD25C,0.100000*%
%ADD26C,1.803400*%
G04 APERTURE END LIST*
D10*
X238722776Y-124632142D02*
X238722776Y-125465476D01*
X238722776Y-124751190D02*
X238782300Y-124691666D01*
X238901347Y-124632142D01*
X239079919Y-124632142D01*
X239198966Y-124691666D01*
X239258490Y-124810714D01*
X239258490Y-125465476D01*
X239853728Y-125465476D02*
X239853728Y-124632142D01*
X239853728Y-124215476D02*
X239794204Y-124275000D01*
X239853728Y-124334523D01*
X239913252Y-124275000D01*
X239853728Y-124215476D01*
X239853728Y-124334523D01*
X240448966Y-125465476D02*
X240448966Y-124215476D01*
X240568014Y-124989285D02*
X240925157Y-125465476D01*
X240925157Y-124632142D02*
X240448966Y-125108333D01*
X241639442Y-125465476D02*
X241520395Y-125405952D01*
X241460871Y-125346428D01*
X241401347Y-125227380D01*
X241401347Y-124870238D01*
X241460871Y-124751190D01*
X241520395Y-124691666D01*
X241639442Y-124632142D01*
X241818014Y-124632142D01*
X241937061Y-124691666D01*
X241996585Y-124751190D01*
X242056109Y-124870238D01*
X242056109Y-125227380D01*
X241996585Y-125346428D01*
X241937061Y-125405952D01*
X241818014Y-125465476D01*
X241639442Y-125465476D01*
X243544204Y-125465476D02*
X243544204Y-124632142D01*
X243544204Y-124870238D02*
X243603728Y-124751190D01*
X243663252Y-124691666D01*
X243782300Y-124632142D01*
X243901347Y-124632142D01*
X244794204Y-125405952D02*
X244675157Y-125465476D01*
X244437061Y-125465476D01*
X244318014Y-125405952D01*
X244258490Y-125286904D01*
X244258490Y-124810714D01*
X244318014Y-124691666D01*
X244437061Y-124632142D01*
X244675157Y-124632142D01*
X244794204Y-124691666D01*
X244853728Y-124810714D01*
X244853728Y-124929761D01*
X244258490Y-125048809D01*
X245270395Y-124632142D02*
X245568014Y-125465476D01*
X245865633Y-124632142D01*
X247948966Y-125465476D02*
X247234680Y-125465476D01*
X247591823Y-125465476D02*
X247591823Y-124215476D01*
X247472776Y-124394047D01*
X247353728Y-124513095D01*
X247234680Y-124572619D01*
X248484680Y-125346428D02*
X248544204Y-125405952D01*
X248484680Y-125465476D01*
X248425157Y-125405952D01*
X248484680Y-125346428D01*
X248484680Y-125465476D01*
X249318014Y-124215476D02*
X249437061Y-124215476D01*
X249556109Y-124275000D01*
X249615633Y-124334523D01*
X249675157Y-124453571D01*
X249734680Y-124691666D01*
X249734680Y-124989285D01*
X249675157Y-125227380D01*
X249615633Y-125346428D01*
X249556109Y-125405952D01*
X249437061Y-125465476D01*
X249318014Y-125465476D01*
X249198966Y-125405952D01*
X249139442Y-125346428D01*
X249079919Y-125227380D01*
X249020395Y-124989285D01*
X249020395Y-124691666D01*
X249079919Y-124453571D01*
X249139442Y-124334523D01*
X249198966Y-124275000D01*
X249318014Y-124215476D01*
X251163252Y-124334523D02*
X251222776Y-124275000D01*
X251341823Y-124215476D01*
X251639442Y-124215476D01*
X251758490Y-124275000D01*
X251818014Y-124334523D01*
X251877538Y-124453571D01*
X251877538Y-124572619D01*
X251818014Y-124751190D01*
X251103728Y-125465476D01*
X251877538Y-125465476D01*
X252651347Y-124215476D02*
X252770395Y-124215476D01*
X252889442Y-124275000D01*
X252948966Y-124334523D01*
X253008490Y-124453571D01*
X253068014Y-124691666D01*
X253068014Y-124989285D01*
X253008490Y-125227380D01*
X252948966Y-125346428D01*
X252889442Y-125405952D01*
X252770395Y-125465476D01*
X252651347Y-125465476D01*
X252532300Y-125405952D01*
X252472776Y-125346428D01*
X252413252Y-125227380D01*
X252353728Y-124989285D01*
X252353728Y-124691666D01*
X252413252Y-124453571D01*
X252472776Y-124334523D01*
X252532300Y-124275000D01*
X252651347Y-124215476D01*
X253544204Y-124334523D02*
X253603728Y-124275000D01*
X253722776Y-124215476D01*
X254020395Y-124215476D01*
X254139442Y-124275000D01*
X254198966Y-124334523D01*
X254258490Y-124453571D01*
X254258490Y-124572619D01*
X254198966Y-124751190D01*
X253484680Y-125465476D01*
X254258490Y-125465476D01*
X255448966Y-125465476D02*
X254734680Y-125465476D01*
X255091823Y-125465476D02*
X255091823Y-124215476D01*
X254972776Y-124394047D01*
X254853728Y-124513095D01*
X254734680Y-124572619D01*
X255984680Y-125346428D02*
X256044204Y-125405952D01*
X255984680Y-125465476D01*
X255925157Y-125405952D01*
X255984680Y-125346428D01*
X255984680Y-125465476D01*
X257234680Y-125465476D02*
X256520395Y-125465476D01*
X256877538Y-125465476D02*
X256877538Y-124215476D01*
X256758490Y-124394047D01*
X256639442Y-124513095D01*
X256520395Y-124572619D01*
X258008490Y-124215476D02*
X258127538Y-124215476D01*
X258246585Y-124275000D01*
X258306109Y-124334523D01*
X258365633Y-124453571D01*
X258425157Y-124691666D01*
X258425157Y-124989285D01*
X258365633Y-125227380D01*
X258306109Y-125346428D01*
X258246585Y-125405952D01*
X258127538Y-125465476D01*
X258008490Y-125465476D01*
X257889442Y-125405952D01*
X257829919Y-125346428D01*
X257770395Y-125227380D01*
X257710871Y-124989285D01*
X257710871Y-124691666D01*
X257770395Y-124453571D01*
X257829919Y-124334523D01*
X257889442Y-124275000D01*
X258008490Y-124215476D01*
X258960871Y-125346428D02*
X259020395Y-125405952D01*
X258960871Y-125465476D01*
X258901347Y-125405952D01*
X258960871Y-125346428D01*
X258960871Y-125465476D01*
X259437061Y-124215476D02*
X260210871Y-124215476D01*
X259794204Y-124691666D01*
X259972776Y-124691666D01*
X260091823Y-124751190D01*
X260151347Y-124810714D01*
X260210871Y-124929761D01*
X260210871Y-125227380D01*
X260151347Y-125346428D01*
X260091823Y-125405952D01*
X259972776Y-125465476D01*
X259615633Y-125465476D01*
X259496585Y-125405952D01*
X259437061Y-125346428D01*
X261401347Y-125465476D02*
X260687061Y-125465476D01*
X261044204Y-125465476D02*
X261044204Y-124215476D01*
X260925157Y-124394047D01*
X260806109Y-124513095D01*
X260687061Y-124572619D01*
D11*
X118772380Y-85559047D02*
X119486666Y-85559047D01*
X119629523Y-85606666D01*
X119724761Y-85701904D01*
X119772380Y-85844761D01*
X119772380Y-85940000D01*
X119772380Y-84606666D02*
X119772380Y-85082857D01*
X118772380Y-85082857D01*
X119677142Y-83701904D02*
X119724761Y-83749523D01*
X119772380Y-83892380D01*
X119772380Y-83987619D01*
X119724761Y-84130476D01*
X119629523Y-84225714D01*
X119534285Y-84273333D01*
X119343809Y-84320952D01*
X119200952Y-84320952D01*
X119010476Y-84273333D01*
X118915238Y-84225714D01*
X118820000Y-84130476D01*
X118772380Y-83987619D01*
X118772380Y-83892380D01*
X118820000Y-83749523D01*
X118867619Y-83701904D01*
X118772380Y-82987619D02*
X119486666Y-82987619D01*
X119629523Y-83035238D01*
X119724761Y-83130476D01*
X119772380Y-83273333D01*
X119772380Y-83368571D01*
X119772380Y-82035238D02*
X119772380Y-82511428D01*
X118772380Y-82511428D01*
X119677142Y-81130476D02*
X119724761Y-81178095D01*
X119772380Y-81320952D01*
X119772380Y-81416190D01*
X119724761Y-81559047D01*
X119629523Y-81654285D01*
X119534285Y-81701904D01*
X119343809Y-81749523D01*
X119200952Y-81749523D01*
X119010476Y-81701904D01*
X118915238Y-81654285D01*
X118820000Y-81559047D01*
X118772380Y-81416190D01*
X118772380Y-81320952D01*
X118820000Y-81178095D01*
X118867619Y-81130476D01*
X118772380Y-80416190D02*
X119486666Y-80416190D01*
X119629523Y-80463809D01*
X119724761Y-80559047D01*
X119772380Y-80701904D01*
X119772380Y-80797142D01*
X119772380Y-79463809D02*
X119772380Y-79940000D01*
X118772380Y-79940000D01*
X119677142Y-78559047D02*
X119724761Y-78606666D01*
X119772380Y-78749523D01*
X119772380Y-78844761D01*
X119724761Y-78987619D01*
X119629523Y-79082857D01*
X119534285Y-79130476D01*
X119343809Y-79178095D01*
X119200952Y-79178095D01*
X119010476Y-79130476D01*
X118915238Y-79082857D01*
X118820000Y-78987619D01*
X118772380Y-78844761D01*
X118772380Y-78749523D01*
X118820000Y-78606666D01*
X118867619Y-78559047D01*
X118772380Y-77844761D02*
X119486666Y-77844761D01*
X119629523Y-77892380D01*
X119724761Y-77987619D01*
X119772380Y-78130476D01*
X119772380Y-78225714D01*
X119772380Y-76892380D02*
X119772380Y-77368571D01*
X118772380Y-77368571D01*
X119677142Y-75987619D02*
X119724761Y-76035238D01*
X119772380Y-76178095D01*
X119772380Y-76273333D01*
X119724761Y-76416190D01*
X119629523Y-76511428D01*
X119534285Y-76559047D01*
X119343809Y-76606666D01*
X119200952Y-76606666D01*
X119010476Y-76559047D01*
X118915238Y-76511428D01*
X118820000Y-76416190D01*
X118772380Y-76273333D01*
X118772380Y-76178095D01*
X118820000Y-76035238D01*
X118867619Y-75987619D01*
D12*
X224689219Y-116624741D02*
X225578219Y-115084948D01*
X230150219Y-107166012D02*
X231039219Y-105626219D01*
X231039219Y-105626219D02*
X232579012Y-106515219D01*
X240497948Y-111087219D02*
X242037741Y-111976219D01*
X242037741Y-111976219D02*
X241148741Y-113516012D01*
X236576741Y-121434948D02*
X235687741Y-122974741D01*
X235687741Y-122974741D02*
X234147948Y-122085741D01*
X226229012Y-117513741D02*
X224689219Y-116624741D01*
X267485588Y-106515219D02*
X269025381Y-105626219D01*
X258026859Y-111976219D02*
X259566652Y-111087219D01*
X258915859Y-113516012D02*
X258026859Y-111976219D01*
X264376859Y-122974741D02*
X263487859Y-121434948D01*
X265916652Y-122085741D02*
X264376859Y-122974741D01*
X275375381Y-116624741D02*
X273835588Y-117513741D01*
X274486381Y-115084948D02*
X275375381Y-116624741D01*
X269025381Y-105626219D02*
X269914381Y-107166012D01*
D13*
X249532300Y-89297250D02*
X250532300Y-89297250D01*
X250032300Y-88797250D02*
X250032300Y-89797250D01*
X256132300Y-92797250D02*
X256132300Y-95197250D01*
X256132300Y-87997250D02*
X256132300Y-90597250D01*
X256132300Y-83397250D02*
X256132300Y-85797250D01*
X242832300Y-85197250D02*
X242532300Y-85497250D01*
X242232300Y-85197250D02*
X242832300Y-85197250D01*
X242532300Y-85497250D02*
X242232300Y-85197250D01*
X243932300Y-83397250D02*
X243932300Y-95197250D01*
X248032300Y-83397250D02*
X243932300Y-83397250D01*
X248032300Y-95197250D02*
X243932300Y-95197250D01*
X256132300Y-95197250D02*
X252032300Y-95197250D01*
X252032300Y-83397250D02*
X256132300Y-83397250D01*
X253032300Y-89297250D02*
G75*
G03X253032300Y-89297250I-3000000J0D01*
G01*
%LPC*%
D14*
X245732300Y-16921982D03*
D15*
X247142300Y-20570982D03*
X252922300Y-20570982D03*
D14*
X254332300Y-16921982D03*
D16*
X254332300Y-21121982D03*
X245732300Y-21121982D03*
D17*
X221456250Y-51197090D03*
D18*
X216376250Y-51197090D03*
X226536250Y-51197090D03*
D19*
X223996250Y-46117090D03*
X217646250Y-48657090D03*
D17*
X297657500Y-29765750D03*
D18*
X292577500Y-29765750D03*
X302737500Y-29765750D03*
D19*
X300197500Y-24685750D03*
X293847500Y-27225750D03*
D20*
X230234071Y-109560775D03*
X229258775Y-116330037D03*
D17*
X233363480Y-114300480D03*
D21*
X230823480Y-118699889D03*
X235903480Y-109901071D03*
X269241120Y-118699889D03*
X264161120Y-109901071D03*
D17*
X266701120Y-114300480D03*
D20*
X266995825Y-109730923D03*
X272370529Y-113960185D03*
D17*
X145256250Y-52387500D03*
D18*
X140176250Y-52387500D03*
X150336250Y-52387500D03*
D19*
X147796250Y-47307500D03*
X141446250Y-49847500D03*
D17*
X221456250Y-70247170D03*
D18*
X216376250Y-70247170D03*
X226536250Y-70247170D03*
D19*
X223996250Y-65167170D03*
X217646250Y-67707170D03*
D17*
X373857820Y-33337640D03*
D18*
X368777820Y-33337640D03*
X378937820Y-33337640D03*
D19*
X376397820Y-28257640D03*
X370047820Y-30797640D03*
D17*
X354807740Y-33337640D03*
D18*
X349727740Y-33337640D03*
X359887740Y-33337640D03*
D19*
X357347740Y-28257640D03*
X350997740Y-30797640D03*
D17*
X335757660Y-29765750D03*
D18*
X330677660Y-29765750D03*
X340837660Y-29765750D03*
D19*
X338297660Y-24685750D03*
X331947660Y-27225750D03*
D17*
X316707580Y-27384490D03*
D18*
X311627580Y-27384490D03*
X321787580Y-27384490D03*
D19*
X319247580Y-22304490D03*
X312897580Y-24844490D03*
D17*
X278607420Y-32147010D03*
D18*
X273527420Y-32147010D03*
X283687420Y-32147010D03*
D19*
X281147420Y-27067010D03*
X274797420Y-29607010D03*
D17*
X221457180Y-32147010D03*
D18*
X216377180Y-32147010D03*
X226537180Y-32147010D03*
D19*
X223997180Y-27067010D03*
X217647180Y-29607010D03*
D17*
X202407100Y-29765750D03*
D18*
X197327100Y-29765750D03*
X207487100Y-29765750D03*
D19*
X204947100Y-24685750D03*
X198597100Y-27225750D03*
D17*
X183357020Y-27384490D03*
D18*
X178277020Y-27384490D03*
X188437020Y-27384490D03*
D19*
X185897020Y-22304490D03*
X179547020Y-24844490D03*
D17*
X164306940Y-29765750D03*
D18*
X159226940Y-29765750D03*
X169386940Y-29765750D03*
D19*
X166846940Y-24685750D03*
X160496940Y-27225750D03*
D17*
X145256860Y-33337640D03*
D18*
X140176860Y-33337640D03*
X150336860Y-33337640D03*
D19*
X147796860Y-28257640D03*
X141446860Y-30797640D03*
D17*
X126206780Y-33337640D03*
D18*
X121126780Y-33337640D03*
X131286780Y-33337640D03*
D19*
X128746780Y-28257640D03*
X122396780Y-30797640D03*
D17*
X202406250Y-48803130D03*
D18*
X197326250Y-48803130D03*
X207486250Y-48803130D03*
D19*
X204946250Y-43723130D03*
X198596250Y-46263130D03*
D17*
X373881690Y-71424800D03*
D18*
X368801690Y-71424800D03*
X378961690Y-71424800D03*
D19*
X376421690Y-66344800D03*
X370071690Y-68884800D03*
D17*
X297656290Y-67853210D03*
D18*
X292576290Y-67853210D03*
X302736290Y-67853210D03*
D19*
X300196290Y-62773210D03*
X293846290Y-65313210D03*
D17*
X316706290Y-103584370D03*
D18*
X311626290Y-103584370D03*
X321786290Y-103584370D03*
D19*
X319246290Y-98504370D03*
X312896290Y-101044370D03*
D17*
X335756290Y-48803130D03*
D18*
X330676290Y-48803130D03*
X340836290Y-48803130D03*
D19*
X338296290Y-43723130D03*
X331946290Y-46263130D03*
D17*
X183356250Y-84534370D03*
D18*
X178276250Y-84534370D03*
X188436250Y-84534370D03*
D19*
X185896250Y-79454370D03*
X179546250Y-81994370D03*
D17*
X202406250Y-67853210D03*
D18*
X197326250Y-67853210D03*
X207486250Y-67853210D03*
D19*
X204946250Y-62773210D03*
X198596250Y-65313210D03*
D17*
X183381650Y-103572110D03*
D18*
X178301650Y-103572110D03*
X188461650Y-103572110D03*
D19*
X185921650Y-98492110D03*
X179571650Y-101032110D03*
D17*
X164306250Y-67865910D03*
D18*
X159226250Y-67865910D03*
X169386250Y-67865910D03*
D19*
X166846250Y-62785910D03*
X160496250Y-65325910D03*
D17*
X164306250Y-48803130D03*
D18*
X159226250Y-48803130D03*
X169386250Y-48803130D03*
D19*
X166846250Y-43723130D03*
X160496250Y-46263130D03*
D17*
X297656290Y-86903290D03*
D18*
X292576290Y-86903290D03*
X302736290Y-86903290D03*
D19*
X300196290Y-81823290D03*
X293846290Y-84363290D03*
D17*
X278606290Y-89297250D03*
D18*
X273526290Y-89297250D03*
X283686290Y-89297250D03*
D19*
X281146290Y-84217250D03*
X274796290Y-86757250D03*
D17*
X335756290Y-105966070D03*
D18*
X330676290Y-105966070D03*
X340836290Y-105966070D03*
D19*
X338296290Y-100886070D03*
X331946290Y-103426070D03*
D22*
X257032300Y-91797250D03*
X257032300Y-86797250D03*
D23*
X250032300Y-94897250D03*
X250032300Y-83697250D03*
D22*
X242532300Y-91797250D03*
X242532300Y-89297250D03*
D24*
X242532300Y-86797250D03*
D25*
G36*
X136023661Y-67363231D02*
G01*
X136067426Y-67369723D01*
X136110345Y-67380473D01*
X136152003Y-67395379D01*
X136191999Y-67414296D01*
X136229949Y-67437042D01*
X136265486Y-67463398D01*
X136298269Y-67493111D01*
X136327982Y-67525894D01*
X136354338Y-67561431D01*
X136377084Y-67599381D01*
X136396001Y-67639377D01*
X136410907Y-67681035D01*
X136421657Y-67723954D01*
X136428149Y-67767719D01*
X136430320Y-67811910D01*
X136430320Y-68713610D01*
X136428149Y-68757801D01*
X136421657Y-68801566D01*
X136410907Y-68844485D01*
X136396001Y-68886143D01*
X136377084Y-68926139D01*
X136354338Y-68964089D01*
X136327982Y-68999626D01*
X136298269Y-69032409D01*
X136265486Y-69062122D01*
X136229949Y-69088478D01*
X136191999Y-69111224D01*
X136152003Y-69130141D01*
X136110345Y-69145047D01*
X136067426Y-69155797D01*
X136023661Y-69162289D01*
X135979470Y-69164460D01*
X135077770Y-69164460D01*
X135033579Y-69162289D01*
X134989814Y-69155797D01*
X134946895Y-69145047D01*
X134905237Y-69130141D01*
X134865241Y-69111224D01*
X134827291Y-69088478D01*
X134791754Y-69062122D01*
X134758971Y-69032409D01*
X134729258Y-68999626D01*
X134702902Y-68964089D01*
X134680156Y-68926139D01*
X134661239Y-68886143D01*
X134646333Y-68844485D01*
X134635583Y-68801566D01*
X134629091Y-68757801D01*
X134626920Y-68713610D01*
X134626920Y-67811910D01*
X134629091Y-67767719D01*
X134635583Y-67723954D01*
X134646333Y-67681035D01*
X134661239Y-67639377D01*
X134680156Y-67599381D01*
X134702902Y-67561431D01*
X134729258Y-67525894D01*
X134758971Y-67493111D01*
X134791754Y-67463398D01*
X134827291Y-67437042D01*
X134865241Y-67414296D01*
X134905237Y-67395379D01*
X134946895Y-67380473D01*
X134989814Y-67369723D01*
X135033579Y-67363231D01*
X135077770Y-67361060D01*
X135979470Y-67361060D01*
X136023661Y-67363231D01*
X136023661Y-67363231D01*
G37*
D26*
X135528620Y-68262760D03*
X135935020Y-65722760D03*
X135528620Y-63182760D03*
X135935020Y-60642760D03*
X135528620Y-58102760D03*
X135935020Y-55562760D03*
D17*
X126206250Y-52387500D03*
D18*
X121126250Y-52387500D03*
X131286250Y-52387500D03*
D19*
X128746250Y-47307500D03*
X122396250Y-49847500D03*
X179546250Y-43894370D03*
X185896250Y-41354370D03*
D18*
X188436250Y-46434370D03*
X178276250Y-46434370D03*
D17*
X183356250Y-46434370D03*
X278606290Y-51197090D03*
D18*
X273526290Y-51197090D03*
X283686290Y-51197090D03*
D19*
X281146290Y-46117090D03*
X274796290Y-48657090D03*
D17*
X297656290Y-48815830D03*
D18*
X292576290Y-48815830D03*
X302736290Y-48815830D03*
D19*
X300196290Y-43735830D03*
X293846290Y-46275830D03*
D17*
X316706290Y-46434370D03*
D18*
X311626290Y-46434370D03*
X321786290Y-46434370D03*
D19*
X319246290Y-41354370D03*
X312896290Y-43894370D03*
D17*
X354806290Y-52387500D03*
D18*
X349726290Y-52387500D03*
X359886290Y-52387500D03*
D19*
X357346290Y-47307500D03*
X350996290Y-49847500D03*
D17*
X373856290Y-52387500D03*
D18*
X368776290Y-52387500D03*
X378936290Y-52387500D03*
D19*
X376396290Y-47307500D03*
X370046290Y-49847500D03*
X122396250Y-68897500D03*
X128746250Y-66357500D03*
D18*
X131286250Y-71437500D03*
X121126250Y-71437500D03*
D17*
X126206250Y-71437500D03*
X145256250Y-71437500D03*
D18*
X140176250Y-71437500D03*
X150336250Y-71437500D03*
D19*
X147796250Y-66357500D03*
X141446250Y-68897500D03*
D17*
X183356250Y-65484370D03*
D18*
X178276250Y-65484370D03*
X188436250Y-65484370D03*
D19*
X185896250Y-60404370D03*
X179546250Y-62944370D03*
D17*
X278606290Y-70247170D03*
D18*
X273526290Y-70247170D03*
X283686290Y-70247170D03*
D19*
X281146290Y-65167170D03*
X274796290Y-67707170D03*
D17*
X316706290Y-65484370D03*
D18*
X311626290Y-65484370D03*
X321786290Y-65484370D03*
D19*
X319246290Y-60404370D03*
X312896290Y-62944370D03*
D17*
X335756290Y-67853210D03*
D18*
X330676290Y-67853210D03*
X340836290Y-67853210D03*
D19*
X338296290Y-62773210D03*
X331946290Y-65313210D03*
D17*
X354806290Y-71437500D03*
D18*
X349726290Y-71437500D03*
X359886290Y-71437500D03*
D19*
X357346290Y-66357500D03*
X350996290Y-68897500D03*
D17*
X126206250Y-90474800D03*
D18*
X121126250Y-90474800D03*
X131286250Y-90474800D03*
D19*
X128746250Y-85394800D03*
X122396250Y-87934800D03*
D17*
X145250000Y-90487300D03*
D18*
X140170000Y-90487300D03*
X150330000Y-90487300D03*
D19*
X147790000Y-85407300D03*
X141440000Y-87947300D03*
D17*
X164306250Y-86903290D03*
D18*
X159226250Y-86903290D03*
X169386250Y-86903290D03*
D19*
X166846250Y-81823290D03*
X160496250Y-84363290D03*
X198596250Y-84375990D03*
X204946250Y-81835990D03*
D18*
X207486250Y-86915990D03*
X197326250Y-86915990D03*
D17*
X202406250Y-86915990D03*
X221456250Y-89297250D03*
D18*
X216376250Y-89297250D03*
X226536250Y-89297250D03*
D19*
X223996250Y-84217250D03*
X217646250Y-86757250D03*
D17*
X316706290Y-84534370D03*
D18*
X311626290Y-84534370D03*
X321786290Y-84534370D03*
D19*
X319246290Y-79454370D03*
X312896290Y-81994370D03*
D17*
X335756290Y-86903290D03*
D18*
X330676290Y-86903290D03*
X340836290Y-86903290D03*
D19*
X338296290Y-81823290D03*
X331946290Y-84363290D03*
D17*
X354806290Y-90487500D03*
D18*
X349726290Y-90487500D03*
X359886290Y-90487500D03*
D19*
X357346290Y-85407500D03*
X350996290Y-87947500D03*
D17*
X164306940Y-105966070D03*
D18*
X159226940Y-105966070D03*
X169386940Y-105966070D03*
D19*
X166846940Y-100886070D03*
X160496940Y-103426070D03*
X206528102Y-106098408D03*
X213319132Y-105288457D03*
D18*
X214457783Y-110852760D03*
X204643976Y-108223159D03*
D17*
X209550880Y-109537960D03*
X290534968Y-109519119D03*
D18*
X285628064Y-110833919D03*
X295441871Y-108204318D03*
D19*
X291673618Y-103954815D03*
X286197390Y-108051768D03*
D17*
X373856290Y-90487500D03*
D18*
X368776290Y-90487500D03*
X378936290Y-90487500D03*
D19*
X376396290Y-85407500D03*
X370046290Y-87947500D03*
M02*
