M48
; DRILL file {KiCad (5.1.4-0)} date Wednesday, October 20, 2021 at 03:49:38 PM
; FORMAT={-:-/ absolute / inch / decimal}
; #@! TF.CreationDate,2021-10-20T15:49:38-05:00
; #@! TF.GenerationSoftware,Kicad,Pcbnew,(5.1.4-0)
; #@! TF.FileFunction,Plated,1,2,PTH
FMAT,2
INCH
T1C0.0118
T2C0.0157
T3C0.0236
T4C0.0394
T5C0.0420
T6C0.0590
T7C0.0591
T8C0.0600
%
G90
G05
T1
X8.9646Y-1.7205
X9.065Y-1.439
X9.0709Y-2.2008
X9.0709Y-2.2323
X9.0709Y-2.2638
X9.0709Y-2.2953
X9.3268Y-2.2008
X9.3268Y-2.2323
X9.3268Y-2.2638
X9.3268Y-2.2953
X9.4134Y-1.7205
X9.719Y-1.0236
X9.7924Y-1.0037
X9.9119Y-1.0039
X9.9882Y-2.8976
X9.9907Y-1.0236
X10.0175Y-2.9171
X10.5591Y-1.437
X11.3435Y-2.3898
T2
X9.122Y-2.3211
X9.4685Y-2.0512
X9.4695Y-2.3573
X9.4695Y-2.5344
X9.6299Y-2.7244
X9.878Y-2.7244
X10.185Y-2.185
T4
X9.5485Y-3.4172
X9.5485Y-3.5156
X9.5485Y-3.6141
X10.1194Y-3.4172
X10.1194Y-3.6141
T5
X5.3358Y-2.2875
X5.3358Y-2.4875
X5.3358Y-2.6875
X5.3518Y-2.1875
X5.3518Y-2.3875
X5.3518Y-2.5875
T6
X10.5116Y-4.3201
X10.7232Y-4.4866
X9.0259Y-4.5799
X9.0643Y-4.3134
T8
X14.5688Y-1.2125
X14.8188Y-1.1125
X5.5685Y-3.4625
X5.8185Y-3.3625
X7.0687Y-2.4781
X7.3187Y-2.3781
X13.8188Y-1.2125
X14.0688Y-1.1125
X12.3188Y-2.4781
X12.5688Y-2.3781
X7.3188Y-0.8781
X10.8188Y-1.9156
X4.8187Y-1.9625
X5.0687Y-1.8625
X7.0688Y-0.9781
X14.5698Y-2.712
X14.8198Y-2.612
X11.0688Y-1.8156
X13.0688Y-2.5714
X6.5688Y-0.9719
X11.5688Y-1.8219
X11.8188Y-1.7219
X5.0688Y-1.1125
X7.0687Y-3.2281
X7.3187Y-3.1281
X13.3188Y-2.4714
X8.5687Y-1.9156
X8.8187Y-1.8156
X6.3188Y-1.0719
X5.8188Y-1.1125
X7.8187Y-2.5714
X8.0687Y-2.4714
X12.3188Y-3.2281
X12.5688Y-3.1281
X13.8188Y-1.9625
X14.0688Y-1.8625
X7.8188Y-1.0719
X8.0688Y-0.9719
X5.5688Y-1.2125
X10.8188Y-1.1656
X11.0688Y-1.0656
X12.3188Y-0.9781
X12.5688Y-0.8781
X13.0688Y-1.0719
X13.3188Y-0.9719
X4.8187Y-3.462
X5.0687Y-3.362
X4.8188Y-1.2125
X7.0697Y-3.9776
X8.5687Y-3.4156
X8.8187Y-3.3156
X14.5688Y-3.4625
X14.8188Y-3.3625
X13.0688Y-3.3214
X13.3188Y-3.2214
X7.3197Y-3.8776
X8.5688Y-1.1656
X8.8188Y-1.0656
X6.3187Y-3.3214
X6.5687Y-3.2214
X12.3188Y-1.7281
X12.5688Y-1.6281
X14.5688Y-1.9625
X14.8188Y-1.8625
X5.5687Y-1.9625
X5.8187Y-1.8625
X11.5688Y-1.0719
X11.8188Y-0.9719
X12.5688Y-3.8781
X12.3188Y-3.9781
X4.8187Y-2.7125
X5.0687Y-2.6125
X8.3984Y-4.1452
X8.131Y-4.1771
X11.5688Y-2.5714
X11.8188Y-2.4714
X6.3188Y-4.0719
X6.5688Y-3.9719
X7.8187Y-1.8214
X8.0687Y-1.7214
X13.8188Y-3.4625
X14.0688Y-3.3625
X11.5688Y-3.3214
X11.8188Y-3.2214
X8.5687Y-2.6656
X8.8187Y-2.5656
X7.0687Y-1.7281
X6.5687Y-2.4719
X6.3187Y-2.5719
X7.3187Y-1.6281
X7.8187Y-3.3219
X8.0687Y-3.2219
X6.3187Y-1.8214
X6.5687Y-1.7214
X11.0688Y-3.3156
X13.0688Y-4.0719
X13.8188Y-2.7125
X14.0688Y-2.6125
X13.0688Y-1.8214
X13.3188Y-1.7214
X5.5687Y-2.7125
X5.8187Y-2.6125
X11.2676Y-4.254
X11.4832Y-4.0927
X10.8188Y-3.4156
X13.3188Y-3.9719
X10.8188Y-2.6656
X11.0688Y-2.5656
T3
G00X9.6745Y-0.7482
M15
G01X9.6745Y-0.7718
M16
G05
G00X9.6745Y-0.9037
M15
G01X9.6745Y-0.947
M16
G05
G00X10.0131Y-0.7482
M15
G01X10.0131Y-0.7718
M16
G05
G00X10.0131Y-0.9037
M15
G01X10.0131Y-0.947
M16
G05
T7
G00X9.8182Y-3.2952
M15
G01X9.8694Y-3.2952
M16
G05
G00X9.8182Y-3.7361
M15
G01X9.8694Y-3.7361
M16
G05
T0
M30
