M48
; DRILL file {KiCad (5.1.4-0)} date Thursday, November 04, 2021 at 11:39:54 AM
; FORMAT={-:-/ absolute / inch / decimal}
; #@! TF.CreationDate,2021-11-04T11:39:54-05:00
; #@! TF.GenerationSoftware,Kicad,Pcbnew,(5.1.4-0)
; #@! TF.FileFunction,Plated,1,2,PTH
FMAT,2
INCH
T1C0.0118
T2C0.0138
T3C0.0157
T4C0.0197
T5C0.0236
T6C0.0394
T7C0.0420
T8C0.0590
T9C0.0591
T10C0.0600
%
G90
G05
T1
X11.3435Y-2.3898
T2
X8.9646Y-1.7205
X9.065Y-1.439
X9.0709Y-2.2638
X9.0709Y-2.2945
X9.0713Y-2.2319
X9.0717Y-2.2
X9.3268Y-2.2016
X9.3268Y-2.2323
X9.3268Y-2.2638
X9.3268Y-2.2945
X9.4134Y-1.7205
X9.5984Y-0.9248
X9.7835Y-0.9248
X9.9173Y-0.9288
X9.9882Y-2.8898
X10.016Y-2.9161
X10.0394Y-0.9288
X10.5571Y-1.439
T3
X9.4695Y-2.5344
T4
X9.122Y-2.3228
X9.4695Y-2.0522
X9.4695Y-2.3573
X9.6299Y-2.7244
X9.878Y-2.7244
X10.185Y-2.185
T6
X9.5485Y-3.4172
X9.5485Y-3.5156
X9.5485Y-3.6141
X10.1194Y-3.4172
X10.1194Y-3.6141
T7
X5.3358Y-2.2875
X5.3358Y-2.4875
X5.3358Y-2.6875
X5.3518Y-2.1875
X5.3518Y-2.3875
X5.3518Y-2.5875
T8
X10.5116Y-4.3201
X10.7232Y-4.4866
X9.0259Y-4.5799
X9.0643Y-4.3134
T10
X13.8188Y-3.4625
X14.0688Y-3.3625
X5.5687Y-1.9625
X5.8187Y-1.8625
X10.8188Y-1.9156
X11.0688Y-1.8156
X12.3188Y-3.9781
X12.5688Y-3.8781
X8.5687Y-3.4156
X6.3188Y-1.0719
X6.5688Y-0.9719
X8.8187Y-3.3156
X12.3188Y-3.2281
X12.5688Y-3.1281
X4.8187Y-2.7125
X13.8188Y-2.7125
X5.0687Y-2.6125
X14.0688Y-2.6125
X7.0688Y-0.9781
X7.3188Y-0.8781
X8.0687Y-2.4714
X14.5698Y-2.712
X14.8198Y-2.612
X7.0687Y-1.7281
X7.3187Y-1.6281
X5.5687Y-2.7125
X5.8187Y-2.6125
X5.5688Y-1.2125
X10.8188Y-1.1656
X11.5688Y-2.5714
X11.8188Y-2.4714
X7.0697Y-3.9776
X7.3197Y-3.8776
X7.8188Y-1.0719
X8.0688Y-0.9719
X5.8188Y-1.1125
X13.0688Y-3.3214
X13.3188Y-3.2214
X8.5687Y-1.9156
X8.8187Y-1.8156
X11.0688Y-1.0656
X14.5688Y-3.4625
X5.5685Y-3.4625
X5.8185Y-3.3625
X13.0688Y-1.0719
X13.3188Y-0.9719
X11.5688Y-1.0719
X11.8188Y-0.9719
X7.0687Y-3.2281
X7.3187Y-3.1281
X7.8187Y-2.5714
X8.5688Y-1.1656
X8.8188Y-1.0656
X6.3187Y-2.5719
X6.5687Y-2.4719
X6.3188Y-4.0719
X6.5688Y-3.9719
X7.0687Y-2.4781
X14.8188Y-3.3625
X8.3984Y-4.1452
X11.5688Y-1.8219
X11.8188Y-1.7219
X11.5688Y-3.3214
X11.8188Y-3.2214
X8.131Y-4.1771
X7.3187Y-2.3781
X8.5687Y-2.6656
X8.8187Y-2.5656
X12.3188Y-1.7281
X12.5688Y-1.6281
X4.8188Y-1.2125
X5.0688Y-1.1125
X12.3188Y-0.9781
X12.5688Y-0.8781
X10.8188Y-3.4156
X11.0688Y-3.3156
X10.8188Y-2.6656
X11.0688Y-2.5656
X6.3187Y-1.8214
X6.5687Y-1.7214
X13.3188Y-2.4714
X13.0688Y-1.8214
X13.0688Y-2.5714
X13.0688Y-4.0719
X4.8187Y-3.462
X5.0687Y-3.362
X12.3188Y-2.4781
X12.5688Y-2.3781
X13.3188Y-1.7214
X6.3187Y-3.3214
X6.5687Y-3.2214
X7.8187Y-3.3219
X8.0687Y-3.2219
X11.2676Y-4.254
X11.4832Y-4.0927
X14.5688Y-1.2125
X14.8188Y-1.1125
X13.8188Y-1.2125
X14.0688Y-1.1125
X4.8187Y-1.9625
X5.0687Y-1.8625
X13.8188Y-1.9625
X14.0688Y-1.8625
X14.5688Y-1.9625
X14.8188Y-1.8625
X7.8187Y-1.8214
X8.0687Y-1.7214
X13.3188Y-3.9719
T5
G00X9.6745Y-0.6544
M15
G01X9.6745Y-0.678
M16
G05
G00X9.6745Y-0.8099
M15
G01X9.6745Y-0.8532
M16
G05
G00X10.0131Y-0.6544
M15
G01X10.0131Y-0.678
M16
G05
G00X10.0131Y-0.8099
M15
G01X10.0131Y-0.8532
M16
G05
T9
G00X9.8182Y-3.2952
M15
G01X9.8694Y-3.2952
M16
G05
G00X9.8182Y-3.7361
M15
G01X9.8694Y-3.7361
M16
G05
T0
M30
