G04 #@! TF.GenerationSoftware,KiCad,Pcbnew,(5.1.4-0)*
G04 #@! TF.CreationDate,2021-10-30T17:16:14-05:00*
G04 #@! TF.ProjectId,top_plate,746f705f-706c-4617-9465-2e6b69636164,rev?*
G04 #@! TF.SameCoordinates,Original*
G04 #@! TF.FileFunction,Paste,Top*
G04 #@! TF.FilePolarity,Positive*
%FSLAX46Y46*%
G04 Gerber Fmt 4.6, Leading zero omitted, Abs format (unit mm)*
G04 Created by KiCad (PCBNEW (5.1.4-0)) date 2021-10-30 17:16:14*
%MOMM*%
%LPD*%
G04 APERTURE LIST*
%ADD10C,0.100000*%
%ADD11C,0.950000*%
G04 APERTURE END LIST*
D10*
G36*
X321501376Y-99538770D02*
G01*
X321524431Y-99542189D01*
X321547040Y-99547853D01*
X321568984Y-99555705D01*
X321590054Y-99565670D01*
X321610045Y-99577652D01*
X321628765Y-99591536D01*
X321646035Y-99607188D01*
X321661687Y-99624458D01*
X321675571Y-99643178D01*
X321687553Y-99663169D01*
X321697518Y-99684239D01*
X321705370Y-99706183D01*
X321711034Y-99728792D01*
X321714453Y-99751847D01*
X321715597Y-99775126D01*
X321715597Y-100250126D01*
X321714453Y-100273405D01*
X321711034Y-100296460D01*
X321705370Y-100319069D01*
X321697518Y-100341013D01*
X321687553Y-100362083D01*
X321675571Y-100382074D01*
X321661687Y-100400794D01*
X321646035Y-100418064D01*
X321628765Y-100433716D01*
X321610045Y-100447600D01*
X321590054Y-100459582D01*
X321568984Y-100469547D01*
X321547040Y-100477399D01*
X321524431Y-100483063D01*
X321501376Y-100486482D01*
X321478097Y-100487626D01*
X320903097Y-100487626D01*
X320879818Y-100486482D01*
X320856763Y-100483063D01*
X320834154Y-100477399D01*
X320812210Y-100469547D01*
X320791140Y-100459582D01*
X320771149Y-100447600D01*
X320752429Y-100433716D01*
X320735159Y-100418064D01*
X320719507Y-100400794D01*
X320705623Y-100382074D01*
X320693641Y-100362083D01*
X320683676Y-100341013D01*
X320675824Y-100319069D01*
X320670160Y-100296460D01*
X320666741Y-100273405D01*
X320665597Y-100250126D01*
X320665597Y-99775126D01*
X320666741Y-99751847D01*
X320670160Y-99728792D01*
X320675824Y-99706183D01*
X320683676Y-99684239D01*
X320693641Y-99663169D01*
X320705623Y-99643178D01*
X320719507Y-99624458D01*
X320735159Y-99607188D01*
X320752429Y-99591536D01*
X320771149Y-99577652D01*
X320791140Y-99565670D01*
X320812210Y-99555705D01*
X320834154Y-99547853D01*
X320856763Y-99542189D01*
X320879818Y-99538770D01*
X320903097Y-99537626D01*
X321478097Y-99537626D01*
X321501376Y-99538770D01*
X321501376Y-99538770D01*
G37*
D11*
X321190597Y-100012626D03*
D10*
G36*
X323251376Y-99538770D02*
G01*
X323274431Y-99542189D01*
X323297040Y-99547853D01*
X323318984Y-99555705D01*
X323340054Y-99565670D01*
X323360045Y-99577652D01*
X323378765Y-99591536D01*
X323396035Y-99607188D01*
X323411687Y-99624458D01*
X323425571Y-99643178D01*
X323437553Y-99663169D01*
X323447518Y-99684239D01*
X323455370Y-99706183D01*
X323461034Y-99728792D01*
X323464453Y-99751847D01*
X323465597Y-99775126D01*
X323465597Y-100250126D01*
X323464453Y-100273405D01*
X323461034Y-100296460D01*
X323455370Y-100319069D01*
X323447518Y-100341013D01*
X323437553Y-100362083D01*
X323425571Y-100382074D01*
X323411687Y-100400794D01*
X323396035Y-100418064D01*
X323378765Y-100433716D01*
X323360045Y-100447600D01*
X323340054Y-100459582D01*
X323318984Y-100469547D01*
X323297040Y-100477399D01*
X323274431Y-100483063D01*
X323251376Y-100486482D01*
X323228097Y-100487626D01*
X322653097Y-100487626D01*
X322629818Y-100486482D01*
X322606763Y-100483063D01*
X322584154Y-100477399D01*
X322562210Y-100469547D01*
X322541140Y-100459582D01*
X322521149Y-100447600D01*
X322502429Y-100433716D01*
X322485159Y-100418064D01*
X322469507Y-100400794D01*
X322455623Y-100382074D01*
X322443641Y-100362083D01*
X322433676Y-100341013D01*
X322425824Y-100319069D01*
X322420160Y-100296460D01*
X322416741Y-100273405D01*
X322415597Y-100250126D01*
X322415597Y-99775126D01*
X322416741Y-99751847D01*
X322420160Y-99728792D01*
X322425824Y-99706183D01*
X322433676Y-99684239D01*
X322443641Y-99663169D01*
X322455623Y-99643178D01*
X322469507Y-99624458D01*
X322485159Y-99607188D01*
X322502429Y-99591536D01*
X322521149Y-99577652D01*
X322541140Y-99565670D01*
X322562210Y-99555705D01*
X322584154Y-99547853D01*
X322606763Y-99542189D01*
X322629818Y-99538770D01*
X322653097Y-99537626D01*
X323228097Y-99537626D01*
X323251376Y-99538770D01*
X323251376Y-99538770D01*
G37*
D11*
X322940597Y-100012626D03*
M02*
