G04 #@! TF.GenerationSoftware,KiCad,Pcbnew,(5.1.4-0)*
G04 #@! TF.CreationDate,2021-11-04T11:39:01-05:00*
G04 #@! TF.ProjectId,top_plate,746f705f-706c-4617-9465-2e6b69636164,rev?*
G04 #@! TF.SameCoordinates,Original*
G04 #@! TF.FileFunction,Profile,NP*
%FSLAX46Y46*%
G04 Gerber Fmt 4.6, Leading zero omitted, Abs format (unit mm)*
G04 Created by KiCad (PCBNEW (5.1.4-0)) date 2021-11-04 11:39:01*
%MOMM*%
%LPD*%
G04 APERTURE LIST*
%ADD10C,0.050000*%
G04 APERTURE END LIST*
D10*
X325965882Y-80506460D02*
X328614012Y-80962736D01*
X323970179Y-76980529D02*
X325965882Y-80506460D01*
X323970179Y-76980529D02*
G75*
G03X319368763Y-76481437I-2501417J-1600907D01*
G01*
X316665882Y-79706460D02*
X273844212Y-75009606D01*
X319368763Y-76481437D02*
X316665882Y-79706460D01*
X75920529Y-76481437D02*
X78623410Y-79706460D01*
X71319113Y-76980529D02*
X69323410Y-80506460D01*
X71319113Y-76980529D02*
G75*
G02X75920529Y-76481437I2501417J-1600907D01*
G01*
X159366878Y-177205822D02*
X164666878Y-178605822D01*
X151351079Y-178991351D02*
G75*
G03X156066877Y-180305821I2815799J985529D01*
G01*
X156066878Y-180305822D02*
X159366878Y-177205822D01*
X149866878Y-174605822D02*
X142579066Y-172640732D01*
X151351079Y-178991351D02*
X149866878Y-174605822D01*
X243939209Y-178991989D02*
G75*
G02X239223411Y-180306459I-2815799J985529D01*
G01*
X243939209Y-178991989D02*
X245423410Y-174606460D01*
X239223410Y-180306460D02*
X235923410Y-177206460D01*
X323851570Y-160734312D02*
X326232818Y-157162440D01*
X319089074Y-160734312D02*
X316707826Y-157162440D01*
X323851570Y-160734312D02*
G75*
G02X319089074Y-160734312I-2381248J1785936D01*
G01*
X242889138Y-71437872D02*
X240507890Y-75009744D01*
X247651634Y-71437872D02*
X250032882Y-75009744D01*
X242889138Y-71437872D02*
G75*
G02X247651634Y-71437872I2381248J-1785936D01*
G01*
X145257970Y-75009744D02*
X121445080Y-75009606D01*
X147639218Y-71437872D02*
X145257970Y-75009744D01*
X152401714Y-71437872D02*
X154782962Y-75009744D01*
X147639218Y-71437872D02*
G75*
G02X152401714Y-71437872I2381248J-1785936D01*
G01*
X76201778Y-160734492D02*
G75*
G02X71439282Y-160734492I-2381248J1785936D01*
G01*
X292896116Y-172641350D02*
X302420020Y-157163160D01*
X316707826Y-157162800D02*
X302420020Y-157163160D01*
X235923410Y-177206460D02*
X230623410Y-178606460D01*
X213123282Y-188714389D02*
X230623410Y-178606460D01*
X245423410Y-174606460D02*
X252711222Y-172641370D01*
X252711222Y-172640732D02*
X292895346Y-172640732D01*
X64294028Y-83343988D02*
G75*
G02X66675280Y-80962736I2381252J0D01*
G01*
X69323410Y-80506460D02*
X66675280Y-80962736D01*
X142579066Y-172640732D02*
X102394180Y-172641350D01*
X182167006Y-188714389D02*
X164666878Y-178605822D01*
X76201778Y-160734492D02*
X78583026Y-157162620D01*
X71439282Y-160734492D02*
X69058034Y-157162620D01*
X250032882Y-75009744D02*
X273845216Y-75009606D01*
X78583026Y-157162800D02*
X92869140Y-157163160D01*
X69058034Y-157162800D02*
X66675280Y-157163160D01*
X102394180Y-172641350D02*
X92869140Y-157163160D01*
X66675280Y-157163160D02*
G75*
G02X64294028Y-154781908I0J2381252D01*
G01*
X328614012Y-80962736D02*
G75*
G02X330995264Y-83343988I0J-2381252D01*
G01*
X330995288Y-154781484D02*
G75*
G02X328614036Y-157162736I-2381252J0D01*
G01*
X213123282Y-188714389D02*
X182167006Y-188714156D01*
X328614036Y-157162736D02*
X326232818Y-157162800D01*
X154782962Y-75009744D02*
X240507890Y-75009744D01*
X78623410Y-79706460D02*
X121445080Y-75009606D01*
X330995288Y-154781484D02*
X330995264Y-83343988D01*
X64294028Y-83343988D02*
X64294020Y-154781900D01*
M02*
