G04 #@! TF.GenerationSoftware,KiCad,Pcbnew,(5.1.4-0)*
G04 #@! TF.CreationDate,2021-11-04T11:39:01-05:00*
G04 #@! TF.ProjectId,top_plate,746f705f-706c-4617-9465-2e6b69636164,rev?*
G04 #@! TF.SameCoordinates,Original*
G04 #@! TF.FileFunction,Copper,L2,Bot*
G04 #@! TF.FilePolarity,Positive*
%FSLAX46Y46*%
G04 Gerber Fmt 4.6, Leading zero omitted, Abs format (unit mm)*
G04 Created by KiCad (PCBNEW (5.1.4-0)) date 2021-11-04 11:39:01*
%MOMM*%
%LPD*%
G04 APERTURE LIST*
%ADD10C,3.500000*%
%ADD11C,0.500000*%
%ADD12C,0.254000*%
G04 APERTURE END LIST*
D10*
X73819060Y-78581485D03*
X73820040Y-158948739D03*
X150019380Y-73223743D03*
X154187295Y-177998755D03*
X245269780Y-73223743D03*
X241102993Y-177998755D03*
X321470256Y-78581436D03*
X321470100Y-158948675D03*
D11*
X324446847Y-100012626D03*
D12*
G36*
X245956876Y-70484692D02*
G01*
X246475829Y-70670197D01*
X246948874Y-70952972D01*
X247360828Y-71324806D01*
X247529519Y-71528720D01*
X249902320Y-75087923D01*
X249905888Y-75094599D01*
X249914578Y-75105187D01*
X249924769Y-75117630D01*
X249924832Y-75117682D01*
X249924883Y-75117744D01*
X249936232Y-75127058D01*
X249947893Y-75136649D01*
X249947966Y-75136688D01*
X249948028Y-75136739D01*
X249960967Y-75143655D01*
X249974284Y-75150791D01*
X249974363Y-75150815D01*
X249974434Y-75150853D01*
X249988424Y-75155096D01*
X250002928Y-75159513D01*
X250003011Y-75159521D01*
X250003086Y-75159544D01*
X250017628Y-75160976D01*
X250032722Y-75162479D01*
X250040265Y-75161744D01*
X273835895Y-75161605D01*
X316641945Y-79856746D01*
X316649344Y-79858297D01*
X316664523Y-79858453D01*
X316679168Y-79858615D01*
X316679225Y-79858604D01*
X316679283Y-79858605D01*
X316694223Y-79855794D01*
X316708597Y-79853100D01*
X316708649Y-79853079D01*
X316708708Y-79853068D01*
X316723102Y-79847279D01*
X316736384Y-79841949D01*
X316736430Y-79841919D01*
X316736487Y-79841896D01*
X316749124Y-79833639D01*
X316761463Y-79825591D01*
X316761506Y-79825549D01*
X316761552Y-79825519D01*
X316771910Y-79815373D01*
X316782868Y-79804655D01*
X316787136Y-79798418D01*
X317972753Y-78383764D01*
X319463256Y-78383764D01*
X319463256Y-78779108D01*
X319540384Y-79166856D01*
X319691676Y-79532107D01*
X319911317Y-79860824D01*
X320190868Y-80140375D01*
X320519585Y-80360016D01*
X320884836Y-80511308D01*
X321272584Y-80588436D01*
X321667928Y-80588436D01*
X322055676Y-80511308D01*
X322420927Y-80360016D01*
X322749644Y-80140375D01*
X323029195Y-79860824D01*
X323248836Y-79532107D01*
X323400128Y-79166856D01*
X323477256Y-78779108D01*
X323477256Y-78383764D01*
X323400128Y-77996016D01*
X323248836Y-77630765D01*
X323029195Y-77302048D01*
X322749644Y-77022497D01*
X322420927Y-76802856D01*
X322055676Y-76651564D01*
X321667928Y-76574436D01*
X321272584Y-76574436D01*
X320884836Y-76651564D01*
X320519585Y-76802856D01*
X320190868Y-77022497D01*
X319911317Y-77302048D01*
X319691676Y-77630765D01*
X319540384Y-77996016D01*
X319463256Y-78383764D01*
X317972753Y-78383764D01*
X319476176Y-76589911D01*
X319901609Y-76240455D01*
X320386159Y-75980643D01*
X320911935Y-75819897D01*
X321458931Y-75764335D01*
X322006292Y-75816075D01*
X322533185Y-75973150D01*
X323019531Y-76229571D01*
X323446810Y-76575575D01*
X323802855Y-77002913D01*
X323840453Y-77059913D01*
X325826287Y-80568409D01*
X325826323Y-80568519D01*
X325833409Y-80580993D01*
X325837276Y-80587825D01*
X325837349Y-80587929D01*
X325841112Y-80594553D01*
X325845939Y-80600136D01*
X325850192Y-80606179D01*
X325855715Y-80611441D01*
X325860696Y-80617202D01*
X325866518Y-80621734D01*
X325871869Y-80626833D01*
X325878313Y-80630917D01*
X325884322Y-80635595D01*
X325890916Y-80638904D01*
X325897159Y-80642861D01*
X325904276Y-80645609D01*
X325911082Y-80649025D01*
X325918197Y-80650985D01*
X325925091Y-80653647D01*
X325932606Y-80654954D01*
X325932719Y-80654985D01*
X325939867Y-80656217D01*
X325954590Y-80658777D01*
X325954710Y-80658774D01*
X328595556Y-81113795D01*
X328601026Y-81114192D01*
X329046868Y-81157908D01*
X329463238Y-81283617D01*
X329847258Y-81487804D01*
X330184307Y-81762694D01*
X330461539Y-82097811D01*
X330668406Y-82480404D01*
X330797019Y-82895882D01*
X330843234Y-83335591D01*
X330843264Y-83344232D01*
X330843289Y-154774035D01*
X330800116Y-155214340D01*
X330674407Y-155630710D01*
X330470219Y-156014731D01*
X330195330Y-156351779D01*
X329860213Y-156629011D01*
X329477620Y-156835878D01*
X329062142Y-156964491D01*
X328622433Y-157010706D01*
X328613732Y-157010736D01*
X326243900Y-157010800D01*
X326232658Y-157009705D01*
X326202864Y-157012671D01*
X326174220Y-157021393D01*
X326147829Y-157035535D01*
X326124705Y-157054554D01*
X326110485Y-157071917D01*
X326109246Y-157073776D01*
X326105821Y-157077949D01*
X326103223Y-157082810D01*
X323731576Y-160640283D01*
X323357272Y-161049195D01*
X322913287Y-161375694D01*
X322414333Y-161609741D01*
X321879424Y-161742416D01*
X321328939Y-161768666D01*
X320783836Y-161687493D01*
X320264881Y-161501988D01*
X319791834Y-161219212D01*
X319379880Y-160847378D01*
X319211192Y-160643468D01*
X317949549Y-158751003D01*
X319463100Y-158751003D01*
X319463100Y-159146347D01*
X319540228Y-159534095D01*
X319691520Y-159899346D01*
X319911161Y-160228063D01*
X320190712Y-160507614D01*
X320519429Y-160727255D01*
X320884680Y-160878547D01*
X321272428Y-160955675D01*
X321667772Y-160955675D01*
X322055520Y-160878547D01*
X322420771Y-160727255D01*
X322749488Y-160507614D01*
X323029039Y-160228063D01*
X323248680Y-159899346D01*
X323399972Y-159534095D01*
X323477100Y-159146347D01*
X323477100Y-158751003D01*
X323399972Y-158363255D01*
X323248680Y-157998004D01*
X323029039Y-157669287D01*
X322749488Y-157389736D01*
X322420771Y-157170095D01*
X322055520Y-157018803D01*
X321667772Y-156941675D01*
X321272428Y-156941675D01*
X320884680Y-157018803D01*
X320519429Y-157170095D01*
X320190712Y-157389736D01*
X319911161Y-157669287D01*
X319691520Y-157998004D01*
X319540228Y-158363255D01*
X319463100Y-158751003D01*
X317949549Y-158751003D01*
X316837421Y-157082811D01*
X316834818Y-157077942D01*
X316831391Y-157073766D01*
X316830158Y-157071917D01*
X316815938Y-157054554D01*
X316792814Y-157035535D01*
X316766423Y-157021393D01*
X316737779Y-157012671D01*
X316707985Y-157009705D01*
X316696744Y-157010800D01*
X302424643Y-157011161D01*
X302414302Y-157010532D01*
X302402272Y-157012174D01*
X302390220Y-157013361D01*
X302387477Y-157014193D01*
X302384635Y-157014581D01*
X302373166Y-157018534D01*
X302361568Y-157022053D01*
X302359041Y-157023404D01*
X302356328Y-157024339D01*
X302345846Y-157030457D01*
X302335162Y-157036168D01*
X302332948Y-157037985D01*
X302330469Y-157039432D01*
X302321381Y-157047478D01*
X302312018Y-157055163D01*
X302310200Y-157057378D01*
X302308052Y-157059280D01*
X302300711Y-157068941D01*
X302293023Y-157078309D01*
X302288149Y-157087428D01*
X292811555Y-172488732D01*
X252703760Y-172488732D01*
X252701190Y-172488985D01*
X252700992Y-172488979D01*
X252700616Y-172489042D01*
X252681425Y-172490932D01*
X252652773Y-172499623D01*
X252652477Y-172499781D01*
X245391097Y-174457745D01*
X245383744Y-174458966D01*
X245376676Y-174461634D01*
X245376634Y-174461645D01*
X245370658Y-174463905D01*
X245355731Y-174469539D01*
X245355685Y-174469568D01*
X245355642Y-174469584D01*
X245343696Y-174477038D01*
X245330319Y-174485373D01*
X245330282Y-174485408D01*
X245330240Y-174485434D01*
X245319304Y-174495709D01*
X245308485Y-174505861D01*
X245308457Y-174505901D01*
X245308419Y-174505936D01*
X245300012Y-174517708D01*
X245291067Y-174530215D01*
X245291044Y-174530265D01*
X245291018Y-174530302D01*
X245285393Y-174542769D01*
X245281823Y-174550666D01*
X245281805Y-174550720D01*
X245278703Y-174557594D01*
X245277025Y-174564843D01*
X243797869Y-178935467D01*
X243562549Y-179442654D01*
X243237141Y-179889063D01*
X242831216Y-180263770D01*
X242360248Y-180552493D01*
X241842163Y-180744241D01*
X241296702Y-180831706D01*
X240744641Y-180811559D01*
X240207011Y-180684569D01*
X239703229Y-180455088D01*
X239319351Y-180188038D01*
X236778398Y-177801083D01*
X239095993Y-177801083D01*
X239095993Y-178196427D01*
X239173121Y-178584175D01*
X239324413Y-178949426D01*
X239544054Y-179278143D01*
X239823605Y-179557694D01*
X240152322Y-179777335D01*
X240517573Y-179928627D01*
X240905321Y-180005755D01*
X241300665Y-180005755D01*
X241688413Y-179928627D01*
X242053664Y-179777335D01*
X242382381Y-179557694D01*
X242661932Y-179278143D01*
X242881573Y-178949426D01*
X243032865Y-178584175D01*
X243109993Y-178196427D01*
X243109993Y-177801083D01*
X243032865Y-177413335D01*
X242881573Y-177048084D01*
X242661932Y-176719367D01*
X242382381Y-176439816D01*
X242053664Y-176220175D01*
X241688413Y-176068883D01*
X241300665Y-175991755D01*
X240905321Y-175991755D01*
X240517573Y-176068883D01*
X240152322Y-176220175D01*
X239823605Y-176439816D01*
X239544054Y-176719367D01*
X239324413Y-177048084D01*
X239173121Y-177413335D01*
X239095993Y-177801083D01*
X236778398Y-177801083D01*
X236031221Y-177099190D01*
X236024522Y-177091986D01*
X236014256Y-177084574D01*
X236004256Y-177076878D01*
X236002154Y-177075837D01*
X236000246Y-177074460D01*
X235988745Y-177069200D01*
X235977423Y-177063595D01*
X235975154Y-177062983D01*
X235973017Y-177062006D01*
X235960731Y-177059095D01*
X235948513Y-177055802D01*
X235946164Y-177055645D01*
X235943882Y-177055104D01*
X235931264Y-177054646D01*
X235918640Y-177053800D01*
X235916310Y-177054103D01*
X235913961Y-177054018D01*
X235901474Y-177056034D01*
X235888949Y-177057664D01*
X235879641Y-177060808D01*
X230586721Y-178458939D01*
X230574288Y-178461840D01*
X230565433Y-178465854D01*
X230556344Y-178469238D01*
X230545515Y-178475919D01*
X213082540Y-188562390D01*
X182207348Y-188562156D01*
X164744828Y-178475314D01*
X164733944Y-178468599D01*
X164724832Y-178465206D01*
X164716003Y-178461204D01*
X164703614Y-178458312D01*
X159410663Y-177060175D01*
X159401340Y-177057025D01*
X159388788Y-177055392D01*
X159376326Y-177053380D01*
X159373979Y-177053465D01*
X159371648Y-177053162D01*
X159359024Y-177054008D01*
X159346406Y-177054466D01*
X159344124Y-177055006D01*
X159341774Y-177055164D01*
X159329549Y-177058459D01*
X159317271Y-177061368D01*
X159315136Y-177062345D01*
X159312864Y-177062957D01*
X159301519Y-177068573D01*
X159290042Y-177073822D01*
X159288140Y-177075195D01*
X159286031Y-177076239D01*
X159276004Y-177083956D01*
X159265766Y-177091348D01*
X159259074Y-177098544D01*
X155971780Y-180186610D01*
X155511405Y-180496664D01*
X155001991Y-180710380D01*
X154460770Y-180821080D01*
X153908355Y-180824547D01*
X153365783Y-180720651D01*
X152853728Y-180513348D01*
X152391690Y-180210534D01*
X151997267Y-179823744D01*
X151684828Y-179366748D01*
X151492790Y-178935927D01*
X151108724Y-177801083D01*
X152180295Y-177801083D01*
X152180295Y-178196427D01*
X152257423Y-178584175D01*
X152408715Y-178949426D01*
X152628356Y-179278143D01*
X152907907Y-179557694D01*
X153236624Y-179777335D01*
X153601875Y-179928627D01*
X153989623Y-180005755D01*
X154384967Y-180005755D01*
X154772715Y-179928627D01*
X155137966Y-179777335D01*
X155466683Y-179557694D01*
X155746234Y-179278143D01*
X155965875Y-178949426D01*
X156117167Y-178584175D01*
X156194295Y-178196427D01*
X156194295Y-177801083D01*
X156117167Y-177413335D01*
X155965875Y-177048084D01*
X155746234Y-176719367D01*
X155466683Y-176439816D01*
X155137966Y-176220175D01*
X154772715Y-176068883D01*
X154384967Y-175991755D01*
X153989623Y-175991755D01*
X153601875Y-176068883D01*
X153236624Y-176220175D01*
X152907907Y-176439816D01*
X152628356Y-176719367D01*
X152408715Y-177048084D01*
X152257423Y-177413335D01*
X152180295Y-177801083D01*
X151108724Y-177801083D01*
X150013266Y-174564216D01*
X150011585Y-174556955D01*
X150008478Y-174550069D01*
X150008464Y-174550028D01*
X150005739Y-174544000D01*
X149999270Y-174529663D01*
X149999240Y-174529621D01*
X149999220Y-174529577D01*
X149991443Y-174518703D01*
X149981869Y-174505297D01*
X149981826Y-174505257D01*
X149981802Y-174505223D01*
X149972598Y-174496587D01*
X149960048Y-174484795D01*
X149960000Y-174484765D01*
X149959968Y-174484735D01*
X149948447Y-174477556D01*
X149934646Y-174468945D01*
X149934597Y-174468926D01*
X149934556Y-174468901D01*
X149921443Y-174463952D01*
X149913654Y-174461006D01*
X149913599Y-174460991D01*
X149906543Y-174458328D01*
X149899202Y-174457109D01*
X142620888Y-172494580D01*
X142608860Y-172490932D01*
X142599031Y-172489964D01*
X142589295Y-172488341D01*
X142576736Y-172488732D01*
X102479116Y-172489350D01*
X93001014Y-157087435D01*
X92996137Y-157078309D01*
X92988430Y-157068918D01*
X92981101Y-157059274D01*
X92978961Y-157057379D01*
X92977142Y-157055163D01*
X92967758Y-157047462D01*
X92958683Y-157039427D01*
X92956211Y-157037984D01*
X92953998Y-157036168D01*
X92943309Y-157030454D01*
X92932824Y-157024335D01*
X92930114Y-157023401D01*
X92927592Y-157022053D01*
X92915990Y-157018533D01*
X92904516Y-157014579D01*
X92901679Y-157014192D01*
X92898940Y-157013361D01*
X92886877Y-157012173D01*
X92874849Y-157010532D01*
X92864520Y-157011161D01*
X78592260Y-157010800D01*
X78582866Y-157009885D01*
X78553072Y-157012851D01*
X78524428Y-157021573D01*
X78498037Y-157035715D01*
X78474913Y-157054734D01*
X78460693Y-157072097D01*
X78460095Y-157072994D01*
X78456034Y-157077942D01*
X78452950Y-157083712D01*
X76081784Y-160640463D01*
X75707480Y-161049375D01*
X75263495Y-161375874D01*
X74764541Y-161609921D01*
X74229632Y-161742596D01*
X73679147Y-161768846D01*
X73134044Y-161687673D01*
X72615089Y-161502168D01*
X72142042Y-161219392D01*
X71730088Y-160847558D01*
X71561400Y-160643648D01*
X70299680Y-158751067D01*
X71813040Y-158751067D01*
X71813040Y-159146411D01*
X71890168Y-159534159D01*
X72041460Y-159899410D01*
X72261101Y-160228127D01*
X72540652Y-160507678D01*
X72869369Y-160727319D01*
X73234620Y-160878611D01*
X73622368Y-160955739D01*
X74017712Y-160955739D01*
X74405460Y-160878611D01*
X74770711Y-160727319D01*
X75099428Y-160507678D01*
X75378979Y-160228127D01*
X75598620Y-159899410D01*
X75749912Y-159534159D01*
X75827040Y-159146411D01*
X75827040Y-158751067D01*
X75749912Y-158363319D01*
X75598620Y-157998068D01*
X75378979Y-157669351D01*
X75099428Y-157389800D01*
X74770711Y-157170159D01*
X74405460Y-157018867D01*
X74017712Y-156941739D01*
X73622368Y-156941739D01*
X73234620Y-157018867D01*
X72869369Y-157170159D01*
X72540652Y-157389800D01*
X72261101Y-157669351D01*
X72041460Y-157998068D01*
X71890168Y-158363319D01*
X71813040Y-158751067D01*
X70299680Y-158751067D01*
X69188111Y-157083715D01*
X69185016Y-157077926D01*
X69180951Y-157072975D01*
X69180366Y-157072097D01*
X69166146Y-157054734D01*
X69143022Y-157035715D01*
X69116631Y-157021573D01*
X69087987Y-157012851D01*
X69058193Y-157009885D01*
X69048788Y-157010802D01*
X66682716Y-157011160D01*
X66242424Y-156967988D01*
X65826054Y-156842279D01*
X65442033Y-156638091D01*
X65104985Y-156363202D01*
X64827753Y-156028085D01*
X64620886Y-155645492D01*
X64492273Y-155230014D01*
X64446058Y-154790305D01*
X64446027Y-154781378D01*
X64446019Y-154781299D01*
X64446025Y-99962691D01*
X323939847Y-99962691D01*
X323939847Y-100062561D01*
X323959331Y-100160512D01*
X323997550Y-100252780D01*
X324053035Y-100335820D01*
X324123653Y-100406438D01*
X324206693Y-100461923D01*
X324298961Y-100500142D01*
X324396912Y-100519626D01*
X324496782Y-100519626D01*
X324594733Y-100500142D01*
X324687001Y-100461923D01*
X324770041Y-100406438D01*
X324840659Y-100335820D01*
X324896144Y-100252780D01*
X324934363Y-100160512D01*
X324953847Y-100062561D01*
X324953847Y-99962691D01*
X324934363Y-99864740D01*
X324896144Y-99772472D01*
X324840659Y-99689432D01*
X324770041Y-99618814D01*
X324687001Y-99563329D01*
X324594733Y-99525110D01*
X324496782Y-99505626D01*
X324396912Y-99505626D01*
X324298961Y-99525110D01*
X324206693Y-99563329D01*
X324123653Y-99618814D01*
X324053035Y-99689432D01*
X323997550Y-99772472D01*
X323959331Y-99864740D01*
X323939847Y-99962691D01*
X64446025Y-99962691D01*
X64446027Y-89163399D01*
X205813418Y-89163399D01*
X205813418Y-89430705D01*
X205865567Y-89692874D01*
X205967860Y-89939833D01*
X206116367Y-90162089D01*
X206305381Y-90351103D01*
X206527637Y-90499610D01*
X206774596Y-90601903D01*
X207036765Y-90654052D01*
X207304071Y-90654052D01*
X207566240Y-90601903D01*
X207813199Y-90499610D01*
X208035455Y-90351103D01*
X208224469Y-90162089D01*
X208372976Y-89939833D01*
X208475269Y-89692874D01*
X208527418Y-89430705D01*
X208527418Y-89163399D01*
X208475269Y-88901230D01*
X208372976Y-88654271D01*
X208224469Y-88432015D01*
X208035455Y-88243001D01*
X207813199Y-88094494D01*
X207566240Y-87992201D01*
X207304071Y-87940052D01*
X207036765Y-87940052D01*
X206774596Y-87992201D01*
X206527637Y-88094494D01*
X206305381Y-88243001D01*
X206116367Y-88432015D01*
X205967860Y-88654271D01*
X205865567Y-88901230D01*
X205813418Y-89163399D01*
X64446027Y-89163399D01*
X64446028Y-83351427D01*
X64489200Y-82911132D01*
X64614909Y-82494762D01*
X64819096Y-82110742D01*
X65093986Y-81773693D01*
X65429103Y-81496461D01*
X65811696Y-81289594D01*
X66227174Y-81160981D01*
X66666459Y-81114811D01*
X66671352Y-81115420D01*
X66693735Y-81113795D01*
X69334587Y-80658774D01*
X69334701Y-80658777D01*
X69348695Y-80656343D01*
X69356573Y-80654986D01*
X69356697Y-80654952D01*
X69364200Y-80653647D01*
X69371082Y-80650990D01*
X69378210Y-80649026D01*
X69385031Y-80645603D01*
X69392131Y-80642861D01*
X69398359Y-80638914D01*
X69404970Y-80635596D01*
X69410994Y-80630906D01*
X69417421Y-80626833D01*
X69422758Y-80621748D01*
X69428596Y-80617203D01*
X69433592Y-80611425D01*
X69439098Y-80606179D01*
X69443340Y-80600152D01*
X69448180Y-80594554D01*
X69451950Y-80587917D01*
X69452015Y-80587825D01*
X69455452Y-80581753D01*
X69462969Y-80568520D01*
X69463008Y-80568404D01*
X70699503Y-78383813D01*
X71812060Y-78383813D01*
X71812060Y-78779157D01*
X71889188Y-79166905D01*
X72040480Y-79532156D01*
X72260121Y-79860873D01*
X72539672Y-80140424D01*
X72868389Y-80360065D01*
X73233640Y-80511357D01*
X73621388Y-80588485D01*
X74016732Y-80588485D01*
X74404480Y-80511357D01*
X74769731Y-80360065D01*
X75098448Y-80140424D01*
X75377999Y-79860873D01*
X75597640Y-79532156D01*
X75748932Y-79166905D01*
X75826060Y-78779157D01*
X75826060Y-78383813D01*
X75748932Y-77996065D01*
X75597640Y-77630814D01*
X75377999Y-77302097D01*
X75098448Y-77022546D01*
X74769731Y-76802905D01*
X74404480Y-76651613D01*
X74016732Y-76574485D01*
X73621388Y-76574485D01*
X73233640Y-76651613D01*
X72868389Y-76802905D01*
X72539672Y-77022546D01*
X72260121Y-77302097D01*
X72040480Y-77630814D01*
X71889188Y-77996065D01*
X71812060Y-78383813D01*
X70699503Y-78383813D01*
X71445693Y-77065474D01*
X71787900Y-76630905D01*
X72205470Y-76273248D01*
X72684559Y-76003507D01*
X73206921Y-75831956D01*
X73752647Y-75765135D01*
X74300961Y-75805586D01*
X74830977Y-75951769D01*
X75322509Y-76198117D01*
X75761892Y-76539173D01*
X75809002Y-76585001D01*
X78502160Y-79798424D01*
X78506424Y-79804655D01*
X78516394Y-79814406D01*
X78527739Y-79825519D01*
X78527791Y-79825553D01*
X78527830Y-79825591D01*
X78539270Y-79833053D01*
X78552804Y-79841896D01*
X78552863Y-79841920D01*
X78552908Y-79841949D01*
X78565729Y-79847094D01*
X78580583Y-79853068D01*
X78580644Y-79853079D01*
X78580695Y-79853100D01*
X78594825Y-79855748D01*
X78610008Y-79858605D01*
X78610067Y-79858604D01*
X78610124Y-79858615D01*
X78624776Y-79858453D01*
X78639948Y-79858297D01*
X78647347Y-79856746D01*
X121453406Y-75161605D01*
X145250586Y-75161744D01*
X145258129Y-75162479D01*
X145273129Y-75160986D01*
X145287766Y-75159544D01*
X145287841Y-75159521D01*
X145287923Y-75159513D01*
X145302167Y-75155176D01*
X145316418Y-75150853D01*
X145316490Y-75150814D01*
X145316567Y-75150791D01*
X145329493Y-75143865D01*
X145342824Y-75136739D01*
X145342888Y-75136687D01*
X145342958Y-75136649D01*
X145354159Y-75127437D01*
X145365969Y-75117744D01*
X145366022Y-75117679D01*
X145366082Y-75117630D01*
X145375378Y-75106279D01*
X145384964Y-75094599D01*
X145388536Y-75087916D01*
X146763098Y-73026071D01*
X148012380Y-73026071D01*
X148012380Y-73421415D01*
X148089508Y-73809163D01*
X148240800Y-74174414D01*
X148460441Y-74503131D01*
X148739992Y-74782682D01*
X149068709Y-75002323D01*
X149433960Y-75153615D01*
X149821708Y-75230743D01*
X150217052Y-75230743D01*
X150604800Y-75153615D01*
X150970051Y-75002323D01*
X151298768Y-74782682D01*
X151578319Y-74503131D01*
X151797960Y-74174414D01*
X151949252Y-73809163D01*
X152026380Y-73421415D01*
X152026380Y-73026071D01*
X151949252Y-72638323D01*
X151797960Y-72273072D01*
X151578319Y-71944355D01*
X151298768Y-71664804D01*
X150970051Y-71445163D01*
X150604800Y-71293871D01*
X150217052Y-71216743D01*
X149821708Y-71216743D01*
X149433960Y-71293871D01*
X149068709Y-71445163D01*
X148739992Y-71664804D01*
X148460441Y-71944355D01*
X148240800Y-72273072D01*
X148089508Y-72638323D01*
X148012380Y-73026071D01*
X146763098Y-73026071D01*
X147759214Y-71531898D01*
X148133516Y-71122989D01*
X148577504Y-70796489D01*
X149076455Y-70562443D01*
X149611364Y-70429768D01*
X150161849Y-70403518D01*
X150706956Y-70484692D01*
X151225909Y-70670197D01*
X151698954Y-70952972D01*
X152110908Y-71324806D01*
X152279599Y-71528720D01*
X154652395Y-75087915D01*
X154655967Y-75094599D01*
X154665553Y-75106279D01*
X154674849Y-75117630D01*
X154674909Y-75117679D01*
X154674962Y-75117744D01*
X154686772Y-75127437D01*
X154697973Y-75136649D01*
X154698043Y-75136687D01*
X154698107Y-75136739D01*
X154711438Y-75143865D01*
X154724364Y-75150791D01*
X154724441Y-75150814D01*
X154724513Y-75150853D01*
X154738764Y-75155176D01*
X154753008Y-75159513D01*
X154753090Y-75159521D01*
X154753165Y-75159544D01*
X154767802Y-75160986D01*
X154782802Y-75162479D01*
X154790344Y-75161744D01*
X240500507Y-75161744D01*
X240508049Y-75162479D01*
X240522955Y-75160995D01*
X240537687Y-75159544D01*
X240537763Y-75159521D01*
X240537843Y-75159513D01*
X240551827Y-75155255D01*
X240566339Y-75150853D01*
X240566413Y-75150814D01*
X240566487Y-75150791D01*
X240579021Y-75144074D01*
X240592745Y-75136739D01*
X240592811Y-75136685D01*
X240592878Y-75136649D01*
X240603619Y-75127815D01*
X240615890Y-75117744D01*
X240615945Y-75117677D01*
X240616002Y-75117630D01*
X240624820Y-75106863D01*
X240634885Y-75094599D01*
X240638461Y-75087908D01*
X242013018Y-73026071D01*
X243262780Y-73026071D01*
X243262780Y-73421415D01*
X243339908Y-73809163D01*
X243491200Y-74174414D01*
X243710841Y-74503131D01*
X243990392Y-74782682D01*
X244319109Y-75002323D01*
X244684360Y-75153615D01*
X245072108Y-75230743D01*
X245467452Y-75230743D01*
X245855200Y-75153615D01*
X246220451Y-75002323D01*
X246549168Y-74782682D01*
X246828719Y-74503131D01*
X247048360Y-74174414D01*
X247199652Y-73809163D01*
X247276780Y-73421415D01*
X247276780Y-73026071D01*
X247199652Y-72638323D01*
X247048360Y-72273072D01*
X246828719Y-71944355D01*
X246549168Y-71664804D01*
X246220451Y-71445163D01*
X245855200Y-71293871D01*
X245467452Y-71216743D01*
X245072108Y-71216743D01*
X244684360Y-71293871D01*
X244319109Y-71445163D01*
X243990392Y-71664804D01*
X243710841Y-71944355D01*
X243491200Y-72273072D01*
X243339908Y-72638323D01*
X243262780Y-73026071D01*
X242013018Y-73026071D01*
X243009134Y-71531898D01*
X243383436Y-71122989D01*
X243827424Y-70796489D01*
X244326375Y-70562443D01*
X244861284Y-70429768D01*
X245411769Y-70403518D01*
X245956876Y-70484692D01*
X245956876Y-70484692D01*
G37*
X245956876Y-70484692D02*
X246475829Y-70670197D01*
X246948874Y-70952972D01*
X247360828Y-71324806D01*
X247529519Y-71528720D01*
X249902320Y-75087923D01*
X249905888Y-75094599D01*
X249914578Y-75105187D01*
X249924769Y-75117630D01*
X249924832Y-75117682D01*
X249924883Y-75117744D01*
X249936232Y-75127058D01*
X249947893Y-75136649D01*
X249947966Y-75136688D01*
X249948028Y-75136739D01*
X249960967Y-75143655D01*
X249974284Y-75150791D01*
X249974363Y-75150815D01*
X249974434Y-75150853D01*
X249988424Y-75155096D01*
X250002928Y-75159513D01*
X250003011Y-75159521D01*
X250003086Y-75159544D01*
X250017628Y-75160976D01*
X250032722Y-75162479D01*
X250040265Y-75161744D01*
X273835895Y-75161605D01*
X316641945Y-79856746D01*
X316649344Y-79858297D01*
X316664523Y-79858453D01*
X316679168Y-79858615D01*
X316679225Y-79858604D01*
X316679283Y-79858605D01*
X316694223Y-79855794D01*
X316708597Y-79853100D01*
X316708649Y-79853079D01*
X316708708Y-79853068D01*
X316723102Y-79847279D01*
X316736384Y-79841949D01*
X316736430Y-79841919D01*
X316736487Y-79841896D01*
X316749124Y-79833639D01*
X316761463Y-79825591D01*
X316761506Y-79825549D01*
X316761552Y-79825519D01*
X316771910Y-79815373D01*
X316782868Y-79804655D01*
X316787136Y-79798418D01*
X317972753Y-78383764D01*
X319463256Y-78383764D01*
X319463256Y-78779108D01*
X319540384Y-79166856D01*
X319691676Y-79532107D01*
X319911317Y-79860824D01*
X320190868Y-80140375D01*
X320519585Y-80360016D01*
X320884836Y-80511308D01*
X321272584Y-80588436D01*
X321667928Y-80588436D01*
X322055676Y-80511308D01*
X322420927Y-80360016D01*
X322749644Y-80140375D01*
X323029195Y-79860824D01*
X323248836Y-79532107D01*
X323400128Y-79166856D01*
X323477256Y-78779108D01*
X323477256Y-78383764D01*
X323400128Y-77996016D01*
X323248836Y-77630765D01*
X323029195Y-77302048D01*
X322749644Y-77022497D01*
X322420927Y-76802856D01*
X322055676Y-76651564D01*
X321667928Y-76574436D01*
X321272584Y-76574436D01*
X320884836Y-76651564D01*
X320519585Y-76802856D01*
X320190868Y-77022497D01*
X319911317Y-77302048D01*
X319691676Y-77630765D01*
X319540384Y-77996016D01*
X319463256Y-78383764D01*
X317972753Y-78383764D01*
X319476176Y-76589911D01*
X319901609Y-76240455D01*
X320386159Y-75980643D01*
X320911935Y-75819897D01*
X321458931Y-75764335D01*
X322006292Y-75816075D01*
X322533185Y-75973150D01*
X323019531Y-76229571D01*
X323446810Y-76575575D01*
X323802855Y-77002913D01*
X323840453Y-77059913D01*
X325826287Y-80568409D01*
X325826323Y-80568519D01*
X325833409Y-80580993D01*
X325837276Y-80587825D01*
X325837349Y-80587929D01*
X325841112Y-80594553D01*
X325845939Y-80600136D01*
X325850192Y-80606179D01*
X325855715Y-80611441D01*
X325860696Y-80617202D01*
X325866518Y-80621734D01*
X325871869Y-80626833D01*
X325878313Y-80630917D01*
X325884322Y-80635595D01*
X325890916Y-80638904D01*
X325897159Y-80642861D01*
X325904276Y-80645609D01*
X325911082Y-80649025D01*
X325918197Y-80650985D01*
X325925091Y-80653647D01*
X325932606Y-80654954D01*
X325932719Y-80654985D01*
X325939867Y-80656217D01*
X325954590Y-80658777D01*
X325954710Y-80658774D01*
X328595556Y-81113795D01*
X328601026Y-81114192D01*
X329046868Y-81157908D01*
X329463238Y-81283617D01*
X329847258Y-81487804D01*
X330184307Y-81762694D01*
X330461539Y-82097811D01*
X330668406Y-82480404D01*
X330797019Y-82895882D01*
X330843234Y-83335591D01*
X330843264Y-83344232D01*
X330843289Y-154774035D01*
X330800116Y-155214340D01*
X330674407Y-155630710D01*
X330470219Y-156014731D01*
X330195330Y-156351779D01*
X329860213Y-156629011D01*
X329477620Y-156835878D01*
X329062142Y-156964491D01*
X328622433Y-157010706D01*
X328613732Y-157010736D01*
X326243900Y-157010800D01*
X326232658Y-157009705D01*
X326202864Y-157012671D01*
X326174220Y-157021393D01*
X326147829Y-157035535D01*
X326124705Y-157054554D01*
X326110485Y-157071917D01*
X326109246Y-157073776D01*
X326105821Y-157077949D01*
X326103223Y-157082810D01*
X323731576Y-160640283D01*
X323357272Y-161049195D01*
X322913287Y-161375694D01*
X322414333Y-161609741D01*
X321879424Y-161742416D01*
X321328939Y-161768666D01*
X320783836Y-161687493D01*
X320264881Y-161501988D01*
X319791834Y-161219212D01*
X319379880Y-160847378D01*
X319211192Y-160643468D01*
X317949549Y-158751003D01*
X319463100Y-158751003D01*
X319463100Y-159146347D01*
X319540228Y-159534095D01*
X319691520Y-159899346D01*
X319911161Y-160228063D01*
X320190712Y-160507614D01*
X320519429Y-160727255D01*
X320884680Y-160878547D01*
X321272428Y-160955675D01*
X321667772Y-160955675D01*
X322055520Y-160878547D01*
X322420771Y-160727255D01*
X322749488Y-160507614D01*
X323029039Y-160228063D01*
X323248680Y-159899346D01*
X323399972Y-159534095D01*
X323477100Y-159146347D01*
X323477100Y-158751003D01*
X323399972Y-158363255D01*
X323248680Y-157998004D01*
X323029039Y-157669287D01*
X322749488Y-157389736D01*
X322420771Y-157170095D01*
X322055520Y-157018803D01*
X321667772Y-156941675D01*
X321272428Y-156941675D01*
X320884680Y-157018803D01*
X320519429Y-157170095D01*
X320190712Y-157389736D01*
X319911161Y-157669287D01*
X319691520Y-157998004D01*
X319540228Y-158363255D01*
X319463100Y-158751003D01*
X317949549Y-158751003D01*
X316837421Y-157082811D01*
X316834818Y-157077942D01*
X316831391Y-157073766D01*
X316830158Y-157071917D01*
X316815938Y-157054554D01*
X316792814Y-157035535D01*
X316766423Y-157021393D01*
X316737779Y-157012671D01*
X316707985Y-157009705D01*
X316696744Y-157010800D01*
X302424643Y-157011161D01*
X302414302Y-157010532D01*
X302402272Y-157012174D01*
X302390220Y-157013361D01*
X302387477Y-157014193D01*
X302384635Y-157014581D01*
X302373166Y-157018534D01*
X302361568Y-157022053D01*
X302359041Y-157023404D01*
X302356328Y-157024339D01*
X302345846Y-157030457D01*
X302335162Y-157036168D01*
X302332948Y-157037985D01*
X302330469Y-157039432D01*
X302321381Y-157047478D01*
X302312018Y-157055163D01*
X302310200Y-157057378D01*
X302308052Y-157059280D01*
X302300711Y-157068941D01*
X302293023Y-157078309D01*
X302288149Y-157087428D01*
X292811555Y-172488732D01*
X252703760Y-172488732D01*
X252701190Y-172488985D01*
X252700992Y-172488979D01*
X252700616Y-172489042D01*
X252681425Y-172490932D01*
X252652773Y-172499623D01*
X252652477Y-172499781D01*
X245391097Y-174457745D01*
X245383744Y-174458966D01*
X245376676Y-174461634D01*
X245376634Y-174461645D01*
X245370658Y-174463905D01*
X245355731Y-174469539D01*
X245355685Y-174469568D01*
X245355642Y-174469584D01*
X245343696Y-174477038D01*
X245330319Y-174485373D01*
X245330282Y-174485408D01*
X245330240Y-174485434D01*
X245319304Y-174495709D01*
X245308485Y-174505861D01*
X245308457Y-174505901D01*
X245308419Y-174505936D01*
X245300012Y-174517708D01*
X245291067Y-174530215D01*
X245291044Y-174530265D01*
X245291018Y-174530302D01*
X245285393Y-174542769D01*
X245281823Y-174550666D01*
X245281805Y-174550720D01*
X245278703Y-174557594D01*
X245277025Y-174564843D01*
X243797869Y-178935467D01*
X243562549Y-179442654D01*
X243237141Y-179889063D01*
X242831216Y-180263770D01*
X242360248Y-180552493D01*
X241842163Y-180744241D01*
X241296702Y-180831706D01*
X240744641Y-180811559D01*
X240207011Y-180684569D01*
X239703229Y-180455088D01*
X239319351Y-180188038D01*
X236778398Y-177801083D01*
X239095993Y-177801083D01*
X239095993Y-178196427D01*
X239173121Y-178584175D01*
X239324413Y-178949426D01*
X239544054Y-179278143D01*
X239823605Y-179557694D01*
X240152322Y-179777335D01*
X240517573Y-179928627D01*
X240905321Y-180005755D01*
X241300665Y-180005755D01*
X241688413Y-179928627D01*
X242053664Y-179777335D01*
X242382381Y-179557694D01*
X242661932Y-179278143D01*
X242881573Y-178949426D01*
X243032865Y-178584175D01*
X243109993Y-178196427D01*
X243109993Y-177801083D01*
X243032865Y-177413335D01*
X242881573Y-177048084D01*
X242661932Y-176719367D01*
X242382381Y-176439816D01*
X242053664Y-176220175D01*
X241688413Y-176068883D01*
X241300665Y-175991755D01*
X240905321Y-175991755D01*
X240517573Y-176068883D01*
X240152322Y-176220175D01*
X239823605Y-176439816D01*
X239544054Y-176719367D01*
X239324413Y-177048084D01*
X239173121Y-177413335D01*
X239095993Y-177801083D01*
X236778398Y-177801083D01*
X236031221Y-177099190D01*
X236024522Y-177091986D01*
X236014256Y-177084574D01*
X236004256Y-177076878D01*
X236002154Y-177075837D01*
X236000246Y-177074460D01*
X235988745Y-177069200D01*
X235977423Y-177063595D01*
X235975154Y-177062983D01*
X235973017Y-177062006D01*
X235960731Y-177059095D01*
X235948513Y-177055802D01*
X235946164Y-177055645D01*
X235943882Y-177055104D01*
X235931264Y-177054646D01*
X235918640Y-177053800D01*
X235916310Y-177054103D01*
X235913961Y-177054018D01*
X235901474Y-177056034D01*
X235888949Y-177057664D01*
X235879641Y-177060808D01*
X230586721Y-178458939D01*
X230574288Y-178461840D01*
X230565433Y-178465854D01*
X230556344Y-178469238D01*
X230545515Y-178475919D01*
X213082540Y-188562390D01*
X182207348Y-188562156D01*
X164744828Y-178475314D01*
X164733944Y-178468599D01*
X164724832Y-178465206D01*
X164716003Y-178461204D01*
X164703614Y-178458312D01*
X159410663Y-177060175D01*
X159401340Y-177057025D01*
X159388788Y-177055392D01*
X159376326Y-177053380D01*
X159373979Y-177053465D01*
X159371648Y-177053162D01*
X159359024Y-177054008D01*
X159346406Y-177054466D01*
X159344124Y-177055006D01*
X159341774Y-177055164D01*
X159329549Y-177058459D01*
X159317271Y-177061368D01*
X159315136Y-177062345D01*
X159312864Y-177062957D01*
X159301519Y-177068573D01*
X159290042Y-177073822D01*
X159288140Y-177075195D01*
X159286031Y-177076239D01*
X159276004Y-177083956D01*
X159265766Y-177091348D01*
X159259074Y-177098544D01*
X155971780Y-180186610D01*
X155511405Y-180496664D01*
X155001991Y-180710380D01*
X154460770Y-180821080D01*
X153908355Y-180824547D01*
X153365783Y-180720651D01*
X152853728Y-180513348D01*
X152391690Y-180210534D01*
X151997267Y-179823744D01*
X151684828Y-179366748D01*
X151492790Y-178935927D01*
X151108724Y-177801083D01*
X152180295Y-177801083D01*
X152180295Y-178196427D01*
X152257423Y-178584175D01*
X152408715Y-178949426D01*
X152628356Y-179278143D01*
X152907907Y-179557694D01*
X153236624Y-179777335D01*
X153601875Y-179928627D01*
X153989623Y-180005755D01*
X154384967Y-180005755D01*
X154772715Y-179928627D01*
X155137966Y-179777335D01*
X155466683Y-179557694D01*
X155746234Y-179278143D01*
X155965875Y-178949426D01*
X156117167Y-178584175D01*
X156194295Y-178196427D01*
X156194295Y-177801083D01*
X156117167Y-177413335D01*
X155965875Y-177048084D01*
X155746234Y-176719367D01*
X155466683Y-176439816D01*
X155137966Y-176220175D01*
X154772715Y-176068883D01*
X154384967Y-175991755D01*
X153989623Y-175991755D01*
X153601875Y-176068883D01*
X153236624Y-176220175D01*
X152907907Y-176439816D01*
X152628356Y-176719367D01*
X152408715Y-177048084D01*
X152257423Y-177413335D01*
X152180295Y-177801083D01*
X151108724Y-177801083D01*
X150013266Y-174564216D01*
X150011585Y-174556955D01*
X150008478Y-174550069D01*
X150008464Y-174550028D01*
X150005739Y-174544000D01*
X149999270Y-174529663D01*
X149999240Y-174529621D01*
X149999220Y-174529577D01*
X149991443Y-174518703D01*
X149981869Y-174505297D01*
X149981826Y-174505257D01*
X149981802Y-174505223D01*
X149972598Y-174496587D01*
X149960048Y-174484795D01*
X149960000Y-174484765D01*
X149959968Y-174484735D01*
X149948447Y-174477556D01*
X149934646Y-174468945D01*
X149934597Y-174468926D01*
X149934556Y-174468901D01*
X149921443Y-174463952D01*
X149913654Y-174461006D01*
X149913599Y-174460991D01*
X149906543Y-174458328D01*
X149899202Y-174457109D01*
X142620888Y-172494580D01*
X142608860Y-172490932D01*
X142599031Y-172489964D01*
X142589295Y-172488341D01*
X142576736Y-172488732D01*
X102479116Y-172489350D01*
X93001014Y-157087435D01*
X92996137Y-157078309D01*
X92988430Y-157068918D01*
X92981101Y-157059274D01*
X92978961Y-157057379D01*
X92977142Y-157055163D01*
X92967758Y-157047462D01*
X92958683Y-157039427D01*
X92956211Y-157037984D01*
X92953998Y-157036168D01*
X92943309Y-157030454D01*
X92932824Y-157024335D01*
X92930114Y-157023401D01*
X92927592Y-157022053D01*
X92915990Y-157018533D01*
X92904516Y-157014579D01*
X92901679Y-157014192D01*
X92898940Y-157013361D01*
X92886877Y-157012173D01*
X92874849Y-157010532D01*
X92864520Y-157011161D01*
X78592260Y-157010800D01*
X78582866Y-157009885D01*
X78553072Y-157012851D01*
X78524428Y-157021573D01*
X78498037Y-157035715D01*
X78474913Y-157054734D01*
X78460693Y-157072097D01*
X78460095Y-157072994D01*
X78456034Y-157077942D01*
X78452950Y-157083712D01*
X76081784Y-160640463D01*
X75707480Y-161049375D01*
X75263495Y-161375874D01*
X74764541Y-161609921D01*
X74229632Y-161742596D01*
X73679147Y-161768846D01*
X73134044Y-161687673D01*
X72615089Y-161502168D01*
X72142042Y-161219392D01*
X71730088Y-160847558D01*
X71561400Y-160643648D01*
X70299680Y-158751067D01*
X71813040Y-158751067D01*
X71813040Y-159146411D01*
X71890168Y-159534159D01*
X72041460Y-159899410D01*
X72261101Y-160228127D01*
X72540652Y-160507678D01*
X72869369Y-160727319D01*
X73234620Y-160878611D01*
X73622368Y-160955739D01*
X74017712Y-160955739D01*
X74405460Y-160878611D01*
X74770711Y-160727319D01*
X75099428Y-160507678D01*
X75378979Y-160228127D01*
X75598620Y-159899410D01*
X75749912Y-159534159D01*
X75827040Y-159146411D01*
X75827040Y-158751067D01*
X75749912Y-158363319D01*
X75598620Y-157998068D01*
X75378979Y-157669351D01*
X75099428Y-157389800D01*
X74770711Y-157170159D01*
X74405460Y-157018867D01*
X74017712Y-156941739D01*
X73622368Y-156941739D01*
X73234620Y-157018867D01*
X72869369Y-157170159D01*
X72540652Y-157389800D01*
X72261101Y-157669351D01*
X72041460Y-157998068D01*
X71890168Y-158363319D01*
X71813040Y-158751067D01*
X70299680Y-158751067D01*
X69188111Y-157083715D01*
X69185016Y-157077926D01*
X69180951Y-157072975D01*
X69180366Y-157072097D01*
X69166146Y-157054734D01*
X69143022Y-157035715D01*
X69116631Y-157021573D01*
X69087987Y-157012851D01*
X69058193Y-157009885D01*
X69048788Y-157010802D01*
X66682716Y-157011160D01*
X66242424Y-156967988D01*
X65826054Y-156842279D01*
X65442033Y-156638091D01*
X65104985Y-156363202D01*
X64827753Y-156028085D01*
X64620886Y-155645492D01*
X64492273Y-155230014D01*
X64446058Y-154790305D01*
X64446027Y-154781378D01*
X64446019Y-154781299D01*
X64446025Y-99962691D01*
X323939847Y-99962691D01*
X323939847Y-100062561D01*
X323959331Y-100160512D01*
X323997550Y-100252780D01*
X324053035Y-100335820D01*
X324123653Y-100406438D01*
X324206693Y-100461923D01*
X324298961Y-100500142D01*
X324396912Y-100519626D01*
X324496782Y-100519626D01*
X324594733Y-100500142D01*
X324687001Y-100461923D01*
X324770041Y-100406438D01*
X324840659Y-100335820D01*
X324896144Y-100252780D01*
X324934363Y-100160512D01*
X324953847Y-100062561D01*
X324953847Y-99962691D01*
X324934363Y-99864740D01*
X324896144Y-99772472D01*
X324840659Y-99689432D01*
X324770041Y-99618814D01*
X324687001Y-99563329D01*
X324594733Y-99525110D01*
X324496782Y-99505626D01*
X324396912Y-99505626D01*
X324298961Y-99525110D01*
X324206693Y-99563329D01*
X324123653Y-99618814D01*
X324053035Y-99689432D01*
X323997550Y-99772472D01*
X323959331Y-99864740D01*
X323939847Y-99962691D01*
X64446025Y-99962691D01*
X64446027Y-89163399D01*
X205813418Y-89163399D01*
X205813418Y-89430705D01*
X205865567Y-89692874D01*
X205967860Y-89939833D01*
X206116367Y-90162089D01*
X206305381Y-90351103D01*
X206527637Y-90499610D01*
X206774596Y-90601903D01*
X207036765Y-90654052D01*
X207304071Y-90654052D01*
X207566240Y-90601903D01*
X207813199Y-90499610D01*
X208035455Y-90351103D01*
X208224469Y-90162089D01*
X208372976Y-89939833D01*
X208475269Y-89692874D01*
X208527418Y-89430705D01*
X208527418Y-89163399D01*
X208475269Y-88901230D01*
X208372976Y-88654271D01*
X208224469Y-88432015D01*
X208035455Y-88243001D01*
X207813199Y-88094494D01*
X207566240Y-87992201D01*
X207304071Y-87940052D01*
X207036765Y-87940052D01*
X206774596Y-87992201D01*
X206527637Y-88094494D01*
X206305381Y-88243001D01*
X206116367Y-88432015D01*
X205967860Y-88654271D01*
X205865567Y-88901230D01*
X205813418Y-89163399D01*
X64446027Y-89163399D01*
X64446028Y-83351427D01*
X64489200Y-82911132D01*
X64614909Y-82494762D01*
X64819096Y-82110742D01*
X65093986Y-81773693D01*
X65429103Y-81496461D01*
X65811696Y-81289594D01*
X66227174Y-81160981D01*
X66666459Y-81114811D01*
X66671352Y-81115420D01*
X66693735Y-81113795D01*
X69334587Y-80658774D01*
X69334701Y-80658777D01*
X69348695Y-80656343D01*
X69356573Y-80654986D01*
X69356697Y-80654952D01*
X69364200Y-80653647D01*
X69371082Y-80650990D01*
X69378210Y-80649026D01*
X69385031Y-80645603D01*
X69392131Y-80642861D01*
X69398359Y-80638914D01*
X69404970Y-80635596D01*
X69410994Y-80630906D01*
X69417421Y-80626833D01*
X69422758Y-80621748D01*
X69428596Y-80617203D01*
X69433592Y-80611425D01*
X69439098Y-80606179D01*
X69443340Y-80600152D01*
X69448180Y-80594554D01*
X69451950Y-80587917D01*
X69452015Y-80587825D01*
X69455452Y-80581753D01*
X69462969Y-80568520D01*
X69463008Y-80568404D01*
X70699503Y-78383813D01*
X71812060Y-78383813D01*
X71812060Y-78779157D01*
X71889188Y-79166905D01*
X72040480Y-79532156D01*
X72260121Y-79860873D01*
X72539672Y-80140424D01*
X72868389Y-80360065D01*
X73233640Y-80511357D01*
X73621388Y-80588485D01*
X74016732Y-80588485D01*
X74404480Y-80511357D01*
X74769731Y-80360065D01*
X75098448Y-80140424D01*
X75377999Y-79860873D01*
X75597640Y-79532156D01*
X75748932Y-79166905D01*
X75826060Y-78779157D01*
X75826060Y-78383813D01*
X75748932Y-77996065D01*
X75597640Y-77630814D01*
X75377999Y-77302097D01*
X75098448Y-77022546D01*
X74769731Y-76802905D01*
X74404480Y-76651613D01*
X74016732Y-76574485D01*
X73621388Y-76574485D01*
X73233640Y-76651613D01*
X72868389Y-76802905D01*
X72539672Y-77022546D01*
X72260121Y-77302097D01*
X72040480Y-77630814D01*
X71889188Y-77996065D01*
X71812060Y-78383813D01*
X70699503Y-78383813D01*
X71445693Y-77065474D01*
X71787900Y-76630905D01*
X72205470Y-76273248D01*
X72684559Y-76003507D01*
X73206921Y-75831956D01*
X73752647Y-75765135D01*
X74300961Y-75805586D01*
X74830977Y-75951769D01*
X75322509Y-76198117D01*
X75761892Y-76539173D01*
X75809002Y-76585001D01*
X78502160Y-79798424D01*
X78506424Y-79804655D01*
X78516394Y-79814406D01*
X78527739Y-79825519D01*
X78527791Y-79825553D01*
X78527830Y-79825591D01*
X78539270Y-79833053D01*
X78552804Y-79841896D01*
X78552863Y-79841920D01*
X78552908Y-79841949D01*
X78565729Y-79847094D01*
X78580583Y-79853068D01*
X78580644Y-79853079D01*
X78580695Y-79853100D01*
X78594825Y-79855748D01*
X78610008Y-79858605D01*
X78610067Y-79858604D01*
X78610124Y-79858615D01*
X78624776Y-79858453D01*
X78639948Y-79858297D01*
X78647347Y-79856746D01*
X121453406Y-75161605D01*
X145250586Y-75161744D01*
X145258129Y-75162479D01*
X145273129Y-75160986D01*
X145287766Y-75159544D01*
X145287841Y-75159521D01*
X145287923Y-75159513D01*
X145302167Y-75155176D01*
X145316418Y-75150853D01*
X145316490Y-75150814D01*
X145316567Y-75150791D01*
X145329493Y-75143865D01*
X145342824Y-75136739D01*
X145342888Y-75136687D01*
X145342958Y-75136649D01*
X145354159Y-75127437D01*
X145365969Y-75117744D01*
X145366022Y-75117679D01*
X145366082Y-75117630D01*
X145375378Y-75106279D01*
X145384964Y-75094599D01*
X145388536Y-75087916D01*
X146763098Y-73026071D01*
X148012380Y-73026071D01*
X148012380Y-73421415D01*
X148089508Y-73809163D01*
X148240800Y-74174414D01*
X148460441Y-74503131D01*
X148739992Y-74782682D01*
X149068709Y-75002323D01*
X149433960Y-75153615D01*
X149821708Y-75230743D01*
X150217052Y-75230743D01*
X150604800Y-75153615D01*
X150970051Y-75002323D01*
X151298768Y-74782682D01*
X151578319Y-74503131D01*
X151797960Y-74174414D01*
X151949252Y-73809163D01*
X152026380Y-73421415D01*
X152026380Y-73026071D01*
X151949252Y-72638323D01*
X151797960Y-72273072D01*
X151578319Y-71944355D01*
X151298768Y-71664804D01*
X150970051Y-71445163D01*
X150604800Y-71293871D01*
X150217052Y-71216743D01*
X149821708Y-71216743D01*
X149433960Y-71293871D01*
X149068709Y-71445163D01*
X148739992Y-71664804D01*
X148460441Y-71944355D01*
X148240800Y-72273072D01*
X148089508Y-72638323D01*
X148012380Y-73026071D01*
X146763098Y-73026071D01*
X147759214Y-71531898D01*
X148133516Y-71122989D01*
X148577504Y-70796489D01*
X149076455Y-70562443D01*
X149611364Y-70429768D01*
X150161849Y-70403518D01*
X150706956Y-70484692D01*
X151225909Y-70670197D01*
X151698954Y-70952972D01*
X152110908Y-71324806D01*
X152279599Y-71528720D01*
X154652395Y-75087915D01*
X154655967Y-75094599D01*
X154665553Y-75106279D01*
X154674849Y-75117630D01*
X154674909Y-75117679D01*
X154674962Y-75117744D01*
X154686772Y-75127437D01*
X154697973Y-75136649D01*
X154698043Y-75136687D01*
X154698107Y-75136739D01*
X154711438Y-75143865D01*
X154724364Y-75150791D01*
X154724441Y-75150814D01*
X154724513Y-75150853D01*
X154738764Y-75155176D01*
X154753008Y-75159513D01*
X154753090Y-75159521D01*
X154753165Y-75159544D01*
X154767802Y-75160986D01*
X154782802Y-75162479D01*
X154790344Y-75161744D01*
X240500507Y-75161744D01*
X240508049Y-75162479D01*
X240522955Y-75160995D01*
X240537687Y-75159544D01*
X240537763Y-75159521D01*
X240537843Y-75159513D01*
X240551827Y-75155255D01*
X240566339Y-75150853D01*
X240566413Y-75150814D01*
X240566487Y-75150791D01*
X240579021Y-75144074D01*
X240592745Y-75136739D01*
X240592811Y-75136685D01*
X240592878Y-75136649D01*
X240603619Y-75127815D01*
X240615890Y-75117744D01*
X240615945Y-75117677D01*
X240616002Y-75117630D01*
X240624820Y-75106863D01*
X240634885Y-75094599D01*
X240638461Y-75087908D01*
X242013018Y-73026071D01*
X243262780Y-73026071D01*
X243262780Y-73421415D01*
X243339908Y-73809163D01*
X243491200Y-74174414D01*
X243710841Y-74503131D01*
X243990392Y-74782682D01*
X244319109Y-75002323D01*
X244684360Y-75153615D01*
X245072108Y-75230743D01*
X245467452Y-75230743D01*
X245855200Y-75153615D01*
X246220451Y-75002323D01*
X246549168Y-74782682D01*
X246828719Y-74503131D01*
X247048360Y-74174414D01*
X247199652Y-73809163D01*
X247276780Y-73421415D01*
X247276780Y-73026071D01*
X247199652Y-72638323D01*
X247048360Y-72273072D01*
X246828719Y-71944355D01*
X246549168Y-71664804D01*
X246220451Y-71445163D01*
X245855200Y-71293871D01*
X245467452Y-71216743D01*
X245072108Y-71216743D01*
X244684360Y-71293871D01*
X244319109Y-71445163D01*
X243990392Y-71664804D01*
X243710841Y-71944355D01*
X243491200Y-72273072D01*
X243339908Y-72638323D01*
X243262780Y-73026071D01*
X242013018Y-73026071D01*
X243009134Y-71531898D01*
X243383436Y-71122989D01*
X243827424Y-70796489D01*
X244326375Y-70562443D01*
X244861284Y-70429768D01*
X245411769Y-70403518D01*
X245956876Y-70484692D01*
M02*
