G04 #@! TF.GenerationSoftware,KiCad,Pcbnew,(5.1.4-0-10_14)*
G04 #@! TF.CreationDate,2020-08-04T22:57:21-05:00*
G04 #@! TF.ProjectId,Dori,446f7269-2e6b-4696-9361-645f70636258,rev?*
G04 #@! TF.SameCoordinates,Original*
G04 #@! TF.FileFunction,Profile,NP*
%FSLAX46Y46*%
G04 Gerber Fmt 4.6, Leading zero omitted, Abs format (unit mm)*
G04 Created by KiCad (PCBNEW (5.1.4-0-10_14)) date 2020-08-04 22:57:21*
%MOMM*%
%LPD*%
G04 APERTURE LIST*
%ADD10C,0.050000*%
G04 APERTURE END LIST*
D10*
X159863144Y-43136300D02*
G75*
G03X160381328Y-43654484I518184J0D01*
G01*
X149187500Y-43654484D02*
G75*
G03X149705684Y-43136300I0J518184D01*
G01*
X159085904Y-42359060D02*
X150482924Y-42359060D01*
X159863144Y-43136300D02*
G75*
G03X159085904Y-42359060I-777240J0D01*
G01*
X150482924Y-42359060D02*
G75*
G03X149705684Y-43136300I0J-777240D01*
G01*
X139700000Y-43656250D02*
X149187500Y-43654484D01*
X373063214Y-104648000D02*
G75*
G02X374650000Y-104648000I793393J0D01*
G01*
X374649286Y-95377000D02*
G75*
G02X373062500Y-95377000I-793393J0D01*
G01*
X373063214Y-66802000D02*
G75*
G02X374650000Y-66802000I793393J0D01*
G01*
X374650000Y-46831250D02*
G75*
G02X377825000Y-43656250I3175000J0D01*
G01*
X374649286Y-57277000D02*
G75*
G02X373062500Y-57277000I-793393J0D01*
G01*
X117474286Y-57404000D02*
G75*
G02X115887500Y-57404000I-793393J0D01*
G01*
X115888214Y-66421000D02*
G75*
G02X117475000Y-66421000I793393J0D01*
G01*
X117474286Y-95504000D02*
G75*
G02X115887500Y-95504000I-793393J0D01*
G01*
X115887857Y-104521000D02*
G75*
G02X117474643Y-104521000I793393J0D01*
G01*
X290512500Y-118266556D02*
X261683500Y-125857000D01*
X256414289Y-108359787D02*
X248602500Y-112903000D01*
X248602500Y-112903001D02*
G75*
G03X248160283Y-114938043I954782J-1273043D01*
G01*
X249364500Y-95631000D02*
G75*
G02X249745500Y-94488002I761999J380999D01*
G01*
X260350000Y-88503125D02*
X249745500Y-94488002D01*
X290512500Y-118266556D02*
X292893750Y-118268750D01*
X256414289Y-108359787D02*
G75*
G03X256507500Y-107945000I-160788J253999D01*
G01*
X249364500Y-95631000D02*
X256507500Y-107945000D01*
X257749543Y-128077217D02*
X261683500Y-125857000D01*
X248160283Y-114938043D02*
X255714500Y-127635000D01*
X255714501Y-127635000D02*
G75*
G03X257749543Y-128077217I1273043J954782D01*
G01*
X398462500Y-140493750D02*
G75*
G02X397668750Y-141287500I-793750J0D01*
G01*
X397668750Y-123825000D02*
G75*
G02X398462500Y-124618750I0J-793750D01*
G01*
X358775000Y-123825000D02*
G75*
G02X357981250Y-123031250I0J793750D01*
G01*
X357981250Y-119062500D02*
G75*
G02X358775000Y-118268750I793750J0D01*
G01*
X351631250Y-123031250D02*
G75*
G02X350837500Y-123825000I-793750J0D01*
G01*
X350837500Y-118268750D02*
G75*
G02X351631250Y-119062500I0J-793750D01*
G01*
X300831250Y-123825000D02*
G75*
G02X300037500Y-123031250I0J793750D01*
G01*
X300037500Y-119062500D02*
G75*
G02X300831250Y-118268750I793750J0D01*
G01*
X92075000Y-30956250D02*
G75*
G02X92868750Y-30162500I793750J0D01*
G01*
X92075000Y-38100000D02*
X92075000Y-30956250D01*
X397668750Y-30162500D02*
G75*
G02X398462500Y-30956250I0J-793750D01*
G01*
X398462500Y-38100000D02*
G75*
G02X397668750Y-38893750I-793750J0D01*
G01*
X351631250Y-42862500D02*
G75*
G02X350837500Y-43656250I-793750J0D01*
G01*
X350837500Y-38893750D02*
G75*
G02X351631250Y-39687500I0J-793750D01*
G01*
X282575000Y-43656250D02*
G75*
G02X281781250Y-42862500I0J793750D01*
G01*
X281781250Y-39687500D02*
G75*
G02X282575000Y-38893750I793750J0D01*
G01*
X260442500Y-46831250D02*
G75*
G02X263617500Y-43656250I3175000J0D01*
G01*
X275431250Y-42862500D02*
G75*
G02X274637500Y-43656250I-793750J0D01*
G01*
X274637500Y-38893750D02*
G75*
G02X275431250Y-39687500I0J-793750D01*
G01*
X357981250Y-39687500D02*
G75*
G02X358775000Y-38893750I793750J0D01*
G01*
X358775000Y-43656250D02*
G75*
G02X357981250Y-42862500I0J793750D01*
G01*
X369887500Y-43656250D02*
G75*
G02X373062500Y-46831250I0J-3175000D01*
G01*
X395287500Y-43656250D02*
G75*
G02X398462500Y-46831250I0J-3175000D01*
G01*
X398462500Y-115093750D02*
G75*
G02X395287500Y-118268750I-3175000J0D01*
G01*
X377825000Y-118268750D02*
G75*
G02X374650000Y-115093750I0J3175000D01*
G01*
X373062500Y-115093750D02*
G75*
G02X369887500Y-118268750I-3175000J0D01*
G01*
X293687500Y-123031250D02*
G75*
G02X292893750Y-123825000I-793750J0D01*
G01*
X292893750Y-118268750D02*
G75*
G02X293687500Y-119062500I0J-793750D01*
G01*
X275034375Y-124618750D02*
G75*
G02X275828125Y-123825000I793750J0D01*
G01*
X275034375Y-131762500D02*
G75*
G02X274240625Y-132556250I-793750J0D01*
G01*
X215900000Y-132556250D02*
G75*
G02X215106250Y-131762500I0J793750D01*
G01*
X214312500Y-123825000D02*
G75*
G02X215106250Y-124618750I0J-793750D01*
G01*
X241173000Y-95631000D02*
X234030000Y-107945000D01*
X227012500Y-43656250D02*
G75*
G02X230187500Y-46831250I0J-3175000D01*
G01*
X215106250Y-39687500D02*
G75*
G02X215900000Y-38893750I793750J0D01*
G01*
X215900000Y-43656250D02*
G75*
G02X215106250Y-42862500I0J793750D01*
G01*
X207962500Y-38893750D02*
G75*
G02X208756250Y-39687500I0J-793750D01*
G01*
X208756250Y-42862500D02*
G75*
G02X207962500Y-43656250I-793750J0D01*
G01*
X138906250Y-39687500D02*
G75*
G02X139700000Y-38893750I793750J0D01*
G01*
X139700000Y-43656250D02*
G75*
G02X138906250Y-42862500I0J793750D01*
G01*
X197643750Y-123825000D02*
G75*
G02X196850000Y-123031250I0J793750D01*
G01*
X196850000Y-119062500D02*
G75*
G02X197643750Y-118268750I793750J0D01*
G01*
X190500000Y-123031250D02*
G75*
G02X189706250Y-123825000I-793750J0D01*
G01*
X189706250Y-118268750D02*
G75*
G02X190500000Y-119062500I0J-793750D01*
G01*
X139700000Y-123825000D02*
G75*
G02X138906250Y-123031250I0J793750D01*
G01*
X138906250Y-119062500D02*
G75*
G02X139700000Y-118268750I793750J0D01*
G01*
X92868750Y-141287500D02*
G75*
G02X92075000Y-140493750I0J793750D01*
G01*
X92075000Y-124618750D02*
G75*
G02X92868750Y-123825000I793750J0D01*
G01*
X132556250Y-123031250D02*
G75*
G02X131762500Y-123825000I-793750J0D01*
G01*
X131762500Y-118268748D02*
G75*
G02X132556250Y-119062498I0J-793750D01*
G01*
X120650000Y-118268750D02*
G75*
G02X117475000Y-115093750I0J3175000D01*
G01*
X115887500Y-115093750D02*
G75*
G02X112712500Y-118268750I-3175000J0D01*
G01*
X92868750Y-38893750D02*
G75*
G02X92075000Y-38100000I0J793750D01*
G01*
X131762500Y-38893750D02*
G75*
G02X132556250Y-39687500I0J-793750D01*
G01*
X132556250Y-42862500D02*
G75*
G02X131762500Y-43656250I-793750J0D01*
G01*
X117475000Y-46831250D02*
G75*
G02X120650000Y-43656250I3175000J0D01*
G01*
X112712500Y-43656250D02*
G75*
G02X115887500Y-46831250I0J-3175000D01*
G01*
X92075000Y-46831250D02*
G75*
G02X95250000Y-43656250I3175000J0D01*
G01*
X95250000Y-118268750D02*
G75*
G02X92075000Y-115093750I0J3175000D01*
G01*
X234822999Y-127635000D02*
G75*
G02X232787957Y-128077217I-1273043J954782D01*
G01*
X242377217Y-114938043D02*
X234823000Y-127635000D01*
X232787957Y-128077217D02*
X228854000Y-125857000D01*
X234123211Y-108359787D02*
G75*
G02X234030000Y-107945000I160788J253999D01*
G01*
X373062500Y-115093750D02*
X373063214Y-104648000D01*
X374649286Y-57277000D02*
X374650000Y-46831250D01*
X373062500Y-46831250D02*
X373062500Y-57277000D01*
X374650000Y-115093750D02*
X374650000Y-104648000D01*
X377825000Y-118268750D02*
X395288062Y-118268750D01*
X373063214Y-66802000D02*
X373062500Y-95377000D01*
X374650000Y-66802000D02*
X374649286Y-95377000D01*
X395287500Y-43656250D02*
X377825000Y-43656250D01*
X398462500Y-115093750D02*
X398462500Y-46831250D01*
X274240625Y-132556250D02*
X215900000Y-132556250D01*
X275034375Y-124618750D02*
X275034375Y-131762500D01*
X275828125Y-123825000D02*
X292893750Y-123825000D01*
X398462500Y-124618750D02*
X398462500Y-140493750D01*
X397668750Y-123825000D02*
X358775000Y-123825000D01*
X92868750Y-141287500D02*
X397668750Y-141287500D01*
X92075000Y-124618750D02*
X92075000Y-140493750D01*
X215106250Y-124618750D02*
X215106250Y-131762500D01*
X214312500Y-123825000D02*
X197643750Y-123825000D01*
X131762500Y-123825000D02*
X92868750Y-123825000D01*
X139700000Y-123825000D02*
X189706250Y-123825000D01*
X131762500Y-118268748D02*
X120650000Y-118268750D01*
X189706250Y-118268750D02*
X139700000Y-118268750D01*
X200025000Y-118266556D02*
X197643750Y-118268750D01*
X190500000Y-119062500D02*
X190500000Y-123031250D01*
X196850000Y-119062500D02*
X196850000Y-123031250D01*
X132556250Y-119062498D02*
X132556250Y-123031250D01*
X138906250Y-119062500D02*
X138906250Y-123031250D01*
X358775000Y-118268750D02*
X369887500Y-118268750D01*
X300831250Y-118268750D02*
X350837500Y-118268750D01*
X300831250Y-123825000D02*
X350837500Y-123825000D01*
X293687500Y-119062500D02*
X293687500Y-123031250D01*
X300037500Y-119062500D02*
X300037500Y-123031250D01*
X351631250Y-119062500D02*
X351631250Y-123031250D01*
X357981250Y-119062500D02*
X357981250Y-123031250D01*
X207962500Y-43656250D02*
X160381328Y-43654484D01*
X227012500Y-43656250D02*
X215900000Y-43656250D01*
X131762500Y-43656250D02*
X120650000Y-43656250D01*
X397668750Y-38893750D02*
X358775000Y-38893750D01*
X357981250Y-39687500D02*
X357981250Y-42862500D01*
X351631250Y-39687500D02*
X351631250Y-42862500D01*
X282575000Y-38893750D02*
X350837500Y-38893750D01*
X358775000Y-43656250D02*
X369887500Y-43656250D01*
X350837500Y-43656250D02*
X341350000Y-43654484D01*
X282575000Y-43656250D02*
X330156172Y-43654484D01*
X281781250Y-39687500D02*
X281781250Y-42862500D01*
X274637500Y-43656250D02*
X263617500Y-43656250D01*
X275431250Y-39687500D02*
X275431250Y-42862500D01*
X215900000Y-38893750D02*
X274637500Y-38893750D01*
X215106250Y-39687500D02*
X215106250Y-42862500D01*
X208756250Y-39687500D02*
X208756250Y-42862500D01*
X139700000Y-38893750D02*
X207962500Y-38893750D01*
X131762500Y-38893750D02*
X92868750Y-38893750D01*
X138906250Y-39687500D02*
X138906250Y-42862500D01*
X132556250Y-39687500D02*
X132556250Y-42862500D01*
X398462500Y-30956250D02*
X398462500Y-38100000D01*
X92868750Y-30162500D02*
X397668750Y-30162500D01*
X230187500Y-46831250D02*
X230187500Y-88503125D01*
X230187500Y-88503125D02*
X240792000Y-94488002D01*
X241173000Y-95631000D02*
G75*
G03X240792000Y-94488002I-761999J380999D01*
G01*
X241935000Y-112903001D02*
G75*
G02X242377217Y-114938043I-954782J-1273043D01*
G01*
X234123211Y-108359787D02*
X241935000Y-112903000D01*
X200025000Y-118266556D02*
X228854000Y-125857000D01*
X260442500Y-46831250D02*
X260350000Y-88503125D01*
X340054576Y-42359060D02*
G75*
G02X340831816Y-43136300I0J-777240D01*
G01*
X330674356Y-43136300D02*
G75*
G02X331451596Y-42359060I777240J0D01*
G01*
X331451596Y-42359060D02*
X340054576Y-42359060D01*
X341350000Y-43654484D02*
G75*
G02X340831816Y-43136300I0J518184D01*
G01*
X330674356Y-43136300D02*
G75*
G02X330156172Y-43654484I-518184J0D01*
G01*
X92075000Y-115093750D02*
X92075000Y-46831250D01*
X95250000Y-43656250D02*
X112712500Y-43656250D01*
X115888214Y-66421000D02*
X115887500Y-95504000D01*
X117475000Y-66421000D02*
X117474286Y-95504000D01*
X112712500Y-118268750D02*
X95250000Y-118268750D01*
X115887500Y-115093750D02*
X115887857Y-104521000D01*
X117475000Y-46831250D02*
X117474286Y-57404000D01*
X115887500Y-57404000D02*
X115887500Y-46831250D01*
X117475000Y-115093750D02*
X117474643Y-104521000D01*
M02*
