M48
; DRILL file {KiCad (5.1.4-0-10_14)} date Tuesday, August 04, 2020 at 10:57:23 PM
; FORMAT={-:-/ absolute / inch / decimal}
; #@! TF.CreationDate,2020-08-04T22:57:23-05:00
; #@! TF.GenerationSoftware,Kicad,Pcbnew,(5.1.4-0-10_14)
; #@! TF.FileFunction,Plated,1,2,PTH
FMAT,2
INCH
T1C0.0098
T2C0.0157
T3C0.0236
T4C0.0354
T5C0.0394
T6C0.0420
T7C0.0591
T8C0.0600
T9C0.0866
%
G90
G05
T1
X4.0669Y-1.85
X4.8892Y-1.8722
X4.9423Y-1.8754
X4.955Y-1.94
X5.065Y-3.395
X5.0821Y-3.98
X5.0925Y-4.0129
X5.095Y-3.395
X5.1319Y-3.43
X5.1477Y-3.3742
X5.1927Y-3.4542
X5.4169Y-4.0752
X5.4169Y-4.1
X5.4469Y-1.865
X5.452Y-3.3094
X5.4669Y-1.845
X5.4718Y-3.285
X5.49Y-1.93
X5.5169Y-4.075
X5.5169Y-4.1
X5.585Y-3.38
X5.83Y-1.9625
X5.905Y-2.685
X5.9477Y-2.7392
X6.0007Y-2.95
X6.0271Y-1.9625
X6.0319Y-2.95
X6.1721Y-1.9625
X6.36Y-1.9625
X6.4123Y-2.6823
X6.4354Y-1.94
X6.5315Y-2.9154
X6.561Y-3.0492
X6.715Y-4.165
X6.7169Y-4.03
X8.0654Y-3.21
X8.9631Y-4.2351
X9.1858Y-4.578
X9.1858Y-4.578
X10.7033Y-3.4356
X10.7073Y-4.245
X10.7139Y-3.395
X11.4902Y-3.4162
X12.2438Y-3.4007
X12.4439Y-4.185
X12.4441Y-4.07
X12.4627Y-4.2273
X12.4639Y-4.0861
X12.6Y-1.91
X12.69Y-3.37
X12.95Y-1.965
X13.0226Y-2.6524
X13.03Y-2.6949
X13.0761Y-2.725
X13.1189Y-2.95
X13.1489Y-2.95
X13.165Y-1.965
X13.18Y-2.95
X13.215Y-2.95
X13.29Y-1.965
X13.485Y-1.965
X13.5109Y-3.119
X13.5118Y-3.2756
X13.5689Y-1.91
X13.6713Y-3.0354
X13.6811Y-2.9626
X13.83Y-2.68
X13.83Y-2.725
X13.83Y-2.755
X14.335Y-2.445
X14.36Y-2.465
X14.89Y-2.335
X14.915Y-2.335
X15.345Y-3.885
X15.385Y-1.86
T2
X5.695Y-3.865
X5.7861Y-3.3361
X5.83Y-3.865
X5.8346Y-2.5965
X5.9619Y-2.955
X6.185Y-2.9449
X6.33Y-3.595
X6.4094Y-3.2795
X6.4102Y-3.1222
X12.79Y-3.865
X12.925Y-3.865
X12.9264Y-3.4225
X12.9508Y-2.626
X13.0866Y-2.9327
X13.2953Y-2.9488
X13.47Y-3.49
T5
X9.9859Y-4.3801
X10.0711Y-4.3309
X10.1564Y-4.2816
X10.2713Y-4.8744
X10.4418Y-4.776
X14.2453Y-1.7672
X14.2453Y-2.3381
X14.3438Y-1.7672
X14.4422Y-1.7672
X14.4422Y-2.3381
X15.2463Y-1.7667
X15.2463Y-2.3376
X15.3447Y-1.7667
X15.4432Y-1.7667
X15.4432Y-2.3376
X8.8707Y-4.7832
X9.0412Y-4.8816
X9.1561Y-4.2888
X9.2414Y-4.338
X9.3266Y-4.3872
X15.2463Y-4.0167
X15.2463Y-4.5876
X15.3447Y-4.0167
X15.4432Y-4.0167
X15.4432Y-4.5876
X4.8703Y-1.7672
X4.8703Y-2.3381
X4.9688Y-1.7672
X5.0672Y-1.7672
X5.0672Y-2.3381
X3.8713Y-4.0167
X3.8713Y-4.5876
X3.9697Y-4.0167
X4.0682Y-4.0167
X4.0682Y-4.5876
X3.8713Y-1.7667
X3.8713Y-2.3376
X3.9697Y-1.7667
X4.0682Y-1.7667
X4.0682Y-2.3376
T6
X7.5857Y-3.0366
X7.5857Y-3.2366
X7.5857Y-3.4366
X7.6018Y-2.9366
X7.6018Y-3.1366
X7.6018Y-3.3366
X13.9607Y-3.0366
X13.9607Y-3.2366
X13.9607Y-3.4366
X13.9767Y-2.9366
X13.9767Y-3.1366
X13.9767Y-3.3366
T8
X9.1725Y-4.7553
X3.8687Y-2.2625
X4.1187Y-2.1625
X11.9938Y-2.2625
X11.9938Y-3.7625
X15.2438Y-4.5125
X12.2438Y-3.6625
X8.906Y-4.7169
X12.2438Y-2.1625
X15.4938Y-4.4125
X11.2012Y-4.4648
X10.2315Y-4.8107
X10.398Y-4.5991
X13.4938Y-3.0125
X13.7438Y-2.9125
X12.7438Y-3.7625
X12.9938Y-3.6625
X13.7438Y-3.6625
X10.9856Y-4.6261
X13.4938Y-3.7625
X12.7438Y-2.2625
X12.9938Y-2.1625
X13.4938Y-2.2625
X13.7438Y-2.1625
X11.2438Y-3.7625
X11.4938Y-3.6625
X4.8687Y-4.5125
X4.1187Y-3.6625
X15.2438Y-3.0125
X15.4938Y-2.9125
X8.6188Y-2.2625
X8.8688Y-2.1625
X14.2438Y-3.0125
X14.4938Y-2.9125
X7.1187Y-4.5125
X7.8687Y-2.2625
X8.1188Y-2.1625
X4.8687Y-3.763
X5.1187Y-3.663
X5.1187Y-4.4125
X11.2438Y-3.0125
X11.4938Y-2.9125
X7.3687Y-4.4125
X15.2438Y-3.7625
X15.4938Y-3.6625
X5.6187Y-4.5125
X5.8687Y-4.4125
X4.8687Y-2.2625
X5.1187Y-2.1625
X14.2438Y-2.2625
X14.4938Y-2.1625
X3.8687Y-3.7625
X14.2438Y-3.763
X14.4938Y-3.663
X4.8687Y-3.0125
X5.1187Y-2.9125
X10.4938Y-3.0125
X10.7438Y-2.9125
X5.6187Y-3.0125
X5.8687Y-2.9125
X10.4938Y-2.2625
X10.7438Y-2.1625
X6.3687Y-2.2625
X6.6187Y-2.1625
X8.1318Y-4.5738
X8.3992Y-4.5419
X8.6188Y-3.7625
X8.8688Y-3.6625
X14.2438Y-4.5125
X14.4938Y-4.4125
X8.6188Y-3.0125
X7.1187Y-3.7625
X12.7438Y-3.0125
X12.9938Y-2.9125
X11.9938Y-4.5125
X12.2438Y-4.4125
X6.3687Y-4.5125
X6.6187Y-4.4125
X5.6187Y-3.7625
X5.8687Y-3.6625
X6.3687Y-3.7625
X6.6187Y-3.6625
X8.8688Y-2.9125
X7.3687Y-3.6625
X6.3687Y-3.0125
X6.6187Y-2.9125
X5.6187Y-2.2625
X5.8687Y-2.1625
X7.1187Y-3.0125
X7.3687Y-2.9125
X10.4938Y-3.7625
X10.7438Y-3.6625
X7.8687Y-3.7625
X8.1188Y-3.6625
X15.2438Y-2.2625
X15.4938Y-2.1625
X4.1187Y-4.4125
X7.1187Y-2.2625
X7.3687Y-2.1625
X13.4938Y-4.5125
X13.7438Y-4.4125
X3.8687Y-4.5125
X3.8687Y-3.0125
X4.1187Y-2.9125
X11.2438Y-2.2625
X11.4938Y-2.1625
X7.8687Y-3.0125
X8.1188Y-2.9125
X12.7438Y-4.5125
X12.9938Y-4.4125
X11.9938Y-3.0125
X12.2438Y-2.9125
T9
X8.7344Y-4.1406
X14.9688Y-3.9375
X5.3438Y-3.9375
X14.9688Y-2.4375
X10.9688Y-2.4375
X5.3438Y-2.4375
X4.3438Y-3.9375
X10.5781Y-4.1406
X8.3438Y-2.4386
X13.9688Y-2.4375
X13.9688Y-3.9375
X4.3438Y-2.4375
T3
G00X13.0495Y-1.7013
M15
G01X13.0495Y-1.7249
M16
G05
G00X13.0495Y-1.8568
M15
G01X13.0495Y-1.9001
M16
G05
G00X13.388Y-1.7013
M15
G01X13.388Y-1.7249
M16
G05
G00X13.388Y-1.8568
M15
G01X13.388Y-1.9001
M16
G05
G00X5.9245Y-1.7013
M15
G01X5.9245Y-1.7249
M16
G05
G00X5.9245Y-1.8568
M15
G01X5.9245Y-1.9001
M16
G05
G00X6.263Y-1.7013
M15
G01X6.263Y-1.7249
M16
G05
G00X6.263Y-1.8568
M15
G01X6.263Y-1.9001
M16
G05
T4
G00X9.0468Y-4.0832
M15
G01X9.039Y-4.0968
M16
G05
G00X9.2253Y-4.1362
M15
G01X9.2174Y-4.1499
M16
G05
G00X9.3041Y-3.9998
M15
G01X9.2962Y-4.0135
M16
G05
G00X9.3631Y-3.8976
M15
G01X9.3552Y-3.9112
M16
G05
G00X10.1062Y-3.807
M15
G01X10.1141Y-3.8206
M16
G05
G00X10.1088Y-4.1737
M15
G01X10.1167Y-4.1874
M16
G05
G00X10.1653Y-3.9093
M15
G01X10.1732Y-3.9229
M16
G05
G00X10.244Y-4.0457
M15
G01X10.2519Y-4.0593
M16
G05
T7
G00X10.3969Y-4.4542
M15
G01X10.4225Y-4.4985
M16
G05
G00X3.7493Y-4.2864
M15
G01X3.7493Y-4.3376
M16
G05
G00X4.1902Y-4.2864
M15
G01X4.1902Y-4.3376
M16
G05
G00X3.7493Y-2.0364
M15
G01X3.7493Y-2.0876
M16
G05
G00X4.1902Y-2.0364
M15
G01X4.1902Y-2.0876
M16
G05
G00X10.015Y-4.6746
M15
G01X10.0406Y-4.719
M16
G05
G00X15.1243Y-2.0364
M15
G01X15.1243Y-2.0876
M16
G05
G00X15.5652Y-2.0364
M15
G01X15.5652Y-2.0876
M16
G05
G00X14.1233Y-2.0369
M15
G01X14.1233Y-2.0881
M16
G05
G00X14.5642Y-2.0369
M15
G01X14.5642Y-2.0881
M16
G05
G00X8.9156Y-4.4614
M15
G01X8.89Y-4.5057
M16
G05
G00X9.2975Y-4.6818
M15
G01X9.2719Y-4.7261
M16
G05
G00X15.1243Y-4.2864
M15
G01X15.1243Y-4.3376
M16
G05
G00X15.5652Y-4.2864
M15
G01X15.5652Y-4.3376
M16
G05
G00X4.7483Y-2.0369
M15
G01X4.7483Y-2.0881
M16
G05
G00X5.1892Y-2.0369
M15
G01X5.1892Y-2.0881
M16
G05
T0
M30
