G04 #@! TF.GenerationSoftware,KiCad,Pcbnew,(5.1.4-0-10_14)*
G04 #@! TF.CreationDate,2020-08-04T22:57:21-05:00*
G04 #@! TF.ProjectId,Dori,446f7269-2e6b-4696-9361-645f70636258,rev?*
G04 #@! TF.SameCoordinates,Original*
G04 #@! TF.FileFunction,Legend,Top*
G04 #@! TF.FilePolarity,Positive*
%FSLAX46Y46*%
G04 Gerber Fmt 4.6, Leading zero omitted, Abs format (unit mm)*
G04 Created by KiCad (PCBNEW (5.1.4-0-10_14)) date 2020-08-04 22:57:21*
%MOMM*%
%LPD*%
G04 APERTURE LIST*
%ADD10C,0.150000*%
%ADD11C,0.120000*%
%ADD12C,4.089800*%
%ADD13C,1.803800*%
%ADD14C,2.642000*%
%ADD15C,3.602000*%
%ADD16C,0.902000*%
%ADD17C,2.102000*%
%ADD18R,2.102000X3.302000*%
%ADD19R,2.102000X2.102000*%
%ADD20C,1.702000*%
%ADD21C,1.702000*%
%ADD22C,0.100000*%
%ADD23C,1.803400*%
%ADD24O,1.402000X2.002000*%
%ADD25C,0.752000*%
%ADD26O,1.402000X2.502000*%
G04 APERTURE END LIST*
D10*
X118772380Y-85559047D02*
X119486666Y-85559047D01*
X119629523Y-85606666D01*
X119724761Y-85701904D01*
X119772380Y-85844761D01*
X119772380Y-85940000D01*
X119772380Y-84606666D02*
X119772380Y-85082857D01*
X118772380Y-85082857D01*
X119677142Y-83701904D02*
X119724761Y-83749523D01*
X119772380Y-83892380D01*
X119772380Y-83987619D01*
X119724761Y-84130476D01*
X119629523Y-84225714D01*
X119534285Y-84273333D01*
X119343809Y-84320952D01*
X119200952Y-84320952D01*
X119010476Y-84273333D01*
X118915238Y-84225714D01*
X118820000Y-84130476D01*
X118772380Y-83987619D01*
X118772380Y-83892380D01*
X118820000Y-83749523D01*
X118867619Y-83701904D01*
X118772380Y-82987619D02*
X119486666Y-82987619D01*
X119629523Y-83035238D01*
X119724761Y-83130476D01*
X119772380Y-83273333D01*
X119772380Y-83368571D01*
X119772380Y-82035238D02*
X119772380Y-82511428D01*
X118772380Y-82511428D01*
X119677142Y-81130476D02*
X119724761Y-81178095D01*
X119772380Y-81320952D01*
X119772380Y-81416190D01*
X119724761Y-81559047D01*
X119629523Y-81654285D01*
X119534285Y-81701904D01*
X119343809Y-81749523D01*
X119200952Y-81749523D01*
X119010476Y-81701904D01*
X118915238Y-81654285D01*
X118820000Y-81559047D01*
X118772380Y-81416190D01*
X118772380Y-81320952D01*
X118820000Y-81178095D01*
X118867619Y-81130476D01*
X118772380Y-80416190D02*
X119486666Y-80416190D01*
X119629523Y-80463809D01*
X119724761Y-80559047D01*
X119772380Y-80701904D01*
X119772380Y-80797142D01*
X119772380Y-79463809D02*
X119772380Y-79940000D01*
X118772380Y-79940000D01*
X119677142Y-78559047D02*
X119724761Y-78606666D01*
X119772380Y-78749523D01*
X119772380Y-78844761D01*
X119724761Y-78987619D01*
X119629523Y-79082857D01*
X119534285Y-79130476D01*
X119343809Y-79178095D01*
X119200952Y-79178095D01*
X119010476Y-79130476D01*
X118915238Y-79082857D01*
X118820000Y-78987619D01*
X118772380Y-78844761D01*
X118772380Y-78749523D01*
X118820000Y-78606666D01*
X118867619Y-78559047D01*
X118772380Y-77844761D02*
X119486666Y-77844761D01*
X119629523Y-77892380D01*
X119724761Y-77987619D01*
X119772380Y-78130476D01*
X119772380Y-78225714D01*
X119772380Y-76892380D02*
X119772380Y-77368571D01*
X118772380Y-77368571D01*
X119677142Y-75987619D02*
X119724761Y-76035238D01*
X119772380Y-76178095D01*
X119772380Y-76273333D01*
X119724761Y-76416190D01*
X119629523Y-76511428D01*
X119534285Y-76559047D01*
X119343809Y-76606666D01*
X119200952Y-76606666D01*
X119010476Y-76559047D01*
X118915238Y-76511428D01*
X118820000Y-76416190D01*
X118772380Y-76273333D01*
X118772380Y-76178095D01*
X118820000Y-76035238D01*
X118867619Y-75987619D01*
D11*
X364331250Y-51887500D02*
X364331250Y-52887500D01*
X364831250Y-52387500D02*
X363831250Y-52387500D01*
X360831250Y-58487500D02*
X358431250Y-58487500D01*
X365631250Y-58487500D02*
X363031250Y-58487500D01*
X370231250Y-58487500D02*
X367831250Y-58487500D01*
X368431250Y-45187500D02*
X368131250Y-44887500D01*
X368431250Y-44587500D02*
X368431250Y-45187500D01*
X368131250Y-44887500D02*
X368431250Y-44587500D01*
X370231250Y-46287500D02*
X358431250Y-46287500D01*
X370231250Y-50387500D02*
X370231250Y-46287500D01*
X358431250Y-50387500D02*
X358431250Y-46287500D01*
X358431250Y-58487500D02*
X358431250Y-54387500D01*
X370231250Y-54387500D02*
X370231250Y-58487500D01*
X367331250Y-52387500D02*
G75*
G03X367331250Y-52387500I-3000000J0D01*
G01*
X389756650Y-109024800D02*
X389756650Y-110024800D01*
X390256650Y-109524800D02*
X389256650Y-109524800D01*
X386256650Y-115624800D02*
X383856650Y-115624800D01*
X391056650Y-115624800D02*
X388456650Y-115624800D01*
X395656650Y-115624800D02*
X393256650Y-115624800D01*
X393856650Y-102324800D02*
X393556650Y-102024800D01*
X393856650Y-101724800D02*
X393856650Y-102324800D01*
X393556650Y-102024800D02*
X393856650Y-101724800D01*
X395656650Y-103424800D02*
X383856650Y-103424800D01*
X395656650Y-107524800D02*
X395656650Y-103424800D01*
X383856650Y-107524800D02*
X383856650Y-103424800D01*
X383856650Y-115624800D02*
X383856650Y-111524800D01*
X395656650Y-111524800D02*
X395656650Y-115624800D01*
X392756650Y-109524800D02*
G75*
G03X392756650Y-109524800I-3000000J0D01*
G01*
X389756650Y-51874800D02*
X389756650Y-52874800D01*
X390256650Y-52374800D02*
X389256650Y-52374800D01*
X386256650Y-58474800D02*
X383856650Y-58474800D01*
X391056650Y-58474800D02*
X388456650Y-58474800D01*
X395656650Y-58474800D02*
X393256650Y-58474800D01*
X393856650Y-45174800D02*
X393556650Y-44874800D01*
X393856650Y-44574800D02*
X393856650Y-45174800D01*
X393556650Y-44874800D02*
X393856650Y-44574800D01*
X395656650Y-46274800D02*
X383856650Y-46274800D01*
X395656650Y-50374800D02*
X395656650Y-46274800D01*
X383856650Y-50374800D02*
X383856650Y-46274800D01*
X383856650Y-58474800D02*
X383856650Y-54374800D01*
X395656650Y-54374800D02*
X395656650Y-58474800D01*
X392756650Y-52374800D02*
G75*
G03X392756650Y-52374800I-3000000J0D01*
G01*
D10*
X254631121Y-92117949D02*
X249781379Y-94917949D01*
X250781379Y-96650000D02*
X249781379Y-94917949D01*
X255631121Y-93850000D02*
X254631121Y-92117949D01*
X250564873Y-96775000D02*
X256614873Y-107253907D01*
X255847627Y-93725000D02*
X261897627Y-104203907D01*
X261897627Y-104203907D02*
X256614873Y-107253907D01*
X255847627Y-93725000D02*
X250564873Y-96775000D01*
X239972627Y-96775000D02*
X234689873Y-93725000D01*
X233922627Y-107253907D02*
X228639873Y-104203907D01*
X239972627Y-96775000D02*
X233922627Y-107253907D01*
X234689873Y-93725000D02*
X228639873Y-104203907D01*
X239756121Y-96650000D02*
X240756121Y-94917949D01*
X234906379Y-93850000D02*
X235906379Y-92117949D01*
X240756121Y-94917949D02*
X235906379Y-92117949D01*
D11*
X100831650Y-109024800D02*
X100831650Y-110024800D01*
X101331650Y-109524800D02*
X100331650Y-109524800D01*
X97331650Y-115624800D02*
X94931650Y-115624800D01*
X102131650Y-115624800D02*
X99531650Y-115624800D01*
X106731650Y-115624800D02*
X104331650Y-115624800D01*
X104931650Y-102324800D02*
X104631650Y-102024800D01*
X104931650Y-101724800D02*
X104931650Y-102324800D01*
X104631650Y-102024800D02*
X104931650Y-101724800D01*
X106731650Y-103424800D02*
X94931650Y-103424800D01*
X106731650Y-107524800D02*
X106731650Y-103424800D01*
X94931650Y-107524800D02*
X94931650Y-103424800D01*
X94931650Y-115624800D02*
X94931650Y-111524800D01*
X106731650Y-111524800D02*
X106731650Y-115624800D01*
X103831650Y-109524800D02*
G75*
G03X103831650Y-109524800I-3000000J0D01*
G01*
X100831650Y-51874800D02*
X100831650Y-52874800D01*
X101331650Y-52374800D02*
X100331650Y-52374800D01*
X97331650Y-58474800D02*
X94931650Y-58474800D01*
X102131650Y-58474800D02*
X99531650Y-58474800D01*
X106731650Y-58474800D02*
X104331650Y-58474800D01*
X104931650Y-45174800D02*
X104631650Y-44874800D01*
X104931650Y-44574800D02*
X104931650Y-45174800D01*
X104631650Y-44874800D02*
X104931650Y-44574800D01*
X106731650Y-46274800D02*
X94931650Y-46274800D01*
X106731650Y-50374800D02*
X106731650Y-46274800D01*
X94931650Y-50374800D02*
X94931650Y-46274800D01*
X94931650Y-58474800D02*
X94931650Y-54374800D01*
X106731650Y-54374800D02*
X106731650Y-58474800D01*
X103831650Y-52374800D02*
G75*
G03X103831650Y-52374800I-3000000J0D01*
G01*
X259306250Y-116065788D02*
X259806250Y-116931814D01*
X259989263Y-116248801D02*
X259123237Y-116748801D01*
X259575161Y-123531556D02*
X257496700Y-124731556D01*
X263732083Y-121131556D02*
X261480417Y-122431556D01*
X267715800Y-118831556D02*
X265637339Y-120031556D01*
X259506954Y-108213418D02*
X259097147Y-108103610D01*
X259206954Y-107693803D02*
X259506954Y-108213418D01*
X259097147Y-108103610D02*
X259206954Y-107693803D01*
X261615800Y-108266046D02*
X251396700Y-114166046D01*
X263665800Y-111816750D02*
X261615800Y-108266046D01*
X253446700Y-117716750D02*
X251396700Y-114166046D01*
X257496700Y-124731556D02*
X255446700Y-121180852D01*
X265665800Y-115280852D02*
X267715800Y-118831556D01*
X262556250Y-116498801D02*
G75*
G03X262556250Y-116498801I-3000000J0D01*
G01*
X231231250Y-116248237D02*
X230731250Y-117114263D01*
X231414263Y-116931250D02*
X230548237Y-116431250D01*
X224900161Y-120214005D02*
X222821700Y-119014005D01*
X229057083Y-122614005D02*
X226805417Y-121314005D01*
X233040800Y-124914005D02*
X230962339Y-123714005D01*
X238131954Y-112495867D02*
X238022147Y-112086059D01*
X238431954Y-111976252D02*
X238131954Y-112495867D01*
X238022147Y-112086059D02*
X238431954Y-111976252D01*
X239140800Y-114348495D02*
X228921700Y-108448495D01*
X237090800Y-117899199D02*
X239140800Y-114348495D01*
X226871700Y-111999199D02*
X228921700Y-108448495D01*
X222821700Y-119014005D02*
X224871700Y-115463301D01*
X235090800Y-121363301D02*
X233040800Y-124914005D01*
X233981250Y-116681250D02*
G75*
G03X233981250Y-116681250I-3000000J0D01*
G01*
X126206250Y-51887500D02*
X126206250Y-52887500D01*
X126706250Y-52387500D02*
X125706250Y-52387500D01*
X122706250Y-58487500D02*
X120306250Y-58487500D01*
X127506250Y-58487500D02*
X124906250Y-58487500D01*
X132106250Y-58487500D02*
X129706250Y-58487500D01*
X130306250Y-45187500D02*
X130006250Y-44887500D01*
X130306250Y-44587500D02*
X130306250Y-45187500D01*
X130006250Y-44887500D02*
X130306250Y-44587500D01*
X132106250Y-46287500D02*
X120306250Y-46287500D01*
X132106250Y-50387500D02*
X132106250Y-46287500D01*
X120306250Y-50387500D02*
X120306250Y-46287500D01*
X120306250Y-58487500D02*
X120306250Y-54387500D01*
X132106250Y-54387500D02*
X132106250Y-58487500D01*
X129206250Y-52387500D02*
G75*
G03X129206250Y-52387500I-3000000J0D01*
G01*
%LPC*%
D12*
X183356250Y-90487500D03*
D13*
X188436250Y-90487500D03*
X178276250Y-90487500D03*
D14*
X180816250Y-95567500D03*
X187166250Y-93027500D03*
D12*
X100806250Y-90487500D03*
D13*
X105886250Y-90487500D03*
X95726250Y-90487500D03*
D14*
X98266250Y-95567500D03*
X104616250Y-93027500D03*
D12*
X288131250Y-90487500D03*
D13*
X293211250Y-90487500D03*
X283051250Y-90487500D03*
D14*
X285591250Y-95567500D03*
X291941250Y-93027500D03*
D12*
X269081250Y-90487500D03*
D13*
X274161250Y-90487500D03*
X264001250Y-90487500D03*
D14*
X266541250Y-95567500D03*
X272891250Y-93027500D03*
D12*
X221456250Y-71437500D03*
D13*
X226536250Y-71437500D03*
X216376250Y-71437500D03*
D14*
X218916250Y-76517500D03*
X225266250Y-73977500D03*
D12*
X389731250Y-52387500D03*
D13*
X394811250Y-52387500D03*
X384651250Y-52387500D03*
D14*
X387191250Y-57467500D03*
X393541250Y-54927500D03*
D12*
X389731250Y-71437500D03*
D13*
X394811250Y-71437500D03*
X384651250Y-71437500D03*
D14*
X387191250Y-76517500D03*
X393541250Y-73977500D03*
D15*
X380206250Y-100012500D03*
X380206250Y-61912500D03*
D16*
X372665625Y-61912500D03*
X372665625Y-60388500D03*
X372665625Y-58864500D03*
X372665625Y-63690500D03*
X372665625Y-65214500D03*
X372665625Y-100012500D03*
X372665625Y-98488500D03*
X372665625Y-96964500D03*
X372665625Y-101536500D03*
X372665625Y-103060500D03*
D17*
X361831250Y-59387500D03*
X366831250Y-59387500D03*
D18*
X358731250Y-52387500D03*
X369931250Y-52387500D03*
D17*
X361831250Y-44887500D03*
X364331250Y-44887500D03*
D19*
X366831250Y-44887500D03*
D17*
X387256650Y-116524800D03*
X392256650Y-116524800D03*
D18*
X384156650Y-109524800D03*
X395356650Y-109524800D03*
D17*
X387256650Y-102024800D03*
X389756650Y-102024800D03*
D19*
X392256650Y-102024800D03*
D17*
X387256650Y-59374800D03*
X392256650Y-59374800D03*
D18*
X384156650Y-52374800D03*
X395356650Y-52374800D03*
D17*
X387256650Y-44874800D03*
X389756650Y-44874800D03*
D19*
X392256650Y-44874800D03*
D12*
X389731250Y-109537500D03*
D13*
X394811250Y-109537500D03*
X384651250Y-109537500D03*
D14*
X387191250Y-114617500D03*
X393541250Y-112077500D03*
D12*
X389731250Y-90487500D03*
D13*
X394811250Y-90487500D03*
X384651250Y-90487500D03*
D14*
X387191250Y-95567500D03*
X393541250Y-93027500D03*
D16*
X278540000Y-44080000D03*
X280064000Y-44080000D03*
X281588000Y-44080000D03*
X277016000Y-44080000D03*
X275492000Y-44080000D03*
X354806250Y-44053125D03*
X356330250Y-44053125D03*
X357854250Y-44053125D03*
X353282250Y-44053125D03*
X351758250Y-44053125D03*
X135731250Y-44053125D03*
X137255250Y-44053125D03*
X138779250Y-44053125D03*
X134207250Y-44053125D03*
X132683250Y-44053125D03*
X211931250Y-44053125D03*
X213455250Y-44053125D03*
X214979250Y-44053125D03*
X210407250Y-44053125D03*
X208883250Y-44053125D03*
D12*
X326231250Y-109537500D03*
D13*
X331311250Y-109537500D03*
X321151250Y-109537500D03*
D14*
X323691250Y-114617500D03*
X330041250Y-112077500D03*
D16*
X193675000Y-117871875D03*
X195199000Y-117871875D03*
X196723000Y-117871875D03*
X192151000Y-117871875D03*
X190627000Y-117871875D03*
X135731250Y-117871875D03*
X137255250Y-117871875D03*
X138779250Y-117871875D03*
X134207250Y-117871875D03*
X132683250Y-117871875D03*
X296862500Y-117871875D03*
X298386500Y-117871875D03*
X299910500Y-117871875D03*
X295338500Y-117871875D03*
X293814500Y-117871875D03*
X354806250Y-117871875D03*
X356330250Y-117871875D03*
X357854250Y-117871875D03*
X353282250Y-117871875D03*
X351758250Y-117871875D03*
X117800000Y-61912500D03*
X117800000Y-60515500D03*
X117800000Y-59118500D03*
X117800000Y-63309500D03*
X117800000Y-64706500D03*
D15*
X110331250Y-100012500D03*
X354806250Y-61912500D03*
D20*
X256864392Y-106186087D03*
D21*
X256764392Y-106012882D02*
X256964392Y-106359292D01*
D20*
X260298108Y-102933459D03*
D21*
X260198108Y-102760254D02*
X260398108Y-103106664D01*
D20*
X256798108Y-96871281D03*
D21*
X256698108Y-96698076D02*
X256898108Y-97044486D01*
D16*
X257506250Y-102697818D03*
X254006250Y-96635641D03*
D20*
X258298108Y-99469358D03*
D21*
X258198108Y-99296153D02*
X258398108Y-99642563D01*
D20*
X236223108Y-101769358D03*
D21*
X236323108Y-101596153D02*
X236123108Y-101942563D01*
D16*
X236531250Y-96635641D03*
X233031250Y-102697818D03*
D20*
X237723108Y-99171281D03*
D21*
X237823108Y-98998076D02*
X237623108Y-99344486D01*
D20*
X234223108Y-105233459D03*
D21*
X234323108Y-105060254D02*
X234123108Y-105406664D01*
D20*
X229689392Y-103886087D03*
D21*
X229789392Y-103712882D02*
X229589392Y-104059292D01*
D17*
X98331650Y-116524800D03*
X103331650Y-116524800D03*
D18*
X95231650Y-109524800D03*
X106431650Y-109524800D03*
D17*
X98331650Y-102024800D03*
X100831650Y-102024800D03*
D19*
X103331650Y-102024800D03*
D17*
X98331650Y-59374800D03*
X103331650Y-59374800D03*
D18*
X95231650Y-52374800D03*
X106431650Y-52374800D03*
D17*
X98331650Y-44874800D03*
X100831650Y-44874800D03*
D19*
X103331650Y-44874800D03*
D12*
X100806250Y-109537500D03*
D13*
X105886250Y-109537500D03*
X95726250Y-109537500D03*
D14*
X98266250Y-114617500D03*
X104616250Y-112077500D03*
D12*
X100806250Y-71437500D03*
D13*
X105886250Y-71437500D03*
X95726250Y-71437500D03*
D14*
X98266250Y-76517500D03*
X104616250Y-73977500D03*
D12*
X100806250Y-52387500D03*
D13*
X105886250Y-52387500D03*
X95726250Y-52387500D03*
D14*
X98266250Y-57467500D03*
X104616250Y-54927500D03*
D22*
G36*
X355504491Y-73690471D02*
G01*
X355548256Y-73696963D01*
X355591175Y-73707713D01*
X355632833Y-73722619D01*
X355672829Y-73741536D01*
X355710779Y-73764282D01*
X355746316Y-73790638D01*
X355779099Y-73820351D01*
X355808812Y-73853134D01*
X355835168Y-73888671D01*
X355857914Y-73926621D01*
X355876831Y-73966617D01*
X355891737Y-74008275D01*
X355902487Y-74051194D01*
X355908979Y-74094959D01*
X355911150Y-74139150D01*
X355911150Y-75040850D01*
X355908979Y-75085041D01*
X355902487Y-75128806D01*
X355891737Y-75171725D01*
X355876831Y-75213383D01*
X355857914Y-75253379D01*
X355835168Y-75291329D01*
X355808812Y-75326866D01*
X355779099Y-75359649D01*
X355746316Y-75389362D01*
X355710779Y-75415718D01*
X355672829Y-75438464D01*
X355632833Y-75457381D01*
X355591175Y-75472287D01*
X355548256Y-75483037D01*
X355504491Y-75489529D01*
X355460300Y-75491700D01*
X354558600Y-75491700D01*
X354514409Y-75489529D01*
X354470644Y-75483037D01*
X354427725Y-75472287D01*
X354386067Y-75457381D01*
X354346071Y-75438464D01*
X354308121Y-75415718D01*
X354272584Y-75389362D01*
X354239801Y-75359649D01*
X354210088Y-75326866D01*
X354183732Y-75291329D01*
X354160986Y-75253379D01*
X354142069Y-75213383D01*
X354127163Y-75171725D01*
X354116413Y-75128806D01*
X354109921Y-75085041D01*
X354107750Y-75040850D01*
X354107750Y-74139150D01*
X354109921Y-74094959D01*
X354116413Y-74051194D01*
X354127163Y-74008275D01*
X354142069Y-73966617D01*
X354160986Y-73926621D01*
X354183732Y-73888671D01*
X354210088Y-73853134D01*
X354239801Y-73820351D01*
X354272584Y-73790638D01*
X354308121Y-73764282D01*
X354346071Y-73741536D01*
X354386067Y-73722619D01*
X354427725Y-73707713D01*
X354470644Y-73696963D01*
X354514409Y-73690471D01*
X354558600Y-73688300D01*
X355460300Y-73688300D01*
X355504491Y-73690471D01*
X355504491Y-73690471D01*
G37*
D23*
X355009450Y-74590000D03*
X354603050Y-77130000D03*
X355009450Y-79670000D03*
X354603050Y-82210000D03*
X355009450Y-84750000D03*
X354603050Y-87290000D03*
D24*
X331456250Y-43512500D03*
D25*
X332866250Y-47161500D03*
X338646250Y-47161500D03*
D24*
X340056250Y-43512500D03*
D26*
X340056250Y-47712500D03*
X331456250Y-47712500D03*
D15*
X221853125Y-105171875D03*
D17*
X260891186Y-123810979D03*
X265221314Y-121310979D03*
X254706508Y-119298801D03*
D22*
G36*
X252970815Y-118394493D02*
G01*
X254791201Y-117343493D01*
X256442201Y-120203109D01*
X254621815Y-121254109D01*
X252970815Y-118394493D01*
X252970815Y-118394493D01*
G37*
D17*
X264405992Y-113698801D03*
D22*
G36*
X262670299Y-112794493D02*
G01*
X264490685Y-111743493D01*
X266141685Y-114603109D01*
X264321299Y-115654109D01*
X262670299Y-112794493D01*
X262670299Y-112794493D01*
G37*
D17*
X253641186Y-111253610D03*
X255806250Y-110003610D03*
X257971314Y-108753610D03*
D22*
G36*
X256535621Y-108368917D02*
G01*
X258356007Y-107317917D01*
X259407007Y-109138303D01*
X257586621Y-110189303D01*
X256535621Y-108368917D01*
X256535621Y-108368917D01*
G37*
D17*
X225316186Y-121493428D03*
X229646314Y-123993428D03*
X226131508Y-113881250D03*
D22*
G36*
X226046815Y-111925942D02*
G01*
X227867201Y-112976942D01*
X226216201Y-115836558D01*
X224395815Y-114785558D01*
X226046815Y-111925942D01*
X226046815Y-111925942D01*
G37*
D17*
X235830992Y-119481250D03*
D22*
G36*
X235746299Y-117525942D02*
G01*
X237566685Y-118576942D01*
X235915685Y-121436558D01*
X234095299Y-120385558D01*
X235746299Y-117525942D01*
X235746299Y-117525942D01*
G37*
D17*
X232566186Y-108936059D03*
X234731250Y-110186059D03*
X236896314Y-111436059D03*
D22*
G36*
X236511621Y-110000366D02*
G01*
X238332007Y-111051366D01*
X237281007Y-112871752D01*
X235460621Y-111820752D01*
X236511621Y-110000366D01*
X236511621Y-110000366D01*
G37*
D17*
X123706250Y-59387500D03*
X128706250Y-59387500D03*
D18*
X120606250Y-52387500D03*
X131806250Y-52387500D03*
D17*
X123706250Y-44887500D03*
X126206250Y-44887500D03*
D19*
X128706250Y-44887500D03*
D22*
G36*
X193579491Y-73690471D02*
G01*
X193623256Y-73696963D01*
X193666175Y-73707713D01*
X193707833Y-73722619D01*
X193747829Y-73741536D01*
X193785779Y-73764282D01*
X193821316Y-73790638D01*
X193854099Y-73820351D01*
X193883812Y-73853134D01*
X193910168Y-73888671D01*
X193932914Y-73926621D01*
X193951831Y-73966617D01*
X193966737Y-74008275D01*
X193977487Y-74051194D01*
X193983979Y-74094959D01*
X193986150Y-74139150D01*
X193986150Y-75040850D01*
X193983979Y-75085041D01*
X193977487Y-75128806D01*
X193966737Y-75171725D01*
X193951831Y-75213383D01*
X193932914Y-75253379D01*
X193910168Y-75291329D01*
X193883812Y-75326866D01*
X193854099Y-75359649D01*
X193821316Y-75389362D01*
X193785779Y-75415718D01*
X193747829Y-75438464D01*
X193707833Y-75457381D01*
X193666175Y-75472287D01*
X193623256Y-75483037D01*
X193579491Y-75489529D01*
X193535300Y-75491700D01*
X192633600Y-75491700D01*
X192589409Y-75489529D01*
X192545644Y-75483037D01*
X192502725Y-75472287D01*
X192461067Y-75457381D01*
X192421071Y-75438464D01*
X192383121Y-75415718D01*
X192347584Y-75389362D01*
X192314801Y-75359649D01*
X192285088Y-75326866D01*
X192258732Y-75291329D01*
X192235986Y-75253379D01*
X192217069Y-75213383D01*
X192202163Y-75171725D01*
X192191413Y-75128806D01*
X192184921Y-75085041D01*
X192182750Y-75040850D01*
X192182750Y-74139150D01*
X192184921Y-74094959D01*
X192191413Y-74051194D01*
X192202163Y-74008275D01*
X192217069Y-73966617D01*
X192235986Y-73926621D01*
X192258732Y-73888671D01*
X192285088Y-73853134D01*
X192314801Y-73820351D01*
X192347584Y-73790638D01*
X192383121Y-73764282D01*
X192421071Y-73741536D01*
X192461067Y-73722619D01*
X192502725Y-73707713D01*
X192545644Y-73696963D01*
X192589409Y-73690471D01*
X192633600Y-73688300D01*
X193535300Y-73688300D01*
X193579491Y-73690471D01*
X193579491Y-73690471D01*
G37*
D23*
X193084450Y-74590000D03*
X192678050Y-77130000D03*
X193084450Y-79670000D03*
X192678050Y-82210000D03*
X193084450Y-84750000D03*
X192678050Y-87290000D03*
D16*
X117799643Y-100012500D03*
X117799643Y-98615500D03*
X117799643Y-97218500D03*
X117799643Y-101409500D03*
X117799643Y-102806500D03*
D26*
X150481250Y-47712500D03*
X159081250Y-47712500D03*
D24*
X159081250Y-43512500D03*
D25*
X157671250Y-47161500D03*
X151891250Y-47161500D03*
D24*
X150481250Y-43512500D03*
D12*
X126206250Y-52387500D03*
D13*
X131286250Y-52387500D03*
X121126250Y-52387500D03*
D14*
X123666250Y-57467500D03*
X130016250Y-54927500D03*
D12*
X145256250Y-52387500D03*
D13*
X150336250Y-52387500D03*
X140176250Y-52387500D03*
D14*
X142716250Y-57467500D03*
X149066250Y-54927500D03*
D12*
X164306250Y-52387500D03*
D13*
X169386250Y-52387500D03*
X159226250Y-52387500D03*
D14*
X161766250Y-57467500D03*
X168116250Y-54927500D03*
X187166250Y-54927500D03*
X180816250Y-57467500D03*
D13*
X178276250Y-52387500D03*
X188436250Y-52387500D03*
D12*
X183356250Y-52387500D03*
X202406250Y-52387500D03*
D13*
X207486250Y-52387500D03*
X197326250Y-52387500D03*
D14*
X199866250Y-57467500D03*
X206216250Y-54927500D03*
D12*
X221456250Y-52387500D03*
D13*
X226536250Y-52387500D03*
X216376250Y-52387500D03*
D14*
X218916250Y-57467500D03*
X225266250Y-54927500D03*
D12*
X269081250Y-52387500D03*
D13*
X274161250Y-52387500D03*
X264001250Y-52387500D03*
D14*
X266541250Y-57467500D03*
X272891250Y-54927500D03*
D12*
X288131250Y-52387500D03*
D13*
X293211250Y-52387500D03*
X283051250Y-52387500D03*
D14*
X285591250Y-57467500D03*
X291941250Y-54927500D03*
D12*
X307181250Y-52387500D03*
D13*
X312261250Y-52387500D03*
X302101250Y-52387500D03*
D14*
X304641250Y-57467500D03*
X310991250Y-54927500D03*
D12*
X326231250Y-52387500D03*
D13*
X331311250Y-52387500D03*
X321151250Y-52387500D03*
D14*
X323691250Y-57467500D03*
X330041250Y-54927500D03*
D12*
X345281250Y-52387500D03*
D13*
X350361250Y-52387500D03*
X340201250Y-52387500D03*
D14*
X342741250Y-57467500D03*
X349091250Y-54927500D03*
D12*
X364331250Y-52387500D03*
D13*
X369411250Y-52387500D03*
X359251250Y-52387500D03*
D14*
X361791250Y-57467500D03*
X368141250Y-54927500D03*
D12*
X126206250Y-71437500D03*
D13*
X131286250Y-71437500D03*
X121126250Y-71437500D03*
D14*
X123666250Y-76517500D03*
X130016250Y-73977500D03*
D12*
X145256250Y-71437500D03*
D13*
X150336250Y-71437500D03*
X140176250Y-71437500D03*
D14*
X142716250Y-76517500D03*
X149066250Y-73977500D03*
D12*
X164306250Y-71437500D03*
D13*
X169386250Y-71437500D03*
X159226250Y-71437500D03*
D14*
X161766250Y-76517500D03*
X168116250Y-73977500D03*
D12*
X183356250Y-71437500D03*
D13*
X188436250Y-71437500D03*
X178276250Y-71437500D03*
D14*
X180816250Y-76517500D03*
X187166250Y-73977500D03*
D12*
X202406250Y-71437500D03*
D13*
X207486250Y-71437500D03*
X197326250Y-71437500D03*
D14*
X199866250Y-76517500D03*
X206216250Y-73977500D03*
D12*
X269081250Y-71437500D03*
D13*
X274161250Y-71437500D03*
X264001250Y-71437500D03*
D14*
X266541250Y-76517500D03*
X272891250Y-73977500D03*
D12*
X288131250Y-71437500D03*
D13*
X293211250Y-71437500D03*
X283051250Y-71437500D03*
D14*
X285591250Y-76517500D03*
X291941250Y-73977500D03*
D12*
X307181250Y-71437500D03*
D13*
X312261250Y-71437500D03*
X302101250Y-71437500D03*
D14*
X304641250Y-76517500D03*
X310991250Y-73977500D03*
D12*
X326231250Y-71437500D03*
D13*
X331311250Y-71437500D03*
X321151250Y-71437500D03*
D14*
X323691250Y-76517500D03*
X330041250Y-73977500D03*
D12*
X345281250Y-71437500D03*
D13*
X350361250Y-71437500D03*
X340201250Y-71437500D03*
D14*
X342741250Y-76517500D03*
X349091250Y-73977500D03*
D12*
X364331250Y-71437500D03*
D13*
X369411250Y-71437500D03*
X359251250Y-71437500D03*
D14*
X361791250Y-76517500D03*
X368141250Y-73977500D03*
D12*
X126206250Y-90500200D03*
D13*
X131286250Y-90500200D03*
X121126250Y-90500200D03*
D14*
X123666250Y-95580200D03*
X130016250Y-93040200D03*
D12*
X145256250Y-90487500D03*
D13*
X150336250Y-90487500D03*
X140176250Y-90487500D03*
D14*
X142716250Y-95567500D03*
X149066250Y-93027500D03*
D12*
X164306250Y-90487500D03*
D13*
X169386250Y-90487500D03*
X159226250Y-90487500D03*
D14*
X161766250Y-95567500D03*
X168116250Y-93027500D03*
D12*
X202406250Y-90487500D03*
D13*
X207486250Y-90487500D03*
X197326250Y-90487500D03*
D14*
X199866250Y-95567500D03*
X206216250Y-93027500D03*
D12*
X221456250Y-90487500D03*
D13*
X226536250Y-90487500D03*
X216376250Y-90487500D03*
D14*
X218916250Y-95567500D03*
X225266250Y-93027500D03*
D12*
X307181250Y-90487500D03*
D13*
X312261250Y-90487500D03*
X302101250Y-90487500D03*
D14*
X304641250Y-95567500D03*
X310991250Y-93027500D03*
D12*
X326231250Y-90487500D03*
D13*
X331311250Y-90487500D03*
X321151250Y-90487500D03*
D14*
X323691250Y-95567500D03*
X330041250Y-93027500D03*
D12*
X345281250Y-90487500D03*
D13*
X350361250Y-90487500D03*
X340201250Y-90487500D03*
D14*
X342741250Y-95567500D03*
X349091250Y-93027500D03*
D12*
X126206250Y-109537500D03*
D13*
X131286250Y-109537500D03*
X121126250Y-109537500D03*
D14*
X123666250Y-114617500D03*
X130016250Y-112077500D03*
D12*
X145256250Y-109537500D03*
D13*
X150336250Y-109537500D03*
X140176250Y-109537500D03*
D14*
X142716250Y-114617500D03*
X149066250Y-112077500D03*
D12*
X164306250Y-109537500D03*
D13*
X169386250Y-109537500D03*
X159226250Y-109537500D03*
D14*
X161766250Y-114617500D03*
X168116250Y-112077500D03*
D12*
X183356250Y-109537500D03*
D13*
X188436250Y-109537500D03*
X178276250Y-109537500D03*
D14*
X180816250Y-114617500D03*
X187166250Y-112077500D03*
D12*
X210315928Y-111924443D03*
D13*
X215222832Y-113239244D03*
X205409025Y-110609643D03*
D14*
X206547676Y-116173946D03*
X213338706Y-115363995D03*
X232982460Y-120784253D03*
X226213198Y-119808958D03*
D13*
X226553494Y-114139549D03*
X235352312Y-119219549D03*
D12*
X230952903Y-116679549D03*
X280172502Y-111937591D03*
D13*
X285079406Y-110622791D03*
X275265599Y-113252392D03*
D14*
X279033852Y-117501895D03*
X284510080Y-113404942D03*
D12*
X307181250Y-109537500D03*
D13*
X312261250Y-109537500D03*
X302101250Y-109537500D03*
D14*
X304641250Y-114617500D03*
X310991250Y-112077500D03*
D12*
X345281250Y-109537500D03*
D13*
X350361250Y-109537500D03*
X340201250Y-109537500D03*
D14*
X342741250Y-114617500D03*
X349091250Y-112077500D03*
D12*
X259540603Y-116522500D03*
D13*
X263940012Y-113982500D03*
X255141194Y-119062500D03*
D14*
X259880898Y-122191909D03*
X264110160Y-116817204D03*
D12*
X364331250Y-90500200D03*
D13*
X369411250Y-90500200D03*
X359251250Y-90500200D03*
D14*
X361791250Y-95580200D03*
X368141250Y-93040200D03*
D12*
X364331250Y-109537500D03*
D13*
X369411250Y-109537500D03*
X359251250Y-109537500D03*
D14*
X361791250Y-114617500D03*
X368141250Y-112077500D03*
D15*
X135731250Y-61912500D03*
X211931250Y-61940000D03*
X135731250Y-100012500D03*
X278606250Y-61912500D03*
X268684375Y-105171875D03*
X354806250Y-100012500D03*
X110331250Y-61912500D03*
M02*
