G04 #@! TF.GenerationSoftware,KiCad,Pcbnew,(5.1.4-0)*
G04 #@! TF.CreationDate,2021-11-04T11:37:07-05:00*
G04 #@! TF.ProjectId,top_plate,746f705f-706c-4617-9465-2e6b69636164,rev?*
G04 #@! TF.SameCoordinates,Original*
G04 #@! TF.FileFunction,Soldermask,Top*
G04 #@! TF.FilePolarity,Negative*
%FSLAX46Y46*%
G04 Gerber Fmt 4.6, Leading zero omitted, Abs format (unit mm)*
G04 Created by KiCad (PCBNEW (5.1.4-0)) date 2021-11-04 11:37:07*
%MOMM*%
%LPD*%
G04 APERTURE LIST*
%ADD10C,2.000000*%
%ADD11C,3.500000*%
G04 APERTURE END LIST*
D10*
X212867248Y-180945911D02*
X223259552Y-174945911D01*
X205001222Y-169321555D02*
G75*
G02X205367248Y-167955529I866026J500000D01*
G01*
X205367248Y-167955529D02*
X215759552Y-161955529D01*
X217125578Y-162321555D02*
X223625578Y-173579885D01*
X211501222Y-180579885D02*
X205001222Y-169321555D01*
X215759552Y-161955529D02*
G75*
G02X217125578Y-162321555I500000J-866026D01*
G01*
X212867248Y-180945911D02*
G75*
G02X211501222Y-180579885I-500000J866026D01*
G01*
X223625578Y-173579885D02*
G75*
G02X223259552Y-174945911I-866026J-500000D01*
G01*
X172029608Y-174945911D02*
X182421912Y-180945911D01*
X178163582Y-162321555D02*
G75*
G02X179529608Y-161955529I866026J-500000D01*
G01*
X179529608Y-161955529D02*
X189921912Y-167955529D01*
X190287938Y-169321555D02*
X183787938Y-180579885D01*
X171663582Y-173579885D02*
X178163582Y-162321555D01*
X189921912Y-167955529D02*
G75*
G02X190287938Y-169321555I-500000J-866026D01*
G01*
X172029608Y-174945911D02*
G75*
G02X171663582Y-173579885I500000J866026D01*
G01*
X183787938Y-180579885D02*
G75*
G02X182421912Y-180945911I-866026J500000D01*
G01*
X313970100Y-84487880D02*
X313970100Y-96487880D01*
X327970100Y-83487880D02*
G75*
G02X328970100Y-84487880I0J-1000000D01*
G01*
X328970100Y-84487880D02*
X328970100Y-96487880D01*
X327970100Y-97487880D02*
X314970100Y-97487880D01*
X314970100Y-83487880D02*
X327970100Y-83487880D01*
X328970100Y-96487880D02*
G75*
G02X327970100Y-97487880I-1000000J0D01*
G01*
X313970100Y-84487880D02*
G75*
G02X314970100Y-83487880I1000000J0D01*
G01*
X314970100Y-97487880D02*
G75*
G02X313970100Y-96487880I0J1000000D01*
G01*
X294920020Y-84487880D02*
X294920020Y-96487880D01*
X308920020Y-83487880D02*
G75*
G02X309920020Y-84487880I0J-1000000D01*
G01*
X309920020Y-84487880D02*
X309920020Y-96487880D01*
X308920020Y-97487880D02*
X295920020Y-97487880D01*
X295920020Y-83487880D02*
X308920020Y-83487880D01*
X309920020Y-96487880D02*
G75*
G02X308920020Y-97487880I-1000000J0D01*
G01*
X294920020Y-84487880D02*
G75*
G02X295920020Y-83487880I1000000J0D01*
G01*
X295920020Y-97487880D02*
G75*
G02X294920020Y-96487880I0J1000000D01*
G01*
X275869940Y-80915990D02*
X275869940Y-92915990D01*
X289869940Y-79915990D02*
G75*
G02X290869940Y-80915990I0J-1000000D01*
G01*
X290869940Y-80915990D02*
X290869940Y-92915990D01*
X289869940Y-93915990D02*
X276869940Y-93915990D01*
X276869940Y-79915990D02*
X289869940Y-79915990D01*
X290869940Y-92915990D02*
G75*
G02X289869940Y-93915990I-1000000J0D01*
G01*
X275869940Y-80915990D02*
G75*
G02X276869940Y-79915990I1000000J0D01*
G01*
X276869940Y-93915990D02*
G75*
G02X275869940Y-92915990I0J1000000D01*
G01*
X256819860Y-78534730D02*
X256819860Y-90534730D01*
X270819860Y-77534730D02*
G75*
G02X271819860Y-78534730I0J-1000000D01*
G01*
X271819860Y-78534730D02*
X271819860Y-90534730D01*
X270819860Y-91534730D02*
X257819860Y-91534730D01*
X257819860Y-77534730D02*
X270819860Y-77534730D01*
X271819860Y-90534730D02*
G75*
G02X270819860Y-91534730I-1000000J0D01*
G01*
X256819860Y-78534730D02*
G75*
G02X257819860Y-77534730I1000000J0D01*
G01*
X257819860Y-91534730D02*
G75*
G02X256819860Y-90534730I0J1000000D01*
G01*
X237769780Y-80915990D02*
X237769780Y-92915990D01*
X251769780Y-79915990D02*
G75*
G02X252769780Y-80915990I0J-1000000D01*
G01*
X252769780Y-80915990D02*
X252769780Y-92915990D01*
X251769780Y-93915990D02*
X238769780Y-93915990D01*
X238769780Y-79915990D02*
X251769780Y-79915990D01*
X252769780Y-92915990D02*
G75*
G02X251769780Y-93915990I-1000000J0D01*
G01*
X237769780Y-80915990D02*
G75*
G02X238769780Y-79915990I1000000J0D01*
G01*
X238769780Y-93915990D02*
G75*
G02X237769780Y-92915990I0J1000000D01*
G01*
X218719700Y-83297250D02*
X218719700Y-95297250D01*
X232719700Y-82297250D02*
G75*
G02X233719700Y-83297250I0J-1000000D01*
G01*
X233719700Y-83297250D02*
X233719700Y-95297250D01*
X232719700Y-96297250D02*
X219719700Y-96297250D01*
X219719700Y-82297250D02*
X232719700Y-82297250D01*
X233719700Y-95297250D02*
G75*
G02X232719700Y-96297250I-1000000J0D01*
G01*
X218719700Y-83297250D02*
G75*
G02X219719700Y-82297250I1000000J0D01*
G01*
X219719700Y-96297250D02*
G75*
G02X218719700Y-95297250I0J1000000D01*
G01*
X161569460Y-83297250D02*
X161569460Y-95297250D01*
X175569460Y-82297250D02*
G75*
G02X176569460Y-83297250I0J-1000000D01*
G01*
X176569460Y-83297250D02*
X176569460Y-95297250D01*
X175569460Y-96297250D02*
X162569460Y-96297250D01*
X162569460Y-82297250D02*
X175569460Y-82297250D01*
X176569460Y-95297250D02*
G75*
G02X175569460Y-96297250I-1000000J0D01*
G01*
X161569460Y-83297250D02*
G75*
G02X162569460Y-82297250I1000000J0D01*
G01*
X162569460Y-96297250D02*
G75*
G02X161569460Y-95297250I0J1000000D01*
G01*
X142519380Y-80915990D02*
X142519380Y-92915990D01*
X156519380Y-79915990D02*
G75*
G02X157519380Y-80915990I0J-1000000D01*
G01*
X157519380Y-80915990D02*
X157519380Y-92915990D01*
X156519380Y-93915990D02*
X143519380Y-93915990D01*
X143519380Y-79915990D02*
X156519380Y-79915990D01*
X157519380Y-92915990D02*
G75*
G02X156519380Y-93915990I-1000000J0D01*
G01*
X142519380Y-80915990D02*
G75*
G02X143519380Y-79915990I1000000J0D01*
G01*
X143519380Y-93915990D02*
G75*
G02X142519380Y-92915990I0J1000000D01*
G01*
X123469300Y-78534730D02*
X123469300Y-90534730D01*
X137469300Y-77534730D02*
G75*
G02X138469300Y-78534730I0J-1000000D01*
G01*
X138469300Y-78534730D02*
X138469300Y-90534730D01*
X137469300Y-91534730D02*
X124469300Y-91534730D01*
X124469300Y-77534730D02*
X137469300Y-77534730D01*
X138469300Y-90534730D02*
G75*
G02X137469300Y-91534730I-1000000J0D01*
G01*
X123469300Y-78534730D02*
G75*
G02X124469300Y-77534730I1000000J0D01*
G01*
X124469300Y-91534730D02*
G75*
G02X123469300Y-90534730I0J1000000D01*
G01*
X104419220Y-80915990D02*
X104419220Y-92915990D01*
X118419220Y-79915990D02*
G75*
G02X119419220Y-80915990I0J-1000000D01*
G01*
X119419220Y-80915990D02*
X119419220Y-92915990D01*
X118419220Y-93915990D02*
X105419220Y-93915990D01*
X105419220Y-79915990D02*
X118419220Y-79915990D01*
X119419220Y-92915990D02*
G75*
G02X118419220Y-93915990I-1000000J0D01*
G01*
X104419220Y-80915990D02*
G75*
G02X105419220Y-79915990I1000000J0D01*
G01*
X105419220Y-93915990D02*
G75*
G02X104419220Y-92915990I0J1000000D01*
G01*
X85369140Y-84487880D02*
X85369140Y-96487880D01*
X99369140Y-83487880D02*
G75*
G02X100369140Y-84487880I0J-1000000D01*
G01*
X100369140Y-84487880D02*
X100369140Y-96487880D01*
X99369140Y-97487880D02*
X86369140Y-97487880D01*
X86369140Y-83487880D02*
X99369140Y-83487880D01*
X100369140Y-96487880D02*
G75*
G02X99369140Y-97487880I-1000000J0D01*
G01*
X85369140Y-84487880D02*
G75*
G02X86369140Y-83487880I1000000J0D01*
G01*
X86369140Y-97487880D02*
G75*
G02X85369140Y-96487880I0J1000000D01*
G01*
X66319060Y-84487880D02*
X66319060Y-96487880D01*
X80319060Y-83487880D02*
G75*
G02X81319060Y-84487880I0J-1000000D01*
G01*
X81319060Y-84487880D02*
X81319060Y-96487880D01*
X80319060Y-97487880D02*
X67319060Y-97487880D01*
X67319060Y-83487880D02*
X80319060Y-83487880D01*
X81319060Y-96487880D02*
G75*
G02X80319060Y-97487880I-1000000J0D01*
G01*
X66319060Y-84487880D02*
G75*
G02X67319060Y-83487880I1000000J0D01*
G01*
X67319060Y-97487880D02*
G75*
G02X66319060Y-96487880I0J1000000D01*
G01*
X275869940Y-157116310D02*
X275869940Y-169116310D01*
X289869940Y-156116310D02*
G75*
G02X290869940Y-157116310I0J-1000000D01*
G01*
X290869940Y-157116310D02*
X290869940Y-169116310D01*
X289869940Y-170116310D02*
X276869940Y-170116310D01*
X276869940Y-156116310D02*
X289869940Y-156116310D01*
X290869940Y-169116310D02*
G75*
G02X289869940Y-170116310I-1000000J0D01*
G01*
X275869940Y-157116310D02*
G75*
G02X276869940Y-156116310I1000000J0D01*
G01*
X276869940Y-170116310D02*
G75*
G02X275869940Y-169116310I0J1000000D01*
G01*
X256819860Y-154735050D02*
X256819860Y-166735050D01*
X270819860Y-153735050D02*
G75*
G02X271819860Y-154735050I0J-1000000D01*
G01*
X271819860Y-154735050D02*
X271819860Y-166735050D01*
X270819860Y-167735050D02*
X257819860Y-167735050D01*
X257819860Y-153735050D02*
X270819860Y-153735050D01*
X271819860Y-166735050D02*
G75*
G02X270819860Y-167735050I-1000000J0D01*
G01*
X256819860Y-154735050D02*
G75*
G02X257819860Y-153735050I1000000J0D01*
G01*
X257819860Y-167735050D02*
G75*
G02X256819860Y-166735050I0J1000000D01*
G01*
X246923358Y-170542612D02*
X243817529Y-158951502D01*
X233659215Y-175132004D02*
G75*
G02X232434471Y-174424898I-258819J965925D01*
G01*
X232434471Y-174424898D02*
X229328642Y-162833788D01*
X230035749Y-161609043D02*
X242592785Y-158244395D01*
X246216251Y-171767357D02*
X233659215Y-175132005D01*
X229328642Y-162833788D02*
G75*
G02X230035749Y-161609043I965926J258819D01*
G01*
X246923358Y-170542612D02*
G75*
G02X246216251Y-171767357I-965926J-258819D01*
G01*
X242592785Y-158244396D02*
G75*
G02X243817529Y-158951502I258819J-965925D01*
G01*
X162854689Y-174424898D02*
X165960518Y-162833788D01*
X149072909Y-171767357D02*
G75*
G02X148365802Y-170542612I258819J965926D01*
G01*
X148365802Y-170542612D02*
X151471631Y-158951502D01*
X152696375Y-158244395D02*
X165253411Y-161609043D01*
X161629945Y-175132005D02*
X149072909Y-171767357D01*
X151471630Y-158951502D02*
G75*
G02X152696375Y-158244395I965926J-258819D01*
G01*
X162854690Y-174424898D02*
G75*
G02X161629945Y-175132005I-965926J258819D01*
G01*
X165253411Y-161609043D02*
G75*
G02X165960518Y-162833788I-258819J-965926D01*
G01*
X123469300Y-154735050D02*
X123469300Y-166735050D01*
X137469300Y-153735050D02*
G75*
G02X138469300Y-154735050I0J-1000000D01*
G01*
X138469300Y-154735050D02*
X138469300Y-166735050D01*
X137469300Y-167735050D02*
X124469300Y-167735050D01*
X124469300Y-153735050D02*
X137469300Y-153735050D01*
X138469300Y-166735050D02*
G75*
G02X137469300Y-167735050I-1000000J0D01*
G01*
X123469300Y-154735050D02*
G75*
G02X124469300Y-153735050I1000000J0D01*
G01*
X124469300Y-167735050D02*
G75*
G02X123469300Y-166735050I0J1000000D01*
G01*
X104419220Y-157116310D02*
X104419220Y-169116310D01*
X118419220Y-156116310D02*
G75*
G02X119419220Y-157116310I0J-1000000D01*
G01*
X119419220Y-157116310D02*
X119419220Y-169116310D01*
X118419220Y-170116310D02*
X105419220Y-170116310D01*
X105419220Y-156116310D02*
X118419220Y-156116310D01*
X119419220Y-169116310D02*
G75*
G02X118419220Y-170116310I-1000000J0D01*
G01*
X104419220Y-157116310D02*
G75*
G02X105419220Y-156116310I1000000J0D01*
G01*
X105419220Y-170116310D02*
G75*
G02X104419220Y-169116310I0J1000000D01*
G01*
X313970100Y-141638120D02*
X313970100Y-153638120D01*
X327970100Y-140638120D02*
G75*
G02X328970100Y-141638120I0J-1000000D01*
G01*
X328970100Y-141638120D02*
X328970100Y-153638120D01*
X327970100Y-154638120D02*
X314970100Y-154638120D01*
X314970100Y-140638120D02*
X327970100Y-140638120D01*
X328970100Y-153638120D02*
G75*
G02X327970100Y-154638120I-1000000J0D01*
G01*
X313970100Y-141638120D02*
G75*
G02X314970100Y-140638120I1000000J0D01*
G01*
X314970100Y-154638120D02*
G75*
G02X313970100Y-153638120I0J1000000D01*
G01*
X294920020Y-141638120D02*
X294920020Y-153638120D01*
X308920020Y-140638120D02*
G75*
G02X309920020Y-141638120I0J-1000000D01*
G01*
X309920020Y-141638120D02*
X309920020Y-153638120D01*
X308920020Y-154638120D02*
X295920020Y-154638120D01*
X295920020Y-140638120D02*
X308920020Y-140638120D01*
X309920020Y-153638120D02*
G75*
G02X308920020Y-154638120I-1000000J0D01*
G01*
X294920020Y-141638120D02*
G75*
G02X295920020Y-140638120I1000000J0D01*
G01*
X295920020Y-154638120D02*
G75*
G02X294920020Y-153638120I0J1000000D01*
G01*
X275869940Y-138066230D02*
X275869940Y-150066230D01*
X289869940Y-137066230D02*
G75*
G02X290869940Y-138066230I0J-1000000D01*
G01*
X290869940Y-138066230D02*
X290869940Y-150066230D01*
X289869940Y-151066230D02*
X276869940Y-151066230D01*
X276869940Y-137066230D02*
X289869940Y-137066230D01*
X290869940Y-150066230D02*
G75*
G02X289869940Y-151066230I-1000000J0D01*
G01*
X275869940Y-138066230D02*
G75*
G02X276869940Y-137066230I1000000J0D01*
G01*
X276869940Y-151066230D02*
G75*
G02X275869940Y-150066230I0J1000000D01*
G01*
X256819860Y-135684970D02*
X256819860Y-147684970D01*
X270819860Y-134684970D02*
G75*
G02X271819860Y-135684970I0J-1000000D01*
G01*
X271819860Y-135684970D02*
X271819860Y-147684970D01*
X270819860Y-148684970D02*
X257819860Y-148684970D01*
X257819860Y-134684970D02*
X270819860Y-134684970D01*
X271819860Y-147684970D02*
G75*
G02X270819860Y-148684970I-1000000J0D01*
G01*
X256819860Y-135684970D02*
G75*
G02X257819860Y-134684970I1000000J0D01*
G01*
X257819860Y-148684970D02*
G75*
G02X256819860Y-147684970I0J1000000D01*
G01*
X237769780Y-138066230D02*
X237769780Y-150066230D01*
X251769780Y-137066230D02*
G75*
G02X252769780Y-138066230I0J-1000000D01*
G01*
X252769780Y-138066230D02*
X252769780Y-150066230D01*
X251769780Y-151066230D02*
X238769780Y-151066230D01*
X238769780Y-137066230D02*
X251769780Y-137066230D01*
X252769780Y-150066230D02*
G75*
G02X251769780Y-151066230I-1000000J0D01*
G01*
X237769780Y-138066230D02*
G75*
G02X238769780Y-137066230I1000000J0D01*
G01*
X238769780Y-151066230D02*
G75*
G02X237769780Y-150066230I0J1000000D01*
G01*
X218719700Y-140447490D02*
X218719700Y-152447490D01*
X232719700Y-139447490D02*
G75*
G02X233719700Y-140447490I0J-1000000D01*
G01*
X233719700Y-140447490D02*
X233719700Y-152447490D01*
X232719700Y-153447490D02*
X219719700Y-153447490D01*
X219719700Y-139447490D02*
X232719700Y-139447490D01*
X233719700Y-152447490D02*
G75*
G02X232719700Y-153447490I-1000000J0D01*
G01*
X218719700Y-140447490D02*
G75*
G02X219719700Y-139447490I1000000J0D01*
G01*
X219719700Y-153447490D02*
G75*
G02X218719700Y-152447490I0J1000000D01*
G01*
X161569460Y-140447490D02*
X161569460Y-152447490D01*
X175569460Y-139447490D02*
G75*
G02X176569460Y-140447490I0J-1000000D01*
G01*
X176569460Y-140447490D02*
X176569460Y-152447490D01*
X175569460Y-153447490D02*
X162569460Y-153447490D01*
X162569460Y-139447490D02*
X175569460Y-139447490D01*
X176569460Y-152447490D02*
G75*
G02X175569460Y-153447490I-1000000J0D01*
G01*
X161569460Y-140447490D02*
G75*
G02X162569460Y-139447490I1000000J0D01*
G01*
X162569460Y-153447490D02*
G75*
G02X161569460Y-152447490I0J1000000D01*
G01*
X142519380Y-138066230D02*
X142519380Y-150066230D01*
X156519380Y-137066230D02*
G75*
G02X157519380Y-138066230I0J-1000000D01*
G01*
X157519380Y-138066230D02*
X157519380Y-150066230D01*
X156519380Y-151066230D02*
X143519380Y-151066230D01*
X143519380Y-137066230D02*
X156519380Y-137066230D01*
X157519380Y-150066230D02*
G75*
G02X156519380Y-151066230I-1000000J0D01*
G01*
X142519380Y-138066230D02*
G75*
G02X143519380Y-137066230I1000000J0D01*
G01*
X143519380Y-151066230D02*
G75*
G02X142519380Y-150066230I0J1000000D01*
G01*
X123469300Y-135684970D02*
X123469300Y-147684970D01*
X137469300Y-134684970D02*
G75*
G02X138469300Y-135684970I0J-1000000D01*
G01*
X138469300Y-135684970D02*
X138469300Y-147684970D01*
X137469300Y-148684970D02*
X124469300Y-148684970D01*
X124469300Y-134684970D02*
X137469300Y-134684970D01*
X138469300Y-147684970D02*
G75*
G02X137469300Y-148684970I-1000000J0D01*
G01*
X123469300Y-135684970D02*
G75*
G02X124469300Y-134684970I1000000J0D01*
G01*
X124469300Y-148684970D02*
G75*
G02X123469300Y-147684970I0J1000000D01*
G01*
X104419220Y-138066230D02*
X104419220Y-150066230D01*
X118419220Y-137066230D02*
G75*
G02X119419220Y-138066230I0J-1000000D01*
G01*
X119419220Y-138066230D02*
X119419220Y-150066230D01*
X118419220Y-151066230D02*
X105419220Y-151066230D01*
X105419220Y-137066230D02*
X118419220Y-137066230D01*
X119419220Y-150066230D02*
G75*
G02X118419220Y-151066230I-1000000J0D01*
G01*
X104419220Y-138066230D02*
G75*
G02X105419220Y-137066230I1000000J0D01*
G01*
X105419220Y-151066230D02*
G75*
G02X104419220Y-150066230I0J1000000D01*
G01*
X85369140Y-141638120D02*
X85369140Y-153638120D01*
X99369140Y-140638120D02*
G75*
G02X100369140Y-141638120I0J-1000000D01*
G01*
X100369140Y-141638120D02*
X100369140Y-153638120D01*
X99369140Y-154638120D02*
X86369140Y-154638120D01*
X86369140Y-140638120D02*
X99369140Y-140638120D01*
X100369140Y-153638120D02*
G75*
G02X99369140Y-154638120I-1000000J0D01*
G01*
X85369140Y-141638120D02*
G75*
G02X86369140Y-140638120I1000000J0D01*
G01*
X86369140Y-154638120D02*
G75*
G02X85369140Y-153638120I0J1000000D01*
G01*
X66319060Y-141638120D02*
X66319060Y-153638120D01*
X80319060Y-140638120D02*
G75*
G02X81319060Y-141638120I0J-1000000D01*
G01*
X81319060Y-141638120D02*
X81319060Y-153638120D01*
X80319060Y-154638120D02*
X67319060Y-154638120D01*
X67319060Y-140638120D02*
X80319060Y-140638120D01*
X81319060Y-153638120D02*
G75*
G02X80319060Y-154638120I-1000000J0D01*
G01*
X66319060Y-141638120D02*
G75*
G02X67319060Y-140638120I1000000J0D01*
G01*
X67319060Y-154638120D02*
G75*
G02X66319060Y-153638120I0J1000000D01*
G01*
X313970100Y-122588040D02*
X313970100Y-134588040D01*
X327970100Y-121588040D02*
G75*
G02X328970100Y-122588040I0J-1000000D01*
G01*
X328970100Y-122588040D02*
X328970100Y-134588040D01*
X327970100Y-135588040D02*
X314970100Y-135588040D01*
X314970100Y-121588040D02*
X327970100Y-121588040D01*
X328970100Y-134588040D02*
G75*
G02X327970100Y-135588040I-1000000J0D01*
G01*
X313970100Y-122588040D02*
G75*
G02X314970100Y-121588040I1000000J0D01*
G01*
X314970100Y-135588040D02*
G75*
G02X313970100Y-134588040I0J1000000D01*
G01*
X294920020Y-122588040D02*
X294920020Y-134588040D01*
X308920020Y-121588040D02*
G75*
G02X309920020Y-122588040I0J-1000000D01*
G01*
X309920020Y-122588040D02*
X309920020Y-134588040D01*
X308920020Y-135588040D02*
X295920020Y-135588040D01*
X295920020Y-121588040D02*
X308920020Y-121588040D01*
X309920020Y-134588040D02*
G75*
G02X308920020Y-135588040I-1000000J0D01*
G01*
X294920020Y-122588040D02*
G75*
G02X295920020Y-121588040I1000000J0D01*
G01*
X295920020Y-135588040D02*
G75*
G02X294920020Y-134588040I0J1000000D01*
G01*
X275869940Y-119016150D02*
X275869940Y-131016150D01*
X289869940Y-118016150D02*
G75*
G02X290869940Y-119016150I0J-1000000D01*
G01*
X290869940Y-119016150D02*
X290869940Y-131016150D01*
X289869940Y-132016150D02*
X276869940Y-132016150D01*
X276869940Y-118016150D02*
X289869940Y-118016150D01*
X290869940Y-131016150D02*
G75*
G02X289869940Y-132016150I-1000000J0D01*
G01*
X275869940Y-119016150D02*
G75*
G02X276869940Y-118016150I1000000J0D01*
G01*
X276869940Y-132016150D02*
G75*
G02X275869940Y-131016150I0J1000000D01*
G01*
X256819860Y-116634890D02*
X256819860Y-128634890D01*
X270819860Y-115634890D02*
G75*
G02X271819860Y-116634890I0J-1000000D01*
G01*
X271819860Y-116634890D02*
X271819860Y-128634890D01*
X270819860Y-129634890D02*
X257819860Y-129634890D01*
X257819860Y-115634890D02*
X270819860Y-115634890D01*
X271819860Y-128634890D02*
G75*
G02X270819860Y-129634890I-1000000J0D01*
G01*
X256819860Y-116634890D02*
G75*
G02X257819860Y-115634890I1000000J0D01*
G01*
X257819860Y-129634890D02*
G75*
G02X256819860Y-128634890I0J1000000D01*
G01*
X237769780Y-119016150D02*
X237769780Y-131016150D01*
X251769780Y-118016150D02*
G75*
G02X252769780Y-119016150I0J-1000000D01*
G01*
X252769780Y-119016150D02*
X252769780Y-131016150D01*
X251769780Y-132016150D02*
X238769780Y-132016150D01*
X238769780Y-118016150D02*
X251769780Y-118016150D01*
X252769780Y-131016150D02*
G75*
G02X251769780Y-132016150I-1000000J0D01*
G01*
X237769780Y-119016150D02*
G75*
G02X238769780Y-118016150I1000000J0D01*
G01*
X238769780Y-132016150D02*
G75*
G02X237769780Y-131016150I0J1000000D01*
G01*
X218719700Y-121397410D02*
X218719700Y-133397410D01*
X232719700Y-120397410D02*
G75*
G02X233719700Y-121397410I0J-1000000D01*
G01*
X233719700Y-121397410D02*
X233719700Y-133397410D01*
X232719700Y-134397410D02*
X219719700Y-134397410D01*
X219719700Y-120397410D02*
X232719700Y-120397410D01*
X233719700Y-133397410D02*
G75*
G02X232719700Y-134397410I-1000000J0D01*
G01*
X218719700Y-121397410D02*
G75*
G02X219719700Y-120397410I1000000J0D01*
G01*
X219719700Y-134397410D02*
G75*
G02X218719700Y-133397410I0J1000000D01*
G01*
X161569460Y-121397410D02*
X161569460Y-133397410D01*
X175569460Y-120397410D02*
G75*
G02X176569460Y-121397410I0J-1000000D01*
G01*
X176569460Y-121397410D02*
X176569460Y-133397410D01*
X175569460Y-134397410D02*
X162569460Y-134397410D01*
X162569460Y-120397410D02*
X175569460Y-120397410D01*
X176569460Y-133397410D02*
G75*
G02X175569460Y-134397410I-1000000J0D01*
G01*
X161569460Y-121397410D02*
G75*
G02X162569460Y-120397410I1000000J0D01*
G01*
X162569460Y-134397410D02*
G75*
G02X161569460Y-133397410I0J1000000D01*
G01*
X142519380Y-119016150D02*
X142519380Y-131016150D01*
X156519380Y-118016150D02*
G75*
G02X157519380Y-119016150I0J-1000000D01*
G01*
X157519380Y-119016150D02*
X157519380Y-131016150D01*
X156519380Y-132016150D02*
X143519380Y-132016150D01*
X143519380Y-118016150D02*
X156519380Y-118016150D01*
X157519380Y-131016150D02*
G75*
G02X156519380Y-132016150I-1000000J0D01*
G01*
X142519380Y-119016150D02*
G75*
G02X143519380Y-118016150I1000000J0D01*
G01*
X143519380Y-132016150D02*
G75*
G02X142519380Y-131016150I0J1000000D01*
G01*
X123469300Y-116634890D02*
X123469300Y-128634890D01*
X137469300Y-115634890D02*
G75*
G02X138469300Y-116634890I0J-1000000D01*
G01*
X138469300Y-116634890D02*
X138469300Y-128634890D01*
X137469300Y-129634890D02*
X124469300Y-129634890D01*
X124469300Y-115634890D02*
X137469300Y-115634890D01*
X138469300Y-128634890D02*
G75*
G02X137469300Y-129634890I-1000000J0D01*
G01*
X123469300Y-116634890D02*
G75*
G02X124469300Y-115634890I1000000J0D01*
G01*
X124469300Y-129634890D02*
G75*
G02X123469300Y-128634890I0J1000000D01*
G01*
X104419220Y-119016150D02*
X104419220Y-131016150D01*
X118419220Y-118016150D02*
G75*
G02X119419220Y-119016150I0J-1000000D01*
G01*
X119419220Y-119016150D02*
X119419220Y-131016150D01*
X118419220Y-132016150D02*
X105419220Y-132016150D01*
X105419220Y-118016150D02*
X118419220Y-118016150D01*
X119419220Y-131016150D02*
G75*
G02X118419220Y-132016150I-1000000J0D01*
G01*
X104419220Y-119016150D02*
G75*
G02X105419220Y-118016150I1000000J0D01*
G01*
X105419220Y-132016150D02*
G75*
G02X104419220Y-131016150I0J1000000D01*
G01*
X85369140Y-122588040D02*
X85369140Y-134588040D01*
X99369140Y-121588040D02*
G75*
G02X100369140Y-122588040I0J-1000000D01*
G01*
X100369140Y-122588040D02*
X100369140Y-134588040D01*
X99369140Y-135588040D02*
X86369140Y-135588040D01*
X86369140Y-121588040D02*
X99369140Y-121588040D01*
X100369140Y-134588040D02*
G75*
G02X99369140Y-135588040I-1000000J0D01*
G01*
X85369140Y-122588040D02*
G75*
G02X86369140Y-121588040I1000000J0D01*
G01*
X86369140Y-135588040D02*
G75*
G02X85369140Y-134588040I0J1000000D01*
G01*
X66319060Y-122588040D02*
X66319060Y-134588040D01*
X80319060Y-121588040D02*
G75*
G02X81319060Y-122588040I0J-1000000D01*
G01*
X81319060Y-122588040D02*
X81319060Y-134588040D01*
X80319060Y-135588040D02*
X67319060Y-135588040D01*
X67319060Y-121588040D02*
X80319060Y-121588040D01*
X81319060Y-134588040D02*
G75*
G02X80319060Y-135588040I-1000000J0D01*
G01*
X66319060Y-122588040D02*
G75*
G02X67319060Y-121588040I1000000J0D01*
G01*
X67319060Y-135588040D02*
G75*
G02X66319060Y-134588040I0J1000000D01*
G01*
X313970100Y-103537960D02*
X313970100Y-115537960D01*
X327970100Y-102537960D02*
G75*
G02X328970100Y-103537960I0J-1000000D01*
G01*
X328970100Y-103537960D02*
X328970100Y-115537960D01*
X327970100Y-116537960D02*
X314970100Y-116537960D01*
X314970100Y-102537960D02*
X327970100Y-102537960D01*
X328970100Y-115537960D02*
G75*
G02X327970100Y-116537960I-1000000J0D01*
G01*
X313970100Y-103537960D02*
G75*
G02X314970100Y-102537960I1000000J0D01*
G01*
X314970100Y-116537960D02*
G75*
G02X313970100Y-115537960I0J1000000D01*
G01*
X294920020Y-103537960D02*
X294920020Y-115537960D01*
X308920020Y-102537960D02*
G75*
G02X309920020Y-103537960I0J-1000000D01*
G01*
X309920020Y-103537960D02*
X309920020Y-115537960D01*
X308920020Y-116537960D02*
X295920020Y-116537960D01*
X295920020Y-102537960D02*
X308920020Y-102537960D01*
X309920020Y-115537960D02*
G75*
G02X308920020Y-116537960I-1000000J0D01*
G01*
X294920020Y-103537960D02*
G75*
G02X295920020Y-102537960I1000000J0D01*
G01*
X295920020Y-116537960D02*
G75*
G02X294920020Y-115537960I0J1000000D01*
G01*
X275869940Y-99966070D02*
X275869940Y-111966070D01*
X289869940Y-98966070D02*
G75*
G02X290869940Y-99966070I0J-1000000D01*
G01*
X290869940Y-99966070D02*
X290869940Y-111966070D01*
X289869940Y-112966070D02*
X276869940Y-112966070D01*
X276869940Y-98966070D02*
X289869940Y-98966070D01*
X290869940Y-111966070D02*
G75*
G02X289869940Y-112966070I-1000000J0D01*
G01*
X275869940Y-99966070D02*
G75*
G02X276869940Y-98966070I1000000J0D01*
G01*
X276869940Y-112966070D02*
G75*
G02X275869940Y-111966070I0J1000000D01*
G01*
X256819860Y-97584810D02*
X256819860Y-109584810D01*
X270819860Y-96584810D02*
G75*
G02X271819860Y-97584810I0J-1000000D01*
G01*
X271819860Y-97584810D02*
X271819860Y-109584810D01*
X270819860Y-110584810D02*
X257819860Y-110584810D01*
X257819860Y-96584810D02*
X270819860Y-96584810D01*
X271819860Y-109584810D02*
G75*
G02X270819860Y-110584810I-1000000J0D01*
G01*
X256819860Y-97584810D02*
G75*
G02X257819860Y-96584810I1000000J0D01*
G01*
X257819860Y-110584810D02*
G75*
G02X256819860Y-109584810I0J1000000D01*
G01*
X237769780Y-99966070D02*
X237769780Y-111966070D01*
X251769780Y-98966070D02*
G75*
G02X252769780Y-99966070I0J-1000000D01*
G01*
X252769780Y-99966070D02*
X252769780Y-111966070D01*
X251769780Y-112966070D02*
X238769780Y-112966070D01*
X238769780Y-98966070D02*
X251769780Y-98966070D01*
X252769780Y-111966070D02*
G75*
G02X251769780Y-112966070I-1000000J0D01*
G01*
X237769780Y-99966070D02*
G75*
G02X238769780Y-98966070I1000000J0D01*
G01*
X238769780Y-112966070D02*
G75*
G02X237769780Y-111966070I0J1000000D01*
G01*
X218719700Y-102347330D02*
X218719700Y-114347330D01*
X232719700Y-101347330D02*
G75*
G02X233719700Y-102347330I0J-1000000D01*
G01*
X233719700Y-102347330D02*
X233719700Y-114347330D01*
X232719700Y-115347330D02*
X219719700Y-115347330D01*
X219719700Y-101347330D02*
X232719700Y-101347330D01*
X233719700Y-114347330D02*
G75*
G02X232719700Y-115347330I-1000000J0D01*
G01*
X218719700Y-102347330D02*
G75*
G02X219719700Y-101347330I1000000J0D01*
G01*
X219719700Y-115347330D02*
G75*
G02X218719700Y-114347330I0J1000000D01*
G01*
X161569460Y-102347330D02*
X161569460Y-114347330D01*
X175569460Y-101347330D02*
G75*
G02X176569460Y-102347330I0J-1000000D01*
G01*
X176569460Y-102347330D02*
X176569460Y-114347330D01*
X175569460Y-115347330D02*
X162569460Y-115347330D01*
X162569460Y-101347330D02*
X175569460Y-101347330D01*
X176569460Y-114347330D02*
G75*
G02X175569460Y-115347330I-1000000J0D01*
G01*
X161569460Y-102347330D02*
G75*
G02X162569460Y-101347330I1000000J0D01*
G01*
X162569460Y-115347330D02*
G75*
G02X161569460Y-114347330I0J1000000D01*
G01*
X142519380Y-99966070D02*
X142519380Y-111966070D01*
X156519380Y-98966070D02*
G75*
G02X157519380Y-99966070I0J-1000000D01*
G01*
X157519380Y-99966070D02*
X157519380Y-111966070D01*
X156519380Y-112966070D02*
X143519380Y-112966070D01*
X143519380Y-98966070D02*
X156519380Y-98966070D01*
X157519380Y-111966070D02*
G75*
G02X156519380Y-112966070I-1000000J0D01*
G01*
X142519380Y-99966070D02*
G75*
G02X143519380Y-98966070I1000000J0D01*
G01*
X143519380Y-112966070D02*
G75*
G02X142519380Y-111966070I0J1000000D01*
G01*
X123469300Y-97584810D02*
X123469300Y-109584810D01*
X137469300Y-96584810D02*
G75*
G02X138469300Y-97584810I0J-1000000D01*
G01*
X138469300Y-97584810D02*
X138469300Y-109584810D01*
X137469300Y-110584810D02*
X124469300Y-110584810D01*
X124469300Y-96584810D02*
X137469300Y-96584810D01*
X138469300Y-109584810D02*
G75*
G02X137469300Y-110584810I-1000000J0D01*
G01*
X123469300Y-97584810D02*
G75*
G02X124469300Y-96584810I1000000J0D01*
G01*
X124469300Y-110584810D02*
G75*
G02X123469300Y-109584810I0J1000000D01*
G01*
X104419220Y-99966070D02*
X104419220Y-111966070D01*
X118419220Y-98966070D02*
G75*
G02X119419220Y-99966070I0J-1000000D01*
G01*
X119419220Y-99966070D02*
X119419220Y-111966070D01*
X118419220Y-112966070D02*
X105419220Y-112966070D01*
X105419220Y-98966070D02*
X118419220Y-98966070D01*
X119419220Y-111966070D02*
G75*
G02X118419220Y-112966070I-1000000J0D01*
G01*
X104419220Y-99966070D02*
G75*
G02X105419220Y-98966070I1000000J0D01*
G01*
X105419220Y-112966070D02*
G75*
G02X104419220Y-111966070I0J1000000D01*
G01*
X85369140Y-103537960D02*
X85369140Y-115537960D01*
X99369140Y-102537960D02*
G75*
G02X100369140Y-103537960I0J-1000000D01*
G01*
X100369140Y-103537960D02*
X100369140Y-115537960D01*
X99369140Y-116537960D02*
X86369140Y-116537960D01*
X86369140Y-102537960D02*
X99369140Y-102537960D01*
X100369140Y-115537960D02*
G75*
G02X99369140Y-116537960I-1000000J0D01*
G01*
X85369140Y-103537960D02*
G75*
G02X86369140Y-102537960I1000000J0D01*
G01*
X86369140Y-116537960D02*
G75*
G02X85369140Y-115537960I0J1000000D01*
G01*
X66319060Y-103537960D02*
X66319060Y-115537960D01*
X80319060Y-102537960D02*
G75*
G02X81319060Y-103537960I0J-1000000D01*
G01*
X81319060Y-103537960D02*
X81319060Y-115537960D01*
X80319060Y-116537960D02*
X67319060Y-116537960D01*
X67319060Y-102537960D02*
X80319060Y-102537960D01*
X81319060Y-115537960D02*
G75*
G02X80319060Y-116537960I-1000000J0D01*
G01*
X66319060Y-103537960D02*
G75*
G02X67319060Y-102537960I1000000J0D01*
G01*
X67319060Y-116537960D02*
G75*
G02X66319060Y-115537960I0J1000000D01*
G01*
X204644580Y-139447085D02*
G75*
G02X205644580Y-140447085I0J-1000000D01*
G01*
X205644580Y-152447085D02*
G75*
G02X204644580Y-153447085I-1000000J0D01*
G01*
X190644580Y-153447085D02*
G75*
G02X189644580Y-152447085I0J1000000D01*
G01*
X189644580Y-140447085D02*
G75*
G02X190644580Y-139447085I1000000J0D01*
G01*
X204644580Y-139447085D02*
X190644580Y-139447085D01*
X189644580Y-152447085D02*
X189644580Y-140447085D01*
X190644580Y-153447085D02*
X204644580Y-153447085D01*
X205644580Y-140447085D02*
X205644580Y-152447085D01*
D11*
X73819060Y-78581485D03*
X73820040Y-158948739D03*
X150019380Y-73223743D03*
X154187295Y-177998755D03*
X245269780Y-73223743D03*
X241102993Y-177998755D03*
X321470256Y-78581436D03*
X321470100Y-158948675D03*
M02*
