G04 #@! TF.GenerationSoftware,KiCad,Pcbnew,(5.1.4-0)*
G04 #@! TF.CreationDate,2021-11-04T11:37:07-05:00*
G04 #@! TF.ProjectId,top_plate,746f705f-706c-4617-9465-2e6b69636164,rev?*
G04 #@! TF.SameCoordinates,Original*
G04 #@! TF.FileFunction,Legend,Bot*
G04 #@! TF.FilePolarity,Positive*
%FSLAX46Y46*%
G04 Gerber Fmt 4.6, Leading zero omitted, Abs format (unit mm)*
G04 Created by KiCad (PCBNEW (5.1.4-0)) date 2021-11-04 11:37:07*
%MOMM*%
%LPD*%
G04 APERTURE LIST*
%ADD10C,0.150000*%
%ADD11C,0.200000*%
%ADD12C,0.120000*%
G04 APERTURE END LIST*
D10*
X316564332Y-99465090D02*
X316564332Y-100179376D01*
X316611951Y-100322233D01*
X316707189Y-100417471D01*
X316850046Y-100465090D01*
X316945285Y-100465090D01*
X315611951Y-100465090D02*
X316088142Y-100465090D01*
X316088142Y-99465090D01*
X314707189Y-100369852D02*
X314754808Y-100417471D01*
X314897665Y-100465090D01*
X314992904Y-100465090D01*
X315135761Y-100417471D01*
X315230999Y-100322233D01*
X315278618Y-100226995D01*
X315326237Y-100036519D01*
X315326237Y-99893662D01*
X315278618Y-99703186D01*
X315230999Y-99607948D01*
X315135761Y-99512710D01*
X314992904Y-99465090D01*
X314897665Y-99465090D01*
X314754808Y-99512710D01*
X314707189Y-99560329D01*
X313992904Y-99465090D02*
X313992904Y-100179376D01*
X314040523Y-100322233D01*
X314135761Y-100417471D01*
X314278618Y-100465090D01*
X314373856Y-100465090D01*
X313040523Y-100465090D02*
X313516713Y-100465090D01*
X313516713Y-99465090D01*
X312135761Y-100369852D02*
X312183380Y-100417471D01*
X312326237Y-100465090D01*
X312421475Y-100465090D01*
X312564332Y-100417471D01*
X312659570Y-100322233D01*
X312707189Y-100226995D01*
X312754808Y-100036519D01*
X312754808Y-99893662D01*
X312707189Y-99703186D01*
X312659570Y-99607948D01*
X312564332Y-99512710D01*
X312421475Y-99465090D01*
X312326237Y-99465090D01*
X312183380Y-99512710D01*
X312135761Y-99560329D01*
X311421475Y-99465090D02*
X311421475Y-100179376D01*
X311469094Y-100322233D01*
X311564332Y-100417471D01*
X311707189Y-100465090D01*
X311802427Y-100465090D01*
X310469094Y-100465090D02*
X310945285Y-100465090D01*
X310945285Y-99465090D01*
X309564332Y-100369852D02*
X309611951Y-100417471D01*
X309754808Y-100465090D01*
X309850046Y-100465090D01*
X309992904Y-100417471D01*
X310088142Y-100322233D01*
X310135761Y-100226995D01*
X310183380Y-100036519D01*
X310183380Y-99893662D01*
X310135761Y-99703186D01*
X310088142Y-99607948D01*
X309992904Y-99512710D01*
X309850046Y-99465090D01*
X309754808Y-99465090D01*
X309611951Y-99512710D01*
X309564332Y-99560329D01*
X308850046Y-99465090D02*
X308850046Y-100179376D01*
X308897665Y-100322233D01*
X308992904Y-100417471D01*
X309135761Y-100465090D01*
X309230999Y-100465090D01*
X307897665Y-100465090D02*
X308373856Y-100465090D01*
X308373856Y-99465090D01*
X306992904Y-100369852D02*
X307040523Y-100417471D01*
X307183380Y-100465090D01*
X307278618Y-100465090D01*
X307421475Y-100417471D01*
X307516713Y-100322233D01*
X307564332Y-100226995D01*
X307611951Y-100036519D01*
X307611951Y-99893662D01*
X307564332Y-99703186D01*
X307516713Y-99607948D01*
X307421475Y-99512710D01*
X307278618Y-99465090D01*
X307183380Y-99465090D01*
X307040523Y-99512710D01*
X306992904Y-99560329D01*
D11*
X207436951Y-185469852D02*
X207436951Y-186481757D01*
X207496475Y-186600805D01*
X207555999Y-186660329D01*
X207675046Y-186719852D01*
X207853618Y-186719852D01*
X207972665Y-186660329D01*
X207436951Y-186243662D02*
X207555999Y-186303186D01*
X207794094Y-186303186D01*
X207913142Y-186243662D01*
X207972665Y-186184138D01*
X208032189Y-186065090D01*
X208032189Y-185707948D01*
X207972665Y-185588900D01*
X207913142Y-185529376D01*
X207794094Y-185469852D01*
X207555999Y-185469852D01*
X207436951Y-185529376D01*
X206841713Y-186303186D02*
X206841713Y-185469852D01*
X206841713Y-185053186D02*
X206901237Y-185112710D01*
X206841713Y-185172233D01*
X206782189Y-185112710D01*
X206841713Y-185053186D01*
X206841713Y-185172233D01*
X206425046Y-185469852D02*
X205948856Y-185469852D01*
X206246475Y-185053186D02*
X206246475Y-186124614D01*
X206186951Y-186243662D01*
X206067904Y-186303186D01*
X205948856Y-186303186D01*
X205532189Y-186303186D02*
X205532189Y-185053186D01*
X204996475Y-186303186D02*
X204996475Y-185648424D01*
X205055999Y-185529376D01*
X205175046Y-185469852D01*
X205353618Y-185469852D01*
X205472665Y-185529376D01*
X205532189Y-185588900D01*
X203865523Y-185469852D02*
X203865523Y-186303186D01*
X204401237Y-185469852D02*
X204401237Y-186124614D01*
X204341713Y-186243662D01*
X204222665Y-186303186D01*
X204044094Y-186303186D01*
X203925046Y-186243662D01*
X203865523Y-186184138D01*
X203270285Y-186303186D02*
X203270285Y-185053186D01*
X203270285Y-185529376D02*
X203151237Y-185469852D01*
X202913142Y-185469852D01*
X202794094Y-185529376D01*
X202734570Y-185588900D01*
X202675046Y-185707948D01*
X202675046Y-186065090D01*
X202734570Y-186184138D01*
X202794094Y-186243662D01*
X202913142Y-186303186D01*
X203151237Y-186303186D01*
X203270285Y-186243662D01*
X202139332Y-186184138D02*
X202079808Y-186243662D01*
X202139332Y-186303186D01*
X202198856Y-186243662D01*
X202139332Y-186184138D01*
X202139332Y-186303186D01*
X201008380Y-186243662D02*
X201127427Y-186303186D01*
X201365523Y-186303186D01*
X201484570Y-186243662D01*
X201544094Y-186184138D01*
X201603618Y-186065090D01*
X201603618Y-185707948D01*
X201544094Y-185588900D01*
X201484570Y-185529376D01*
X201365523Y-185469852D01*
X201127427Y-185469852D01*
X201008380Y-185529376D01*
X200294094Y-186303186D02*
X200413142Y-186243662D01*
X200472665Y-186184138D01*
X200532189Y-186065090D01*
X200532189Y-185707948D01*
X200472665Y-185588900D01*
X200413142Y-185529376D01*
X200294094Y-185469852D01*
X200115523Y-185469852D01*
X199996475Y-185529376D01*
X199936951Y-185588900D01*
X199877427Y-185707948D01*
X199877427Y-186065090D01*
X199936951Y-186184138D01*
X199996475Y-186243662D01*
X200115523Y-186303186D01*
X200294094Y-186303186D01*
X199341713Y-186303186D02*
X199341713Y-185469852D01*
X199341713Y-185588900D02*
X199282189Y-185529376D01*
X199163142Y-185469852D01*
X198984570Y-185469852D01*
X198865523Y-185529376D01*
X198805999Y-185648424D01*
X198805999Y-186303186D01*
X198805999Y-185648424D02*
X198746475Y-185529376D01*
X198627427Y-185469852D01*
X198448856Y-185469852D01*
X198329808Y-185529376D01*
X198270285Y-185648424D01*
X198270285Y-186303186D01*
X196782189Y-184993662D02*
X197853618Y-186600805D01*
X196365523Y-186303186D02*
X196365523Y-185469852D01*
X196365523Y-185707948D02*
X196305999Y-185588900D01*
X196246475Y-185529376D01*
X196127427Y-185469852D01*
X196008380Y-185469852D01*
X195591713Y-186303186D02*
X195591713Y-185469852D01*
X195591713Y-185053186D02*
X195651237Y-185112710D01*
X195591713Y-185172233D01*
X195532189Y-185112710D01*
X195591713Y-185053186D01*
X195591713Y-185172233D01*
X194460761Y-186243662D02*
X194579808Y-186303186D01*
X194817904Y-186303186D01*
X194936951Y-186243662D01*
X194996475Y-186184138D01*
X195055999Y-186065090D01*
X195055999Y-185707948D01*
X194996475Y-185588900D01*
X194936951Y-185529376D01*
X194817904Y-185469852D01*
X194579808Y-185469852D01*
X194460761Y-185529376D01*
X193925046Y-186303186D02*
X193925046Y-185053186D01*
X193805999Y-185826995D02*
X193448856Y-186303186D01*
X193448856Y-185469852D02*
X193925046Y-185946043D01*
X192734570Y-186303186D02*
X192853618Y-186243662D01*
X192913142Y-186124614D01*
X192913142Y-185053186D01*
X192258380Y-186303186D02*
X192258380Y-185469852D01*
X192258380Y-185053186D02*
X192317904Y-185112710D01*
X192258380Y-185172233D01*
X192198856Y-185112710D01*
X192258380Y-185053186D01*
X192258380Y-185172233D01*
X191127427Y-186243662D02*
X191246475Y-186303186D01*
X191484570Y-186303186D01*
X191603618Y-186243662D01*
X191663142Y-186184138D01*
X191722665Y-186065090D01*
X191722665Y-185707948D01*
X191663142Y-185588900D01*
X191603618Y-185529376D01*
X191484570Y-185469852D01*
X191246475Y-185469852D01*
X191127427Y-185529376D01*
X190591713Y-186303186D02*
X190591713Y-185469852D01*
X190591713Y-185053186D02*
X190651237Y-185112710D01*
X190591713Y-185172233D01*
X190532189Y-185112710D01*
X190591713Y-185053186D01*
X190591713Y-185172233D01*
X189817904Y-186303186D02*
X189936951Y-186243662D01*
X189996475Y-186184138D01*
X190055999Y-186065090D01*
X190055999Y-185707948D01*
X189996475Y-185588900D01*
X189936951Y-185529376D01*
X189817904Y-185469852D01*
X189639332Y-185469852D01*
X189520285Y-185529376D01*
X189460761Y-185588900D01*
X189401237Y-185707948D01*
X189401237Y-186065090D01*
X189460761Y-186184138D01*
X189520285Y-186243662D01*
X189639332Y-186303186D01*
X189817904Y-186303186D01*
X188329808Y-185469852D02*
X188329808Y-186303186D01*
X188865523Y-185469852D02*
X188865523Y-186124614D01*
X188805999Y-186243662D01*
X188686951Y-186303186D01*
X188508380Y-186303186D01*
X188389332Y-186243662D01*
X188329808Y-186184138D01*
X187794094Y-186243662D02*
X187675046Y-186303186D01*
X187436951Y-186303186D01*
X187317904Y-186243662D01*
X187258380Y-186124614D01*
X187258380Y-186065090D01*
X187317904Y-185946043D01*
X187436951Y-185886519D01*
X187615523Y-185886519D01*
X187734570Y-185826995D01*
X187794094Y-185707948D01*
X187794094Y-185648424D01*
X187734570Y-185529376D01*
X187615523Y-185469852D01*
X187436951Y-185469852D01*
X187317904Y-185529376D01*
X203121475Y-183088602D02*
X203121475Y-183921936D01*
X203121475Y-183207650D02*
X203061951Y-183148126D01*
X202942904Y-183088602D01*
X202764332Y-183088602D01*
X202645285Y-183148126D01*
X202585761Y-183267174D01*
X202585761Y-183921936D01*
X201990523Y-183921936D02*
X201990523Y-183088602D01*
X201990523Y-182671936D02*
X202050046Y-182731460D01*
X201990523Y-182790983D01*
X201930999Y-182731460D01*
X201990523Y-182671936D01*
X201990523Y-182790983D01*
X201395285Y-183921936D02*
X201395285Y-182671936D01*
X201276237Y-183445745D02*
X200919094Y-183921936D01*
X200919094Y-183088602D02*
X201395285Y-183564793D01*
X200204808Y-183921936D02*
X200323856Y-183862412D01*
X200383380Y-183802888D01*
X200442904Y-183683840D01*
X200442904Y-183326698D01*
X200383380Y-183207650D01*
X200323856Y-183148126D01*
X200204808Y-183088602D01*
X200026237Y-183088602D01*
X199907189Y-183148126D01*
X199847665Y-183207650D01*
X199788142Y-183326698D01*
X199788142Y-183683840D01*
X199847665Y-183802888D01*
X199907189Y-183862412D01*
X200026237Y-183921936D01*
X200204808Y-183921936D01*
X198300046Y-183921936D02*
X198300046Y-183088602D01*
X198300046Y-183326698D02*
X198240523Y-183207650D01*
X198180999Y-183148126D01*
X198061951Y-183088602D01*
X197942904Y-183088602D01*
X197050046Y-183862412D02*
X197169094Y-183921936D01*
X197407189Y-183921936D01*
X197526237Y-183862412D01*
X197585761Y-183743364D01*
X197585761Y-183267174D01*
X197526237Y-183148126D01*
X197407189Y-183088602D01*
X197169094Y-183088602D01*
X197050046Y-183148126D01*
X196990523Y-183267174D01*
X196990523Y-183386221D01*
X197585761Y-183505269D01*
X196573856Y-183088602D02*
X196276237Y-183921936D01*
X195978618Y-183088602D01*
X193895285Y-183921936D02*
X194609570Y-183921936D01*
X194252427Y-183921936D02*
X194252427Y-182671936D01*
X194371475Y-182850507D01*
X194490523Y-182969555D01*
X194609570Y-183029079D01*
X193359570Y-183802888D02*
X193300046Y-183862412D01*
X193359570Y-183921936D01*
X193419094Y-183862412D01*
X193359570Y-183802888D01*
X193359570Y-183921936D01*
X192526237Y-182671936D02*
X192407189Y-182671936D01*
X192288142Y-182731460D01*
X192228618Y-182790983D01*
X192169094Y-182910031D01*
X192109570Y-183148126D01*
X192109570Y-183445745D01*
X192169094Y-183683840D01*
X192228618Y-183802888D01*
X192288142Y-183862412D01*
X192407189Y-183921936D01*
X192526237Y-183921936D01*
X192645285Y-183862412D01*
X192704808Y-183802888D01*
X192764332Y-183683840D01*
X192823856Y-183445745D01*
X192823856Y-183148126D01*
X192764332Y-182910031D01*
X192704808Y-182790983D01*
X192645285Y-182731460D01*
X192526237Y-182671936D01*
D12*
X321641552Y-100522710D02*
X321299018Y-100522710D01*
X321641552Y-99502710D02*
X321299018Y-99502710D01*
M02*
