G04 #@! TF.GenerationSoftware,KiCad,Pcbnew,(5.1.4-0)*
G04 #@! TF.CreationDate,2021-11-01T11:32:31-05:00*
G04 #@! TF.ProjectId,top_plate,746f705f-706c-4617-9465-2e6b69636164,rev?*
G04 #@! TF.SameCoordinates,Original*
G04 #@! TF.FileFunction,Legend,Bot*
G04 #@! TF.FilePolarity,Positive*
%FSLAX46Y46*%
G04 Gerber Fmt 4.6, Leading zero omitted, Abs format (unit mm)*
G04 Created by KiCad (PCBNEW (5.1.4-0)) date 2021-11-01 11:32:31*
%MOMM*%
%LPD*%
G04 APERTURE LIST*
%ADD10C,0.150000*%
%ADD11C,0.200000*%
%ADD12C,0.120000*%
G04 APERTURE END LIST*
D10*
X316564332Y-99465090D02*
X316564332Y-100179376D01*
X316611951Y-100322233D01*
X316707189Y-100417471D01*
X316850046Y-100465090D01*
X316945285Y-100465090D01*
X315611951Y-100465090D02*
X316088142Y-100465090D01*
X316088142Y-99465090D01*
X314707189Y-100369852D02*
X314754808Y-100417471D01*
X314897665Y-100465090D01*
X314992904Y-100465090D01*
X315135761Y-100417471D01*
X315230999Y-100322233D01*
X315278618Y-100226995D01*
X315326237Y-100036519D01*
X315326237Y-99893662D01*
X315278618Y-99703186D01*
X315230999Y-99607948D01*
X315135761Y-99512710D01*
X314992904Y-99465090D01*
X314897665Y-99465090D01*
X314754808Y-99512710D01*
X314707189Y-99560329D01*
X313992904Y-99465090D02*
X313992904Y-100179376D01*
X314040523Y-100322233D01*
X314135761Y-100417471D01*
X314278618Y-100465090D01*
X314373856Y-100465090D01*
X313040523Y-100465090D02*
X313516713Y-100465090D01*
X313516713Y-99465090D01*
X312135761Y-100369852D02*
X312183380Y-100417471D01*
X312326237Y-100465090D01*
X312421475Y-100465090D01*
X312564332Y-100417471D01*
X312659570Y-100322233D01*
X312707189Y-100226995D01*
X312754808Y-100036519D01*
X312754808Y-99893662D01*
X312707189Y-99703186D01*
X312659570Y-99607948D01*
X312564332Y-99512710D01*
X312421475Y-99465090D01*
X312326237Y-99465090D01*
X312183380Y-99512710D01*
X312135761Y-99560329D01*
X311421475Y-99465090D02*
X311421475Y-100179376D01*
X311469094Y-100322233D01*
X311564332Y-100417471D01*
X311707189Y-100465090D01*
X311802427Y-100465090D01*
X310469094Y-100465090D02*
X310945285Y-100465090D01*
X310945285Y-99465090D01*
X309564332Y-100369852D02*
X309611951Y-100417471D01*
X309754808Y-100465090D01*
X309850046Y-100465090D01*
X309992904Y-100417471D01*
X310088142Y-100322233D01*
X310135761Y-100226995D01*
X310183380Y-100036519D01*
X310183380Y-99893662D01*
X310135761Y-99703186D01*
X310088142Y-99607948D01*
X309992904Y-99512710D01*
X309850046Y-99465090D01*
X309754808Y-99465090D01*
X309611951Y-99512710D01*
X309564332Y-99560329D01*
X308850046Y-99465090D02*
X308850046Y-100179376D01*
X308897665Y-100322233D01*
X308992904Y-100417471D01*
X309135761Y-100465090D01*
X309230999Y-100465090D01*
X307897665Y-100465090D02*
X308373856Y-100465090D01*
X308373856Y-99465090D01*
X306992904Y-100369852D02*
X307040523Y-100417471D01*
X307183380Y-100465090D01*
X307278618Y-100465090D01*
X307421475Y-100417471D01*
X307516713Y-100322233D01*
X307564332Y-100226995D01*
X307611951Y-100036519D01*
X307611951Y-99893662D01*
X307564332Y-99703186D01*
X307516713Y-99607948D01*
X307421475Y-99512710D01*
X307278618Y-99465090D01*
X307183380Y-99465090D01*
X307040523Y-99512710D01*
X306992904Y-99560329D01*
D11*
X207139332Y-185469852D02*
X207139332Y-186481757D01*
X207198856Y-186600805D01*
X207258380Y-186660329D01*
X207377427Y-186719852D01*
X207555999Y-186719852D01*
X207675046Y-186660329D01*
X207139332Y-186243662D02*
X207258380Y-186303186D01*
X207496475Y-186303186D01*
X207615523Y-186243662D01*
X207675046Y-186184138D01*
X207734570Y-186065090D01*
X207734570Y-185707948D01*
X207675046Y-185588900D01*
X207615523Y-185529376D01*
X207496475Y-185469852D01*
X207258380Y-185469852D01*
X207139332Y-185529376D01*
X206544094Y-186303186D02*
X206544094Y-185469852D01*
X206544094Y-185053186D02*
X206603618Y-185112710D01*
X206544094Y-185172233D01*
X206484570Y-185112710D01*
X206544094Y-185053186D01*
X206544094Y-185172233D01*
X206127427Y-185469852D02*
X205651237Y-185469852D01*
X205948856Y-185053186D02*
X205948856Y-186124614D01*
X205889332Y-186243662D01*
X205770285Y-186303186D01*
X205651237Y-186303186D01*
X205234570Y-186303186D02*
X205234570Y-185053186D01*
X204698856Y-186303186D02*
X204698856Y-185648424D01*
X204758380Y-185529376D01*
X204877427Y-185469852D01*
X205055999Y-185469852D01*
X205175046Y-185529376D01*
X205234570Y-185588900D01*
X203567904Y-185469852D02*
X203567904Y-186303186D01*
X204103618Y-185469852D02*
X204103618Y-186124614D01*
X204044094Y-186243662D01*
X203925046Y-186303186D01*
X203746475Y-186303186D01*
X203627427Y-186243662D01*
X203567904Y-186184138D01*
X202972665Y-186303186D02*
X202972665Y-185053186D01*
X202972665Y-185529376D02*
X202853618Y-185469852D01*
X202615523Y-185469852D01*
X202496475Y-185529376D01*
X202436951Y-185588900D01*
X202377427Y-185707948D01*
X202377427Y-186065090D01*
X202436951Y-186184138D01*
X202496475Y-186243662D01*
X202615523Y-186303186D01*
X202853618Y-186303186D01*
X202972665Y-186243662D01*
X201841713Y-186184138D02*
X201782189Y-186243662D01*
X201841713Y-186303186D01*
X201901237Y-186243662D01*
X201841713Y-186184138D01*
X201841713Y-186303186D01*
X200710761Y-186243662D02*
X200829808Y-186303186D01*
X201067904Y-186303186D01*
X201186951Y-186243662D01*
X201246475Y-186184138D01*
X201305999Y-186065090D01*
X201305999Y-185707948D01*
X201246475Y-185588900D01*
X201186951Y-185529376D01*
X201067904Y-185469852D01*
X200829808Y-185469852D01*
X200710761Y-185529376D01*
X199996475Y-186303186D02*
X200115523Y-186243662D01*
X200175046Y-186184138D01*
X200234570Y-186065090D01*
X200234570Y-185707948D01*
X200175046Y-185588900D01*
X200115523Y-185529376D01*
X199996475Y-185469852D01*
X199817904Y-185469852D01*
X199698856Y-185529376D01*
X199639332Y-185588900D01*
X199579808Y-185707948D01*
X199579808Y-186065090D01*
X199639332Y-186184138D01*
X199698856Y-186243662D01*
X199817904Y-186303186D01*
X199996475Y-186303186D01*
X199044094Y-186303186D02*
X199044094Y-185469852D01*
X199044094Y-185588900D02*
X198984570Y-185529376D01*
X198865523Y-185469852D01*
X198686951Y-185469852D01*
X198567904Y-185529376D01*
X198508380Y-185648424D01*
X198508380Y-186303186D01*
X198508380Y-185648424D02*
X198448856Y-185529376D01*
X198329808Y-185469852D01*
X198151237Y-185469852D01*
X198032189Y-185529376D01*
X197972665Y-185648424D01*
X197972665Y-186303186D01*
X196484570Y-184993662D02*
X197555999Y-186600805D01*
X195532189Y-186303186D02*
X195532189Y-185053186D01*
X195532189Y-186243662D02*
X195651237Y-186303186D01*
X195889332Y-186303186D01*
X196008380Y-186243662D01*
X196067904Y-186184138D01*
X196127427Y-186065090D01*
X196127427Y-185707948D01*
X196067904Y-185588900D01*
X196008380Y-185529376D01*
X195889332Y-185469852D01*
X195651237Y-185469852D01*
X195532189Y-185529376D01*
X194936951Y-186303186D02*
X194936951Y-185469852D01*
X194936951Y-185053186D02*
X194996475Y-185112710D01*
X194936951Y-185172233D01*
X194877427Y-185112710D01*
X194936951Y-185053186D01*
X194936951Y-185172233D01*
X193865523Y-186243662D02*
X193984570Y-186303186D01*
X194222665Y-186303186D01*
X194341713Y-186243662D01*
X194401237Y-186124614D01*
X194401237Y-185648424D01*
X194341713Y-185529376D01*
X194222665Y-185469852D01*
X193984570Y-185469852D01*
X193865523Y-185529376D01*
X193805999Y-185648424D01*
X193805999Y-185767471D01*
X194401237Y-185886519D01*
X193270285Y-186303186D02*
X193270285Y-185469852D01*
X193270285Y-185707948D02*
X193210761Y-185588900D01*
X193151237Y-185529376D01*
X193032189Y-185469852D01*
X192913142Y-185469852D01*
X192496475Y-186303186D02*
X192496475Y-185469852D01*
X192496475Y-185053186D02*
X192555999Y-185112710D01*
X192496475Y-185172233D01*
X192436951Y-185112710D01*
X192496475Y-185053186D01*
X192496475Y-185172233D01*
X191365523Y-186243662D02*
X191484570Y-186303186D01*
X191722665Y-186303186D01*
X191841713Y-186243662D01*
X191901237Y-186184138D01*
X191960761Y-186065090D01*
X191960761Y-185707948D01*
X191901237Y-185588900D01*
X191841713Y-185529376D01*
X191722665Y-185469852D01*
X191484570Y-185469852D01*
X191365523Y-185529376D01*
X190829808Y-186303186D02*
X190829808Y-185053186D01*
X190710761Y-185826995D02*
X190353618Y-186303186D01*
X190353618Y-185469852D02*
X190829808Y-185946043D01*
X189282189Y-186303186D02*
X189282189Y-185053186D01*
X189282189Y-186243662D02*
X189401237Y-186303186D01*
X189639332Y-186303186D01*
X189758380Y-186243662D01*
X189817904Y-186184138D01*
X189877427Y-186065090D01*
X189877427Y-185707948D01*
X189817904Y-185588900D01*
X189758380Y-185529376D01*
X189639332Y-185469852D01*
X189401237Y-185469852D01*
X189282189Y-185529376D01*
X188686951Y-186303186D02*
X188686951Y-185469852D01*
X188686951Y-185053186D02*
X188746475Y-185112710D01*
X188686951Y-185172233D01*
X188627427Y-185112710D01*
X188686951Y-185053186D01*
X188686951Y-185172233D01*
X187615523Y-186243662D02*
X187734570Y-186303186D01*
X187972665Y-186303186D01*
X188091713Y-186243662D01*
X188151237Y-186124614D01*
X188151237Y-185648424D01*
X188091713Y-185529376D01*
X187972665Y-185469852D01*
X187734570Y-185469852D01*
X187615523Y-185529376D01*
X187555999Y-185648424D01*
X187555999Y-185767471D01*
X188151237Y-185886519D01*
X203121475Y-183088602D02*
X203121475Y-183921936D01*
X203121475Y-183207650D02*
X203061951Y-183148126D01*
X202942904Y-183088602D01*
X202764332Y-183088602D01*
X202645285Y-183148126D01*
X202585761Y-183267174D01*
X202585761Y-183921936D01*
X201990523Y-183921936D02*
X201990523Y-183088602D01*
X201990523Y-182671936D02*
X202050046Y-182731460D01*
X201990523Y-182790983D01*
X201930999Y-182731460D01*
X201990523Y-182671936D01*
X201990523Y-182790983D01*
X201395285Y-183921936D02*
X201395285Y-182671936D01*
X201276237Y-183445745D02*
X200919094Y-183921936D01*
X200919094Y-183088602D02*
X201395285Y-183564793D01*
X200204808Y-183921936D02*
X200323856Y-183862412D01*
X200383380Y-183802888D01*
X200442904Y-183683840D01*
X200442904Y-183326698D01*
X200383380Y-183207650D01*
X200323856Y-183148126D01*
X200204808Y-183088602D01*
X200026237Y-183088602D01*
X199907189Y-183148126D01*
X199847665Y-183207650D01*
X199788142Y-183326698D01*
X199788142Y-183683840D01*
X199847665Y-183802888D01*
X199907189Y-183862412D01*
X200026237Y-183921936D01*
X200204808Y-183921936D01*
X198300046Y-183921936D02*
X198300046Y-183088602D01*
X198300046Y-183326698D02*
X198240523Y-183207650D01*
X198180999Y-183148126D01*
X198061951Y-183088602D01*
X197942904Y-183088602D01*
X197050046Y-183862412D02*
X197169094Y-183921936D01*
X197407189Y-183921936D01*
X197526237Y-183862412D01*
X197585761Y-183743364D01*
X197585761Y-183267174D01*
X197526237Y-183148126D01*
X197407189Y-183088602D01*
X197169094Y-183088602D01*
X197050046Y-183148126D01*
X196990523Y-183267174D01*
X196990523Y-183386221D01*
X197585761Y-183505269D01*
X196573856Y-183088602D02*
X196276237Y-183921936D01*
X195978618Y-183088602D01*
X193895285Y-183921936D02*
X194609570Y-183921936D01*
X194252427Y-183921936D02*
X194252427Y-182671936D01*
X194371475Y-182850507D01*
X194490523Y-182969555D01*
X194609570Y-183029079D01*
X193359570Y-183802888D02*
X193300046Y-183862412D01*
X193359570Y-183921936D01*
X193419094Y-183862412D01*
X193359570Y-183802888D01*
X193359570Y-183921936D01*
X192526237Y-182671936D02*
X192407189Y-182671936D01*
X192288142Y-182731460D01*
X192228618Y-182790983D01*
X192169094Y-182910031D01*
X192109570Y-183148126D01*
X192109570Y-183445745D01*
X192169094Y-183683840D01*
X192228618Y-183802888D01*
X192288142Y-183862412D01*
X192407189Y-183921936D01*
X192526237Y-183921936D01*
X192645285Y-183862412D01*
X192704808Y-183802888D01*
X192764332Y-183683840D01*
X192823856Y-183445745D01*
X192823856Y-183148126D01*
X192764332Y-182910031D01*
X192704808Y-182790983D01*
X192645285Y-182731460D01*
X192526237Y-182671936D01*
D12*
X321641552Y-100522710D02*
X321299018Y-100522710D01*
X321641552Y-99502710D02*
X321299018Y-99502710D01*
M02*
