M48
; DRILL file {KiCad (5.1.2-1)-1} date Saturday, July 25, 2020 at 11:38:03 PM
; FORMAT={-:-/ absolute / inch / decimal}
; #@! TF.CreationDate,2020-07-25T23:38:03-05:00
; #@! TF.GenerationSoftware,Kicad,Pcbnew,(5.1.2-1)-1
; #@! TF.FileFunction,NonPlated,1,2,NPTH
FMAT,2
INCH
T1C0.0315
T2C0.1575
%
G90
G05
T1
X5.2237Y-4.6562
X5.2837Y-4.6562
X5.3438Y-4.6562
X5.4037Y-4.6562
X5.4638Y-4.6562
X7.505Y-4.6562
X7.565Y-4.6562
X7.625Y-4.6562
X7.685Y-4.6562
X7.745Y-4.6562
X14.6875Y-2.3175
X14.6875Y-2.3775
X14.6875Y-2.4375
X14.6875Y-2.5075
X14.6875Y-2.5675
X8.2237Y-1.7188
X8.2837Y-1.7188
X8.3438Y-1.7188
X8.4038Y-1.7188
X8.4637Y-1.7188
X5.2237Y-1.7188
X5.2837Y-1.7188
X5.3438Y-1.7188
X5.4037Y-1.7188
X5.4638Y-1.7188
X13.8487Y-1.7188
X13.9087Y-1.7188
X13.9688Y-1.7188
X14.0288Y-1.7188
X14.0887Y-1.7188
X10.8487Y-1.7188
X10.9087Y-1.7188
X10.9688Y-1.7188
X11.0288Y-1.7188
X11.0887Y-1.7188
X14.6875Y-3.8175
X14.6875Y-3.8775
X14.6875Y-3.9375
X14.6875Y-3.9975
X14.6875Y-4.0575
X4.6222Y-2.3275
X4.6222Y-2.3825
X4.6222Y-2.4375
X4.6222Y-2.4925
X4.6222Y-2.5475
X13.8487Y-4.6562
X13.9087Y-4.6562
X13.9688Y-4.6562
X14.0288Y-4.6562
X14.0887Y-4.6562
X11.5675Y-4.6562
X11.6275Y-4.6562
X11.6875Y-4.6562
X11.7475Y-4.6562
X11.8075Y-4.6562
X4.6222Y-3.8275
X4.6222Y-3.8825
X4.6222Y-3.9375
X4.6222Y-3.9925
X4.6222Y-4.0475
T2
X4.3438Y-3.9375
X14.9692Y-2.359
X13.9688Y-2.4375
X13.9688Y-3.9375
X5.3438Y-2.4375
X4.3438Y-2.4375
X8.3438Y-2.4375
X14.9692Y-3.9375
X5.3438Y-3.9375
X10.9688Y-2.4375
X8.7344Y-4.1406
X10.5786Y-4.1406
T0
M30
