G04 #@! TF.GenerationSoftware,KiCad,Pcbnew,(5.1.4-0-10_14)*
G04 #@! TF.CreationDate,2020-08-09T17:10:10-05:00*
G04 #@! TF.ProjectId,Dori_top_plate,446f7269-5f74-46f7-905f-706c6174652e,rev?*
G04 #@! TF.SameCoordinates,Original*
G04 #@! TF.FileFunction,Legend,Bot*
G04 #@! TF.FilePolarity,Positive*
%FSLAX46Y46*%
G04 Gerber Fmt 4.6, Leading zero omitted, Abs format (unit mm)*
G04 Created by KiCad (PCBNEW (5.1.4-0-10_14)) date 2020-08-09 17:10:10*
%MOMM*%
%LPD*%
G04 APERTURE LIST*
%ADD10C,0.250000*%
%ADD11C,0.200000*%
%ADD12C,0.150000*%
%ADD13C,0.120000*%
%ADD14C,4.102000*%
%ADD15C,0.100000*%
%ADD16C,1.052000*%
%ADD17C,0.902000*%
G04 APERTURE END LIST*
D10*
X127539583Y-100464880D02*
X127872916Y-99988690D01*
X128111011Y-100464880D02*
X128111011Y-99464880D01*
X127730059Y-99464880D01*
X127634821Y-99512500D01*
X127587202Y-99560119D01*
X127539583Y-99655357D01*
X127539583Y-99798214D01*
X127587202Y-99893452D01*
X127634821Y-99941071D01*
X127730059Y-99988690D01*
X128111011Y-99988690D01*
X127111011Y-100464880D02*
X127111011Y-99464880D01*
X126111011Y-99512500D02*
X126206250Y-99464880D01*
X126349107Y-99464880D01*
X126491964Y-99512500D01*
X126587202Y-99607738D01*
X126634821Y-99702976D01*
X126682440Y-99893452D01*
X126682440Y-100036309D01*
X126634821Y-100226785D01*
X126587202Y-100322023D01*
X126491964Y-100417261D01*
X126349107Y-100464880D01*
X126253869Y-100464880D01*
X126111011Y-100417261D01*
X126063392Y-100369642D01*
X126063392Y-100036309D01*
X126253869Y-100036309D01*
X125634821Y-100464880D02*
X125634821Y-99464880D01*
X125634821Y-99941071D02*
X125063392Y-99941071D01*
X125063392Y-100464880D02*
X125063392Y-99464880D01*
X124730059Y-99464880D02*
X124158630Y-99464880D01*
X124444345Y-100464880D02*
X124444345Y-99464880D01*
X374253125Y-64690625D02*
X374253125Y-65484375D01*
X374253125Y-63103125D02*
X374253125Y-63896875D01*
X374253125Y-61515625D02*
X374253125Y-62309375D01*
X374253125Y-59928125D02*
X374253125Y-60721875D01*
X374253125Y-58340625D02*
X374253125Y-59134375D01*
X374253125Y-102790625D02*
X374253125Y-103584375D01*
X374253125Y-101203125D02*
X374253125Y-101996875D01*
X374253125Y-99615625D02*
X374253125Y-100409375D01*
X374253125Y-98028125D02*
X374253125Y-98821875D01*
X374253125Y-96440625D02*
X374253125Y-97234375D01*
X116284375Y-102790625D02*
X116284375Y-103584375D01*
X116284375Y-101203125D02*
X116284375Y-101996875D01*
X116284375Y-99615625D02*
X116284375Y-100409375D01*
X116284375Y-98028125D02*
X116284375Y-98821875D01*
X116284375Y-96440625D02*
X116284375Y-97234375D01*
X116284375Y-64690625D02*
X116284375Y-65484375D01*
X116284375Y-63103125D02*
X116284375Y-63896875D01*
X116284375Y-61515625D02*
X116284375Y-62309375D01*
X116284375Y-59928125D02*
X116284375Y-60721875D01*
D11*
X198536011Y-100577976D02*
X198536011Y-99327976D01*
X198238392Y-99327976D01*
X198059821Y-99387500D01*
X197940773Y-99506547D01*
X197881250Y-99625595D01*
X197821726Y-99863690D01*
X197821726Y-100042261D01*
X197881250Y-100280357D01*
X197940773Y-100399404D01*
X198059821Y-100518452D01*
X198238392Y-100577976D01*
X198536011Y-100577976D01*
X197107440Y-100577976D02*
X197226488Y-100518452D01*
X197286011Y-100458928D01*
X197345535Y-100339880D01*
X197345535Y-99982738D01*
X197286011Y-99863690D01*
X197226488Y-99804166D01*
X197107440Y-99744642D01*
X196928869Y-99744642D01*
X196809821Y-99804166D01*
X196750297Y-99863690D01*
X196690773Y-99982738D01*
X196690773Y-100339880D01*
X196750297Y-100458928D01*
X196809821Y-100518452D01*
X196928869Y-100577976D01*
X197107440Y-100577976D01*
X196155059Y-100577976D02*
X196155059Y-99744642D01*
X196155059Y-99982738D02*
X196095535Y-99863690D01*
X196036011Y-99804166D01*
X195916964Y-99744642D01*
X195797916Y-99744642D01*
X195381250Y-100577976D02*
X195381250Y-99744642D01*
X195381250Y-99327976D02*
X195440773Y-99387500D01*
X195381250Y-99447023D01*
X195321726Y-99387500D01*
X195381250Y-99327976D01*
X195381250Y-99447023D01*
X193119345Y-100577976D02*
X193536011Y-99982738D01*
X193833630Y-100577976D02*
X193833630Y-99327976D01*
X193357440Y-99327976D01*
X193238392Y-99387500D01*
X193178869Y-99447023D01*
X193119345Y-99566071D01*
X193119345Y-99744642D01*
X193178869Y-99863690D01*
X193238392Y-99923214D01*
X193357440Y-99982738D01*
X193833630Y-99982738D01*
X192107440Y-100518452D02*
X192226488Y-100577976D01*
X192464583Y-100577976D01*
X192583630Y-100518452D01*
X192643154Y-100399404D01*
X192643154Y-99923214D01*
X192583630Y-99804166D01*
X192464583Y-99744642D01*
X192226488Y-99744642D01*
X192107440Y-99804166D01*
X192047916Y-99923214D01*
X192047916Y-100042261D01*
X192643154Y-100161309D01*
X191631250Y-99744642D02*
X191333630Y-100577976D01*
X191036011Y-99744642D01*
X188952678Y-100577976D02*
X189666964Y-100577976D01*
X189309821Y-100577976D02*
X189309821Y-99327976D01*
X189428869Y-99506547D01*
X189547916Y-99625595D01*
X189666964Y-99685119D01*
X188416964Y-100458928D02*
X188357440Y-100518452D01*
X188416964Y-100577976D01*
X188476488Y-100518452D01*
X188416964Y-100458928D01*
X188416964Y-100577976D01*
X187166964Y-100577976D02*
X187881250Y-100577976D01*
X187524107Y-100577976D02*
X187524107Y-99327976D01*
X187643154Y-99506547D01*
X187762202Y-99625595D01*
X187881250Y-99685119D01*
X164275297Y-99744642D02*
X164275297Y-100756547D01*
X164334821Y-100875595D01*
X164394345Y-100935119D01*
X164513392Y-100994642D01*
X164691964Y-100994642D01*
X164811011Y-100935119D01*
X164275297Y-100518452D02*
X164394345Y-100577976D01*
X164632440Y-100577976D01*
X164751488Y-100518452D01*
X164811011Y-100458928D01*
X164870535Y-100339880D01*
X164870535Y-99982738D01*
X164811011Y-99863690D01*
X164751488Y-99804166D01*
X164632440Y-99744642D01*
X164394345Y-99744642D01*
X164275297Y-99804166D01*
X163680059Y-100577976D02*
X163680059Y-99744642D01*
X163680059Y-99327976D02*
X163739583Y-99387500D01*
X163680059Y-99447023D01*
X163620535Y-99387500D01*
X163680059Y-99327976D01*
X163680059Y-99447023D01*
X163263392Y-99744642D02*
X162787202Y-99744642D01*
X163084821Y-99327976D02*
X163084821Y-100399404D01*
X163025297Y-100518452D01*
X162906250Y-100577976D01*
X162787202Y-100577976D01*
X162370535Y-100577976D02*
X162370535Y-99327976D01*
X161834821Y-100577976D02*
X161834821Y-99923214D01*
X161894345Y-99804166D01*
X162013392Y-99744642D01*
X162191964Y-99744642D01*
X162311011Y-99804166D01*
X162370535Y-99863690D01*
X160703869Y-99744642D02*
X160703869Y-100577976D01*
X161239583Y-99744642D02*
X161239583Y-100399404D01*
X161180059Y-100518452D01*
X161061011Y-100577976D01*
X160882440Y-100577976D01*
X160763392Y-100518452D01*
X160703869Y-100458928D01*
X160108630Y-100577976D02*
X160108630Y-99327976D01*
X160108630Y-99804166D02*
X159989583Y-99744642D01*
X159751488Y-99744642D01*
X159632440Y-99804166D01*
X159572916Y-99863690D01*
X159513392Y-99982738D01*
X159513392Y-100339880D01*
X159572916Y-100458928D01*
X159632440Y-100518452D01*
X159751488Y-100577976D01*
X159989583Y-100577976D01*
X160108630Y-100518452D01*
X158977678Y-100458928D02*
X158918154Y-100518452D01*
X158977678Y-100577976D01*
X159037202Y-100518452D01*
X158977678Y-100458928D01*
X158977678Y-100577976D01*
X157846726Y-100518452D02*
X157965773Y-100577976D01*
X158203869Y-100577976D01*
X158322916Y-100518452D01*
X158382440Y-100458928D01*
X158441964Y-100339880D01*
X158441964Y-99982738D01*
X158382440Y-99863690D01*
X158322916Y-99804166D01*
X158203869Y-99744642D01*
X157965773Y-99744642D01*
X157846726Y-99804166D01*
X157132440Y-100577976D02*
X157251488Y-100518452D01*
X157311011Y-100458928D01*
X157370535Y-100339880D01*
X157370535Y-99982738D01*
X157311011Y-99863690D01*
X157251488Y-99804166D01*
X157132440Y-99744642D01*
X156953869Y-99744642D01*
X156834821Y-99804166D01*
X156775297Y-99863690D01*
X156715773Y-99982738D01*
X156715773Y-100339880D01*
X156775297Y-100458928D01*
X156834821Y-100518452D01*
X156953869Y-100577976D01*
X157132440Y-100577976D01*
X156180059Y-100577976D02*
X156180059Y-99744642D01*
X156180059Y-99863690D02*
X156120535Y-99804166D01*
X156001488Y-99744642D01*
X155822916Y-99744642D01*
X155703869Y-99804166D01*
X155644345Y-99923214D01*
X155644345Y-100577976D01*
X155644345Y-99923214D02*
X155584821Y-99804166D01*
X155465773Y-99744642D01*
X155287202Y-99744642D01*
X155168154Y-99804166D01*
X155108630Y-99923214D01*
X155108630Y-100577976D01*
X153620535Y-99268452D02*
X154691964Y-100875595D01*
X152668154Y-100577976D02*
X152668154Y-99327976D01*
X152668154Y-100518452D02*
X152787202Y-100577976D01*
X153025297Y-100577976D01*
X153144345Y-100518452D01*
X153203869Y-100458928D01*
X153263392Y-100339880D01*
X153263392Y-99982738D01*
X153203869Y-99863690D01*
X153144345Y-99804166D01*
X153025297Y-99744642D01*
X152787202Y-99744642D01*
X152668154Y-99804166D01*
X152072916Y-100577976D02*
X152072916Y-99744642D01*
X152072916Y-99327976D02*
X152132440Y-99387500D01*
X152072916Y-99447023D01*
X152013392Y-99387500D01*
X152072916Y-99327976D01*
X152072916Y-99447023D01*
X151001488Y-100518452D02*
X151120535Y-100577976D01*
X151358630Y-100577976D01*
X151477678Y-100518452D01*
X151537202Y-100399404D01*
X151537202Y-99923214D01*
X151477678Y-99804166D01*
X151358630Y-99744642D01*
X151120535Y-99744642D01*
X151001488Y-99804166D01*
X150941964Y-99923214D01*
X150941964Y-100042261D01*
X151537202Y-100161309D01*
X150406250Y-100577976D02*
X150406250Y-99744642D01*
X150406250Y-99982738D02*
X150346726Y-99863690D01*
X150287202Y-99804166D01*
X150168154Y-99744642D01*
X150049107Y-99744642D01*
X149632440Y-100577976D02*
X149632440Y-99744642D01*
X149632440Y-99327976D02*
X149691964Y-99387500D01*
X149632440Y-99447023D01*
X149572916Y-99387500D01*
X149632440Y-99327976D01*
X149632440Y-99447023D01*
X148501488Y-100518452D02*
X148620535Y-100577976D01*
X148858630Y-100577976D01*
X148977678Y-100518452D01*
X149037202Y-100458928D01*
X149096726Y-100339880D01*
X149096726Y-99982738D01*
X149037202Y-99863690D01*
X148977678Y-99804166D01*
X148858630Y-99744642D01*
X148620535Y-99744642D01*
X148501488Y-99804166D01*
X147965773Y-100577976D02*
X147965773Y-99327976D01*
X147846726Y-100101785D02*
X147489583Y-100577976D01*
X147489583Y-99744642D02*
X147965773Y-100220833D01*
X146418154Y-100577976D02*
X146418154Y-99327976D01*
X146418154Y-100518452D02*
X146537202Y-100577976D01*
X146775297Y-100577976D01*
X146894345Y-100518452D01*
X146953869Y-100458928D01*
X147013392Y-100339880D01*
X147013392Y-99982738D01*
X146953869Y-99863690D01*
X146894345Y-99804166D01*
X146775297Y-99744642D01*
X146537202Y-99744642D01*
X146418154Y-99804166D01*
X145822916Y-100577976D02*
X145822916Y-99744642D01*
X145822916Y-99327976D02*
X145882440Y-99387500D01*
X145822916Y-99447023D01*
X145763392Y-99387500D01*
X145822916Y-99327976D01*
X145822916Y-99447023D01*
X144751488Y-100518452D02*
X144870535Y-100577976D01*
X145108630Y-100577976D01*
X145227678Y-100518452D01*
X145287202Y-100399404D01*
X145287202Y-99923214D01*
X145227678Y-99804166D01*
X145108630Y-99744642D01*
X144870535Y-99744642D01*
X144751488Y-99804166D01*
X144691964Y-99923214D01*
X144691964Y-100042261D01*
X145287202Y-100161309D01*
D10*
X365283630Y-100464880D02*
X365759821Y-100464880D01*
X365759821Y-99464880D01*
X364950297Y-99941071D02*
X364616964Y-99941071D01*
X364474107Y-100464880D02*
X364950297Y-100464880D01*
X364950297Y-99464880D01*
X364474107Y-99464880D01*
X363712202Y-99941071D02*
X364045535Y-99941071D01*
X364045535Y-100464880D02*
X364045535Y-99464880D01*
X363569345Y-99464880D01*
X363331250Y-99464880D02*
X362759821Y-99464880D01*
X363045535Y-100464880D02*
X363045535Y-99464880D01*
X116284375Y-58340625D02*
X116284375Y-59134375D01*
D11*
X307033291Y-99744642D02*
X307033291Y-100756547D01*
X307092815Y-100875595D01*
X307152339Y-100935119D01*
X307271386Y-100994642D01*
X307449958Y-100994642D01*
X307569005Y-100935119D01*
X307033291Y-100518452D02*
X307152339Y-100577976D01*
X307390434Y-100577976D01*
X307509482Y-100518452D01*
X307569005Y-100458928D01*
X307628529Y-100339880D01*
X307628529Y-99982738D01*
X307569005Y-99863690D01*
X307509482Y-99804166D01*
X307390434Y-99744642D01*
X307152339Y-99744642D01*
X307033291Y-99804166D01*
X306438053Y-100577976D02*
X306438053Y-99744642D01*
X306438053Y-99327976D02*
X306497577Y-99387500D01*
X306438053Y-99447023D01*
X306378529Y-99387500D01*
X306438053Y-99327976D01*
X306438053Y-99447023D01*
X306021386Y-99744642D02*
X305545196Y-99744642D01*
X305842815Y-99327976D02*
X305842815Y-100399404D01*
X305783291Y-100518452D01*
X305664244Y-100577976D01*
X305545196Y-100577976D01*
X305128529Y-100577976D02*
X305128529Y-99327976D01*
X304592815Y-100577976D02*
X304592815Y-99923214D01*
X304652339Y-99804166D01*
X304771386Y-99744642D01*
X304949958Y-99744642D01*
X305069005Y-99804166D01*
X305128529Y-99863690D01*
X303461863Y-99744642D02*
X303461863Y-100577976D01*
X303997577Y-99744642D02*
X303997577Y-100399404D01*
X303938053Y-100518452D01*
X303819005Y-100577976D01*
X303640434Y-100577976D01*
X303521386Y-100518452D01*
X303461863Y-100458928D01*
X302866624Y-100577976D02*
X302866624Y-99327976D01*
X302866624Y-99804166D02*
X302747577Y-99744642D01*
X302509482Y-99744642D01*
X302390434Y-99804166D01*
X302330910Y-99863690D01*
X302271386Y-99982738D01*
X302271386Y-100339880D01*
X302330910Y-100458928D01*
X302390434Y-100518452D01*
X302509482Y-100577976D01*
X302747577Y-100577976D01*
X302866624Y-100518452D01*
X301735672Y-100458928D02*
X301676148Y-100518452D01*
X301735672Y-100577976D01*
X301795196Y-100518452D01*
X301735672Y-100458928D01*
X301735672Y-100577976D01*
X300604720Y-100518452D02*
X300723767Y-100577976D01*
X300961863Y-100577976D01*
X301080910Y-100518452D01*
X301140434Y-100458928D01*
X301199958Y-100339880D01*
X301199958Y-99982738D01*
X301140434Y-99863690D01*
X301080910Y-99804166D01*
X300961863Y-99744642D01*
X300723767Y-99744642D01*
X300604720Y-99804166D01*
X299890434Y-100577976D02*
X300009482Y-100518452D01*
X300069005Y-100458928D01*
X300128529Y-100339880D01*
X300128529Y-99982738D01*
X300069005Y-99863690D01*
X300009482Y-99804166D01*
X299890434Y-99744642D01*
X299711863Y-99744642D01*
X299592815Y-99804166D01*
X299533291Y-99863690D01*
X299473767Y-99982738D01*
X299473767Y-100339880D01*
X299533291Y-100458928D01*
X299592815Y-100518452D01*
X299711863Y-100577976D01*
X299890434Y-100577976D01*
X298938053Y-100577976D02*
X298938053Y-99744642D01*
X298938053Y-99863690D02*
X298878529Y-99804166D01*
X298759482Y-99744642D01*
X298580910Y-99744642D01*
X298461863Y-99804166D01*
X298402339Y-99923214D01*
X298402339Y-100577976D01*
X298402339Y-99923214D02*
X298342815Y-99804166D01*
X298223767Y-99744642D01*
X298045196Y-99744642D01*
X297926148Y-99804166D01*
X297866624Y-99923214D01*
X297866624Y-100577976D01*
X296378529Y-99268452D02*
X297449958Y-100875595D01*
X295426148Y-100577976D02*
X295426148Y-99327976D01*
X295426148Y-100518452D02*
X295545196Y-100577976D01*
X295783291Y-100577976D01*
X295902339Y-100518452D01*
X295961863Y-100458928D01*
X296021386Y-100339880D01*
X296021386Y-99982738D01*
X295961863Y-99863690D01*
X295902339Y-99804166D01*
X295783291Y-99744642D01*
X295545196Y-99744642D01*
X295426148Y-99804166D01*
X294830910Y-100577976D02*
X294830910Y-99744642D01*
X294830910Y-99327976D02*
X294890434Y-99387500D01*
X294830910Y-99447023D01*
X294771386Y-99387500D01*
X294830910Y-99327976D01*
X294830910Y-99447023D01*
X293759482Y-100518452D02*
X293878529Y-100577976D01*
X294116624Y-100577976D01*
X294235672Y-100518452D01*
X294295196Y-100399404D01*
X294295196Y-99923214D01*
X294235672Y-99804166D01*
X294116624Y-99744642D01*
X293878529Y-99744642D01*
X293759482Y-99804166D01*
X293699958Y-99923214D01*
X293699958Y-100042261D01*
X294295196Y-100161309D01*
X293164244Y-100577976D02*
X293164244Y-99744642D01*
X293164244Y-99982738D02*
X293104720Y-99863690D01*
X293045196Y-99804166D01*
X292926148Y-99744642D01*
X292807101Y-99744642D01*
X292390434Y-100577976D02*
X292390434Y-99744642D01*
X292390434Y-99327976D02*
X292449958Y-99387500D01*
X292390434Y-99447023D01*
X292330910Y-99387500D01*
X292390434Y-99327976D01*
X292390434Y-99447023D01*
X291259482Y-100518452D02*
X291378529Y-100577976D01*
X291616624Y-100577976D01*
X291735672Y-100518452D01*
X291795196Y-100458928D01*
X291854720Y-100339880D01*
X291854720Y-99982738D01*
X291795196Y-99863690D01*
X291735672Y-99804166D01*
X291616624Y-99744642D01*
X291378529Y-99744642D01*
X291259482Y-99804166D01*
X290723767Y-100577976D02*
X290723767Y-99327976D01*
X290604720Y-100101785D02*
X290247577Y-100577976D01*
X290247577Y-99744642D02*
X290723767Y-100220833D01*
X289176148Y-100577976D02*
X289176148Y-99327976D01*
X289176148Y-100518452D02*
X289295196Y-100577976D01*
X289533291Y-100577976D01*
X289652339Y-100518452D01*
X289711863Y-100458928D01*
X289771386Y-100339880D01*
X289771386Y-99982738D01*
X289711863Y-99863690D01*
X289652339Y-99804166D01*
X289533291Y-99744642D01*
X289295196Y-99744642D01*
X289176148Y-99804166D01*
X288580910Y-100577976D02*
X288580910Y-99744642D01*
X288580910Y-99327976D02*
X288640434Y-99387500D01*
X288580910Y-99447023D01*
X288521386Y-99387500D01*
X288580910Y-99327976D01*
X288580910Y-99447023D01*
X287509482Y-100518452D02*
X287628529Y-100577976D01*
X287866624Y-100577976D01*
X287985672Y-100518452D01*
X288045196Y-100399404D01*
X288045196Y-99923214D01*
X287985672Y-99804166D01*
X287866624Y-99744642D01*
X287628529Y-99744642D01*
X287509482Y-99804166D01*
X287449958Y-99923214D01*
X287449958Y-100042261D01*
X288045196Y-100161309D01*
X341411011Y-100577976D02*
X341411011Y-99327976D01*
X341113392Y-99327976D01*
X340934821Y-99387500D01*
X340815773Y-99506547D01*
X340756250Y-99625595D01*
X340696726Y-99863690D01*
X340696726Y-100042261D01*
X340756250Y-100280357D01*
X340815773Y-100399404D01*
X340934821Y-100518452D01*
X341113392Y-100577976D01*
X341411011Y-100577976D01*
X339982440Y-100577976D02*
X340101488Y-100518452D01*
X340161011Y-100458928D01*
X340220535Y-100339880D01*
X340220535Y-99982738D01*
X340161011Y-99863690D01*
X340101488Y-99804166D01*
X339982440Y-99744642D01*
X339803869Y-99744642D01*
X339684821Y-99804166D01*
X339625297Y-99863690D01*
X339565773Y-99982738D01*
X339565773Y-100339880D01*
X339625297Y-100458928D01*
X339684821Y-100518452D01*
X339803869Y-100577976D01*
X339982440Y-100577976D01*
X339030059Y-100577976D02*
X339030059Y-99744642D01*
X339030059Y-99982738D02*
X338970535Y-99863690D01*
X338911011Y-99804166D01*
X338791964Y-99744642D01*
X338672916Y-99744642D01*
X338256250Y-100577976D02*
X338256250Y-99744642D01*
X338256250Y-99327976D02*
X338315773Y-99387500D01*
X338256250Y-99447023D01*
X338196726Y-99387500D01*
X338256250Y-99327976D01*
X338256250Y-99447023D01*
X335994345Y-100577976D02*
X336411011Y-99982738D01*
X336708630Y-100577976D02*
X336708630Y-99327976D01*
X336232440Y-99327976D01*
X336113392Y-99387500D01*
X336053869Y-99447023D01*
X335994345Y-99566071D01*
X335994345Y-99744642D01*
X336053869Y-99863690D01*
X336113392Y-99923214D01*
X336232440Y-99982738D01*
X336708630Y-99982738D01*
X334982440Y-100518452D02*
X335101488Y-100577976D01*
X335339583Y-100577976D01*
X335458630Y-100518452D01*
X335518154Y-100399404D01*
X335518154Y-99923214D01*
X335458630Y-99804166D01*
X335339583Y-99744642D01*
X335101488Y-99744642D01*
X334982440Y-99804166D01*
X334922916Y-99923214D01*
X334922916Y-100042261D01*
X335518154Y-100161309D01*
X334506250Y-99744642D02*
X334208630Y-100577976D01*
X333911011Y-99744642D01*
X331827678Y-100577976D02*
X332541964Y-100577976D01*
X332184821Y-100577976D02*
X332184821Y-99327976D01*
X332303869Y-99506547D01*
X332422916Y-99625595D01*
X332541964Y-99685119D01*
X331291964Y-100458928D02*
X331232440Y-100518452D01*
X331291964Y-100577976D01*
X331351488Y-100518452D01*
X331291964Y-100458928D01*
X331291964Y-100577976D01*
X330041964Y-100577976D02*
X330756250Y-100577976D01*
X330399107Y-100577976D02*
X330399107Y-99327976D01*
X330518154Y-99506547D01*
X330637202Y-99625595D01*
X330756250Y-99685119D01*
D12*
X107806547Y-138358630D02*
X107806547Y-139072916D01*
X107854166Y-139215773D01*
X107949404Y-139311011D01*
X108092261Y-139358630D01*
X108187500Y-139358630D01*
X106854166Y-139358630D02*
X107330357Y-139358630D01*
X107330357Y-138358630D01*
X105949404Y-139263392D02*
X105997023Y-139311011D01*
X106139880Y-139358630D01*
X106235119Y-139358630D01*
X106377976Y-139311011D01*
X106473214Y-139215773D01*
X106520833Y-139120535D01*
X106568452Y-138930059D01*
X106568452Y-138787202D01*
X106520833Y-138596726D01*
X106473214Y-138501488D01*
X106377976Y-138406250D01*
X106235119Y-138358630D01*
X106139880Y-138358630D01*
X105997023Y-138406250D01*
X105949404Y-138453869D01*
X105235119Y-138358630D02*
X105235119Y-139072916D01*
X105282738Y-139215773D01*
X105377976Y-139311011D01*
X105520833Y-139358630D01*
X105616071Y-139358630D01*
X104282738Y-139358630D02*
X104758928Y-139358630D01*
X104758928Y-138358630D01*
X103377976Y-139263392D02*
X103425595Y-139311011D01*
X103568452Y-139358630D01*
X103663690Y-139358630D01*
X103806547Y-139311011D01*
X103901785Y-139215773D01*
X103949404Y-139120535D01*
X103997023Y-138930059D01*
X103997023Y-138787202D01*
X103949404Y-138596726D01*
X103901785Y-138501488D01*
X103806547Y-138406250D01*
X103663690Y-138358630D01*
X103568452Y-138358630D01*
X103425595Y-138406250D01*
X103377976Y-138453869D01*
X102663690Y-138358630D02*
X102663690Y-139072916D01*
X102711309Y-139215773D01*
X102806547Y-139311011D01*
X102949404Y-139358630D01*
X103044642Y-139358630D01*
X101711309Y-139358630D02*
X102187500Y-139358630D01*
X102187500Y-138358630D01*
X100806547Y-139263392D02*
X100854166Y-139311011D01*
X100997023Y-139358630D01*
X101092261Y-139358630D01*
X101235119Y-139311011D01*
X101330357Y-139215773D01*
X101377976Y-139120535D01*
X101425595Y-138930059D01*
X101425595Y-138787202D01*
X101377976Y-138596726D01*
X101330357Y-138501488D01*
X101235119Y-138406250D01*
X101092261Y-138358630D01*
X100997023Y-138358630D01*
X100854166Y-138406250D01*
X100806547Y-138453869D01*
X100092261Y-138358630D02*
X100092261Y-139072916D01*
X100139880Y-139215773D01*
X100235119Y-139311011D01*
X100377976Y-139358630D01*
X100473214Y-139358630D01*
X99139880Y-139358630D02*
X99616071Y-139358630D01*
X99616071Y-138358630D01*
X98235119Y-139263392D02*
X98282738Y-139311011D01*
X98425595Y-139358630D01*
X98520833Y-139358630D01*
X98663690Y-139311011D01*
X98758928Y-139215773D01*
X98806547Y-139120535D01*
X98854166Y-138930059D01*
X98854166Y-138787202D01*
X98806547Y-138596726D01*
X98758928Y-138501488D01*
X98663690Y-138406250D01*
X98520833Y-138358630D01*
X98425595Y-138358630D01*
X98282738Y-138406250D01*
X98235119Y-138453869D01*
D13*
X390241250Y-80791233D02*
X390241250Y-81133767D01*
X389221250Y-80791233D02*
X389221250Y-81133767D01*
X101316250Y-80791233D02*
X101316250Y-81133767D01*
X100296250Y-80791233D02*
X100296250Y-81133767D01*
%LPC*%
D14*
X221853125Y-105171875D03*
X268697075Y-105171875D03*
X380218950Y-100012500D03*
X380218950Y-59918600D03*
X110331250Y-100012500D03*
X110331250Y-61912500D03*
X354806250Y-61912500D03*
X354806250Y-100012500D03*
X278606250Y-61912500D03*
X135731250Y-100012500D03*
X211931250Y-61912500D03*
X135731250Y-61912500D03*
D15*
G36*
X390020029Y-81262766D02*
G01*
X390045559Y-81266553D01*
X390070595Y-81272825D01*
X390094896Y-81281520D01*
X390118227Y-81292555D01*
X390140365Y-81305823D01*
X390161095Y-81321198D01*
X390180219Y-81338531D01*
X390197552Y-81357655D01*
X390212927Y-81378385D01*
X390226195Y-81400523D01*
X390237230Y-81423854D01*
X390245925Y-81448155D01*
X390252197Y-81473191D01*
X390255984Y-81498721D01*
X390257250Y-81524500D01*
X390257250Y-82150500D01*
X390255984Y-82176279D01*
X390252197Y-82201809D01*
X390245925Y-82226845D01*
X390237230Y-82251146D01*
X390226195Y-82274477D01*
X390212927Y-82296615D01*
X390197552Y-82317345D01*
X390180219Y-82336469D01*
X390161095Y-82353802D01*
X390140365Y-82369177D01*
X390118227Y-82382445D01*
X390094896Y-82393480D01*
X390070595Y-82402175D01*
X390045559Y-82408447D01*
X390020029Y-82412234D01*
X389994250Y-82413500D01*
X389468250Y-82413500D01*
X389442471Y-82412234D01*
X389416941Y-82408447D01*
X389391905Y-82402175D01*
X389367604Y-82393480D01*
X389344273Y-82382445D01*
X389322135Y-82369177D01*
X389301405Y-82353802D01*
X389282281Y-82336469D01*
X389264948Y-82317345D01*
X389249573Y-82296615D01*
X389236305Y-82274477D01*
X389225270Y-82251146D01*
X389216575Y-82226845D01*
X389210303Y-82201809D01*
X389206516Y-82176279D01*
X389205250Y-82150500D01*
X389205250Y-81524500D01*
X389206516Y-81498721D01*
X389210303Y-81473191D01*
X389216575Y-81448155D01*
X389225270Y-81423854D01*
X389236305Y-81400523D01*
X389249573Y-81378385D01*
X389264948Y-81357655D01*
X389282281Y-81338531D01*
X389301405Y-81321198D01*
X389322135Y-81305823D01*
X389344273Y-81292555D01*
X389367604Y-81281520D01*
X389391905Y-81272825D01*
X389416941Y-81266553D01*
X389442471Y-81262766D01*
X389468250Y-81261500D01*
X389994250Y-81261500D01*
X390020029Y-81262766D01*
X390020029Y-81262766D01*
G37*
D16*
X389731250Y-81837500D03*
D15*
G36*
X390020029Y-79512766D02*
G01*
X390045559Y-79516553D01*
X390070595Y-79522825D01*
X390094896Y-79531520D01*
X390118227Y-79542555D01*
X390140365Y-79555823D01*
X390161095Y-79571198D01*
X390180219Y-79588531D01*
X390197552Y-79607655D01*
X390212927Y-79628385D01*
X390226195Y-79650523D01*
X390237230Y-79673854D01*
X390245925Y-79698155D01*
X390252197Y-79723191D01*
X390255984Y-79748721D01*
X390257250Y-79774500D01*
X390257250Y-80400500D01*
X390255984Y-80426279D01*
X390252197Y-80451809D01*
X390245925Y-80476845D01*
X390237230Y-80501146D01*
X390226195Y-80524477D01*
X390212927Y-80546615D01*
X390197552Y-80567345D01*
X390180219Y-80586469D01*
X390161095Y-80603802D01*
X390140365Y-80619177D01*
X390118227Y-80632445D01*
X390094896Y-80643480D01*
X390070595Y-80652175D01*
X390045559Y-80658447D01*
X390020029Y-80662234D01*
X389994250Y-80663500D01*
X389468250Y-80663500D01*
X389442471Y-80662234D01*
X389416941Y-80658447D01*
X389391905Y-80652175D01*
X389367604Y-80643480D01*
X389344273Y-80632445D01*
X389322135Y-80619177D01*
X389301405Y-80603802D01*
X389282281Y-80586469D01*
X389264948Y-80567345D01*
X389249573Y-80546615D01*
X389236305Y-80524477D01*
X389225270Y-80501146D01*
X389216575Y-80476845D01*
X389210303Y-80451809D01*
X389206516Y-80426279D01*
X389205250Y-80400500D01*
X389205250Y-79774500D01*
X389206516Y-79748721D01*
X389210303Y-79723191D01*
X389216575Y-79698155D01*
X389225270Y-79673854D01*
X389236305Y-79650523D01*
X389249573Y-79628385D01*
X389264948Y-79607655D01*
X389282281Y-79588531D01*
X389301405Y-79571198D01*
X389322135Y-79555823D01*
X389344273Y-79542555D01*
X389367604Y-79531520D01*
X389391905Y-79522825D01*
X389416941Y-79516553D01*
X389442471Y-79512766D01*
X389468250Y-79511500D01*
X389994250Y-79511500D01*
X390020029Y-79512766D01*
X390020029Y-79512766D01*
G37*
D16*
X389731250Y-80087500D03*
D15*
G36*
X101095029Y-81262766D02*
G01*
X101120559Y-81266553D01*
X101145595Y-81272825D01*
X101169896Y-81281520D01*
X101193227Y-81292555D01*
X101215365Y-81305823D01*
X101236095Y-81321198D01*
X101255219Y-81338531D01*
X101272552Y-81357655D01*
X101287927Y-81378385D01*
X101301195Y-81400523D01*
X101312230Y-81423854D01*
X101320925Y-81448155D01*
X101327197Y-81473191D01*
X101330984Y-81498721D01*
X101332250Y-81524500D01*
X101332250Y-82150500D01*
X101330984Y-82176279D01*
X101327197Y-82201809D01*
X101320925Y-82226845D01*
X101312230Y-82251146D01*
X101301195Y-82274477D01*
X101287927Y-82296615D01*
X101272552Y-82317345D01*
X101255219Y-82336469D01*
X101236095Y-82353802D01*
X101215365Y-82369177D01*
X101193227Y-82382445D01*
X101169896Y-82393480D01*
X101145595Y-82402175D01*
X101120559Y-82408447D01*
X101095029Y-82412234D01*
X101069250Y-82413500D01*
X100543250Y-82413500D01*
X100517471Y-82412234D01*
X100491941Y-82408447D01*
X100466905Y-82402175D01*
X100442604Y-82393480D01*
X100419273Y-82382445D01*
X100397135Y-82369177D01*
X100376405Y-82353802D01*
X100357281Y-82336469D01*
X100339948Y-82317345D01*
X100324573Y-82296615D01*
X100311305Y-82274477D01*
X100300270Y-82251146D01*
X100291575Y-82226845D01*
X100285303Y-82201809D01*
X100281516Y-82176279D01*
X100280250Y-82150500D01*
X100280250Y-81524500D01*
X100281516Y-81498721D01*
X100285303Y-81473191D01*
X100291575Y-81448155D01*
X100300270Y-81423854D01*
X100311305Y-81400523D01*
X100324573Y-81378385D01*
X100339948Y-81357655D01*
X100357281Y-81338531D01*
X100376405Y-81321198D01*
X100397135Y-81305823D01*
X100419273Y-81292555D01*
X100442604Y-81281520D01*
X100466905Y-81272825D01*
X100491941Y-81266553D01*
X100517471Y-81262766D01*
X100543250Y-81261500D01*
X101069250Y-81261500D01*
X101095029Y-81262766D01*
X101095029Y-81262766D01*
G37*
D16*
X100806250Y-81837500D03*
D15*
G36*
X101095029Y-79512766D02*
G01*
X101120559Y-79516553D01*
X101145595Y-79522825D01*
X101169896Y-79531520D01*
X101193227Y-79542555D01*
X101215365Y-79555823D01*
X101236095Y-79571198D01*
X101255219Y-79588531D01*
X101272552Y-79607655D01*
X101287927Y-79628385D01*
X101301195Y-79650523D01*
X101312230Y-79673854D01*
X101320925Y-79698155D01*
X101327197Y-79723191D01*
X101330984Y-79748721D01*
X101332250Y-79774500D01*
X101332250Y-80400500D01*
X101330984Y-80426279D01*
X101327197Y-80451809D01*
X101320925Y-80476845D01*
X101312230Y-80501146D01*
X101301195Y-80524477D01*
X101287927Y-80546615D01*
X101272552Y-80567345D01*
X101255219Y-80586469D01*
X101236095Y-80603802D01*
X101215365Y-80619177D01*
X101193227Y-80632445D01*
X101169896Y-80643480D01*
X101145595Y-80652175D01*
X101120559Y-80658447D01*
X101095029Y-80662234D01*
X101069250Y-80663500D01*
X100543250Y-80663500D01*
X100517471Y-80662234D01*
X100491941Y-80658447D01*
X100466905Y-80652175D01*
X100442604Y-80643480D01*
X100419273Y-80632445D01*
X100397135Y-80619177D01*
X100376405Y-80603802D01*
X100357281Y-80586469D01*
X100339948Y-80567345D01*
X100324573Y-80546615D01*
X100311305Y-80524477D01*
X100300270Y-80501146D01*
X100291575Y-80476845D01*
X100285303Y-80451809D01*
X100281516Y-80426279D01*
X100280250Y-80400500D01*
X100280250Y-79774500D01*
X100281516Y-79748721D01*
X100285303Y-79723191D01*
X100291575Y-79698155D01*
X100300270Y-79673854D01*
X100311305Y-79650523D01*
X100324573Y-79628385D01*
X100339948Y-79607655D01*
X100357281Y-79588531D01*
X100376405Y-79571198D01*
X100397135Y-79555823D01*
X100419273Y-79542555D01*
X100442604Y-79531520D01*
X100466905Y-79522825D01*
X100491941Y-79516553D01*
X100517471Y-79512766D01*
X100543250Y-79511500D01*
X101069250Y-79511500D01*
X101095029Y-79512766D01*
X101095029Y-79512766D01*
G37*
D16*
X100806250Y-80087500D03*
D17*
X373062500Y-61912500D03*
X373062500Y-60388500D03*
X373062500Y-58864500D03*
X373062500Y-63690500D03*
X373062500Y-65214500D03*
X373062500Y-100012500D03*
X373062500Y-98488500D03*
X373062500Y-96964500D03*
X373062500Y-101536500D03*
X373062500Y-103060500D03*
X278606250Y-43656250D03*
X280130250Y-43656250D03*
X281654250Y-43656250D03*
X277082250Y-43656250D03*
X275558250Y-43656250D03*
X354806250Y-43656250D03*
X356330250Y-43656250D03*
X357854250Y-43656250D03*
X353282250Y-43656250D03*
X351758250Y-43656250D03*
X135731250Y-43656250D03*
X137255250Y-43656250D03*
X138779250Y-43656250D03*
X134207250Y-43656250D03*
X132683250Y-43656250D03*
X211931250Y-43656250D03*
X213455250Y-43656250D03*
X214979250Y-43656250D03*
X210407250Y-43656250D03*
X208883250Y-43656250D03*
X193675000Y-118268750D03*
X195199000Y-118268750D03*
X196723000Y-118268750D03*
X192151000Y-118268750D03*
X190627000Y-118268750D03*
X135731250Y-118268750D03*
X137255250Y-118268750D03*
X138779250Y-118268750D03*
X134207250Y-118268750D03*
X132683250Y-118268750D03*
X296862500Y-118268750D03*
X298386500Y-118268750D03*
X299910500Y-118268750D03*
X295338500Y-118268750D03*
X293814500Y-118268750D03*
X354806250Y-118268750D03*
X356330250Y-118268750D03*
X357854250Y-118268750D03*
X353282250Y-118268750D03*
X351758250Y-118268750D03*
X117403125Y-61912500D03*
X117403125Y-60515500D03*
X117403125Y-59118500D03*
X117403125Y-63309500D03*
X117403125Y-64706500D03*
X117402768Y-100012500D03*
X117402768Y-98615500D03*
X117402768Y-97218500D03*
X117402768Y-101409500D03*
X117402768Y-102806500D03*
M02*
