G04 #@! TF.GenerationSoftware,KiCad,Pcbnew,(5.1.4-0-10_14)*
G04 #@! TF.CreationDate,2020-08-09T17:10:10-05:00*
G04 #@! TF.ProjectId,Dori_top_plate,446f7269-5f74-46f7-905f-706c6174652e,rev?*
G04 #@! TF.SameCoordinates,Original*
G04 #@! TF.FileFunction,Profile,NP*
%FSLAX46Y46*%
G04 Gerber Fmt 4.6, Leading zero omitted, Abs format (unit mm)*
G04 Created by KiCad (PCBNEW (5.1.4-0-10_14)) date 2020-08-09 17:10:10*
%MOMM*%
%LPD*%
G04 APERTURE LIST*
%ADD10C,0.050000*%
%ADD11C,0.100000*%
G04 APERTURE END LIST*
D10*
X230584375Y-99615625D02*
X228155500Y-104013000D01*
X235016542Y-127811908D02*
G75*
G02X232981500Y-128254125I-1273043J954782D01*
G01*
X242633500Y-114554000D02*
X235016543Y-127811908D01*
X232981500Y-128254125D02*
X230187500Y-126603125D01*
X228248711Y-104427787D02*
G75*
G02X228155500Y-104013000I160788J253999D01*
G01*
X242191283Y-112518958D02*
G75*
G02X242633500Y-114554000I-954782J-1273043D01*
G01*
X200025000Y-118663431D02*
X230187500Y-126603125D01*
X228248711Y-104427787D02*
X242191283Y-112518957D01*
X262288789Y-104427787D02*
X248346217Y-112518957D01*
X259953125Y-99615625D02*
X262382000Y-104013000D01*
X200025000Y-118663431D02*
X197643750Y-118667819D01*
X373460089Y-104648000D02*
G75*
G02X375046875Y-104648000I793393J0D01*
G01*
X375046161Y-95377000D02*
G75*
G02X373459375Y-95377000I-793393J0D01*
G01*
X373460089Y-66802000D02*
G75*
G02X375046875Y-66802000I793393J0D01*
G01*
X375046875Y-46434375D02*
G75*
G02X378221875Y-43259375I3175000J0D01*
G01*
X375046161Y-57277000D02*
G75*
G02X373459375Y-57277000I-793393J0D01*
G01*
X117076697Y-57261125D02*
G75*
G02X115489911Y-57261125I-793393J0D01*
G01*
X115491339Y-66421000D02*
G75*
G02X117078125Y-66421000I793393J0D01*
G01*
X117077411Y-95504000D02*
G75*
G02X115490625Y-95504000I-793393J0D01*
G01*
X115490982Y-104521000D02*
G75*
G02X117077768Y-104521000I793393J0D01*
G01*
X290512500Y-118663431D02*
X260350000Y-126603125D01*
X248346217Y-112518958D02*
G75*
G03X247904000Y-114554000I954782J-1273043D01*
G01*
X290512500Y-118663431D02*
X292893750Y-118665625D01*
X262288789Y-104427787D02*
G75*
G03X262382000Y-104013000I-160788J253999D01*
G01*
X257556000Y-128254125D02*
X260350000Y-126603125D01*
X247904000Y-114554000D02*
X255520957Y-127811908D01*
X255520958Y-127811908D02*
G75*
G03X257556000Y-128254125I1273043J954782D01*
G01*
X398859375Y-140493750D02*
G75*
G02X398065625Y-141287500I-793750J0D01*
G01*
X398065625Y-123825000D02*
G75*
G02X398859375Y-124618750I0J-793750D01*
G01*
X358775000Y-123825000D02*
G75*
G02X357981250Y-123031250I0J793750D01*
G01*
X357981250Y-119459375D02*
G75*
G02X358775000Y-118665625I793750J0D01*
G01*
X351631250Y-123031250D02*
G75*
G02X350837500Y-123825000I-793750J0D01*
G01*
X350837500Y-118665625D02*
G75*
G02X351631250Y-119459375I0J-793750D01*
G01*
X300831250Y-123825000D02*
G75*
G02X300037500Y-123031250I0J793750D01*
G01*
X300037500Y-119459375D02*
G75*
G02X300831250Y-118665625I793750J0D01*
G01*
X91678125Y-30956250D02*
G75*
G02X92471875Y-30162500I793750J0D01*
G01*
X91678125Y-38100000D02*
X91678125Y-30956250D01*
X398065625Y-30162500D02*
G75*
G02X398859375Y-30956250I0J-793750D01*
G01*
X398859375Y-38100000D02*
G75*
G02X398065625Y-38893750I-793750J0D01*
G01*
X351631250Y-42465625D02*
G75*
G02X350837500Y-43259375I-793750J0D01*
G01*
X350837500Y-38893750D02*
G75*
G02X351631250Y-39687500I0J-793750D01*
G01*
X282575000Y-43259375D02*
G75*
G02X281781250Y-42465625I0J793750D01*
G01*
X281781250Y-39687500D02*
G75*
G02X282575000Y-38893750I793750J0D01*
G01*
X259953125Y-46434375D02*
G75*
G02X263128125Y-43259375I3175000J0D01*
G01*
X275431250Y-42465625D02*
G75*
G02X274637500Y-43259375I-793750J0D01*
G01*
X274637500Y-38893750D02*
G75*
G02X275431250Y-39687500I0J-793750D01*
G01*
X357981250Y-39687500D02*
G75*
G02X358775000Y-38893750I793750J0D01*
G01*
X358775000Y-43259375D02*
G75*
G02X357981250Y-42465625I0J793750D01*
G01*
X370284375Y-43259375D02*
G75*
G02X373459375Y-46434375I0J-3175000D01*
G01*
X395684375Y-43259375D02*
G75*
G02X398859375Y-46434375I0J-3175000D01*
G01*
X398859375Y-115490625D02*
G75*
G02X395684375Y-118665625I-3175000J0D01*
G01*
X378221875Y-118665625D02*
G75*
G02X375046875Y-115490625I0J3175000D01*
G01*
X373459375Y-115490625D02*
G75*
G02X370284375Y-118665625I-3175000J0D01*
G01*
X293687500Y-123031250D02*
G75*
G02X292893750Y-123825000I-793750J0D01*
G01*
X292893750Y-118665625D02*
G75*
G02X293687500Y-119459375I0J-793750D01*
G01*
X275034375Y-124618750D02*
G75*
G02X275828125Y-123825000I793750J0D01*
G01*
X275034375Y-131762500D02*
G75*
G02X274240625Y-132556250I-793750J0D01*
G01*
X215900000Y-132556250D02*
G75*
G02X215106250Y-131762500I0J793750D01*
G01*
X214312500Y-123825000D02*
G75*
G02X215106250Y-124618750I0J-793750D01*
G01*
X227409375Y-43259375D02*
G75*
G02X230584375Y-46434375I0J-3175000D01*
G01*
X215106250Y-39687500D02*
G75*
G02X215900000Y-38893750I793750J0D01*
G01*
X215900000Y-43259375D02*
G75*
G02X215106250Y-42465625I0J793750D01*
G01*
X207962500Y-38893750D02*
G75*
G02X208756250Y-39687500I0J-793750D01*
G01*
X208756250Y-42465625D02*
G75*
G02X207962500Y-43259375I-793750J0D01*
G01*
X138906250Y-39687500D02*
G75*
G02X139700000Y-38893750I793750J0D01*
G01*
X139700000Y-43259375D02*
G75*
G02X138906250Y-42465625I0J793750D01*
G01*
X197643750Y-123825000D02*
G75*
G02X196850000Y-123031250I0J793750D01*
G01*
X196850000Y-119459375D02*
G75*
G02X197643750Y-118665625I793750J0D01*
G01*
X190500000Y-123031250D02*
G75*
G02X189706250Y-123825000I-793750J0D01*
G01*
X189706250Y-118665625D02*
G75*
G02X190500000Y-119459375I0J-793750D01*
G01*
X139700000Y-123825000D02*
G75*
G02X138906250Y-123031250I0J793750D01*
G01*
X138906250Y-119459375D02*
G75*
G02X139700000Y-118665625I793750J0D01*
G01*
X92471875Y-141287500D02*
G75*
G02X91678125Y-140493750I0J793750D01*
G01*
X91678125Y-124618750D02*
G75*
G02X92471875Y-123825000I793750J0D01*
G01*
X132556250Y-123031250D02*
G75*
G02X131762500Y-123825000I-793750J0D01*
G01*
X131762500Y-118665625D02*
G75*
G02X132556250Y-119459375I0J-793750D01*
G01*
X120253125Y-118665625D02*
G75*
G02X117078125Y-115490625I0J3175000D01*
G01*
X115490625Y-115490625D02*
G75*
G02X112315625Y-118665625I-3175000J0D01*
G01*
X92471875Y-38893750D02*
G75*
G02X91678125Y-38100000I0J793750D01*
G01*
X131762500Y-38893750D02*
G75*
G02X132556250Y-39687500I0J-793750D01*
G01*
X132556250Y-42465625D02*
G75*
G02X131762500Y-43259375I-793750J0D01*
G01*
X117078125Y-46434375D02*
G75*
G02X120253125Y-43259375I3175000J0D01*
G01*
X112315625Y-43259375D02*
G75*
G02X115490625Y-46434375I0J-3175000D01*
G01*
X91678125Y-46434375D02*
G75*
G02X94853125Y-43259375I3175000J0D01*
G01*
X94853125Y-118665625D02*
G75*
G02X91678125Y-115490625I0J3175000D01*
G01*
X373459375Y-115490625D02*
X373459375Y-104648000D01*
X375046161Y-57277000D02*
X375046875Y-46434375D01*
X373459375Y-46434375D02*
X373459375Y-57277000D01*
X375046875Y-115490625D02*
X375046875Y-104648000D01*
X378221875Y-118665625D02*
X395684375Y-118665625D01*
X373459375Y-66802000D02*
X373458661Y-95377000D01*
X375046875Y-66802000D02*
X375046161Y-95377000D01*
X395684375Y-43259375D02*
X378221875Y-43259375D01*
X398859375Y-115490625D02*
X398859375Y-46434375D01*
X274240625Y-132556250D02*
X215900000Y-132556250D01*
X275034375Y-124618750D02*
X275034375Y-131762500D01*
X275828125Y-123825000D02*
X292893750Y-123825000D01*
X398859375Y-124618750D02*
X398859375Y-140493750D01*
X398065625Y-123825000D02*
X358775000Y-123825000D01*
X92471875Y-141287500D02*
X398065625Y-141287500D01*
X91678125Y-124618750D02*
X91678125Y-140493750D01*
X215106250Y-124618750D02*
X215106250Y-131762500D01*
X214312500Y-123825000D02*
X197643750Y-123825000D01*
X131762500Y-123825000D02*
X92471875Y-123825000D01*
X139700000Y-123825000D02*
X189706250Y-123825000D01*
X131762500Y-118665625D02*
X120253125Y-118665625D01*
X189706250Y-118665625D02*
X139700000Y-118665625D01*
X190500000Y-119459375D02*
X190500000Y-123031250D01*
X196850000Y-119459375D02*
X196850000Y-123031250D01*
X132556250Y-119459375D02*
X132556250Y-123031250D01*
X138906250Y-119459375D02*
X138906250Y-123031250D01*
X358775000Y-118665625D02*
X370284375Y-118665625D01*
X300831250Y-118665625D02*
X350837500Y-118665625D01*
X300831250Y-123825000D02*
X350837500Y-123825000D01*
X293687500Y-119459375D02*
X293687500Y-123031250D01*
X300037500Y-119459375D02*
X300037500Y-123031250D01*
X351631250Y-119459375D02*
X351631250Y-123031250D01*
X357981250Y-119459375D02*
X357981250Y-123031250D01*
X207962500Y-43259375D02*
X139700000Y-43259375D01*
X227409375Y-43259375D02*
X215900000Y-43259375D01*
X131762500Y-43259375D02*
X120253125Y-43259375D01*
X398065625Y-38893750D02*
X358775000Y-38893750D01*
X357981250Y-39687500D02*
X357981250Y-42465625D01*
X351631250Y-39687500D02*
X351631250Y-42465625D01*
X282575000Y-38893750D02*
X350837500Y-38893750D01*
X358775000Y-43259375D02*
X370284375Y-43259375D01*
X282575000Y-43259375D02*
X350837500Y-43259375D01*
X281781250Y-39687500D02*
X281781250Y-42465625D01*
X274637500Y-43259375D02*
X263128125Y-43259375D01*
X275431250Y-39687500D02*
X275431250Y-42465625D01*
X215900000Y-38893750D02*
X274637500Y-38893750D01*
X215106250Y-39687500D02*
X215106250Y-42465625D01*
X208756250Y-39687500D02*
X208756250Y-42465625D01*
X139700000Y-38893750D02*
X207962500Y-38893750D01*
X131762500Y-38893750D02*
X92471875Y-38893750D01*
X138906250Y-39687500D02*
X138906250Y-42465625D01*
X132556250Y-39687500D02*
X132556250Y-42465625D01*
X398859375Y-30956250D02*
X398859375Y-38100000D01*
X92471875Y-30162500D02*
X398065625Y-30162500D01*
X230584375Y-46434375D02*
X230584375Y-99615625D01*
X259953125Y-46434375D02*
X259953125Y-99615625D01*
X91678125Y-115490625D02*
X91678125Y-46434375D01*
X94853125Y-43259375D02*
X112315625Y-43259375D01*
X115491339Y-66421000D02*
X115490625Y-95504000D01*
X117078125Y-66421000D02*
X117077411Y-95504000D01*
X112315625Y-118665625D02*
X94853125Y-118665625D01*
X115490625Y-115490625D02*
X115490982Y-104521000D01*
X117078125Y-46434375D02*
X117076697Y-57261125D01*
X115489911Y-57261125D02*
X115490625Y-46434375D01*
X117078125Y-115490625D02*
X117077768Y-104521000D01*
D11*
X351981250Y-59387500D02*
X338581250Y-59387500D01*
X338581250Y-59387500D02*
G75*
G02X338281250Y-59087500I0J300000D01*
G01*
X338281250Y-59087500D02*
X338281250Y-58687500D01*
X338281250Y-45687500D02*
G75*
G02X338581250Y-45387500I300000J0D01*
G01*
X351981250Y-45387500D02*
X338581250Y-45387500D01*
X338281250Y-49787500D02*
X338281250Y-54987500D01*
X338281250Y-46087500D02*
X338281250Y-45687500D01*
X352281250Y-58687500D02*
X352281250Y-59087500D01*
X351981250Y-45387500D02*
G75*
G02X352281250Y-45687500I0J-300000D01*
G01*
X353281250Y-49287500D02*
G75*
G02X353081250Y-49487500I-200000J0D01*
G01*
X352281250Y-49787500D02*
G75*
G02X352581250Y-49487500I300000J0D01*
G01*
X352581250Y-46387500D02*
X352981250Y-46387500D01*
X353281250Y-49287500D02*
X353281250Y-46687500D01*
X353081250Y-49487500D02*
X352581250Y-49487500D01*
X352281250Y-54987500D02*
X352281250Y-49787500D01*
X352281250Y-59087500D02*
G75*
G02X351981250Y-59387500I-300000J0D01*
G01*
X352581250Y-46387500D02*
G75*
G02X352281250Y-46087500I0J300000D01*
G01*
X352981250Y-46387500D02*
G75*
G02X353281250Y-46687500I0J-300000D01*
G01*
X352281250Y-45687500D02*
X352281250Y-46087500D01*
X352581250Y-55287500D02*
G75*
G02X352281250Y-54987500I0J300000D01*
G01*
X352981250Y-55287500D02*
G75*
G02X353281250Y-55587500I0J-300000D01*
G01*
X353081250Y-58387500D02*
X352581250Y-58387500D01*
X353281250Y-58187500D02*
X353281250Y-55587500D01*
X352581250Y-55287500D02*
X352981250Y-55287500D01*
X352281250Y-58687500D02*
G75*
G02X352581250Y-58387500I300000J0D01*
G01*
X353281250Y-58187500D02*
G75*
G02X353081250Y-58387500I-200000J0D01*
G01*
X337281250Y-55487500D02*
G75*
G02X337481250Y-55287500I200000J0D01*
G01*
X338281250Y-54987500D02*
G75*
G02X337981250Y-55287500I-300000J0D01*
G01*
X337981250Y-58387500D02*
X337581250Y-58387500D01*
X337281250Y-55487500D02*
X337281250Y-58087500D01*
X337481250Y-55287500D02*
X337981250Y-55287500D01*
X337581250Y-58387500D02*
G75*
G02X337281250Y-58087500I0J300000D01*
G01*
X337981250Y-58387500D02*
G75*
G02X338281250Y-58687500I0J-300000D01*
G01*
X337481250Y-46387500D02*
X337981250Y-46387500D01*
X337981250Y-49487500D02*
X337581250Y-49487500D01*
X337281250Y-46587500D02*
X337281250Y-49187500D01*
X338281250Y-46087500D02*
G75*
G02X337981250Y-46387500I-300000J0D01*
G01*
X337981250Y-49487500D02*
G75*
G02X338281250Y-49787500I0J-300000D01*
G01*
X337581250Y-49487500D02*
G75*
G02X337281250Y-49187500I0J300000D01*
G01*
X337281250Y-46587500D02*
G75*
G02X337481250Y-46387500I200000J0D01*
G01*
X396431250Y-116537500D02*
X383031250Y-116537500D01*
X383031250Y-116537500D02*
G75*
G02X382731250Y-116237500I0J300000D01*
G01*
X382731250Y-116237500D02*
X382731250Y-115837500D01*
X382731250Y-102837500D02*
G75*
G02X383031250Y-102537500I300000J0D01*
G01*
X396431250Y-102537500D02*
X383031250Y-102537500D01*
X382731250Y-106937500D02*
X382731250Y-112137500D01*
X382731250Y-103237500D02*
X382731250Y-102837500D01*
X396731250Y-115837500D02*
X396731250Y-116237500D01*
X396431250Y-102537500D02*
G75*
G02X396731250Y-102837500I0J-300000D01*
G01*
X397731250Y-106437500D02*
G75*
G02X397531250Y-106637500I-200000J0D01*
G01*
X396731250Y-106937500D02*
G75*
G02X397031250Y-106637500I300000J0D01*
G01*
X397031250Y-103537500D02*
X397431250Y-103537500D01*
X397731250Y-106437500D02*
X397731250Y-103837500D01*
X397531250Y-106637500D02*
X397031250Y-106637500D01*
X396731250Y-112137500D02*
X396731250Y-106937500D01*
X396731250Y-116237500D02*
G75*
G02X396431250Y-116537500I-300000J0D01*
G01*
X397031250Y-103537500D02*
G75*
G02X396731250Y-103237500I0J300000D01*
G01*
X397431250Y-103537500D02*
G75*
G02X397731250Y-103837500I0J-300000D01*
G01*
X396731250Y-102837500D02*
X396731250Y-103237500D01*
X397031250Y-112437500D02*
G75*
G02X396731250Y-112137500I0J300000D01*
G01*
X397431250Y-112437500D02*
G75*
G02X397731250Y-112737500I0J-300000D01*
G01*
X397531250Y-115537500D02*
X397031250Y-115537500D01*
X397731250Y-115337500D02*
X397731250Y-112737500D01*
X397031250Y-112437500D02*
X397431250Y-112437500D01*
X396731250Y-115837500D02*
G75*
G02X397031250Y-115537500I300000J0D01*
G01*
X397731250Y-115337500D02*
G75*
G02X397531250Y-115537500I-200000J0D01*
G01*
X381731250Y-112637500D02*
G75*
G02X381931250Y-112437500I200000J0D01*
G01*
X382731250Y-112137500D02*
G75*
G02X382431250Y-112437500I-300000J0D01*
G01*
X382431250Y-115537500D02*
X382031250Y-115537500D01*
X381731250Y-112637500D02*
X381731250Y-115237500D01*
X381931250Y-112437500D02*
X382431250Y-112437500D01*
X382031250Y-115537500D02*
G75*
G02X381731250Y-115237500I0J300000D01*
G01*
X382431250Y-115537500D02*
G75*
G02X382731250Y-115837500I0J-300000D01*
G01*
X381931250Y-103537500D02*
X382431250Y-103537500D01*
X382431250Y-106637500D02*
X382031250Y-106637500D01*
X381731250Y-103737500D02*
X381731250Y-106337500D01*
X382731250Y-103237500D02*
G75*
G02X382431250Y-103537500I-300000J0D01*
G01*
X382431250Y-106637500D02*
G75*
G02X382731250Y-106937500I0J-300000D01*
G01*
X382031250Y-106637500D02*
G75*
G02X381731250Y-106337500I0J300000D01*
G01*
X381731250Y-103737500D02*
G75*
G02X381931250Y-103537500I200000J0D01*
G01*
X371031250Y-116537500D02*
X357631250Y-116537500D01*
X357631250Y-116537500D02*
G75*
G02X357331250Y-116237500I0J300000D01*
G01*
X357331250Y-116237500D02*
X357331250Y-115837500D01*
X357331250Y-102837500D02*
G75*
G02X357631250Y-102537500I300000J0D01*
G01*
X371031250Y-102537500D02*
X357631250Y-102537500D01*
X357331250Y-106937500D02*
X357331250Y-112137500D01*
X357331250Y-103237500D02*
X357331250Y-102837500D01*
X371331250Y-115837500D02*
X371331250Y-116237500D01*
X371031250Y-102537500D02*
G75*
G02X371331250Y-102837500I0J-300000D01*
G01*
X372331250Y-106437500D02*
G75*
G02X372131250Y-106637500I-200000J0D01*
G01*
X371331250Y-106937500D02*
G75*
G02X371631250Y-106637500I300000J0D01*
G01*
X371631250Y-103537500D02*
X372031250Y-103537500D01*
X372331250Y-106437500D02*
X372331250Y-103837500D01*
X372131250Y-106637500D02*
X371631250Y-106637500D01*
X371331250Y-112137500D02*
X371331250Y-106937500D01*
X371331250Y-116237500D02*
G75*
G02X371031250Y-116537500I-300000J0D01*
G01*
X371631250Y-103537500D02*
G75*
G02X371331250Y-103237500I0J300000D01*
G01*
X372031250Y-103537500D02*
G75*
G02X372331250Y-103837500I0J-300000D01*
G01*
X371331250Y-102837500D02*
X371331250Y-103237500D01*
X371631250Y-112437500D02*
G75*
G02X371331250Y-112137500I0J300000D01*
G01*
X372031250Y-112437500D02*
G75*
G02X372331250Y-112737500I0J-300000D01*
G01*
X372131250Y-115537500D02*
X371631250Y-115537500D01*
X372331250Y-115337500D02*
X372331250Y-112737500D01*
X371631250Y-112437500D02*
X372031250Y-112437500D01*
X371331250Y-115837500D02*
G75*
G02X371631250Y-115537500I300000J0D01*
G01*
X372331250Y-115337500D02*
G75*
G02X372131250Y-115537500I-200000J0D01*
G01*
X356331250Y-112637500D02*
G75*
G02X356531250Y-112437500I200000J0D01*
G01*
X357331250Y-112137500D02*
G75*
G02X357031250Y-112437500I-300000J0D01*
G01*
X357031250Y-115537500D02*
X356631250Y-115537500D01*
X356331250Y-112637500D02*
X356331250Y-115237500D01*
X356531250Y-112437500D02*
X357031250Y-112437500D01*
X356631250Y-115537500D02*
G75*
G02X356331250Y-115237500I0J300000D01*
G01*
X357031250Y-115537500D02*
G75*
G02X357331250Y-115837500I0J-300000D01*
G01*
X356531250Y-103537500D02*
X357031250Y-103537500D01*
X357031250Y-106637500D02*
X356631250Y-106637500D01*
X356331250Y-103737500D02*
X356331250Y-106337500D01*
X357331250Y-103237500D02*
G75*
G02X357031250Y-103537500I-300000J0D01*
G01*
X357031250Y-106637500D02*
G75*
G02X357331250Y-106937500I0J-300000D01*
G01*
X356631250Y-106637500D02*
G75*
G02X356331250Y-106337500I0J300000D01*
G01*
X356331250Y-103737500D02*
G75*
G02X356531250Y-103537500I200000J0D01*
G01*
X351981250Y-116537500D02*
X338581250Y-116537500D01*
X338581250Y-116537500D02*
G75*
G02X338281250Y-116237500I0J300000D01*
G01*
X338281250Y-116237500D02*
X338281250Y-115837500D01*
X338281250Y-102837500D02*
G75*
G02X338581250Y-102537500I300000J0D01*
G01*
X351981250Y-102537500D02*
X338581250Y-102537500D01*
X338281250Y-106937500D02*
X338281250Y-112137500D01*
X338281250Y-103237500D02*
X338281250Y-102837500D01*
X352281250Y-115837500D02*
X352281250Y-116237500D01*
X351981250Y-102537500D02*
G75*
G02X352281250Y-102837500I0J-300000D01*
G01*
X353281250Y-106437500D02*
G75*
G02X353081250Y-106637500I-200000J0D01*
G01*
X352281250Y-106937500D02*
G75*
G02X352581250Y-106637500I300000J0D01*
G01*
X352581250Y-103537500D02*
X352981250Y-103537500D01*
X353281250Y-106437500D02*
X353281250Y-103837500D01*
X353081250Y-106637500D02*
X352581250Y-106637500D01*
X352281250Y-112137500D02*
X352281250Y-106937500D01*
X352281250Y-116237500D02*
G75*
G02X351981250Y-116537500I-300000J0D01*
G01*
X352581250Y-103537500D02*
G75*
G02X352281250Y-103237500I0J300000D01*
G01*
X352981250Y-103537500D02*
G75*
G02X353281250Y-103837500I0J-300000D01*
G01*
X352281250Y-102837500D02*
X352281250Y-103237500D01*
X352581250Y-112437500D02*
G75*
G02X352281250Y-112137500I0J300000D01*
G01*
X352981250Y-112437500D02*
G75*
G02X353281250Y-112737500I0J-300000D01*
G01*
X353081250Y-115537500D02*
X352581250Y-115537500D01*
X353281250Y-115337500D02*
X353281250Y-112737500D01*
X352581250Y-112437500D02*
X352981250Y-112437500D01*
X352281250Y-115837500D02*
G75*
G02X352581250Y-115537500I300000J0D01*
G01*
X353281250Y-115337500D02*
G75*
G02X353081250Y-115537500I-200000J0D01*
G01*
X337281250Y-112637500D02*
G75*
G02X337481250Y-112437500I200000J0D01*
G01*
X338281250Y-112137500D02*
G75*
G02X337981250Y-112437500I-300000J0D01*
G01*
X337981250Y-115537500D02*
X337581250Y-115537500D01*
X337281250Y-112637500D02*
X337281250Y-115237500D01*
X337481250Y-112437500D02*
X337981250Y-112437500D01*
X337581250Y-115537500D02*
G75*
G02X337281250Y-115237500I0J300000D01*
G01*
X337981250Y-115537500D02*
G75*
G02X338281250Y-115837500I0J-300000D01*
G01*
X337481250Y-103537500D02*
X337981250Y-103537500D01*
X337981250Y-106637500D02*
X337581250Y-106637500D01*
X337281250Y-103737500D02*
X337281250Y-106337500D01*
X338281250Y-103237500D02*
G75*
G02X337981250Y-103537500I-300000J0D01*
G01*
X337981250Y-106637500D02*
G75*
G02X338281250Y-106937500I0J-300000D01*
G01*
X337581250Y-106637500D02*
G75*
G02X337281250Y-106337500I0J300000D01*
G01*
X337281250Y-103737500D02*
G75*
G02X337481250Y-103537500I200000J0D01*
G01*
X332931250Y-116537500D02*
X319531250Y-116537500D01*
X319531250Y-116537500D02*
G75*
G02X319231250Y-116237500I0J300000D01*
G01*
X319231250Y-116237500D02*
X319231250Y-115837500D01*
X319231250Y-102837500D02*
G75*
G02X319531250Y-102537500I300000J0D01*
G01*
X332931250Y-102537500D02*
X319531250Y-102537500D01*
X319231250Y-106937500D02*
X319231250Y-112137500D01*
X319231250Y-103237500D02*
X319231250Y-102837500D01*
X333231250Y-115837500D02*
X333231250Y-116237500D01*
X332931250Y-102537500D02*
G75*
G02X333231250Y-102837500I0J-300000D01*
G01*
X334231250Y-106437500D02*
G75*
G02X334031250Y-106637500I-200000J0D01*
G01*
X333231250Y-106937500D02*
G75*
G02X333531250Y-106637500I300000J0D01*
G01*
X333531250Y-103537500D02*
X333931250Y-103537500D01*
X334231250Y-106437500D02*
X334231250Y-103837500D01*
X334031250Y-106637500D02*
X333531250Y-106637500D01*
X333231250Y-112137500D02*
X333231250Y-106937500D01*
X333231250Y-116237500D02*
G75*
G02X332931250Y-116537500I-300000J0D01*
G01*
X333531250Y-103537500D02*
G75*
G02X333231250Y-103237500I0J300000D01*
G01*
X333931250Y-103537500D02*
G75*
G02X334231250Y-103837500I0J-300000D01*
G01*
X333231250Y-102837500D02*
X333231250Y-103237500D01*
X333531250Y-112437500D02*
G75*
G02X333231250Y-112137500I0J300000D01*
G01*
X333931250Y-112437500D02*
G75*
G02X334231250Y-112737500I0J-300000D01*
G01*
X334031250Y-115537500D02*
X333531250Y-115537500D01*
X334231250Y-115337500D02*
X334231250Y-112737500D01*
X333531250Y-112437500D02*
X333931250Y-112437500D01*
X333231250Y-115837500D02*
G75*
G02X333531250Y-115537500I300000J0D01*
G01*
X334231250Y-115337500D02*
G75*
G02X334031250Y-115537500I-200000J0D01*
G01*
X318231250Y-112637500D02*
G75*
G02X318431250Y-112437500I200000J0D01*
G01*
X319231250Y-112137500D02*
G75*
G02X318931250Y-112437500I-300000J0D01*
G01*
X318931250Y-115537500D02*
X318531250Y-115537500D01*
X318231250Y-112637500D02*
X318231250Y-115237500D01*
X318431250Y-112437500D02*
X318931250Y-112437500D01*
X318531250Y-115537500D02*
G75*
G02X318231250Y-115237500I0J300000D01*
G01*
X318931250Y-115537500D02*
G75*
G02X319231250Y-115837500I0J-300000D01*
G01*
X318431250Y-103537500D02*
X318931250Y-103537500D01*
X318931250Y-106637500D02*
X318531250Y-106637500D01*
X318231250Y-103737500D02*
X318231250Y-106337500D01*
X319231250Y-103237500D02*
G75*
G02X318931250Y-103537500I-300000J0D01*
G01*
X318931250Y-106637500D02*
G75*
G02X319231250Y-106937500I0J-300000D01*
G01*
X318531250Y-106637500D02*
G75*
G02X318231250Y-106337500I0J300000D01*
G01*
X318231250Y-103737500D02*
G75*
G02X318431250Y-103537500I200000J0D01*
G01*
X313881250Y-116537500D02*
X300481250Y-116537500D01*
X300481250Y-116537500D02*
G75*
G02X300181250Y-116237500I0J300000D01*
G01*
X300181250Y-116237500D02*
X300181250Y-115837500D01*
X300181250Y-102837500D02*
G75*
G02X300481250Y-102537500I300000J0D01*
G01*
X313881250Y-102537500D02*
X300481250Y-102537500D01*
X300181250Y-106937500D02*
X300181250Y-112137500D01*
X300181250Y-103237500D02*
X300181250Y-102837500D01*
X314181250Y-115837500D02*
X314181250Y-116237500D01*
X313881250Y-102537500D02*
G75*
G02X314181250Y-102837500I0J-300000D01*
G01*
X315181250Y-106437500D02*
G75*
G02X314981250Y-106637500I-200000J0D01*
G01*
X314181250Y-106937500D02*
G75*
G02X314481250Y-106637500I300000J0D01*
G01*
X314481250Y-103537500D02*
X314881250Y-103537500D01*
X315181250Y-106437500D02*
X315181250Y-103837500D01*
X314981250Y-106637500D02*
X314481250Y-106637500D01*
X314181250Y-112137500D02*
X314181250Y-106937500D01*
X314181250Y-116237500D02*
G75*
G02X313881250Y-116537500I-300000J0D01*
G01*
X314481250Y-103537500D02*
G75*
G02X314181250Y-103237500I0J300000D01*
G01*
X314881250Y-103537500D02*
G75*
G02X315181250Y-103837500I0J-300000D01*
G01*
X314181250Y-102837500D02*
X314181250Y-103237500D01*
X314481250Y-112437500D02*
G75*
G02X314181250Y-112137500I0J300000D01*
G01*
X314881250Y-112437500D02*
G75*
G02X315181250Y-112737500I0J-300000D01*
G01*
X314981250Y-115537500D02*
X314481250Y-115537500D01*
X315181250Y-115337500D02*
X315181250Y-112737500D01*
X314481250Y-112437500D02*
X314881250Y-112437500D01*
X314181250Y-115837500D02*
G75*
G02X314481250Y-115537500I300000J0D01*
G01*
X315181250Y-115337500D02*
G75*
G02X314981250Y-115537500I-200000J0D01*
G01*
X299181250Y-112637500D02*
G75*
G02X299381250Y-112437500I200000J0D01*
G01*
X300181250Y-112137500D02*
G75*
G02X299881250Y-112437500I-300000J0D01*
G01*
X299881250Y-115537500D02*
X299481250Y-115537500D01*
X299181250Y-112637500D02*
X299181250Y-115237500D01*
X299381250Y-112437500D02*
X299881250Y-112437500D01*
X299481250Y-115537500D02*
G75*
G02X299181250Y-115237500I0J300000D01*
G01*
X299881250Y-115537500D02*
G75*
G02X300181250Y-115837500I0J-300000D01*
G01*
X299381250Y-103537500D02*
X299881250Y-103537500D01*
X299881250Y-106637500D02*
X299481250Y-106637500D01*
X299181250Y-103737500D02*
X299181250Y-106337500D01*
X300181250Y-103237500D02*
G75*
G02X299881250Y-103537500I-300000J0D01*
G01*
X299881250Y-106637500D02*
G75*
G02X300181250Y-106937500I0J-300000D01*
G01*
X299481250Y-106637500D02*
G75*
G02X299181250Y-106337500I0J300000D01*
G01*
X299181250Y-103737500D02*
G75*
G02X299381250Y-103537500I200000J0D01*
G01*
X288477186Y-116946143D02*
X275533780Y-120414318D01*
X275533780Y-120414319D02*
G75*
G02X275166357Y-120202186I-77645J289778D01*
G01*
X275166357Y-120202186D02*
X275062829Y-119815816D01*
X271698181Y-107258780D02*
G75*
G02X271910314Y-106891357I289778J77645D01*
G01*
X284853720Y-103423182D02*
X271910314Y-106891357D01*
X272759340Y-111219076D02*
X274105199Y-116241890D01*
X271801709Y-107645151D02*
X271698182Y-107258780D01*
X288585791Y-116192349D02*
X288689318Y-116578720D01*
X284853720Y-103423181D02*
G75*
G02X285221143Y-103635314I77645J-289778D01*
G01*
X287118818Y-106853827D02*
G75*
G02X286977396Y-107098777I-193186J-51764D01*
G01*
X286282301Y-107595610D02*
G75*
G02X286494433Y-107228186I289778J77646D01*
G01*
X285692094Y-104233816D02*
X286078465Y-104130288D01*
X287118818Y-106853828D02*
X286445888Y-104342420D01*
X286977396Y-107098777D02*
X286494433Y-107228186D01*
X287628160Y-112618424D02*
X286282301Y-107595610D01*
X288689319Y-116578720D02*
G75*
G02X288477186Y-116946143I-289778J-77645D01*
G01*
X285692095Y-104233816D02*
G75*
G02X285324671Y-104021684I-77646J289778D01*
G01*
X286078464Y-104130288D02*
G75*
G02X286445888Y-104342420I77646J-289778D01*
G01*
X285221143Y-103635314D02*
X285324671Y-104021684D01*
X287995584Y-112830556D02*
G75*
G02X287628160Y-112618424I-77646J289778D01*
G01*
X288381954Y-112727028D02*
G75*
G02X288749378Y-112939160I77646J-289778D01*
G01*
X289280886Y-115695516D02*
X288797923Y-115824926D01*
X289422307Y-115450567D02*
X288749378Y-112939160D01*
X287995584Y-112830556D02*
X288381954Y-112727028D01*
X288585791Y-116192350D02*
G75*
G02X288797923Y-115824926I289778J77646D01*
G01*
X289422307Y-115450567D02*
G75*
G02X289280886Y-115695516I-193185J-51764D01*
G01*
X273268682Y-116983673D02*
G75*
G02X273410104Y-116738723I193186J51764D01*
G01*
X274105199Y-116241890D02*
G75*
G02X273893067Y-116609314I-289778J-77646D01*
G01*
X274695406Y-119603684D02*
X274309035Y-119707212D01*
X273268682Y-116983672D02*
X273941612Y-119495080D01*
X273410104Y-116738723D02*
X273893067Y-116609314D01*
X274309036Y-119707212D02*
G75*
G02X273941612Y-119495080I-77646J289778D01*
G01*
X274695405Y-119603684D02*
G75*
G02X275062829Y-119815816I77646J-289778D01*
G01*
X271106614Y-108141984D02*
X271589577Y-108012574D01*
X272391916Y-111006944D02*
X272005546Y-111110472D01*
X270965193Y-108386933D02*
X271638122Y-110898340D01*
X271801709Y-107645150D02*
G75*
G02X271589577Y-108012574I-289778J-77646D01*
G01*
X272391916Y-111006944D02*
G75*
G02X272759340Y-111219076I77646J-289778D01*
G01*
X272005546Y-111110472D02*
G75*
G02X271638122Y-110898340I-77646J289778D01*
G01*
X270965193Y-108386933D02*
G75*
G02X271106614Y-108141984I193185J51764D01*
G01*
X268858620Y-119393428D02*
X257253880Y-126093428D01*
X257253880Y-126093428D02*
G75*
G02X256844072Y-125983620I-150000J259808D01*
G01*
X256844072Y-125983620D02*
X256644072Y-125637210D01*
X250144072Y-114378880D02*
G75*
G02X250253880Y-113969072I259808J150000D01*
G01*
X261858620Y-107269072D02*
X250253880Y-113969072D01*
X252194072Y-117929584D02*
X254794072Y-122432916D01*
X250344072Y-114725290D02*
X250144072Y-114378880D01*
X268768428Y-118637210D02*
X268968428Y-118983620D01*
X261858620Y-107269072D02*
G75*
G02X262268428Y-107378880I150000J-259808D01*
G01*
X264934453Y-109996571D02*
G75*
G02X264861248Y-110269776I-173205J-100000D01*
G01*
X264318427Y-110929584D02*
G75*
G02X264428235Y-110519776I259808J150000D01*
G01*
X262878235Y-107835098D02*
X263224646Y-107635098D01*
X264934453Y-109996571D02*
X263634453Y-107744905D01*
X264861248Y-110269776D02*
X264428235Y-110519776D01*
X266918428Y-115432916D02*
X264318428Y-110929584D01*
X268968428Y-118983620D02*
G75*
G02X268858620Y-119393428I-259808J-150000D01*
G01*
X262878235Y-107835097D02*
G75*
G02X262468428Y-107725290I-150000J259807D01*
G01*
X263224646Y-107635098D02*
G75*
G02X263634453Y-107744905I150000J-259807D01*
G01*
X262268428Y-107378880D02*
X262468428Y-107725290D01*
X267328235Y-115542723D02*
G75*
G02X266918428Y-115432916I-150000J259807D01*
G01*
X267674646Y-115342724D02*
G75*
G02X268084453Y-115452531I150000J-259807D01*
G01*
X269311248Y-117977402D02*
X268878235Y-118227402D01*
X269384453Y-117704197D02*
X268084453Y-115452531D01*
X267328235Y-115542724D02*
X267674646Y-115342724D01*
X268768427Y-118637210D02*
G75*
G02X268878235Y-118227402I259808J150000D01*
G01*
X269384453Y-117704197D02*
G75*
G02X269311248Y-117977402I-173205J-100000D01*
G01*
X254178047Y-123365929D02*
G75*
G02X254251252Y-123092724I173205J100000D01*
G01*
X254794073Y-122432916D02*
G75*
G02X254684265Y-122842724I-259808J-150000D01*
G01*
X256234265Y-125527402D02*
X255887854Y-125727402D01*
X254178047Y-123365929D02*
X255478047Y-125617595D01*
X254251252Y-123092724D02*
X254684265Y-122842724D01*
X255887854Y-125727402D02*
G75*
G02X255478047Y-125617595I-150000J259807D01*
G01*
X256234265Y-125527403D02*
G75*
G02X256644072Y-125637210I150000J-259807D01*
G01*
X249801252Y-115385098D02*
X250234265Y-115135098D01*
X251784265Y-117819776D02*
X251437854Y-118019776D01*
X249728047Y-115658303D02*
X251028047Y-117909969D01*
X250344073Y-114725290D02*
G75*
G02X250234265Y-115135098I-259808J-150000D01*
G01*
X251784265Y-117819777D02*
G75*
G02X252194072Y-117929584I150000J-259807D01*
G01*
X251437854Y-118019776D02*
G75*
G02X251028047Y-117909969I-150000J259807D01*
G01*
X249728047Y-115658303D02*
G75*
G02X249801252Y-115385098I173205J100000D01*
G01*
X396431250Y-97487500D02*
X383031250Y-97487500D01*
X383031250Y-97487500D02*
G75*
G02X382731250Y-97187500I0J300000D01*
G01*
X382731250Y-97187500D02*
X382731250Y-96787500D01*
X382731250Y-83787500D02*
G75*
G02X383031250Y-83487500I300000J0D01*
G01*
X396431250Y-83487500D02*
X383031250Y-83487500D01*
X382731250Y-87887500D02*
X382731250Y-93087500D01*
X382731250Y-84187500D02*
X382731250Y-83787500D01*
X396731250Y-96787500D02*
X396731250Y-97187500D01*
X396431250Y-83487500D02*
G75*
G02X396731250Y-83787500I0J-300000D01*
G01*
X397731250Y-87387500D02*
G75*
G02X397531250Y-87587500I-200000J0D01*
G01*
X396731250Y-87887500D02*
G75*
G02X397031250Y-87587500I300000J0D01*
G01*
X397031250Y-84487500D02*
X397431250Y-84487500D01*
X397731250Y-87387500D02*
X397731250Y-84787500D01*
X397531250Y-87587500D02*
X397031250Y-87587500D01*
X396731250Y-93087500D02*
X396731250Y-87887500D01*
X396731250Y-97187500D02*
G75*
G02X396431250Y-97487500I-300000J0D01*
G01*
X397031250Y-84487500D02*
G75*
G02X396731250Y-84187500I0J300000D01*
G01*
X397431250Y-84487500D02*
G75*
G02X397731250Y-84787500I0J-300000D01*
G01*
X396731250Y-83787500D02*
X396731250Y-84187500D01*
X397031250Y-93387500D02*
G75*
G02X396731250Y-93087500I0J300000D01*
G01*
X397431250Y-93387500D02*
G75*
G02X397731250Y-93687500I0J-300000D01*
G01*
X397531250Y-96487500D02*
X397031250Y-96487500D01*
X397731250Y-96287500D02*
X397731250Y-93687500D01*
X397031250Y-93387500D02*
X397431250Y-93387500D01*
X396731250Y-96787500D02*
G75*
G02X397031250Y-96487500I300000J0D01*
G01*
X397731250Y-96287500D02*
G75*
G02X397531250Y-96487500I-200000J0D01*
G01*
X381731250Y-93587500D02*
G75*
G02X381931250Y-93387500I200000J0D01*
G01*
X382731250Y-93087500D02*
G75*
G02X382431250Y-93387500I-300000J0D01*
G01*
X382431250Y-96487500D02*
X382031250Y-96487500D01*
X381731250Y-93587500D02*
X381731250Y-96187500D01*
X381931250Y-93387500D02*
X382431250Y-93387500D01*
X382031250Y-96487500D02*
G75*
G02X381731250Y-96187500I0J300000D01*
G01*
X382431250Y-96487500D02*
G75*
G02X382731250Y-96787500I0J-300000D01*
G01*
X381931250Y-84487500D02*
X382431250Y-84487500D01*
X382431250Y-87587500D02*
X382031250Y-87587500D01*
X381731250Y-84687500D02*
X381731250Y-87287500D01*
X382731250Y-84187500D02*
G75*
G02X382431250Y-84487500I-300000J0D01*
G01*
X382431250Y-87587500D02*
G75*
G02X382731250Y-87887500I0J-300000D01*
G01*
X382031250Y-87587500D02*
G75*
G02X381731250Y-87287500I0J300000D01*
G01*
X381731250Y-84687500D02*
G75*
G02X381931250Y-84487500I200000J0D01*
G01*
X371031250Y-97487500D02*
X357631250Y-97487500D01*
X357631250Y-97487500D02*
G75*
G02X357331250Y-97187500I0J300000D01*
G01*
X357331250Y-97187500D02*
X357331250Y-96787500D01*
X357331250Y-83787500D02*
G75*
G02X357631250Y-83487500I300000J0D01*
G01*
X371031250Y-83487500D02*
X357631250Y-83487500D01*
X357331250Y-87887500D02*
X357331250Y-93087500D01*
X357331250Y-84187500D02*
X357331250Y-83787500D01*
X371331250Y-96787500D02*
X371331250Y-97187500D01*
X371031250Y-83487500D02*
G75*
G02X371331250Y-83787500I0J-300000D01*
G01*
X372331250Y-87387500D02*
G75*
G02X372131250Y-87587500I-200000J0D01*
G01*
X371331250Y-87887500D02*
G75*
G02X371631250Y-87587500I300000J0D01*
G01*
X371631250Y-84487500D02*
X372031250Y-84487500D01*
X372331250Y-87387500D02*
X372331250Y-84787500D01*
X372131250Y-87587500D02*
X371631250Y-87587500D01*
X371331250Y-93087500D02*
X371331250Y-87887500D01*
X371331250Y-97187500D02*
G75*
G02X371031250Y-97487500I-300000J0D01*
G01*
X371631250Y-84487500D02*
G75*
G02X371331250Y-84187500I0J300000D01*
G01*
X372031250Y-84487500D02*
G75*
G02X372331250Y-84787500I0J-300000D01*
G01*
X371331250Y-83787500D02*
X371331250Y-84187500D01*
X371631250Y-93387500D02*
G75*
G02X371331250Y-93087500I0J300000D01*
G01*
X372031250Y-93387500D02*
G75*
G02X372331250Y-93687500I0J-300000D01*
G01*
X372131250Y-96487500D02*
X371631250Y-96487500D01*
X372331250Y-96287500D02*
X372331250Y-93687500D01*
X371631250Y-93387500D02*
X372031250Y-93387500D01*
X371331250Y-96787500D02*
G75*
G02X371631250Y-96487500I300000J0D01*
G01*
X372331250Y-96287500D02*
G75*
G02X372131250Y-96487500I-200000J0D01*
G01*
X356331250Y-93587500D02*
G75*
G02X356531250Y-93387500I200000J0D01*
G01*
X357331250Y-93087500D02*
G75*
G02X357031250Y-93387500I-300000J0D01*
G01*
X357031250Y-96487500D02*
X356631250Y-96487500D01*
X356331250Y-93587500D02*
X356331250Y-96187500D01*
X356531250Y-93387500D02*
X357031250Y-93387500D01*
X356631250Y-96487500D02*
G75*
G02X356331250Y-96187500I0J300000D01*
G01*
X357031250Y-96487500D02*
G75*
G02X357331250Y-96787500I0J-300000D01*
G01*
X356531250Y-84487500D02*
X357031250Y-84487500D01*
X357031250Y-87587500D02*
X356631250Y-87587500D01*
X356331250Y-84687500D02*
X356331250Y-87287500D01*
X357331250Y-84187500D02*
G75*
G02X357031250Y-84487500I-300000J0D01*
G01*
X357031250Y-87587500D02*
G75*
G02X357331250Y-87887500I0J-300000D01*
G01*
X356631250Y-87587500D02*
G75*
G02X356331250Y-87287500I0J300000D01*
G01*
X356331250Y-84687500D02*
G75*
G02X356531250Y-84487500I200000J0D01*
G01*
X351981250Y-97487500D02*
X338581250Y-97487500D01*
X338581250Y-97487500D02*
G75*
G02X338281250Y-97187500I0J300000D01*
G01*
X338281250Y-97187500D02*
X338281250Y-96787500D01*
X338281250Y-83787500D02*
G75*
G02X338581250Y-83487500I300000J0D01*
G01*
X351981250Y-83487500D02*
X338581250Y-83487500D01*
X338281250Y-87887500D02*
X338281250Y-93087500D01*
X338281250Y-84187500D02*
X338281250Y-83787500D01*
X352281250Y-96787500D02*
X352281250Y-97187500D01*
X351981250Y-83487500D02*
G75*
G02X352281250Y-83787500I0J-300000D01*
G01*
X353281250Y-87387500D02*
G75*
G02X353081250Y-87587500I-200000J0D01*
G01*
X352281250Y-87887500D02*
G75*
G02X352581250Y-87587500I300000J0D01*
G01*
X352581250Y-84487500D02*
X352981250Y-84487500D01*
X353281250Y-87387500D02*
X353281250Y-84787500D01*
X353081250Y-87587500D02*
X352581250Y-87587500D01*
X352281250Y-93087500D02*
X352281250Y-87887500D01*
X352281250Y-97187500D02*
G75*
G02X351981250Y-97487500I-300000J0D01*
G01*
X352581250Y-84487500D02*
G75*
G02X352281250Y-84187500I0J300000D01*
G01*
X352981250Y-84487500D02*
G75*
G02X353281250Y-84787500I0J-300000D01*
G01*
X352281250Y-83787500D02*
X352281250Y-84187500D01*
X352581250Y-93387500D02*
G75*
G02X352281250Y-93087500I0J300000D01*
G01*
X352981250Y-93387500D02*
G75*
G02X353281250Y-93687500I0J-300000D01*
G01*
X353081250Y-96487500D02*
X352581250Y-96487500D01*
X353281250Y-96287500D02*
X353281250Y-93687500D01*
X352581250Y-93387500D02*
X352981250Y-93387500D01*
X352281250Y-96787500D02*
G75*
G02X352581250Y-96487500I300000J0D01*
G01*
X353281250Y-96287500D02*
G75*
G02X353081250Y-96487500I-200000J0D01*
G01*
X337281250Y-93587500D02*
G75*
G02X337481250Y-93387500I200000J0D01*
G01*
X338281250Y-93087500D02*
G75*
G02X337981250Y-93387500I-300000J0D01*
G01*
X337981250Y-96487500D02*
X337581250Y-96487500D01*
X337281250Y-93587500D02*
X337281250Y-96187500D01*
X337481250Y-93387500D02*
X337981250Y-93387500D01*
X337581250Y-96487500D02*
G75*
G02X337281250Y-96187500I0J300000D01*
G01*
X337981250Y-96487500D02*
G75*
G02X338281250Y-96787500I0J-300000D01*
G01*
X337481250Y-84487500D02*
X337981250Y-84487500D01*
X337981250Y-87587500D02*
X337581250Y-87587500D01*
X337281250Y-84687500D02*
X337281250Y-87287500D01*
X338281250Y-84187500D02*
G75*
G02X337981250Y-84487500I-300000J0D01*
G01*
X337981250Y-87587500D02*
G75*
G02X338281250Y-87887500I0J-300000D01*
G01*
X337581250Y-87587500D02*
G75*
G02X337281250Y-87287500I0J300000D01*
G01*
X337281250Y-84687500D02*
G75*
G02X337481250Y-84487500I200000J0D01*
G01*
X332931250Y-97487500D02*
X319531250Y-97487500D01*
X319531250Y-97487500D02*
G75*
G02X319231250Y-97187500I0J300000D01*
G01*
X319231250Y-97187500D02*
X319231250Y-96787500D01*
X319231250Y-83787500D02*
G75*
G02X319531250Y-83487500I300000J0D01*
G01*
X332931250Y-83487500D02*
X319531250Y-83487500D01*
X319231250Y-87887500D02*
X319231250Y-93087500D01*
X319231250Y-84187500D02*
X319231250Y-83787500D01*
X333231250Y-96787500D02*
X333231250Y-97187500D01*
X332931250Y-83487500D02*
G75*
G02X333231250Y-83787500I0J-300000D01*
G01*
X334231250Y-87387500D02*
G75*
G02X334031250Y-87587500I-200000J0D01*
G01*
X333231250Y-87887500D02*
G75*
G02X333531250Y-87587500I300000J0D01*
G01*
X333531250Y-84487500D02*
X333931250Y-84487500D01*
X334231250Y-87387500D02*
X334231250Y-84787500D01*
X334031250Y-87587500D02*
X333531250Y-87587500D01*
X333231250Y-93087500D02*
X333231250Y-87887500D01*
X333231250Y-97187500D02*
G75*
G02X332931250Y-97487500I-300000J0D01*
G01*
X333531250Y-84487500D02*
G75*
G02X333231250Y-84187500I0J300000D01*
G01*
X333931250Y-84487500D02*
G75*
G02X334231250Y-84787500I0J-300000D01*
G01*
X333231250Y-83787500D02*
X333231250Y-84187500D01*
X333531250Y-93387500D02*
G75*
G02X333231250Y-93087500I0J300000D01*
G01*
X333931250Y-93387500D02*
G75*
G02X334231250Y-93687500I0J-300000D01*
G01*
X334031250Y-96487500D02*
X333531250Y-96487500D01*
X334231250Y-96287500D02*
X334231250Y-93687500D01*
X333531250Y-93387500D02*
X333931250Y-93387500D01*
X333231250Y-96787500D02*
G75*
G02X333531250Y-96487500I300000J0D01*
G01*
X334231250Y-96287500D02*
G75*
G02X334031250Y-96487500I-200000J0D01*
G01*
X318231250Y-93587500D02*
G75*
G02X318431250Y-93387500I200000J0D01*
G01*
X319231250Y-93087500D02*
G75*
G02X318931250Y-93387500I-300000J0D01*
G01*
X318931250Y-96487500D02*
X318531250Y-96487500D01*
X318231250Y-93587500D02*
X318231250Y-96187500D01*
X318431250Y-93387500D02*
X318931250Y-93387500D01*
X318531250Y-96487500D02*
G75*
G02X318231250Y-96187500I0J300000D01*
G01*
X318931250Y-96487500D02*
G75*
G02X319231250Y-96787500I0J-300000D01*
G01*
X318431250Y-84487500D02*
X318931250Y-84487500D01*
X318931250Y-87587500D02*
X318531250Y-87587500D01*
X318231250Y-84687500D02*
X318231250Y-87287500D01*
X319231250Y-84187500D02*
G75*
G02X318931250Y-84487500I-300000J0D01*
G01*
X318931250Y-87587500D02*
G75*
G02X319231250Y-87887500I0J-300000D01*
G01*
X318531250Y-87587500D02*
G75*
G02X318231250Y-87287500I0J300000D01*
G01*
X318231250Y-84687500D02*
G75*
G02X318431250Y-84487500I200000J0D01*
G01*
X313881250Y-97487500D02*
X300481250Y-97487500D01*
X300481250Y-97487500D02*
G75*
G02X300181250Y-97187500I0J300000D01*
G01*
X300181250Y-97187500D02*
X300181250Y-96787500D01*
X300181250Y-83787500D02*
G75*
G02X300481250Y-83487500I300000J0D01*
G01*
X313881250Y-83487500D02*
X300481250Y-83487500D01*
X300181250Y-87887500D02*
X300181250Y-93087500D01*
X300181250Y-84187500D02*
X300181250Y-83787500D01*
X314181250Y-96787500D02*
X314181250Y-97187500D01*
X313881250Y-83487500D02*
G75*
G02X314181250Y-83787500I0J-300000D01*
G01*
X315181250Y-87387500D02*
G75*
G02X314981250Y-87587500I-200000J0D01*
G01*
X314181250Y-87887500D02*
G75*
G02X314481250Y-87587500I300000J0D01*
G01*
X314481250Y-84487500D02*
X314881250Y-84487500D01*
X315181250Y-87387500D02*
X315181250Y-84787500D01*
X314981250Y-87587500D02*
X314481250Y-87587500D01*
X314181250Y-93087500D02*
X314181250Y-87887500D01*
X314181250Y-97187500D02*
G75*
G02X313881250Y-97487500I-300000J0D01*
G01*
X314481250Y-84487500D02*
G75*
G02X314181250Y-84187500I0J300000D01*
G01*
X314881250Y-84487500D02*
G75*
G02X315181250Y-84787500I0J-300000D01*
G01*
X314181250Y-83787500D02*
X314181250Y-84187500D01*
X314481250Y-93387500D02*
G75*
G02X314181250Y-93087500I0J300000D01*
G01*
X314881250Y-93387500D02*
G75*
G02X315181250Y-93687500I0J-300000D01*
G01*
X314981250Y-96487500D02*
X314481250Y-96487500D01*
X315181250Y-96287500D02*
X315181250Y-93687500D01*
X314481250Y-93387500D02*
X314881250Y-93387500D01*
X314181250Y-96787500D02*
G75*
G02X314481250Y-96487500I300000J0D01*
G01*
X315181250Y-96287500D02*
G75*
G02X314981250Y-96487500I-200000J0D01*
G01*
X299181250Y-93587500D02*
G75*
G02X299381250Y-93387500I200000J0D01*
G01*
X300181250Y-93087500D02*
G75*
G02X299881250Y-93387500I-300000J0D01*
G01*
X299881250Y-96487500D02*
X299481250Y-96487500D01*
X299181250Y-93587500D02*
X299181250Y-96187500D01*
X299381250Y-93387500D02*
X299881250Y-93387500D01*
X299481250Y-96487500D02*
G75*
G02X299181250Y-96187500I0J300000D01*
G01*
X299881250Y-96487500D02*
G75*
G02X300181250Y-96787500I0J-300000D01*
G01*
X299381250Y-84487500D02*
X299881250Y-84487500D01*
X299881250Y-87587500D02*
X299481250Y-87587500D01*
X299181250Y-84687500D02*
X299181250Y-87287500D01*
X300181250Y-84187500D02*
G75*
G02X299881250Y-84487500I-300000J0D01*
G01*
X299881250Y-87587500D02*
G75*
G02X300181250Y-87887500I0J-300000D01*
G01*
X299481250Y-87587500D02*
G75*
G02X299181250Y-87287500I0J300000D01*
G01*
X299181250Y-84687500D02*
G75*
G02X299381250Y-84487500I200000J0D01*
G01*
X294831250Y-97487500D02*
X281431250Y-97487500D01*
X281431250Y-97487500D02*
G75*
G02X281131250Y-97187500I0J300000D01*
G01*
X281131250Y-97187500D02*
X281131250Y-96787500D01*
X281131250Y-83787500D02*
G75*
G02X281431250Y-83487500I300000J0D01*
G01*
X294831250Y-83487500D02*
X281431250Y-83487500D01*
X281131250Y-87887500D02*
X281131250Y-93087500D01*
X281131250Y-84187500D02*
X281131250Y-83787500D01*
X295131250Y-96787500D02*
X295131250Y-97187500D01*
X294831250Y-83487500D02*
G75*
G02X295131250Y-83787500I0J-300000D01*
G01*
X296131250Y-87387500D02*
G75*
G02X295931250Y-87587500I-200000J0D01*
G01*
X295131250Y-87887500D02*
G75*
G02X295431250Y-87587500I300000J0D01*
G01*
X295431250Y-84487500D02*
X295831250Y-84487500D01*
X296131250Y-87387500D02*
X296131250Y-84787500D01*
X295931250Y-87587500D02*
X295431250Y-87587500D01*
X295131250Y-93087500D02*
X295131250Y-87887500D01*
X295131250Y-97187500D02*
G75*
G02X294831250Y-97487500I-300000J0D01*
G01*
X295431250Y-84487500D02*
G75*
G02X295131250Y-84187500I0J300000D01*
G01*
X295831250Y-84487500D02*
G75*
G02X296131250Y-84787500I0J-300000D01*
G01*
X295131250Y-83787500D02*
X295131250Y-84187500D01*
X295431250Y-93387500D02*
G75*
G02X295131250Y-93087500I0J300000D01*
G01*
X295831250Y-93387500D02*
G75*
G02X296131250Y-93687500I0J-300000D01*
G01*
X295931250Y-96487500D02*
X295431250Y-96487500D01*
X296131250Y-96287500D02*
X296131250Y-93687500D01*
X295431250Y-93387500D02*
X295831250Y-93387500D01*
X295131250Y-96787500D02*
G75*
G02X295431250Y-96487500I300000J0D01*
G01*
X296131250Y-96287500D02*
G75*
G02X295931250Y-96487500I-200000J0D01*
G01*
X280131250Y-93587500D02*
G75*
G02X280331250Y-93387500I200000J0D01*
G01*
X281131250Y-93087500D02*
G75*
G02X280831250Y-93387500I-300000J0D01*
G01*
X280831250Y-96487500D02*
X280431250Y-96487500D01*
X280131250Y-93587500D02*
X280131250Y-96187500D01*
X280331250Y-93387500D02*
X280831250Y-93387500D01*
X280431250Y-96487500D02*
G75*
G02X280131250Y-96187500I0J300000D01*
G01*
X280831250Y-96487500D02*
G75*
G02X281131250Y-96787500I0J-300000D01*
G01*
X280331250Y-84487500D02*
X280831250Y-84487500D01*
X280831250Y-87587500D02*
X280431250Y-87587500D01*
X280131250Y-84687500D02*
X280131250Y-87287500D01*
X281131250Y-84187500D02*
G75*
G02X280831250Y-84487500I-300000J0D01*
G01*
X280831250Y-87587500D02*
G75*
G02X281131250Y-87887500I0J-300000D01*
G01*
X280431250Y-87587500D02*
G75*
G02X280131250Y-87287500I0J300000D01*
G01*
X280131250Y-84687500D02*
G75*
G02X280331250Y-84487500I200000J0D01*
G01*
X275781250Y-97487500D02*
X262381250Y-97487500D01*
X262381250Y-97487500D02*
G75*
G02X262081250Y-97187500I0J300000D01*
G01*
X262081250Y-97187500D02*
X262081250Y-96787500D01*
X262081250Y-83787500D02*
G75*
G02X262381250Y-83487500I300000J0D01*
G01*
X275781250Y-83487500D02*
X262381250Y-83487500D01*
X262081250Y-87887500D02*
X262081250Y-93087500D01*
X262081250Y-84187500D02*
X262081250Y-83787500D01*
X276081250Y-96787500D02*
X276081250Y-97187500D01*
X275781250Y-83487500D02*
G75*
G02X276081250Y-83787500I0J-300000D01*
G01*
X277081250Y-87387500D02*
G75*
G02X276881250Y-87587500I-200000J0D01*
G01*
X276081250Y-87887500D02*
G75*
G02X276381250Y-87587500I300000J0D01*
G01*
X276381250Y-84487500D02*
X276781250Y-84487500D01*
X277081250Y-87387500D02*
X277081250Y-84787500D01*
X276881250Y-87587500D02*
X276381250Y-87587500D01*
X276081250Y-93087500D02*
X276081250Y-87887500D01*
X276081250Y-97187500D02*
G75*
G02X275781250Y-97487500I-300000J0D01*
G01*
X276381250Y-84487500D02*
G75*
G02X276081250Y-84187500I0J300000D01*
G01*
X276781250Y-84487500D02*
G75*
G02X277081250Y-84787500I0J-300000D01*
G01*
X276081250Y-83787500D02*
X276081250Y-84187500D01*
X276381250Y-93387500D02*
G75*
G02X276081250Y-93087500I0J300000D01*
G01*
X276781250Y-93387500D02*
G75*
G02X277081250Y-93687500I0J-300000D01*
G01*
X276881250Y-96487500D02*
X276381250Y-96487500D01*
X277081250Y-96287500D02*
X277081250Y-93687500D01*
X276381250Y-93387500D02*
X276781250Y-93387500D01*
X276081250Y-96787500D02*
G75*
G02X276381250Y-96487500I300000J0D01*
G01*
X277081250Y-96287500D02*
G75*
G02X276881250Y-96487500I-200000J0D01*
G01*
X261081250Y-93587500D02*
G75*
G02X261281250Y-93387500I200000J0D01*
G01*
X262081250Y-93087500D02*
G75*
G02X261781250Y-93387500I-300000J0D01*
G01*
X261781250Y-96487500D02*
X261381250Y-96487500D01*
X261081250Y-93587500D02*
X261081250Y-96187500D01*
X261281250Y-93387500D02*
X261781250Y-93387500D01*
X261381250Y-96487500D02*
G75*
G02X261081250Y-96187500I0J300000D01*
G01*
X261781250Y-96487500D02*
G75*
G02X262081250Y-96787500I0J-300000D01*
G01*
X261281250Y-84487500D02*
X261781250Y-84487500D01*
X261781250Y-87587500D02*
X261381250Y-87587500D01*
X261081250Y-84687500D02*
X261081250Y-87287500D01*
X262081250Y-84187500D02*
G75*
G02X261781250Y-84487500I-300000J0D01*
G01*
X261781250Y-87587500D02*
G75*
G02X262081250Y-87887500I0J-300000D01*
G01*
X261381250Y-87587500D02*
G75*
G02X261081250Y-87287500I0J300000D01*
G01*
X261081250Y-84687500D02*
G75*
G02X261281250Y-84487500I200000J0D01*
G01*
X396431250Y-78437500D02*
X383031250Y-78437500D01*
X383031250Y-78437500D02*
G75*
G02X382731250Y-78137500I0J300000D01*
G01*
X382731250Y-78137500D02*
X382731250Y-77737500D01*
X382731250Y-64737500D02*
G75*
G02X383031250Y-64437500I300000J0D01*
G01*
X396431250Y-64437500D02*
X383031250Y-64437500D01*
X382731250Y-68837500D02*
X382731250Y-74037500D01*
X382731250Y-65137500D02*
X382731250Y-64737500D01*
X396731250Y-77737500D02*
X396731250Y-78137500D01*
X396431250Y-64437500D02*
G75*
G02X396731250Y-64737500I0J-300000D01*
G01*
X397731250Y-68337500D02*
G75*
G02X397531250Y-68537500I-200000J0D01*
G01*
X396731250Y-68837500D02*
G75*
G02X397031250Y-68537500I300000J0D01*
G01*
X397031250Y-65437500D02*
X397431250Y-65437500D01*
X397731250Y-68337500D02*
X397731250Y-65737500D01*
X397531250Y-68537500D02*
X397031250Y-68537500D01*
X396731250Y-74037500D02*
X396731250Y-68837500D01*
X396731250Y-78137500D02*
G75*
G02X396431250Y-78437500I-300000J0D01*
G01*
X397031250Y-65437500D02*
G75*
G02X396731250Y-65137500I0J300000D01*
G01*
X397431250Y-65437500D02*
G75*
G02X397731250Y-65737500I0J-300000D01*
G01*
X396731250Y-64737500D02*
X396731250Y-65137500D01*
X397031250Y-74337500D02*
G75*
G02X396731250Y-74037500I0J300000D01*
G01*
X397431250Y-74337500D02*
G75*
G02X397731250Y-74637500I0J-300000D01*
G01*
X397531250Y-77437500D02*
X397031250Y-77437500D01*
X397731250Y-77237500D02*
X397731250Y-74637500D01*
X397031250Y-74337500D02*
X397431250Y-74337500D01*
X396731250Y-77737500D02*
G75*
G02X397031250Y-77437500I300000J0D01*
G01*
X397731250Y-77237500D02*
G75*
G02X397531250Y-77437500I-200000J0D01*
G01*
X381731250Y-74537500D02*
G75*
G02X381931250Y-74337500I200000J0D01*
G01*
X382731250Y-74037500D02*
G75*
G02X382431250Y-74337500I-300000J0D01*
G01*
X382431250Y-77437500D02*
X382031250Y-77437500D01*
X381731250Y-74537500D02*
X381731250Y-77137500D01*
X381931250Y-74337500D02*
X382431250Y-74337500D01*
X382031250Y-77437500D02*
G75*
G02X381731250Y-77137500I0J300000D01*
G01*
X382431250Y-77437500D02*
G75*
G02X382731250Y-77737500I0J-300000D01*
G01*
X381931250Y-65437500D02*
X382431250Y-65437500D01*
X382431250Y-68537500D02*
X382031250Y-68537500D01*
X381731250Y-65637500D02*
X381731250Y-68237500D01*
X382731250Y-65137500D02*
G75*
G02X382431250Y-65437500I-300000J0D01*
G01*
X382431250Y-68537500D02*
G75*
G02X382731250Y-68837500I0J-300000D01*
G01*
X382031250Y-68537500D02*
G75*
G02X381731250Y-68237500I0J300000D01*
G01*
X381731250Y-65637500D02*
G75*
G02X381931250Y-65437500I200000J0D01*
G01*
X371031250Y-78437500D02*
X357631250Y-78437500D01*
X357631250Y-78437500D02*
G75*
G02X357331250Y-78137500I0J300000D01*
G01*
X357331250Y-78137500D02*
X357331250Y-77737500D01*
X357331250Y-64737500D02*
G75*
G02X357631250Y-64437500I300000J0D01*
G01*
X371031250Y-64437500D02*
X357631250Y-64437500D01*
X357331250Y-68837500D02*
X357331250Y-74037500D01*
X357331250Y-65137500D02*
X357331250Y-64737500D01*
X371331250Y-77737500D02*
X371331250Y-78137500D01*
X371031250Y-64437500D02*
G75*
G02X371331250Y-64737500I0J-300000D01*
G01*
X372331250Y-68337500D02*
G75*
G02X372131250Y-68537500I-200000J0D01*
G01*
X371331250Y-68837500D02*
G75*
G02X371631250Y-68537500I300000J0D01*
G01*
X371631250Y-65437500D02*
X372031250Y-65437500D01*
X372331250Y-68337500D02*
X372331250Y-65737500D01*
X372131250Y-68537500D02*
X371631250Y-68537500D01*
X371331250Y-74037500D02*
X371331250Y-68837500D01*
X371331250Y-78137500D02*
G75*
G02X371031250Y-78437500I-300000J0D01*
G01*
X371631250Y-65437500D02*
G75*
G02X371331250Y-65137500I0J300000D01*
G01*
X372031250Y-65437500D02*
G75*
G02X372331250Y-65737500I0J-300000D01*
G01*
X371331250Y-64737500D02*
X371331250Y-65137500D01*
X371631250Y-74337500D02*
G75*
G02X371331250Y-74037500I0J300000D01*
G01*
X372031250Y-74337500D02*
G75*
G02X372331250Y-74637500I0J-300000D01*
G01*
X372131250Y-77437500D02*
X371631250Y-77437500D01*
X372331250Y-77237500D02*
X372331250Y-74637500D01*
X371631250Y-74337500D02*
X372031250Y-74337500D01*
X371331250Y-77737500D02*
G75*
G02X371631250Y-77437500I300000J0D01*
G01*
X372331250Y-77237500D02*
G75*
G02X372131250Y-77437500I-200000J0D01*
G01*
X356331250Y-74537500D02*
G75*
G02X356531250Y-74337500I200000J0D01*
G01*
X357331250Y-74037500D02*
G75*
G02X357031250Y-74337500I-300000J0D01*
G01*
X357031250Y-77437500D02*
X356631250Y-77437500D01*
X356331250Y-74537500D02*
X356331250Y-77137500D01*
X356531250Y-74337500D02*
X357031250Y-74337500D01*
X356631250Y-77437500D02*
G75*
G02X356331250Y-77137500I0J300000D01*
G01*
X357031250Y-77437500D02*
G75*
G02X357331250Y-77737500I0J-300000D01*
G01*
X356531250Y-65437500D02*
X357031250Y-65437500D01*
X357031250Y-68537500D02*
X356631250Y-68537500D01*
X356331250Y-65637500D02*
X356331250Y-68237500D01*
X357331250Y-65137500D02*
G75*
G02X357031250Y-65437500I-300000J0D01*
G01*
X357031250Y-68537500D02*
G75*
G02X357331250Y-68837500I0J-300000D01*
G01*
X356631250Y-68537500D02*
G75*
G02X356331250Y-68237500I0J300000D01*
G01*
X356331250Y-65637500D02*
G75*
G02X356531250Y-65437500I200000J0D01*
G01*
X351981250Y-78437500D02*
X338581250Y-78437500D01*
X338581250Y-78437500D02*
G75*
G02X338281250Y-78137500I0J300000D01*
G01*
X338281250Y-78137500D02*
X338281250Y-77737500D01*
X338281250Y-64737500D02*
G75*
G02X338581250Y-64437500I300000J0D01*
G01*
X351981250Y-64437500D02*
X338581250Y-64437500D01*
X338281250Y-68837500D02*
X338281250Y-74037500D01*
X338281250Y-65137500D02*
X338281250Y-64737500D01*
X352281250Y-77737500D02*
X352281250Y-78137500D01*
X351981250Y-64437500D02*
G75*
G02X352281250Y-64737500I0J-300000D01*
G01*
X353281250Y-68337500D02*
G75*
G02X353081250Y-68537500I-200000J0D01*
G01*
X352281250Y-68837500D02*
G75*
G02X352581250Y-68537500I300000J0D01*
G01*
X352581250Y-65437500D02*
X352981250Y-65437500D01*
X353281250Y-68337500D02*
X353281250Y-65737500D01*
X353081250Y-68537500D02*
X352581250Y-68537500D01*
X352281250Y-74037500D02*
X352281250Y-68837500D01*
X352281250Y-78137500D02*
G75*
G02X351981250Y-78437500I-300000J0D01*
G01*
X352581250Y-65437500D02*
G75*
G02X352281250Y-65137500I0J300000D01*
G01*
X352981250Y-65437500D02*
G75*
G02X353281250Y-65737500I0J-300000D01*
G01*
X352281250Y-64737500D02*
X352281250Y-65137500D01*
X352581250Y-74337500D02*
G75*
G02X352281250Y-74037500I0J300000D01*
G01*
X352981250Y-74337500D02*
G75*
G02X353281250Y-74637500I0J-300000D01*
G01*
X353081250Y-77437500D02*
X352581250Y-77437500D01*
X353281250Y-77237500D02*
X353281250Y-74637500D01*
X352581250Y-74337500D02*
X352981250Y-74337500D01*
X352281250Y-77737500D02*
G75*
G02X352581250Y-77437500I300000J0D01*
G01*
X353281250Y-77237500D02*
G75*
G02X353081250Y-77437500I-200000J0D01*
G01*
X337281250Y-74537500D02*
G75*
G02X337481250Y-74337500I200000J0D01*
G01*
X338281250Y-74037500D02*
G75*
G02X337981250Y-74337500I-300000J0D01*
G01*
X337981250Y-77437500D02*
X337581250Y-77437500D01*
X337281250Y-74537500D02*
X337281250Y-77137500D01*
X337481250Y-74337500D02*
X337981250Y-74337500D01*
X337581250Y-77437500D02*
G75*
G02X337281250Y-77137500I0J300000D01*
G01*
X337981250Y-77437500D02*
G75*
G02X338281250Y-77737500I0J-300000D01*
G01*
X337481250Y-65437500D02*
X337981250Y-65437500D01*
X337981250Y-68537500D02*
X337581250Y-68537500D01*
X337281250Y-65637500D02*
X337281250Y-68237500D01*
X338281250Y-65137500D02*
G75*
G02X337981250Y-65437500I-300000J0D01*
G01*
X337981250Y-68537500D02*
G75*
G02X338281250Y-68837500I0J-300000D01*
G01*
X337581250Y-68537500D02*
G75*
G02X337281250Y-68237500I0J300000D01*
G01*
X337281250Y-65637500D02*
G75*
G02X337481250Y-65437500I200000J0D01*
G01*
X332931250Y-78437500D02*
X319531250Y-78437500D01*
X319531250Y-78437500D02*
G75*
G02X319231250Y-78137500I0J300000D01*
G01*
X319231250Y-78137500D02*
X319231250Y-77737500D01*
X319231250Y-64737500D02*
G75*
G02X319531250Y-64437500I300000J0D01*
G01*
X332931250Y-64437500D02*
X319531250Y-64437500D01*
X319231250Y-68837500D02*
X319231250Y-74037500D01*
X319231250Y-65137500D02*
X319231250Y-64737500D01*
X333231250Y-77737500D02*
X333231250Y-78137500D01*
X332931250Y-64437500D02*
G75*
G02X333231250Y-64737500I0J-300000D01*
G01*
X334231250Y-68337500D02*
G75*
G02X334031250Y-68537500I-200000J0D01*
G01*
X333231250Y-68837500D02*
G75*
G02X333531250Y-68537500I300000J0D01*
G01*
X333531250Y-65437500D02*
X333931250Y-65437500D01*
X334231250Y-68337500D02*
X334231250Y-65737500D01*
X334031250Y-68537500D02*
X333531250Y-68537500D01*
X333231250Y-74037500D02*
X333231250Y-68837500D01*
X333231250Y-78137500D02*
G75*
G02X332931250Y-78437500I-300000J0D01*
G01*
X333531250Y-65437500D02*
G75*
G02X333231250Y-65137500I0J300000D01*
G01*
X333931250Y-65437500D02*
G75*
G02X334231250Y-65737500I0J-300000D01*
G01*
X333231250Y-64737500D02*
X333231250Y-65137500D01*
X333531250Y-74337500D02*
G75*
G02X333231250Y-74037500I0J300000D01*
G01*
X333931250Y-74337500D02*
G75*
G02X334231250Y-74637500I0J-300000D01*
G01*
X334031250Y-77437500D02*
X333531250Y-77437500D01*
X334231250Y-77237500D02*
X334231250Y-74637500D01*
X333531250Y-74337500D02*
X333931250Y-74337500D01*
X333231250Y-77737500D02*
G75*
G02X333531250Y-77437500I300000J0D01*
G01*
X334231250Y-77237500D02*
G75*
G02X334031250Y-77437500I-200000J0D01*
G01*
X318231250Y-74537500D02*
G75*
G02X318431250Y-74337500I200000J0D01*
G01*
X319231250Y-74037500D02*
G75*
G02X318931250Y-74337500I-300000J0D01*
G01*
X318931250Y-77437500D02*
X318531250Y-77437500D01*
X318231250Y-74537500D02*
X318231250Y-77137500D01*
X318431250Y-74337500D02*
X318931250Y-74337500D01*
X318531250Y-77437500D02*
G75*
G02X318231250Y-77137500I0J300000D01*
G01*
X318931250Y-77437500D02*
G75*
G02X319231250Y-77737500I0J-300000D01*
G01*
X318431250Y-65437500D02*
X318931250Y-65437500D01*
X318931250Y-68537500D02*
X318531250Y-68537500D01*
X318231250Y-65637500D02*
X318231250Y-68237500D01*
X319231250Y-65137500D02*
G75*
G02X318931250Y-65437500I-300000J0D01*
G01*
X318931250Y-68537500D02*
G75*
G02X319231250Y-68837500I0J-300000D01*
G01*
X318531250Y-68537500D02*
G75*
G02X318231250Y-68237500I0J300000D01*
G01*
X318231250Y-65637500D02*
G75*
G02X318431250Y-65437500I200000J0D01*
G01*
X313881250Y-78437500D02*
X300481250Y-78437500D01*
X300481250Y-78437500D02*
G75*
G02X300181250Y-78137500I0J300000D01*
G01*
X300181250Y-78137500D02*
X300181250Y-77737500D01*
X300181250Y-64737500D02*
G75*
G02X300481250Y-64437500I300000J0D01*
G01*
X313881250Y-64437500D02*
X300481250Y-64437500D01*
X300181250Y-68837500D02*
X300181250Y-74037500D01*
X300181250Y-65137500D02*
X300181250Y-64737500D01*
X314181250Y-77737500D02*
X314181250Y-78137500D01*
X313881250Y-64437500D02*
G75*
G02X314181250Y-64737500I0J-300000D01*
G01*
X315181250Y-68337500D02*
G75*
G02X314981250Y-68537500I-200000J0D01*
G01*
X314181250Y-68837500D02*
G75*
G02X314481250Y-68537500I300000J0D01*
G01*
X314481250Y-65437500D02*
X314881250Y-65437500D01*
X315181250Y-68337500D02*
X315181250Y-65737500D01*
X314981250Y-68537500D02*
X314481250Y-68537500D01*
X314181250Y-74037500D02*
X314181250Y-68837500D01*
X314181250Y-78137500D02*
G75*
G02X313881250Y-78437500I-300000J0D01*
G01*
X314481250Y-65437500D02*
G75*
G02X314181250Y-65137500I0J300000D01*
G01*
X314881250Y-65437500D02*
G75*
G02X315181250Y-65737500I0J-300000D01*
G01*
X314181250Y-64737500D02*
X314181250Y-65137500D01*
X314481250Y-74337500D02*
G75*
G02X314181250Y-74037500I0J300000D01*
G01*
X314881250Y-74337500D02*
G75*
G02X315181250Y-74637500I0J-300000D01*
G01*
X314981250Y-77437500D02*
X314481250Y-77437500D01*
X315181250Y-77237500D02*
X315181250Y-74637500D01*
X314481250Y-74337500D02*
X314881250Y-74337500D01*
X314181250Y-77737500D02*
G75*
G02X314481250Y-77437500I300000J0D01*
G01*
X315181250Y-77237500D02*
G75*
G02X314981250Y-77437500I-200000J0D01*
G01*
X299181250Y-74537500D02*
G75*
G02X299381250Y-74337500I200000J0D01*
G01*
X300181250Y-74037500D02*
G75*
G02X299881250Y-74337500I-300000J0D01*
G01*
X299881250Y-77437500D02*
X299481250Y-77437500D01*
X299181250Y-74537500D02*
X299181250Y-77137500D01*
X299381250Y-74337500D02*
X299881250Y-74337500D01*
X299481250Y-77437500D02*
G75*
G02X299181250Y-77137500I0J300000D01*
G01*
X299881250Y-77437500D02*
G75*
G02X300181250Y-77737500I0J-300000D01*
G01*
X299381250Y-65437500D02*
X299881250Y-65437500D01*
X299881250Y-68537500D02*
X299481250Y-68537500D01*
X299181250Y-65637500D02*
X299181250Y-68237500D01*
X300181250Y-65137500D02*
G75*
G02X299881250Y-65437500I-300000J0D01*
G01*
X299881250Y-68537500D02*
G75*
G02X300181250Y-68837500I0J-300000D01*
G01*
X299481250Y-68537500D02*
G75*
G02X299181250Y-68237500I0J300000D01*
G01*
X299181250Y-65637500D02*
G75*
G02X299381250Y-65437500I200000J0D01*
G01*
X294831250Y-78437500D02*
X281431250Y-78437500D01*
X281431250Y-78437500D02*
G75*
G02X281131250Y-78137500I0J300000D01*
G01*
X281131250Y-78137500D02*
X281131250Y-77737500D01*
X281131250Y-64737500D02*
G75*
G02X281431250Y-64437500I300000J0D01*
G01*
X294831250Y-64437500D02*
X281431250Y-64437500D01*
X281131250Y-68837500D02*
X281131250Y-74037500D01*
X281131250Y-65137500D02*
X281131250Y-64737500D01*
X295131250Y-77737500D02*
X295131250Y-78137500D01*
X294831250Y-64437500D02*
G75*
G02X295131250Y-64737500I0J-300000D01*
G01*
X296131250Y-68337500D02*
G75*
G02X295931250Y-68537500I-200000J0D01*
G01*
X295131250Y-68837500D02*
G75*
G02X295431250Y-68537500I300000J0D01*
G01*
X295431250Y-65437500D02*
X295831250Y-65437500D01*
X296131250Y-68337500D02*
X296131250Y-65737500D01*
X295931250Y-68537500D02*
X295431250Y-68537500D01*
X295131250Y-74037500D02*
X295131250Y-68837500D01*
X295131250Y-78137500D02*
G75*
G02X294831250Y-78437500I-300000J0D01*
G01*
X295431250Y-65437500D02*
G75*
G02X295131250Y-65137500I0J300000D01*
G01*
X295831250Y-65437500D02*
G75*
G02X296131250Y-65737500I0J-300000D01*
G01*
X295131250Y-64737500D02*
X295131250Y-65137500D01*
X295431250Y-74337500D02*
G75*
G02X295131250Y-74037500I0J300000D01*
G01*
X295831250Y-74337500D02*
G75*
G02X296131250Y-74637500I0J-300000D01*
G01*
X295931250Y-77437500D02*
X295431250Y-77437500D01*
X296131250Y-77237500D02*
X296131250Y-74637500D01*
X295431250Y-74337500D02*
X295831250Y-74337500D01*
X295131250Y-77737500D02*
G75*
G02X295431250Y-77437500I300000J0D01*
G01*
X296131250Y-77237500D02*
G75*
G02X295931250Y-77437500I-200000J0D01*
G01*
X280131250Y-74537500D02*
G75*
G02X280331250Y-74337500I200000J0D01*
G01*
X281131250Y-74037500D02*
G75*
G02X280831250Y-74337500I-300000J0D01*
G01*
X280831250Y-77437500D02*
X280431250Y-77437500D01*
X280131250Y-74537500D02*
X280131250Y-77137500D01*
X280331250Y-74337500D02*
X280831250Y-74337500D01*
X280431250Y-77437500D02*
G75*
G02X280131250Y-77137500I0J300000D01*
G01*
X280831250Y-77437500D02*
G75*
G02X281131250Y-77737500I0J-300000D01*
G01*
X280331250Y-65437500D02*
X280831250Y-65437500D01*
X280831250Y-68537500D02*
X280431250Y-68537500D01*
X280131250Y-65637500D02*
X280131250Y-68237500D01*
X281131250Y-65137500D02*
G75*
G02X280831250Y-65437500I-300000J0D01*
G01*
X280831250Y-68537500D02*
G75*
G02X281131250Y-68837500I0J-300000D01*
G01*
X280431250Y-68537500D02*
G75*
G02X280131250Y-68237500I0J300000D01*
G01*
X280131250Y-65637500D02*
G75*
G02X280331250Y-65437500I200000J0D01*
G01*
X275781250Y-78437500D02*
X262381250Y-78437500D01*
X262381250Y-78437500D02*
G75*
G02X262081250Y-78137500I0J300000D01*
G01*
X262081250Y-78137500D02*
X262081250Y-77737500D01*
X262081250Y-64737500D02*
G75*
G02X262381250Y-64437500I300000J0D01*
G01*
X275781250Y-64437500D02*
X262381250Y-64437500D01*
X262081250Y-68837500D02*
X262081250Y-74037500D01*
X262081250Y-65137500D02*
X262081250Y-64737500D01*
X276081250Y-77737500D02*
X276081250Y-78137500D01*
X275781250Y-64437500D02*
G75*
G02X276081250Y-64737500I0J-300000D01*
G01*
X277081250Y-68337500D02*
G75*
G02X276881250Y-68537500I-200000J0D01*
G01*
X276081250Y-68837500D02*
G75*
G02X276381250Y-68537500I300000J0D01*
G01*
X276381250Y-65437500D02*
X276781250Y-65437500D01*
X277081250Y-68337500D02*
X277081250Y-65737500D01*
X276881250Y-68537500D02*
X276381250Y-68537500D01*
X276081250Y-74037500D02*
X276081250Y-68837500D01*
X276081250Y-78137500D02*
G75*
G02X275781250Y-78437500I-300000J0D01*
G01*
X276381250Y-65437500D02*
G75*
G02X276081250Y-65137500I0J300000D01*
G01*
X276781250Y-65437500D02*
G75*
G02X277081250Y-65737500I0J-300000D01*
G01*
X276081250Y-64737500D02*
X276081250Y-65137500D01*
X276381250Y-74337500D02*
G75*
G02X276081250Y-74037500I0J300000D01*
G01*
X276781250Y-74337500D02*
G75*
G02X277081250Y-74637500I0J-300000D01*
G01*
X276881250Y-77437500D02*
X276381250Y-77437500D01*
X277081250Y-77237500D02*
X277081250Y-74637500D01*
X276381250Y-74337500D02*
X276781250Y-74337500D01*
X276081250Y-77737500D02*
G75*
G02X276381250Y-77437500I300000J0D01*
G01*
X277081250Y-77237500D02*
G75*
G02X276881250Y-77437500I-200000J0D01*
G01*
X261081250Y-74537500D02*
G75*
G02X261281250Y-74337500I200000J0D01*
G01*
X262081250Y-74037500D02*
G75*
G02X261781250Y-74337500I-300000J0D01*
G01*
X261781250Y-77437500D02*
X261381250Y-77437500D01*
X261081250Y-74537500D02*
X261081250Y-77137500D01*
X261281250Y-74337500D02*
X261781250Y-74337500D01*
X261381250Y-77437500D02*
G75*
G02X261081250Y-77137500I0J300000D01*
G01*
X261781250Y-77437500D02*
G75*
G02X262081250Y-77737500I0J-300000D01*
G01*
X261281250Y-65437500D02*
X261781250Y-65437500D01*
X261781250Y-68537500D02*
X261381250Y-68537500D01*
X261081250Y-65637500D02*
X261081250Y-68237500D01*
X262081250Y-65137500D02*
G75*
G02X261781250Y-65437500I-300000J0D01*
G01*
X261781250Y-68537500D02*
G75*
G02X262081250Y-68837500I0J-300000D01*
G01*
X261381250Y-68537500D02*
G75*
G02X261081250Y-68237500I0J300000D01*
G01*
X261081250Y-65637500D02*
G75*
G02X261281250Y-65437500I200000J0D01*
G01*
X396431250Y-59387500D02*
X383031250Y-59387500D01*
X383031250Y-59387500D02*
G75*
G02X382731250Y-59087500I0J300000D01*
G01*
X382731250Y-59087500D02*
X382731250Y-58687500D01*
X382731250Y-45687500D02*
G75*
G02X383031250Y-45387500I300000J0D01*
G01*
X396431250Y-45387500D02*
X383031250Y-45387500D01*
X382731250Y-49787500D02*
X382731250Y-54987500D01*
X382731250Y-46087500D02*
X382731250Y-45687500D01*
X396731250Y-58687500D02*
X396731250Y-59087500D01*
X396431250Y-45387500D02*
G75*
G02X396731250Y-45687500I0J-300000D01*
G01*
X397731250Y-49287500D02*
G75*
G02X397531250Y-49487500I-200000J0D01*
G01*
X396731250Y-49787500D02*
G75*
G02X397031250Y-49487500I300000J0D01*
G01*
X397031250Y-46387500D02*
X397431250Y-46387500D01*
X397731250Y-49287500D02*
X397731250Y-46687500D01*
X397531250Y-49487500D02*
X397031250Y-49487500D01*
X396731250Y-54987500D02*
X396731250Y-49787500D01*
X396731250Y-59087500D02*
G75*
G02X396431250Y-59387500I-300000J0D01*
G01*
X397031250Y-46387500D02*
G75*
G02X396731250Y-46087500I0J300000D01*
G01*
X397431250Y-46387500D02*
G75*
G02X397731250Y-46687500I0J-300000D01*
G01*
X396731250Y-45687500D02*
X396731250Y-46087500D01*
X397031250Y-55287500D02*
G75*
G02X396731250Y-54987500I0J300000D01*
G01*
X397431250Y-55287500D02*
G75*
G02X397731250Y-55587500I0J-300000D01*
G01*
X397531250Y-58387500D02*
X397031250Y-58387500D01*
X397731250Y-58187500D02*
X397731250Y-55587500D01*
X397031250Y-55287500D02*
X397431250Y-55287500D01*
X396731250Y-58687500D02*
G75*
G02X397031250Y-58387500I300000J0D01*
G01*
X397731250Y-58187500D02*
G75*
G02X397531250Y-58387500I-200000J0D01*
G01*
X381731250Y-55487500D02*
G75*
G02X381931250Y-55287500I200000J0D01*
G01*
X382731250Y-54987500D02*
G75*
G02X382431250Y-55287500I-300000J0D01*
G01*
X382431250Y-58387500D02*
X382031250Y-58387500D01*
X381731250Y-55487500D02*
X381731250Y-58087500D01*
X381931250Y-55287500D02*
X382431250Y-55287500D01*
X382031250Y-58387500D02*
G75*
G02X381731250Y-58087500I0J300000D01*
G01*
X382431250Y-58387500D02*
G75*
G02X382731250Y-58687500I0J-300000D01*
G01*
X381931250Y-46387500D02*
X382431250Y-46387500D01*
X382431250Y-49487500D02*
X382031250Y-49487500D01*
X381731250Y-46587500D02*
X381731250Y-49187500D01*
X382731250Y-46087500D02*
G75*
G02X382431250Y-46387500I-300000J0D01*
G01*
X382431250Y-49487500D02*
G75*
G02X382731250Y-49787500I0J-300000D01*
G01*
X382031250Y-49487500D02*
G75*
G02X381731250Y-49187500I0J300000D01*
G01*
X381731250Y-46587500D02*
G75*
G02X381931250Y-46387500I200000J0D01*
G01*
X371031250Y-59387500D02*
X357631250Y-59387500D01*
X357631250Y-59387500D02*
G75*
G02X357331250Y-59087500I0J300000D01*
G01*
X357331250Y-59087500D02*
X357331250Y-58687500D01*
X357331250Y-45687500D02*
G75*
G02X357631250Y-45387500I300000J0D01*
G01*
X371031250Y-45387500D02*
X357631250Y-45387500D01*
X357331250Y-49787500D02*
X357331250Y-54987500D01*
X357331250Y-46087500D02*
X357331250Y-45687500D01*
X371331250Y-58687500D02*
X371331250Y-59087500D01*
X371031250Y-45387500D02*
G75*
G02X371331250Y-45687500I0J-300000D01*
G01*
X372331250Y-49287500D02*
G75*
G02X372131250Y-49487500I-200000J0D01*
G01*
X371331250Y-49787500D02*
G75*
G02X371631250Y-49487500I300000J0D01*
G01*
X371631250Y-46387500D02*
X372031250Y-46387500D01*
X372331250Y-49287500D02*
X372331250Y-46687500D01*
X372131250Y-49487500D02*
X371631250Y-49487500D01*
X371331250Y-54987500D02*
X371331250Y-49787500D01*
X371331250Y-59087500D02*
G75*
G02X371031250Y-59387500I-300000J0D01*
G01*
X371631250Y-46387500D02*
G75*
G02X371331250Y-46087500I0J300000D01*
G01*
X372031250Y-46387500D02*
G75*
G02X372331250Y-46687500I0J-300000D01*
G01*
X371331250Y-45687500D02*
X371331250Y-46087500D01*
X371631250Y-55287500D02*
G75*
G02X371331250Y-54987500I0J300000D01*
G01*
X372031250Y-55287500D02*
G75*
G02X372331250Y-55587500I0J-300000D01*
G01*
X372131250Y-58387500D02*
X371631250Y-58387500D01*
X372331250Y-58187500D02*
X372331250Y-55587500D01*
X371631250Y-55287500D02*
X372031250Y-55287500D01*
X371331250Y-58687500D02*
G75*
G02X371631250Y-58387500I300000J0D01*
G01*
X372331250Y-58187500D02*
G75*
G02X372131250Y-58387500I-200000J0D01*
G01*
X356331250Y-55487500D02*
G75*
G02X356531250Y-55287500I200000J0D01*
G01*
X357331250Y-54987500D02*
G75*
G02X357031250Y-55287500I-300000J0D01*
G01*
X357031250Y-58387500D02*
X356631250Y-58387500D01*
X356331250Y-55487500D02*
X356331250Y-58087500D01*
X356531250Y-55287500D02*
X357031250Y-55287500D01*
X356631250Y-58387500D02*
G75*
G02X356331250Y-58087500I0J300000D01*
G01*
X357031250Y-58387500D02*
G75*
G02X357331250Y-58687500I0J-300000D01*
G01*
X356531250Y-46387500D02*
X357031250Y-46387500D01*
X357031250Y-49487500D02*
X356631250Y-49487500D01*
X356331250Y-46587500D02*
X356331250Y-49187500D01*
X357331250Y-46087500D02*
G75*
G02X357031250Y-46387500I-300000J0D01*
G01*
X357031250Y-49487500D02*
G75*
G02X357331250Y-49787500I0J-300000D01*
G01*
X356631250Y-49487500D02*
G75*
G02X356331250Y-49187500I0J300000D01*
G01*
X356331250Y-46587500D02*
G75*
G02X356531250Y-46387500I200000J0D01*
G01*
X332931250Y-59387500D02*
X319531250Y-59387500D01*
X319531250Y-59387500D02*
G75*
G02X319231250Y-59087500I0J300000D01*
G01*
X319231250Y-59087500D02*
X319231250Y-58687500D01*
X319231250Y-45687500D02*
G75*
G02X319531250Y-45387500I300000J0D01*
G01*
X332931250Y-45387500D02*
X319531250Y-45387500D01*
X319231250Y-49787500D02*
X319231250Y-54987500D01*
X319231250Y-46087500D02*
X319231250Y-45687500D01*
X333231250Y-58687500D02*
X333231250Y-59087500D01*
X332931250Y-45387500D02*
G75*
G02X333231250Y-45687500I0J-300000D01*
G01*
X334231250Y-49287500D02*
G75*
G02X334031250Y-49487500I-200000J0D01*
G01*
X333231250Y-49787500D02*
G75*
G02X333531250Y-49487500I300000J0D01*
G01*
X333531250Y-46387500D02*
X333931250Y-46387500D01*
X334231250Y-49287500D02*
X334231250Y-46687500D01*
X334031250Y-49487500D02*
X333531250Y-49487500D01*
X333231250Y-54987500D02*
X333231250Y-49787500D01*
X333231250Y-59087500D02*
G75*
G02X332931250Y-59387500I-300000J0D01*
G01*
X333531250Y-46387500D02*
G75*
G02X333231250Y-46087500I0J300000D01*
G01*
X333931250Y-46387500D02*
G75*
G02X334231250Y-46687500I0J-300000D01*
G01*
X333231250Y-45687500D02*
X333231250Y-46087500D01*
X333531250Y-55287500D02*
G75*
G02X333231250Y-54987500I0J300000D01*
G01*
X333931250Y-55287500D02*
G75*
G02X334231250Y-55587500I0J-300000D01*
G01*
X334031250Y-58387500D02*
X333531250Y-58387500D01*
X334231250Y-58187500D02*
X334231250Y-55587500D01*
X333531250Y-55287500D02*
X333931250Y-55287500D01*
X333231250Y-58687500D02*
G75*
G02X333531250Y-58387500I300000J0D01*
G01*
X334231250Y-58187500D02*
G75*
G02X334031250Y-58387500I-200000J0D01*
G01*
X318231250Y-55487500D02*
G75*
G02X318431250Y-55287500I200000J0D01*
G01*
X319231250Y-54987500D02*
G75*
G02X318931250Y-55287500I-300000J0D01*
G01*
X318931250Y-58387500D02*
X318531250Y-58387500D01*
X318231250Y-55487500D02*
X318231250Y-58087500D01*
X318431250Y-55287500D02*
X318931250Y-55287500D01*
X318531250Y-58387500D02*
G75*
G02X318231250Y-58087500I0J300000D01*
G01*
X318931250Y-58387500D02*
G75*
G02X319231250Y-58687500I0J-300000D01*
G01*
X318431250Y-46387500D02*
X318931250Y-46387500D01*
X318931250Y-49487500D02*
X318531250Y-49487500D01*
X318231250Y-46587500D02*
X318231250Y-49187500D01*
X319231250Y-46087500D02*
G75*
G02X318931250Y-46387500I-300000J0D01*
G01*
X318931250Y-49487500D02*
G75*
G02X319231250Y-49787500I0J-300000D01*
G01*
X318531250Y-49487500D02*
G75*
G02X318231250Y-49187500I0J300000D01*
G01*
X318231250Y-46587500D02*
G75*
G02X318431250Y-46387500I200000J0D01*
G01*
X313881250Y-59387500D02*
X300481250Y-59387500D01*
X300481250Y-59387500D02*
G75*
G02X300181250Y-59087500I0J300000D01*
G01*
X300181250Y-59087500D02*
X300181250Y-58687500D01*
X300181250Y-45687500D02*
G75*
G02X300481250Y-45387500I300000J0D01*
G01*
X313881250Y-45387500D02*
X300481250Y-45387500D01*
X300181250Y-49787500D02*
X300181250Y-54987500D01*
X300181250Y-46087500D02*
X300181250Y-45687500D01*
X314181250Y-58687500D02*
X314181250Y-59087500D01*
X313881250Y-45387500D02*
G75*
G02X314181250Y-45687500I0J-300000D01*
G01*
X315181250Y-49287500D02*
G75*
G02X314981250Y-49487500I-200000J0D01*
G01*
X314181250Y-49787500D02*
G75*
G02X314481250Y-49487500I300000J0D01*
G01*
X314481250Y-46387500D02*
X314881250Y-46387500D01*
X315181250Y-49287500D02*
X315181250Y-46687500D01*
X314981250Y-49487500D02*
X314481250Y-49487500D01*
X314181250Y-54987500D02*
X314181250Y-49787500D01*
X314181250Y-59087500D02*
G75*
G02X313881250Y-59387500I-300000J0D01*
G01*
X314481250Y-46387500D02*
G75*
G02X314181250Y-46087500I0J300000D01*
G01*
X314881250Y-46387500D02*
G75*
G02X315181250Y-46687500I0J-300000D01*
G01*
X314181250Y-45687500D02*
X314181250Y-46087500D01*
X314481250Y-55287500D02*
G75*
G02X314181250Y-54987500I0J300000D01*
G01*
X314881250Y-55287500D02*
G75*
G02X315181250Y-55587500I0J-300000D01*
G01*
X314981250Y-58387500D02*
X314481250Y-58387500D01*
X315181250Y-58187500D02*
X315181250Y-55587500D01*
X314481250Y-55287500D02*
X314881250Y-55287500D01*
X314181250Y-58687500D02*
G75*
G02X314481250Y-58387500I300000J0D01*
G01*
X315181250Y-58187500D02*
G75*
G02X314981250Y-58387500I-200000J0D01*
G01*
X299181250Y-55487500D02*
G75*
G02X299381250Y-55287500I200000J0D01*
G01*
X300181250Y-54987500D02*
G75*
G02X299881250Y-55287500I-300000J0D01*
G01*
X299881250Y-58387500D02*
X299481250Y-58387500D01*
X299181250Y-55487500D02*
X299181250Y-58087500D01*
X299381250Y-55287500D02*
X299881250Y-55287500D01*
X299481250Y-58387500D02*
G75*
G02X299181250Y-58087500I0J300000D01*
G01*
X299881250Y-58387500D02*
G75*
G02X300181250Y-58687500I0J-300000D01*
G01*
X299381250Y-46387500D02*
X299881250Y-46387500D01*
X299881250Y-49487500D02*
X299481250Y-49487500D01*
X299181250Y-46587500D02*
X299181250Y-49187500D01*
X300181250Y-46087500D02*
G75*
G02X299881250Y-46387500I-300000J0D01*
G01*
X299881250Y-49487500D02*
G75*
G02X300181250Y-49787500I0J-300000D01*
G01*
X299481250Y-49487500D02*
G75*
G02X299181250Y-49187500I0J300000D01*
G01*
X299181250Y-46587500D02*
G75*
G02X299381250Y-46387500I200000J0D01*
G01*
X294831250Y-59387500D02*
X281431250Y-59387500D01*
X281431250Y-59387500D02*
G75*
G02X281131250Y-59087500I0J300000D01*
G01*
X281131250Y-59087500D02*
X281131250Y-58687500D01*
X281131250Y-45687500D02*
G75*
G02X281431250Y-45387500I300000J0D01*
G01*
X294831250Y-45387500D02*
X281431250Y-45387500D01*
X281131250Y-49787500D02*
X281131250Y-54987500D01*
X281131250Y-46087500D02*
X281131250Y-45687500D01*
X295131250Y-58687500D02*
X295131250Y-59087500D01*
X294831250Y-45387500D02*
G75*
G02X295131250Y-45687500I0J-300000D01*
G01*
X296131250Y-49287500D02*
G75*
G02X295931250Y-49487500I-200000J0D01*
G01*
X295131250Y-49787500D02*
G75*
G02X295431250Y-49487500I300000J0D01*
G01*
X295431250Y-46387500D02*
X295831250Y-46387500D01*
X296131250Y-49287500D02*
X296131250Y-46687500D01*
X295931250Y-49487500D02*
X295431250Y-49487500D01*
X295131250Y-54987500D02*
X295131250Y-49787500D01*
X295131250Y-59087500D02*
G75*
G02X294831250Y-59387500I-300000J0D01*
G01*
X295431250Y-46387500D02*
G75*
G02X295131250Y-46087500I0J300000D01*
G01*
X295831250Y-46387500D02*
G75*
G02X296131250Y-46687500I0J-300000D01*
G01*
X295131250Y-45687500D02*
X295131250Y-46087500D01*
X295431250Y-55287500D02*
G75*
G02X295131250Y-54987500I0J300000D01*
G01*
X295831250Y-55287500D02*
G75*
G02X296131250Y-55587500I0J-300000D01*
G01*
X295931250Y-58387500D02*
X295431250Y-58387500D01*
X296131250Y-58187500D02*
X296131250Y-55587500D01*
X295431250Y-55287500D02*
X295831250Y-55287500D01*
X295131250Y-58687500D02*
G75*
G02X295431250Y-58387500I300000J0D01*
G01*
X296131250Y-58187500D02*
G75*
G02X295931250Y-58387500I-200000J0D01*
G01*
X280131250Y-55487500D02*
G75*
G02X280331250Y-55287500I200000J0D01*
G01*
X281131250Y-54987500D02*
G75*
G02X280831250Y-55287500I-300000J0D01*
G01*
X280831250Y-58387500D02*
X280431250Y-58387500D01*
X280131250Y-55487500D02*
X280131250Y-58087500D01*
X280331250Y-55287500D02*
X280831250Y-55287500D01*
X280431250Y-58387500D02*
G75*
G02X280131250Y-58087500I0J300000D01*
G01*
X280831250Y-58387500D02*
G75*
G02X281131250Y-58687500I0J-300000D01*
G01*
X280331250Y-46387500D02*
X280831250Y-46387500D01*
X280831250Y-49487500D02*
X280431250Y-49487500D01*
X280131250Y-46587500D02*
X280131250Y-49187500D01*
X281131250Y-46087500D02*
G75*
G02X280831250Y-46387500I-300000J0D01*
G01*
X280831250Y-49487500D02*
G75*
G02X281131250Y-49787500I0J-300000D01*
G01*
X280431250Y-49487500D02*
G75*
G02X280131250Y-49187500I0J300000D01*
G01*
X280131250Y-46587500D02*
G75*
G02X280331250Y-46387500I200000J0D01*
G01*
X275781250Y-59387500D02*
X262381250Y-59387500D01*
X262381250Y-59387500D02*
G75*
G02X262081250Y-59087500I0J300000D01*
G01*
X262081250Y-59087500D02*
X262081250Y-58687500D01*
X262081250Y-45687500D02*
G75*
G02X262381250Y-45387500I300000J0D01*
G01*
X275781250Y-45387500D02*
X262381250Y-45387500D01*
X262081250Y-49787500D02*
X262081250Y-54987500D01*
X262081250Y-46087500D02*
X262081250Y-45687500D01*
X276081250Y-58687500D02*
X276081250Y-59087500D01*
X275781250Y-45387500D02*
G75*
G02X276081250Y-45687500I0J-300000D01*
G01*
X277081250Y-49287500D02*
G75*
G02X276881250Y-49487500I-200000J0D01*
G01*
X276081250Y-49787500D02*
G75*
G02X276381250Y-49487500I300000J0D01*
G01*
X276381250Y-46387500D02*
X276781250Y-46387500D01*
X277081250Y-49287500D02*
X277081250Y-46687500D01*
X276881250Y-49487500D02*
X276381250Y-49487500D01*
X276081250Y-54987500D02*
X276081250Y-49787500D01*
X276081250Y-59087500D02*
G75*
G02X275781250Y-59387500I-300000J0D01*
G01*
X276381250Y-46387500D02*
G75*
G02X276081250Y-46087500I0J300000D01*
G01*
X276781250Y-46387500D02*
G75*
G02X277081250Y-46687500I0J-300000D01*
G01*
X276081250Y-45687500D02*
X276081250Y-46087500D01*
X276381250Y-55287500D02*
G75*
G02X276081250Y-54987500I0J300000D01*
G01*
X276781250Y-55287500D02*
G75*
G02X277081250Y-55587500I0J-300000D01*
G01*
X276881250Y-58387500D02*
X276381250Y-58387500D01*
X277081250Y-58187500D02*
X277081250Y-55587500D01*
X276381250Y-55287500D02*
X276781250Y-55287500D01*
X276081250Y-58687500D02*
G75*
G02X276381250Y-58387500I300000J0D01*
G01*
X277081250Y-58187500D02*
G75*
G02X276881250Y-58387500I-200000J0D01*
G01*
X261081250Y-55487500D02*
G75*
G02X261281250Y-55287500I200000J0D01*
G01*
X262081250Y-54987500D02*
G75*
G02X261781250Y-55287500I-300000J0D01*
G01*
X261781250Y-58387500D02*
X261381250Y-58387500D01*
X261081250Y-55487500D02*
X261081250Y-58087500D01*
X261281250Y-55287500D02*
X261781250Y-55287500D01*
X261381250Y-58387500D02*
G75*
G02X261081250Y-58087500I0J300000D01*
G01*
X261781250Y-58387500D02*
G75*
G02X262081250Y-58687500I0J-300000D01*
G01*
X261281250Y-46387500D02*
X261781250Y-46387500D01*
X261781250Y-49487500D02*
X261381250Y-49487500D01*
X261081250Y-46587500D02*
X261081250Y-49187500D01*
X262081250Y-46087500D02*
G75*
G02X261781250Y-46387500I-300000J0D01*
G01*
X261781250Y-49487500D02*
G75*
G02X262081250Y-49787500I0J-300000D01*
G01*
X261381250Y-49487500D02*
G75*
G02X261081250Y-49187500I0J300000D01*
G01*
X261081250Y-46587500D02*
G75*
G02X261281250Y-46387500I200000J0D01*
G01*
X233283620Y-126093428D02*
X221678880Y-119393428D01*
X221678880Y-119393428D02*
G75*
G02X221569072Y-118983620I150000J259808D01*
G01*
X221569072Y-118983620D02*
X221769072Y-118637210D01*
X228269072Y-107378880D02*
G75*
G02X228678880Y-107269072I259808J-150000D01*
G01*
X240283620Y-113969072D02*
X228678880Y-107269072D01*
X226219072Y-110929584D02*
X223619072Y-115432916D01*
X228069072Y-107725290D02*
X228269072Y-107378880D01*
X233893428Y-125637210D02*
X233693428Y-125983620D01*
X240283620Y-113969072D02*
G75*
G02X240393428Y-114378880I-150000J-259808D01*
G01*
X239459453Y-117996571D02*
G75*
G02X239186248Y-118069776I-173205J100000D01*
G01*
X238343427Y-117929584D02*
G75*
G02X238753235Y-117819776I259808J-150000D01*
G01*
X240303235Y-115135098D02*
X240649646Y-115335098D01*
X239459453Y-117996571D02*
X240759453Y-115744905D01*
X239186248Y-118069776D02*
X238753235Y-117819776D01*
X235743428Y-122432916D02*
X238343428Y-117929584D01*
X233693428Y-125983620D02*
G75*
G02X233283620Y-126093428I-259808J150000D01*
G01*
X240303235Y-115135097D02*
G75*
G02X240193428Y-114725290I150000J259807D01*
G01*
X240649646Y-115335098D02*
G75*
G02X240759453Y-115744905I-150000J-259807D01*
G01*
X240393428Y-114378880D02*
X240193428Y-114725290D01*
X235853235Y-122842723D02*
G75*
G02X235743428Y-122432916I150000J259807D01*
G01*
X236199646Y-123042724D02*
G75*
G02X236309453Y-123452531I-150000J-259807D01*
G01*
X234736248Y-125777402D02*
X234303235Y-125527402D01*
X235009453Y-125704197D02*
X236309453Y-123452531D01*
X235853235Y-122842724D02*
X236199646Y-123042724D01*
X233893427Y-125637210D02*
G75*
G02X234303235Y-125527402I259808J-150000D01*
G01*
X235009453Y-125704197D02*
G75*
G02X234736248Y-125777402I-173205J100000D01*
G01*
X222503047Y-115365929D02*
G75*
G02X222776252Y-115292724I173205J-100000D01*
G01*
X223619073Y-115432916D02*
G75*
G02X223209265Y-115542724I-259808J150000D01*
G01*
X221659265Y-118227402D02*
X221312854Y-118027402D01*
X222503047Y-115365929D02*
X221203047Y-117617595D01*
X222776252Y-115292724D02*
X223209265Y-115542724D01*
X221312854Y-118027402D02*
G75*
G02X221203047Y-117617595I150000J259807D01*
G01*
X221659265Y-118227403D02*
G75*
G02X221769072Y-118637210I-150000J-259807D01*
G01*
X227226252Y-107585098D02*
X227659265Y-107835098D01*
X226109265Y-110519776D02*
X225762854Y-110319776D01*
X226953047Y-107658303D02*
X225653047Y-109909969D01*
X228069073Y-107725290D02*
G75*
G02X227659265Y-107835098I-259808J150000D01*
G01*
X226109265Y-110519777D02*
G75*
G02X226219072Y-110929584I-150000J-259807D01*
G01*
X225762854Y-110319776D02*
G75*
G02X225653047Y-109909969I150000J259807D01*
G01*
X226953047Y-107658303D02*
G75*
G02X227226252Y-107585098I173205J-100000D01*
G01*
X215003720Y-120414318D02*
X202060314Y-116946143D01*
X202060314Y-116946142D02*
G75*
G02X201848182Y-116578720I77645J289777D01*
G01*
X201848182Y-116578720D02*
X201951709Y-116192349D01*
X205316358Y-103635314D02*
G75*
G02X205683780Y-103423182I289777J-77645D01*
G01*
X218627186Y-106891357D02*
X205683780Y-103423182D01*
X204255199Y-107595610D02*
X202909340Y-112618424D01*
X205212829Y-104021684D02*
X205316357Y-103635314D01*
X215474671Y-119815816D02*
X215371143Y-120202186D01*
X218627186Y-106891358D02*
G75*
G02X218839318Y-107258780I-77645J-289777D01*
G01*
X218873496Y-110994931D02*
G75*
G02X218628547Y-111136354I-193186J51763D01*
G01*
X217778160Y-111219076D02*
G75*
G02X218145584Y-111006944I289778J-77646D01*
G01*
X218947923Y-108012574D02*
X219334293Y-108116102D01*
X218873496Y-110994932D02*
X219546425Y-108483525D01*
X218628547Y-111136354D02*
X218145584Y-111006944D01*
X216432301Y-116241890D02*
X217778160Y-111219076D01*
X215371142Y-120202186D02*
G75*
G02X215003720Y-120414318I-289777J77645D01*
G01*
X218947924Y-108012574D02*
G75*
G02X218735791Y-107645151I77645J289778D01*
G01*
X219334293Y-108116101D02*
G75*
G02X219546425Y-108483525I-77646J-289778D01*
G01*
X218839318Y-107258780D02*
X218735791Y-107645151D01*
X216644433Y-116609314D02*
G75*
G02X216432301Y-116241890I77646J289778D01*
G01*
X217030804Y-116712841D02*
G75*
G02X217242936Y-117080265I-77646J-289778D01*
G01*
X216325057Y-119733094D02*
X215842094Y-119603684D01*
X216570006Y-119591672D02*
X217242936Y-117080265D01*
X216644433Y-116609314D02*
X217030804Y-116712842D01*
X215474671Y-119815817D02*
G75*
G02X215842094Y-119603684I289778J-77645D01*
G01*
X216570007Y-119591672D02*
G75*
G02X216325057Y-119733094I-193186J51764D01*
G01*
X201814004Y-112842569D02*
G75*
G02X202058953Y-112701146I193186J-51763D01*
G01*
X202909340Y-112618424D02*
G75*
G02X202541916Y-112830556I-289778J77646D01*
G01*
X201739577Y-115824926D02*
X201353207Y-115721398D01*
X201814004Y-112842568D02*
X201141075Y-115353975D01*
X202058953Y-112701146D02*
X202541916Y-112830556D01*
X201353207Y-115721399D02*
G75*
G02X201141075Y-115353975I77646J289778D01*
G01*
X201739576Y-115824926D02*
G75*
G02X201951709Y-116192349I-77645J-289778D01*
G01*
X204362443Y-104104406D02*
X204845406Y-104233816D01*
X204043067Y-107228186D02*
X203656696Y-107124658D01*
X204117494Y-104245828D02*
X203444564Y-106757235D01*
X205212829Y-104021683D02*
G75*
G02X204845406Y-104233816I-289778J77645D01*
G01*
X204043067Y-107228186D02*
G75*
G02X204255199Y-107595610I-77646J-289778D01*
G01*
X203656696Y-107124659D02*
G75*
G02X203444564Y-106757235I77646J289778D01*
G01*
X204117493Y-104245828D02*
G75*
G02X204362443Y-104104406I193186J-51764D01*
G01*
X190056250Y-116537500D02*
X176656250Y-116537500D01*
X176656250Y-116537500D02*
G75*
G02X176356250Y-116237500I0J300000D01*
G01*
X176356250Y-116237500D02*
X176356250Y-115837500D01*
X176356250Y-102837500D02*
G75*
G02X176656250Y-102537500I300000J0D01*
G01*
X190056250Y-102537500D02*
X176656250Y-102537500D01*
X176356250Y-106937500D02*
X176356250Y-112137500D01*
X176356250Y-103237500D02*
X176356250Y-102837500D01*
X190356250Y-115837500D02*
X190356250Y-116237500D01*
X190056250Y-102537500D02*
G75*
G02X190356250Y-102837500I0J-300000D01*
G01*
X191356250Y-106437500D02*
G75*
G02X191156250Y-106637500I-200000J0D01*
G01*
X190356250Y-106937500D02*
G75*
G02X190656250Y-106637500I300000J0D01*
G01*
X190656250Y-103537500D02*
X191056250Y-103537500D01*
X191356250Y-106437500D02*
X191356250Y-103837500D01*
X191156250Y-106637500D02*
X190656250Y-106637500D01*
X190356250Y-112137500D02*
X190356250Y-106937500D01*
X190356250Y-116237500D02*
G75*
G02X190056250Y-116537500I-300000J0D01*
G01*
X190656250Y-103537500D02*
G75*
G02X190356250Y-103237500I0J300000D01*
G01*
X191056250Y-103537500D02*
G75*
G02X191356250Y-103837500I0J-300000D01*
G01*
X190356250Y-102837500D02*
X190356250Y-103237500D01*
X190656250Y-112437500D02*
G75*
G02X190356250Y-112137500I0J300000D01*
G01*
X191056250Y-112437500D02*
G75*
G02X191356250Y-112737500I0J-300000D01*
G01*
X191156250Y-115537500D02*
X190656250Y-115537500D01*
X191356250Y-115337500D02*
X191356250Y-112737500D01*
X190656250Y-112437500D02*
X191056250Y-112437500D01*
X190356250Y-115837500D02*
G75*
G02X190656250Y-115537500I300000J0D01*
G01*
X191356250Y-115337500D02*
G75*
G02X191156250Y-115537500I-200000J0D01*
G01*
X175356250Y-112637500D02*
G75*
G02X175556250Y-112437500I200000J0D01*
G01*
X176356250Y-112137500D02*
G75*
G02X176056250Y-112437500I-300000J0D01*
G01*
X176056250Y-115537500D02*
X175656250Y-115537500D01*
X175356250Y-112637500D02*
X175356250Y-115237500D01*
X175556250Y-112437500D02*
X176056250Y-112437500D01*
X175656250Y-115537500D02*
G75*
G02X175356250Y-115237500I0J300000D01*
G01*
X176056250Y-115537500D02*
G75*
G02X176356250Y-115837500I0J-300000D01*
G01*
X175556250Y-103537500D02*
X176056250Y-103537500D01*
X176056250Y-106637500D02*
X175656250Y-106637500D01*
X175356250Y-103737500D02*
X175356250Y-106337500D01*
X176356250Y-103237500D02*
G75*
G02X176056250Y-103537500I-300000J0D01*
G01*
X176056250Y-106637500D02*
G75*
G02X176356250Y-106937500I0J-300000D01*
G01*
X175656250Y-106637500D02*
G75*
G02X175356250Y-106337500I0J300000D01*
G01*
X175356250Y-103737500D02*
G75*
G02X175556250Y-103537500I200000J0D01*
G01*
X171006250Y-116537500D02*
X157606250Y-116537500D01*
X157606250Y-116537500D02*
G75*
G02X157306250Y-116237500I0J300000D01*
G01*
X157306250Y-116237500D02*
X157306250Y-115837500D01*
X157306250Y-102837500D02*
G75*
G02X157606250Y-102537500I300000J0D01*
G01*
X171006250Y-102537500D02*
X157606250Y-102537500D01*
X157306250Y-106937500D02*
X157306250Y-112137500D01*
X157306250Y-103237500D02*
X157306250Y-102837500D01*
X171306250Y-115837500D02*
X171306250Y-116237500D01*
X171006250Y-102537500D02*
G75*
G02X171306250Y-102837500I0J-300000D01*
G01*
X172306250Y-106437500D02*
G75*
G02X172106250Y-106637500I-200000J0D01*
G01*
X171306250Y-106937500D02*
G75*
G02X171606250Y-106637500I300000J0D01*
G01*
X171606250Y-103537500D02*
X172006250Y-103537500D01*
X172306250Y-106437500D02*
X172306250Y-103837500D01*
X172106250Y-106637500D02*
X171606250Y-106637500D01*
X171306250Y-112137500D02*
X171306250Y-106937500D01*
X171306250Y-116237500D02*
G75*
G02X171006250Y-116537500I-300000J0D01*
G01*
X171606250Y-103537500D02*
G75*
G02X171306250Y-103237500I0J300000D01*
G01*
X172006250Y-103537500D02*
G75*
G02X172306250Y-103837500I0J-300000D01*
G01*
X171306250Y-102837500D02*
X171306250Y-103237500D01*
X171606250Y-112437500D02*
G75*
G02X171306250Y-112137500I0J300000D01*
G01*
X172006250Y-112437500D02*
G75*
G02X172306250Y-112737500I0J-300000D01*
G01*
X172106250Y-115537500D02*
X171606250Y-115537500D01*
X172306250Y-115337500D02*
X172306250Y-112737500D01*
X171606250Y-112437500D02*
X172006250Y-112437500D01*
X171306250Y-115837500D02*
G75*
G02X171606250Y-115537500I300000J0D01*
G01*
X172306250Y-115337500D02*
G75*
G02X172106250Y-115537500I-200000J0D01*
G01*
X156306250Y-112637500D02*
G75*
G02X156506250Y-112437500I200000J0D01*
G01*
X157306250Y-112137500D02*
G75*
G02X157006250Y-112437500I-300000J0D01*
G01*
X157006250Y-115537500D02*
X156606250Y-115537500D01*
X156306250Y-112637500D02*
X156306250Y-115237500D01*
X156506250Y-112437500D02*
X157006250Y-112437500D01*
X156606250Y-115537500D02*
G75*
G02X156306250Y-115237500I0J300000D01*
G01*
X157006250Y-115537500D02*
G75*
G02X157306250Y-115837500I0J-300000D01*
G01*
X156506250Y-103537500D02*
X157006250Y-103537500D01*
X157006250Y-106637500D02*
X156606250Y-106637500D01*
X156306250Y-103737500D02*
X156306250Y-106337500D01*
X157306250Y-103237500D02*
G75*
G02X157006250Y-103537500I-300000J0D01*
G01*
X157006250Y-106637500D02*
G75*
G02X157306250Y-106937500I0J-300000D01*
G01*
X156606250Y-106637500D02*
G75*
G02X156306250Y-106337500I0J300000D01*
G01*
X156306250Y-103737500D02*
G75*
G02X156506250Y-103537500I200000J0D01*
G01*
X151956250Y-116537500D02*
X138556250Y-116537500D01*
X138556250Y-116537500D02*
G75*
G02X138256250Y-116237500I0J300000D01*
G01*
X138256250Y-116237500D02*
X138256250Y-115837500D01*
X138256250Y-102837500D02*
G75*
G02X138556250Y-102537500I300000J0D01*
G01*
X151956250Y-102537500D02*
X138556250Y-102537500D01*
X138256250Y-106937500D02*
X138256250Y-112137500D01*
X138256250Y-103237500D02*
X138256250Y-102837500D01*
X152256250Y-115837500D02*
X152256250Y-116237500D01*
X151956250Y-102537500D02*
G75*
G02X152256250Y-102837500I0J-300000D01*
G01*
X153256250Y-106437500D02*
G75*
G02X153056250Y-106637500I-200000J0D01*
G01*
X152256250Y-106937500D02*
G75*
G02X152556250Y-106637500I300000J0D01*
G01*
X152556250Y-103537500D02*
X152956250Y-103537500D01*
X153256250Y-106437500D02*
X153256250Y-103837500D01*
X153056250Y-106637500D02*
X152556250Y-106637500D01*
X152256250Y-112137500D02*
X152256250Y-106937500D01*
X152256250Y-116237500D02*
G75*
G02X151956250Y-116537500I-300000J0D01*
G01*
X152556250Y-103537500D02*
G75*
G02X152256250Y-103237500I0J300000D01*
G01*
X152956250Y-103537500D02*
G75*
G02X153256250Y-103837500I0J-300000D01*
G01*
X152256250Y-102837500D02*
X152256250Y-103237500D01*
X152556250Y-112437500D02*
G75*
G02X152256250Y-112137500I0J300000D01*
G01*
X152956250Y-112437500D02*
G75*
G02X153256250Y-112737500I0J-300000D01*
G01*
X153056250Y-115537500D02*
X152556250Y-115537500D01*
X153256250Y-115337500D02*
X153256250Y-112737500D01*
X152556250Y-112437500D02*
X152956250Y-112437500D01*
X152256250Y-115837500D02*
G75*
G02X152556250Y-115537500I300000J0D01*
G01*
X153256250Y-115337500D02*
G75*
G02X153056250Y-115537500I-200000J0D01*
G01*
X137256250Y-112637500D02*
G75*
G02X137456250Y-112437500I200000J0D01*
G01*
X138256250Y-112137500D02*
G75*
G02X137956250Y-112437500I-300000J0D01*
G01*
X137956250Y-115537500D02*
X137556250Y-115537500D01*
X137256250Y-112637500D02*
X137256250Y-115237500D01*
X137456250Y-112437500D02*
X137956250Y-112437500D01*
X137556250Y-115537500D02*
G75*
G02X137256250Y-115237500I0J300000D01*
G01*
X137956250Y-115537500D02*
G75*
G02X138256250Y-115837500I0J-300000D01*
G01*
X137456250Y-103537500D02*
X137956250Y-103537500D01*
X137956250Y-106637500D02*
X137556250Y-106637500D01*
X137256250Y-103737500D02*
X137256250Y-106337500D01*
X138256250Y-103237500D02*
G75*
G02X137956250Y-103537500I-300000J0D01*
G01*
X137956250Y-106637500D02*
G75*
G02X138256250Y-106937500I0J-300000D01*
G01*
X137556250Y-106637500D02*
G75*
G02X137256250Y-106337500I0J300000D01*
G01*
X137256250Y-103737500D02*
G75*
G02X137456250Y-103537500I200000J0D01*
G01*
X132906250Y-116537500D02*
X119506250Y-116537500D01*
X119506250Y-116537500D02*
G75*
G02X119206250Y-116237500I0J300000D01*
G01*
X119206250Y-116237500D02*
X119206250Y-115837500D01*
X119206250Y-102837500D02*
G75*
G02X119506250Y-102537500I300000J0D01*
G01*
X132906250Y-102537500D02*
X119506250Y-102537500D01*
X119206250Y-106937500D02*
X119206250Y-112137500D01*
X119206250Y-103237500D02*
X119206250Y-102837500D01*
X133206250Y-115837500D02*
X133206250Y-116237500D01*
X132906250Y-102537500D02*
G75*
G02X133206250Y-102837500I0J-300000D01*
G01*
X134206250Y-106437500D02*
G75*
G02X134006250Y-106637500I-200000J0D01*
G01*
X133206250Y-106937500D02*
G75*
G02X133506250Y-106637500I300000J0D01*
G01*
X133506250Y-103537500D02*
X133906250Y-103537500D01*
X134206250Y-106437500D02*
X134206250Y-103837500D01*
X134006250Y-106637500D02*
X133506250Y-106637500D01*
X133206250Y-112137500D02*
X133206250Y-106937500D01*
X133206250Y-116237500D02*
G75*
G02X132906250Y-116537500I-300000J0D01*
G01*
X133506250Y-103537500D02*
G75*
G02X133206250Y-103237500I0J300000D01*
G01*
X133906250Y-103537500D02*
G75*
G02X134206250Y-103837500I0J-300000D01*
G01*
X133206250Y-102837500D02*
X133206250Y-103237500D01*
X133506250Y-112437500D02*
G75*
G02X133206250Y-112137500I0J300000D01*
G01*
X133906250Y-112437500D02*
G75*
G02X134206250Y-112737500I0J-300000D01*
G01*
X134006250Y-115537500D02*
X133506250Y-115537500D01*
X134206250Y-115337500D02*
X134206250Y-112737500D01*
X133506250Y-112437500D02*
X133906250Y-112437500D01*
X133206250Y-115837500D02*
G75*
G02X133506250Y-115537500I300000J0D01*
G01*
X134206250Y-115337500D02*
G75*
G02X134006250Y-115537500I-200000J0D01*
G01*
X118206250Y-112637500D02*
G75*
G02X118406250Y-112437500I200000J0D01*
G01*
X119206250Y-112137500D02*
G75*
G02X118906250Y-112437500I-300000J0D01*
G01*
X118906250Y-115537500D02*
X118506250Y-115537500D01*
X118206250Y-112637500D02*
X118206250Y-115237500D01*
X118406250Y-112437500D02*
X118906250Y-112437500D01*
X118506250Y-115537500D02*
G75*
G02X118206250Y-115237500I0J300000D01*
G01*
X118906250Y-115537500D02*
G75*
G02X119206250Y-115837500I0J-300000D01*
G01*
X118406250Y-103537500D02*
X118906250Y-103537500D01*
X118906250Y-106637500D02*
X118506250Y-106637500D01*
X118206250Y-103737500D02*
X118206250Y-106337500D01*
X119206250Y-103237500D02*
G75*
G02X118906250Y-103537500I-300000J0D01*
G01*
X118906250Y-106637500D02*
G75*
G02X119206250Y-106937500I0J-300000D01*
G01*
X118506250Y-106637500D02*
G75*
G02X118206250Y-106337500I0J300000D01*
G01*
X118206250Y-103737500D02*
G75*
G02X118406250Y-103537500I200000J0D01*
G01*
X107506250Y-116537500D02*
X94106250Y-116537500D01*
X94106250Y-116537500D02*
G75*
G02X93806250Y-116237500I0J300000D01*
G01*
X93806250Y-116237500D02*
X93806250Y-115837500D01*
X93806250Y-102837500D02*
G75*
G02X94106250Y-102537500I300000J0D01*
G01*
X107506250Y-102537500D02*
X94106250Y-102537500D01*
X93806250Y-106937500D02*
X93806250Y-112137500D01*
X93806250Y-103237500D02*
X93806250Y-102837500D01*
X107806250Y-115837500D02*
X107806250Y-116237500D01*
X107506250Y-102537500D02*
G75*
G02X107806250Y-102837500I0J-300000D01*
G01*
X108806250Y-106437500D02*
G75*
G02X108606250Y-106637500I-200000J0D01*
G01*
X107806250Y-106937500D02*
G75*
G02X108106250Y-106637500I300000J0D01*
G01*
X108106250Y-103537500D02*
X108506250Y-103537500D01*
X108806250Y-106437500D02*
X108806250Y-103837500D01*
X108606250Y-106637500D02*
X108106250Y-106637500D01*
X107806250Y-112137500D02*
X107806250Y-106937500D01*
X107806250Y-116237500D02*
G75*
G02X107506250Y-116537500I-300000J0D01*
G01*
X108106250Y-103537500D02*
G75*
G02X107806250Y-103237500I0J300000D01*
G01*
X108506250Y-103537500D02*
G75*
G02X108806250Y-103837500I0J-300000D01*
G01*
X107806250Y-102837500D02*
X107806250Y-103237500D01*
X108106250Y-112437500D02*
G75*
G02X107806250Y-112137500I0J300000D01*
G01*
X108506250Y-112437500D02*
G75*
G02X108806250Y-112737500I0J-300000D01*
G01*
X108606250Y-115537500D02*
X108106250Y-115537500D01*
X108806250Y-115337500D02*
X108806250Y-112737500D01*
X108106250Y-112437500D02*
X108506250Y-112437500D01*
X107806250Y-115837500D02*
G75*
G02X108106250Y-115537500I300000J0D01*
G01*
X108806250Y-115337500D02*
G75*
G02X108606250Y-115537500I-200000J0D01*
G01*
X92806250Y-112637500D02*
G75*
G02X93006250Y-112437500I200000J0D01*
G01*
X93806250Y-112137500D02*
G75*
G02X93506250Y-112437500I-300000J0D01*
G01*
X93506250Y-115537500D02*
X93106250Y-115537500D01*
X92806250Y-112637500D02*
X92806250Y-115237500D01*
X93006250Y-112437500D02*
X93506250Y-112437500D01*
X93106250Y-115537500D02*
G75*
G02X92806250Y-115237500I0J300000D01*
G01*
X93506250Y-115537500D02*
G75*
G02X93806250Y-115837500I0J-300000D01*
G01*
X93006250Y-103537500D02*
X93506250Y-103537500D01*
X93506250Y-106637500D02*
X93106250Y-106637500D01*
X92806250Y-103737500D02*
X92806250Y-106337500D01*
X93806250Y-103237500D02*
G75*
G02X93506250Y-103537500I-300000J0D01*
G01*
X93506250Y-106637500D02*
G75*
G02X93806250Y-106937500I0J-300000D01*
G01*
X93106250Y-106637500D02*
G75*
G02X92806250Y-106337500I0J300000D01*
G01*
X92806250Y-103737500D02*
G75*
G02X93006250Y-103537500I200000J0D01*
G01*
X228156250Y-97487500D02*
X214756250Y-97487500D01*
X214756250Y-97487500D02*
G75*
G02X214456250Y-97187500I0J300000D01*
G01*
X214456250Y-97187500D02*
X214456250Y-96787500D01*
X214456250Y-83787500D02*
G75*
G02X214756250Y-83487500I300000J0D01*
G01*
X228156250Y-83487500D02*
X214756250Y-83487500D01*
X214456250Y-87887500D02*
X214456250Y-93087500D01*
X214456250Y-84187500D02*
X214456250Y-83787500D01*
X228456250Y-96787500D02*
X228456250Y-97187500D01*
X228156250Y-83487500D02*
G75*
G02X228456250Y-83787500I0J-300000D01*
G01*
X229456250Y-87387500D02*
G75*
G02X229256250Y-87587500I-200000J0D01*
G01*
X228456250Y-87887500D02*
G75*
G02X228756250Y-87587500I300000J0D01*
G01*
X228756250Y-84487500D02*
X229156250Y-84487500D01*
X229456250Y-87387500D02*
X229456250Y-84787500D01*
X229256250Y-87587500D02*
X228756250Y-87587500D01*
X228456250Y-93087500D02*
X228456250Y-87887500D01*
X228456250Y-97187500D02*
G75*
G02X228156250Y-97487500I-300000J0D01*
G01*
X228756250Y-84487500D02*
G75*
G02X228456250Y-84187500I0J300000D01*
G01*
X229156250Y-84487500D02*
G75*
G02X229456250Y-84787500I0J-300000D01*
G01*
X228456250Y-83787500D02*
X228456250Y-84187500D01*
X228756250Y-93387500D02*
G75*
G02X228456250Y-93087500I0J300000D01*
G01*
X229156250Y-93387500D02*
G75*
G02X229456250Y-93687500I0J-300000D01*
G01*
X229256250Y-96487500D02*
X228756250Y-96487500D01*
X229456250Y-96287500D02*
X229456250Y-93687500D01*
X228756250Y-93387500D02*
X229156250Y-93387500D01*
X228456250Y-96787500D02*
G75*
G02X228756250Y-96487500I300000J0D01*
G01*
X229456250Y-96287500D02*
G75*
G02X229256250Y-96487500I-200000J0D01*
G01*
X213456250Y-93587500D02*
G75*
G02X213656250Y-93387500I200000J0D01*
G01*
X214456250Y-93087500D02*
G75*
G02X214156250Y-93387500I-300000J0D01*
G01*
X214156250Y-96487500D02*
X213756250Y-96487500D01*
X213456250Y-93587500D02*
X213456250Y-96187500D01*
X213656250Y-93387500D02*
X214156250Y-93387500D01*
X213756250Y-96487500D02*
G75*
G02X213456250Y-96187500I0J300000D01*
G01*
X214156250Y-96487500D02*
G75*
G02X214456250Y-96787500I0J-300000D01*
G01*
X213656250Y-84487500D02*
X214156250Y-84487500D01*
X214156250Y-87587500D02*
X213756250Y-87587500D01*
X213456250Y-84687500D02*
X213456250Y-87287500D01*
X214456250Y-84187500D02*
G75*
G02X214156250Y-84487500I-300000J0D01*
G01*
X214156250Y-87587500D02*
G75*
G02X214456250Y-87887500I0J-300000D01*
G01*
X213756250Y-87587500D02*
G75*
G02X213456250Y-87287500I0J300000D01*
G01*
X213456250Y-84687500D02*
G75*
G02X213656250Y-84487500I200000J0D01*
G01*
X209106250Y-97487500D02*
X195706250Y-97487500D01*
X195706250Y-97487500D02*
G75*
G02X195406250Y-97187500I0J300000D01*
G01*
X195406250Y-97187500D02*
X195406250Y-96787500D01*
X195406250Y-83787500D02*
G75*
G02X195706250Y-83487500I300000J0D01*
G01*
X209106250Y-83487500D02*
X195706250Y-83487500D01*
X195406250Y-87887500D02*
X195406250Y-93087500D01*
X195406250Y-84187500D02*
X195406250Y-83787500D01*
X209406250Y-96787500D02*
X209406250Y-97187500D01*
X209106250Y-83487500D02*
G75*
G02X209406250Y-83787500I0J-300000D01*
G01*
X210406250Y-87387500D02*
G75*
G02X210206250Y-87587500I-200000J0D01*
G01*
X209406250Y-87887500D02*
G75*
G02X209706250Y-87587500I300000J0D01*
G01*
X209706250Y-84487500D02*
X210106250Y-84487500D01*
X210406250Y-87387500D02*
X210406250Y-84787500D01*
X210206250Y-87587500D02*
X209706250Y-87587500D01*
X209406250Y-93087500D02*
X209406250Y-87887500D01*
X209406250Y-97187500D02*
G75*
G02X209106250Y-97487500I-300000J0D01*
G01*
X209706250Y-84487500D02*
G75*
G02X209406250Y-84187500I0J300000D01*
G01*
X210106250Y-84487500D02*
G75*
G02X210406250Y-84787500I0J-300000D01*
G01*
X209406250Y-83787500D02*
X209406250Y-84187500D01*
X209706250Y-93387500D02*
G75*
G02X209406250Y-93087500I0J300000D01*
G01*
X210106250Y-93387500D02*
G75*
G02X210406250Y-93687500I0J-300000D01*
G01*
X210206250Y-96487500D02*
X209706250Y-96487500D01*
X210406250Y-96287500D02*
X210406250Y-93687500D01*
X209706250Y-93387500D02*
X210106250Y-93387500D01*
X209406250Y-96787500D02*
G75*
G02X209706250Y-96487500I300000J0D01*
G01*
X210406250Y-96287500D02*
G75*
G02X210206250Y-96487500I-200000J0D01*
G01*
X194406250Y-93587500D02*
G75*
G02X194606250Y-93387500I200000J0D01*
G01*
X195406250Y-93087500D02*
G75*
G02X195106250Y-93387500I-300000J0D01*
G01*
X195106250Y-96487500D02*
X194706250Y-96487500D01*
X194406250Y-93587500D02*
X194406250Y-96187500D01*
X194606250Y-93387500D02*
X195106250Y-93387500D01*
X194706250Y-96487500D02*
G75*
G02X194406250Y-96187500I0J300000D01*
G01*
X195106250Y-96487500D02*
G75*
G02X195406250Y-96787500I0J-300000D01*
G01*
X194606250Y-84487500D02*
X195106250Y-84487500D01*
X195106250Y-87587500D02*
X194706250Y-87587500D01*
X194406250Y-84687500D02*
X194406250Y-87287500D01*
X195406250Y-84187500D02*
G75*
G02X195106250Y-84487500I-300000J0D01*
G01*
X195106250Y-87587500D02*
G75*
G02X195406250Y-87887500I0J-300000D01*
G01*
X194706250Y-87587500D02*
G75*
G02X194406250Y-87287500I0J300000D01*
G01*
X194406250Y-84687500D02*
G75*
G02X194606250Y-84487500I200000J0D01*
G01*
X190056250Y-97487500D02*
X176656250Y-97487500D01*
X176656250Y-97487500D02*
G75*
G02X176356250Y-97187500I0J300000D01*
G01*
X176356250Y-97187500D02*
X176356250Y-96787500D01*
X176356250Y-83787500D02*
G75*
G02X176656250Y-83487500I300000J0D01*
G01*
X190056250Y-83487500D02*
X176656250Y-83487500D01*
X176356250Y-87887500D02*
X176356250Y-93087500D01*
X176356250Y-84187500D02*
X176356250Y-83787500D01*
X190356250Y-96787500D02*
X190356250Y-97187500D01*
X190056250Y-83487500D02*
G75*
G02X190356250Y-83787500I0J-300000D01*
G01*
X191356250Y-87387500D02*
G75*
G02X191156250Y-87587500I-200000J0D01*
G01*
X190356250Y-87887500D02*
G75*
G02X190656250Y-87587500I300000J0D01*
G01*
X190656250Y-84487500D02*
X191056250Y-84487500D01*
X191356250Y-87387500D02*
X191356250Y-84787500D01*
X191156250Y-87587500D02*
X190656250Y-87587500D01*
X190356250Y-93087500D02*
X190356250Y-87887500D01*
X190356250Y-97187500D02*
G75*
G02X190056250Y-97487500I-300000J0D01*
G01*
X190656250Y-84487500D02*
G75*
G02X190356250Y-84187500I0J300000D01*
G01*
X191056250Y-84487500D02*
G75*
G02X191356250Y-84787500I0J-300000D01*
G01*
X190356250Y-83787500D02*
X190356250Y-84187500D01*
X190656250Y-93387500D02*
G75*
G02X190356250Y-93087500I0J300000D01*
G01*
X191056250Y-93387500D02*
G75*
G02X191356250Y-93687500I0J-300000D01*
G01*
X191156250Y-96487500D02*
X190656250Y-96487500D01*
X191356250Y-96287500D02*
X191356250Y-93687500D01*
X190656250Y-93387500D02*
X191056250Y-93387500D01*
X190356250Y-96787500D02*
G75*
G02X190656250Y-96487500I300000J0D01*
G01*
X191356250Y-96287500D02*
G75*
G02X191156250Y-96487500I-200000J0D01*
G01*
X175356250Y-93587500D02*
G75*
G02X175556250Y-93387500I200000J0D01*
G01*
X176356250Y-93087500D02*
G75*
G02X176056250Y-93387500I-300000J0D01*
G01*
X176056250Y-96487500D02*
X175656250Y-96487500D01*
X175356250Y-93587500D02*
X175356250Y-96187500D01*
X175556250Y-93387500D02*
X176056250Y-93387500D01*
X175656250Y-96487500D02*
G75*
G02X175356250Y-96187500I0J300000D01*
G01*
X176056250Y-96487500D02*
G75*
G02X176356250Y-96787500I0J-300000D01*
G01*
X175556250Y-84487500D02*
X176056250Y-84487500D01*
X176056250Y-87587500D02*
X175656250Y-87587500D01*
X175356250Y-84687500D02*
X175356250Y-87287500D01*
X176356250Y-84187500D02*
G75*
G02X176056250Y-84487500I-300000J0D01*
G01*
X176056250Y-87587500D02*
G75*
G02X176356250Y-87887500I0J-300000D01*
G01*
X175656250Y-87587500D02*
G75*
G02X175356250Y-87287500I0J300000D01*
G01*
X175356250Y-84687500D02*
G75*
G02X175556250Y-84487500I200000J0D01*
G01*
X171006250Y-97487500D02*
X157606250Y-97487500D01*
X157606250Y-97487500D02*
G75*
G02X157306250Y-97187500I0J300000D01*
G01*
X157306250Y-97187500D02*
X157306250Y-96787500D01*
X157306250Y-83787500D02*
G75*
G02X157606250Y-83487500I300000J0D01*
G01*
X171006250Y-83487500D02*
X157606250Y-83487500D01*
X157306250Y-87887500D02*
X157306250Y-93087500D01*
X157306250Y-84187500D02*
X157306250Y-83787500D01*
X171306250Y-96787500D02*
X171306250Y-97187500D01*
X171006250Y-83487500D02*
G75*
G02X171306250Y-83787500I0J-300000D01*
G01*
X172306250Y-87387500D02*
G75*
G02X172106250Y-87587500I-200000J0D01*
G01*
X171306250Y-87887500D02*
G75*
G02X171606250Y-87587500I300000J0D01*
G01*
X171606250Y-84487500D02*
X172006250Y-84487500D01*
X172306250Y-87387500D02*
X172306250Y-84787500D01*
X172106250Y-87587500D02*
X171606250Y-87587500D01*
X171306250Y-93087500D02*
X171306250Y-87887500D01*
X171306250Y-97187500D02*
G75*
G02X171006250Y-97487500I-300000J0D01*
G01*
X171606250Y-84487500D02*
G75*
G02X171306250Y-84187500I0J300000D01*
G01*
X172006250Y-84487500D02*
G75*
G02X172306250Y-84787500I0J-300000D01*
G01*
X171306250Y-83787500D02*
X171306250Y-84187500D01*
X171606250Y-93387500D02*
G75*
G02X171306250Y-93087500I0J300000D01*
G01*
X172006250Y-93387500D02*
G75*
G02X172306250Y-93687500I0J-300000D01*
G01*
X172106250Y-96487500D02*
X171606250Y-96487500D01*
X172306250Y-96287500D02*
X172306250Y-93687500D01*
X171606250Y-93387500D02*
X172006250Y-93387500D01*
X171306250Y-96787500D02*
G75*
G02X171606250Y-96487500I300000J0D01*
G01*
X172306250Y-96287500D02*
G75*
G02X172106250Y-96487500I-200000J0D01*
G01*
X156306250Y-93587500D02*
G75*
G02X156506250Y-93387500I200000J0D01*
G01*
X157306250Y-93087500D02*
G75*
G02X157006250Y-93387500I-300000J0D01*
G01*
X157006250Y-96487500D02*
X156606250Y-96487500D01*
X156306250Y-93587500D02*
X156306250Y-96187500D01*
X156506250Y-93387500D02*
X157006250Y-93387500D01*
X156606250Y-96487500D02*
G75*
G02X156306250Y-96187500I0J300000D01*
G01*
X157006250Y-96487500D02*
G75*
G02X157306250Y-96787500I0J-300000D01*
G01*
X156506250Y-84487500D02*
X157006250Y-84487500D01*
X157006250Y-87587500D02*
X156606250Y-87587500D01*
X156306250Y-84687500D02*
X156306250Y-87287500D01*
X157306250Y-84187500D02*
G75*
G02X157006250Y-84487500I-300000J0D01*
G01*
X157006250Y-87587500D02*
G75*
G02X157306250Y-87887500I0J-300000D01*
G01*
X156606250Y-87587500D02*
G75*
G02X156306250Y-87287500I0J300000D01*
G01*
X156306250Y-84687500D02*
G75*
G02X156506250Y-84487500I200000J0D01*
G01*
X151956250Y-97487500D02*
X138556250Y-97487500D01*
X138556250Y-97487500D02*
G75*
G02X138256250Y-97187500I0J300000D01*
G01*
X138256250Y-97187500D02*
X138256250Y-96787500D01*
X138256250Y-83787500D02*
G75*
G02X138556250Y-83487500I300000J0D01*
G01*
X151956250Y-83487500D02*
X138556250Y-83487500D01*
X138256250Y-87887500D02*
X138256250Y-93087500D01*
X138256250Y-84187500D02*
X138256250Y-83787500D01*
X152256250Y-96787500D02*
X152256250Y-97187500D01*
X151956250Y-83487500D02*
G75*
G02X152256250Y-83787500I0J-300000D01*
G01*
X153256250Y-87387500D02*
G75*
G02X153056250Y-87587500I-200000J0D01*
G01*
X152256250Y-87887500D02*
G75*
G02X152556250Y-87587500I300000J0D01*
G01*
X152556250Y-84487500D02*
X152956250Y-84487500D01*
X153256250Y-87387500D02*
X153256250Y-84787500D01*
X153056250Y-87587500D02*
X152556250Y-87587500D01*
X152256250Y-93087500D02*
X152256250Y-87887500D01*
X152256250Y-97187500D02*
G75*
G02X151956250Y-97487500I-300000J0D01*
G01*
X152556250Y-84487500D02*
G75*
G02X152256250Y-84187500I0J300000D01*
G01*
X152956250Y-84487500D02*
G75*
G02X153256250Y-84787500I0J-300000D01*
G01*
X152256250Y-83787500D02*
X152256250Y-84187500D01*
X152556250Y-93387500D02*
G75*
G02X152256250Y-93087500I0J300000D01*
G01*
X152956250Y-93387500D02*
G75*
G02X153256250Y-93687500I0J-300000D01*
G01*
X153056250Y-96487500D02*
X152556250Y-96487500D01*
X153256250Y-96287500D02*
X153256250Y-93687500D01*
X152556250Y-93387500D02*
X152956250Y-93387500D01*
X152256250Y-96787500D02*
G75*
G02X152556250Y-96487500I300000J0D01*
G01*
X153256250Y-96287500D02*
G75*
G02X153056250Y-96487500I-200000J0D01*
G01*
X137256250Y-93587500D02*
G75*
G02X137456250Y-93387500I200000J0D01*
G01*
X138256250Y-93087500D02*
G75*
G02X137956250Y-93387500I-300000J0D01*
G01*
X137956250Y-96487500D02*
X137556250Y-96487500D01*
X137256250Y-93587500D02*
X137256250Y-96187500D01*
X137456250Y-93387500D02*
X137956250Y-93387500D01*
X137556250Y-96487500D02*
G75*
G02X137256250Y-96187500I0J300000D01*
G01*
X137956250Y-96487500D02*
G75*
G02X138256250Y-96787500I0J-300000D01*
G01*
X137456250Y-84487500D02*
X137956250Y-84487500D01*
X137956250Y-87587500D02*
X137556250Y-87587500D01*
X137256250Y-84687500D02*
X137256250Y-87287500D01*
X138256250Y-84187500D02*
G75*
G02X137956250Y-84487500I-300000J0D01*
G01*
X137956250Y-87587500D02*
G75*
G02X138256250Y-87887500I0J-300000D01*
G01*
X137556250Y-87587500D02*
G75*
G02X137256250Y-87287500I0J300000D01*
G01*
X137256250Y-84687500D02*
G75*
G02X137456250Y-84487500I200000J0D01*
G01*
X132906250Y-97487500D02*
X119506250Y-97487500D01*
X119506250Y-97487500D02*
G75*
G02X119206250Y-97187500I0J300000D01*
G01*
X119206250Y-97187500D02*
X119206250Y-96787500D01*
X119206250Y-83787500D02*
G75*
G02X119506250Y-83487500I300000J0D01*
G01*
X132906250Y-83487500D02*
X119506250Y-83487500D01*
X119206250Y-87887500D02*
X119206250Y-93087500D01*
X119206250Y-84187500D02*
X119206250Y-83787500D01*
X133206250Y-96787500D02*
X133206250Y-97187500D01*
X132906250Y-83487500D02*
G75*
G02X133206250Y-83787500I0J-300000D01*
G01*
X134206250Y-87387500D02*
G75*
G02X134006250Y-87587500I-200000J0D01*
G01*
X133206250Y-87887500D02*
G75*
G02X133506250Y-87587500I300000J0D01*
G01*
X133506250Y-84487500D02*
X133906250Y-84487500D01*
X134206250Y-87387500D02*
X134206250Y-84787500D01*
X134006250Y-87587500D02*
X133506250Y-87587500D01*
X133206250Y-93087500D02*
X133206250Y-87887500D01*
X133206250Y-97187500D02*
G75*
G02X132906250Y-97487500I-300000J0D01*
G01*
X133506250Y-84487500D02*
G75*
G02X133206250Y-84187500I0J300000D01*
G01*
X133906250Y-84487500D02*
G75*
G02X134206250Y-84787500I0J-300000D01*
G01*
X133206250Y-83787500D02*
X133206250Y-84187500D01*
X133506250Y-93387500D02*
G75*
G02X133206250Y-93087500I0J300000D01*
G01*
X133906250Y-93387500D02*
G75*
G02X134206250Y-93687500I0J-300000D01*
G01*
X134006250Y-96487500D02*
X133506250Y-96487500D01*
X134206250Y-96287500D02*
X134206250Y-93687500D01*
X133506250Y-93387500D02*
X133906250Y-93387500D01*
X133206250Y-96787500D02*
G75*
G02X133506250Y-96487500I300000J0D01*
G01*
X134206250Y-96287500D02*
G75*
G02X134006250Y-96487500I-200000J0D01*
G01*
X118206250Y-93587500D02*
G75*
G02X118406250Y-93387500I200000J0D01*
G01*
X119206250Y-93087500D02*
G75*
G02X118906250Y-93387500I-300000J0D01*
G01*
X118906250Y-96487500D02*
X118506250Y-96487500D01*
X118206250Y-93587500D02*
X118206250Y-96187500D01*
X118406250Y-93387500D02*
X118906250Y-93387500D01*
X118506250Y-96487500D02*
G75*
G02X118206250Y-96187500I0J300000D01*
G01*
X118906250Y-96487500D02*
G75*
G02X119206250Y-96787500I0J-300000D01*
G01*
X118406250Y-84487500D02*
X118906250Y-84487500D01*
X118906250Y-87587500D02*
X118506250Y-87587500D01*
X118206250Y-84687500D02*
X118206250Y-87287500D01*
X119206250Y-84187500D02*
G75*
G02X118906250Y-84487500I-300000J0D01*
G01*
X118906250Y-87587500D02*
G75*
G02X119206250Y-87887500I0J-300000D01*
G01*
X118506250Y-87587500D02*
G75*
G02X118206250Y-87287500I0J300000D01*
G01*
X118206250Y-84687500D02*
G75*
G02X118406250Y-84487500I200000J0D01*
G01*
X107506250Y-97487500D02*
X94106250Y-97487500D01*
X94106250Y-97487500D02*
G75*
G02X93806250Y-97187500I0J300000D01*
G01*
X93806250Y-97187500D02*
X93806250Y-96787500D01*
X93806250Y-83787500D02*
G75*
G02X94106250Y-83487500I300000J0D01*
G01*
X107506250Y-83487500D02*
X94106250Y-83487500D01*
X93806250Y-87887500D02*
X93806250Y-93087500D01*
X93806250Y-84187500D02*
X93806250Y-83787500D01*
X107806250Y-96787500D02*
X107806250Y-97187500D01*
X107506250Y-83487500D02*
G75*
G02X107806250Y-83787500I0J-300000D01*
G01*
X108806250Y-87387500D02*
G75*
G02X108606250Y-87587500I-200000J0D01*
G01*
X107806250Y-87887500D02*
G75*
G02X108106250Y-87587500I300000J0D01*
G01*
X108106250Y-84487500D02*
X108506250Y-84487500D01*
X108806250Y-87387500D02*
X108806250Y-84787500D01*
X108606250Y-87587500D02*
X108106250Y-87587500D01*
X107806250Y-93087500D02*
X107806250Y-87887500D01*
X107806250Y-97187500D02*
G75*
G02X107506250Y-97487500I-300000J0D01*
G01*
X108106250Y-84487500D02*
G75*
G02X107806250Y-84187500I0J300000D01*
G01*
X108506250Y-84487500D02*
G75*
G02X108806250Y-84787500I0J-300000D01*
G01*
X107806250Y-83787500D02*
X107806250Y-84187500D01*
X108106250Y-93387500D02*
G75*
G02X107806250Y-93087500I0J300000D01*
G01*
X108506250Y-93387500D02*
G75*
G02X108806250Y-93687500I0J-300000D01*
G01*
X108606250Y-96487500D02*
X108106250Y-96487500D01*
X108806250Y-96287500D02*
X108806250Y-93687500D01*
X108106250Y-93387500D02*
X108506250Y-93387500D01*
X107806250Y-96787500D02*
G75*
G02X108106250Y-96487500I300000J0D01*
G01*
X108806250Y-96287500D02*
G75*
G02X108606250Y-96487500I-200000J0D01*
G01*
X92806250Y-93587500D02*
G75*
G02X93006250Y-93387500I200000J0D01*
G01*
X93806250Y-93087500D02*
G75*
G02X93506250Y-93387500I-300000J0D01*
G01*
X93506250Y-96487500D02*
X93106250Y-96487500D01*
X92806250Y-93587500D02*
X92806250Y-96187500D01*
X93006250Y-93387500D02*
X93506250Y-93387500D01*
X93106250Y-96487500D02*
G75*
G02X92806250Y-96187500I0J300000D01*
G01*
X93506250Y-96487500D02*
G75*
G02X93806250Y-96787500I0J-300000D01*
G01*
X93006250Y-84487500D02*
X93506250Y-84487500D01*
X93506250Y-87587500D02*
X93106250Y-87587500D01*
X92806250Y-84687500D02*
X92806250Y-87287500D01*
X93806250Y-84187500D02*
G75*
G02X93506250Y-84487500I-300000J0D01*
G01*
X93506250Y-87587500D02*
G75*
G02X93806250Y-87887500I0J-300000D01*
G01*
X93106250Y-87587500D02*
G75*
G02X92806250Y-87287500I0J300000D01*
G01*
X92806250Y-84687500D02*
G75*
G02X93006250Y-84487500I200000J0D01*
G01*
X228156250Y-78437500D02*
X214756250Y-78437500D01*
X214756250Y-78437500D02*
G75*
G02X214456250Y-78137500I0J300000D01*
G01*
X214456250Y-78137500D02*
X214456250Y-77737500D01*
X214456250Y-64737500D02*
G75*
G02X214756250Y-64437500I300000J0D01*
G01*
X228156250Y-64437500D02*
X214756250Y-64437500D01*
X214456250Y-68837500D02*
X214456250Y-74037500D01*
X214456250Y-65137500D02*
X214456250Y-64737500D01*
X228456250Y-77737500D02*
X228456250Y-78137500D01*
X228156250Y-64437500D02*
G75*
G02X228456250Y-64737500I0J-300000D01*
G01*
X229456250Y-68337500D02*
G75*
G02X229256250Y-68537500I-200000J0D01*
G01*
X228456250Y-68837500D02*
G75*
G02X228756250Y-68537500I300000J0D01*
G01*
X228756250Y-65437500D02*
X229156250Y-65437500D01*
X229456250Y-68337500D02*
X229456250Y-65737500D01*
X229256250Y-68537500D02*
X228756250Y-68537500D01*
X228456250Y-74037500D02*
X228456250Y-68837500D01*
X228456250Y-78137500D02*
G75*
G02X228156250Y-78437500I-300000J0D01*
G01*
X228756250Y-65437500D02*
G75*
G02X228456250Y-65137500I0J300000D01*
G01*
X229156250Y-65437500D02*
G75*
G02X229456250Y-65737500I0J-300000D01*
G01*
X228456250Y-64737500D02*
X228456250Y-65137500D01*
X228756250Y-74337500D02*
G75*
G02X228456250Y-74037500I0J300000D01*
G01*
X229156250Y-74337500D02*
G75*
G02X229456250Y-74637500I0J-300000D01*
G01*
X229256250Y-77437500D02*
X228756250Y-77437500D01*
X229456250Y-77237500D02*
X229456250Y-74637500D01*
X228756250Y-74337500D02*
X229156250Y-74337500D01*
X228456250Y-77737500D02*
G75*
G02X228756250Y-77437500I300000J0D01*
G01*
X229456250Y-77237500D02*
G75*
G02X229256250Y-77437500I-200000J0D01*
G01*
X213456250Y-74537500D02*
G75*
G02X213656250Y-74337500I200000J0D01*
G01*
X214456250Y-74037500D02*
G75*
G02X214156250Y-74337500I-300000J0D01*
G01*
X214156250Y-77437500D02*
X213756250Y-77437500D01*
X213456250Y-74537500D02*
X213456250Y-77137500D01*
X213656250Y-74337500D02*
X214156250Y-74337500D01*
X213756250Y-77437500D02*
G75*
G02X213456250Y-77137500I0J300000D01*
G01*
X214156250Y-77437500D02*
G75*
G02X214456250Y-77737500I0J-300000D01*
G01*
X213656250Y-65437500D02*
X214156250Y-65437500D01*
X214156250Y-68537500D02*
X213756250Y-68537500D01*
X213456250Y-65637500D02*
X213456250Y-68237500D01*
X214456250Y-65137500D02*
G75*
G02X214156250Y-65437500I-300000J0D01*
G01*
X214156250Y-68537500D02*
G75*
G02X214456250Y-68837500I0J-300000D01*
G01*
X213756250Y-68537500D02*
G75*
G02X213456250Y-68237500I0J300000D01*
G01*
X213456250Y-65637500D02*
G75*
G02X213656250Y-65437500I200000J0D01*
G01*
X209106250Y-78437500D02*
X195706250Y-78437500D01*
X195706250Y-78437500D02*
G75*
G02X195406250Y-78137500I0J300000D01*
G01*
X195406250Y-78137500D02*
X195406250Y-77737500D01*
X195406250Y-64737500D02*
G75*
G02X195706250Y-64437500I300000J0D01*
G01*
X209106250Y-64437500D02*
X195706250Y-64437500D01*
X195406250Y-68837500D02*
X195406250Y-74037500D01*
X195406250Y-65137500D02*
X195406250Y-64737500D01*
X209406250Y-77737500D02*
X209406250Y-78137500D01*
X209106250Y-64437500D02*
G75*
G02X209406250Y-64737500I0J-300000D01*
G01*
X210406250Y-68337500D02*
G75*
G02X210206250Y-68537500I-200000J0D01*
G01*
X209406250Y-68837500D02*
G75*
G02X209706250Y-68537500I300000J0D01*
G01*
X209706250Y-65437500D02*
X210106250Y-65437500D01*
X210406250Y-68337500D02*
X210406250Y-65737500D01*
X210206250Y-68537500D02*
X209706250Y-68537500D01*
X209406250Y-74037500D02*
X209406250Y-68837500D01*
X209406250Y-78137500D02*
G75*
G02X209106250Y-78437500I-300000J0D01*
G01*
X209706250Y-65437500D02*
G75*
G02X209406250Y-65137500I0J300000D01*
G01*
X210106250Y-65437500D02*
G75*
G02X210406250Y-65737500I0J-300000D01*
G01*
X209406250Y-64737500D02*
X209406250Y-65137500D01*
X209706250Y-74337500D02*
G75*
G02X209406250Y-74037500I0J300000D01*
G01*
X210106250Y-74337500D02*
G75*
G02X210406250Y-74637500I0J-300000D01*
G01*
X210206250Y-77437500D02*
X209706250Y-77437500D01*
X210406250Y-77237500D02*
X210406250Y-74637500D01*
X209706250Y-74337500D02*
X210106250Y-74337500D01*
X209406250Y-77737500D02*
G75*
G02X209706250Y-77437500I300000J0D01*
G01*
X210406250Y-77237500D02*
G75*
G02X210206250Y-77437500I-200000J0D01*
G01*
X194406250Y-74537500D02*
G75*
G02X194606250Y-74337500I200000J0D01*
G01*
X195406250Y-74037500D02*
G75*
G02X195106250Y-74337500I-300000J0D01*
G01*
X195106250Y-77437500D02*
X194706250Y-77437500D01*
X194406250Y-74537500D02*
X194406250Y-77137500D01*
X194606250Y-74337500D02*
X195106250Y-74337500D01*
X194706250Y-77437500D02*
G75*
G02X194406250Y-77137500I0J300000D01*
G01*
X195106250Y-77437500D02*
G75*
G02X195406250Y-77737500I0J-300000D01*
G01*
X194606250Y-65437500D02*
X195106250Y-65437500D01*
X195106250Y-68537500D02*
X194706250Y-68537500D01*
X194406250Y-65637500D02*
X194406250Y-68237500D01*
X195406250Y-65137500D02*
G75*
G02X195106250Y-65437500I-300000J0D01*
G01*
X195106250Y-68537500D02*
G75*
G02X195406250Y-68837500I0J-300000D01*
G01*
X194706250Y-68537500D02*
G75*
G02X194406250Y-68237500I0J300000D01*
G01*
X194406250Y-65637500D02*
G75*
G02X194606250Y-65437500I200000J0D01*
G01*
X190056250Y-78437500D02*
X176656250Y-78437500D01*
X176656250Y-78437500D02*
G75*
G02X176356250Y-78137500I0J300000D01*
G01*
X176356250Y-78137500D02*
X176356250Y-77737500D01*
X176356250Y-64737500D02*
G75*
G02X176656250Y-64437500I300000J0D01*
G01*
X190056250Y-64437500D02*
X176656250Y-64437500D01*
X176356250Y-68837500D02*
X176356250Y-74037500D01*
X176356250Y-65137500D02*
X176356250Y-64737500D01*
X190356250Y-77737500D02*
X190356250Y-78137500D01*
X190056250Y-64437500D02*
G75*
G02X190356250Y-64737500I0J-300000D01*
G01*
X191356250Y-68337500D02*
G75*
G02X191156250Y-68537500I-200000J0D01*
G01*
X190356250Y-68837500D02*
G75*
G02X190656250Y-68537500I300000J0D01*
G01*
X190656250Y-65437500D02*
X191056250Y-65437500D01*
X191356250Y-68337500D02*
X191356250Y-65737500D01*
X191156250Y-68537500D02*
X190656250Y-68537500D01*
X190356250Y-74037500D02*
X190356250Y-68837500D01*
X190356250Y-78137500D02*
G75*
G02X190056250Y-78437500I-300000J0D01*
G01*
X190656250Y-65437500D02*
G75*
G02X190356250Y-65137500I0J300000D01*
G01*
X191056250Y-65437500D02*
G75*
G02X191356250Y-65737500I0J-300000D01*
G01*
X190356250Y-64737500D02*
X190356250Y-65137500D01*
X190656250Y-74337500D02*
G75*
G02X190356250Y-74037500I0J300000D01*
G01*
X191056250Y-74337500D02*
G75*
G02X191356250Y-74637500I0J-300000D01*
G01*
X191156250Y-77437500D02*
X190656250Y-77437500D01*
X191356250Y-77237500D02*
X191356250Y-74637500D01*
X190656250Y-74337500D02*
X191056250Y-74337500D01*
X190356250Y-77737500D02*
G75*
G02X190656250Y-77437500I300000J0D01*
G01*
X191356250Y-77237500D02*
G75*
G02X191156250Y-77437500I-200000J0D01*
G01*
X175356250Y-74537500D02*
G75*
G02X175556250Y-74337500I200000J0D01*
G01*
X176356250Y-74037500D02*
G75*
G02X176056250Y-74337500I-300000J0D01*
G01*
X176056250Y-77437500D02*
X175656250Y-77437500D01*
X175356250Y-74537500D02*
X175356250Y-77137500D01*
X175556250Y-74337500D02*
X176056250Y-74337500D01*
X175656250Y-77437500D02*
G75*
G02X175356250Y-77137500I0J300000D01*
G01*
X176056250Y-77437500D02*
G75*
G02X176356250Y-77737500I0J-300000D01*
G01*
X175556250Y-65437500D02*
X176056250Y-65437500D01*
X176056250Y-68537500D02*
X175656250Y-68537500D01*
X175356250Y-65637500D02*
X175356250Y-68237500D01*
X176356250Y-65137500D02*
G75*
G02X176056250Y-65437500I-300000J0D01*
G01*
X176056250Y-68537500D02*
G75*
G02X176356250Y-68837500I0J-300000D01*
G01*
X175656250Y-68537500D02*
G75*
G02X175356250Y-68237500I0J300000D01*
G01*
X175356250Y-65637500D02*
G75*
G02X175556250Y-65437500I200000J0D01*
G01*
X171006250Y-78437500D02*
X157606250Y-78437500D01*
X157606250Y-78437500D02*
G75*
G02X157306250Y-78137500I0J300000D01*
G01*
X157306250Y-78137500D02*
X157306250Y-77737500D01*
X157306250Y-64737500D02*
G75*
G02X157606250Y-64437500I300000J0D01*
G01*
X171006250Y-64437500D02*
X157606250Y-64437500D01*
X157306250Y-68837500D02*
X157306250Y-74037500D01*
X157306250Y-65137500D02*
X157306250Y-64737500D01*
X171306250Y-77737500D02*
X171306250Y-78137500D01*
X171006250Y-64437500D02*
G75*
G02X171306250Y-64737500I0J-300000D01*
G01*
X172306250Y-68337500D02*
G75*
G02X172106250Y-68537500I-200000J0D01*
G01*
X171306250Y-68837500D02*
G75*
G02X171606250Y-68537500I300000J0D01*
G01*
X171606250Y-65437500D02*
X172006250Y-65437500D01*
X172306250Y-68337500D02*
X172306250Y-65737500D01*
X172106250Y-68537500D02*
X171606250Y-68537500D01*
X171306250Y-74037500D02*
X171306250Y-68837500D01*
X171306250Y-78137500D02*
G75*
G02X171006250Y-78437500I-300000J0D01*
G01*
X171606250Y-65437500D02*
G75*
G02X171306250Y-65137500I0J300000D01*
G01*
X172006250Y-65437500D02*
G75*
G02X172306250Y-65737500I0J-300000D01*
G01*
X171306250Y-64737500D02*
X171306250Y-65137500D01*
X171606250Y-74337500D02*
G75*
G02X171306250Y-74037500I0J300000D01*
G01*
X172006250Y-74337500D02*
G75*
G02X172306250Y-74637500I0J-300000D01*
G01*
X172106250Y-77437500D02*
X171606250Y-77437500D01*
X172306250Y-77237500D02*
X172306250Y-74637500D01*
X171606250Y-74337500D02*
X172006250Y-74337500D01*
X171306250Y-77737500D02*
G75*
G02X171606250Y-77437500I300000J0D01*
G01*
X172306250Y-77237500D02*
G75*
G02X172106250Y-77437500I-200000J0D01*
G01*
X156306250Y-74537500D02*
G75*
G02X156506250Y-74337500I200000J0D01*
G01*
X157306250Y-74037500D02*
G75*
G02X157006250Y-74337500I-300000J0D01*
G01*
X157006250Y-77437500D02*
X156606250Y-77437500D01*
X156306250Y-74537500D02*
X156306250Y-77137500D01*
X156506250Y-74337500D02*
X157006250Y-74337500D01*
X156606250Y-77437500D02*
G75*
G02X156306250Y-77137500I0J300000D01*
G01*
X157006250Y-77437500D02*
G75*
G02X157306250Y-77737500I0J-300000D01*
G01*
X156506250Y-65437500D02*
X157006250Y-65437500D01*
X157006250Y-68537500D02*
X156606250Y-68537500D01*
X156306250Y-65637500D02*
X156306250Y-68237500D01*
X157306250Y-65137500D02*
G75*
G02X157006250Y-65437500I-300000J0D01*
G01*
X157006250Y-68537500D02*
G75*
G02X157306250Y-68837500I0J-300000D01*
G01*
X156606250Y-68537500D02*
G75*
G02X156306250Y-68237500I0J300000D01*
G01*
X156306250Y-65637500D02*
G75*
G02X156506250Y-65437500I200000J0D01*
G01*
X151956250Y-78437500D02*
X138556250Y-78437500D01*
X138556250Y-78437500D02*
G75*
G02X138256250Y-78137500I0J300000D01*
G01*
X138256250Y-78137500D02*
X138256250Y-77737500D01*
X138256250Y-64737500D02*
G75*
G02X138556250Y-64437500I300000J0D01*
G01*
X151956250Y-64437500D02*
X138556250Y-64437500D01*
X138256250Y-68837500D02*
X138256250Y-74037500D01*
X138256250Y-65137500D02*
X138256250Y-64737500D01*
X152256250Y-77737500D02*
X152256250Y-78137500D01*
X151956250Y-64437500D02*
G75*
G02X152256250Y-64737500I0J-300000D01*
G01*
X153256250Y-68337500D02*
G75*
G02X153056250Y-68537500I-200000J0D01*
G01*
X152256250Y-68837500D02*
G75*
G02X152556250Y-68537500I300000J0D01*
G01*
X152556250Y-65437500D02*
X152956250Y-65437500D01*
X153256250Y-68337500D02*
X153256250Y-65737500D01*
X153056250Y-68537500D02*
X152556250Y-68537500D01*
X152256250Y-74037500D02*
X152256250Y-68837500D01*
X152256250Y-78137500D02*
G75*
G02X151956250Y-78437500I-300000J0D01*
G01*
X152556250Y-65437500D02*
G75*
G02X152256250Y-65137500I0J300000D01*
G01*
X152956250Y-65437500D02*
G75*
G02X153256250Y-65737500I0J-300000D01*
G01*
X152256250Y-64737500D02*
X152256250Y-65137500D01*
X152556250Y-74337500D02*
G75*
G02X152256250Y-74037500I0J300000D01*
G01*
X152956250Y-74337500D02*
G75*
G02X153256250Y-74637500I0J-300000D01*
G01*
X153056250Y-77437500D02*
X152556250Y-77437500D01*
X153256250Y-77237500D02*
X153256250Y-74637500D01*
X152556250Y-74337500D02*
X152956250Y-74337500D01*
X152256250Y-77737500D02*
G75*
G02X152556250Y-77437500I300000J0D01*
G01*
X153256250Y-77237500D02*
G75*
G02X153056250Y-77437500I-200000J0D01*
G01*
X137256250Y-74537500D02*
G75*
G02X137456250Y-74337500I200000J0D01*
G01*
X138256250Y-74037500D02*
G75*
G02X137956250Y-74337500I-300000J0D01*
G01*
X137956250Y-77437500D02*
X137556250Y-77437500D01*
X137256250Y-74537500D02*
X137256250Y-77137500D01*
X137456250Y-74337500D02*
X137956250Y-74337500D01*
X137556250Y-77437500D02*
G75*
G02X137256250Y-77137500I0J300000D01*
G01*
X137956250Y-77437500D02*
G75*
G02X138256250Y-77737500I0J-300000D01*
G01*
X137456250Y-65437500D02*
X137956250Y-65437500D01*
X137956250Y-68537500D02*
X137556250Y-68537500D01*
X137256250Y-65637500D02*
X137256250Y-68237500D01*
X138256250Y-65137500D02*
G75*
G02X137956250Y-65437500I-300000J0D01*
G01*
X137956250Y-68537500D02*
G75*
G02X138256250Y-68837500I0J-300000D01*
G01*
X137556250Y-68537500D02*
G75*
G02X137256250Y-68237500I0J300000D01*
G01*
X137256250Y-65637500D02*
G75*
G02X137456250Y-65437500I200000J0D01*
G01*
X132906250Y-78437500D02*
X119506250Y-78437500D01*
X119506250Y-78437500D02*
G75*
G02X119206250Y-78137500I0J300000D01*
G01*
X119206250Y-78137500D02*
X119206250Y-77737500D01*
X119206250Y-64737500D02*
G75*
G02X119506250Y-64437500I300000J0D01*
G01*
X132906250Y-64437500D02*
X119506250Y-64437500D01*
X119206250Y-68837500D02*
X119206250Y-74037500D01*
X119206250Y-65137500D02*
X119206250Y-64737500D01*
X133206250Y-77737500D02*
X133206250Y-78137500D01*
X132906250Y-64437500D02*
G75*
G02X133206250Y-64737500I0J-300000D01*
G01*
X134206250Y-68337500D02*
G75*
G02X134006250Y-68537500I-200000J0D01*
G01*
X133206250Y-68837500D02*
G75*
G02X133506250Y-68537500I300000J0D01*
G01*
X133506250Y-65437500D02*
X133906250Y-65437500D01*
X134206250Y-68337500D02*
X134206250Y-65737500D01*
X134006250Y-68537500D02*
X133506250Y-68537500D01*
X133206250Y-74037500D02*
X133206250Y-68837500D01*
X133206250Y-78137500D02*
G75*
G02X132906250Y-78437500I-300000J0D01*
G01*
X133506250Y-65437500D02*
G75*
G02X133206250Y-65137500I0J300000D01*
G01*
X133906250Y-65437500D02*
G75*
G02X134206250Y-65737500I0J-300000D01*
G01*
X133206250Y-64737500D02*
X133206250Y-65137500D01*
X133506250Y-74337500D02*
G75*
G02X133206250Y-74037500I0J300000D01*
G01*
X133906250Y-74337500D02*
G75*
G02X134206250Y-74637500I0J-300000D01*
G01*
X134006250Y-77437500D02*
X133506250Y-77437500D01*
X134206250Y-77237500D02*
X134206250Y-74637500D01*
X133506250Y-74337500D02*
X133906250Y-74337500D01*
X133206250Y-77737500D02*
G75*
G02X133506250Y-77437500I300000J0D01*
G01*
X134206250Y-77237500D02*
G75*
G02X134006250Y-77437500I-200000J0D01*
G01*
X118206250Y-74537500D02*
G75*
G02X118406250Y-74337500I200000J0D01*
G01*
X119206250Y-74037500D02*
G75*
G02X118906250Y-74337500I-300000J0D01*
G01*
X118906250Y-77437500D02*
X118506250Y-77437500D01*
X118206250Y-74537500D02*
X118206250Y-77137500D01*
X118406250Y-74337500D02*
X118906250Y-74337500D01*
X118506250Y-77437500D02*
G75*
G02X118206250Y-77137500I0J300000D01*
G01*
X118906250Y-77437500D02*
G75*
G02X119206250Y-77737500I0J-300000D01*
G01*
X118406250Y-65437500D02*
X118906250Y-65437500D01*
X118906250Y-68537500D02*
X118506250Y-68537500D01*
X118206250Y-65637500D02*
X118206250Y-68237500D01*
X119206250Y-65137500D02*
G75*
G02X118906250Y-65437500I-300000J0D01*
G01*
X118906250Y-68537500D02*
G75*
G02X119206250Y-68837500I0J-300000D01*
G01*
X118506250Y-68537500D02*
G75*
G02X118206250Y-68237500I0J300000D01*
G01*
X118206250Y-65637500D02*
G75*
G02X118406250Y-65437500I200000J0D01*
G01*
X107506250Y-78437500D02*
X94106250Y-78437500D01*
X94106250Y-78437500D02*
G75*
G02X93806250Y-78137500I0J300000D01*
G01*
X93806250Y-78137500D02*
X93806250Y-77737500D01*
X93806250Y-64737500D02*
G75*
G02X94106250Y-64437500I300000J0D01*
G01*
X107506250Y-64437500D02*
X94106250Y-64437500D01*
X93806250Y-68837500D02*
X93806250Y-74037500D01*
X93806250Y-65137500D02*
X93806250Y-64737500D01*
X107806250Y-77737500D02*
X107806250Y-78137500D01*
X107506250Y-64437500D02*
G75*
G02X107806250Y-64737500I0J-300000D01*
G01*
X108806250Y-68337500D02*
G75*
G02X108606250Y-68537500I-200000J0D01*
G01*
X107806250Y-68837500D02*
G75*
G02X108106250Y-68537500I300000J0D01*
G01*
X108106250Y-65437500D02*
X108506250Y-65437500D01*
X108806250Y-68337500D02*
X108806250Y-65737500D01*
X108606250Y-68537500D02*
X108106250Y-68537500D01*
X107806250Y-74037500D02*
X107806250Y-68837500D01*
X107806250Y-78137500D02*
G75*
G02X107506250Y-78437500I-300000J0D01*
G01*
X108106250Y-65437500D02*
G75*
G02X107806250Y-65137500I0J300000D01*
G01*
X108506250Y-65437500D02*
G75*
G02X108806250Y-65737500I0J-300000D01*
G01*
X107806250Y-64737500D02*
X107806250Y-65137500D01*
X108106250Y-74337500D02*
G75*
G02X107806250Y-74037500I0J300000D01*
G01*
X108506250Y-74337500D02*
G75*
G02X108806250Y-74637500I0J-300000D01*
G01*
X108606250Y-77437500D02*
X108106250Y-77437500D01*
X108806250Y-77237500D02*
X108806250Y-74637500D01*
X108106250Y-74337500D02*
X108506250Y-74337500D01*
X107806250Y-77737500D02*
G75*
G02X108106250Y-77437500I300000J0D01*
G01*
X108806250Y-77237500D02*
G75*
G02X108606250Y-77437500I-200000J0D01*
G01*
X92806250Y-74537500D02*
G75*
G02X93006250Y-74337500I200000J0D01*
G01*
X93806250Y-74037500D02*
G75*
G02X93506250Y-74337500I-300000J0D01*
G01*
X93506250Y-77437500D02*
X93106250Y-77437500D01*
X92806250Y-74537500D02*
X92806250Y-77137500D01*
X93006250Y-74337500D02*
X93506250Y-74337500D01*
X93106250Y-77437500D02*
G75*
G02X92806250Y-77137500I0J300000D01*
G01*
X93506250Y-77437500D02*
G75*
G02X93806250Y-77737500I0J-300000D01*
G01*
X93006250Y-65437500D02*
X93506250Y-65437500D01*
X93506250Y-68537500D02*
X93106250Y-68537500D01*
X92806250Y-65637500D02*
X92806250Y-68237500D01*
X93806250Y-65137500D02*
G75*
G02X93506250Y-65437500I-300000J0D01*
G01*
X93506250Y-68537500D02*
G75*
G02X93806250Y-68837500I0J-300000D01*
G01*
X93106250Y-68537500D02*
G75*
G02X92806250Y-68237500I0J300000D01*
G01*
X92806250Y-65637500D02*
G75*
G02X93006250Y-65437500I200000J0D01*
G01*
X228156250Y-59387500D02*
X214756250Y-59387500D01*
X214756250Y-59387500D02*
G75*
G02X214456250Y-59087500I0J300000D01*
G01*
X214456250Y-59087500D02*
X214456250Y-58687500D01*
X214456250Y-45687500D02*
G75*
G02X214756250Y-45387500I300000J0D01*
G01*
X228156250Y-45387500D02*
X214756250Y-45387500D01*
X214456250Y-49787500D02*
X214456250Y-54987500D01*
X214456250Y-46087500D02*
X214456250Y-45687500D01*
X228456250Y-58687500D02*
X228456250Y-59087500D01*
X228156250Y-45387500D02*
G75*
G02X228456250Y-45687500I0J-300000D01*
G01*
X229456250Y-49287500D02*
G75*
G02X229256250Y-49487500I-200000J0D01*
G01*
X228456250Y-49787500D02*
G75*
G02X228756250Y-49487500I300000J0D01*
G01*
X228756250Y-46387500D02*
X229156250Y-46387500D01*
X229456250Y-49287500D02*
X229456250Y-46687500D01*
X229256250Y-49487500D02*
X228756250Y-49487500D01*
X228456250Y-54987500D02*
X228456250Y-49787500D01*
X228456250Y-59087500D02*
G75*
G02X228156250Y-59387500I-300000J0D01*
G01*
X228756250Y-46387500D02*
G75*
G02X228456250Y-46087500I0J300000D01*
G01*
X229156250Y-46387500D02*
G75*
G02X229456250Y-46687500I0J-300000D01*
G01*
X228456250Y-45687500D02*
X228456250Y-46087500D01*
X228756250Y-55287500D02*
G75*
G02X228456250Y-54987500I0J300000D01*
G01*
X229156250Y-55287500D02*
G75*
G02X229456250Y-55587500I0J-300000D01*
G01*
X229256250Y-58387500D02*
X228756250Y-58387500D01*
X229456250Y-58187500D02*
X229456250Y-55587500D01*
X228756250Y-55287500D02*
X229156250Y-55287500D01*
X228456250Y-58687500D02*
G75*
G02X228756250Y-58387500I300000J0D01*
G01*
X229456250Y-58187500D02*
G75*
G02X229256250Y-58387500I-200000J0D01*
G01*
X213456250Y-55487500D02*
G75*
G02X213656250Y-55287500I200000J0D01*
G01*
X214456250Y-54987500D02*
G75*
G02X214156250Y-55287500I-300000J0D01*
G01*
X214156250Y-58387500D02*
X213756250Y-58387500D01*
X213456250Y-55487500D02*
X213456250Y-58087500D01*
X213656250Y-55287500D02*
X214156250Y-55287500D01*
X213756250Y-58387500D02*
G75*
G02X213456250Y-58087500I0J300000D01*
G01*
X214156250Y-58387500D02*
G75*
G02X214456250Y-58687500I0J-300000D01*
G01*
X213656250Y-46387500D02*
X214156250Y-46387500D01*
X214156250Y-49487500D02*
X213756250Y-49487500D01*
X213456250Y-46587500D02*
X213456250Y-49187500D01*
X214456250Y-46087500D02*
G75*
G02X214156250Y-46387500I-300000J0D01*
G01*
X214156250Y-49487500D02*
G75*
G02X214456250Y-49787500I0J-300000D01*
G01*
X213756250Y-49487500D02*
G75*
G02X213456250Y-49187500I0J300000D01*
G01*
X213456250Y-46587500D02*
G75*
G02X213656250Y-46387500I200000J0D01*
G01*
X209106250Y-59387500D02*
X195706250Y-59387500D01*
X195706250Y-59387500D02*
G75*
G02X195406250Y-59087500I0J300000D01*
G01*
X195406250Y-59087500D02*
X195406250Y-58687500D01*
X195406250Y-45687500D02*
G75*
G02X195706250Y-45387500I300000J0D01*
G01*
X209106250Y-45387500D02*
X195706250Y-45387500D01*
X195406250Y-49787500D02*
X195406250Y-54987500D01*
X195406250Y-46087500D02*
X195406250Y-45687500D01*
X209406250Y-58687500D02*
X209406250Y-59087500D01*
X209106250Y-45387500D02*
G75*
G02X209406250Y-45687500I0J-300000D01*
G01*
X210406250Y-49287500D02*
G75*
G02X210206250Y-49487500I-200000J0D01*
G01*
X209406250Y-49787500D02*
G75*
G02X209706250Y-49487500I300000J0D01*
G01*
X209706250Y-46387500D02*
X210106250Y-46387500D01*
X210406250Y-49287500D02*
X210406250Y-46687500D01*
X210206250Y-49487500D02*
X209706250Y-49487500D01*
X209406250Y-54987500D02*
X209406250Y-49787500D01*
X209406250Y-59087500D02*
G75*
G02X209106250Y-59387500I-300000J0D01*
G01*
X209706250Y-46387500D02*
G75*
G02X209406250Y-46087500I0J300000D01*
G01*
X210106250Y-46387500D02*
G75*
G02X210406250Y-46687500I0J-300000D01*
G01*
X209406250Y-45687500D02*
X209406250Y-46087500D01*
X209706250Y-55287500D02*
G75*
G02X209406250Y-54987500I0J300000D01*
G01*
X210106250Y-55287500D02*
G75*
G02X210406250Y-55587500I0J-300000D01*
G01*
X210206250Y-58387500D02*
X209706250Y-58387500D01*
X210406250Y-58187500D02*
X210406250Y-55587500D01*
X209706250Y-55287500D02*
X210106250Y-55287500D01*
X209406250Y-58687500D02*
G75*
G02X209706250Y-58387500I300000J0D01*
G01*
X210406250Y-58187500D02*
G75*
G02X210206250Y-58387500I-200000J0D01*
G01*
X194406250Y-55487500D02*
G75*
G02X194606250Y-55287500I200000J0D01*
G01*
X195406250Y-54987500D02*
G75*
G02X195106250Y-55287500I-300000J0D01*
G01*
X195106250Y-58387500D02*
X194706250Y-58387500D01*
X194406250Y-55487500D02*
X194406250Y-58087500D01*
X194606250Y-55287500D02*
X195106250Y-55287500D01*
X194706250Y-58387500D02*
G75*
G02X194406250Y-58087500I0J300000D01*
G01*
X195106250Y-58387500D02*
G75*
G02X195406250Y-58687500I0J-300000D01*
G01*
X194606250Y-46387500D02*
X195106250Y-46387500D01*
X195106250Y-49487500D02*
X194706250Y-49487500D01*
X194406250Y-46587500D02*
X194406250Y-49187500D01*
X195406250Y-46087500D02*
G75*
G02X195106250Y-46387500I-300000J0D01*
G01*
X195106250Y-49487500D02*
G75*
G02X195406250Y-49787500I0J-300000D01*
G01*
X194706250Y-49487500D02*
G75*
G02X194406250Y-49187500I0J300000D01*
G01*
X194406250Y-46587500D02*
G75*
G02X194606250Y-46387500I200000J0D01*
G01*
X190056250Y-59387500D02*
X176656250Y-59387500D01*
X176656250Y-59387500D02*
G75*
G02X176356250Y-59087500I0J300000D01*
G01*
X176356250Y-59087500D02*
X176356250Y-58687500D01*
X176356250Y-45687500D02*
G75*
G02X176656250Y-45387500I300000J0D01*
G01*
X190056250Y-45387500D02*
X176656250Y-45387500D01*
X176356250Y-49787500D02*
X176356250Y-54987500D01*
X176356250Y-46087500D02*
X176356250Y-45687500D01*
X190356250Y-58687500D02*
X190356250Y-59087500D01*
X190056250Y-45387500D02*
G75*
G02X190356250Y-45687500I0J-300000D01*
G01*
X191356250Y-49287500D02*
G75*
G02X191156250Y-49487500I-200000J0D01*
G01*
X190356250Y-49787500D02*
G75*
G02X190656250Y-49487500I300000J0D01*
G01*
X190656250Y-46387500D02*
X191056250Y-46387500D01*
X191356250Y-49287500D02*
X191356250Y-46687500D01*
X191156250Y-49487500D02*
X190656250Y-49487500D01*
X190356250Y-54987500D02*
X190356250Y-49787500D01*
X190356250Y-59087500D02*
G75*
G02X190056250Y-59387500I-300000J0D01*
G01*
X190656250Y-46387500D02*
G75*
G02X190356250Y-46087500I0J300000D01*
G01*
X191056250Y-46387500D02*
G75*
G02X191356250Y-46687500I0J-300000D01*
G01*
X190356250Y-45687500D02*
X190356250Y-46087500D01*
X190656250Y-55287500D02*
G75*
G02X190356250Y-54987500I0J300000D01*
G01*
X191056250Y-55287500D02*
G75*
G02X191356250Y-55587500I0J-300000D01*
G01*
X191156250Y-58387500D02*
X190656250Y-58387500D01*
X191356250Y-58187500D02*
X191356250Y-55587500D01*
X190656250Y-55287500D02*
X191056250Y-55287500D01*
X190356250Y-58687500D02*
G75*
G02X190656250Y-58387500I300000J0D01*
G01*
X191356250Y-58187500D02*
G75*
G02X191156250Y-58387500I-200000J0D01*
G01*
X175356250Y-55487500D02*
G75*
G02X175556250Y-55287500I200000J0D01*
G01*
X176356250Y-54987500D02*
G75*
G02X176056250Y-55287500I-300000J0D01*
G01*
X176056250Y-58387500D02*
X175656250Y-58387500D01*
X175356250Y-55487500D02*
X175356250Y-58087500D01*
X175556250Y-55287500D02*
X176056250Y-55287500D01*
X175656250Y-58387500D02*
G75*
G02X175356250Y-58087500I0J300000D01*
G01*
X176056250Y-58387500D02*
G75*
G02X176356250Y-58687500I0J-300000D01*
G01*
X175556250Y-46387500D02*
X176056250Y-46387500D01*
X176056250Y-49487500D02*
X175656250Y-49487500D01*
X175356250Y-46587500D02*
X175356250Y-49187500D01*
X176356250Y-46087500D02*
G75*
G02X176056250Y-46387500I-300000J0D01*
G01*
X176056250Y-49487500D02*
G75*
G02X176356250Y-49787500I0J-300000D01*
G01*
X175656250Y-49487500D02*
G75*
G02X175356250Y-49187500I0J300000D01*
G01*
X175356250Y-46587500D02*
G75*
G02X175556250Y-46387500I200000J0D01*
G01*
X171006250Y-59387500D02*
X157606250Y-59387500D01*
X157606250Y-59387500D02*
G75*
G02X157306250Y-59087500I0J300000D01*
G01*
X157306250Y-59087500D02*
X157306250Y-58687500D01*
X157306250Y-45687500D02*
G75*
G02X157606250Y-45387500I300000J0D01*
G01*
X171006250Y-45387500D02*
X157606250Y-45387500D01*
X157306250Y-49787500D02*
X157306250Y-54987500D01*
X157306250Y-46087500D02*
X157306250Y-45687500D01*
X171306250Y-58687500D02*
X171306250Y-59087500D01*
X171006250Y-45387500D02*
G75*
G02X171306250Y-45687500I0J-300000D01*
G01*
X172306250Y-49287500D02*
G75*
G02X172106250Y-49487500I-200000J0D01*
G01*
X171306250Y-49787500D02*
G75*
G02X171606250Y-49487500I300000J0D01*
G01*
X171606250Y-46387500D02*
X172006250Y-46387500D01*
X172306250Y-49287500D02*
X172306250Y-46687500D01*
X172106250Y-49487500D02*
X171606250Y-49487500D01*
X171306250Y-54987500D02*
X171306250Y-49787500D01*
X171306250Y-59087500D02*
G75*
G02X171006250Y-59387500I-300000J0D01*
G01*
X171606250Y-46387500D02*
G75*
G02X171306250Y-46087500I0J300000D01*
G01*
X172006250Y-46387500D02*
G75*
G02X172306250Y-46687500I0J-300000D01*
G01*
X171306250Y-45687500D02*
X171306250Y-46087500D01*
X171606250Y-55287500D02*
G75*
G02X171306250Y-54987500I0J300000D01*
G01*
X172006250Y-55287500D02*
G75*
G02X172306250Y-55587500I0J-300000D01*
G01*
X172106250Y-58387500D02*
X171606250Y-58387500D01*
X172306250Y-58187500D02*
X172306250Y-55587500D01*
X171606250Y-55287500D02*
X172006250Y-55287500D01*
X171306250Y-58687500D02*
G75*
G02X171606250Y-58387500I300000J0D01*
G01*
X172306250Y-58187500D02*
G75*
G02X172106250Y-58387500I-200000J0D01*
G01*
X156306250Y-55487500D02*
G75*
G02X156506250Y-55287500I200000J0D01*
G01*
X157306250Y-54987500D02*
G75*
G02X157006250Y-55287500I-300000J0D01*
G01*
X157006250Y-58387500D02*
X156606250Y-58387500D01*
X156306250Y-55487500D02*
X156306250Y-58087500D01*
X156506250Y-55287500D02*
X157006250Y-55287500D01*
X156606250Y-58387500D02*
G75*
G02X156306250Y-58087500I0J300000D01*
G01*
X157006250Y-58387500D02*
G75*
G02X157306250Y-58687500I0J-300000D01*
G01*
X156506250Y-46387500D02*
X157006250Y-46387500D01*
X157006250Y-49487500D02*
X156606250Y-49487500D01*
X156306250Y-46587500D02*
X156306250Y-49187500D01*
X157306250Y-46087500D02*
G75*
G02X157006250Y-46387500I-300000J0D01*
G01*
X157006250Y-49487500D02*
G75*
G02X157306250Y-49787500I0J-300000D01*
G01*
X156606250Y-49487500D02*
G75*
G02X156306250Y-49187500I0J300000D01*
G01*
X156306250Y-46587500D02*
G75*
G02X156506250Y-46387500I200000J0D01*
G01*
X151956250Y-59387500D02*
X138556250Y-59387500D01*
X138556250Y-59387500D02*
G75*
G02X138256250Y-59087500I0J300000D01*
G01*
X138256250Y-59087500D02*
X138256250Y-58687500D01*
X138256250Y-45687500D02*
G75*
G02X138556250Y-45387500I300000J0D01*
G01*
X151956250Y-45387500D02*
X138556250Y-45387500D01*
X138256250Y-49787500D02*
X138256250Y-54987500D01*
X138256250Y-46087500D02*
X138256250Y-45687500D01*
X152256250Y-58687500D02*
X152256250Y-59087500D01*
X151956250Y-45387500D02*
G75*
G02X152256250Y-45687500I0J-300000D01*
G01*
X153256250Y-49287500D02*
G75*
G02X153056250Y-49487500I-200000J0D01*
G01*
X152256250Y-49787500D02*
G75*
G02X152556250Y-49487500I300000J0D01*
G01*
X152556250Y-46387500D02*
X152956250Y-46387500D01*
X153256250Y-49287500D02*
X153256250Y-46687500D01*
X153056250Y-49487500D02*
X152556250Y-49487500D01*
X152256250Y-54987500D02*
X152256250Y-49787500D01*
X152256250Y-59087500D02*
G75*
G02X151956250Y-59387500I-300000J0D01*
G01*
X152556250Y-46387500D02*
G75*
G02X152256250Y-46087500I0J300000D01*
G01*
X152956250Y-46387500D02*
G75*
G02X153256250Y-46687500I0J-300000D01*
G01*
X152256250Y-45687500D02*
X152256250Y-46087500D01*
X152556250Y-55287500D02*
G75*
G02X152256250Y-54987500I0J300000D01*
G01*
X152956250Y-55287500D02*
G75*
G02X153256250Y-55587500I0J-300000D01*
G01*
X153056250Y-58387500D02*
X152556250Y-58387500D01*
X153256250Y-58187500D02*
X153256250Y-55587500D01*
X152556250Y-55287500D02*
X152956250Y-55287500D01*
X152256250Y-58687500D02*
G75*
G02X152556250Y-58387500I300000J0D01*
G01*
X153256250Y-58187500D02*
G75*
G02X153056250Y-58387500I-200000J0D01*
G01*
X137256250Y-55487500D02*
G75*
G02X137456250Y-55287500I200000J0D01*
G01*
X138256250Y-54987500D02*
G75*
G02X137956250Y-55287500I-300000J0D01*
G01*
X137956250Y-58387500D02*
X137556250Y-58387500D01*
X137256250Y-55487500D02*
X137256250Y-58087500D01*
X137456250Y-55287500D02*
X137956250Y-55287500D01*
X137556250Y-58387500D02*
G75*
G02X137256250Y-58087500I0J300000D01*
G01*
X137956250Y-58387500D02*
G75*
G02X138256250Y-58687500I0J-300000D01*
G01*
X137456250Y-46387500D02*
X137956250Y-46387500D01*
X137956250Y-49487500D02*
X137556250Y-49487500D01*
X137256250Y-46587500D02*
X137256250Y-49187500D01*
X138256250Y-46087500D02*
G75*
G02X137956250Y-46387500I-300000J0D01*
G01*
X137956250Y-49487500D02*
G75*
G02X138256250Y-49787500I0J-300000D01*
G01*
X137556250Y-49487500D02*
G75*
G02X137256250Y-49187500I0J300000D01*
G01*
X137256250Y-46587500D02*
G75*
G02X137456250Y-46387500I200000J0D01*
G01*
X132906250Y-59387500D02*
X119506250Y-59387500D01*
X119506250Y-59387500D02*
G75*
G02X119206250Y-59087500I0J300000D01*
G01*
X119206250Y-59087500D02*
X119206250Y-58687500D01*
X119206250Y-45687500D02*
G75*
G02X119506250Y-45387500I300000J0D01*
G01*
X132906250Y-45387500D02*
X119506250Y-45387500D01*
X119206250Y-49787500D02*
X119206250Y-54987500D01*
X119206250Y-46087500D02*
X119206250Y-45687500D01*
X133206250Y-58687500D02*
X133206250Y-59087500D01*
X132906250Y-45387500D02*
G75*
G02X133206250Y-45687500I0J-300000D01*
G01*
X134206250Y-49287500D02*
G75*
G02X134006250Y-49487500I-200000J0D01*
G01*
X133206250Y-49787500D02*
G75*
G02X133506250Y-49487500I300000J0D01*
G01*
X133506250Y-46387500D02*
X133906250Y-46387500D01*
X134206250Y-49287500D02*
X134206250Y-46687500D01*
X134006250Y-49487500D02*
X133506250Y-49487500D01*
X133206250Y-54987500D02*
X133206250Y-49787500D01*
X133206250Y-59087500D02*
G75*
G02X132906250Y-59387500I-300000J0D01*
G01*
X133506250Y-46387500D02*
G75*
G02X133206250Y-46087500I0J300000D01*
G01*
X133906250Y-46387500D02*
G75*
G02X134206250Y-46687500I0J-300000D01*
G01*
X133206250Y-45687500D02*
X133206250Y-46087500D01*
X133506250Y-55287500D02*
G75*
G02X133206250Y-54987500I0J300000D01*
G01*
X133906250Y-55287500D02*
G75*
G02X134206250Y-55587500I0J-300000D01*
G01*
X134006250Y-58387500D02*
X133506250Y-58387500D01*
X134206250Y-58187500D02*
X134206250Y-55587500D01*
X133506250Y-55287500D02*
X133906250Y-55287500D01*
X133206250Y-58687500D02*
G75*
G02X133506250Y-58387500I300000J0D01*
G01*
X134206250Y-58187500D02*
G75*
G02X134006250Y-58387500I-200000J0D01*
G01*
X118206250Y-55487500D02*
G75*
G02X118406250Y-55287500I200000J0D01*
G01*
X119206250Y-54987500D02*
G75*
G02X118906250Y-55287500I-300000J0D01*
G01*
X118906250Y-58387500D02*
X118506250Y-58387500D01*
X118206250Y-55487500D02*
X118206250Y-58087500D01*
X118406250Y-55287500D02*
X118906250Y-55287500D01*
X118506250Y-58387500D02*
G75*
G02X118206250Y-58087500I0J300000D01*
G01*
X118906250Y-58387500D02*
G75*
G02X119206250Y-58687500I0J-300000D01*
G01*
X118406250Y-46387500D02*
X118906250Y-46387500D01*
X118906250Y-49487500D02*
X118506250Y-49487500D01*
X118206250Y-46587500D02*
X118206250Y-49187500D01*
X119206250Y-46087500D02*
G75*
G02X118906250Y-46387500I-300000J0D01*
G01*
X118906250Y-49487500D02*
G75*
G02X119206250Y-49787500I0J-300000D01*
G01*
X118506250Y-49487500D02*
G75*
G02X118206250Y-49187500I0J300000D01*
G01*
X118206250Y-46587500D02*
G75*
G02X118406250Y-46387500I200000J0D01*
G01*
X107506250Y-59387500D02*
X94106250Y-59387500D01*
X94106250Y-59387500D02*
G75*
G02X93806250Y-59087500I0J300000D01*
G01*
X93806250Y-59087500D02*
X93806250Y-58687500D01*
X93806250Y-45687500D02*
G75*
G02X94106250Y-45387500I300000J0D01*
G01*
X107506250Y-45387500D02*
X94106250Y-45387500D01*
X93806250Y-49787500D02*
X93806250Y-54987500D01*
X93806250Y-46087500D02*
X93806250Y-45687500D01*
X107806250Y-58687500D02*
X107806250Y-59087500D01*
X107506250Y-45387500D02*
G75*
G02X107806250Y-45687500I0J-300000D01*
G01*
X108806250Y-49287500D02*
G75*
G02X108606250Y-49487500I-200000J0D01*
G01*
X107806250Y-49787500D02*
G75*
G02X108106250Y-49487500I300000J0D01*
G01*
X108106250Y-46387500D02*
X108506250Y-46387500D01*
X108806250Y-49287500D02*
X108806250Y-46687500D01*
X108606250Y-49487500D02*
X108106250Y-49487500D01*
X107806250Y-54987500D02*
X107806250Y-49787500D01*
X107806250Y-59087500D02*
G75*
G02X107506250Y-59387500I-300000J0D01*
G01*
X108106250Y-46387500D02*
G75*
G02X107806250Y-46087500I0J300000D01*
G01*
X108506250Y-46387500D02*
G75*
G02X108806250Y-46687500I0J-300000D01*
G01*
X107806250Y-45687500D02*
X107806250Y-46087500D01*
X108106250Y-55287500D02*
G75*
G02X107806250Y-54987500I0J300000D01*
G01*
X108506250Y-55287500D02*
G75*
G02X108806250Y-55587500I0J-300000D01*
G01*
X108606250Y-58387500D02*
X108106250Y-58387500D01*
X108806250Y-58187500D02*
X108806250Y-55587500D01*
X108106250Y-55287500D02*
X108506250Y-55287500D01*
X107806250Y-58687500D02*
G75*
G02X108106250Y-58387500I300000J0D01*
G01*
X108806250Y-58187500D02*
G75*
G02X108606250Y-58387500I-200000J0D01*
G01*
X92806250Y-55487500D02*
G75*
G02X93006250Y-55287500I200000J0D01*
G01*
X93806250Y-54987500D02*
G75*
G02X93506250Y-55287500I-300000J0D01*
G01*
X93506250Y-58387500D02*
X93106250Y-58387500D01*
X92806250Y-55487500D02*
X92806250Y-58087500D01*
X93006250Y-55287500D02*
X93506250Y-55287500D01*
X93106250Y-58387500D02*
G75*
G02X92806250Y-58087500I0J300000D01*
G01*
X93506250Y-58387500D02*
G75*
G02X93806250Y-58687500I0J-300000D01*
G01*
X93006250Y-46387500D02*
X93506250Y-46387500D01*
X93506250Y-49487500D02*
X93106250Y-49487500D01*
X92806250Y-46587500D02*
X92806250Y-49187500D01*
X93806250Y-46087500D02*
G75*
G02X93506250Y-46387500I-300000J0D01*
G01*
X93506250Y-49487500D02*
G75*
G02X93806250Y-49787500I0J-300000D01*
G01*
X93106250Y-49487500D02*
G75*
G02X92806250Y-49187500I0J300000D01*
G01*
X92806250Y-46587500D02*
G75*
G02X93006250Y-46387500I200000J0D01*
G01*
M02*
