G04 #@! TF.GenerationSoftware,KiCad,Pcbnew,(5.1.4-0)*
G04 #@! TF.CreationDate,2021-11-04T11:38:30-05:00*
G04 #@! TF.ProjectId,bottom_plate,626f7474-6f6d-45f7-906c-6174652e6b69,rev?*
G04 #@! TF.SameCoordinates,Original*
G04 #@! TF.FileFunction,Copper,L1,Top*
G04 #@! TF.FilePolarity,Positive*
%FSLAX46Y46*%
G04 Gerber Fmt 4.6, Leading zero omitted, Abs format (unit mm)*
G04 Created by KiCad (PCBNEW (5.1.4-0)) date 2021-11-04 11:38:30*
%MOMM*%
%LPD*%
G04 APERTURE LIST*
%ADD10C,3.500000*%
%ADD11C,0.100000*%
%ADD12C,0.950000*%
%ADD13C,0.500000*%
%ADD14C,0.250000*%
%ADD15C,0.254000*%
G04 APERTURE END LIST*
D10*
X247056322Y-176212604D03*
X315517202Y-158948556D03*
X315517202Y-77986124D03*
X251223506Y-73223628D03*
X148234530Y-176212604D03*
X79773650Y-158948556D03*
X144067346Y-73223628D03*
X79773650Y-77986124D03*
X73819060Y-78581436D03*
D11*
G36*
X320906064Y-99538770D02*
G01*
X320929119Y-99542189D01*
X320951728Y-99547853D01*
X320973672Y-99555705D01*
X320994742Y-99565670D01*
X321014733Y-99577652D01*
X321033453Y-99591536D01*
X321050723Y-99607188D01*
X321066375Y-99624458D01*
X321080259Y-99643178D01*
X321092241Y-99663169D01*
X321102206Y-99684239D01*
X321110058Y-99706183D01*
X321115722Y-99728792D01*
X321119141Y-99751847D01*
X321120285Y-99775126D01*
X321120285Y-100250126D01*
X321119141Y-100273405D01*
X321115722Y-100296460D01*
X321110058Y-100319069D01*
X321102206Y-100341013D01*
X321092241Y-100362083D01*
X321080259Y-100382074D01*
X321066375Y-100400794D01*
X321050723Y-100418064D01*
X321033453Y-100433716D01*
X321014733Y-100447600D01*
X320994742Y-100459582D01*
X320973672Y-100469547D01*
X320951728Y-100477399D01*
X320929119Y-100483063D01*
X320906064Y-100486482D01*
X320882785Y-100487626D01*
X320307785Y-100487626D01*
X320284506Y-100486482D01*
X320261451Y-100483063D01*
X320238842Y-100477399D01*
X320216898Y-100469547D01*
X320195828Y-100459582D01*
X320175837Y-100447600D01*
X320157117Y-100433716D01*
X320139847Y-100418064D01*
X320124195Y-100400794D01*
X320110311Y-100382074D01*
X320098329Y-100362083D01*
X320088364Y-100341013D01*
X320080512Y-100319069D01*
X320074848Y-100296460D01*
X320071429Y-100273405D01*
X320070285Y-100250126D01*
X320070285Y-99775126D01*
X320071429Y-99751847D01*
X320074848Y-99728792D01*
X320080512Y-99706183D01*
X320088364Y-99684239D01*
X320098329Y-99663169D01*
X320110311Y-99643178D01*
X320124195Y-99624458D01*
X320139847Y-99607188D01*
X320157117Y-99591536D01*
X320175837Y-99577652D01*
X320195828Y-99565670D01*
X320216898Y-99555705D01*
X320238842Y-99547853D01*
X320261451Y-99542189D01*
X320284506Y-99538770D01*
X320307785Y-99537626D01*
X320882785Y-99537626D01*
X320906064Y-99538770D01*
X320906064Y-99538770D01*
G37*
D12*
X320595285Y-100012626D03*
D11*
G36*
X322656064Y-99538770D02*
G01*
X322679119Y-99542189D01*
X322701728Y-99547853D01*
X322723672Y-99555705D01*
X322744742Y-99565670D01*
X322764733Y-99577652D01*
X322783453Y-99591536D01*
X322800723Y-99607188D01*
X322816375Y-99624458D01*
X322830259Y-99643178D01*
X322842241Y-99663169D01*
X322852206Y-99684239D01*
X322860058Y-99706183D01*
X322865722Y-99728792D01*
X322869141Y-99751847D01*
X322870285Y-99775126D01*
X322870285Y-100250126D01*
X322869141Y-100273405D01*
X322865722Y-100296460D01*
X322860058Y-100319069D01*
X322852206Y-100341013D01*
X322842241Y-100362083D01*
X322830259Y-100382074D01*
X322816375Y-100400794D01*
X322800723Y-100418064D01*
X322783453Y-100433716D01*
X322764733Y-100447600D01*
X322744742Y-100459582D01*
X322723672Y-100469547D01*
X322701728Y-100477399D01*
X322679119Y-100483063D01*
X322656064Y-100486482D01*
X322632785Y-100487626D01*
X322057785Y-100487626D01*
X322034506Y-100486482D01*
X322011451Y-100483063D01*
X321988842Y-100477399D01*
X321966898Y-100469547D01*
X321945828Y-100459582D01*
X321925837Y-100447600D01*
X321907117Y-100433716D01*
X321889847Y-100418064D01*
X321874195Y-100400794D01*
X321860311Y-100382074D01*
X321848329Y-100362083D01*
X321838364Y-100341013D01*
X321830512Y-100319069D01*
X321824848Y-100296460D01*
X321821429Y-100273405D01*
X321820285Y-100250126D01*
X321820285Y-99775126D01*
X321821429Y-99751847D01*
X321824848Y-99728792D01*
X321830512Y-99706183D01*
X321838364Y-99684239D01*
X321848329Y-99663169D01*
X321860311Y-99643178D01*
X321874195Y-99624458D01*
X321889847Y-99607188D01*
X321907117Y-99591536D01*
X321925837Y-99577652D01*
X321945828Y-99565670D01*
X321966898Y-99555705D01*
X321988842Y-99547853D01*
X322011451Y-99542189D01*
X322034506Y-99538770D01*
X322057785Y-99537626D01*
X322632785Y-99537626D01*
X322656064Y-99538770D01*
X322656064Y-99538770D01*
G37*
D12*
X322345285Y-100012626D03*
D10*
X73820040Y-158948739D03*
X150019380Y-73223743D03*
X154187295Y-177998755D03*
X245269780Y-73223743D03*
X241102993Y-177998755D03*
X321470256Y-78581436D03*
X321470100Y-158948675D03*
D13*
X323851535Y-100012626D03*
D14*
X322345285Y-100012626D02*
X323851535Y-100012626D01*
D15*
G36*
X154649938Y-75083138D02*
G01*
X154655967Y-75094418D01*
X154662090Y-75101879D01*
X154667682Y-75109756D01*
X154671571Y-75113431D01*
X154674962Y-75117563D01*
X154682423Y-75123686D01*
X154689444Y-75130321D01*
X154693975Y-75133167D01*
X154698107Y-75136558D01*
X154706612Y-75141104D01*
X154714799Y-75146246D01*
X154719805Y-75148155D01*
X154724513Y-75150672D01*
X154733738Y-75153470D01*
X154742774Y-75156917D01*
X154748056Y-75157813D01*
X154753165Y-75159363D01*
X154762758Y-75160308D01*
X154772294Y-75161926D01*
X154785121Y-75161563D01*
X240507250Y-75161606D01*
X240518557Y-75161926D01*
X240527489Y-75160410D01*
X240537686Y-75159406D01*
X240543117Y-75157759D01*
X240548077Y-75156917D01*
X240556559Y-75153681D01*
X240566338Y-75150715D01*
X240571333Y-75148045D01*
X240576052Y-75146245D01*
X240583774Y-75141396D01*
X240592744Y-75136601D01*
X240597098Y-75133028D01*
X240601408Y-75130321D01*
X240608087Y-75124009D01*
X240615889Y-75117606D01*
X240619437Y-75113283D01*
X240623169Y-75109756D01*
X240628533Y-75102200D01*
X240634884Y-75094461D01*
X240641277Y-75082500D01*
X241816380Y-73026071D01*
X243262780Y-73026071D01*
X243262780Y-73421415D01*
X243339908Y-73809163D01*
X243491200Y-74174414D01*
X243710841Y-74503131D01*
X243990392Y-74782682D01*
X244319109Y-75002323D01*
X244684360Y-75153615D01*
X245072108Y-75230743D01*
X245467452Y-75230743D01*
X245855200Y-75153615D01*
X246220451Y-75002323D01*
X246549168Y-74782682D01*
X246828719Y-74503131D01*
X247048360Y-74174414D01*
X247199652Y-73809163D01*
X247276780Y-73421415D01*
X247276780Y-73026071D01*
X247276758Y-73025956D01*
X249216506Y-73025956D01*
X249216506Y-73421300D01*
X249293634Y-73809048D01*
X249444926Y-74174299D01*
X249664567Y-74503016D01*
X249944118Y-74782567D01*
X250272835Y-75002208D01*
X250638086Y-75153500D01*
X251025834Y-75230628D01*
X251421178Y-75230628D01*
X251808926Y-75153500D01*
X252174177Y-75002208D01*
X252502894Y-74782567D01*
X252782445Y-74503016D01*
X253002086Y-74174299D01*
X253153378Y-73809048D01*
X253230506Y-73421300D01*
X253230506Y-73025956D01*
X253153378Y-72638208D01*
X253002086Y-72272957D01*
X252782445Y-71944240D01*
X252502894Y-71664689D01*
X252174177Y-71445048D01*
X251808926Y-71293756D01*
X251421178Y-71216628D01*
X251025834Y-71216628D01*
X250638086Y-71293756D01*
X250272835Y-71445048D01*
X249944118Y-71664689D01*
X249664567Y-71944240D01*
X249444926Y-72272957D01*
X249293634Y-72638208D01*
X249216506Y-73025956D01*
X247276758Y-73025956D01*
X247199652Y-72638323D01*
X247048360Y-72273072D01*
X246828719Y-71944355D01*
X246549168Y-71664804D01*
X246220451Y-71445163D01*
X245855200Y-71293871D01*
X245467452Y-71216743D01*
X245072108Y-71216743D01*
X244684360Y-71293871D01*
X244319109Y-71445163D01*
X243990392Y-71664804D01*
X243710841Y-71944355D01*
X243491200Y-72273072D01*
X243339908Y-72638323D01*
X243262780Y-73026071D01*
X241816380Y-73026071D01*
X242977347Y-70994380D01*
X253516545Y-70994380D01*
X255852978Y-75083138D01*
X255859007Y-75094418D01*
X255865130Y-75101879D01*
X255870722Y-75109756D01*
X255874611Y-75113431D01*
X255878002Y-75117563D01*
X255885463Y-75123686D01*
X255892484Y-75130321D01*
X255897015Y-75133167D01*
X255901147Y-75136558D01*
X255909652Y-75141104D01*
X255917839Y-75146246D01*
X255922845Y-75148155D01*
X255927553Y-75150672D01*
X255936778Y-75153470D01*
X255945814Y-75156917D01*
X255951096Y-75157813D01*
X255956205Y-75159363D01*
X255965798Y-75160308D01*
X255975334Y-75161926D01*
X255988160Y-75161563D01*
X273836554Y-75161606D01*
X310647164Y-79157259D01*
X310659618Y-79159008D01*
X310669504Y-79158446D01*
X310679390Y-79158544D01*
X310684405Y-79157598D01*
X310689510Y-79157308D01*
X310699092Y-79154829D01*
X310708812Y-79152996D01*
X310713552Y-79151088D01*
X310718498Y-79149808D01*
X310727403Y-79145512D01*
X310736587Y-79141814D01*
X310740868Y-79139014D01*
X310745464Y-79136797D01*
X310753358Y-79130847D01*
X310761647Y-79125427D01*
X310765297Y-79121849D01*
X310769374Y-79118776D01*
X310775960Y-79111396D01*
X310783028Y-79104467D01*
X310790122Y-79094076D01*
X311742874Y-77788452D01*
X313510202Y-77788452D01*
X313510202Y-78183796D01*
X313587330Y-78571544D01*
X313738622Y-78936795D01*
X313958263Y-79265512D01*
X314237814Y-79545063D01*
X314566531Y-79764704D01*
X314931782Y-79915996D01*
X315319530Y-79993124D01*
X315714874Y-79993124D01*
X316102622Y-79915996D01*
X316467873Y-79764704D01*
X316796590Y-79545063D01*
X317076141Y-79265512D01*
X317295782Y-78936795D01*
X317447074Y-78571544D01*
X317484425Y-78383764D01*
X319463256Y-78383764D01*
X319463256Y-78779108D01*
X319540384Y-79166856D01*
X319691676Y-79532107D01*
X319911317Y-79860824D01*
X320190868Y-80140375D01*
X320519585Y-80360016D01*
X320884836Y-80511308D01*
X321272584Y-80588436D01*
X321667928Y-80588436D01*
X322055676Y-80511308D01*
X322420927Y-80360016D01*
X322749644Y-80140375D01*
X323029195Y-79860824D01*
X323248836Y-79532107D01*
X323400128Y-79166856D01*
X323477256Y-78779108D01*
X323477256Y-78383764D01*
X323400128Y-77996016D01*
X323248836Y-77630765D01*
X323029195Y-77302048D01*
X322749644Y-77022497D01*
X322420927Y-76802856D01*
X322055676Y-76651564D01*
X321667928Y-76574436D01*
X321272584Y-76574436D01*
X320884836Y-76651564D01*
X320519585Y-76802856D01*
X320190868Y-77022497D01*
X319911317Y-77302048D01*
X319691676Y-77630765D01*
X319540384Y-77996016D01*
X319463256Y-78383764D01*
X317484425Y-78383764D01*
X317524202Y-78183796D01*
X317524202Y-77788452D01*
X317447074Y-77400704D01*
X317295782Y-77035453D01*
X317076141Y-76706736D01*
X316796590Y-76427185D01*
X316467873Y-76207544D01*
X316102622Y-76056252D01*
X315714874Y-75979124D01*
X315319530Y-75979124D01*
X314931782Y-76056252D01*
X314566531Y-76207544D01*
X314237814Y-76427185D01*
X313958263Y-76706736D01*
X313738622Y-77035453D01*
X313587330Y-77400704D01*
X313510202Y-77788452D01*
X311742874Y-77788452D01*
X313436875Y-75467045D01*
X324253331Y-76647021D01*
X325618176Y-80644069D01*
X325618660Y-80646886D01*
X325622998Y-80658191D01*
X325624498Y-80662583D01*
X325625681Y-80665181D01*
X325629387Y-80674839D01*
X325631868Y-80678772D01*
X325633797Y-80683009D01*
X325639843Y-80691414D01*
X325645362Y-80700163D01*
X325648564Y-80703537D01*
X325651281Y-80707315D01*
X325658853Y-80714382D01*
X325665971Y-80721884D01*
X325669763Y-80724564D01*
X325673170Y-80727744D01*
X325681987Y-80733205D01*
X325690421Y-80739166D01*
X325694663Y-80741055D01*
X325698625Y-80743509D01*
X325708329Y-80747142D01*
X325717772Y-80751347D01*
X325722305Y-80752373D01*
X325726667Y-80754006D01*
X325736893Y-80755675D01*
X325739661Y-80756302D01*
X325744241Y-80756875D01*
X325756217Y-80758830D01*
X325759080Y-80758731D01*
X328596489Y-81113666D01*
X328597069Y-81113789D01*
X328599179Y-81114011D01*
X328599505Y-81114043D01*
X328602599Y-81114430D01*
X328603765Y-81114461D01*
X329046868Y-81157908D01*
X329463238Y-81283617D01*
X329847258Y-81487804D01*
X330184307Y-81762694D01*
X330461539Y-82097811D01*
X330668406Y-82480404D01*
X330797019Y-82895882D01*
X330843234Y-83335591D01*
X330843264Y-83344232D01*
X330843289Y-154774035D01*
X330800116Y-155214340D01*
X330674407Y-155630710D01*
X330470219Y-156014731D01*
X330195330Y-156351779D01*
X329860213Y-156629011D01*
X329477620Y-156835878D01*
X329062142Y-156964491D01*
X328622433Y-157010706D01*
X328613732Y-157010736D01*
X326241322Y-157010801D01*
X326222150Y-157010258D01*
X326210091Y-157012304D01*
X326203017Y-157013001D01*
X326199251Y-157014144D01*
X326192630Y-157015267D01*
X326181292Y-157019592D01*
X326174366Y-157021693D01*
X326170834Y-157023581D01*
X326164655Y-157025938D01*
X326154543Y-157032289D01*
X326147960Y-157035808D01*
X326144763Y-157038432D01*
X326139300Y-157041863D01*
X326130830Y-157049867D01*
X326124816Y-157054803D01*
X326122084Y-157058132D01*
X326117538Y-157062428D01*
X326110998Y-157071641D01*
X326105821Y-157077949D01*
X326101281Y-157086443D01*
X323763361Y-161177804D01*
X313224163Y-161177804D01*
X311837351Y-158750884D01*
X313510202Y-158750884D01*
X313510202Y-159146228D01*
X313587330Y-159533976D01*
X313738622Y-159899227D01*
X313958263Y-160227944D01*
X314237814Y-160507495D01*
X314566531Y-160727136D01*
X314931782Y-160878428D01*
X315319530Y-160955556D01*
X315714874Y-160955556D01*
X316102622Y-160878428D01*
X316467873Y-160727136D01*
X316796590Y-160507495D01*
X317076141Y-160227944D01*
X317295782Y-159899227D01*
X317447074Y-159533976D01*
X317524202Y-159146228D01*
X317524202Y-158751003D01*
X319463100Y-158751003D01*
X319463100Y-159146347D01*
X319540228Y-159534095D01*
X319691520Y-159899346D01*
X319911161Y-160228063D01*
X320190712Y-160507614D01*
X320519429Y-160727255D01*
X320884680Y-160878547D01*
X321272428Y-160955675D01*
X321667772Y-160955675D01*
X322055520Y-160878547D01*
X322420771Y-160727255D01*
X322749488Y-160507614D01*
X323029039Y-160228063D01*
X323248680Y-159899346D01*
X323399972Y-159534095D01*
X323477100Y-159146347D01*
X323477100Y-158751003D01*
X323399972Y-158363255D01*
X323248680Y-157998004D01*
X323029039Y-157669287D01*
X322749488Y-157389736D01*
X322420771Y-157170095D01*
X322055520Y-157018803D01*
X321667772Y-156941675D01*
X321272428Y-156941675D01*
X320884680Y-157018803D01*
X320519429Y-157170095D01*
X320190712Y-157389736D01*
X319911161Y-157669287D01*
X319691520Y-157998004D01*
X319540228Y-158363255D01*
X319463100Y-158751003D01*
X317524202Y-158751003D01*
X317524202Y-158750884D01*
X317447074Y-158363136D01*
X317295782Y-157997885D01*
X317076141Y-157669168D01*
X316796590Y-157389617D01*
X316467873Y-157169976D01*
X316102622Y-157018684D01*
X315714874Y-156941556D01*
X315319530Y-156941556D01*
X314931782Y-157018684D01*
X314566531Y-157169976D01*
X314237814Y-157389617D01*
X313958263Y-157669168D01*
X313738622Y-157997885D01*
X313587330Y-158363136D01*
X313510202Y-158750884D01*
X311837351Y-158750884D01*
X310887751Y-157089086D01*
X310881695Y-157077757D01*
X310875567Y-157070291D01*
X310869985Y-157062428D01*
X310866093Y-157058750D01*
X310862698Y-157054614D01*
X310855244Y-157048497D01*
X310848224Y-157041863D01*
X310843689Y-157039015D01*
X310839552Y-157035620D01*
X310831040Y-157031071D01*
X310822868Y-157025939D01*
X310817865Y-157024031D01*
X310813145Y-157021508D01*
X310803917Y-157018710D01*
X310794893Y-157015267D01*
X310789608Y-157014370D01*
X310784493Y-157012819D01*
X310774899Y-157011874D01*
X310765373Y-157010258D01*
X310752560Y-157010621D01*
X302424635Y-157011160D01*
X302414302Y-157010532D01*
X302402275Y-157012173D01*
X302390214Y-157013362D01*
X302387473Y-157014194D01*
X302384635Y-157014581D01*
X302373172Y-157018533D01*
X302361562Y-157022055D01*
X302359035Y-157023406D01*
X302356328Y-157024339D01*
X302345852Y-157030454D01*
X302335157Y-157036171D01*
X302332944Y-157037987D01*
X302330469Y-157039432D01*
X302321382Y-157047478D01*
X302312014Y-157055167D01*
X302310198Y-157057380D01*
X302308052Y-157059280D01*
X302300707Y-157068947D01*
X302293020Y-157078314D01*
X302288151Y-157087425D01*
X292811555Y-172488732D01*
X252703760Y-172488732D01*
X252696488Y-172489448D01*
X252695430Y-172489454D01*
X252694501Y-172489644D01*
X252681425Y-172490932D01*
X252652773Y-172499623D01*
X252649577Y-172501332D01*
X250516862Y-173160884D01*
X250514081Y-173161276D01*
X250502568Y-173165304D01*
X250498109Y-173166683D01*
X250495546Y-173167761D01*
X250485819Y-173171164D01*
X250481759Y-173173559D01*
X250477421Y-173175383D01*
X250468896Y-173181146D01*
X250460029Y-173186376D01*
X250456518Y-173189513D01*
X250452616Y-173192151D01*
X250445382Y-173199463D01*
X250437702Y-173206326D01*
X250434866Y-173210094D01*
X250431559Y-173213437D01*
X250425894Y-173222015D01*
X250419697Y-173230249D01*
X250417652Y-173234496D01*
X250415059Y-173238422D01*
X250411173Y-173247949D01*
X250406706Y-173257224D01*
X250405530Y-173261783D01*
X250403750Y-173266146D01*
X250401797Y-173276252D01*
X250401099Y-173278956D01*
X250400377Y-173283595D01*
X250398068Y-173295543D01*
X250398083Y-173298344D01*
X249714920Y-177690115D01*
X239696965Y-180538358D01*
X237093769Y-177801083D01*
X239095993Y-177801083D01*
X239095993Y-178196427D01*
X239173121Y-178584175D01*
X239324413Y-178949426D01*
X239544054Y-179278143D01*
X239823605Y-179557694D01*
X240152322Y-179777335D01*
X240517573Y-179928627D01*
X240905321Y-180005755D01*
X241300665Y-180005755D01*
X241688413Y-179928627D01*
X242053664Y-179777335D01*
X242382381Y-179557694D01*
X242661932Y-179278143D01*
X242881573Y-178949426D01*
X243032865Y-178584175D01*
X243109993Y-178196427D01*
X243109993Y-177801083D01*
X243032865Y-177413335D01*
X242881573Y-177048084D01*
X242661932Y-176719367D01*
X242382381Y-176439816D01*
X242053664Y-176220175D01*
X241688413Y-176068883D01*
X241417184Y-176014932D01*
X245049322Y-176014932D01*
X245049322Y-176410276D01*
X245126450Y-176798024D01*
X245277742Y-177163275D01*
X245497383Y-177491992D01*
X245776934Y-177771543D01*
X246105651Y-177991184D01*
X246470902Y-178142476D01*
X246858650Y-178219604D01*
X247253994Y-178219604D01*
X247641742Y-178142476D01*
X248006993Y-177991184D01*
X248335710Y-177771543D01*
X248615261Y-177491992D01*
X248834902Y-177163275D01*
X248986194Y-176798024D01*
X249063322Y-176410276D01*
X249063322Y-176014932D01*
X248986194Y-175627184D01*
X248834902Y-175261933D01*
X248615261Y-174933216D01*
X248335710Y-174653665D01*
X248006993Y-174434024D01*
X247641742Y-174282732D01*
X247253994Y-174205604D01*
X246858650Y-174205604D01*
X246470902Y-174282732D01*
X246105651Y-174434024D01*
X245776934Y-174653665D01*
X245497383Y-174933216D01*
X245277742Y-175261933D01*
X245126450Y-175627184D01*
X245049322Y-176014932D01*
X241417184Y-176014932D01*
X241300665Y-175991755D01*
X240905321Y-175991755D01*
X240517573Y-176068883D01*
X240152322Y-176220175D01*
X239823605Y-176439816D01*
X239544054Y-176719367D01*
X239324413Y-177048084D01*
X239173121Y-177413335D01*
X239095993Y-177801083D01*
X237093769Y-177801083D01*
X236333984Y-177002165D01*
X236324052Y-176991572D01*
X236317502Y-176986884D01*
X236311425Y-176981636D01*
X236305371Y-176978202D01*
X236299704Y-176974146D01*
X236292375Y-176970830D01*
X236285382Y-176966863D01*
X236278775Y-176964676D01*
X236272425Y-176961803D01*
X236264586Y-176959980D01*
X236256957Y-176957455D01*
X236250048Y-176956599D01*
X236243262Y-176955021D01*
X236235220Y-176954762D01*
X236227243Y-176953774D01*
X236220299Y-176954282D01*
X236213336Y-176954058D01*
X236205405Y-176955372D01*
X236197382Y-176955959D01*
X236183511Y-176959789D01*
X230647749Y-178446385D01*
X230635697Y-178449185D01*
X230626498Y-178453344D01*
X230617050Y-178456906D01*
X230606554Y-178463441D01*
X213082618Y-188562390D01*
X182207268Y-188562156D01*
X164683751Y-178463451D01*
X164673209Y-178456891D01*
X164663758Y-178453330D01*
X164654590Y-178449185D01*
X164642559Y-178446389D01*
X159089958Y-176956534D01*
X159076174Y-176952728D01*
X159068142Y-176952140D01*
X159060187Y-176950824D01*
X159053238Y-176951049D01*
X159046312Y-176950542D01*
X159038319Y-176951532D01*
X159030263Y-176951793D01*
X159023496Y-176953368D01*
X159016597Y-176954223D01*
X159008943Y-176956756D01*
X159001101Y-176958582D01*
X158994774Y-176961446D01*
X158988173Y-176963631D01*
X158981161Y-176967609D01*
X158973824Y-176970930D01*
X158968176Y-176974974D01*
X158962130Y-176978404D01*
X158956031Y-176983671D01*
X158949480Y-176988362D01*
X158939666Y-176998834D01*
X155576592Y-180535124D01*
X145558637Y-177686883D01*
X145298556Y-176014932D01*
X146227530Y-176014932D01*
X146227530Y-176410276D01*
X146304658Y-176798024D01*
X146455950Y-177163275D01*
X146675591Y-177491992D01*
X146955142Y-177771543D01*
X147283859Y-177991184D01*
X147649110Y-178142476D01*
X148036858Y-178219604D01*
X148432202Y-178219604D01*
X148819950Y-178142476D01*
X149185201Y-177991184D01*
X149469708Y-177801083D01*
X152180295Y-177801083D01*
X152180295Y-178196427D01*
X152257423Y-178584175D01*
X152408715Y-178949426D01*
X152628356Y-179278143D01*
X152907907Y-179557694D01*
X153236624Y-179777335D01*
X153601875Y-179928627D01*
X153989623Y-180005755D01*
X154384967Y-180005755D01*
X154772715Y-179928627D01*
X155137966Y-179777335D01*
X155466683Y-179557694D01*
X155746234Y-179278143D01*
X155965875Y-178949426D01*
X156117167Y-178584175D01*
X156194295Y-178196427D01*
X156194295Y-177801083D01*
X156117167Y-177413335D01*
X155965875Y-177048084D01*
X155746234Y-176719367D01*
X155466683Y-176439816D01*
X155137966Y-176220175D01*
X154772715Y-176068883D01*
X154384967Y-175991755D01*
X153989623Y-175991755D01*
X153601875Y-176068883D01*
X153236624Y-176220175D01*
X152907907Y-176439816D01*
X152628356Y-176719367D01*
X152408715Y-177048084D01*
X152257423Y-177413335D01*
X152180295Y-177801083D01*
X149469708Y-177801083D01*
X149513918Y-177771543D01*
X149793469Y-177491992D01*
X150013110Y-177163275D01*
X150164402Y-176798024D01*
X150241530Y-176410276D01*
X150241530Y-176014932D01*
X150164402Y-175627184D01*
X150013110Y-175261933D01*
X149793469Y-174933216D01*
X149513918Y-174653665D01*
X149185201Y-174434024D01*
X148819950Y-174282732D01*
X148432202Y-174205604D01*
X148036858Y-174205604D01*
X147649110Y-174282732D01*
X147283859Y-174434024D01*
X146955142Y-174653665D01*
X146675591Y-174933216D01*
X146455950Y-175261933D01*
X146304658Y-175627184D01*
X146227530Y-176014932D01*
X145298556Y-176014932D01*
X144875485Y-173295198D01*
X144875503Y-173292477D01*
X144873188Y-173280429D01*
X144872456Y-173275724D01*
X144871781Y-173273109D01*
X144869853Y-173263074D01*
X144868045Y-173258628D01*
X144866849Y-173253992D01*
X144862424Y-173244803D01*
X144858575Y-173235338D01*
X144855937Y-173231334D01*
X144853858Y-173227017D01*
X144847720Y-173218862D01*
X144842102Y-173210334D01*
X144838735Y-173206923D01*
X144835853Y-173203094D01*
X144828241Y-173196292D01*
X144821068Y-173189026D01*
X144817098Y-173186336D01*
X144813526Y-173183144D01*
X144804742Y-173177963D01*
X144796282Y-173172230D01*
X144791861Y-173170365D01*
X144787736Y-173167932D01*
X144778105Y-173164562D01*
X144775603Y-173163507D01*
X144771035Y-173162089D01*
X144759474Y-173158044D01*
X144756784Y-173157664D01*
X142637949Y-172499857D01*
X142637512Y-172499623D01*
X142623773Y-172495456D01*
X142617007Y-172493355D01*
X142616513Y-172493253D01*
X142608860Y-172490932D01*
X142601884Y-172490245D01*
X142595024Y-172488834D01*
X142587032Y-172488782D01*
X142586525Y-172488732D01*
X142579380Y-172488732D01*
X142565084Y-172488639D01*
X142564598Y-172488732D01*
X102479116Y-172489350D01*
X93001012Y-157087431D01*
X92996138Y-157078311D01*
X92988433Y-157068922D01*
X92981101Y-157059274D01*
X92978962Y-157057380D01*
X92977144Y-157055165D01*
X92967758Y-157047461D01*
X92958683Y-157039427D01*
X92956213Y-157037986D01*
X92954000Y-157036169D01*
X92943303Y-157030451D01*
X92932824Y-157024335D01*
X92930117Y-157023402D01*
X92927595Y-157022054D01*
X92915992Y-157018534D01*
X92904516Y-157014579D01*
X92901679Y-157014192D01*
X92898943Y-157013362D01*
X92886881Y-157012173D01*
X92874849Y-157010532D01*
X92864524Y-157011160D01*
X84544654Y-157010801D01*
X84525478Y-157010258D01*
X84513427Y-157012303D01*
X84506356Y-157012999D01*
X84502587Y-157014142D01*
X84495958Y-157015267D01*
X84484626Y-157019590D01*
X84477704Y-157021689D01*
X84474168Y-157023579D01*
X84467983Y-157025938D01*
X84457877Y-157032285D01*
X84451297Y-157035802D01*
X84448097Y-157038428D01*
X84442628Y-157041863D01*
X84434163Y-157049863D01*
X84428151Y-157054796D01*
X84425416Y-157058128D01*
X84420866Y-157062428D01*
X84414330Y-157071635D01*
X84409155Y-157077940D01*
X84404615Y-157086433D01*
X82066689Y-161177804D01*
X71527491Y-161177804D01*
X70140784Y-158751067D01*
X71813040Y-158751067D01*
X71813040Y-159146411D01*
X71890168Y-159534159D01*
X72041460Y-159899410D01*
X72261101Y-160228127D01*
X72540652Y-160507678D01*
X72869369Y-160727319D01*
X73234620Y-160878611D01*
X73622368Y-160955739D01*
X74017712Y-160955739D01*
X74405460Y-160878611D01*
X74770711Y-160727319D01*
X75099428Y-160507678D01*
X75378979Y-160228127D01*
X75598620Y-159899410D01*
X75749912Y-159534159D01*
X75827040Y-159146411D01*
X75827040Y-158751067D01*
X75827004Y-158750884D01*
X77766650Y-158750884D01*
X77766650Y-159146228D01*
X77843778Y-159533976D01*
X77995070Y-159899227D01*
X78214711Y-160227944D01*
X78494262Y-160507495D01*
X78822979Y-160727136D01*
X79188230Y-160878428D01*
X79575978Y-160955556D01*
X79971322Y-160955556D01*
X80359070Y-160878428D01*
X80724321Y-160727136D01*
X81053038Y-160507495D01*
X81332589Y-160227944D01*
X81552230Y-159899227D01*
X81703522Y-159533976D01*
X81780650Y-159146228D01*
X81780650Y-158750884D01*
X81703522Y-158363136D01*
X81552230Y-157997885D01*
X81332589Y-157669168D01*
X81053038Y-157389617D01*
X80724321Y-157169976D01*
X80359070Y-157018684D01*
X79971322Y-156941556D01*
X79575978Y-156941556D01*
X79188230Y-157018684D01*
X78822979Y-157169976D01*
X78494262Y-157389617D01*
X78214711Y-157669168D01*
X77995070Y-157997885D01*
X77843778Y-158363136D01*
X77766650Y-158750884D01*
X75827004Y-158750884D01*
X75749912Y-158363319D01*
X75598620Y-157998068D01*
X75378979Y-157669351D01*
X75099428Y-157389800D01*
X74770711Y-157170159D01*
X74405460Y-157018867D01*
X74017712Y-156941739D01*
X73622368Y-156941739D01*
X73234620Y-157018867D01*
X72869369Y-157170159D01*
X72540652Y-157389800D01*
X72261101Y-157669351D01*
X72041460Y-157998068D01*
X71890168Y-158363319D01*
X71813040Y-158751067D01*
X70140784Y-158751067D01*
X69191062Y-157089055D01*
X69185009Y-157077737D01*
X69178889Y-157070283D01*
X69173313Y-157062428D01*
X69169415Y-157058744D01*
X69166009Y-157054596D01*
X69158556Y-157048482D01*
X69151552Y-157041863D01*
X69147011Y-157039011D01*
X69142860Y-157035606D01*
X69134352Y-157031061D01*
X69126196Y-157025939D01*
X69121185Y-157024027D01*
X69116450Y-157021498D01*
X69107230Y-157018704D01*
X69098221Y-157015267D01*
X69092925Y-157014368D01*
X69087796Y-157012814D01*
X69078216Y-157011873D01*
X69068701Y-157010258D01*
X69055869Y-157010621D01*
X66682705Y-157011159D01*
X66242424Y-156967988D01*
X65826054Y-156842279D01*
X65442033Y-156638091D01*
X65104985Y-156363202D01*
X64827753Y-156028085D01*
X64620886Y-155645492D01*
X64492273Y-155230014D01*
X64446058Y-154790305D01*
X64446027Y-154781378D01*
X64446019Y-154781299D01*
X64446025Y-99775126D01*
X319812042Y-99775126D01*
X319812042Y-100250126D01*
X319821568Y-100346841D01*
X319849778Y-100439839D01*
X319895590Y-100525546D01*
X319957242Y-100600669D01*
X320032365Y-100662321D01*
X320118072Y-100708133D01*
X320211070Y-100736343D01*
X320307785Y-100745869D01*
X320882785Y-100745869D01*
X320979500Y-100736343D01*
X321072498Y-100708133D01*
X321158205Y-100662321D01*
X321199440Y-100628481D01*
X321230783Y-100731806D01*
X321289748Y-100842120D01*
X321369100Y-100938811D01*
X321465791Y-101018163D01*
X321576105Y-101077128D01*
X321695803Y-101113438D01*
X321820285Y-101125698D01*
X322059535Y-101122626D01*
X322218285Y-100963876D01*
X322218285Y-100139626D01*
X322472285Y-100139626D01*
X322472285Y-100963876D01*
X322631035Y-101122626D01*
X322870285Y-101125698D01*
X322994767Y-101113438D01*
X323114465Y-101077128D01*
X323224779Y-101018163D01*
X323321470Y-100938811D01*
X323400822Y-100842120D01*
X323459787Y-100731806D01*
X323496097Y-100612108D01*
X323508357Y-100487626D01*
X323505285Y-100298376D01*
X323346535Y-100139626D01*
X322472285Y-100139626D01*
X322218285Y-100139626D01*
X322198285Y-100139626D01*
X322198285Y-99885626D01*
X322218285Y-99885626D01*
X322218285Y-99061376D01*
X322472285Y-99061376D01*
X322472285Y-99885626D01*
X323346535Y-99885626D01*
X323505285Y-99726876D01*
X323508357Y-99537626D01*
X323496097Y-99413144D01*
X323459787Y-99293446D01*
X323400822Y-99183132D01*
X323321470Y-99086441D01*
X323224779Y-99007089D01*
X323114465Y-98948124D01*
X322994767Y-98911814D01*
X322870285Y-98899554D01*
X322631035Y-98902626D01*
X322472285Y-99061376D01*
X322218285Y-99061376D01*
X322059535Y-98902626D01*
X321820285Y-98899554D01*
X321695803Y-98911814D01*
X321576105Y-98948124D01*
X321465791Y-99007089D01*
X321369100Y-99086441D01*
X321289748Y-99183132D01*
X321230783Y-99293446D01*
X321199440Y-99396771D01*
X321158205Y-99362931D01*
X321072498Y-99317119D01*
X320979500Y-99288909D01*
X320882785Y-99279383D01*
X320307785Y-99279383D01*
X320211070Y-99288909D01*
X320118072Y-99317119D01*
X320032365Y-99362931D01*
X319957242Y-99424583D01*
X319895590Y-99499706D01*
X319849778Y-99585413D01*
X319821568Y-99678411D01*
X319812042Y-99775126D01*
X64446025Y-99775126D01*
X64446027Y-89124003D01*
X205413418Y-89124003D01*
X205413418Y-89470101D01*
X205480939Y-89809550D01*
X205613385Y-90129303D01*
X205805667Y-90417074D01*
X206050396Y-90661803D01*
X206338167Y-90854085D01*
X206657920Y-90986531D01*
X206997369Y-91054052D01*
X207343467Y-91054052D01*
X207682916Y-90986531D01*
X208002669Y-90854085D01*
X208290440Y-90661803D01*
X208535169Y-90417074D01*
X208727451Y-90129303D01*
X208859897Y-89809550D01*
X208927418Y-89470101D01*
X208927418Y-89124003D01*
X208859897Y-88784554D01*
X208727451Y-88464801D01*
X208535169Y-88177030D01*
X208290440Y-87932301D01*
X208002669Y-87740019D01*
X207682916Y-87607573D01*
X207343467Y-87540052D01*
X206997369Y-87540052D01*
X206657920Y-87607573D01*
X206338167Y-87740019D01*
X206050396Y-87932301D01*
X205805667Y-88177030D01*
X205613385Y-88464801D01*
X205480939Y-88784554D01*
X205413418Y-89124003D01*
X64446027Y-89124003D01*
X64446028Y-83351427D01*
X64489200Y-82911132D01*
X64614909Y-82494762D01*
X64819096Y-82110742D01*
X65093986Y-81773693D01*
X65429103Y-81496461D01*
X65811696Y-81289594D01*
X66227174Y-81160981D01*
X66664167Y-81115052D01*
X66664308Y-81115076D01*
X66686742Y-81114486D01*
X69530275Y-80758787D01*
X69533124Y-80758885D01*
X69545055Y-80756938D01*
X69549681Y-80756359D01*
X69552473Y-80755727D01*
X69562674Y-80754062D01*
X69567028Y-80752432D01*
X69571570Y-80751404D01*
X69581032Y-80747190D01*
X69590716Y-80743565D01*
X69594670Y-80741116D01*
X69598921Y-80739223D01*
X69607373Y-80733249D01*
X69616171Y-80727800D01*
X69619571Y-80724627D01*
X69623371Y-80721941D01*
X69630500Y-80714427D01*
X69638061Y-80707371D01*
X69640775Y-80703598D01*
X69643980Y-80700220D01*
X69649509Y-80691455D01*
X69655544Y-80683065D01*
X69657469Y-80678838D01*
X69659955Y-80674896D01*
X69663669Y-80665217D01*
X69664843Y-80662639D01*
X69666332Y-80658279D01*
X69670682Y-80646943D01*
X69671167Y-80644119D01*
X70442995Y-78383764D01*
X71812060Y-78383764D01*
X71812060Y-78779108D01*
X71889188Y-79166856D01*
X72040480Y-79532107D01*
X72260121Y-79860824D01*
X72539672Y-80140375D01*
X72868389Y-80360016D01*
X73233640Y-80511308D01*
X73621388Y-80588436D01*
X74016732Y-80588436D01*
X74404480Y-80511308D01*
X74769731Y-80360016D01*
X75098448Y-80140375D01*
X75377999Y-79860824D01*
X75597640Y-79532107D01*
X75748932Y-79166856D01*
X75826060Y-78779108D01*
X75826060Y-78383764D01*
X75748932Y-77996016D01*
X75662957Y-77788452D01*
X77766650Y-77788452D01*
X77766650Y-78183796D01*
X77843778Y-78571544D01*
X77995070Y-78936795D01*
X78214711Y-79265512D01*
X78494262Y-79545063D01*
X78822979Y-79764704D01*
X79188230Y-79915996D01*
X79575978Y-79993124D01*
X79971322Y-79993124D01*
X80359070Y-79915996D01*
X80724321Y-79764704D01*
X81053038Y-79545063D01*
X81332589Y-79265512D01*
X81552230Y-78936795D01*
X81703522Y-78571544D01*
X81780650Y-78183796D01*
X81780650Y-77788452D01*
X81703522Y-77400704D01*
X81552230Y-77035453D01*
X81332589Y-76706736D01*
X81053038Y-76427185D01*
X80724321Y-76207544D01*
X80359070Y-76056252D01*
X79971322Y-75979124D01*
X79575978Y-75979124D01*
X79188230Y-76056252D01*
X78822979Y-76207544D01*
X78494262Y-76427185D01*
X78214711Y-76706736D01*
X77995070Y-77035453D01*
X77843778Y-77400704D01*
X77766650Y-77788452D01*
X75662957Y-77788452D01*
X75597640Y-77630765D01*
X75377999Y-77302048D01*
X75098448Y-77022497D01*
X74769731Y-76802856D01*
X74404480Y-76651564D01*
X74016732Y-76574436D01*
X73621388Y-76574436D01*
X73233640Y-76651564D01*
X72868389Y-76802856D01*
X72539672Y-77022497D01*
X72260121Y-77302048D01*
X72040480Y-77630765D01*
X71889188Y-77996016D01*
X71812060Y-78383764D01*
X70442995Y-78383764D01*
X71036011Y-76647077D01*
X81852469Y-75467102D01*
X84499241Y-79094162D01*
X84506314Y-79104523D01*
X84513372Y-79111442D01*
X84519967Y-79118832D01*
X84524052Y-79121911D01*
X84527696Y-79125483D01*
X84535972Y-79130895D01*
X84543877Y-79136853D01*
X84548477Y-79139073D01*
X84552755Y-79141870D01*
X84561933Y-79145565D01*
X84570843Y-79149864D01*
X84575791Y-79151144D01*
X84580530Y-79153052D01*
X84590245Y-79154884D01*
X84599831Y-79157364D01*
X84604938Y-79157654D01*
X84609953Y-79158600D01*
X84619838Y-79158502D01*
X84629724Y-79159064D01*
X84642178Y-79157315D01*
X121453313Y-75161606D01*
X139304210Y-75161606D01*
X139315517Y-75161926D01*
X139324448Y-75160411D01*
X139334647Y-75159406D01*
X139340079Y-75157758D01*
X139345037Y-75156917D01*
X139353515Y-75153683D01*
X139363299Y-75150715D01*
X139368296Y-75148044D01*
X139373012Y-75146245D01*
X139380728Y-75141399D01*
X139389705Y-75136601D01*
X139394062Y-75133025D01*
X139398368Y-75130321D01*
X139405041Y-75124015D01*
X139412850Y-75117606D01*
X139416401Y-75113279D01*
X139420129Y-75109756D01*
X139425486Y-75102209D01*
X139431845Y-75094461D01*
X139438253Y-75082473D01*
X140613406Y-73025956D01*
X142060346Y-73025956D01*
X142060346Y-73421300D01*
X142137474Y-73809048D01*
X142288766Y-74174299D01*
X142508407Y-74503016D01*
X142787958Y-74782567D01*
X143116675Y-75002208D01*
X143481926Y-75153500D01*
X143869674Y-75230628D01*
X144265018Y-75230628D01*
X144652766Y-75153500D01*
X145018017Y-75002208D01*
X145346734Y-74782567D01*
X145626285Y-74503016D01*
X145845926Y-74174299D01*
X145997218Y-73809048D01*
X146074346Y-73421300D01*
X146074346Y-73026071D01*
X148012380Y-73026071D01*
X148012380Y-73421415D01*
X148089508Y-73809163D01*
X148240800Y-74174414D01*
X148460441Y-74503131D01*
X148739992Y-74782682D01*
X149068709Y-75002323D01*
X149433960Y-75153615D01*
X149821708Y-75230743D01*
X150217052Y-75230743D01*
X150604800Y-75153615D01*
X150970051Y-75002323D01*
X151298768Y-74782682D01*
X151578319Y-74503131D01*
X151797960Y-74174414D01*
X151949252Y-73809163D01*
X152026380Y-73421415D01*
X152026380Y-73026071D01*
X151949252Y-72638323D01*
X151797960Y-72273072D01*
X151578319Y-71944355D01*
X151298768Y-71664804D01*
X150970051Y-71445163D01*
X150604800Y-71293871D01*
X150217052Y-71216743D01*
X149821708Y-71216743D01*
X149433960Y-71293871D01*
X149068709Y-71445163D01*
X148739992Y-71664804D01*
X148460441Y-71944355D01*
X148240800Y-72273072D01*
X148089508Y-72638323D01*
X148012380Y-73026071D01*
X146074346Y-73026071D01*
X146074346Y-73025956D01*
X145997218Y-72638208D01*
X145845926Y-72272957D01*
X145626285Y-71944240D01*
X145346734Y-71664689D01*
X145018017Y-71445048D01*
X144652766Y-71293756D01*
X144265018Y-71216628D01*
X143869674Y-71216628D01*
X143481926Y-71293756D01*
X143116675Y-71445048D01*
X142787958Y-71664689D01*
X142508407Y-71944240D01*
X142288766Y-72272957D01*
X142137474Y-72638208D01*
X142060346Y-73025956D01*
X140613406Y-73025956D01*
X141774307Y-70994380D01*
X152313505Y-70994380D01*
X154649938Y-75083138D01*
X154649938Y-75083138D01*
G37*
X154649938Y-75083138D02*
X154655967Y-75094418D01*
X154662090Y-75101879D01*
X154667682Y-75109756D01*
X154671571Y-75113431D01*
X154674962Y-75117563D01*
X154682423Y-75123686D01*
X154689444Y-75130321D01*
X154693975Y-75133167D01*
X154698107Y-75136558D01*
X154706612Y-75141104D01*
X154714799Y-75146246D01*
X154719805Y-75148155D01*
X154724513Y-75150672D01*
X154733738Y-75153470D01*
X154742774Y-75156917D01*
X154748056Y-75157813D01*
X154753165Y-75159363D01*
X154762758Y-75160308D01*
X154772294Y-75161926D01*
X154785121Y-75161563D01*
X240507250Y-75161606D01*
X240518557Y-75161926D01*
X240527489Y-75160410D01*
X240537686Y-75159406D01*
X240543117Y-75157759D01*
X240548077Y-75156917D01*
X240556559Y-75153681D01*
X240566338Y-75150715D01*
X240571333Y-75148045D01*
X240576052Y-75146245D01*
X240583774Y-75141396D01*
X240592744Y-75136601D01*
X240597098Y-75133028D01*
X240601408Y-75130321D01*
X240608087Y-75124009D01*
X240615889Y-75117606D01*
X240619437Y-75113283D01*
X240623169Y-75109756D01*
X240628533Y-75102200D01*
X240634884Y-75094461D01*
X240641277Y-75082500D01*
X241816380Y-73026071D01*
X243262780Y-73026071D01*
X243262780Y-73421415D01*
X243339908Y-73809163D01*
X243491200Y-74174414D01*
X243710841Y-74503131D01*
X243990392Y-74782682D01*
X244319109Y-75002323D01*
X244684360Y-75153615D01*
X245072108Y-75230743D01*
X245467452Y-75230743D01*
X245855200Y-75153615D01*
X246220451Y-75002323D01*
X246549168Y-74782682D01*
X246828719Y-74503131D01*
X247048360Y-74174414D01*
X247199652Y-73809163D01*
X247276780Y-73421415D01*
X247276780Y-73026071D01*
X247276758Y-73025956D01*
X249216506Y-73025956D01*
X249216506Y-73421300D01*
X249293634Y-73809048D01*
X249444926Y-74174299D01*
X249664567Y-74503016D01*
X249944118Y-74782567D01*
X250272835Y-75002208D01*
X250638086Y-75153500D01*
X251025834Y-75230628D01*
X251421178Y-75230628D01*
X251808926Y-75153500D01*
X252174177Y-75002208D01*
X252502894Y-74782567D01*
X252782445Y-74503016D01*
X253002086Y-74174299D01*
X253153378Y-73809048D01*
X253230506Y-73421300D01*
X253230506Y-73025956D01*
X253153378Y-72638208D01*
X253002086Y-72272957D01*
X252782445Y-71944240D01*
X252502894Y-71664689D01*
X252174177Y-71445048D01*
X251808926Y-71293756D01*
X251421178Y-71216628D01*
X251025834Y-71216628D01*
X250638086Y-71293756D01*
X250272835Y-71445048D01*
X249944118Y-71664689D01*
X249664567Y-71944240D01*
X249444926Y-72272957D01*
X249293634Y-72638208D01*
X249216506Y-73025956D01*
X247276758Y-73025956D01*
X247199652Y-72638323D01*
X247048360Y-72273072D01*
X246828719Y-71944355D01*
X246549168Y-71664804D01*
X246220451Y-71445163D01*
X245855200Y-71293871D01*
X245467452Y-71216743D01*
X245072108Y-71216743D01*
X244684360Y-71293871D01*
X244319109Y-71445163D01*
X243990392Y-71664804D01*
X243710841Y-71944355D01*
X243491200Y-72273072D01*
X243339908Y-72638323D01*
X243262780Y-73026071D01*
X241816380Y-73026071D01*
X242977347Y-70994380D01*
X253516545Y-70994380D01*
X255852978Y-75083138D01*
X255859007Y-75094418D01*
X255865130Y-75101879D01*
X255870722Y-75109756D01*
X255874611Y-75113431D01*
X255878002Y-75117563D01*
X255885463Y-75123686D01*
X255892484Y-75130321D01*
X255897015Y-75133167D01*
X255901147Y-75136558D01*
X255909652Y-75141104D01*
X255917839Y-75146246D01*
X255922845Y-75148155D01*
X255927553Y-75150672D01*
X255936778Y-75153470D01*
X255945814Y-75156917D01*
X255951096Y-75157813D01*
X255956205Y-75159363D01*
X255965798Y-75160308D01*
X255975334Y-75161926D01*
X255988160Y-75161563D01*
X273836554Y-75161606D01*
X310647164Y-79157259D01*
X310659618Y-79159008D01*
X310669504Y-79158446D01*
X310679390Y-79158544D01*
X310684405Y-79157598D01*
X310689510Y-79157308D01*
X310699092Y-79154829D01*
X310708812Y-79152996D01*
X310713552Y-79151088D01*
X310718498Y-79149808D01*
X310727403Y-79145512D01*
X310736587Y-79141814D01*
X310740868Y-79139014D01*
X310745464Y-79136797D01*
X310753358Y-79130847D01*
X310761647Y-79125427D01*
X310765297Y-79121849D01*
X310769374Y-79118776D01*
X310775960Y-79111396D01*
X310783028Y-79104467D01*
X310790122Y-79094076D01*
X311742874Y-77788452D01*
X313510202Y-77788452D01*
X313510202Y-78183796D01*
X313587330Y-78571544D01*
X313738622Y-78936795D01*
X313958263Y-79265512D01*
X314237814Y-79545063D01*
X314566531Y-79764704D01*
X314931782Y-79915996D01*
X315319530Y-79993124D01*
X315714874Y-79993124D01*
X316102622Y-79915996D01*
X316467873Y-79764704D01*
X316796590Y-79545063D01*
X317076141Y-79265512D01*
X317295782Y-78936795D01*
X317447074Y-78571544D01*
X317484425Y-78383764D01*
X319463256Y-78383764D01*
X319463256Y-78779108D01*
X319540384Y-79166856D01*
X319691676Y-79532107D01*
X319911317Y-79860824D01*
X320190868Y-80140375D01*
X320519585Y-80360016D01*
X320884836Y-80511308D01*
X321272584Y-80588436D01*
X321667928Y-80588436D01*
X322055676Y-80511308D01*
X322420927Y-80360016D01*
X322749644Y-80140375D01*
X323029195Y-79860824D01*
X323248836Y-79532107D01*
X323400128Y-79166856D01*
X323477256Y-78779108D01*
X323477256Y-78383764D01*
X323400128Y-77996016D01*
X323248836Y-77630765D01*
X323029195Y-77302048D01*
X322749644Y-77022497D01*
X322420927Y-76802856D01*
X322055676Y-76651564D01*
X321667928Y-76574436D01*
X321272584Y-76574436D01*
X320884836Y-76651564D01*
X320519585Y-76802856D01*
X320190868Y-77022497D01*
X319911317Y-77302048D01*
X319691676Y-77630765D01*
X319540384Y-77996016D01*
X319463256Y-78383764D01*
X317484425Y-78383764D01*
X317524202Y-78183796D01*
X317524202Y-77788452D01*
X317447074Y-77400704D01*
X317295782Y-77035453D01*
X317076141Y-76706736D01*
X316796590Y-76427185D01*
X316467873Y-76207544D01*
X316102622Y-76056252D01*
X315714874Y-75979124D01*
X315319530Y-75979124D01*
X314931782Y-76056252D01*
X314566531Y-76207544D01*
X314237814Y-76427185D01*
X313958263Y-76706736D01*
X313738622Y-77035453D01*
X313587330Y-77400704D01*
X313510202Y-77788452D01*
X311742874Y-77788452D01*
X313436875Y-75467045D01*
X324253331Y-76647021D01*
X325618176Y-80644069D01*
X325618660Y-80646886D01*
X325622998Y-80658191D01*
X325624498Y-80662583D01*
X325625681Y-80665181D01*
X325629387Y-80674839D01*
X325631868Y-80678772D01*
X325633797Y-80683009D01*
X325639843Y-80691414D01*
X325645362Y-80700163D01*
X325648564Y-80703537D01*
X325651281Y-80707315D01*
X325658853Y-80714382D01*
X325665971Y-80721884D01*
X325669763Y-80724564D01*
X325673170Y-80727744D01*
X325681987Y-80733205D01*
X325690421Y-80739166D01*
X325694663Y-80741055D01*
X325698625Y-80743509D01*
X325708329Y-80747142D01*
X325717772Y-80751347D01*
X325722305Y-80752373D01*
X325726667Y-80754006D01*
X325736893Y-80755675D01*
X325739661Y-80756302D01*
X325744241Y-80756875D01*
X325756217Y-80758830D01*
X325759080Y-80758731D01*
X328596489Y-81113666D01*
X328597069Y-81113789D01*
X328599179Y-81114011D01*
X328599505Y-81114043D01*
X328602599Y-81114430D01*
X328603765Y-81114461D01*
X329046868Y-81157908D01*
X329463238Y-81283617D01*
X329847258Y-81487804D01*
X330184307Y-81762694D01*
X330461539Y-82097811D01*
X330668406Y-82480404D01*
X330797019Y-82895882D01*
X330843234Y-83335591D01*
X330843264Y-83344232D01*
X330843289Y-154774035D01*
X330800116Y-155214340D01*
X330674407Y-155630710D01*
X330470219Y-156014731D01*
X330195330Y-156351779D01*
X329860213Y-156629011D01*
X329477620Y-156835878D01*
X329062142Y-156964491D01*
X328622433Y-157010706D01*
X328613732Y-157010736D01*
X326241322Y-157010801D01*
X326222150Y-157010258D01*
X326210091Y-157012304D01*
X326203017Y-157013001D01*
X326199251Y-157014144D01*
X326192630Y-157015267D01*
X326181292Y-157019592D01*
X326174366Y-157021693D01*
X326170834Y-157023581D01*
X326164655Y-157025938D01*
X326154543Y-157032289D01*
X326147960Y-157035808D01*
X326144763Y-157038432D01*
X326139300Y-157041863D01*
X326130830Y-157049867D01*
X326124816Y-157054803D01*
X326122084Y-157058132D01*
X326117538Y-157062428D01*
X326110998Y-157071641D01*
X326105821Y-157077949D01*
X326101281Y-157086443D01*
X323763361Y-161177804D01*
X313224163Y-161177804D01*
X311837351Y-158750884D01*
X313510202Y-158750884D01*
X313510202Y-159146228D01*
X313587330Y-159533976D01*
X313738622Y-159899227D01*
X313958263Y-160227944D01*
X314237814Y-160507495D01*
X314566531Y-160727136D01*
X314931782Y-160878428D01*
X315319530Y-160955556D01*
X315714874Y-160955556D01*
X316102622Y-160878428D01*
X316467873Y-160727136D01*
X316796590Y-160507495D01*
X317076141Y-160227944D01*
X317295782Y-159899227D01*
X317447074Y-159533976D01*
X317524202Y-159146228D01*
X317524202Y-158751003D01*
X319463100Y-158751003D01*
X319463100Y-159146347D01*
X319540228Y-159534095D01*
X319691520Y-159899346D01*
X319911161Y-160228063D01*
X320190712Y-160507614D01*
X320519429Y-160727255D01*
X320884680Y-160878547D01*
X321272428Y-160955675D01*
X321667772Y-160955675D01*
X322055520Y-160878547D01*
X322420771Y-160727255D01*
X322749488Y-160507614D01*
X323029039Y-160228063D01*
X323248680Y-159899346D01*
X323399972Y-159534095D01*
X323477100Y-159146347D01*
X323477100Y-158751003D01*
X323399972Y-158363255D01*
X323248680Y-157998004D01*
X323029039Y-157669287D01*
X322749488Y-157389736D01*
X322420771Y-157170095D01*
X322055520Y-157018803D01*
X321667772Y-156941675D01*
X321272428Y-156941675D01*
X320884680Y-157018803D01*
X320519429Y-157170095D01*
X320190712Y-157389736D01*
X319911161Y-157669287D01*
X319691520Y-157998004D01*
X319540228Y-158363255D01*
X319463100Y-158751003D01*
X317524202Y-158751003D01*
X317524202Y-158750884D01*
X317447074Y-158363136D01*
X317295782Y-157997885D01*
X317076141Y-157669168D01*
X316796590Y-157389617D01*
X316467873Y-157169976D01*
X316102622Y-157018684D01*
X315714874Y-156941556D01*
X315319530Y-156941556D01*
X314931782Y-157018684D01*
X314566531Y-157169976D01*
X314237814Y-157389617D01*
X313958263Y-157669168D01*
X313738622Y-157997885D01*
X313587330Y-158363136D01*
X313510202Y-158750884D01*
X311837351Y-158750884D01*
X310887751Y-157089086D01*
X310881695Y-157077757D01*
X310875567Y-157070291D01*
X310869985Y-157062428D01*
X310866093Y-157058750D01*
X310862698Y-157054614D01*
X310855244Y-157048497D01*
X310848224Y-157041863D01*
X310843689Y-157039015D01*
X310839552Y-157035620D01*
X310831040Y-157031071D01*
X310822868Y-157025939D01*
X310817865Y-157024031D01*
X310813145Y-157021508D01*
X310803917Y-157018710D01*
X310794893Y-157015267D01*
X310789608Y-157014370D01*
X310784493Y-157012819D01*
X310774899Y-157011874D01*
X310765373Y-157010258D01*
X310752560Y-157010621D01*
X302424635Y-157011160D01*
X302414302Y-157010532D01*
X302402275Y-157012173D01*
X302390214Y-157013362D01*
X302387473Y-157014194D01*
X302384635Y-157014581D01*
X302373172Y-157018533D01*
X302361562Y-157022055D01*
X302359035Y-157023406D01*
X302356328Y-157024339D01*
X302345852Y-157030454D01*
X302335157Y-157036171D01*
X302332944Y-157037987D01*
X302330469Y-157039432D01*
X302321382Y-157047478D01*
X302312014Y-157055167D01*
X302310198Y-157057380D01*
X302308052Y-157059280D01*
X302300707Y-157068947D01*
X302293020Y-157078314D01*
X302288151Y-157087425D01*
X292811555Y-172488732D01*
X252703760Y-172488732D01*
X252696488Y-172489448D01*
X252695430Y-172489454D01*
X252694501Y-172489644D01*
X252681425Y-172490932D01*
X252652773Y-172499623D01*
X252649577Y-172501332D01*
X250516862Y-173160884D01*
X250514081Y-173161276D01*
X250502568Y-173165304D01*
X250498109Y-173166683D01*
X250495546Y-173167761D01*
X250485819Y-173171164D01*
X250481759Y-173173559D01*
X250477421Y-173175383D01*
X250468896Y-173181146D01*
X250460029Y-173186376D01*
X250456518Y-173189513D01*
X250452616Y-173192151D01*
X250445382Y-173199463D01*
X250437702Y-173206326D01*
X250434866Y-173210094D01*
X250431559Y-173213437D01*
X250425894Y-173222015D01*
X250419697Y-173230249D01*
X250417652Y-173234496D01*
X250415059Y-173238422D01*
X250411173Y-173247949D01*
X250406706Y-173257224D01*
X250405530Y-173261783D01*
X250403750Y-173266146D01*
X250401797Y-173276252D01*
X250401099Y-173278956D01*
X250400377Y-173283595D01*
X250398068Y-173295543D01*
X250398083Y-173298344D01*
X249714920Y-177690115D01*
X239696965Y-180538358D01*
X237093769Y-177801083D01*
X239095993Y-177801083D01*
X239095993Y-178196427D01*
X239173121Y-178584175D01*
X239324413Y-178949426D01*
X239544054Y-179278143D01*
X239823605Y-179557694D01*
X240152322Y-179777335D01*
X240517573Y-179928627D01*
X240905321Y-180005755D01*
X241300665Y-180005755D01*
X241688413Y-179928627D01*
X242053664Y-179777335D01*
X242382381Y-179557694D01*
X242661932Y-179278143D01*
X242881573Y-178949426D01*
X243032865Y-178584175D01*
X243109993Y-178196427D01*
X243109993Y-177801083D01*
X243032865Y-177413335D01*
X242881573Y-177048084D01*
X242661932Y-176719367D01*
X242382381Y-176439816D01*
X242053664Y-176220175D01*
X241688413Y-176068883D01*
X241417184Y-176014932D01*
X245049322Y-176014932D01*
X245049322Y-176410276D01*
X245126450Y-176798024D01*
X245277742Y-177163275D01*
X245497383Y-177491992D01*
X245776934Y-177771543D01*
X246105651Y-177991184D01*
X246470902Y-178142476D01*
X246858650Y-178219604D01*
X247253994Y-178219604D01*
X247641742Y-178142476D01*
X248006993Y-177991184D01*
X248335710Y-177771543D01*
X248615261Y-177491992D01*
X248834902Y-177163275D01*
X248986194Y-176798024D01*
X249063322Y-176410276D01*
X249063322Y-176014932D01*
X248986194Y-175627184D01*
X248834902Y-175261933D01*
X248615261Y-174933216D01*
X248335710Y-174653665D01*
X248006993Y-174434024D01*
X247641742Y-174282732D01*
X247253994Y-174205604D01*
X246858650Y-174205604D01*
X246470902Y-174282732D01*
X246105651Y-174434024D01*
X245776934Y-174653665D01*
X245497383Y-174933216D01*
X245277742Y-175261933D01*
X245126450Y-175627184D01*
X245049322Y-176014932D01*
X241417184Y-176014932D01*
X241300665Y-175991755D01*
X240905321Y-175991755D01*
X240517573Y-176068883D01*
X240152322Y-176220175D01*
X239823605Y-176439816D01*
X239544054Y-176719367D01*
X239324413Y-177048084D01*
X239173121Y-177413335D01*
X239095993Y-177801083D01*
X237093769Y-177801083D01*
X236333984Y-177002165D01*
X236324052Y-176991572D01*
X236317502Y-176986884D01*
X236311425Y-176981636D01*
X236305371Y-176978202D01*
X236299704Y-176974146D01*
X236292375Y-176970830D01*
X236285382Y-176966863D01*
X236278775Y-176964676D01*
X236272425Y-176961803D01*
X236264586Y-176959980D01*
X236256957Y-176957455D01*
X236250048Y-176956599D01*
X236243262Y-176955021D01*
X236235220Y-176954762D01*
X236227243Y-176953774D01*
X236220299Y-176954282D01*
X236213336Y-176954058D01*
X236205405Y-176955372D01*
X236197382Y-176955959D01*
X236183511Y-176959789D01*
X230647749Y-178446385D01*
X230635697Y-178449185D01*
X230626498Y-178453344D01*
X230617050Y-178456906D01*
X230606554Y-178463441D01*
X213082618Y-188562390D01*
X182207268Y-188562156D01*
X164683751Y-178463451D01*
X164673209Y-178456891D01*
X164663758Y-178453330D01*
X164654590Y-178449185D01*
X164642559Y-178446389D01*
X159089958Y-176956534D01*
X159076174Y-176952728D01*
X159068142Y-176952140D01*
X159060187Y-176950824D01*
X159053238Y-176951049D01*
X159046312Y-176950542D01*
X159038319Y-176951532D01*
X159030263Y-176951793D01*
X159023496Y-176953368D01*
X159016597Y-176954223D01*
X159008943Y-176956756D01*
X159001101Y-176958582D01*
X158994774Y-176961446D01*
X158988173Y-176963631D01*
X158981161Y-176967609D01*
X158973824Y-176970930D01*
X158968176Y-176974974D01*
X158962130Y-176978404D01*
X158956031Y-176983671D01*
X158949480Y-176988362D01*
X158939666Y-176998834D01*
X155576592Y-180535124D01*
X145558637Y-177686883D01*
X145298556Y-176014932D01*
X146227530Y-176014932D01*
X146227530Y-176410276D01*
X146304658Y-176798024D01*
X146455950Y-177163275D01*
X146675591Y-177491992D01*
X146955142Y-177771543D01*
X147283859Y-177991184D01*
X147649110Y-178142476D01*
X148036858Y-178219604D01*
X148432202Y-178219604D01*
X148819950Y-178142476D01*
X149185201Y-177991184D01*
X149469708Y-177801083D01*
X152180295Y-177801083D01*
X152180295Y-178196427D01*
X152257423Y-178584175D01*
X152408715Y-178949426D01*
X152628356Y-179278143D01*
X152907907Y-179557694D01*
X153236624Y-179777335D01*
X153601875Y-179928627D01*
X153989623Y-180005755D01*
X154384967Y-180005755D01*
X154772715Y-179928627D01*
X155137966Y-179777335D01*
X155466683Y-179557694D01*
X155746234Y-179278143D01*
X155965875Y-178949426D01*
X156117167Y-178584175D01*
X156194295Y-178196427D01*
X156194295Y-177801083D01*
X156117167Y-177413335D01*
X155965875Y-177048084D01*
X155746234Y-176719367D01*
X155466683Y-176439816D01*
X155137966Y-176220175D01*
X154772715Y-176068883D01*
X154384967Y-175991755D01*
X153989623Y-175991755D01*
X153601875Y-176068883D01*
X153236624Y-176220175D01*
X152907907Y-176439816D01*
X152628356Y-176719367D01*
X152408715Y-177048084D01*
X152257423Y-177413335D01*
X152180295Y-177801083D01*
X149469708Y-177801083D01*
X149513918Y-177771543D01*
X149793469Y-177491992D01*
X150013110Y-177163275D01*
X150164402Y-176798024D01*
X150241530Y-176410276D01*
X150241530Y-176014932D01*
X150164402Y-175627184D01*
X150013110Y-175261933D01*
X149793469Y-174933216D01*
X149513918Y-174653665D01*
X149185201Y-174434024D01*
X148819950Y-174282732D01*
X148432202Y-174205604D01*
X148036858Y-174205604D01*
X147649110Y-174282732D01*
X147283859Y-174434024D01*
X146955142Y-174653665D01*
X146675591Y-174933216D01*
X146455950Y-175261933D01*
X146304658Y-175627184D01*
X146227530Y-176014932D01*
X145298556Y-176014932D01*
X144875485Y-173295198D01*
X144875503Y-173292477D01*
X144873188Y-173280429D01*
X144872456Y-173275724D01*
X144871781Y-173273109D01*
X144869853Y-173263074D01*
X144868045Y-173258628D01*
X144866849Y-173253992D01*
X144862424Y-173244803D01*
X144858575Y-173235338D01*
X144855937Y-173231334D01*
X144853858Y-173227017D01*
X144847720Y-173218862D01*
X144842102Y-173210334D01*
X144838735Y-173206923D01*
X144835853Y-173203094D01*
X144828241Y-173196292D01*
X144821068Y-173189026D01*
X144817098Y-173186336D01*
X144813526Y-173183144D01*
X144804742Y-173177963D01*
X144796282Y-173172230D01*
X144791861Y-173170365D01*
X144787736Y-173167932D01*
X144778105Y-173164562D01*
X144775603Y-173163507D01*
X144771035Y-173162089D01*
X144759474Y-173158044D01*
X144756784Y-173157664D01*
X142637949Y-172499857D01*
X142637512Y-172499623D01*
X142623773Y-172495456D01*
X142617007Y-172493355D01*
X142616513Y-172493253D01*
X142608860Y-172490932D01*
X142601884Y-172490245D01*
X142595024Y-172488834D01*
X142587032Y-172488782D01*
X142586525Y-172488732D01*
X142579380Y-172488732D01*
X142565084Y-172488639D01*
X142564598Y-172488732D01*
X102479116Y-172489350D01*
X93001012Y-157087431D01*
X92996138Y-157078311D01*
X92988433Y-157068922D01*
X92981101Y-157059274D01*
X92978962Y-157057380D01*
X92977144Y-157055165D01*
X92967758Y-157047461D01*
X92958683Y-157039427D01*
X92956213Y-157037986D01*
X92954000Y-157036169D01*
X92943303Y-157030451D01*
X92932824Y-157024335D01*
X92930117Y-157023402D01*
X92927595Y-157022054D01*
X92915992Y-157018534D01*
X92904516Y-157014579D01*
X92901679Y-157014192D01*
X92898943Y-157013362D01*
X92886881Y-157012173D01*
X92874849Y-157010532D01*
X92864524Y-157011160D01*
X84544654Y-157010801D01*
X84525478Y-157010258D01*
X84513427Y-157012303D01*
X84506356Y-157012999D01*
X84502587Y-157014142D01*
X84495958Y-157015267D01*
X84484626Y-157019590D01*
X84477704Y-157021689D01*
X84474168Y-157023579D01*
X84467983Y-157025938D01*
X84457877Y-157032285D01*
X84451297Y-157035802D01*
X84448097Y-157038428D01*
X84442628Y-157041863D01*
X84434163Y-157049863D01*
X84428151Y-157054796D01*
X84425416Y-157058128D01*
X84420866Y-157062428D01*
X84414330Y-157071635D01*
X84409155Y-157077940D01*
X84404615Y-157086433D01*
X82066689Y-161177804D01*
X71527491Y-161177804D01*
X70140784Y-158751067D01*
X71813040Y-158751067D01*
X71813040Y-159146411D01*
X71890168Y-159534159D01*
X72041460Y-159899410D01*
X72261101Y-160228127D01*
X72540652Y-160507678D01*
X72869369Y-160727319D01*
X73234620Y-160878611D01*
X73622368Y-160955739D01*
X74017712Y-160955739D01*
X74405460Y-160878611D01*
X74770711Y-160727319D01*
X75099428Y-160507678D01*
X75378979Y-160228127D01*
X75598620Y-159899410D01*
X75749912Y-159534159D01*
X75827040Y-159146411D01*
X75827040Y-158751067D01*
X75827004Y-158750884D01*
X77766650Y-158750884D01*
X77766650Y-159146228D01*
X77843778Y-159533976D01*
X77995070Y-159899227D01*
X78214711Y-160227944D01*
X78494262Y-160507495D01*
X78822979Y-160727136D01*
X79188230Y-160878428D01*
X79575978Y-160955556D01*
X79971322Y-160955556D01*
X80359070Y-160878428D01*
X80724321Y-160727136D01*
X81053038Y-160507495D01*
X81332589Y-160227944D01*
X81552230Y-159899227D01*
X81703522Y-159533976D01*
X81780650Y-159146228D01*
X81780650Y-158750884D01*
X81703522Y-158363136D01*
X81552230Y-157997885D01*
X81332589Y-157669168D01*
X81053038Y-157389617D01*
X80724321Y-157169976D01*
X80359070Y-157018684D01*
X79971322Y-156941556D01*
X79575978Y-156941556D01*
X79188230Y-157018684D01*
X78822979Y-157169976D01*
X78494262Y-157389617D01*
X78214711Y-157669168D01*
X77995070Y-157997885D01*
X77843778Y-158363136D01*
X77766650Y-158750884D01*
X75827004Y-158750884D01*
X75749912Y-158363319D01*
X75598620Y-157998068D01*
X75378979Y-157669351D01*
X75099428Y-157389800D01*
X74770711Y-157170159D01*
X74405460Y-157018867D01*
X74017712Y-156941739D01*
X73622368Y-156941739D01*
X73234620Y-157018867D01*
X72869369Y-157170159D01*
X72540652Y-157389800D01*
X72261101Y-157669351D01*
X72041460Y-157998068D01*
X71890168Y-158363319D01*
X71813040Y-158751067D01*
X70140784Y-158751067D01*
X69191062Y-157089055D01*
X69185009Y-157077737D01*
X69178889Y-157070283D01*
X69173313Y-157062428D01*
X69169415Y-157058744D01*
X69166009Y-157054596D01*
X69158556Y-157048482D01*
X69151552Y-157041863D01*
X69147011Y-157039011D01*
X69142860Y-157035606D01*
X69134352Y-157031061D01*
X69126196Y-157025939D01*
X69121185Y-157024027D01*
X69116450Y-157021498D01*
X69107230Y-157018704D01*
X69098221Y-157015267D01*
X69092925Y-157014368D01*
X69087796Y-157012814D01*
X69078216Y-157011873D01*
X69068701Y-157010258D01*
X69055869Y-157010621D01*
X66682705Y-157011159D01*
X66242424Y-156967988D01*
X65826054Y-156842279D01*
X65442033Y-156638091D01*
X65104985Y-156363202D01*
X64827753Y-156028085D01*
X64620886Y-155645492D01*
X64492273Y-155230014D01*
X64446058Y-154790305D01*
X64446027Y-154781378D01*
X64446019Y-154781299D01*
X64446025Y-99775126D01*
X319812042Y-99775126D01*
X319812042Y-100250126D01*
X319821568Y-100346841D01*
X319849778Y-100439839D01*
X319895590Y-100525546D01*
X319957242Y-100600669D01*
X320032365Y-100662321D01*
X320118072Y-100708133D01*
X320211070Y-100736343D01*
X320307785Y-100745869D01*
X320882785Y-100745869D01*
X320979500Y-100736343D01*
X321072498Y-100708133D01*
X321158205Y-100662321D01*
X321199440Y-100628481D01*
X321230783Y-100731806D01*
X321289748Y-100842120D01*
X321369100Y-100938811D01*
X321465791Y-101018163D01*
X321576105Y-101077128D01*
X321695803Y-101113438D01*
X321820285Y-101125698D01*
X322059535Y-101122626D01*
X322218285Y-100963876D01*
X322218285Y-100139626D01*
X322472285Y-100139626D01*
X322472285Y-100963876D01*
X322631035Y-101122626D01*
X322870285Y-101125698D01*
X322994767Y-101113438D01*
X323114465Y-101077128D01*
X323224779Y-101018163D01*
X323321470Y-100938811D01*
X323400822Y-100842120D01*
X323459787Y-100731806D01*
X323496097Y-100612108D01*
X323508357Y-100487626D01*
X323505285Y-100298376D01*
X323346535Y-100139626D01*
X322472285Y-100139626D01*
X322218285Y-100139626D01*
X322198285Y-100139626D01*
X322198285Y-99885626D01*
X322218285Y-99885626D01*
X322218285Y-99061376D01*
X322472285Y-99061376D01*
X322472285Y-99885626D01*
X323346535Y-99885626D01*
X323505285Y-99726876D01*
X323508357Y-99537626D01*
X323496097Y-99413144D01*
X323459787Y-99293446D01*
X323400822Y-99183132D01*
X323321470Y-99086441D01*
X323224779Y-99007089D01*
X323114465Y-98948124D01*
X322994767Y-98911814D01*
X322870285Y-98899554D01*
X322631035Y-98902626D01*
X322472285Y-99061376D01*
X322218285Y-99061376D01*
X322059535Y-98902626D01*
X321820285Y-98899554D01*
X321695803Y-98911814D01*
X321576105Y-98948124D01*
X321465791Y-99007089D01*
X321369100Y-99086441D01*
X321289748Y-99183132D01*
X321230783Y-99293446D01*
X321199440Y-99396771D01*
X321158205Y-99362931D01*
X321072498Y-99317119D01*
X320979500Y-99288909D01*
X320882785Y-99279383D01*
X320307785Y-99279383D01*
X320211070Y-99288909D01*
X320118072Y-99317119D01*
X320032365Y-99362931D01*
X319957242Y-99424583D01*
X319895590Y-99499706D01*
X319849778Y-99585413D01*
X319821568Y-99678411D01*
X319812042Y-99775126D01*
X64446025Y-99775126D01*
X64446027Y-89124003D01*
X205413418Y-89124003D01*
X205413418Y-89470101D01*
X205480939Y-89809550D01*
X205613385Y-90129303D01*
X205805667Y-90417074D01*
X206050396Y-90661803D01*
X206338167Y-90854085D01*
X206657920Y-90986531D01*
X206997369Y-91054052D01*
X207343467Y-91054052D01*
X207682916Y-90986531D01*
X208002669Y-90854085D01*
X208290440Y-90661803D01*
X208535169Y-90417074D01*
X208727451Y-90129303D01*
X208859897Y-89809550D01*
X208927418Y-89470101D01*
X208927418Y-89124003D01*
X208859897Y-88784554D01*
X208727451Y-88464801D01*
X208535169Y-88177030D01*
X208290440Y-87932301D01*
X208002669Y-87740019D01*
X207682916Y-87607573D01*
X207343467Y-87540052D01*
X206997369Y-87540052D01*
X206657920Y-87607573D01*
X206338167Y-87740019D01*
X206050396Y-87932301D01*
X205805667Y-88177030D01*
X205613385Y-88464801D01*
X205480939Y-88784554D01*
X205413418Y-89124003D01*
X64446027Y-89124003D01*
X64446028Y-83351427D01*
X64489200Y-82911132D01*
X64614909Y-82494762D01*
X64819096Y-82110742D01*
X65093986Y-81773693D01*
X65429103Y-81496461D01*
X65811696Y-81289594D01*
X66227174Y-81160981D01*
X66664167Y-81115052D01*
X66664308Y-81115076D01*
X66686742Y-81114486D01*
X69530275Y-80758787D01*
X69533124Y-80758885D01*
X69545055Y-80756938D01*
X69549681Y-80756359D01*
X69552473Y-80755727D01*
X69562674Y-80754062D01*
X69567028Y-80752432D01*
X69571570Y-80751404D01*
X69581032Y-80747190D01*
X69590716Y-80743565D01*
X69594670Y-80741116D01*
X69598921Y-80739223D01*
X69607373Y-80733249D01*
X69616171Y-80727800D01*
X69619571Y-80724627D01*
X69623371Y-80721941D01*
X69630500Y-80714427D01*
X69638061Y-80707371D01*
X69640775Y-80703598D01*
X69643980Y-80700220D01*
X69649509Y-80691455D01*
X69655544Y-80683065D01*
X69657469Y-80678838D01*
X69659955Y-80674896D01*
X69663669Y-80665217D01*
X69664843Y-80662639D01*
X69666332Y-80658279D01*
X69670682Y-80646943D01*
X69671167Y-80644119D01*
X70442995Y-78383764D01*
X71812060Y-78383764D01*
X71812060Y-78779108D01*
X71889188Y-79166856D01*
X72040480Y-79532107D01*
X72260121Y-79860824D01*
X72539672Y-80140375D01*
X72868389Y-80360016D01*
X73233640Y-80511308D01*
X73621388Y-80588436D01*
X74016732Y-80588436D01*
X74404480Y-80511308D01*
X74769731Y-80360016D01*
X75098448Y-80140375D01*
X75377999Y-79860824D01*
X75597640Y-79532107D01*
X75748932Y-79166856D01*
X75826060Y-78779108D01*
X75826060Y-78383764D01*
X75748932Y-77996016D01*
X75662957Y-77788452D01*
X77766650Y-77788452D01*
X77766650Y-78183796D01*
X77843778Y-78571544D01*
X77995070Y-78936795D01*
X78214711Y-79265512D01*
X78494262Y-79545063D01*
X78822979Y-79764704D01*
X79188230Y-79915996D01*
X79575978Y-79993124D01*
X79971322Y-79993124D01*
X80359070Y-79915996D01*
X80724321Y-79764704D01*
X81053038Y-79545063D01*
X81332589Y-79265512D01*
X81552230Y-78936795D01*
X81703522Y-78571544D01*
X81780650Y-78183796D01*
X81780650Y-77788452D01*
X81703522Y-77400704D01*
X81552230Y-77035453D01*
X81332589Y-76706736D01*
X81053038Y-76427185D01*
X80724321Y-76207544D01*
X80359070Y-76056252D01*
X79971322Y-75979124D01*
X79575978Y-75979124D01*
X79188230Y-76056252D01*
X78822979Y-76207544D01*
X78494262Y-76427185D01*
X78214711Y-76706736D01*
X77995070Y-77035453D01*
X77843778Y-77400704D01*
X77766650Y-77788452D01*
X75662957Y-77788452D01*
X75597640Y-77630765D01*
X75377999Y-77302048D01*
X75098448Y-77022497D01*
X74769731Y-76802856D01*
X74404480Y-76651564D01*
X74016732Y-76574436D01*
X73621388Y-76574436D01*
X73233640Y-76651564D01*
X72868389Y-76802856D01*
X72539672Y-77022497D01*
X72260121Y-77302048D01*
X72040480Y-77630765D01*
X71889188Y-77996016D01*
X71812060Y-78383764D01*
X70442995Y-78383764D01*
X71036011Y-76647077D01*
X81852469Y-75467102D01*
X84499241Y-79094162D01*
X84506314Y-79104523D01*
X84513372Y-79111442D01*
X84519967Y-79118832D01*
X84524052Y-79121911D01*
X84527696Y-79125483D01*
X84535972Y-79130895D01*
X84543877Y-79136853D01*
X84548477Y-79139073D01*
X84552755Y-79141870D01*
X84561933Y-79145565D01*
X84570843Y-79149864D01*
X84575791Y-79151144D01*
X84580530Y-79153052D01*
X84590245Y-79154884D01*
X84599831Y-79157364D01*
X84604938Y-79157654D01*
X84609953Y-79158600D01*
X84619838Y-79158502D01*
X84629724Y-79159064D01*
X84642178Y-79157315D01*
X121453313Y-75161606D01*
X139304210Y-75161606D01*
X139315517Y-75161926D01*
X139324448Y-75160411D01*
X139334647Y-75159406D01*
X139340079Y-75157758D01*
X139345037Y-75156917D01*
X139353515Y-75153683D01*
X139363299Y-75150715D01*
X139368296Y-75148044D01*
X139373012Y-75146245D01*
X139380728Y-75141399D01*
X139389705Y-75136601D01*
X139394062Y-75133025D01*
X139398368Y-75130321D01*
X139405041Y-75124015D01*
X139412850Y-75117606D01*
X139416401Y-75113279D01*
X139420129Y-75109756D01*
X139425486Y-75102209D01*
X139431845Y-75094461D01*
X139438253Y-75082473D01*
X140613406Y-73025956D01*
X142060346Y-73025956D01*
X142060346Y-73421300D01*
X142137474Y-73809048D01*
X142288766Y-74174299D01*
X142508407Y-74503016D01*
X142787958Y-74782567D01*
X143116675Y-75002208D01*
X143481926Y-75153500D01*
X143869674Y-75230628D01*
X144265018Y-75230628D01*
X144652766Y-75153500D01*
X145018017Y-75002208D01*
X145346734Y-74782567D01*
X145626285Y-74503016D01*
X145845926Y-74174299D01*
X145997218Y-73809048D01*
X146074346Y-73421300D01*
X146074346Y-73026071D01*
X148012380Y-73026071D01*
X148012380Y-73421415D01*
X148089508Y-73809163D01*
X148240800Y-74174414D01*
X148460441Y-74503131D01*
X148739992Y-74782682D01*
X149068709Y-75002323D01*
X149433960Y-75153615D01*
X149821708Y-75230743D01*
X150217052Y-75230743D01*
X150604800Y-75153615D01*
X150970051Y-75002323D01*
X151298768Y-74782682D01*
X151578319Y-74503131D01*
X151797960Y-74174414D01*
X151949252Y-73809163D01*
X152026380Y-73421415D01*
X152026380Y-73026071D01*
X151949252Y-72638323D01*
X151797960Y-72273072D01*
X151578319Y-71944355D01*
X151298768Y-71664804D01*
X150970051Y-71445163D01*
X150604800Y-71293871D01*
X150217052Y-71216743D01*
X149821708Y-71216743D01*
X149433960Y-71293871D01*
X149068709Y-71445163D01*
X148739992Y-71664804D01*
X148460441Y-71944355D01*
X148240800Y-72273072D01*
X148089508Y-72638323D01*
X148012380Y-73026071D01*
X146074346Y-73026071D01*
X146074346Y-73025956D01*
X145997218Y-72638208D01*
X145845926Y-72272957D01*
X145626285Y-71944240D01*
X145346734Y-71664689D01*
X145018017Y-71445048D01*
X144652766Y-71293756D01*
X144265018Y-71216628D01*
X143869674Y-71216628D01*
X143481926Y-71293756D01*
X143116675Y-71445048D01*
X142787958Y-71664689D01*
X142508407Y-71944240D01*
X142288766Y-72272957D01*
X142137474Y-72638208D01*
X142060346Y-73025956D01*
X140613406Y-73025956D01*
X141774307Y-70994380D01*
X152313505Y-70994380D01*
X154649938Y-75083138D01*
M02*
