G04 #@! TF.GenerationSoftware,KiCad,Pcbnew,(5.1.4-0)*
G04 #@! TF.CreationDate,2021-10-13T07:22:11-05:00*
G04 #@! TF.ProjectId,niko_top_plate,6e696b6f-5f74-46f7-905f-706c6174652e,rev?*
G04 #@! TF.SameCoordinates,Original*
G04 #@! TF.FileFunction,Legend,Bot*
G04 #@! TF.FilePolarity,Positive*
%FSLAX46Y46*%
G04 Gerber Fmt 4.6, Leading zero omitted, Abs format (unit mm)*
G04 Created by KiCad (PCBNEW (5.1.4-0)) date 2021-10-13 07:22:11*
%MOMM*%
%LPD*%
G04 APERTURE LIST*
%ADD10C,0.150000*%
%ADD11C,0.200000*%
%ADD12C,0.120000*%
G04 APERTURE END LIST*
D10*
X197501107Y-179237510D02*
X197501107Y-179951796D01*
X197548726Y-180094653D01*
X197643964Y-180189891D01*
X197786821Y-180237510D01*
X197882060Y-180237510D01*
X196548726Y-180237510D02*
X197024917Y-180237510D01*
X197024917Y-179237510D01*
X195643964Y-180142272D02*
X195691583Y-180189891D01*
X195834440Y-180237510D01*
X195929679Y-180237510D01*
X196072536Y-180189891D01*
X196167774Y-180094653D01*
X196215393Y-179999415D01*
X196263012Y-179808939D01*
X196263012Y-179666082D01*
X196215393Y-179475606D01*
X196167774Y-179380368D01*
X196072536Y-179285130D01*
X195929679Y-179237510D01*
X195834440Y-179237510D01*
X195691583Y-179285130D01*
X195643964Y-179332749D01*
X194929679Y-179237510D02*
X194929679Y-179951796D01*
X194977298Y-180094653D01*
X195072536Y-180189891D01*
X195215393Y-180237510D01*
X195310631Y-180237510D01*
X193977298Y-180237510D02*
X194453488Y-180237510D01*
X194453488Y-179237510D01*
X193072536Y-180142272D02*
X193120155Y-180189891D01*
X193263012Y-180237510D01*
X193358250Y-180237510D01*
X193501107Y-180189891D01*
X193596345Y-180094653D01*
X193643964Y-179999415D01*
X193691583Y-179808939D01*
X193691583Y-179666082D01*
X193643964Y-179475606D01*
X193596345Y-179380368D01*
X193501107Y-179285130D01*
X193358250Y-179237510D01*
X193263012Y-179237510D01*
X193120155Y-179285130D01*
X193072536Y-179332749D01*
X192358250Y-179237510D02*
X192358250Y-179951796D01*
X192405869Y-180094653D01*
X192501107Y-180189891D01*
X192643964Y-180237510D01*
X192739202Y-180237510D01*
X191405869Y-180237510D02*
X191882060Y-180237510D01*
X191882060Y-179237510D01*
X190501107Y-180142272D02*
X190548726Y-180189891D01*
X190691583Y-180237510D01*
X190786821Y-180237510D01*
X190929679Y-180189891D01*
X191024917Y-180094653D01*
X191072536Y-179999415D01*
X191120155Y-179808939D01*
X191120155Y-179666082D01*
X191072536Y-179475606D01*
X191024917Y-179380368D01*
X190929679Y-179285130D01*
X190786821Y-179237510D01*
X190691583Y-179237510D01*
X190548726Y-179285130D01*
X190501107Y-179332749D01*
X189786821Y-179237510D02*
X189786821Y-179951796D01*
X189834440Y-180094653D01*
X189929679Y-180189891D01*
X190072536Y-180237510D01*
X190167774Y-180237510D01*
X188834440Y-180237510D02*
X189310631Y-180237510D01*
X189310631Y-179237510D01*
X187929679Y-180142272D02*
X187977298Y-180189891D01*
X188120155Y-180237510D01*
X188215393Y-180237510D01*
X188358250Y-180189891D01*
X188453488Y-180094653D01*
X188501107Y-179999415D01*
X188548726Y-179808939D01*
X188548726Y-179666082D01*
X188501107Y-179475606D01*
X188453488Y-179380368D01*
X188358250Y-179285130D01*
X188215393Y-179237510D01*
X188120155Y-179237510D01*
X187977298Y-179285130D01*
X187929679Y-179332749D01*
D11*
X316975437Y-155941537D02*
X315963532Y-155941537D01*
X315844484Y-156001061D01*
X315784960Y-156060585D01*
X315725437Y-156179632D01*
X315725437Y-156358204D01*
X315784960Y-156477251D01*
X316201627Y-155941537D02*
X316142103Y-156060585D01*
X316142103Y-156298680D01*
X316201627Y-156417728D01*
X316261151Y-156477251D01*
X316380199Y-156536775D01*
X316737341Y-156536775D01*
X316856389Y-156477251D01*
X316915913Y-156417728D01*
X316975437Y-156298680D01*
X316975437Y-156060585D01*
X316915913Y-155941537D01*
X316142103Y-155346299D02*
X316975437Y-155346299D01*
X317392103Y-155346299D02*
X317332580Y-155405823D01*
X317273056Y-155346299D01*
X317332580Y-155286775D01*
X317392103Y-155346299D01*
X317273056Y-155346299D01*
X316975437Y-154929632D02*
X316975437Y-154453442D01*
X317392103Y-154751061D02*
X316320675Y-154751061D01*
X316201627Y-154691537D01*
X316142103Y-154572490D01*
X316142103Y-154453442D01*
X316142103Y-154036775D02*
X317392103Y-154036775D01*
X316142103Y-153501061D02*
X316796865Y-153501061D01*
X316915913Y-153560585D01*
X316975437Y-153679632D01*
X316975437Y-153858204D01*
X316915913Y-153977251D01*
X316856389Y-154036775D01*
X316975437Y-152370109D02*
X316142103Y-152370109D01*
X316975437Y-152905823D02*
X316320675Y-152905823D01*
X316201627Y-152846299D01*
X316142103Y-152727251D01*
X316142103Y-152548680D01*
X316201627Y-152429632D01*
X316261151Y-152370109D01*
X316142103Y-151774870D02*
X317392103Y-151774870D01*
X316915913Y-151774870D02*
X316975437Y-151655823D01*
X316975437Y-151417728D01*
X316915913Y-151298680D01*
X316856389Y-151239156D01*
X316737341Y-151179632D01*
X316380199Y-151179632D01*
X316261151Y-151239156D01*
X316201627Y-151298680D01*
X316142103Y-151417728D01*
X316142103Y-151655823D01*
X316201627Y-151774870D01*
X316261151Y-150643918D02*
X316201627Y-150584394D01*
X316142103Y-150643918D01*
X316201627Y-150703442D01*
X316261151Y-150643918D01*
X316142103Y-150643918D01*
X316201627Y-149512966D02*
X316142103Y-149632013D01*
X316142103Y-149870109D01*
X316201627Y-149989156D01*
X316261151Y-150048680D01*
X316380199Y-150108204D01*
X316737341Y-150108204D01*
X316856389Y-150048680D01*
X316915913Y-149989156D01*
X316975437Y-149870109D01*
X316975437Y-149632013D01*
X316915913Y-149512966D01*
X316142103Y-148798680D02*
X316201627Y-148917728D01*
X316261151Y-148977251D01*
X316380199Y-149036775D01*
X316737341Y-149036775D01*
X316856389Y-148977251D01*
X316915913Y-148917728D01*
X316975437Y-148798680D01*
X316975437Y-148620109D01*
X316915913Y-148501061D01*
X316856389Y-148441537D01*
X316737341Y-148382013D01*
X316380199Y-148382013D01*
X316261151Y-148441537D01*
X316201627Y-148501061D01*
X316142103Y-148620109D01*
X316142103Y-148798680D01*
X316142103Y-147846299D02*
X316975437Y-147846299D01*
X316856389Y-147846299D02*
X316915913Y-147786775D01*
X316975437Y-147667728D01*
X316975437Y-147489156D01*
X316915913Y-147370109D01*
X316796865Y-147310585D01*
X316142103Y-147310585D01*
X316796865Y-147310585D02*
X316915913Y-147251061D01*
X316975437Y-147132013D01*
X316975437Y-146953442D01*
X316915913Y-146834394D01*
X316796865Y-146774870D01*
X316142103Y-146774870D01*
X317451627Y-145286775D02*
X315844484Y-146358204D01*
X316142103Y-144334394D02*
X317392103Y-144334394D01*
X316201627Y-144334394D02*
X316142103Y-144453442D01*
X316142103Y-144691537D01*
X316201627Y-144810585D01*
X316261151Y-144870109D01*
X316380199Y-144929632D01*
X316737341Y-144929632D01*
X316856389Y-144870109D01*
X316915913Y-144810585D01*
X316975437Y-144691537D01*
X316975437Y-144453442D01*
X316915913Y-144334394D01*
X316142103Y-143739156D02*
X316975437Y-143739156D01*
X317392103Y-143739156D02*
X317332580Y-143798680D01*
X317273056Y-143739156D01*
X317332580Y-143679632D01*
X317392103Y-143739156D01*
X317273056Y-143739156D01*
X316201627Y-142667728D02*
X316142103Y-142786775D01*
X316142103Y-143024870D01*
X316201627Y-143143918D01*
X316320675Y-143203442D01*
X316796865Y-143203442D01*
X316915913Y-143143918D01*
X316975437Y-143024870D01*
X316975437Y-142786775D01*
X316915913Y-142667728D01*
X316796865Y-142608204D01*
X316677818Y-142608204D01*
X316558770Y-143203442D01*
X316142103Y-142072490D02*
X316975437Y-142072490D01*
X316737341Y-142072490D02*
X316856389Y-142012966D01*
X316915913Y-141953442D01*
X316975437Y-141834394D01*
X316975437Y-141715347D01*
X316142103Y-141298680D02*
X316975437Y-141298680D01*
X317392103Y-141298680D02*
X317332580Y-141358204D01*
X317273056Y-141298680D01*
X317332580Y-141239156D01*
X317392103Y-141298680D01*
X317273056Y-141298680D01*
X316201627Y-140167728D02*
X316142103Y-140286775D01*
X316142103Y-140524870D01*
X316201627Y-140643918D01*
X316261151Y-140703442D01*
X316380199Y-140762966D01*
X316737341Y-140762966D01*
X316856389Y-140703442D01*
X316915913Y-140643918D01*
X316975437Y-140524870D01*
X316975437Y-140286775D01*
X316915913Y-140167728D01*
X316142103Y-139632013D02*
X317392103Y-139632013D01*
X316618294Y-139512966D02*
X316142103Y-139155823D01*
X316975437Y-139155823D02*
X316499246Y-139632013D01*
X316142103Y-138084394D02*
X317392103Y-138084394D01*
X316201627Y-138084394D02*
X316142103Y-138203442D01*
X316142103Y-138441537D01*
X316201627Y-138560585D01*
X316261151Y-138620109D01*
X316380199Y-138679632D01*
X316737341Y-138679632D01*
X316856389Y-138620109D01*
X316915913Y-138560585D01*
X316975437Y-138441537D01*
X316975437Y-138203442D01*
X316915913Y-138084394D01*
X316142103Y-137489156D02*
X316975437Y-137489156D01*
X317392103Y-137489156D02*
X317332580Y-137548680D01*
X317273056Y-137489156D01*
X317332580Y-137429632D01*
X317392103Y-137489156D01*
X317273056Y-137489156D01*
X316201627Y-136417728D02*
X316142103Y-136536775D01*
X316142103Y-136774870D01*
X316201627Y-136893918D01*
X316320675Y-136953442D01*
X316796865Y-136953442D01*
X316915913Y-136893918D01*
X316975437Y-136774870D01*
X316975437Y-136536775D01*
X316915913Y-136417728D01*
X316796865Y-136358204D01*
X316677818Y-136358204D01*
X316558770Y-136953442D01*
X316975437Y-134064230D02*
X316142103Y-134064230D01*
X316856389Y-134064230D02*
X316915913Y-134004706D01*
X316975437Y-133885659D01*
X316975437Y-133707087D01*
X316915913Y-133588040D01*
X316796865Y-133528516D01*
X316142103Y-133528516D01*
X316142103Y-132933278D02*
X316975437Y-132933278D01*
X317392103Y-132933278D02*
X317332580Y-132992801D01*
X317273056Y-132933278D01*
X317332580Y-132873754D01*
X317392103Y-132933278D01*
X317273056Y-132933278D01*
X316142103Y-132338040D02*
X317392103Y-132338040D01*
X316618294Y-132218992D02*
X316142103Y-131861849D01*
X316975437Y-131861849D02*
X316499246Y-132338040D01*
X316142103Y-131147563D02*
X316201627Y-131266611D01*
X316261151Y-131326135D01*
X316380199Y-131385659D01*
X316737341Y-131385659D01*
X316856389Y-131326135D01*
X316915913Y-131266611D01*
X316975437Y-131147563D01*
X316975437Y-130968992D01*
X316915913Y-130849944D01*
X316856389Y-130790420D01*
X316737341Y-130730897D01*
X316380199Y-130730897D01*
X316261151Y-130790420D01*
X316201627Y-130849944D01*
X316142103Y-130968992D01*
X316142103Y-131147563D01*
X316142103Y-129242801D02*
X316975437Y-129242801D01*
X316737341Y-129242801D02*
X316856389Y-129183278D01*
X316915913Y-129123754D01*
X316975437Y-129004706D01*
X316975437Y-128885659D01*
X316201627Y-127992801D02*
X316142103Y-128111849D01*
X316142103Y-128349944D01*
X316201627Y-128468992D01*
X316320675Y-128528516D01*
X316796865Y-128528516D01*
X316915913Y-128468992D01*
X316975437Y-128349944D01*
X316975437Y-128111849D01*
X316915913Y-127992801D01*
X316796865Y-127933278D01*
X316677818Y-127933278D01*
X316558770Y-128528516D01*
X316975437Y-127516611D02*
X316142103Y-127218992D01*
X316975437Y-126921373D01*
X316142103Y-124838040D02*
X316142103Y-125552325D01*
X316142103Y-125195182D02*
X317392103Y-125195182D01*
X317213532Y-125314230D01*
X317094484Y-125433278D01*
X317034960Y-125552325D01*
X316261151Y-124302325D02*
X316201627Y-124242801D01*
X316142103Y-124302325D01*
X316201627Y-124361849D01*
X316261151Y-124302325D01*
X316142103Y-124302325D01*
X317392103Y-123468992D02*
X317392103Y-123349944D01*
X317332580Y-123230897D01*
X317273056Y-123171373D01*
X317154008Y-123111849D01*
X316915913Y-123052325D01*
X316618294Y-123052325D01*
X316380199Y-123111849D01*
X316261151Y-123171373D01*
X316201627Y-123230897D01*
X316142103Y-123349944D01*
X316142103Y-123468992D01*
X316201627Y-123588040D01*
X316261151Y-123647563D01*
X316380199Y-123707087D01*
X316618294Y-123766611D01*
X316915913Y-123766611D01*
X317154008Y-123707087D01*
X317273056Y-123647563D01*
X317332580Y-123588040D01*
X317392103Y-123468992D01*
D12*
X311683808Y-92159140D02*
X312206312Y-92159140D01*
X311683808Y-93579140D02*
X312206312Y-93579140D01*
X311773793Y-89977880D02*
X312116327Y-89977880D01*
X311773793Y-90997880D02*
X312116327Y-90997880D01*
M02*
