G04 #@! TF.GenerationSoftware,KiCad,Pcbnew,(5.1.4-0)*
G04 #@! TF.CreationDate,2021-10-30T16:00:39-05:00*
G04 #@! TF.ProjectId,bottom_plate,626f7474-6f6d-45f7-906c-6174652e6b69,rev?*
G04 #@! TF.SameCoordinates,Original*
G04 #@! TF.FileFunction,Legend,Top*
G04 #@! TF.FilePolarity,Positive*
%FSLAX46Y46*%
G04 Gerber Fmt 4.6, Leading zero omitted, Abs format (unit mm)*
G04 Created by KiCad (PCBNEW (5.1.4-0)) date 2021-10-30 16:00:39*
%MOMM*%
%LPD*%
G04 APERTURE LIST*
%ADD10C,0.150000*%
%ADD11C,0.200000*%
%ADD12C,0.120000*%
G04 APERTURE END LIST*
D10*
X307326237Y-99465090D02*
X307326237Y-100179376D01*
X307278618Y-100322233D01*
X307183380Y-100417471D01*
X307040523Y-100465090D01*
X306945285Y-100465090D01*
X308278618Y-100465090D02*
X307802427Y-100465090D01*
X307802427Y-99465090D01*
X309183380Y-100369852D02*
X309135761Y-100417471D01*
X308992904Y-100465090D01*
X308897665Y-100465090D01*
X308754808Y-100417471D01*
X308659570Y-100322233D01*
X308611951Y-100226995D01*
X308564332Y-100036519D01*
X308564332Y-99893662D01*
X308611951Y-99703186D01*
X308659570Y-99607948D01*
X308754808Y-99512710D01*
X308897665Y-99465090D01*
X308992904Y-99465090D01*
X309135761Y-99512710D01*
X309183380Y-99560329D01*
X309897665Y-99465090D02*
X309897665Y-100179376D01*
X309850046Y-100322233D01*
X309754808Y-100417471D01*
X309611951Y-100465090D01*
X309516713Y-100465090D01*
X310850046Y-100465090D02*
X310373856Y-100465090D01*
X310373856Y-99465090D01*
X311754808Y-100369852D02*
X311707189Y-100417471D01*
X311564332Y-100465090D01*
X311469094Y-100465090D01*
X311326237Y-100417471D01*
X311230999Y-100322233D01*
X311183380Y-100226995D01*
X311135761Y-100036519D01*
X311135761Y-99893662D01*
X311183380Y-99703186D01*
X311230999Y-99607948D01*
X311326237Y-99512710D01*
X311469094Y-99465090D01*
X311564332Y-99465090D01*
X311707189Y-99512710D01*
X311754808Y-99560329D01*
X312469094Y-99465090D02*
X312469094Y-100179376D01*
X312421475Y-100322233D01*
X312326237Y-100417471D01*
X312183380Y-100465090D01*
X312088142Y-100465090D01*
X313421475Y-100465090D02*
X312945285Y-100465090D01*
X312945285Y-99465090D01*
X314326237Y-100369852D02*
X314278618Y-100417471D01*
X314135761Y-100465090D01*
X314040523Y-100465090D01*
X313897665Y-100417471D01*
X313802427Y-100322233D01*
X313754808Y-100226995D01*
X313707189Y-100036519D01*
X313707189Y-99893662D01*
X313754808Y-99703186D01*
X313802427Y-99607948D01*
X313897665Y-99512710D01*
X314040523Y-99465090D01*
X314135761Y-99465090D01*
X314278618Y-99512710D01*
X314326237Y-99560329D01*
X315040523Y-99465090D02*
X315040523Y-100179376D01*
X314992904Y-100322233D01*
X314897665Y-100417471D01*
X314754808Y-100465090D01*
X314659570Y-100465090D01*
X315992904Y-100465090D02*
X315516713Y-100465090D01*
X315516713Y-99465090D01*
X316897665Y-100369852D02*
X316850046Y-100417471D01*
X316707189Y-100465090D01*
X316611951Y-100465090D01*
X316469094Y-100417471D01*
X316373856Y-100322233D01*
X316326237Y-100226995D01*
X316278618Y-100036519D01*
X316278618Y-99893662D01*
X316326237Y-99703186D01*
X316373856Y-99607948D01*
X316469094Y-99512710D01*
X316611951Y-99465090D01*
X316707189Y-99465090D01*
X316850046Y-99512710D01*
X316897665Y-99560329D01*
D11*
X188151237Y-183683688D02*
X188151237Y-184695593D01*
X188091713Y-184814641D01*
X188032189Y-184874165D01*
X187913142Y-184933688D01*
X187734570Y-184933688D01*
X187615523Y-184874165D01*
X188151237Y-184457498D02*
X188032189Y-184517022D01*
X187794094Y-184517022D01*
X187675046Y-184457498D01*
X187615523Y-184397974D01*
X187555999Y-184278926D01*
X187555999Y-183921784D01*
X187615523Y-183802736D01*
X187675046Y-183743212D01*
X187794094Y-183683688D01*
X188032189Y-183683688D01*
X188151237Y-183743212D01*
X188746475Y-184517022D02*
X188746475Y-183683688D01*
X188746475Y-183267022D02*
X188686951Y-183326546D01*
X188746475Y-183386069D01*
X188805999Y-183326546D01*
X188746475Y-183267022D01*
X188746475Y-183386069D01*
X189163142Y-183683688D02*
X189639332Y-183683688D01*
X189341713Y-183267022D02*
X189341713Y-184338450D01*
X189401237Y-184457498D01*
X189520285Y-184517022D01*
X189639332Y-184517022D01*
X190055999Y-184517022D02*
X190055999Y-183267022D01*
X190591713Y-184517022D02*
X190591713Y-183862260D01*
X190532189Y-183743212D01*
X190413142Y-183683688D01*
X190234570Y-183683688D01*
X190115523Y-183743212D01*
X190055999Y-183802736D01*
X191722665Y-183683688D02*
X191722665Y-184517022D01*
X191186951Y-183683688D02*
X191186951Y-184338450D01*
X191246475Y-184457498D01*
X191365523Y-184517022D01*
X191544094Y-184517022D01*
X191663142Y-184457498D01*
X191722665Y-184397974D01*
X192317904Y-184517022D02*
X192317904Y-183267022D01*
X192317904Y-183743212D02*
X192436951Y-183683688D01*
X192675046Y-183683688D01*
X192794094Y-183743212D01*
X192853618Y-183802736D01*
X192913142Y-183921784D01*
X192913142Y-184278926D01*
X192853618Y-184397974D01*
X192794094Y-184457498D01*
X192675046Y-184517022D01*
X192436951Y-184517022D01*
X192317904Y-184457498D01*
X193448856Y-184397974D02*
X193508380Y-184457498D01*
X193448856Y-184517022D01*
X193389332Y-184457498D01*
X193448856Y-184397974D01*
X193448856Y-184517022D01*
X194579808Y-184457498D02*
X194460761Y-184517022D01*
X194222665Y-184517022D01*
X194103618Y-184457498D01*
X194044094Y-184397974D01*
X193984570Y-184278926D01*
X193984570Y-183921784D01*
X194044094Y-183802736D01*
X194103618Y-183743212D01*
X194222665Y-183683688D01*
X194460761Y-183683688D01*
X194579808Y-183743212D01*
X195294094Y-184517022D02*
X195175046Y-184457498D01*
X195115523Y-184397974D01*
X195055999Y-184278926D01*
X195055999Y-183921784D01*
X195115523Y-183802736D01*
X195175046Y-183743212D01*
X195294094Y-183683688D01*
X195472665Y-183683688D01*
X195591713Y-183743212D01*
X195651237Y-183802736D01*
X195710761Y-183921784D01*
X195710761Y-184278926D01*
X195651237Y-184397974D01*
X195591713Y-184457498D01*
X195472665Y-184517022D01*
X195294094Y-184517022D01*
X196246475Y-184517022D02*
X196246475Y-183683688D01*
X196246475Y-183802736D02*
X196305999Y-183743212D01*
X196425046Y-183683688D01*
X196603618Y-183683688D01*
X196722665Y-183743212D01*
X196782189Y-183862260D01*
X196782189Y-184517022D01*
X196782189Y-183862260D02*
X196841713Y-183743212D01*
X196960761Y-183683688D01*
X197139332Y-183683688D01*
X197258380Y-183743212D01*
X197317904Y-183862260D01*
X197317904Y-184517022D01*
X198805999Y-183207498D02*
X197734570Y-184814641D01*
X199758380Y-184517022D02*
X199758380Y-183267022D01*
X199758380Y-184457498D02*
X199639332Y-184517022D01*
X199401237Y-184517022D01*
X199282189Y-184457498D01*
X199222665Y-184397974D01*
X199163142Y-184278926D01*
X199163142Y-183921784D01*
X199222665Y-183802736D01*
X199282189Y-183743212D01*
X199401237Y-183683688D01*
X199639332Y-183683688D01*
X199758380Y-183743212D01*
X200353618Y-184517022D02*
X200353618Y-183683688D01*
X200353618Y-183267022D02*
X200294094Y-183326546D01*
X200353618Y-183386069D01*
X200413142Y-183326546D01*
X200353618Y-183267022D01*
X200353618Y-183386069D01*
X201425046Y-184457498D02*
X201305999Y-184517022D01*
X201067904Y-184517022D01*
X200948856Y-184457498D01*
X200889332Y-184338450D01*
X200889332Y-183862260D01*
X200948856Y-183743212D01*
X201067904Y-183683688D01*
X201305999Y-183683688D01*
X201425046Y-183743212D01*
X201484570Y-183862260D01*
X201484570Y-183981307D01*
X200889332Y-184100355D01*
X202020285Y-184517022D02*
X202020285Y-183683688D01*
X202020285Y-183921784D02*
X202079808Y-183802736D01*
X202139332Y-183743212D01*
X202258380Y-183683688D01*
X202377427Y-183683688D01*
X202794094Y-184517022D02*
X202794094Y-183683688D01*
X202794094Y-183267022D02*
X202734570Y-183326546D01*
X202794094Y-183386069D01*
X202853618Y-183326546D01*
X202794094Y-183267022D01*
X202794094Y-183386069D01*
X203925046Y-184457498D02*
X203805999Y-184517022D01*
X203567904Y-184517022D01*
X203448856Y-184457498D01*
X203389332Y-184397974D01*
X203329808Y-184278926D01*
X203329808Y-183921784D01*
X203389332Y-183802736D01*
X203448856Y-183743212D01*
X203567904Y-183683688D01*
X203805999Y-183683688D01*
X203925046Y-183743212D01*
X204460761Y-184517022D02*
X204460761Y-183267022D01*
X204579808Y-184040831D02*
X204936951Y-184517022D01*
X204936951Y-183683688D02*
X204460761Y-184159879D01*
X206008380Y-184517022D02*
X206008380Y-183267022D01*
X206008380Y-184457498D02*
X205889332Y-184517022D01*
X205651237Y-184517022D01*
X205532189Y-184457498D01*
X205472665Y-184397974D01*
X205413142Y-184278926D01*
X205413142Y-183921784D01*
X205472665Y-183802736D01*
X205532189Y-183743212D01*
X205651237Y-183683688D01*
X205889332Y-183683688D01*
X206008380Y-183743212D01*
X206603618Y-184517022D02*
X206603618Y-183683688D01*
X206603618Y-183267022D02*
X206544094Y-183326546D01*
X206603618Y-183386069D01*
X206663142Y-183326546D01*
X206603618Y-183267022D01*
X206603618Y-183386069D01*
X207675046Y-184457498D02*
X207555999Y-184517022D01*
X207317904Y-184517022D01*
X207198856Y-184457498D01*
X207139332Y-184338450D01*
X207139332Y-183862260D01*
X207198856Y-183743212D01*
X207317904Y-183683688D01*
X207555999Y-183683688D01*
X207675046Y-183743212D01*
X207734570Y-183862260D01*
X207734570Y-183981307D01*
X207139332Y-184100355D01*
X192169094Y-186064938D02*
X192169094Y-186898272D01*
X192169094Y-186183986D02*
X192228618Y-186124462D01*
X192347665Y-186064938D01*
X192526237Y-186064938D01*
X192645285Y-186124462D01*
X192704808Y-186243510D01*
X192704808Y-186898272D01*
X193300046Y-186898272D02*
X193300046Y-186064938D01*
X193300046Y-185648272D02*
X193240523Y-185707796D01*
X193300046Y-185767319D01*
X193359570Y-185707796D01*
X193300046Y-185648272D01*
X193300046Y-185767319D01*
X193895285Y-186898272D02*
X193895285Y-185648272D01*
X194014332Y-186422081D02*
X194371475Y-186898272D01*
X194371475Y-186064938D02*
X193895285Y-186541129D01*
X195085761Y-186898272D02*
X194966713Y-186838748D01*
X194907189Y-186779224D01*
X194847665Y-186660176D01*
X194847665Y-186303034D01*
X194907189Y-186183986D01*
X194966713Y-186124462D01*
X195085761Y-186064938D01*
X195264332Y-186064938D01*
X195383380Y-186124462D01*
X195442904Y-186183986D01*
X195502427Y-186303034D01*
X195502427Y-186660176D01*
X195442904Y-186779224D01*
X195383380Y-186838748D01*
X195264332Y-186898272D01*
X195085761Y-186898272D01*
X196990523Y-186898272D02*
X196990523Y-186064938D01*
X196990523Y-186303034D02*
X197050046Y-186183986D01*
X197109570Y-186124462D01*
X197228618Y-186064938D01*
X197347665Y-186064938D01*
X198240523Y-186838748D02*
X198121475Y-186898272D01*
X197883380Y-186898272D01*
X197764332Y-186838748D01*
X197704808Y-186719700D01*
X197704808Y-186243510D01*
X197764332Y-186124462D01*
X197883380Y-186064938D01*
X198121475Y-186064938D01*
X198240523Y-186124462D01*
X198300046Y-186243510D01*
X198300046Y-186362557D01*
X197704808Y-186481605D01*
X198716713Y-186064938D02*
X199014332Y-186898272D01*
X199311951Y-186064938D01*
X201395285Y-186898272D02*
X200680999Y-186898272D01*
X201038142Y-186898272D02*
X201038142Y-185648272D01*
X200919094Y-185826843D01*
X200800046Y-185945891D01*
X200680999Y-186005415D01*
X201930999Y-186779224D02*
X201990523Y-186838748D01*
X201930999Y-186898272D01*
X201871475Y-186838748D01*
X201930999Y-186779224D01*
X201930999Y-186898272D01*
X202764332Y-185648272D02*
X202883380Y-185648272D01*
X203002427Y-185707796D01*
X203061951Y-185767319D01*
X203121475Y-185886367D01*
X203180999Y-186124462D01*
X203180999Y-186422081D01*
X203121475Y-186660176D01*
X203061951Y-186779224D01*
X203002427Y-186838748D01*
X202883380Y-186898272D01*
X202764332Y-186898272D01*
X202645285Y-186838748D01*
X202585761Y-186779224D01*
X202526237Y-186660176D01*
X202466713Y-186422081D01*
X202466713Y-186124462D01*
X202526237Y-185886367D01*
X202585761Y-185767319D01*
X202645285Y-185707796D01*
X202764332Y-185648272D01*
D12*
X321641552Y-99502626D02*
X321299018Y-99502626D01*
X321641552Y-100522626D02*
X321299018Y-100522626D01*
M02*
