G04 #@! TF.GenerationSoftware,KiCad,Pcbnew,(5.1.4-0)*
G04 #@! TF.CreationDate,2021-10-13T07:22:11-05:00*
G04 #@! TF.ProjectId,niko_top_plate,6e696b6f-5f74-46f7-905f-706c6174652e,rev?*
G04 #@! TF.SameCoordinates,Original*
G04 #@! TF.FileFunction,Copper,L2,Bot*
G04 #@! TF.FilePolarity,Positive*
%FSLAX46Y46*%
G04 Gerber Fmt 4.6, Leading zero omitted, Abs format (unit mm)*
G04 Created by KiCad (PCBNEW (5.1.4-0)) date 2021-10-13 07:22:11*
%MOMM*%
%LPD*%
G04 APERTURE LIST*
%ADD10C,0.100000*%
%ADD11C,1.150000*%
%ADD12C,0.950000*%
%ADD13C,3.500000*%
%ADD14C,0.500000*%
%ADD15C,0.250000*%
%ADD16C,0.254000*%
G04 APERTURE END LIST*
D10*
G36*
X313319565Y-92170344D02*
G01*
X313343833Y-92173944D01*
X313367632Y-92179905D01*
X313390731Y-92188170D01*
X313412910Y-92198660D01*
X313433953Y-92211272D01*
X313453659Y-92225887D01*
X313471837Y-92242363D01*
X313488313Y-92260541D01*
X313502928Y-92280247D01*
X313515540Y-92301290D01*
X313526030Y-92323469D01*
X313534295Y-92346568D01*
X313540256Y-92370367D01*
X313543856Y-92394635D01*
X313545060Y-92419139D01*
X313545060Y-93319141D01*
X313543856Y-93343645D01*
X313540256Y-93367913D01*
X313534295Y-93391712D01*
X313526030Y-93414811D01*
X313515540Y-93436990D01*
X313502928Y-93458033D01*
X313488313Y-93477739D01*
X313471837Y-93495917D01*
X313453659Y-93512393D01*
X313433953Y-93527008D01*
X313412910Y-93539620D01*
X313390731Y-93550110D01*
X313367632Y-93558375D01*
X313343833Y-93564336D01*
X313319565Y-93567936D01*
X313295061Y-93569140D01*
X312645059Y-93569140D01*
X312620555Y-93567936D01*
X312596287Y-93564336D01*
X312572488Y-93558375D01*
X312549389Y-93550110D01*
X312527210Y-93539620D01*
X312506167Y-93527008D01*
X312486461Y-93512393D01*
X312468283Y-93495917D01*
X312451807Y-93477739D01*
X312437192Y-93458033D01*
X312424580Y-93436990D01*
X312414090Y-93414811D01*
X312405825Y-93391712D01*
X312399864Y-93367913D01*
X312396264Y-93343645D01*
X312395060Y-93319141D01*
X312395060Y-92419139D01*
X312396264Y-92394635D01*
X312399864Y-92370367D01*
X312405825Y-92346568D01*
X312414090Y-92323469D01*
X312424580Y-92301290D01*
X312437192Y-92280247D01*
X312451807Y-92260541D01*
X312468283Y-92242363D01*
X312486461Y-92225887D01*
X312506167Y-92211272D01*
X312527210Y-92198660D01*
X312549389Y-92188170D01*
X312572488Y-92179905D01*
X312596287Y-92173944D01*
X312620555Y-92170344D01*
X312645059Y-92169140D01*
X313295061Y-92169140D01*
X313319565Y-92170344D01*
X313319565Y-92170344D01*
G37*
D11*
X312970060Y-92869140D03*
D10*
G36*
X311269565Y-92170344D02*
G01*
X311293833Y-92173944D01*
X311317632Y-92179905D01*
X311340731Y-92188170D01*
X311362910Y-92198660D01*
X311383953Y-92211272D01*
X311403659Y-92225887D01*
X311421837Y-92242363D01*
X311438313Y-92260541D01*
X311452928Y-92280247D01*
X311465540Y-92301290D01*
X311476030Y-92323469D01*
X311484295Y-92346568D01*
X311490256Y-92370367D01*
X311493856Y-92394635D01*
X311495060Y-92419139D01*
X311495060Y-93319141D01*
X311493856Y-93343645D01*
X311490256Y-93367913D01*
X311484295Y-93391712D01*
X311476030Y-93414811D01*
X311465540Y-93436990D01*
X311452928Y-93458033D01*
X311438313Y-93477739D01*
X311421837Y-93495917D01*
X311403659Y-93512393D01*
X311383953Y-93527008D01*
X311362910Y-93539620D01*
X311340731Y-93550110D01*
X311317632Y-93558375D01*
X311293833Y-93564336D01*
X311269565Y-93567936D01*
X311245061Y-93569140D01*
X310595059Y-93569140D01*
X310570555Y-93567936D01*
X310546287Y-93564336D01*
X310522488Y-93558375D01*
X310499389Y-93550110D01*
X310477210Y-93539620D01*
X310456167Y-93527008D01*
X310436461Y-93512393D01*
X310418283Y-93495917D01*
X310401807Y-93477739D01*
X310387192Y-93458033D01*
X310374580Y-93436990D01*
X310364090Y-93414811D01*
X310355825Y-93391712D01*
X310349864Y-93367913D01*
X310346264Y-93343645D01*
X310345060Y-93319141D01*
X310345060Y-92419139D01*
X310346264Y-92394635D01*
X310349864Y-92370367D01*
X310355825Y-92346568D01*
X310364090Y-92323469D01*
X310374580Y-92301290D01*
X310387192Y-92280247D01*
X310401807Y-92260541D01*
X310418283Y-92242363D01*
X310436461Y-92225887D01*
X310456167Y-92211272D01*
X310477210Y-92198660D01*
X310499389Y-92188170D01*
X310522488Y-92179905D01*
X310546287Y-92173944D01*
X310570555Y-92170344D01*
X310595059Y-92169140D01*
X311245061Y-92169140D01*
X311269565Y-92170344D01*
X311269565Y-92170344D01*
G37*
D11*
X310920060Y-92869140D03*
D10*
G36*
X313130839Y-90014024D02*
G01*
X313153894Y-90017443D01*
X313176503Y-90023107D01*
X313198447Y-90030959D01*
X313219517Y-90040924D01*
X313239508Y-90052906D01*
X313258228Y-90066790D01*
X313275498Y-90082442D01*
X313291150Y-90099712D01*
X313305034Y-90118432D01*
X313317016Y-90138423D01*
X313326981Y-90159493D01*
X313334833Y-90181437D01*
X313340497Y-90204046D01*
X313343916Y-90227101D01*
X313345060Y-90250380D01*
X313345060Y-90725380D01*
X313343916Y-90748659D01*
X313340497Y-90771714D01*
X313334833Y-90794323D01*
X313326981Y-90816267D01*
X313317016Y-90837337D01*
X313305034Y-90857328D01*
X313291150Y-90876048D01*
X313275498Y-90893318D01*
X313258228Y-90908970D01*
X313239508Y-90922854D01*
X313219517Y-90934836D01*
X313198447Y-90944801D01*
X313176503Y-90952653D01*
X313153894Y-90958317D01*
X313130839Y-90961736D01*
X313107560Y-90962880D01*
X312532560Y-90962880D01*
X312509281Y-90961736D01*
X312486226Y-90958317D01*
X312463617Y-90952653D01*
X312441673Y-90944801D01*
X312420603Y-90934836D01*
X312400612Y-90922854D01*
X312381892Y-90908970D01*
X312364622Y-90893318D01*
X312348970Y-90876048D01*
X312335086Y-90857328D01*
X312323104Y-90837337D01*
X312313139Y-90816267D01*
X312305287Y-90794323D01*
X312299623Y-90771714D01*
X312296204Y-90748659D01*
X312295060Y-90725380D01*
X312295060Y-90250380D01*
X312296204Y-90227101D01*
X312299623Y-90204046D01*
X312305287Y-90181437D01*
X312313139Y-90159493D01*
X312323104Y-90138423D01*
X312335086Y-90118432D01*
X312348970Y-90099712D01*
X312364622Y-90082442D01*
X312381892Y-90066790D01*
X312400612Y-90052906D01*
X312420603Y-90040924D01*
X312441673Y-90030959D01*
X312463617Y-90023107D01*
X312486226Y-90017443D01*
X312509281Y-90014024D01*
X312532560Y-90012880D01*
X313107560Y-90012880D01*
X313130839Y-90014024D01*
X313130839Y-90014024D01*
G37*
D12*
X312820060Y-90487880D03*
D10*
G36*
X311380839Y-90014024D02*
G01*
X311403894Y-90017443D01*
X311426503Y-90023107D01*
X311448447Y-90030959D01*
X311469517Y-90040924D01*
X311489508Y-90052906D01*
X311508228Y-90066790D01*
X311525498Y-90082442D01*
X311541150Y-90099712D01*
X311555034Y-90118432D01*
X311567016Y-90138423D01*
X311576981Y-90159493D01*
X311584833Y-90181437D01*
X311590497Y-90204046D01*
X311593916Y-90227101D01*
X311595060Y-90250380D01*
X311595060Y-90725380D01*
X311593916Y-90748659D01*
X311590497Y-90771714D01*
X311584833Y-90794323D01*
X311576981Y-90816267D01*
X311567016Y-90837337D01*
X311555034Y-90857328D01*
X311541150Y-90876048D01*
X311525498Y-90893318D01*
X311508228Y-90908970D01*
X311489508Y-90922854D01*
X311469517Y-90934836D01*
X311448447Y-90944801D01*
X311426503Y-90952653D01*
X311403894Y-90958317D01*
X311380839Y-90961736D01*
X311357560Y-90962880D01*
X310782560Y-90962880D01*
X310759281Y-90961736D01*
X310736226Y-90958317D01*
X310713617Y-90952653D01*
X310691673Y-90944801D01*
X310670603Y-90934836D01*
X310650612Y-90922854D01*
X310631892Y-90908970D01*
X310614622Y-90893318D01*
X310598970Y-90876048D01*
X310585086Y-90857328D01*
X310573104Y-90837337D01*
X310563139Y-90816267D01*
X310555287Y-90794323D01*
X310549623Y-90771714D01*
X310546204Y-90748659D01*
X310545060Y-90725380D01*
X310545060Y-90250380D01*
X310546204Y-90227101D01*
X310549623Y-90204046D01*
X310555287Y-90181437D01*
X310563139Y-90159493D01*
X310573104Y-90138423D01*
X310585086Y-90118432D01*
X310598970Y-90099712D01*
X310614622Y-90082442D01*
X310631892Y-90066790D01*
X310650612Y-90052906D01*
X310670603Y-90040924D01*
X310691673Y-90030959D01*
X310713617Y-90023107D01*
X310736226Y-90017443D01*
X310759281Y-90014024D01*
X310782560Y-90012880D01*
X311357560Y-90012880D01*
X311380839Y-90014024D01*
X311380839Y-90014024D01*
G37*
D12*
X311070060Y-90487880D03*
D13*
X73819060Y-79176893D03*
X73819060Y-177999187D03*
X150019380Y-73223743D03*
X161926392Y-179784702D03*
X235744740Y-73223743D03*
X223839154Y-179784476D03*
X311945060Y-79176893D03*
X311945060Y-177998755D03*
D14*
X308373170Y-91526830D03*
D15*
X310920060Y-92869140D02*
X309186090Y-92869140D01*
X308373170Y-92056220D02*
X309186090Y-92869140D01*
X311070060Y-90487880D02*
X309058460Y-90487880D01*
X309058460Y-90487880D02*
X308373170Y-91173170D01*
X308373170Y-91173170D02*
X308373170Y-91526830D01*
X308373170Y-91526830D02*
X308373170Y-92056220D01*
D16*
G36*
X236162322Y-71034685D02*
G01*
X236579564Y-71157485D01*
X236965002Y-71358989D01*
X237303959Y-71631517D01*
X237583532Y-71964698D01*
X237793062Y-72345832D01*
X237924572Y-72760404D01*
X237973828Y-73199527D01*
X237974001Y-73224363D01*
X237974426Y-75002170D01*
X237973694Y-75009606D01*
X237974430Y-75017080D01*
X237974430Y-75017104D01*
X237975186Y-75024763D01*
X237976628Y-75039402D01*
X237976635Y-75039424D01*
X237976636Y-75039438D01*
X237979975Y-75050435D01*
X237985319Y-75068054D01*
X237985330Y-75068074D01*
X237985334Y-75068088D01*
X237991226Y-75079106D01*
X237999433Y-75094460D01*
X237999446Y-75094475D01*
X237999454Y-75094491D01*
X238008724Y-75105781D01*
X238018428Y-75117605D01*
X238018442Y-75117617D01*
X238018454Y-75117631D01*
X238030309Y-75127356D01*
X238041573Y-75136600D01*
X238041588Y-75136608D01*
X238041604Y-75136621D01*
X238055204Y-75143886D01*
X238067979Y-75150714D01*
X238067997Y-75150719D01*
X238068013Y-75150728D01*
X238084003Y-75155575D01*
X238096631Y-75159405D01*
X238096645Y-75159406D01*
X238096667Y-75159413D01*
X238113240Y-75161041D01*
X238118966Y-75161605D01*
X238118982Y-75161605D01*
X238126464Y-75162340D01*
X238133907Y-75161605D01*
X263066271Y-75161690D01*
X265397730Y-77493150D01*
X265402490Y-77498950D01*
X265425635Y-77517945D01*
X265452041Y-77532059D01*
X265472001Y-77538113D01*
X265480692Y-77540750D01*
X265483604Y-77541037D01*
X265503028Y-77542950D01*
X265503035Y-77542950D01*
X265510489Y-77543684D01*
X265517944Y-77542950D01*
X282097963Y-77542950D01*
X284430008Y-81041019D01*
X284433576Y-81047695D01*
X284442563Y-81058646D01*
X284452457Y-81070727D01*
X284452522Y-81070781D01*
X284452571Y-81070840D01*
X284463581Y-81079876D01*
X284475582Y-81089746D01*
X284475656Y-81089785D01*
X284475716Y-81089835D01*
X284488315Y-81096569D01*
X284501973Y-81103888D01*
X284502054Y-81103913D01*
X284502122Y-81103949D01*
X284515803Y-81108099D01*
X284530616Y-81112609D01*
X284530699Y-81112617D01*
X284530774Y-81112640D01*
X284545316Y-81114072D01*
X284560410Y-81115575D01*
X284567953Y-81114840D01*
X309556329Y-81114735D01*
X309563800Y-81115471D01*
X309593597Y-81112536D01*
X309622249Y-81103845D01*
X309648655Y-81089731D01*
X309671800Y-81070736D01*
X309690795Y-81047591D01*
X309704909Y-81021185D01*
X309713600Y-80992533D01*
X309715800Y-80970198D01*
X309715800Y-80970190D01*
X309716534Y-80962736D01*
X309715800Y-80955284D01*
X309715800Y-79184332D01*
X309735911Y-78979221D01*
X309938060Y-78979221D01*
X309938060Y-79374565D01*
X310015188Y-79762313D01*
X310166480Y-80127564D01*
X310386121Y-80456281D01*
X310665672Y-80735832D01*
X310994389Y-80955473D01*
X311359640Y-81106765D01*
X311747388Y-81183893D01*
X312142732Y-81183893D01*
X312530480Y-81106765D01*
X312895731Y-80955473D01*
X313224448Y-80735832D01*
X313503999Y-80456281D01*
X313723640Y-80127564D01*
X313874932Y-79762313D01*
X313952060Y-79374565D01*
X313952060Y-78979221D01*
X313874932Y-78591473D01*
X313723640Y-78226222D01*
X313503999Y-77897505D01*
X313224448Y-77617954D01*
X312895731Y-77398313D01*
X312530480Y-77247021D01*
X312142732Y-77169893D01*
X311747388Y-77169893D01*
X311359640Y-77247021D01*
X310994389Y-77398313D01*
X310665672Y-77617954D01*
X310386121Y-77897505D01*
X310166480Y-78226222D01*
X310015188Y-78591473D01*
X309938060Y-78979221D01*
X309735911Y-78979221D01*
X309758972Y-78744036D01*
X309884680Y-78327668D01*
X310088868Y-77943644D01*
X310363759Y-77606595D01*
X310698881Y-77329358D01*
X311081473Y-77122491D01*
X311496952Y-76993879D01*
X311929503Y-76948416D01*
X312362642Y-76987835D01*
X312779884Y-77110635D01*
X313165322Y-77312139D01*
X313504279Y-77584667D01*
X313783852Y-77917848D01*
X313993382Y-78298982D01*
X314124892Y-78713554D01*
X314174148Y-79152677D01*
X314174320Y-79177381D01*
X314174321Y-80955264D01*
X314173585Y-80962736D01*
X314176520Y-80992533D01*
X314185211Y-81021185D01*
X314199325Y-81047591D01*
X314218320Y-81070736D01*
X314241465Y-81089731D01*
X314267871Y-81103845D01*
X314296523Y-81112536D01*
X314318858Y-81114736D01*
X314326320Y-81115471D01*
X314333782Y-81114736D01*
X319081557Y-81114736D01*
X319521852Y-81157908D01*
X319938222Y-81283617D01*
X320322242Y-81487804D01*
X320659291Y-81762694D01*
X320936523Y-82097811D01*
X321143390Y-82480404D01*
X321272003Y-82895882D01*
X321318205Y-83335465D01*
X321318100Y-83336527D01*
X321318249Y-173824115D01*
X321275076Y-174264420D01*
X321149367Y-174680790D01*
X320945179Y-175064811D01*
X320670290Y-175401859D01*
X320335173Y-175679091D01*
X319952580Y-175885958D01*
X319537102Y-176014571D01*
X319097393Y-176060786D01*
X319088753Y-176060816D01*
X314333782Y-176060816D01*
X314326320Y-176060081D01*
X314318858Y-176060816D01*
X314296523Y-176063016D01*
X314267871Y-176071707D01*
X314241465Y-176085821D01*
X314218320Y-176104816D01*
X314199325Y-176127961D01*
X314185211Y-176154367D01*
X314176520Y-176183019D01*
X314173585Y-176212816D01*
X314174321Y-176220288D01*
X314174320Y-177991316D01*
X314131148Y-178431613D01*
X314005438Y-178847984D01*
X313801250Y-179232006D01*
X313526361Y-179569052D01*
X313191239Y-179846290D01*
X312808646Y-180053158D01*
X312393168Y-180181769D01*
X311960618Y-180227232D01*
X311527477Y-180187813D01*
X311110236Y-180065013D01*
X310724799Y-179863510D01*
X310385841Y-179590981D01*
X310106270Y-179257802D01*
X309896739Y-178876667D01*
X309765228Y-178462095D01*
X309715972Y-178022971D01*
X309715800Y-177998267D01*
X309715800Y-177801083D01*
X309938060Y-177801083D01*
X309938060Y-178196427D01*
X310015188Y-178584175D01*
X310166480Y-178949426D01*
X310386121Y-179278143D01*
X310665672Y-179557694D01*
X310994389Y-179777335D01*
X311359640Y-179928627D01*
X311747388Y-180005755D01*
X312142732Y-180005755D01*
X312530480Y-179928627D01*
X312895731Y-179777335D01*
X313224448Y-179557694D01*
X313503999Y-179278143D01*
X313723640Y-178949426D01*
X313874932Y-178584175D01*
X313952060Y-178196427D01*
X313952060Y-177801083D01*
X313874932Y-177413335D01*
X313723640Y-177048084D01*
X313503999Y-176719367D01*
X313224448Y-176439816D01*
X312895731Y-176220175D01*
X312530480Y-176068883D01*
X312142732Y-175991755D01*
X311747388Y-175991755D01*
X311359640Y-176068883D01*
X310994389Y-176220175D01*
X310665672Y-176439816D01*
X310386121Y-176719367D01*
X310166480Y-177048084D01*
X310015188Y-177413335D01*
X309938060Y-177801083D01*
X309715800Y-177801083D01*
X309715800Y-176220702D01*
X309716535Y-176213240D01*
X309713600Y-176183443D01*
X309704909Y-176154791D01*
X309690795Y-176128385D01*
X309671800Y-176105240D01*
X309648655Y-176086245D01*
X309622249Y-176072131D01*
X309593597Y-176063440D01*
X309571262Y-176061240D01*
X309563800Y-176060505D01*
X309556338Y-176061240D01*
X284641918Y-176061240D01*
X282309881Y-172563186D01*
X282306305Y-172556495D01*
X282296240Y-172544231D01*
X282287422Y-172533464D01*
X282287365Y-172533417D01*
X282287310Y-172533350D01*
X282275039Y-172523279D01*
X282264298Y-172514445D01*
X282264231Y-172514409D01*
X282264165Y-172514355D01*
X282250441Y-172507020D01*
X282237907Y-172500303D01*
X282237833Y-172500280D01*
X282237759Y-172500241D01*
X282223247Y-172495839D01*
X282209263Y-172491581D01*
X282209183Y-172491573D01*
X282209107Y-172491550D01*
X282194375Y-172490099D01*
X282179469Y-172488615D01*
X282171927Y-172489350D01*
X265573450Y-172489350D01*
X263241993Y-170157894D01*
X263237235Y-170152096D01*
X263214091Y-170133100D01*
X263187686Y-170118984D01*
X263159034Y-170110292D01*
X263159033Y-170110292D01*
X263159027Y-170110290D01*
X263129230Y-170107355D01*
X263121766Y-170108090D01*
X251223658Y-170107484D01*
X251210648Y-170107155D01*
X251201356Y-170108760D01*
X251191977Y-170109683D01*
X251179537Y-170113456D01*
X225302825Y-177252786D01*
X225299466Y-177253076D01*
X225270710Y-177261418D01*
X225262265Y-177265800D01*
X225258054Y-177267421D01*
X225253066Y-177270574D01*
X225244134Y-177275209D01*
X225238128Y-177280016D01*
X225232745Y-177283419D01*
X225226711Y-177289154D01*
X225220759Y-177293919D01*
X225217004Y-177298382D01*
X225211044Y-177304048D01*
X225204842Y-177312840D01*
X225201484Y-177316831D01*
X225199562Y-177320324D01*
X225193784Y-177328514D01*
X225188461Y-177340497D01*
X225187049Y-177343063D01*
X225186373Y-177345198D01*
X225181629Y-177355877D01*
X225178273Y-177370771D01*
X225178008Y-177371607D01*
X225177934Y-177372274D01*
X225175047Y-177385086D01*
X225174289Y-177415017D01*
X225179384Y-177444521D01*
X225190139Y-177472464D01*
X225193628Y-177477984D01*
X225779540Y-178942765D01*
X225907116Y-179344971D01*
X225953099Y-179755008D01*
X225918562Y-180166172D01*
X225804821Y-180562795D01*
X225616208Y-180929775D01*
X225359909Y-181253127D01*
X225045687Y-181520538D01*
X224685506Y-181721825D01*
X224293083Y-181849319D01*
X223883380Y-181898163D01*
X223471983Y-181866498D01*
X223074574Y-181755529D01*
X222706293Y-181569485D01*
X222381157Y-181315448D01*
X222111556Y-181003096D01*
X221907352Y-180643611D01*
X221785219Y-180289262D01*
X221591603Y-179586804D01*
X221832154Y-179586804D01*
X221832154Y-179982148D01*
X221909282Y-180369896D01*
X222060574Y-180735147D01*
X222280215Y-181063864D01*
X222559766Y-181343415D01*
X222888483Y-181563056D01*
X223253734Y-181714348D01*
X223641482Y-181791476D01*
X224036826Y-181791476D01*
X224424574Y-181714348D01*
X224789825Y-181563056D01*
X225118542Y-181343415D01*
X225398093Y-181063864D01*
X225617734Y-180735147D01*
X225769026Y-180369896D01*
X225846154Y-179982148D01*
X225846154Y-179586804D01*
X225769026Y-179199056D01*
X225617734Y-178833805D01*
X225398093Y-178505088D01*
X225118542Y-178225537D01*
X224789825Y-178005896D01*
X224424574Y-177854604D01*
X224036826Y-177777476D01*
X223641482Y-177777476D01*
X223253734Y-177854604D01*
X222888483Y-178005896D01*
X222559766Y-178225537D01*
X222280215Y-178505088D01*
X222060574Y-178833805D01*
X221909282Y-179199056D01*
X221832154Y-179586804D01*
X221591603Y-179586804D01*
X221304802Y-178546270D01*
X221296747Y-178525322D01*
X221280755Y-178500009D01*
X221260132Y-178478303D01*
X221235669Y-178461037D01*
X221208309Y-178448875D01*
X221179102Y-178442285D01*
X221149172Y-178441520D01*
X221119666Y-178446608D01*
X221108996Y-178450711D01*
X203574092Y-183205020D01*
X182186641Y-183205020D01*
X164652948Y-178449201D01*
X164646236Y-178446620D01*
X164638535Y-178445292D01*
X164638240Y-178445212D01*
X164631255Y-178444037D01*
X164616730Y-178441532D01*
X164616417Y-178441540D01*
X164616108Y-178441488D01*
X164601422Y-178441924D01*
X164586799Y-178442298D01*
X164586495Y-178442367D01*
X164586181Y-178442376D01*
X164571849Y-178445671D01*
X164557592Y-178448888D01*
X164557307Y-178449015D01*
X164557001Y-178449085D01*
X164543531Y-178455138D01*
X164530232Y-178461050D01*
X164529979Y-178461229D01*
X164529691Y-178461358D01*
X164517776Y-178469841D01*
X164505769Y-178478315D01*
X164505551Y-178478545D01*
X164505299Y-178478724D01*
X164495338Y-178489294D01*
X164485146Y-178500022D01*
X164484978Y-178500288D01*
X164484765Y-178500514D01*
X164477115Y-178512734D01*
X164469154Y-178525334D01*
X164469039Y-178525633D01*
X164468877Y-178525892D01*
X164463763Y-178539354D01*
X164461099Y-178546282D01*
X164461014Y-178546590D01*
X164458244Y-178553882D01*
X164457053Y-178560963D01*
X163980900Y-180288488D01*
X163839121Y-180685855D01*
X163627620Y-181040141D01*
X163351335Y-181346596D01*
X163020791Y-181593548D01*
X162648578Y-181771594D01*
X162248858Y-181873956D01*
X161836881Y-181896727D01*
X161428329Y-181839046D01*
X161038746Y-181703103D01*
X160683005Y-181494088D01*
X160374623Y-181219945D01*
X160125370Y-180891135D01*
X159944728Y-180520168D01*
X159839580Y-180121180D01*
X159813932Y-179709370D01*
X159830334Y-179587030D01*
X159919392Y-179587030D01*
X159919392Y-179982374D01*
X159996520Y-180370122D01*
X160147812Y-180735373D01*
X160367453Y-181064090D01*
X160647004Y-181343641D01*
X160975721Y-181563282D01*
X161340972Y-181714574D01*
X161728720Y-181791702D01*
X162124064Y-181791702D01*
X162511812Y-181714574D01*
X162877063Y-181563282D01*
X163205780Y-181343641D01*
X163485331Y-181064090D01*
X163704972Y-180735373D01*
X163856264Y-180370122D01*
X163933392Y-179982374D01*
X163933392Y-179587030D01*
X163856264Y-179199282D01*
X163704972Y-178834031D01*
X163485331Y-178505314D01*
X163205780Y-178225763D01*
X162877063Y-178006122D01*
X162511812Y-177854830D01*
X162124064Y-177777702D01*
X161728720Y-177777702D01*
X161340972Y-177854830D01*
X160975721Y-178006122D01*
X160647004Y-178225763D01*
X160367453Y-178505314D01*
X160147812Y-178834031D01*
X159996520Y-179199282D01*
X159919392Y-179587030D01*
X159830334Y-179587030D01*
X159868872Y-179299597D01*
X159986059Y-178943535D01*
X160574413Y-177472648D01*
X160574952Y-177471795D01*
X160579961Y-177458777D01*
X160582367Y-177452763D01*
X160582647Y-177451798D01*
X160585705Y-177443851D01*
X160586811Y-177437446D01*
X160588620Y-177431209D01*
X160589351Y-177422732D01*
X160590798Y-177414347D01*
X160590633Y-177407850D01*
X160591191Y-177401378D01*
X160590255Y-177392929D01*
X160590039Y-177384415D01*
X160588609Y-177378072D01*
X160587894Y-177371619D01*
X160585327Y-177363514D01*
X160583454Y-177355207D01*
X160580813Y-177349262D01*
X160578853Y-177343075D01*
X160574756Y-177335631D01*
X160571297Y-177327844D01*
X160567546Y-177322528D01*
X160564418Y-177316843D01*
X160558947Y-177310340D01*
X160554036Y-177303379D01*
X160549323Y-177298899D01*
X160545143Y-177293931D01*
X160538503Y-177288616D01*
X160532333Y-177282752D01*
X160526836Y-177279277D01*
X160521768Y-177275221D01*
X160514224Y-177271306D01*
X160507024Y-177266755D01*
X160500956Y-177264420D01*
X160495192Y-177261429D01*
X160487022Y-177259059D01*
X160486078Y-177258696D01*
X160479799Y-177256964D01*
X160466436Y-177253088D01*
X160465433Y-177253001D01*
X134583469Y-170114076D01*
X134570987Y-170110290D01*
X134561590Y-170109364D01*
X134552297Y-170107760D01*
X134539301Y-170108090D01*
X122642344Y-170108090D01*
X122634889Y-170107356D01*
X122627435Y-170108090D01*
X122627428Y-170108090D01*
X122608004Y-170110003D01*
X122605092Y-170110290D01*
X122596401Y-170112927D01*
X122576441Y-170118981D01*
X122550035Y-170133095D01*
X122526890Y-170152090D01*
X122522130Y-170157890D01*
X120190671Y-172489350D01*
X103592192Y-172489350D01*
X103584650Y-172488615D01*
X103569650Y-172490108D01*
X103555013Y-172491550D01*
X103554938Y-172491573D01*
X103554856Y-172491581D01*
X103540309Y-172496010D01*
X103526361Y-172500241D01*
X103526292Y-172500278D01*
X103526213Y-172500302D01*
X103512946Y-172507411D01*
X103499955Y-172514355D01*
X103499893Y-172514406D01*
X103499822Y-172514444D01*
X103488291Y-172523928D01*
X103476810Y-172533350D01*
X103476759Y-172533412D01*
X103476697Y-172533463D01*
X103467269Y-172544976D01*
X103457815Y-172556495D01*
X103454243Y-172563179D01*
X101122204Y-176061239D01*
X76207785Y-176060816D01*
X76200320Y-176060081D01*
X76170524Y-176063016D01*
X76141872Y-176071707D01*
X76115466Y-176085821D01*
X76092321Y-176104816D01*
X76091895Y-176105335D01*
X76073327Y-176127959D01*
X76059212Y-176154365D01*
X76050521Y-176183017D01*
X76047586Y-176212814D01*
X76048321Y-176220278D01*
X76048320Y-177991748D01*
X76005148Y-178432045D01*
X75879438Y-178848416D01*
X75675250Y-179232438D01*
X75400361Y-179569484D01*
X75065239Y-179846722D01*
X74682646Y-180053590D01*
X74267168Y-180182201D01*
X73834618Y-180227664D01*
X73401477Y-180188245D01*
X72984236Y-180065445D01*
X72598799Y-179863942D01*
X72259841Y-179591413D01*
X71980270Y-179258234D01*
X71770739Y-178877099D01*
X71639228Y-178462527D01*
X71589972Y-178023403D01*
X71589799Y-177998626D01*
X71589908Y-177801515D01*
X71812060Y-177801515D01*
X71812060Y-178196859D01*
X71889188Y-178584607D01*
X72040480Y-178949858D01*
X72260121Y-179278575D01*
X72539672Y-179558126D01*
X72868389Y-179777767D01*
X73233640Y-179929059D01*
X73621388Y-180006187D01*
X74016732Y-180006187D01*
X74404480Y-179929059D01*
X74769731Y-179777767D01*
X75098448Y-179558126D01*
X75377999Y-179278575D01*
X75597640Y-178949858D01*
X75748932Y-178584607D01*
X75826060Y-178196859D01*
X75826060Y-177801515D01*
X75748932Y-177413767D01*
X75597640Y-177048516D01*
X75377999Y-176719799D01*
X75098448Y-176440248D01*
X74769731Y-176220607D01*
X74404480Y-176069315D01*
X74016732Y-175992187D01*
X73621388Y-175992187D01*
X73233640Y-176069315D01*
X72868389Y-176220607D01*
X72539672Y-176440248D01*
X72260121Y-176719799D01*
X72040480Y-177048516D01*
X71889188Y-177413767D01*
X71812060Y-177801515D01*
X71589908Y-177801515D01*
X71590784Y-176220321D01*
X71591523Y-176212816D01*
X71590002Y-176197374D01*
X71588604Y-176183103D01*
X71588593Y-176183065D01*
X71588588Y-176183019D01*
X71583835Y-176167349D01*
X71579929Y-176154446D01*
X71579910Y-176154411D01*
X71579897Y-176154367D01*
X71572040Y-176139667D01*
X71565829Y-176128032D01*
X71565806Y-176128004D01*
X71565783Y-176127961D01*
X71554847Y-176114636D01*
X71546847Y-176104877D01*
X71546820Y-176104854D01*
X71546788Y-176104816D01*
X71533636Y-176094022D01*
X71523713Y-176085869D01*
X71523680Y-176085851D01*
X71523643Y-176085821D01*
X71509177Y-176078089D01*
X71497315Y-176071740D01*
X71497277Y-176071729D01*
X71497237Y-176071707D01*
X71481770Y-176067015D01*
X71468667Y-176063033D01*
X71468628Y-176063029D01*
X71468585Y-176063016D01*
X71452245Y-176061406D01*
X71438872Y-176060082D01*
X71431377Y-176060816D01*
X66683723Y-176060816D01*
X66243428Y-176017644D01*
X65827058Y-175891935D01*
X65443037Y-175687747D01*
X65105989Y-175412858D01*
X64828757Y-175077741D01*
X64621890Y-174695148D01*
X64493277Y-174279670D01*
X64447062Y-173839961D01*
X64447032Y-173831321D01*
X64447032Y-91476895D01*
X307866170Y-91476895D01*
X307866170Y-91576765D01*
X307885654Y-91674716D01*
X307923873Y-91766984D01*
X307979358Y-91850024D01*
X307991171Y-91861837D01*
X307991171Y-92037449D01*
X307989322Y-92056220D01*
X307996698Y-92131104D01*
X308018542Y-92203112D01*
X308054013Y-92269475D01*
X308101749Y-92327642D01*
X308116325Y-92339604D01*
X308902705Y-93125985D01*
X308914668Y-93140562D01*
X308972835Y-93188298D01*
X309039198Y-93223769D01*
X309089361Y-93238986D01*
X309111204Y-93245612D01*
X309186089Y-93252988D01*
X309204851Y-93251140D01*
X310086817Y-93251140D01*
X310086817Y-93319141D01*
X310096583Y-93418294D01*
X310125505Y-93513637D01*
X310172471Y-93601505D01*
X310235678Y-93678522D01*
X310312695Y-93741729D01*
X310400563Y-93788695D01*
X310495906Y-93817617D01*
X310595059Y-93827383D01*
X311245061Y-93827383D01*
X311344214Y-93817617D01*
X311439557Y-93788695D01*
X311527425Y-93741729D01*
X311604442Y-93678522D01*
X311667649Y-93601505D01*
X311714615Y-93513637D01*
X311743537Y-93418294D01*
X311753303Y-93319141D01*
X311753303Y-92419139D01*
X312136817Y-92419139D01*
X312136817Y-93319141D01*
X312146583Y-93418294D01*
X312175505Y-93513637D01*
X312222471Y-93601505D01*
X312285678Y-93678522D01*
X312362695Y-93741729D01*
X312450563Y-93788695D01*
X312545906Y-93817617D01*
X312645059Y-93827383D01*
X313295061Y-93827383D01*
X313394214Y-93817617D01*
X313489557Y-93788695D01*
X313577425Y-93741729D01*
X313654442Y-93678522D01*
X313717649Y-93601505D01*
X313764615Y-93513637D01*
X313793537Y-93418294D01*
X313803303Y-93319141D01*
X313803303Y-92419139D01*
X313793537Y-92319986D01*
X313764615Y-92224643D01*
X313717649Y-92136775D01*
X313654442Y-92059758D01*
X313577425Y-91996551D01*
X313489557Y-91949585D01*
X313394214Y-91920663D01*
X313295061Y-91910897D01*
X312645059Y-91910897D01*
X312545906Y-91920663D01*
X312450563Y-91949585D01*
X312362695Y-91996551D01*
X312285678Y-92059758D01*
X312222471Y-92136775D01*
X312175505Y-92224643D01*
X312146583Y-92319986D01*
X312136817Y-92419139D01*
X311753303Y-92419139D01*
X311743537Y-92319986D01*
X311714615Y-92224643D01*
X311667649Y-92136775D01*
X311604442Y-92059758D01*
X311527425Y-91996551D01*
X311439557Y-91949585D01*
X311344214Y-91920663D01*
X311245061Y-91910897D01*
X310595059Y-91910897D01*
X310495906Y-91920663D01*
X310400563Y-91949585D01*
X310312695Y-91996551D01*
X310235678Y-92059758D01*
X310172471Y-92136775D01*
X310125505Y-92224643D01*
X310096583Y-92319986D01*
X310086817Y-92419139D01*
X310086817Y-92487140D01*
X309344320Y-92487140D01*
X308755170Y-91897991D01*
X308755170Y-91861836D01*
X308766982Y-91850024D01*
X308822467Y-91766984D01*
X308860686Y-91674716D01*
X308880170Y-91576765D01*
X308880170Y-91476895D01*
X308860686Y-91378944D01*
X308822467Y-91286676D01*
X308813425Y-91273144D01*
X309216690Y-90869880D01*
X310310838Y-90869880D01*
X310324553Y-90915093D01*
X310370365Y-91000800D01*
X310432017Y-91075923D01*
X310507140Y-91137575D01*
X310592847Y-91183387D01*
X310685845Y-91211597D01*
X310782560Y-91221123D01*
X311357560Y-91221123D01*
X311454275Y-91211597D01*
X311547273Y-91183387D01*
X311632980Y-91137575D01*
X311708103Y-91075923D01*
X311769755Y-91000800D01*
X311815567Y-90915093D01*
X311843777Y-90822095D01*
X311853303Y-90725380D01*
X311853303Y-90250380D01*
X312036817Y-90250380D01*
X312036817Y-90725380D01*
X312046343Y-90822095D01*
X312074553Y-90915093D01*
X312120365Y-91000800D01*
X312182017Y-91075923D01*
X312257140Y-91137575D01*
X312342847Y-91183387D01*
X312435845Y-91211597D01*
X312532560Y-91221123D01*
X313107560Y-91221123D01*
X313204275Y-91211597D01*
X313297273Y-91183387D01*
X313382980Y-91137575D01*
X313458103Y-91075923D01*
X313519755Y-91000800D01*
X313565567Y-90915093D01*
X313593777Y-90822095D01*
X313603303Y-90725380D01*
X313603303Y-90250380D01*
X313593777Y-90153665D01*
X313565567Y-90060667D01*
X313519755Y-89974960D01*
X313458103Y-89899837D01*
X313382980Y-89838185D01*
X313297273Y-89792373D01*
X313204275Y-89764163D01*
X313107560Y-89754637D01*
X312532560Y-89754637D01*
X312435845Y-89764163D01*
X312342847Y-89792373D01*
X312257140Y-89838185D01*
X312182017Y-89899837D01*
X312120365Y-89974960D01*
X312074553Y-90060667D01*
X312046343Y-90153665D01*
X312036817Y-90250380D01*
X311853303Y-90250380D01*
X311843777Y-90153665D01*
X311815567Y-90060667D01*
X311769755Y-89974960D01*
X311708103Y-89899837D01*
X311632980Y-89838185D01*
X311547273Y-89792373D01*
X311454275Y-89764163D01*
X311357560Y-89754637D01*
X310782560Y-89754637D01*
X310685845Y-89764163D01*
X310592847Y-89792373D01*
X310507140Y-89838185D01*
X310432017Y-89899837D01*
X310370365Y-89974960D01*
X310324553Y-90060667D01*
X310310838Y-90105880D01*
X309077221Y-90105880D01*
X309058459Y-90104032D01*
X308983574Y-90111408D01*
X308961731Y-90118034D01*
X308911568Y-90133251D01*
X308845205Y-90168722D01*
X308787038Y-90216458D01*
X308775075Y-90231035D01*
X308116330Y-90889781D01*
X308101748Y-90901748D01*
X308054012Y-90959916D01*
X308018541Y-91026279D01*
X307996698Y-91098285D01*
X307996698Y-91098286D01*
X307989322Y-91173170D01*
X307991160Y-91191834D01*
X307979358Y-91203636D01*
X307923873Y-91286676D01*
X307885654Y-91378944D01*
X307866170Y-91476895D01*
X64447032Y-91476895D01*
X64447032Y-83351427D01*
X64490204Y-82911132D01*
X64615913Y-82494762D01*
X64820100Y-82110742D01*
X65094990Y-81773693D01*
X65430107Y-81496461D01*
X65812700Y-81289594D01*
X66228178Y-81160981D01*
X66667887Y-81114766D01*
X66668070Y-81114766D01*
X66668826Y-81114840D01*
X71431370Y-81114735D01*
X71438872Y-81115470D01*
X71453603Y-81114011D01*
X71468588Y-81112535D01*
X71468628Y-81112523D01*
X71468667Y-81112519D01*
X71482742Y-81108241D01*
X71497240Y-81103843D01*
X71497276Y-81103824D01*
X71497315Y-81103812D01*
X71510117Y-81096960D01*
X71523645Y-81089729D01*
X71523679Y-81089701D01*
X71523713Y-81089683D01*
X71534506Y-81080815D01*
X71546790Y-81070733D01*
X71546818Y-81070699D01*
X71546847Y-81070675D01*
X71555679Y-81059901D01*
X71565784Y-81047588D01*
X71565804Y-81047550D01*
X71565829Y-81047520D01*
X71572708Y-81034634D01*
X71579898Y-81021181D01*
X71579910Y-81021142D01*
X71579929Y-81021106D01*
X71584282Y-81006727D01*
X71588588Y-80992529D01*
X71588592Y-80992489D01*
X71588604Y-80992449D01*
X71590165Y-80976512D01*
X71591522Y-80962733D01*
X71590784Y-80955238D01*
X71589803Y-79184298D01*
X71609911Y-78979221D01*
X71812060Y-78979221D01*
X71812060Y-79374565D01*
X71889188Y-79762313D01*
X72040480Y-80127564D01*
X72260121Y-80456281D01*
X72539672Y-80735832D01*
X72868389Y-80955473D01*
X73233640Y-81106765D01*
X73621388Y-81183893D01*
X74016732Y-81183893D01*
X74404480Y-81106765D01*
X74769731Y-80955473D01*
X75098448Y-80735832D01*
X75377999Y-80456281D01*
X75597640Y-80127564D01*
X75748932Y-79762313D01*
X75826060Y-79374565D01*
X75826060Y-78979221D01*
X75748932Y-78591473D01*
X75597640Y-78226222D01*
X75377999Y-77897505D01*
X75098448Y-77617954D01*
X74769731Y-77398313D01*
X74404480Y-77247021D01*
X74016732Y-77169893D01*
X73621388Y-77169893D01*
X73233640Y-77247021D01*
X72868389Y-77398313D01*
X72539672Y-77617954D01*
X72260121Y-77897505D01*
X72040480Y-78226222D01*
X71889188Y-78591473D01*
X71812060Y-78979221D01*
X71609911Y-78979221D01*
X71632972Y-78744036D01*
X71758680Y-78327668D01*
X71962868Y-77943644D01*
X72237759Y-77606595D01*
X72572881Y-77329358D01*
X72955473Y-77122491D01*
X73370952Y-76993879D01*
X73803503Y-76948416D01*
X74236642Y-76987835D01*
X74653884Y-77110635D01*
X75039322Y-77312139D01*
X75378279Y-77584667D01*
X75657852Y-77917848D01*
X75867382Y-78298982D01*
X75998892Y-78713554D01*
X76048148Y-79152677D01*
X76048320Y-79177425D01*
X76049289Y-80955316D01*
X76048558Y-80962736D01*
X76049297Y-80970241D01*
X76049297Y-80970280D01*
X76049964Y-80977016D01*
X76051492Y-80992532D01*
X76051505Y-80992575D01*
X76051509Y-80992614D01*
X76055659Y-81006269D01*
X76060183Y-81021184D01*
X76060203Y-81021221D01*
X76060215Y-81021261D01*
X76066927Y-81033801D01*
X76074297Y-81047590D01*
X76074326Y-81047625D01*
X76074344Y-81047659D01*
X76083400Y-81058682D01*
X76093292Y-81070735D01*
X76093324Y-81070762D01*
X76093351Y-81070794D01*
X76104472Y-81079910D01*
X76116437Y-81089730D01*
X76116477Y-81089751D01*
X76116507Y-81089776D01*
X76129105Y-81096501D01*
X76142843Y-81103844D01*
X76142883Y-81103856D01*
X76142920Y-81103876D01*
X76157061Y-81108157D01*
X76171495Y-81112535D01*
X76171538Y-81112539D01*
X76171577Y-81112551D01*
X76186235Y-81113987D01*
X76193830Y-81114735D01*
X76193872Y-81114735D01*
X76201375Y-81115470D01*
X76208795Y-81114735D01*
X101196166Y-81114840D01*
X101203709Y-81115575D01*
X101218709Y-81114082D01*
X101233346Y-81112640D01*
X101233421Y-81112617D01*
X101233503Y-81112609D01*
X101247747Y-81108272D01*
X101261998Y-81103949D01*
X101262070Y-81103910D01*
X101262147Y-81103887D01*
X101275073Y-81096961D01*
X101288404Y-81089835D01*
X101288468Y-81089783D01*
X101288538Y-81089745D01*
X101299922Y-81080382D01*
X101311549Y-81070840D01*
X101311602Y-81070775D01*
X101311662Y-81070726D01*
X101321378Y-81058863D01*
X101330544Y-81047695D01*
X101334116Y-81041012D01*
X103666158Y-77542950D01*
X120246168Y-77542950D01*
X120253630Y-77543685D01*
X120283427Y-77540750D01*
X120312079Y-77532059D01*
X120338485Y-77517945D01*
X120361630Y-77498950D01*
X120366395Y-77493144D01*
X122697850Y-75161690D01*
X147630649Y-75161605D01*
X147638120Y-75162341D01*
X147667917Y-75159406D01*
X147696569Y-75150715D01*
X147722975Y-75136601D01*
X147746120Y-75117606D01*
X147765115Y-75094461D01*
X147779229Y-75068055D01*
X147787920Y-75039403D01*
X147790120Y-75017068D01*
X147790120Y-75017060D01*
X147790854Y-75009606D01*
X147790120Y-75002154D01*
X147790120Y-73231182D01*
X147810231Y-73026071D01*
X148012380Y-73026071D01*
X148012380Y-73421415D01*
X148089508Y-73809163D01*
X148240800Y-74174414D01*
X148460441Y-74503131D01*
X148739992Y-74782682D01*
X149068709Y-75002323D01*
X149433960Y-75153615D01*
X149821708Y-75230743D01*
X150217052Y-75230743D01*
X150604800Y-75153615D01*
X150970051Y-75002323D01*
X151298768Y-74782682D01*
X151578319Y-74503131D01*
X151797960Y-74174414D01*
X151949252Y-73809163D01*
X152026380Y-73421415D01*
X152026380Y-73026071D01*
X151949252Y-72638323D01*
X151797960Y-72273072D01*
X151578319Y-71944355D01*
X151298768Y-71664804D01*
X150970051Y-71445163D01*
X150604800Y-71293871D01*
X150217052Y-71216743D01*
X149821708Y-71216743D01*
X149433960Y-71293871D01*
X149068709Y-71445163D01*
X148739992Y-71664804D01*
X148460441Y-71944355D01*
X148240800Y-72273072D01*
X148089508Y-72638323D01*
X148012380Y-73026071D01*
X147810231Y-73026071D01*
X147833292Y-72790886D01*
X147959000Y-72374518D01*
X148163188Y-71990494D01*
X148438079Y-71653445D01*
X148773201Y-71376208D01*
X149155793Y-71169341D01*
X149571272Y-71040729D01*
X150003823Y-70995266D01*
X150436962Y-71034685D01*
X150854204Y-71157485D01*
X151239642Y-71358989D01*
X151578599Y-71631517D01*
X151858172Y-71964698D01*
X152067702Y-72345832D01*
X152199212Y-72760404D01*
X152248468Y-73199527D01*
X152248640Y-73224231D01*
X152248641Y-75002134D01*
X152247905Y-75009606D01*
X152250840Y-75039403D01*
X152259531Y-75068055D01*
X152273645Y-75094461D01*
X152292640Y-75117606D01*
X152315785Y-75136601D01*
X152342191Y-75150715D01*
X152370843Y-75159406D01*
X152393178Y-75161606D01*
X152400640Y-75162341D01*
X152408102Y-75161606D01*
X233356018Y-75161606D01*
X233363480Y-75162341D01*
X233393277Y-75159406D01*
X233421929Y-75150715D01*
X233448335Y-75136601D01*
X233471480Y-75117606D01*
X233490475Y-75094461D01*
X233504589Y-75068055D01*
X233513280Y-75039403D01*
X233515480Y-75017068D01*
X233516215Y-75009606D01*
X233515480Y-75002144D01*
X233515480Y-73231182D01*
X233535591Y-73026071D01*
X233737740Y-73026071D01*
X233737740Y-73421415D01*
X233814868Y-73809163D01*
X233966160Y-74174414D01*
X234185801Y-74503131D01*
X234465352Y-74782682D01*
X234794069Y-75002323D01*
X235159320Y-75153615D01*
X235547068Y-75230743D01*
X235942412Y-75230743D01*
X236330160Y-75153615D01*
X236695411Y-75002323D01*
X237024128Y-74782682D01*
X237303679Y-74503131D01*
X237523320Y-74174414D01*
X237674612Y-73809163D01*
X237751740Y-73421415D01*
X237751740Y-73026071D01*
X237674612Y-72638323D01*
X237523320Y-72273072D01*
X237303679Y-71944355D01*
X237024128Y-71664804D01*
X236695411Y-71445163D01*
X236330160Y-71293871D01*
X235942412Y-71216743D01*
X235547068Y-71216743D01*
X235159320Y-71293871D01*
X234794069Y-71445163D01*
X234465352Y-71664804D01*
X234185801Y-71944355D01*
X233966160Y-72273072D01*
X233814868Y-72638323D01*
X233737740Y-73026071D01*
X233535591Y-73026071D01*
X233558652Y-72790886D01*
X233684360Y-72374518D01*
X233888548Y-71990494D01*
X234163439Y-71653445D01*
X234498561Y-71376208D01*
X234881153Y-71169341D01*
X235296632Y-71040729D01*
X235729183Y-70995266D01*
X236162322Y-71034685D01*
X236162322Y-71034685D01*
G37*
X236162322Y-71034685D02*
X236579564Y-71157485D01*
X236965002Y-71358989D01*
X237303959Y-71631517D01*
X237583532Y-71964698D01*
X237793062Y-72345832D01*
X237924572Y-72760404D01*
X237973828Y-73199527D01*
X237974001Y-73224363D01*
X237974426Y-75002170D01*
X237973694Y-75009606D01*
X237974430Y-75017080D01*
X237974430Y-75017104D01*
X237975186Y-75024763D01*
X237976628Y-75039402D01*
X237976635Y-75039424D01*
X237976636Y-75039438D01*
X237979975Y-75050435D01*
X237985319Y-75068054D01*
X237985330Y-75068074D01*
X237985334Y-75068088D01*
X237991226Y-75079106D01*
X237999433Y-75094460D01*
X237999446Y-75094475D01*
X237999454Y-75094491D01*
X238008724Y-75105781D01*
X238018428Y-75117605D01*
X238018442Y-75117617D01*
X238018454Y-75117631D01*
X238030309Y-75127356D01*
X238041573Y-75136600D01*
X238041588Y-75136608D01*
X238041604Y-75136621D01*
X238055204Y-75143886D01*
X238067979Y-75150714D01*
X238067997Y-75150719D01*
X238068013Y-75150728D01*
X238084003Y-75155575D01*
X238096631Y-75159405D01*
X238096645Y-75159406D01*
X238096667Y-75159413D01*
X238113240Y-75161041D01*
X238118966Y-75161605D01*
X238118982Y-75161605D01*
X238126464Y-75162340D01*
X238133907Y-75161605D01*
X263066271Y-75161690D01*
X265397730Y-77493150D01*
X265402490Y-77498950D01*
X265425635Y-77517945D01*
X265452041Y-77532059D01*
X265472001Y-77538113D01*
X265480692Y-77540750D01*
X265483604Y-77541037D01*
X265503028Y-77542950D01*
X265503035Y-77542950D01*
X265510489Y-77543684D01*
X265517944Y-77542950D01*
X282097963Y-77542950D01*
X284430008Y-81041019D01*
X284433576Y-81047695D01*
X284442563Y-81058646D01*
X284452457Y-81070727D01*
X284452522Y-81070781D01*
X284452571Y-81070840D01*
X284463581Y-81079876D01*
X284475582Y-81089746D01*
X284475656Y-81089785D01*
X284475716Y-81089835D01*
X284488315Y-81096569D01*
X284501973Y-81103888D01*
X284502054Y-81103913D01*
X284502122Y-81103949D01*
X284515803Y-81108099D01*
X284530616Y-81112609D01*
X284530699Y-81112617D01*
X284530774Y-81112640D01*
X284545316Y-81114072D01*
X284560410Y-81115575D01*
X284567953Y-81114840D01*
X309556329Y-81114735D01*
X309563800Y-81115471D01*
X309593597Y-81112536D01*
X309622249Y-81103845D01*
X309648655Y-81089731D01*
X309671800Y-81070736D01*
X309690795Y-81047591D01*
X309704909Y-81021185D01*
X309713600Y-80992533D01*
X309715800Y-80970198D01*
X309715800Y-80970190D01*
X309716534Y-80962736D01*
X309715800Y-80955284D01*
X309715800Y-79184332D01*
X309735911Y-78979221D01*
X309938060Y-78979221D01*
X309938060Y-79374565D01*
X310015188Y-79762313D01*
X310166480Y-80127564D01*
X310386121Y-80456281D01*
X310665672Y-80735832D01*
X310994389Y-80955473D01*
X311359640Y-81106765D01*
X311747388Y-81183893D01*
X312142732Y-81183893D01*
X312530480Y-81106765D01*
X312895731Y-80955473D01*
X313224448Y-80735832D01*
X313503999Y-80456281D01*
X313723640Y-80127564D01*
X313874932Y-79762313D01*
X313952060Y-79374565D01*
X313952060Y-78979221D01*
X313874932Y-78591473D01*
X313723640Y-78226222D01*
X313503999Y-77897505D01*
X313224448Y-77617954D01*
X312895731Y-77398313D01*
X312530480Y-77247021D01*
X312142732Y-77169893D01*
X311747388Y-77169893D01*
X311359640Y-77247021D01*
X310994389Y-77398313D01*
X310665672Y-77617954D01*
X310386121Y-77897505D01*
X310166480Y-78226222D01*
X310015188Y-78591473D01*
X309938060Y-78979221D01*
X309735911Y-78979221D01*
X309758972Y-78744036D01*
X309884680Y-78327668D01*
X310088868Y-77943644D01*
X310363759Y-77606595D01*
X310698881Y-77329358D01*
X311081473Y-77122491D01*
X311496952Y-76993879D01*
X311929503Y-76948416D01*
X312362642Y-76987835D01*
X312779884Y-77110635D01*
X313165322Y-77312139D01*
X313504279Y-77584667D01*
X313783852Y-77917848D01*
X313993382Y-78298982D01*
X314124892Y-78713554D01*
X314174148Y-79152677D01*
X314174320Y-79177381D01*
X314174321Y-80955264D01*
X314173585Y-80962736D01*
X314176520Y-80992533D01*
X314185211Y-81021185D01*
X314199325Y-81047591D01*
X314218320Y-81070736D01*
X314241465Y-81089731D01*
X314267871Y-81103845D01*
X314296523Y-81112536D01*
X314318858Y-81114736D01*
X314326320Y-81115471D01*
X314333782Y-81114736D01*
X319081557Y-81114736D01*
X319521852Y-81157908D01*
X319938222Y-81283617D01*
X320322242Y-81487804D01*
X320659291Y-81762694D01*
X320936523Y-82097811D01*
X321143390Y-82480404D01*
X321272003Y-82895882D01*
X321318205Y-83335465D01*
X321318100Y-83336527D01*
X321318249Y-173824115D01*
X321275076Y-174264420D01*
X321149367Y-174680790D01*
X320945179Y-175064811D01*
X320670290Y-175401859D01*
X320335173Y-175679091D01*
X319952580Y-175885958D01*
X319537102Y-176014571D01*
X319097393Y-176060786D01*
X319088753Y-176060816D01*
X314333782Y-176060816D01*
X314326320Y-176060081D01*
X314318858Y-176060816D01*
X314296523Y-176063016D01*
X314267871Y-176071707D01*
X314241465Y-176085821D01*
X314218320Y-176104816D01*
X314199325Y-176127961D01*
X314185211Y-176154367D01*
X314176520Y-176183019D01*
X314173585Y-176212816D01*
X314174321Y-176220288D01*
X314174320Y-177991316D01*
X314131148Y-178431613D01*
X314005438Y-178847984D01*
X313801250Y-179232006D01*
X313526361Y-179569052D01*
X313191239Y-179846290D01*
X312808646Y-180053158D01*
X312393168Y-180181769D01*
X311960618Y-180227232D01*
X311527477Y-180187813D01*
X311110236Y-180065013D01*
X310724799Y-179863510D01*
X310385841Y-179590981D01*
X310106270Y-179257802D01*
X309896739Y-178876667D01*
X309765228Y-178462095D01*
X309715972Y-178022971D01*
X309715800Y-177998267D01*
X309715800Y-177801083D01*
X309938060Y-177801083D01*
X309938060Y-178196427D01*
X310015188Y-178584175D01*
X310166480Y-178949426D01*
X310386121Y-179278143D01*
X310665672Y-179557694D01*
X310994389Y-179777335D01*
X311359640Y-179928627D01*
X311747388Y-180005755D01*
X312142732Y-180005755D01*
X312530480Y-179928627D01*
X312895731Y-179777335D01*
X313224448Y-179557694D01*
X313503999Y-179278143D01*
X313723640Y-178949426D01*
X313874932Y-178584175D01*
X313952060Y-178196427D01*
X313952060Y-177801083D01*
X313874932Y-177413335D01*
X313723640Y-177048084D01*
X313503999Y-176719367D01*
X313224448Y-176439816D01*
X312895731Y-176220175D01*
X312530480Y-176068883D01*
X312142732Y-175991755D01*
X311747388Y-175991755D01*
X311359640Y-176068883D01*
X310994389Y-176220175D01*
X310665672Y-176439816D01*
X310386121Y-176719367D01*
X310166480Y-177048084D01*
X310015188Y-177413335D01*
X309938060Y-177801083D01*
X309715800Y-177801083D01*
X309715800Y-176220702D01*
X309716535Y-176213240D01*
X309713600Y-176183443D01*
X309704909Y-176154791D01*
X309690795Y-176128385D01*
X309671800Y-176105240D01*
X309648655Y-176086245D01*
X309622249Y-176072131D01*
X309593597Y-176063440D01*
X309571262Y-176061240D01*
X309563800Y-176060505D01*
X309556338Y-176061240D01*
X284641918Y-176061240D01*
X282309881Y-172563186D01*
X282306305Y-172556495D01*
X282296240Y-172544231D01*
X282287422Y-172533464D01*
X282287365Y-172533417D01*
X282287310Y-172533350D01*
X282275039Y-172523279D01*
X282264298Y-172514445D01*
X282264231Y-172514409D01*
X282264165Y-172514355D01*
X282250441Y-172507020D01*
X282237907Y-172500303D01*
X282237833Y-172500280D01*
X282237759Y-172500241D01*
X282223247Y-172495839D01*
X282209263Y-172491581D01*
X282209183Y-172491573D01*
X282209107Y-172491550D01*
X282194375Y-172490099D01*
X282179469Y-172488615D01*
X282171927Y-172489350D01*
X265573450Y-172489350D01*
X263241993Y-170157894D01*
X263237235Y-170152096D01*
X263214091Y-170133100D01*
X263187686Y-170118984D01*
X263159034Y-170110292D01*
X263159033Y-170110292D01*
X263159027Y-170110290D01*
X263129230Y-170107355D01*
X263121766Y-170108090D01*
X251223658Y-170107484D01*
X251210648Y-170107155D01*
X251201356Y-170108760D01*
X251191977Y-170109683D01*
X251179537Y-170113456D01*
X225302825Y-177252786D01*
X225299466Y-177253076D01*
X225270710Y-177261418D01*
X225262265Y-177265800D01*
X225258054Y-177267421D01*
X225253066Y-177270574D01*
X225244134Y-177275209D01*
X225238128Y-177280016D01*
X225232745Y-177283419D01*
X225226711Y-177289154D01*
X225220759Y-177293919D01*
X225217004Y-177298382D01*
X225211044Y-177304048D01*
X225204842Y-177312840D01*
X225201484Y-177316831D01*
X225199562Y-177320324D01*
X225193784Y-177328514D01*
X225188461Y-177340497D01*
X225187049Y-177343063D01*
X225186373Y-177345198D01*
X225181629Y-177355877D01*
X225178273Y-177370771D01*
X225178008Y-177371607D01*
X225177934Y-177372274D01*
X225175047Y-177385086D01*
X225174289Y-177415017D01*
X225179384Y-177444521D01*
X225190139Y-177472464D01*
X225193628Y-177477984D01*
X225779540Y-178942765D01*
X225907116Y-179344971D01*
X225953099Y-179755008D01*
X225918562Y-180166172D01*
X225804821Y-180562795D01*
X225616208Y-180929775D01*
X225359909Y-181253127D01*
X225045687Y-181520538D01*
X224685506Y-181721825D01*
X224293083Y-181849319D01*
X223883380Y-181898163D01*
X223471983Y-181866498D01*
X223074574Y-181755529D01*
X222706293Y-181569485D01*
X222381157Y-181315448D01*
X222111556Y-181003096D01*
X221907352Y-180643611D01*
X221785219Y-180289262D01*
X221591603Y-179586804D01*
X221832154Y-179586804D01*
X221832154Y-179982148D01*
X221909282Y-180369896D01*
X222060574Y-180735147D01*
X222280215Y-181063864D01*
X222559766Y-181343415D01*
X222888483Y-181563056D01*
X223253734Y-181714348D01*
X223641482Y-181791476D01*
X224036826Y-181791476D01*
X224424574Y-181714348D01*
X224789825Y-181563056D01*
X225118542Y-181343415D01*
X225398093Y-181063864D01*
X225617734Y-180735147D01*
X225769026Y-180369896D01*
X225846154Y-179982148D01*
X225846154Y-179586804D01*
X225769026Y-179199056D01*
X225617734Y-178833805D01*
X225398093Y-178505088D01*
X225118542Y-178225537D01*
X224789825Y-178005896D01*
X224424574Y-177854604D01*
X224036826Y-177777476D01*
X223641482Y-177777476D01*
X223253734Y-177854604D01*
X222888483Y-178005896D01*
X222559766Y-178225537D01*
X222280215Y-178505088D01*
X222060574Y-178833805D01*
X221909282Y-179199056D01*
X221832154Y-179586804D01*
X221591603Y-179586804D01*
X221304802Y-178546270D01*
X221296747Y-178525322D01*
X221280755Y-178500009D01*
X221260132Y-178478303D01*
X221235669Y-178461037D01*
X221208309Y-178448875D01*
X221179102Y-178442285D01*
X221149172Y-178441520D01*
X221119666Y-178446608D01*
X221108996Y-178450711D01*
X203574092Y-183205020D01*
X182186641Y-183205020D01*
X164652948Y-178449201D01*
X164646236Y-178446620D01*
X164638535Y-178445292D01*
X164638240Y-178445212D01*
X164631255Y-178444037D01*
X164616730Y-178441532D01*
X164616417Y-178441540D01*
X164616108Y-178441488D01*
X164601422Y-178441924D01*
X164586799Y-178442298D01*
X164586495Y-178442367D01*
X164586181Y-178442376D01*
X164571849Y-178445671D01*
X164557592Y-178448888D01*
X164557307Y-178449015D01*
X164557001Y-178449085D01*
X164543531Y-178455138D01*
X164530232Y-178461050D01*
X164529979Y-178461229D01*
X164529691Y-178461358D01*
X164517776Y-178469841D01*
X164505769Y-178478315D01*
X164505551Y-178478545D01*
X164505299Y-178478724D01*
X164495338Y-178489294D01*
X164485146Y-178500022D01*
X164484978Y-178500288D01*
X164484765Y-178500514D01*
X164477115Y-178512734D01*
X164469154Y-178525334D01*
X164469039Y-178525633D01*
X164468877Y-178525892D01*
X164463763Y-178539354D01*
X164461099Y-178546282D01*
X164461014Y-178546590D01*
X164458244Y-178553882D01*
X164457053Y-178560963D01*
X163980900Y-180288488D01*
X163839121Y-180685855D01*
X163627620Y-181040141D01*
X163351335Y-181346596D01*
X163020791Y-181593548D01*
X162648578Y-181771594D01*
X162248858Y-181873956D01*
X161836881Y-181896727D01*
X161428329Y-181839046D01*
X161038746Y-181703103D01*
X160683005Y-181494088D01*
X160374623Y-181219945D01*
X160125370Y-180891135D01*
X159944728Y-180520168D01*
X159839580Y-180121180D01*
X159813932Y-179709370D01*
X159830334Y-179587030D01*
X159919392Y-179587030D01*
X159919392Y-179982374D01*
X159996520Y-180370122D01*
X160147812Y-180735373D01*
X160367453Y-181064090D01*
X160647004Y-181343641D01*
X160975721Y-181563282D01*
X161340972Y-181714574D01*
X161728720Y-181791702D01*
X162124064Y-181791702D01*
X162511812Y-181714574D01*
X162877063Y-181563282D01*
X163205780Y-181343641D01*
X163485331Y-181064090D01*
X163704972Y-180735373D01*
X163856264Y-180370122D01*
X163933392Y-179982374D01*
X163933392Y-179587030D01*
X163856264Y-179199282D01*
X163704972Y-178834031D01*
X163485331Y-178505314D01*
X163205780Y-178225763D01*
X162877063Y-178006122D01*
X162511812Y-177854830D01*
X162124064Y-177777702D01*
X161728720Y-177777702D01*
X161340972Y-177854830D01*
X160975721Y-178006122D01*
X160647004Y-178225763D01*
X160367453Y-178505314D01*
X160147812Y-178834031D01*
X159996520Y-179199282D01*
X159919392Y-179587030D01*
X159830334Y-179587030D01*
X159868872Y-179299597D01*
X159986059Y-178943535D01*
X160574413Y-177472648D01*
X160574952Y-177471795D01*
X160579961Y-177458777D01*
X160582367Y-177452763D01*
X160582647Y-177451798D01*
X160585705Y-177443851D01*
X160586811Y-177437446D01*
X160588620Y-177431209D01*
X160589351Y-177422732D01*
X160590798Y-177414347D01*
X160590633Y-177407850D01*
X160591191Y-177401378D01*
X160590255Y-177392929D01*
X160590039Y-177384415D01*
X160588609Y-177378072D01*
X160587894Y-177371619D01*
X160585327Y-177363514D01*
X160583454Y-177355207D01*
X160580813Y-177349262D01*
X160578853Y-177343075D01*
X160574756Y-177335631D01*
X160571297Y-177327844D01*
X160567546Y-177322528D01*
X160564418Y-177316843D01*
X160558947Y-177310340D01*
X160554036Y-177303379D01*
X160549323Y-177298899D01*
X160545143Y-177293931D01*
X160538503Y-177288616D01*
X160532333Y-177282752D01*
X160526836Y-177279277D01*
X160521768Y-177275221D01*
X160514224Y-177271306D01*
X160507024Y-177266755D01*
X160500956Y-177264420D01*
X160495192Y-177261429D01*
X160487022Y-177259059D01*
X160486078Y-177258696D01*
X160479799Y-177256964D01*
X160466436Y-177253088D01*
X160465433Y-177253001D01*
X134583469Y-170114076D01*
X134570987Y-170110290D01*
X134561590Y-170109364D01*
X134552297Y-170107760D01*
X134539301Y-170108090D01*
X122642344Y-170108090D01*
X122634889Y-170107356D01*
X122627435Y-170108090D01*
X122627428Y-170108090D01*
X122608004Y-170110003D01*
X122605092Y-170110290D01*
X122596401Y-170112927D01*
X122576441Y-170118981D01*
X122550035Y-170133095D01*
X122526890Y-170152090D01*
X122522130Y-170157890D01*
X120190671Y-172489350D01*
X103592192Y-172489350D01*
X103584650Y-172488615D01*
X103569650Y-172490108D01*
X103555013Y-172491550D01*
X103554938Y-172491573D01*
X103554856Y-172491581D01*
X103540309Y-172496010D01*
X103526361Y-172500241D01*
X103526292Y-172500278D01*
X103526213Y-172500302D01*
X103512946Y-172507411D01*
X103499955Y-172514355D01*
X103499893Y-172514406D01*
X103499822Y-172514444D01*
X103488291Y-172523928D01*
X103476810Y-172533350D01*
X103476759Y-172533412D01*
X103476697Y-172533463D01*
X103467269Y-172544976D01*
X103457815Y-172556495D01*
X103454243Y-172563179D01*
X101122204Y-176061239D01*
X76207785Y-176060816D01*
X76200320Y-176060081D01*
X76170524Y-176063016D01*
X76141872Y-176071707D01*
X76115466Y-176085821D01*
X76092321Y-176104816D01*
X76091895Y-176105335D01*
X76073327Y-176127959D01*
X76059212Y-176154365D01*
X76050521Y-176183017D01*
X76047586Y-176212814D01*
X76048321Y-176220278D01*
X76048320Y-177991748D01*
X76005148Y-178432045D01*
X75879438Y-178848416D01*
X75675250Y-179232438D01*
X75400361Y-179569484D01*
X75065239Y-179846722D01*
X74682646Y-180053590D01*
X74267168Y-180182201D01*
X73834618Y-180227664D01*
X73401477Y-180188245D01*
X72984236Y-180065445D01*
X72598799Y-179863942D01*
X72259841Y-179591413D01*
X71980270Y-179258234D01*
X71770739Y-178877099D01*
X71639228Y-178462527D01*
X71589972Y-178023403D01*
X71589799Y-177998626D01*
X71589908Y-177801515D01*
X71812060Y-177801515D01*
X71812060Y-178196859D01*
X71889188Y-178584607D01*
X72040480Y-178949858D01*
X72260121Y-179278575D01*
X72539672Y-179558126D01*
X72868389Y-179777767D01*
X73233640Y-179929059D01*
X73621388Y-180006187D01*
X74016732Y-180006187D01*
X74404480Y-179929059D01*
X74769731Y-179777767D01*
X75098448Y-179558126D01*
X75377999Y-179278575D01*
X75597640Y-178949858D01*
X75748932Y-178584607D01*
X75826060Y-178196859D01*
X75826060Y-177801515D01*
X75748932Y-177413767D01*
X75597640Y-177048516D01*
X75377999Y-176719799D01*
X75098448Y-176440248D01*
X74769731Y-176220607D01*
X74404480Y-176069315D01*
X74016732Y-175992187D01*
X73621388Y-175992187D01*
X73233640Y-176069315D01*
X72868389Y-176220607D01*
X72539672Y-176440248D01*
X72260121Y-176719799D01*
X72040480Y-177048516D01*
X71889188Y-177413767D01*
X71812060Y-177801515D01*
X71589908Y-177801515D01*
X71590784Y-176220321D01*
X71591523Y-176212816D01*
X71590002Y-176197374D01*
X71588604Y-176183103D01*
X71588593Y-176183065D01*
X71588588Y-176183019D01*
X71583835Y-176167349D01*
X71579929Y-176154446D01*
X71579910Y-176154411D01*
X71579897Y-176154367D01*
X71572040Y-176139667D01*
X71565829Y-176128032D01*
X71565806Y-176128004D01*
X71565783Y-176127961D01*
X71554847Y-176114636D01*
X71546847Y-176104877D01*
X71546820Y-176104854D01*
X71546788Y-176104816D01*
X71533636Y-176094022D01*
X71523713Y-176085869D01*
X71523680Y-176085851D01*
X71523643Y-176085821D01*
X71509177Y-176078089D01*
X71497315Y-176071740D01*
X71497277Y-176071729D01*
X71497237Y-176071707D01*
X71481770Y-176067015D01*
X71468667Y-176063033D01*
X71468628Y-176063029D01*
X71468585Y-176063016D01*
X71452245Y-176061406D01*
X71438872Y-176060082D01*
X71431377Y-176060816D01*
X66683723Y-176060816D01*
X66243428Y-176017644D01*
X65827058Y-175891935D01*
X65443037Y-175687747D01*
X65105989Y-175412858D01*
X64828757Y-175077741D01*
X64621890Y-174695148D01*
X64493277Y-174279670D01*
X64447062Y-173839961D01*
X64447032Y-173831321D01*
X64447032Y-91476895D01*
X307866170Y-91476895D01*
X307866170Y-91576765D01*
X307885654Y-91674716D01*
X307923873Y-91766984D01*
X307979358Y-91850024D01*
X307991171Y-91861837D01*
X307991171Y-92037449D01*
X307989322Y-92056220D01*
X307996698Y-92131104D01*
X308018542Y-92203112D01*
X308054013Y-92269475D01*
X308101749Y-92327642D01*
X308116325Y-92339604D01*
X308902705Y-93125985D01*
X308914668Y-93140562D01*
X308972835Y-93188298D01*
X309039198Y-93223769D01*
X309089361Y-93238986D01*
X309111204Y-93245612D01*
X309186089Y-93252988D01*
X309204851Y-93251140D01*
X310086817Y-93251140D01*
X310086817Y-93319141D01*
X310096583Y-93418294D01*
X310125505Y-93513637D01*
X310172471Y-93601505D01*
X310235678Y-93678522D01*
X310312695Y-93741729D01*
X310400563Y-93788695D01*
X310495906Y-93817617D01*
X310595059Y-93827383D01*
X311245061Y-93827383D01*
X311344214Y-93817617D01*
X311439557Y-93788695D01*
X311527425Y-93741729D01*
X311604442Y-93678522D01*
X311667649Y-93601505D01*
X311714615Y-93513637D01*
X311743537Y-93418294D01*
X311753303Y-93319141D01*
X311753303Y-92419139D01*
X312136817Y-92419139D01*
X312136817Y-93319141D01*
X312146583Y-93418294D01*
X312175505Y-93513637D01*
X312222471Y-93601505D01*
X312285678Y-93678522D01*
X312362695Y-93741729D01*
X312450563Y-93788695D01*
X312545906Y-93817617D01*
X312645059Y-93827383D01*
X313295061Y-93827383D01*
X313394214Y-93817617D01*
X313489557Y-93788695D01*
X313577425Y-93741729D01*
X313654442Y-93678522D01*
X313717649Y-93601505D01*
X313764615Y-93513637D01*
X313793537Y-93418294D01*
X313803303Y-93319141D01*
X313803303Y-92419139D01*
X313793537Y-92319986D01*
X313764615Y-92224643D01*
X313717649Y-92136775D01*
X313654442Y-92059758D01*
X313577425Y-91996551D01*
X313489557Y-91949585D01*
X313394214Y-91920663D01*
X313295061Y-91910897D01*
X312645059Y-91910897D01*
X312545906Y-91920663D01*
X312450563Y-91949585D01*
X312362695Y-91996551D01*
X312285678Y-92059758D01*
X312222471Y-92136775D01*
X312175505Y-92224643D01*
X312146583Y-92319986D01*
X312136817Y-92419139D01*
X311753303Y-92419139D01*
X311743537Y-92319986D01*
X311714615Y-92224643D01*
X311667649Y-92136775D01*
X311604442Y-92059758D01*
X311527425Y-91996551D01*
X311439557Y-91949585D01*
X311344214Y-91920663D01*
X311245061Y-91910897D01*
X310595059Y-91910897D01*
X310495906Y-91920663D01*
X310400563Y-91949585D01*
X310312695Y-91996551D01*
X310235678Y-92059758D01*
X310172471Y-92136775D01*
X310125505Y-92224643D01*
X310096583Y-92319986D01*
X310086817Y-92419139D01*
X310086817Y-92487140D01*
X309344320Y-92487140D01*
X308755170Y-91897991D01*
X308755170Y-91861836D01*
X308766982Y-91850024D01*
X308822467Y-91766984D01*
X308860686Y-91674716D01*
X308880170Y-91576765D01*
X308880170Y-91476895D01*
X308860686Y-91378944D01*
X308822467Y-91286676D01*
X308813425Y-91273144D01*
X309216690Y-90869880D01*
X310310838Y-90869880D01*
X310324553Y-90915093D01*
X310370365Y-91000800D01*
X310432017Y-91075923D01*
X310507140Y-91137575D01*
X310592847Y-91183387D01*
X310685845Y-91211597D01*
X310782560Y-91221123D01*
X311357560Y-91221123D01*
X311454275Y-91211597D01*
X311547273Y-91183387D01*
X311632980Y-91137575D01*
X311708103Y-91075923D01*
X311769755Y-91000800D01*
X311815567Y-90915093D01*
X311843777Y-90822095D01*
X311853303Y-90725380D01*
X311853303Y-90250380D01*
X312036817Y-90250380D01*
X312036817Y-90725380D01*
X312046343Y-90822095D01*
X312074553Y-90915093D01*
X312120365Y-91000800D01*
X312182017Y-91075923D01*
X312257140Y-91137575D01*
X312342847Y-91183387D01*
X312435845Y-91211597D01*
X312532560Y-91221123D01*
X313107560Y-91221123D01*
X313204275Y-91211597D01*
X313297273Y-91183387D01*
X313382980Y-91137575D01*
X313458103Y-91075923D01*
X313519755Y-91000800D01*
X313565567Y-90915093D01*
X313593777Y-90822095D01*
X313603303Y-90725380D01*
X313603303Y-90250380D01*
X313593777Y-90153665D01*
X313565567Y-90060667D01*
X313519755Y-89974960D01*
X313458103Y-89899837D01*
X313382980Y-89838185D01*
X313297273Y-89792373D01*
X313204275Y-89764163D01*
X313107560Y-89754637D01*
X312532560Y-89754637D01*
X312435845Y-89764163D01*
X312342847Y-89792373D01*
X312257140Y-89838185D01*
X312182017Y-89899837D01*
X312120365Y-89974960D01*
X312074553Y-90060667D01*
X312046343Y-90153665D01*
X312036817Y-90250380D01*
X311853303Y-90250380D01*
X311843777Y-90153665D01*
X311815567Y-90060667D01*
X311769755Y-89974960D01*
X311708103Y-89899837D01*
X311632980Y-89838185D01*
X311547273Y-89792373D01*
X311454275Y-89764163D01*
X311357560Y-89754637D01*
X310782560Y-89754637D01*
X310685845Y-89764163D01*
X310592847Y-89792373D01*
X310507140Y-89838185D01*
X310432017Y-89899837D01*
X310370365Y-89974960D01*
X310324553Y-90060667D01*
X310310838Y-90105880D01*
X309077221Y-90105880D01*
X309058459Y-90104032D01*
X308983574Y-90111408D01*
X308961731Y-90118034D01*
X308911568Y-90133251D01*
X308845205Y-90168722D01*
X308787038Y-90216458D01*
X308775075Y-90231035D01*
X308116330Y-90889781D01*
X308101748Y-90901748D01*
X308054012Y-90959916D01*
X308018541Y-91026279D01*
X307996698Y-91098285D01*
X307996698Y-91098286D01*
X307989322Y-91173170D01*
X307991160Y-91191834D01*
X307979358Y-91203636D01*
X307923873Y-91286676D01*
X307885654Y-91378944D01*
X307866170Y-91476895D01*
X64447032Y-91476895D01*
X64447032Y-83351427D01*
X64490204Y-82911132D01*
X64615913Y-82494762D01*
X64820100Y-82110742D01*
X65094990Y-81773693D01*
X65430107Y-81496461D01*
X65812700Y-81289594D01*
X66228178Y-81160981D01*
X66667887Y-81114766D01*
X66668070Y-81114766D01*
X66668826Y-81114840D01*
X71431370Y-81114735D01*
X71438872Y-81115470D01*
X71453603Y-81114011D01*
X71468588Y-81112535D01*
X71468628Y-81112523D01*
X71468667Y-81112519D01*
X71482742Y-81108241D01*
X71497240Y-81103843D01*
X71497276Y-81103824D01*
X71497315Y-81103812D01*
X71510117Y-81096960D01*
X71523645Y-81089729D01*
X71523679Y-81089701D01*
X71523713Y-81089683D01*
X71534506Y-81080815D01*
X71546790Y-81070733D01*
X71546818Y-81070699D01*
X71546847Y-81070675D01*
X71555679Y-81059901D01*
X71565784Y-81047588D01*
X71565804Y-81047550D01*
X71565829Y-81047520D01*
X71572708Y-81034634D01*
X71579898Y-81021181D01*
X71579910Y-81021142D01*
X71579929Y-81021106D01*
X71584282Y-81006727D01*
X71588588Y-80992529D01*
X71588592Y-80992489D01*
X71588604Y-80992449D01*
X71590165Y-80976512D01*
X71591522Y-80962733D01*
X71590784Y-80955238D01*
X71589803Y-79184298D01*
X71609911Y-78979221D01*
X71812060Y-78979221D01*
X71812060Y-79374565D01*
X71889188Y-79762313D01*
X72040480Y-80127564D01*
X72260121Y-80456281D01*
X72539672Y-80735832D01*
X72868389Y-80955473D01*
X73233640Y-81106765D01*
X73621388Y-81183893D01*
X74016732Y-81183893D01*
X74404480Y-81106765D01*
X74769731Y-80955473D01*
X75098448Y-80735832D01*
X75377999Y-80456281D01*
X75597640Y-80127564D01*
X75748932Y-79762313D01*
X75826060Y-79374565D01*
X75826060Y-78979221D01*
X75748932Y-78591473D01*
X75597640Y-78226222D01*
X75377999Y-77897505D01*
X75098448Y-77617954D01*
X74769731Y-77398313D01*
X74404480Y-77247021D01*
X74016732Y-77169893D01*
X73621388Y-77169893D01*
X73233640Y-77247021D01*
X72868389Y-77398313D01*
X72539672Y-77617954D01*
X72260121Y-77897505D01*
X72040480Y-78226222D01*
X71889188Y-78591473D01*
X71812060Y-78979221D01*
X71609911Y-78979221D01*
X71632972Y-78744036D01*
X71758680Y-78327668D01*
X71962868Y-77943644D01*
X72237759Y-77606595D01*
X72572881Y-77329358D01*
X72955473Y-77122491D01*
X73370952Y-76993879D01*
X73803503Y-76948416D01*
X74236642Y-76987835D01*
X74653884Y-77110635D01*
X75039322Y-77312139D01*
X75378279Y-77584667D01*
X75657852Y-77917848D01*
X75867382Y-78298982D01*
X75998892Y-78713554D01*
X76048148Y-79152677D01*
X76048320Y-79177425D01*
X76049289Y-80955316D01*
X76048558Y-80962736D01*
X76049297Y-80970241D01*
X76049297Y-80970280D01*
X76049964Y-80977016D01*
X76051492Y-80992532D01*
X76051505Y-80992575D01*
X76051509Y-80992614D01*
X76055659Y-81006269D01*
X76060183Y-81021184D01*
X76060203Y-81021221D01*
X76060215Y-81021261D01*
X76066927Y-81033801D01*
X76074297Y-81047590D01*
X76074326Y-81047625D01*
X76074344Y-81047659D01*
X76083400Y-81058682D01*
X76093292Y-81070735D01*
X76093324Y-81070762D01*
X76093351Y-81070794D01*
X76104472Y-81079910D01*
X76116437Y-81089730D01*
X76116477Y-81089751D01*
X76116507Y-81089776D01*
X76129105Y-81096501D01*
X76142843Y-81103844D01*
X76142883Y-81103856D01*
X76142920Y-81103876D01*
X76157061Y-81108157D01*
X76171495Y-81112535D01*
X76171538Y-81112539D01*
X76171577Y-81112551D01*
X76186235Y-81113987D01*
X76193830Y-81114735D01*
X76193872Y-81114735D01*
X76201375Y-81115470D01*
X76208795Y-81114735D01*
X101196166Y-81114840D01*
X101203709Y-81115575D01*
X101218709Y-81114082D01*
X101233346Y-81112640D01*
X101233421Y-81112617D01*
X101233503Y-81112609D01*
X101247747Y-81108272D01*
X101261998Y-81103949D01*
X101262070Y-81103910D01*
X101262147Y-81103887D01*
X101275073Y-81096961D01*
X101288404Y-81089835D01*
X101288468Y-81089783D01*
X101288538Y-81089745D01*
X101299922Y-81080382D01*
X101311549Y-81070840D01*
X101311602Y-81070775D01*
X101311662Y-81070726D01*
X101321378Y-81058863D01*
X101330544Y-81047695D01*
X101334116Y-81041012D01*
X103666158Y-77542950D01*
X120246168Y-77542950D01*
X120253630Y-77543685D01*
X120283427Y-77540750D01*
X120312079Y-77532059D01*
X120338485Y-77517945D01*
X120361630Y-77498950D01*
X120366395Y-77493144D01*
X122697850Y-75161690D01*
X147630649Y-75161605D01*
X147638120Y-75162341D01*
X147667917Y-75159406D01*
X147696569Y-75150715D01*
X147722975Y-75136601D01*
X147746120Y-75117606D01*
X147765115Y-75094461D01*
X147779229Y-75068055D01*
X147787920Y-75039403D01*
X147790120Y-75017068D01*
X147790120Y-75017060D01*
X147790854Y-75009606D01*
X147790120Y-75002154D01*
X147790120Y-73231182D01*
X147810231Y-73026071D01*
X148012380Y-73026071D01*
X148012380Y-73421415D01*
X148089508Y-73809163D01*
X148240800Y-74174414D01*
X148460441Y-74503131D01*
X148739992Y-74782682D01*
X149068709Y-75002323D01*
X149433960Y-75153615D01*
X149821708Y-75230743D01*
X150217052Y-75230743D01*
X150604800Y-75153615D01*
X150970051Y-75002323D01*
X151298768Y-74782682D01*
X151578319Y-74503131D01*
X151797960Y-74174414D01*
X151949252Y-73809163D01*
X152026380Y-73421415D01*
X152026380Y-73026071D01*
X151949252Y-72638323D01*
X151797960Y-72273072D01*
X151578319Y-71944355D01*
X151298768Y-71664804D01*
X150970051Y-71445163D01*
X150604800Y-71293871D01*
X150217052Y-71216743D01*
X149821708Y-71216743D01*
X149433960Y-71293871D01*
X149068709Y-71445163D01*
X148739992Y-71664804D01*
X148460441Y-71944355D01*
X148240800Y-72273072D01*
X148089508Y-72638323D01*
X148012380Y-73026071D01*
X147810231Y-73026071D01*
X147833292Y-72790886D01*
X147959000Y-72374518D01*
X148163188Y-71990494D01*
X148438079Y-71653445D01*
X148773201Y-71376208D01*
X149155793Y-71169341D01*
X149571272Y-71040729D01*
X150003823Y-70995266D01*
X150436962Y-71034685D01*
X150854204Y-71157485D01*
X151239642Y-71358989D01*
X151578599Y-71631517D01*
X151858172Y-71964698D01*
X152067702Y-72345832D01*
X152199212Y-72760404D01*
X152248468Y-73199527D01*
X152248640Y-73224231D01*
X152248641Y-75002134D01*
X152247905Y-75009606D01*
X152250840Y-75039403D01*
X152259531Y-75068055D01*
X152273645Y-75094461D01*
X152292640Y-75117606D01*
X152315785Y-75136601D01*
X152342191Y-75150715D01*
X152370843Y-75159406D01*
X152393178Y-75161606D01*
X152400640Y-75162341D01*
X152408102Y-75161606D01*
X233356018Y-75161606D01*
X233363480Y-75162341D01*
X233393277Y-75159406D01*
X233421929Y-75150715D01*
X233448335Y-75136601D01*
X233471480Y-75117606D01*
X233490475Y-75094461D01*
X233504589Y-75068055D01*
X233513280Y-75039403D01*
X233515480Y-75017068D01*
X233516215Y-75009606D01*
X233515480Y-75002144D01*
X233515480Y-73231182D01*
X233535591Y-73026071D01*
X233737740Y-73026071D01*
X233737740Y-73421415D01*
X233814868Y-73809163D01*
X233966160Y-74174414D01*
X234185801Y-74503131D01*
X234465352Y-74782682D01*
X234794069Y-75002323D01*
X235159320Y-75153615D01*
X235547068Y-75230743D01*
X235942412Y-75230743D01*
X236330160Y-75153615D01*
X236695411Y-75002323D01*
X237024128Y-74782682D01*
X237303679Y-74503131D01*
X237523320Y-74174414D01*
X237674612Y-73809163D01*
X237751740Y-73421415D01*
X237751740Y-73026071D01*
X237674612Y-72638323D01*
X237523320Y-72273072D01*
X237303679Y-71944355D01*
X237024128Y-71664804D01*
X236695411Y-71445163D01*
X236330160Y-71293871D01*
X235942412Y-71216743D01*
X235547068Y-71216743D01*
X235159320Y-71293871D01*
X234794069Y-71445163D01*
X234465352Y-71664804D01*
X234185801Y-71944355D01*
X233966160Y-72273072D01*
X233814868Y-72638323D01*
X233737740Y-73026071D01*
X233535591Y-73026071D01*
X233558652Y-72790886D01*
X233684360Y-72374518D01*
X233888548Y-71990494D01*
X234163439Y-71653445D01*
X234498561Y-71376208D01*
X234881153Y-71169341D01*
X235296632Y-71040729D01*
X235729183Y-70995266D01*
X236162322Y-71034685D01*
M02*
