G04 #@! TF.GenerationSoftware,KiCad,Pcbnew,(5.1.4-0)*
G04 #@! TF.CreationDate,2021-10-20T15:18:00-05:00*
G04 #@! TF.ProjectId,bottom_plate,626f7474-6f6d-45f7-906c-6174652e6b69,rev?*
G04 #@! TF.SameCoordinates,Original*
G04 #@! TF.FileFunction,Profile,NP*
%FSLAX46Y46*%
G04 Gerber Fmt 4.6, Leading zero omitted, Abs format (unit mm)*
G04 Created by KiCad (PCBNEW (5.1.4-0)) date 2021-10-20 15:18:00*
%MOMM*%
%LPD*%
G04 APERTURE LIST*
%ADD10C,0.050000*%
G04 APERTURE END LIST*
D10*
X292896116Y-172641350D02*
X302420020Y-157163160D01*
X317303065Y-157162800D02*
X302420020Y-157163160D01*
X237233110Y-176807916D02*
X230684678Y-178593852D01*
X239316602Y-179785126D02*
X237233110Y-176807916D01*
X213123282Y-188714389D02*
X230684678Y-178593852D01*
X244079198Y-175021980D02*
X252711222Y-172641370D01*
X243579191Y-178494517D02*
X244079198Y-175021980D01*
X252711222Y-172640732D02*
X292895346Y-172640732D01*
X243578673Y-178494411D02*
G75*
G02X239316702Y-179784476I-2476132J495224D01*
G01*
X64294028Y-83343988D02*
G75*
G02X66675280Y-80962736I2381252J0D01*
G01*
X71438936Y-78581484D02*
X70843475Y-80367423D01*
X70843475Y-80367423D02*
X66675280Y-80962736D01*
X142579066Y-172640732D02*
X102394180Y-172641350D01*
X151711097Y-178494517D02*
X151211090Y-175021980D01*
X151711615Y-178494411D02*
G75*
G03X155973586Y-179784476I2476132J495224D01*
G01*
X182167006Y-188714389D02*
X164605610Y-178593852D01*
X151211090Y-175021980D02*
X142579066Y-172641370D01*
X158057178Y-176807916D02*
X164605610Y-178593852D01*
X155973686Y-179785126D02*
X158057178Y-176807916D01*
X323851506Y-160139365D02*
G75*
G02X319089005Y-160139364I-2381250J1190626D01*
G01*
X323851507Y-160139365D02*
X325637447Y-157162800D01*
X319089004Y-160139365D02*
X317303065Y-157162800D01*
X76201290Y-160139365D02*
G75*
G02X71438789Y-160139364I-2381250J1190626D01*
G01*
X76201291Y-160139365D02*
X77987231Y-157162800D01*
X71438788Y-160139365D02*
X69652849Y-157162800D01*
X145852913Y-75009606D02*
X121445080Y-75009606D01*
X75555848Y-77440993D02*
G75*
G03X71438788Y-78581484I-1735652J-1735804D01*
G01*
X75555848Y-77440993D02*
X77391918Y-79772090D01*
X152401356Y-72033041D02*
X154187295Y-75009606D01*
X147638854Y-72033041D02*
G75*
G02X152401355Y-72033042I2381250J-1190626D01*
G01*
X147638853Y-72033041D02*
X145852913Y-75009606D01*
X247651444Y-72033041D02*
X249437383Y-75009606D01*
X242888941Y-72033041D02*
X241103001Y-75009606D01*
X242888942Y-72033041D02*
G75*
G02X247651443Y-72033042I2381250J-1190626D01*
G01*
X319734448Y-77440993D02*
X317898378Y-79772090D01*
X249437383Y-75009606D02*
X273845216Y-75009606D01*
X324446821Y-80367423D02*
X328614012Y-80962736D01*
X273845216Y-75009606D02*
X317898378Y-79772090D01*
X77987231Y-157162800D02*
X92869140Y-157163160D01*
X69652849Y-157162800D02*
X66675280Y-157163160D01*
X102394180Y-172641350D02*
X92869140Y-157163160D01*
X66675280Y-157163160D02*
G75*
G02X64294028Y-154781908I0J2381252D01*
G01*
X328614012Y-80962736D02*
G75*
G02X330995264Y-83343988I0J-2381252D01*
G01*
X330995288Y-154781484D02*
G75*
G02X328614036Y-157162736I-2381252J0D01*
G01*
X213123282Y-188714389D02*
X182167006Y-188714156D01*
X328614036Y-157162736D02*
X325637447Y-157162800D01*
X323851360Y-78581484D02*
X324446821Y-80367423D01*
X319734448Y-77440993D02*
G75*
G02X323851508Y-78581484I1735652J-1735804D01*
G01*
X154187295Y-75009606D02*
X241103001Y-75009606D01*
X77391918Y-79772090D02*
X121445080Y-75009606D01*
X330995288Y-154781484D02*
X330995264Y-83343988D01*
X64294028Y-83343988D02*
X64294020Y-154781900D01*
M02*
