G04 #@! TF.GenerationSoftware,KiCad,Pcbnew,(5.1.4-0)*
G04 #@! TF.CreationDate,2021-10-30T16:00:39-05:00*
G04 #@! TF.ProjectId,bottom_plate,626f7474-6f6d-45f7-906c-6174652e6b69,rev?*
G04 #@! TF.SameCoordinates,Original*
G04 #@! TF.FileFunction,Paste,Top*
G04 #@! TF.FilePolarity,Positive*
%FSLAX46Y46*%
G04 Gerber Fmt 4.6, Leading zero omitted, Abs format (unit mm)*
G04 Created by KiCad (PCBNEW (5.1.4-0)) date 2021-10-30 16:00:39*
%MOMM*%
%LPD*%
G04 APERTURE LIST*
%ADD10C,0.100000*%
%ADD11C,0.950000*%
G04 APERTURE END LIST*
D10*
G36*
X320906064Y-99538770D02*
G01*
X320929119Y-99542189D01*
X320951728Y-99547853D01*
X320973672Y-99555705D01*
X320994742Y-99565670D01*
X321014733Y-99577652D01*
X321033453Y-99591536D01*
X321050723Y-99607188D01*
X321066375Y-99624458D01*
X321080259Y-99643178D01*
X321092241Y-99663169D01*
X321102206Y-99684239D01*
X321110058Y-99706183D01*
X321115722Y-99728792D01*
X321119141Y-99751847D01*
X321120285Y-99775126D01*
X321120285Y-100250126D01*
X321119141Y-100273405D01*
X321115722Y-100296460D01*
X321110058Y-100319069D01*
X321102206Y-100341013D01*
X321092241Y-100362083D01*
X321080259Y-100382074D01*
X321066375Y-100400794D01*
X321050723Y-100418064D01*
X321033453Y-100433716D01*
X321014733Y-100447600D01*
X320994742Y-100459582D01*
X320973672Y-100469547D01*
X320951728Y-100477399D01*
X320929119Y-100483063D01*
X320906064Y-100486482D01*
X320882785Y-100487626D01*
X320307785Y-100487626D01*
X320284506Y-100486482D01*
X320261451Y-100483063D01*
X320238842Y-100477399D01*
X320216898Y-100469547D01*
X320195828Y-100459582D01*
X320175837Y-100447600D01*
X320157117Y-100433716D01*
X320139847Y-100418064D01*
X320124195Y-100400794D01*
X320110311Y-100382074D01*
X320098329Y-100362083D01*
X320088364Y-100341013D01*
X320080512Y-100319069D01*
X320074848Y-100296460D01*
X320071429Y-100273405D01*
X320070285Y-100250126D01*
X320070285Y-99775126D01*
X320071429Y-99751847D01*
X320074848Y-99728792D01*
X320080512Y-99706183D01*
X320088364Y-99684239D01*
X320098329Y-99663169D01*
X320110311Y-99643178D01*
X320124195Y-99624458D01*
X320139847Y-99607188D01*
X320157117Y-99591536D01*
X320175837Y-99577652D01*
X320195828Y-99565670D01*
X320216898Y-99555705D01*
X320238842Y-99547853D01*
X320261451Y-99542189D01*
X320284506Y-99538770D01*
X320307785Y-99537626D01*
X320882785Y-99537626D01*
X320906064Y-99538770D01*
X320906064Y-99538770D01*
G37*
D11*
X320595285Y-100012626D03*
D10*
G36*
X322656064Y-99538770D02*
G01*
X322679119Y-99542189D01*
X322701728Y-99547853D01*
X322723672Y-99555705D01*
X322744742Y-99565670D01*
X322764733Y-99577652D01*
X322783453Y-99591536D01*
X322800723Y-99607188D01*
X322816375Y-99624458D01*
X322830259Y-99643178D01*
X322842241Y-99663169D01*
X322852206Y-99684239D01*
X322860058Y-99706183D01*
X322865722Y-99728792D01*
X322869141Y-99751847D01*
X322870285Y-99775126D01*
X322870285Y-100250126D01*
X322869141Y-100273405D01*
X322865722Y-100296460D01*
X322860058Y-100319069D01*
X322852206Y-100341013D01*
X322842241Y-100362083D01*
X322830259Y-100382074D01*
X322816375Y-100400794D01*
X322800723Y-100418064D01*
X322783453Y-100433716D01*
X322764733Y-100447600D01*
X322744742Y-100459582D01*
X322723672Y-100469547D01*
X322701728Y-100477399D01*
X322679119Y-100483063D01*
X322656064Y-100486482D01*
X322632785Y-100487626D01*
X322057785Y-100487626D01*
X322034506Y-100486482D01*
X322011451Y-100483063D01*
X321988842Y-100477399D01*
X321966898Y-100469547D01*
X321945828Y-100459582D01*
X321925837Y-100447600D01*
X321907117Y-100433716D01*
X321889847Y-100418064D01*
X321874195Y-100400794D01*
X321860311Y-100382074D01*
X321848329Y-100362083D01*
X321838364Y-100341013D01*
X321830512Y-100319069D01*
X321824848Y-100296460D01*
X321821429Y-100273405D01*
X321820285Y-100250126D01*
X321820285Y-99775126D01*
X321821429Y-99751847D01*
X321824848Y-99728792D01*
X321830512Y-99706183D01*
X321838364Y-99684239D01*
X321848329Y-99663169D01*
X321860311Y-99643178D01*
X321874195Y-99624458D01*
X321889847Y-99607188D01*
X321907117Y-99591536D01*
X321925837Y-99577652D01*
X321945828Y-99565670D01*
X321966898Y-99555705D01*
X321988842Y-99547853D01*
X322011451Y-99542189D01*
X322034506Y-99538770D01*
X322057785Y-99537626D01*
X322632785Y-99537626D01*
X322656064Y-99538770D01*
X322656064Y-99538770D01*
G37*
D11*
X322345285Y-100012626D03*
M02*
