G04 #@! TF.GenerationSoftware,KiCad,Pcbnew,(5.1.4-0)*
G04 #@! TF.CreationDate,2021-10-20T15:18:00-05:00*
G04 #@! TF.ProjectId,bottom_plate,626f7474-6f6d-45f7-906c-6174652e6b69,rev?*
G04 #@! TF.SameCoordinates,Original*
G04 #@! TF.FileFunction,Copper,L2,Bot*
G04 #@! TF.FilePolarity,Positive*
%FSLAX46Y46*%
G04 Gerber Fmt 4.6, Leading zero omitted, Abs format (unit mm)*
G04 Created by KiCad (PCBNEW (5.1.4-0)) date 2021-10-20 15:18:00*
%MOMM*%
%LPD*%
G04 APERTURE LIST*
%ADD10C,3.500000*%
%ADD11C,0.100000*%
%ADD12C,0.950000*%
%ADD13C,0.500000*%
%ADD14C,0.250000*%
%ADD15C,0.254000*%
G04 APERTURE END LIST*
D10*
X73819060Y-79176797D03*
D11*
G36*
X320906064Y-99538854D02*
G01*
X320929119Y-99542273D01*
X320951728Y-99547937D01*
X320973672Y-99555789D01*
X320994742Y-99565754D01*
X321014733Y-99577736D01*
X321033453Y-99591620D01*
X321050723Y-99607272D01*
X321066375Y-99624542D01*
X321080259Y-99643262D01*
X321092241Y-99663253D01*
X321102206Y-99684323D01*
X321110058Y-99706267D01*
X321115722Y-99728876D01*
X321119141Y-99751931D01*
X321120285Y-99775210D01*
X321120285Y-100250210D01*
X321119141Y-100273489D01*
X321115722Y-100296544D01*
X321110058Y-100319153D01*
X321102206Y-100341097D01*
X321092241Y-100362167D01*
X321080259Y-100382158D01*
X321066375Y-100400878D01*
X321050723Y-100418148D01*
X321033453Y-100433800D01*
X321014733Y-100447684D01*
X320994742Y-100459666D01*
X320973672Y-100469631D01*
X320951728Y-100477483D01*
X320929119Y-100483147D01*
X320906064Y-100486566D01*
X320882785Y-100487710D01*
X320307785Y-100487710D01*
X320284506Y-100486566D01*
X320261451Y-100483147D01*
X320238842Y-100477483D01*
X320216898Y-100469631D01*
X320195828Y-100459666D01*
X320175837Y-100447684D01*
X320157117Y-100433800D01*
X320139847Y-100418148D01*
X320124195Y-100400878D01*
X320110311Y-100382158D01*
X320098329Y-100362167D01*
X320088364Y-100341097D01*
X320080512Y-100319153D01*
X320074848Y-100296544D01*
X320071429Y-100273489D01*
X320070285Y-100250210D01*
X320070285Y-99775210D01*
X320071429Y-99751931D01*
X320074848Y-99728876D01*
X320080512Y-99706267D01*
X320088364Y-99684323D01*
X320098329Y-99663253D01*
X320110311Y-99643262D01*
X320124195Y-99624542D01*
X320139847Y-99607272D01*
X320157117Y-99591620D01*
X320175837Y-99577736D01*
X320195828Y-99565754D01*
X320216898Y-99555789D01*
X320238842Y-99547937D01*
X320261451Y-99542273D01*
X320284506Y-99538854D01*
X320307785Y-99537710D01*
X320882785Y-99537710D01*
X320906064Y-99538854D01*
X320906064Y-99538854D01*
G37*
D12*
X320595285Y-100012710D03*
D11*
G36*
X322656064Y-99538854D02*
G01*
X322679119Y-99542273D01*
X322701728Y-99547937D01*
X322723672Y-99555789D01*
X322744742Y-99565754D01*
X322764733Y-99577736D01*
X322783453Y-99591620D01*
X322800723Y-99607272D01*
X322816375Y-99624542D01*
X322830259Y-99643262D01*
X322842241Y-99663253D01*
X322852206Y-99684323D01*
X322860058Y-99706267D01*
X322865722Y-99728876D01*
X322869141Y-99751931D01*
X322870285Y-99775210D01*
X322870285Y-100250210D01*
X322869141Y-100273489D01*
X322865722Y-100296544D01*
X322860058Y-100319153D01*
X322852206Y-100341097D01*
X322842241Y-100362167D01*
X322830259Y-100382158D01*
X322816375Y-100400878D01*
X322800723Y-100418148D01*
X322783453Y-100433800D01*
X322764733Y-100447684D01*
X322744742Y-100459666D01*
X322723672Y-100469631D01*
X322701728Y-100477483D01*
X322679119Y-100483147D01*
X322656064Y-100486566D01*
X322632785Y-100487710D01*
X322057785Y-100487710D01*
X322034506Y-100486566D01*
X322011451Y-100483147D01*
X321988842Y-100477483D01*
X321966898Y-100469631D01*
X321945828Y-100459666D01*
X321925837Y-100447684D01*
X321907117Y-100433800D01*
X321889847Y-100418148D01*
X321874195Y-100400878D01*
X321860311Y-100382158D01*
X321848329Y-100362167D01*
X321838364Y-100341097D01*
X321830512Y-100319153D01*
X321824848Y-100296544D01*
X321821429Y-100273489D01*
X321820285Y-100250210D01*
X321820285Y-99775210D01*
X321821429Y-99751931D01*
X321824848Y-99728876D01*
X321830512Y-99706267D01*
X321838364Y-99684323D01*
X321848329Y-99663253D01*
X321860311Y-99643262D01*
X321874195Y-99624542D01*
X321889847Y-99607272D01*
X321907117Y-99591620D01*
X321925837Y-99577736D01*
X321945828Y-99565754D01*
X321966898Y-99555789D01*
X321988842Y-99547937D01*
X322011451Y-99542273D01*
X322034506Y-99538854D01*
X322057785Y-99537710D01*
X322632785Y-99537710D01*
X322656064Y-99538854D01*
X322656064Y-99538854D01*
G37*
D12*
X322345285Y-100012710D03*
D10*
X73820040Y-158948739D03*
X150019380Y-73223743D03*
X154187295Y-177998755D03*
X245269780Y-73223743D03*
X241102993Y-177998755D03*
X321470256Y-79176797D03*
X321470100Y-158948675D03*
D13*
X323851535Y-100012710D03*
D14*
X322345285Y-100012710D02*
X323851535Y-100012710D01*
D15*
G36*
X245918243Y-70799193D02*
G01*
X246376820Y-70971241D01*
X246793240Y-71229082D01*
X247151653Y-71562898D01*
X247441342Y-71964046D01*
X247515825Y-72101802D01*
X247517266Y-72104845D01*
X249305105Y-75084577D01*
X249310388Y-75094461D01*
X249317548Y-75103185D01*
X249324260Y-75112227D01*
X249327019Y-75114725D01*
X249329383Y-75117606D01*
X249338101Y-75124761D01*
X249346454Y-75132325D01*
X249349648Y-75134238D01*
X249352528Y-75136601D01*
X249362473Y-75141917D01*
X249372142Y-75147706D01*
X249375648Y-75148959D01*
X249378934Y-75150715D01*
X249389731Y-75153990D01*
X249400339Y-75157780D01*
X249404020Y-75158324D01*
X249407586Y-75159406D01*
X249418812Y-75160512D01*
X249429958Y-75162160D01*
X249441130Y-75161606D01*
X273837029Y-75161606D01*
X317876861Y-79922649D01*
X317886460Y-79924359D01*
X317899192Y-79924103D01*
X317911901Y-79924224D01*
X317914125Y-79923804D01*
X317916395Y-79923758D01*
X317928831Y-79921024D01*
X317941322Y-79918663D01*
X317943424Y-79917816D01*
X317945638Y-79917329D01*
X317957283Y-79912229D01*
X317969092Y-79907469D01*
X317970992Y-79906225D01*
X317973064Y-79905318D01*
X317983480Y-79898052D01*
X317994144Y-79891072D01*
X317995765Y-79889482D01*
X317997621Y-79888187D01*
X318006420Y-79879028D01*
X318015517Y-79870103D01*
X318021014Y-79862043D01*
X318716437Y-78979125D01*
X319463256Y-78979125D01*
X319463256Y-79374469D01*
X319540384Y-79762217D01*
X319691676Y-80127468D01*
X319911317Y-80456185D01*
X320190868Y-80735736D01*
X320519585Y-80955377D01*
X320884836Y-81106669D01*
X321272584Y-81183797D01*
X321667928Y-81183797D01*
X322055676Y-81106669D01*
X322420927Y-80955377D01*
X322749644Y-80735736D01*
X323029195Y-80456185D01*
X323248836Y-80127468D01*
X323400128Y-79762217D01*
X323477256Y-79374469D01*
X323477256Y-78979125D01*
X323400128Y-78591377D01*
X323248836Y-78226126D01*
X323029195Y-77897409D01*
X322749644Y-77617858D01*
X322420927Y-77398217D01*
X322055676Y-77246925D01*
X321667928Y-77169797D01*
X321272584Y-77169797D01*
X320884836Y-77246925D01*
X320519585Y-77398217D01*
X320190868Y-77617858D01*
X319911317Y-77897409D01*
X319691676Y-78226126D01*
X319540384Y-78591377D01*
X319463256Y-78979125D01*
X318716437Y-78979125D01*
X319843658Y-77547993D01*
X320189612Y-77263847D01*
X320585560Y-77051564D01*
X321015196Y-76920232D01*
X321462166Y-76874850D01*
X321909435Y-76917149D01*
X322339968Y-77045516D01*
X322737369Y-77255064D01*
X323086501Y-77537812D01*
X323374064Y-77882986D01*
X323589823Y-78278758D01*
X323704514Y-78621206D01*
X323704804Y-78622482D01*
X324298550Y-80403278D01*
X324298865Y-80405328D01*
X324303266Y-80417423D01*
X324304985Y-80422579D01*
X324305833Y-80424477D01*
X324309103Y-80433465D01*
X324311920Y-80438108D01*
X324314136Y-80443071D01*
X324319670Y-80450884D01*
X324324633Y-80459064D01*
X324328301Y-80463067D01*
X324331443Y-80467503D01*
X324338402Y-80474092D01*
X324344860Y-80481141D01*
X324349233Y-80484348D01*
X324353185Y-80488090D01*
X324361298Y-80493196D01*
X324369004Y-80498847D01*
X324373924Y-80501142D01*
X324378526Y-80504038D01*
X324387473Y-80507461D01*
X324396139Y-80511503D01*
X324401411Y-80512794D01*
X324406490Y-80514737D01*
X324415925Y-80516347D01*
X324417938Y-80516840D01*
X324423308Y-80517607D01*
X324436005Y-80519774D01*
X324438080Y-80519717D01*
X328599903Y-81114263D01*
X328603237Y-81114409D01*
X329046868Y-81157908D01*
X329463238Y-81283617D01*
X329847258Y-81487804D01*
X330184307Y-81762694D01*
X330461539Y-82097811D01*
X330668406Y-82480404D01*
X330797019Y-82895882D01*
X330843234Y-83335591D01*
X330843264Y-83344232D01*
X330843289Y-154774035D01*
X330800116Y-155214340D01*
X330674407Y-155630710D01*
X330470219Y-156014731D01*
X330195330Y-156351779D01*
X329860213Y-156629011D01*
X329477620Y-156835878D01*
X329062142Y-156964491D01*
X328622433Y-157010706D01*
X328613744Y-157010736D01*
X325641209Y-157010801D01*
X325630022Y-157010246D01*
X325618862Y-157011896D01*
X325607647Y-157013001D01*
X325604085Y-157014081D01*
X325600403Y-157014626D01*
X325589784Y-157018420D01*
X325578995Y-157021693D01*
X325575713Y-157023447D01*
X325572207Y-157024700D01*
X325562532Y-157030493D01*
X325552590Y-157035807D01*
X325549714Y-157038167D01*
X325546518Y-157040081D01*
X325538153Y-157047656D01*
X325529445Y-157054803D01*
X325527085Y-157057678D01*
X325524325Y-157060178D01*
X325517599Y-157069238D01*
X325510451Y-157077948D01*
X325505181Y-157087807D01*
X323721996Y-160059783D01*
X323454158Y-160485676D01*
X323117851Y-160841747D01*
X322718782Y-161125716D01*
X322272162Y-161326762D01*
X321794999Y-161437230D01*
X321305463Y-161452914D01*
X320822206Y-161373214D01*
X320363630Y-161201165D01*
X319947208Y-160943324D01*
X319588795Y-160609508D01*
X319299109Y-160208364D01*
X319224623Y-160070605D01*
X319223181Y-160067559D01*
X318433247Y-158751003D01*
X319463100Y-158751003D01*
X319463100Y-159146347D01*
X319540228Y-159534095D01*
X319691520Y-159899346D01*
X319911161Y-160228063D01*
X320190712Y-160507614D01*
X320519429Y-160727255D01*
X320884680Y-160878547D01*
X321272428Y-160955675D01*
X321667772Y-160955675D01*
X322055520Y-160878547D01*
X322420771Y-160727255D01*
X322749488Y-160507614D01*
X323029039Y-160228063D01*
X323248680Y-159899346D01*
X323399972Y-159534095D01*
X323477100Y-159146347D01*
X323477100Y-158751003D01*
X323399972Y-158363255D01*
X323248680Y-157998004D01*
X323029039Y-157669287D01*
X322749488Y-157389736D01*
X322420771Y-157170095D01*
X322055520Y-157018803D01*
X321667772Y-156941675D01*
X321272428Y-156941675D01*
X320884680Y-157018803D01*
X320519429Y-157170095D01*
X320190712Y-157389736D01*
X319911161Y-157669287D01*
X319691520Y-157998004D01*
X319540228Y-158363255D01*
X319463100Y-158751003D01*
X318433247Y-158751003D01*
X317435342Y-157087829D01*
X317430057Y-157077942D01*
X317422902Y-157069224D01*
X317416187Y-157060178D01*
X317413424Y-157057676D01*
X317411062Y-157054798D01*
X317402350Y-157047649D01*
X317393993Y-157040081D01*
X317390797Y-157038168D01*
X317387916Y-157035803D01*
X317377967Y-157030486D01*
X317368304Y-157024700D01*
X317364798Y-157023447D01*
X317361510Y-157021690D01*
X317350719Y-157018417D01*
X317340108Y-157014626D01*
X317336422Y-157014081D01*
X317332858Y-157013000D01*
X317321641Y-157011895D01*
X317310489Y-157010246D01*
X317299312Y-157010800D01*
X302424643Y-157011161D01*
X302414302Y-157010532D01*
X302402272Y-157012174D01*
X302390220Y-157013361D01*
X302387477Y-157014193D01*
X302384635Y-157014581D01*
X302373166Y-157018534D01*
X302361568Y-157022053D01*
X302359041Y-157023404D01*
X302356328Y-157024339D01*
X302345846Y-157030457D01*
X302335162Y-157036168D01*
X302332948Y-157037985D01*
X302330469Y-157039432D01*
X302321381Y-157047478D01*
X302312018Y-157055163D01*
X302310200Y-157057378D01*
X302308052Y-157059280D01*
X302300711Y-157068941D01*
X302293023Y-157078309D01*
X302288149Y-157087428D01*
X292811555Y-172488732D01*
X252703760Y-172488732D01*
X252700528Y-172489050D01*
X252700120Y-172489040D01*
X252699438Y-172489158D01*
X252681425Y-172490932D01*
X252652773Y-172499623D01*
X252652029Y-172500021D01*
X244047412Y-174873073D01*
X244041456Y-174873982D01*
X244033009Y-174877045D01*
X244031594Y-174877435D01*
X244026055Y-174879566D01*
X244013308Y-174884188D01*
X244012026Y-174884964D01*
X244010648Y-174885494D01*
X243999281Y-174892677D01*
X243987692Y-174899691D01*
X243986594Y-174900695D01*
X243985337Y-174901489D01*
X243975565Y-174910776D01*
X243965592Y-174919893D01*
X243964709Y-174921094D01*
X243963634Y-174922116D01*
X243955886Y-174933097D01*
X243947859Y-174944017D01*
X243947225Y-174945371D01*
X243946372Y-174946581D01*
X243940913Y-174958866D01*
X243935173Y-174971138D01*
X243934817Y-174972586D01*
X243934214Y-174973943D01*
X243931247Y-174987102D01*
X243929813Y-174992932D01*
X243929602Y-174994395D01*
X243927628Y-175003151D01*
X243927475Y-175009168D01*
X243430890Y-178457944D01*
X243294233Y-178907457D01*
X243076076Y-179315861D01*
X242782746Y-179674114D01*
X242425417Y-179968570D01*
X242017702Y-180188011D01*
X241575132Y-180324080D01*
X241114553Y-180371596D01*
X240653521Y-180328747D01*
X240209593Y-180197167D01*
X239799677Y-179981865D01*
X239433824Y-179686555D01*
X239431600Y-179684349D01*
X238113665Y-177801083D01*
X239095993Y-177801083D01*
X239095993Y-178196427D01*
X239173121Y-178584175D01*
X239324413Y-178949426D01*
X239544054Y-179278143D01*
X239823605Y-179557694D01*
X240152322Y-179777335D01*
X240517573Y-179928627D01*
X240905321Y-180005755D01*
X241300665Y-180005755D01*
X241688413Y-179928627D01*
X242053664Y-179777335D01*
X242382381Y-179557694D01*
X242661932Y-179278143D01*
X242881573Y-178949426D01*
X243032865Y-178584175D01*
X243109993Y-178196427D01*
X243109993Y-177801083D01*
X243032865Y-177413335D01*
X242881573Y-177048084D01*
X242661932Y-176719367D01*
X242382381Y-176439816D01*
X242053664Y-176220175D01*
X241688413Y-176068883D01*
X241300665Y-175991755D01*
X240905321Y-175991755D01*
X240517573Y-176068883D01*
X240152322Y-176220175D01*
X239823605Y-176439816D01*
X239544054Y-176719367D01*
X239324413Y-177048084D01*
X239173121Y-177413335D01*
X239095993Y-177801083D01*
X238113665Y-177801083D01*
X237359809Y-176723860D01*
X237353867Y-176714399D01*
X237346110Y-176706190D01*
X237338757Y-176697614D01*
X237335846Y-176695329D01*
X237333303Y-176692637D01*
X237324087Y-176686095D01*
X237315208Y-176679123D01*
X237311908Y-176677449D01*
X237308887Y-176675305D01*
X237298579Y-176670690D01*
X237288505Y-176665581D01*
X237284938Y-176664582D01*
X237281560Y-176663070D01*
X237270549Y-176660554D01*
X237259671Y-176657509D01*
X237255980Y-176657226D01*
X237252371Y-176656401D01*
X237241085Y-176656082D01*
X237229819Y-176655217D01*
X237226140Y-176655660D01*
X237222441Y-176655555D01*
X237211310Y-176657444D01*
X237200092Y-176658793D01*
X237189472Y-176662266D01*
X230647466Y-178446450D01*
X230635697Y-178449185D01*
X230626226Y-178453467D01*
X230616516Y-178457171D01*
X230606299Y-178463587D01*
X213082618Y-188562390D01*
X182207268Y-188562156D01*
X164684012Y-178463601D01*
X164673771Y-178457170D01*
X164664045Y-178453460D01*
X164654590Y-178449185D01*
X164642852Y-178446457D01*
X158100821Y-176662268D01*
X158090196Y-176658793D01*
X158078965Y-176657442D01*
X158067845Y-176655555D01*
X158064154Y-176655659D01*
X158060469Y-176655216D01*
X158049190Y-176656082D01*
X158037917Y-176656401D01*
X158034308Y-176657225D01*
X158030616Y-176657509D01*
X158019741Y-176660553D01*
X158008728Y-176663069D01*
X158005350Y-176664581D01*
X158001783Y-176665580D01*
X157991702Y-176670693D01*
X157981401Y-176675305D01*
X157978383Y-176677447D01*
X157975079Y-176679123D01*
X157966191Y-176686102D01*
X157956985Y-176692637D01*
X157954445Y-176695325D01*
X157951530Y-176697614D01*
X157944168Y-176706201D01*
X157936421Y-176714399D01*
X157930488Y-176723846D01*
X155862302Y-179679185D01*
X155507829Y-179970444D01*
X155099802Y-180189308D01*
X154657035Y-180324748D01*
X154196397Y-180371611D01*
X153735422Y-180328108D01*
X153291678Y-180195896D01*
X152882072Y-179980016D01*
X152522191Y-179688682D01*
X152225753Y-179332997D01*
X152004047Y-178926508D01*
X151863384Y-178477896D01*
X151860533Y-178463956D01*
X151860028Y-178462320D01*
X151764818Y-177801083D01*
X152180295Y-177801083D01*
X152180295Y-178196427D01*
X152257423Y-178584175D01*
X152408715Y-178949426D01*
X152628356Y-179278143D01*
X152907907Y-179557694D01*
X153236624Y-179777335D01*
X153601875Y-179928627D01*
X153989623Y-180005755D01*
X154384967Y-180005755D01*
X154772715Y-179928627D01*
X155137966Y-179777335D01*
X155466683Y-179557694D01*
X155746234Y-179278143D01*
X155965875Y-178949426D01*
X156117167Y-178584175D01*
X156194295Y-178196427D01*
X156194295Y-177801083D01*
X156117167Y-177413335D01*
X155965875Y-177048084D01*
X155746234Y-176719367D01*
X155466683Y-176439816D01*
X155137966Y-176220175D01*
X154772715Y-176068883D01*
X154384967Y-175991755D01*
X153989623Y-175991755D01*
X153601875Y-176068883D01*
X153236624Y-176220175D01*
X152907907Y-176439816D01*
X152628356Y-176719367D01*
X152408715Y-177048084D01*
X152257423Y-177413335D01*
X152180295Y-177801083D01*
X151764818Y-177801083D01*
X151362813Y-175009178D01*
X151362660Y-175003150D01*
X151360683Y-174994380D01*
X151360474Y-174992932D01*
X151359055Y-174987162D01*
X151356074Y-174973942D01*
X151355468Y-174972579D01*
X151355114Y-174971138D01*
X151349403Y-174958928D01*
X151343916Y-174946580D01*
X151343058Y-174945364D01*
X151342428Y-174944017D01*
X151334436Y-174933144D01*
X151326654Y-174922115D01*
X151325576Y-174921090D01*
X151324695Y-174919892D01*
X151314760Y-174910811D01*
X151304951Y-174901488D01*
X151303687Y-174900689D01*
X151302595Y-174899691D01*
X151291080Y-174892722D01*
X151279641Y-174885493D01*
X151278253Y-174884959D01*
X151276979Y-174884188D01*
X151264300Y-174879591D01*
X151258694Y-174877434D01*
X151257263Y-174877039D01*
X151248831Y-174873982D01*
X151242886Y-174873074D01*
X142638254Y-172500019D01*
X142637512Y-172499623D01*
X142608860Y-172490932D01*
X142590852Y-172489158D01*
X142590167Y-172489040D01*
X142589757Y-172489050D01*
X142586525Y-172488732D01*
X102479116Y-172489350D01*
X93001014Y-157087435D01*
X92996137Y-157078309D01*
X92988430Y-157068918D01*
X92981101Y-157059274D01*
X92978961Y-157057379D01*
X92977142Y-157055163D01*
X92967758Y-157047462D01*
X92958683Y-157039427D01*
X92956211Y-157037984D01*
X92953998Y-157036168D01*
X92943309Y-157030454D01*
X92932824Y-157024335D01*
X92930114Y-157023401D01*
X92927592Y-157022053D01*
X92915990Y-157018533D01*
X92904516Y-157014579D01*
X92901679Y-157014192D01*
X92898940Y-157013361D01*
X92886877Y-157012173D01*
X92874849Y-157010532D01*
X92864520Y-157011161D01*
X77990983Y-157010800D01*
X77979806Y-157010246D01*
X77968652Y-157011895D01*
X77957438Y-157013000D01*
X77953875Y-157014081D01*
X77950187Y-157014626D01*
X77939570Y-157018419D01*
X77928786Y-157021690D01*
X77925500Y-157023446D01*
X77921991Y-157024700D01*
X77912319Y-157030491D01*
X77902380Y-157035803D01*
X77899501Y-157038166D01*
X77896302Y-157040081D01*
X77887939Y-157047654D01*
X77879234Y-157054798D01*
X77876872Y-157057676D01*
X77874109Y-157060178D01*
X77867385Y-157069235D01*
X77860239Y-157077942D01*
X77854967Y-157087804D01*
X76071780Y-160059783D01*
X75803942Y-160485676D01*
X75467635Y-160841747D01*
X75068566Y-161125716D01*
X74621946Y-161326762D01*
X74144783Y-161437230D01*
X73655247Y-161452914D01*
X73171990Y-161373214D01*
X72713414Y-161201165D01*
X72296992Y-160943324D01*
X71938579Y-160609508D01*
X71648893Y-160208364D01*
X71574407Y-160070605D01*
X71572965Y-160067559D01*
X70783070Y-158751067D01*
X71813040Y-158751067D01*
X71813040Y-159146411D01*
X71890168Y-159534159D01*
X72041460Y-159899410D01*
X72261101Y-160228127D01*
X72540652Y-160507678D01*
X72869369Y-160727319D01*
X73234620Y-160878611D01*
X73622368Y-160955739D01*
X74017712Y-160955739D01*
X74405460Y-160878611D01*
X74770711Y-160727319D01*
X75099428Y-160507678D01*
X75378979Y-160228127D01*
X75598620Y-159899410D01*
X75749912Y-159534159D01*
X75827040Y-159146411D01*
X75827040Y-158751067D01*
X75749912Y-158363319D01*
X75598620Y-157998068D01*
X75378979Y-157669351D01*
X75099428Y-157389800D01*
X74770711Y-157170159D01*
X74405460Y-157018867D01*
X74017712Y-156941739D01*
X73622368Y-156941739D01*
X73234620Y-157018867D01*
X72869369Y-157170159D01*
X72540652Y-157389800D01*
X72261101Y-157669351D01*
X72041460Y-157998068D01*
X71890168Y-158363319D01*
X71813040Y-158751067D01*
X70783070Y-158751067D01*
X69785122Y-157087822D01*
X69779833Y-157077930D01*
X69772682Y-157069219D01*
X69765971Y-157060178D01*
X69763203Y-157057671D01*
X69760835Y-157054787D01*
X69752128Y-157047643D01*
X69743777Y-157040081D01*
X69740575Y-157038164D01*
X69737688Y-157035795D01*
X69727745Y-157030482D01*
X69718088Y-157024700D01*
X69714576Y-157023445D01*
X69711280Y-157021684D01*
X69700494Y-157018414D01*
X69689892Y-157014626D01*
X69686199Y-157014080D01*
X69682627Y-157012997D01*
X69671424Y-157011895D01*
X69660273Y-157010246D01*
X69649075Y-157010801D01*
X66682711Y-157011159D01*
X66242424Y-156967988D01*
X65826054Y-156842279D01*
X65442033Y-156638091D01*
X65104985Y-156363202D01*
X64827753Y-156028085D01*
X64620886Y-155645492D01*
X64492273Y-155230014D01*
X64446058Y-154790305D01*
X64446027Y-154781378D01*
X64446019Y-154781299D01*
X64446025Y-99775210D01*
X319812042Y-99775210D01*
X319812042Y-100250210D01*
X319821568Y-100346925D01*
X319849778Y-100439923D01*
X319895590Y-100525630D01*
X319957242Y-100600753D01*
X320032365Y-100662405D01*
X320118072Y-100708217D01*
X320211070Y-100736427D01*
X320307785Y-100745953D01*
X320882785Y-100745953D01*
X320979500Y-100736427D01*
X321072498Y-100708217D01*
X321158205Y-100662405D01*
X321233328Y-100600753D01*
X321294980Y-100525630D01*
X321340792Y-100439923D01*
X321369002Y-100346925D01*
X321378528Y-100250210D01*
X321378528Y-99775210D01*
X321562042Y-99775210D01*
X321562042Y-100250210D01*
X321571568Y-100346925D01*
X321599778Y-100439923D01*
X321645590Y-100525630D01*
X321707242Y-100600753D01*
X321782365Y-100662405D01*
X321868072Y-100708217D01*
X321961070Y-100736427D01*
X322057785Y-100745953D01*
X322632785Y-100745953D01*
X322729500Y-100736427D01*
X322822498Y-100708217D01*
X322908205Y-100662405D01*
X322983328Y-100600753D01*
X323044980Y-100525630D01*
X323090792Y-100439923D01*
X323104507Y-100394710D01*
X323516529Y-100394710D01*
X323528341Y-100406522D01*
X323611381Y-100462007D01*
X323703649Y-100500226D01*
X323801600Y-100519710D01*
X323901470Y-100519710D01*
X323999421Y-100500226D01*
X324091689Y-100462007D01*
X324174729Y-100406522D01*
X324245347Y-100335904D01*
X324300832Y-100252864D01*
X324339051Y-100160596D01*
X324358535Y-100062645D01*
X324358535Y-99962775D01*
X324339051Y-99864824D01*
X324300832Y-99772556D01*
X324245347Y-99689516D01*
X324174729Y-99618898D01*
X324091689Y-99563413D01*
X323999421Y-99525194D01*
X323901470Y-99505710D01*
X323801600Y-99505710D01*
X323703649Y-99525194D01*
X323611381Y-99563413D01*
X323528341Y-99618898D01*
X323516529Y-99630710D01*
X323104507Y-99630710D01*
X323090792Y-99585497D01*
X323044980Y-99499790D01*
X322983328Y-99424667D01*
X322908205Y-99363015D01*
X322822498Y-99317203D01*
X322729500Y-99288993D01*
X322632785Y-99279467D01*
X322057785Y-99279467D01*
X321961070Y-99288993D01*
X321868072Y-99317203D01*
X321782365Y-99363015D01*
X321707242Y-99424667D01*
X321645590Y-99499790D01*
X321599778Y-99585497D01*
X321571568Y-99678495D01*
X321562042Y-99775210D01*
X321378528Y-99775210D01*
X321369002Y-99678495D01*
X321340792Y-99585497D01*
X321294980Y-99499790D01*
X321233328Y-99424667D01*
X321158205Y-99363015D01*
X321072498Y-99317203D01*
X320979500Y-99288993D01*
X320882785Y-99279467D01*
X320307785Y-99279467D01*
X320211070Y-99288993D01*
X320118072Y-99317203D01*
X320032365Y-99363015D01*
X319957242Y-99424667D01*
X319895590Y-99499790D01*
X319849778Y-99585497D01*
X319821568Y-99678495D01*
X319812042Y-99775210D01*
X64446025Y-99775210D01*
X64446027Y-89124201D01*
X205412620Y-89124201D01*
X205412620Y-89470299D01*
X205480141Y-89809748D01*
X205612587Y-90129501D01*
X205804869Y-90417272D01*
X206049598Y-90662001D01*
X206337369Y-90854283D01*
X206657122Y-90986729D01*
X206996571Y-91054250D01*
X207342669Y-91054250D01*
X207682118Y-90986729D01*
X208001871Y-90854283D01*
X208289642Y-90662001D01*
X208534371Y-90417272D01*
X208726653Y-90129501D01*
X208859099Y-89809748D01*
X208926620Y-89470299D01*
X208926620Y-89124201D01*
X208859099Y-88784752D01*
X208726653Y-88464999D01*
X208534371Y-88177228D01*
X208289642Y-87932499D01*
X208001871Y-87740217D01*
X207682118Y-87607771D01*
X207342669Y-87540250D01*
X206996571Y-87540250D01*
X206657122Y-87607771D01*
X206337369Y-87740217D01*
X206049598Y-87932499D01*
X205804869Y-88177228D01*
X205612587Y-88464999D01*
X205480141Y-88784752D01*
X205412620Y-89124201D01*
X64446027Y-89124201D01*
X64446028Y-83351427D01*
X64489200Y-82911132D01*
X64614909Y-82494762D01*
X64819096Y-82110742D01*
X65093986Y-81773693D01*
X65429103Y-81496461D01*
X65811696Y-81289594D01*
X66227174Y-81160981D01*
X66665085Y-81114955D01*
X66666963Y-81115244D01*
X66689383Y-81114264D01*
X70852214Y-80519717D01*
X70854290Y-80519774D01*
X70866978Y-80517609D01*
X70872353Y-80516841D01*
X70874373Y-80516347D01*
X70883805Y-80514737D01*
X70888872Y-80512798D01*
X70894153Y-80511506D01*
X70902842Y-80507454D01*
X70911770Y-80504038D01*
X70916359Y-80501150D01*
X70921288Y-80498851D01*
X70929021Y-80493180D01*
X70937110Y-80488089D01*
X70941047Y-80484361D01*
X70945433Y-80481145D01*
X70951910Y-80474076D01*
X70958852Y-80467503D01*
X70961986Y-80463079D01*
X70965660Y-80459069D01*
X70970636Y-80450867D01*
X70976159Y-80443071D01*
X70978369Y-80438123D01*
X70981192Y-80433470D01*
X70984469Y-80424465D01*
X70985311Y-80422579D01*
X70987019Y-80417456D01*
X70991430Y-80405334D01*
X70991746Y-80403278D01*
X71466581Y-78979125D01*
X71812060Y-78979125D01*
X71812060Y-79374469D01*
X71889188Y-79762217D01*
X72040480Y-80127468D01*
X72260121Y-80456185D01*
X72539672Y-80735736D01*
X72868389Y-80955377D01*
X73233640Y-81106669D01*
X73621388Y-81183797D01*
X74016732Y-81183797D01*
X74404480Y-81106669D01*
X74769731Y-80955377D01*
X75098448Y-80735736D01*
X75377999Y-80456185D01*
X75597640Y-80127468D01*
X75748932Y-79762217D01*
X75826060Y-79374469D01*
X75826060Y-78979125D01*
X75748932Y-78591377D01*
X75597640Y-78226126D01*
X75377999Y-77897409D01*
X75098448Y-77617858D01*
X74769731Y-77398217D01*
X74404480Y-77246925D01*
X74016732Y-77169797D01*
X73621388Y-77169797D01*
X73233640Y-77246925D01*
X72868389Y-77398217D01*
X72539672Y-77617858D01*
X72260121Y-77897409D01*
X72040480Y-78226126D01*
X71889188Y-78591377D01*
X71812060Y-78979125D01*
X71466581Y-78979125D01*
X71584741Y-78624735D01*
X71737924Y-78195386D01*
X71968207Y-77809624D01*
X72269028Y-77475944D01*
X72628932Y-77207047D01*
X73034215Y-77013175D01*
X73469432Y-76901717D01*
X73918009Y-76876915D01*
X74362868Y-76939716D01*
X74787045Y-77087724D01*
X75175695Y-77316065D01*
X75445710Y-77546813D01*
X77269293Y-79862059D01*
X77274780Y-79870103D01*
X77283849Y-79879001D01*
X77292674Y-79888187D01*
X77294534Y-79889485D01*
X77296152Y-79891072D01*
X77306793Y-79898037D01*
X77317231Y-79905318D01*
X77319309Y-79906228D01*
X77321205Y-79907469D01*
X77332989Y-79912219D01*
X77344657Y-79917329D01*
X77346876Y-79917817D01*
X77348975Y-79918663D01*
X77361455Y-79921022D01*
X77373900Y-79923758D01*
X77376171Y-79923804D01*
X77378395Y-79924224D01*
X77391103Y-79924103D01*
X77403836Y-79924359D01*
X77413436Y-79922649D01*
X121453277Y-75161606D01*
X145849166Y-75161606D01*
X145860337Y-75162160D01*
X145871481Y-75160512D01*
X145882710Y-75159406D01*
X145886277Y-75158324D01*
X145889956Y-75157780D01*
X145900556Y-75153993D01*
X145911362Y-75150715D01*
X145914652Y-75148956D01*
X145918152Y-75147706D01*
X145927807Y-75141925D01*
X145937768Y-75136601D01*
X145940651Y-75134235D01*
X145943841Y-75132325D01*
X145952185Y-75124769D01*
X145960913Y-75117606D01*
X145963280Y-75114722D01*
X145966034Y-75112228D01*
X145972736Y-75103199D01*
X145979908Y-75094461D01*
X145985199Y-75084562D01*
X147220295Y-73026071D01*
X148012380Y-73026071D01*
X148012380Y-73421415D01*
X148089508Y-73809163D01*
X148240800Y-74174414D01*
X148460441Y-74503131D01*
X148739992Y-74782682D01*
X149068709Y-75002323D01*
X149433960Y-75153615D01*
X149821708Y-75230743D01*
X150217052Y-75230743D01*
X150604800Y-75153615D01*
X150970051Y-75002323D01*
X151298768Y-74782682D01*
X151578319Y-74503131D01*
X151797960Y-74174414D01*
X151949252Y-73809163D01*
X152026380Y-73421415D01*
X152026380Y-73026071D01*
X151949252Y-72638323D01*
X151797960Y-72273072D01*
X151578319Y-71944355D01*
X151298768Y-71664804D01*
X150970051Y-71445163D01*
X150604800Y-71293871D01*
X150217052Y-71216743D01*
X149821708Y-71216743D01*
X149433960Y-71293871D01*
X149068709Y-71445163D01*
X148739992Y-71664804D01*
X148460441Y-71944355D01*
X148240800Y-72273072D01*
X148089508Y-72638323D01*
X148012380Y-73026071D01*
X147220295Y-73026071D01*
X147768364Y-72112624D01*
X148036199Y-71686733D01*
X148372509Y-71330659D01*
X148771576Y-71046691D01*
X149218197Y-70845644D01*
X149695361Y-70735176D01*
X150184897Y-70719492D01*
X150668155Y-70799193D01*
X151126732Y-70971241D01*
X151543152Y-71229082D01*
X151901565Y-71562898D01*
X152191254Y-71964046D01*
X152265737Y-72101802D01*
X152267178Y-72104845D01*
X154055017Y-75084577D01*
X154060300Y-75094461D01*
X154067460Y-75103185D01*
X154074172Y-75112227D01*
X154076931Y-75114725D01*
X154079295Y-75117606D01*
X154088013Y-75124761D01*
X154096366Y-75132325D01*
X154099560Y-75134238D01*
X154102440Y-75136601D01*
X154112385Y-75141917D01*
X154122054Y-75147706D01*
X154125560Y-75148959D01*
X154128846Y-75150715D01*
X154139643Y-75153990D01*
X154150251Y-75157780D01*
X154153932Y-75158324D01*
X154157498Y-75159406D01*
X154168724Y-75160512D01*
X154179870Y-75162160D01*
X154191042Y-75161606D01*
X241099254Y-75161606D01*
X241110425Y-75162160D01*
X241121569Y-75160512D01*
X241132798Y-75159406D01*
X241136365Y-75158324D01*
X241140044Y-75157780D01*
X241150644Y-75153993D01*
X241161450Y-75150715D01*
X241164740Y-75148956D01*
X241168240Y-75147706D01*
X241177895Y-75141925D01*
X241187856Y-75136601D01*
X241190739Y-75134235D01*
X241193929Y-75132325D01*
X241202273Y-75124769D01*
X241211001Y-75117606D01*
X241213368Y-75114722D01*
X241216122Y-75112228D01*
X241222824Y-75103199D01*
X241229996Y-75094461D01*
X241235287Y-75084562D01*
X242470383Y-73026071D01*
X243262780Y-73026071D01*
X243262780Y-73421415D01*
X243339908Y-73809163D01*
X243491200Y-74174414D01*
X243710841Y-74503131D01*
X243990392Y-74782682D01*
X244319109Y-75002323D01*
X244684360Y-75153615D01*
X245072108Y-75230743D01*
X245467452Y-75230743D01*
X245855200Y-75153615D01*
X246220451Y-75002323D01*
X246549168Y-74782682D01*
X246828719Y-74503131D01*
X247048360Y-74174414D01*
X247199652Y-73809163D01*
X247276780Y-73421415D01*
X247276780Y-73026071D01*
X247199652Y-72638323D01*
X247048360Y-72273072D01*
X246828719Y-71944355D01*
X246549168Y-71664804D01*
X246220451Y-71445163D01*
X245855200Y-71293871D01*
X245467452Y-71216743D01*
X245072108Y-71216743D01*
X244684360Y-71293871D01*
X244319109Y-71445163D01*
X243990392Y-71664804D01*
X243710841Y-71944355D01*
X243491200Y-72273072D01*
X243339908Y-72638323D01*
X243262780Y-73026071D01*
X242470383Y-73026071D01*
X243018452Y-72112624D01*
X243286287Y-71686733D01*
X243622597Y-71330659D01*
X244021664Y-71046691D01*
X244468285Y-70845644D01*
X244945449Y-70735176D01*
X245434985Y-70719492D01*
X245918243Y-70799193D01*
X245918243Y-70799193D01*
G37*
X245918243Y-70799193D02*
X246376820Y-70971241D01*
X246793240Y-71229082D01*
X247151653Y-71562898D01*
X247441342Y-71964046D01*
X247515825Y-72101802D01*
X247517266Y-72104845D01*
X249305105Y-75084577D01*
X249310388Y-75094461D01*
X249317548Y-75103185D01*
X249324260Y-75112227D01*
X249327019Y-75114725D01*
X249329383Y-75117606D01*
X249338101Y-75124761D01*
X249346454Y-75132325D01*
X249349648Y-75134238D01*
X249352528Y-75136601D01*
X249362473Y-75141917D01*
X249372142Y-75147706D01*
X249375648Y-75148959D01*
X249378934Y-75150715D01*
X249389731Y-75153990D01*
X249400339Y-75157780D01*
X249404020Y-75158324D01*
X249407586Y-75159406D01*
X249418812Y-75160512D01*
X249429958Y-75162160D01*
X249441130Y-75161606D01*
X273837029Y-75161606D01*
X317876861Y-79922649D01*
X317886460Y-79924359D01*
X317899192Y-79924103D01*
X317911901Y-79924224D01*
X317914125Y-79923804D01*
X317916395Y-79923758D01*
X317928831Y-79921024D01*
X317941322Y-79918663D01*
X317943424Y-79917816D01*
X317945638Y-79917329D01*
X317957283Y-79912229D01*
X317969092Y-79907469D01*
X317970992Y-79906225D01*
X317973064Y-79905318D01*
X317983480Y-79898052D01*
X317994144Y-79891072D01*
X317995765Y-79889482D01*
X317997621Y-79888187D01*
X318006420Y-79879028D01*
X318015517Y-79870103D01*
X318021014Y-79862043D01*
X318716437Y-78979125D01*
X319463256Y-78979125D01*
X319463256Y-79374469D01*
X319540384Y-79762217D01*
X319691676Y-80127468D01*
X319911317Y-80456185D01*
X320190868Y-80735736D01*
X320519585Y-80955377D01*
X320884836Y-81106669D01*
X321272584Y-81183797D01*
X321667928Y-81183797D01*
X322055676Y-81106669D01*
X322420927Y-80955377D01*
X322749644Y-80735736D01*
X323029195Y-80456185D01*
X323248836Y-80127468D01*
X323400128Y-79762217D01*
X323477256Y-79374469D01*
X323477256Y-78979125D01*
X323400128Y-78591377D01*
X323248836Y-78226126D01*
X323029195Y-77897409D01*
X322749644Y-77617858D01*
X322420927Y-77398217D01*
X322055676Y-77246925D01*
X321667928Y-77169797D01*
X321272584Y-77169797D01*
X320884836Y-77246925D01*
X320519585Y-77398217D01*
X320190868Y-77617858D01*
X319911317Y-77897409D01*
X319691676Y-78226126D01*
X319540384Y-78591377D01*
X319463256Y-78979125D01*
X318716437Y-78979125D01*
X319843658Y-77547993D01*
X320189612Y-77263847D01*
X320585560Y-77051564D01*
X321015196Y-76920232D01*
X321462166Y-76874850D01*
X321909435Y-76917149D01*
X322339968Y-77045516D01*
X322737369Y-77255064D01*
X323086501Y-77537812D01*
X323374064Y-77882986D01*
X323589823Y-78278758D01*
X323704514Y-78621206D01*
X323704804Y-78622482D01*
X324298550Y-80403278D01*
X324298865Y-80405328D01*
X324303266Y-80417423D01*
X324304985Y-80422579D01*
X324305833Y-80424477D01*
X324309103Y-80433465D01*
X324311920Y-80438108D01*
X324314136Y-80443071D01*
X324319670Y-80450884D01*
X324324633Y-80459064D01*
X324328301Y-80463067D01*
X324331443Y-80467503D01*
X324338402Y-80474092D01*
X324344860Y-80481141D01*
X324349233Y-80484348D01*
X324353185Y-80488090D01*
X324361298Y-80493196D01*
X324369004Y-80498847D01*
X324373924Y-80501142D01*
X324378526Y-80504038D01*
X324387473Y-80507461D01*
X324396139Y-80511503D01*
X324401411Y-80512794D01*
X324406490Y-80514737D01*
X324415925Y-80516347D01*
X324417938Y-80516840D01*
X324423308Y-80517607D01*
X324436005Y-80519774D01*
X324438080Y-80519717D01*
X328599903Y-81114263D01*
X328603237Y-81114409D01*
X329046868Y-81157908D01*
X329463238Y-81283617D01*
X329847258Y-81487804D01*
X330184307Y-81762694D01*
X330461539Y-82097811D01*
X330668406Y-82480404D01*
X330797019Y-82895882D01*
X330843234Y-83335591D01*
X330843264Y-83344232D01*
X330843289Y-154774035D01*
X330800116Y-155214340D01*
X330674407Y-155630710D01*
X330470219Y-156014731D01*
X330195330Y-156351779D01*
X329860213Y-156629011D01*
X329477620Y-156835878D01*
X329062142Y-156964491D01*
X328622433Y-157010706D01*
X328613744Y-157010736D01*
X325641209Y-157010801D01*
X325630022Y-157010246D01*
X325618862Y-157011896D01*
X325607647Y-157013001D01*
X325604085Y-157014081D01*
X325600403Y-157014626D01*
X325589784Y-157018420D01*
X325578995Y-157021693D01*
X325575713Y-157023447D01*
X325572207Y-157024700D01*
X325562532Y-157030493D01*
X325552590Y-157035807D01*
X325549714Y-157038167D01*
X325546518Y-157040081D01*
X325538153Y-157047656D01*
X325529445Y-157054803D01*
X325527085Y-157057678D01*
X325524325Y-157060178D01*
X325517599Y-157069238D01*
X325510451Y-157077948D01*
X325505181Y-157087807D01*
X323721996Y-160059783D01*
X323454158Y-160485676D01*
X323117851Y-160841747D01*
X322718782Y-161125716D01*
X322272162Y-161326762D01*
X321794999Y-161437230D01*
X321305463Y-161452914D01*
X320822206Y-161373214D01*
X320363630Y-161201165D01*
X319947208Y-160943324D01*
X319588795Y-160609508D01*
X319299109Y-160208364D01*
X319224623Y-160070605D01*
X319223181Y-160067559D01*
X318433247Y-158751003D01*
X319463100Y-158751003D01*
X319463100Y-159146347D01*
X319540228Y-159534095D01*
X319691520Y-159899346D01*
X319911161Y-160228063D01*
X320190712Y-160507614D01*
X320519429Y-160727255D01*
X320884680Y-160878547D01*
X321272428Y-160955675D01*
X321667772Y-160955675D01*
X322055520Y-160878547D01*
X322420771Y-160727255D01*
X322749488Y-160507614D01*
X323029039Y-160228063D01*
X323248680Y-159899346D01*
X323399972Y-159534095D01*
X323477100Y-159146347D01*
X323477100Y-158751003D01*
X323399972Y-158363255D01*
X323248680Y-157998004D01*
X323029039Y-157669287D01*
X322749488Y-157389736D01*
X322420771Y-157170095D01*
X322055520Y-157018803D01*
X321667772Y-156941675D01*
X321272428Y-156941675D01*
X320884680Y-157018803D01*
X320519429Y-157170095D01*
X320190712Y-157389736D01*
X319911161Y-157669287D01*
X319691520Y-157998004D01*
X319540228Y-158363255D01*
X319463100Y-158751003D01*
X318433247Y-158751003D01*
X317435342Y-157087829D01*
X317430057Y-157077942D01*
X317422902Y-157069224D01*
X317416187Y-157060178D01*
X317413424Y-157057676D01*
X317411062Y-157054798D01*
X317402350Y-157047649D01*
X317393993Y-157040081D01*
X317390797Y-157038168D01*
X317387916Y-157035803D01*
X317377967Y-157030486D01*
X317368304Y-157024700D01*
X317364798Y-157023447D01*
X317361510Y-157021690D01*
X317350719Y-157018417D01*
X317340108Y-157014626D01*
X317336422Y-157014081D01*
X317332858Y-157013000D01*
X317321641Y-157011895D01*
X317310489Y-157010246D01*
X317299312Y-157010800D01*
X302424643Y-157011161D01*
X302414302Y-157010532D01*
X302402272Y-157012174D01*
X302390220Y-157013361D01*
X302387477Y-157014193D01*
X302384635Y-157014581D01*
X302373166Y-157018534D01*
X302361568Y-157022053D01*
X302359041Y-157023404D01*
X302356328Y-157024339D01*
X302345846Y-157030457D01*
X302335162Y-157036168D01*
X302332948Y-157037985D01*
X302330469Y-157039432D01*
X302321381Y-157047478D01*
X302312018Y-157055163D01*
X302310200Y-157057378D01*
X302308052Y-157059280D01*
X302300711Y-157068941D01*
X302293023Y-157078309D01*
X302288149Y-157087428D01*
X292811555Y-172488732D01*
X252703760Y-172488732D01*
X252700528Y-172489050D01*
X252700120Y-172489040D01*
X252699438Y-172489158D01*
X252681425Y-172490932D01*
X252652773Y-172499623D01*
X252652029Y-172500021D01*
X244047412Y-174873073D01*
X244041456Y-174873982D01*
X244033009Y-174877045D01*
X244031594Y-174877435D01*
X244026055Y-174879566D01*
X244013308Y-174884188D01*
X244012026Y-174884964D01*
X244010648Y-174885494D01*
X243999281Y-174892677D01*
X243987692Y-174899691D01*
X243986594Y-174900695D01*
X243985337Y-174901489D01*
X243975565Y-174910776D01*
X243965592Y-174919893D01*
X243964709Y-174921094D01*
X243963634Y-174922116D01*
X243955886Y-174933097D01*
X243947859Y-174944017D01*
X243947225Y-174945371D01*
X243946372Y-174946581D01*
X243940913Y-174958866D01*
X243935173Y-174971138D01*
X243934817Y-174972586D01*
X243934214Y-174973943D01*
X243931247Y-174987102D01*
X243929813Y-174992932D01*
X243929602Y-174994395D01*
X243927628Y-175003151D01*
X243927475Y-175009168D01*
X243430890Y-178457944D01*
X243294233Y-178907457D01*
X243076076Y-179315861D01*
X242782746Y-179674114D01*
X242425417Y-179968570D01*
X242017702Y-180188011D01*
X241575132Y-180324080D01*
X241114553Y-180371596D01*
X240653521Y-180328747D01*
X240209593Y-180197167D01*
X239799677Y-179981865D01*
X239433824Y-179686555D01*
X239431600Y-179684349D01*
X238113665Y-177801083D01*
X239095993Y-177801083D01*
X239095993Y-178196427D01*
X239173121Y-178584175D01*
X239324413Y-178949426D01*
X239544054Y-179278143D01*
X239823605Y-179557694D01*
X240152322Y-179777335D01*
X240517573Y-179928627D01*
X240905321Y-180005755D01*
X241300665Y-180005755D01*
X241688413Y-179928627D01*
X242053664Y-179777335D01*
X242382381Y-179557694D01*
X242661932Y-179278143D01*
X242881573Y-178949426D01*
X243032865Y-178584175D01*
X243109993Y-178196427D01*
X243109993Y-177801083D01*
X243032865Y-177413335D01*
X242881573Y-177048084D01*
X242661932Y-176719367D01*
X242382381Y-176439816D01*
X242053664Y-176220175D01*
X241688413Y-176068883D01*
X241300665Y-175991755D01*
X240905321Y-175991755D01*
X240517573Y-176068883D01*
X240152322Y-176220175D01*
X239823605Y-176439816D01*
X239544054Y-176719367D01*
X239324413Y-177048084D01*
X239173121Y-177413335D01*
X239095993Y-177801083D01*
X238113665Y-177801083D01*
X237359809Y-176723860D01*
X237353867Y-176714399D01*
X237346110Y-176706190D01*
X237338757Y-176697614D01*
X237335846Y-176695329D01*
X237333303Y-176692637D01*
X237324087Y-176686095D01*
X237315208Y-176679123D01*
X237311908Y-176677449D01*
X237308887Y-176675305D01*
X237298579Y-176670690D01*
X237288505Y-176665581D01*
X237284938Y-176664582D01*
X237281560Y-176663070D01*
X237270549Y-176660554D01*
X237259671Y-176657509D01*
X237255980Y-176657226D01*
X237252371Y-176656401D01*
X237241085Y-176656082D01*
X237229819Y-176655217D01*
X237226140Y-176655660D01*
X237222441Y-176655555D01*
X237211310Y-176657444D01*
X237200092Y-176658793D01*
X237189472Y-176662266D01*
X230647466Y-178446450D01*
X230635697Y-178449185D01*
X230626226Y-178453467D01*
X230616516Y-178457171D01*
X230606299Y-178463587D01*
X213082618Y-188562390D01*
X182207268Y-188562156D01*
X164684012Y-178463601D01*
X164673771Y-178457170D01*
X164664045Y-178453460D01*
X164654590Y-178449185D01*
X164642852Y-178446457D01*
X158100821Y-176662268D01*
X158090196Y-176658793D01*
X158078965Y-176657442D01*
X158067845Y-176655555D01*
X158064154Y-176655659D01*
X158060469Y-176655216D01*
X158049190Y-176656082D01*
X158037917Y-176656401D01*
X158034308Y-176657225D01*
X158030616Y-176657509D01*
X158019741Y-176660553D01*
X158008728Y-176663069D01*
X158005350Y-176664581D01*
X158001783Y-176665580D01*
X157991702Y-176670693D01*
X157981401Y-176675305D01*
X157978383Y-176677447D01*
X157975079Y-176679123D01*
X157966191Y-176686102D01*
X157956985Y-176692637D01*
X157954445Y-176695325D01*
X157951530Y-176697614D01*
X157944168Y-176706201D01*
X157936421Y-176714399D01*
X157930488Y-176723846D01*
X155862302Y-179679185D01*
X155507829Y-179970444D01*
X155099802Y-180189308D01*
X154657035Y-180324748D01*
X154196397Y-180371611D01*
X153735422Y-180328108D01*
X153291678Y-180195896D01*
X152882072Y-179980016D01*
X152522191Y-179688682D01*
X152225753Y-179332997D01*
X152004047Y-178926508D01*
X151863384Y-178477896D01*
X151860533Y-178463956D01*
X151860028Y-178462320D01*
X151764818Y-177801083D01*
X152180295Y-177801083D01*
X152180295Y-178196427D01*
X152257423Y-178584175D01*
X152408715Y-178949426D01*
X152628356Y-179278143D01*
X152907907Y-179557694D01*
X153236624Y-179777335D01*
X153601875Y-179928627D01*
X153989623Y-180005755D01*
X154384967Y-180005755D01*
X154772715Y-179928627D01*
X155137966Y-179777335D01*
X155466683Y-179557694D01*
X155746234Y-179278143D01*
X155965875Y-178949426D01*
X156117167Y-178584175D01*
X156194295Y-178196427D01*
X156194295Y-177801083D01*
X156117167Y-177413335D01*
X155965875Y-177048084D01*
X155746234Y-176719367D01*
X155466683Y-176439816D01*
X155137966Y-176220175D01*
X154772715Y-176068883D01*
X154384967Y-175991755D01*
X153989623Y-175991755D01*
X153601875Y-176068883D01*
X153236624Y-176220175D01*
X152907907Y-176439816D01*
X152628356Y-176719367D01*
X152408715Y-177048084D01*
X152257423Y-177413335D01*
X152180295Y-177801083D01*
X151764818Y-177801083D01*
X151362813Y-175009178D01*
X151362660Y-175003150D01*
X151360683Y-174994380D01*
X151360474Y-174992932D01*
X151359055Y-174987162D01*
X151356074Y-174973942D01*
X151355468Y-174972579D01*
X151355114Y-174971138D01*
X151349403Y-174958928D01*
X151343916Y-174946580D01*
X151343058Y-174945364D01*
X151342428Y-174944017D01*
X151334436Y-174933144D01*
X151326654Y-174922115D01*
X151325576Y-174921090D01*
X151324695Y-174919892D01*
X151314760Y-174910811D01*
X151304951Y-174901488D01*
X151303687Y-174900689D01*
X151302595Y-174899691D01*
X151291080Y-174892722D01*
X151279641Y-174885493D01*
X151278253Y-174884959D01*
X151276979Y-174884188D01*
X151264300Y-174879591D01*
X151258694Y-174877434D01*
X151257263Y-174877039D01*
X151248831Y-174873982D01*
X151242886Y-174873074D01*
X142638254Y-172500019D01*
X142637512Y-172499623D01*
X142608860Y-172490932D01*
X142590852Y-172489158D01*
X142590167Y-172489040D01*
X142589757Y-172489050D01*
X142586525Y-172488732D01*
X102479116Y-172489350D01*
X93001014Y-157087435D01*
X92996137Y-157078309D01*
X92988430Y-157068918D01*
X92981101Y-157059274D01*
X92978961Y-157057379D01*
X92977142Y-157055163D01*
X92967758Y-157047462D01*
X92958683Y-157039427D01*
X92956211Y-157037984D01*
X92953998Y-157036168D01*
X92943309Y-157030454D01*
X92932824Y-157024335D01*
X92930114Y-157023401D01*
X92927592Y-157022053D01*
X92915990Y-157018533D01*
X92904516Y-157014579D01*
X92901679Y-157014192D01*
X92898940Y-157013361D01*
X92886877Y-157012173D01*
X92874849Y-157010532D01*
X92864520Y-157011161D01*
X77990983Y-157010800D01*
X77979806Y-157010246D01*
X77968652Y-157011895D01*
X77957438Y-157013000D01*
X77953875Y-157014081D01*
X77950187Y-157014626D01*
X77939570Y-157018419D01*
X77928786Y-157021690D01*
X77925500Y-157023446D01*
X77921991Y-157024700D01*
X77912319Y-157030491D01*
X77902380Y-157035803D01*
X77899501Y-157038166D01*
X77896302Y-157040081D01*
X77887939Y-157047654D01*
X77879234Y-157054798D01*
X77876872Y-157057676D01*
X77874109Y-157060178D01*
X77867385Y-157069235D01*
X77860239Y-157077942D01*
X77854967Y-157087804D01*
X76071780Y-160059783D01*
X75803942Y-160485676D01*
X75467635Y-160841747D01*
X75068566Y-161125716D01*
X74621946Y-161326762D01*
X74144783Y-161437230D01*
X73655247Y-161452914D01*
X73171990Y-161373214D01*
X72713414Y-161201165D01*
X72296992Y-160943324D01*
X71938579Y-160609508D01*
X71648893Y-160208364D01*
X71574407Y-160070605D01*
X71572965Y-160067559D01*
X70783070Y-158751067D01*
X71813040Y-158751067D01*
X71813040Y-159146411D01*
X71890168Y-159534159D01*
X72041460Y-159899410D01*
X72261101Y-160228127D01*
X72540652Y-160507678D01*
X72869369Y-160727319D01*
X73234620Y-160878611D01*
X73622368Y-160955739D01*
X74017712Y-160955739D01*
X74405460Y-160878611D01*
X74770711Y-160727319D01*
X75099428Y-160507678D01*
X75378979Y-160228127D01*
X75598620Y-159899410D01*
X75749912Y-159534159D01*
X75827040Y-159146411D01*
X75827040Y-158751067D01*
X75749912Y-158363319D01*
X75598620Y-157998068D01*
X75378979Y-157669351D01*
X75099428Y-157389800D01*
X74770711Y-157170159D01*
X74405460Y-157018867D01*
X74017712Y-156941739D01*
X73622368Y-156941739D01*
X73234620Y-157018867D01*
X72869369Y-157170159D01*
X72540652Y-157389800D01*
X72261101Y-157669351D01*
X72041460Y-157998068D01*
X71890168Y-158363319D01*
X71813040Y-158751067D01*
X70783070Y-158751067D01*
X69785122Y-157087822D01*
X69779833Y-157077930D01*
X69772682Y-157069219D01*
X69765971Y-157060178D01*
X69763203Y-157057671D01*
X69760835Y-157054787D01*
X69752128Y-157047643D01*
X69743777Y-157040081D01*
X69740575Y-157038164D01*
X69737688Y-157035795D01*
X69727745Y-157030482D01*
X69718088Y-157024700D01*
X69714576Y-157023445D01*
X69711280Y-157021684D01*
X69700494Y-157018414D01*
X69689892Y-157014626D01*
X69686199Y-157014080D01*
X69682627Y-157012997D01*
X69671424Y-157011895D01*
X69660273Y-157010246D01*
X69649075Y-157010801D01*
X66682711Y-157011159D01*
X66242424Y-156967988D01*
X65826054Y-156842279D01*
X65442033Y-156638091D01*
X65104985Y-156363202D01*
X64827753Y-156028085D01*
X64620886Y-155645492D01*
X64492273Y-155230014D01*
X64446058Y-154790305D01*
X64446027Y-154781378D01*
X64446019Y-154781299D01*
X64446025Y-99775210D01*
X319812042Y-99775210D01*
X319812042Y-100250210D01*
X319821568Y-100346925D01*
X319849778Y-100439923D01*
X319895590Y-100525630D01*
X319957242Y-100600753D01*
X320032365Y-100662405D01*
X320118072Y-100708217D01*
X320211070Y-100736427D01*
X320307785Y-100745953D01*
X320882785Y-100745953D01*
X320979500Y-100736427D01*
X321072498Y-100708217D01*
X321158205Y-100662405D01*
X321233328Y-100600753D01*
X321294980Y-100525630D01*
X321340792Y-100439923D01*
X321369002Y-100346925D01*
X321378528Y-100250210D01*
X321378528Y-99775210D01*
X321562042Y-99775210D01*
X321562042Y-100250210D01*
X321571568Y-100346925D01*
X321599778Y-100439923D01*
X321645590Y-100525630D01*
X321707242Y-100600753D01*
X321782365Y-100662405D01*
X321868072Y-100708217D01*
X321961070Y-100736427D01*
X322057785Y-100745953D01*
X322632785Y-100745953D01*
X322729500Y-100736427D01*
X322822498Y-100708217D01*
X322908205Y-100662405D01*
X322983328Y-100600753D01*
X323044980Y-100525630D01*
X323090792Y-100439923D01*
X323104507Y-100394710D01*
X323516529Y-100394710D01*
X323528341Y-100406522D01*
X323611381Y-100462007D01*
X323703649Y-100500226D01*
X323801600Y-100519710D01*
X323901470Y-100519710D01*
X323999421Y-100500226D01*
X324091689Y-100462007D01*
X324174729Y-100406522D01*
X324245347Y-100335904D01*
X324300832Y-100252864D01*
X324339051Y-100160596D01*
X324358535Y-100062645D01*
X324358535Y-99962775D01*
X324339051Y-99864824D01*
X324300832Y-99772556D01*
X324245347Y-99689516D01*
X324174729Y-99618898D01*
X324091689Y-99563413D01*
X323999421Y-99525194D01*
X323901470Y-99505710D01*
X323801600Y-99505710D01*
X323703649Y-99525194D01*
X323611381Y-99563413D01*
X323528341Y-99618898D01*
X323516529Y-99630710D01*
X323104507Y-99630710D01*
X323090792Y-99585497D01*
X323044980Y-99499790D01*
X322983328Y-99424667D01*
X322908205Y-99363015D01*
X322822498Y-99317203D01*
X322729500Y-99288993D01*
X322632785Y-99279467D01*
X322057785Y-99279467D01*
X321961070Y-99288993D01*
X321868072Y-99317203D01*
X321782365Y-99363015D01*
X321707242Y-99424667D01*
X321645590Y-99499790D01*
X321599778Y-99585497D01*
X321571568Y-99678495D01*
X321562042Y-99775210D01*
X321378528Y-99775210D01*
X321369002Y-99678495D01*
X321340792Y-99585497D01*
X321294980Y-99499790D01*
X321233328Y-99424667D01*
X321158205Y-99363015D01*
X321072498Y-99317203D01*
X320979500Y-99288993D01*
X320882785Y-99279467D01*
X320307785Y-99279467D01*
X320211070Y-99288993D01*
X320118072Y-99317203D01*
X320032365Y-99363015D01*
X319957242Y-99424667D01*
X319895590Y-99499790D01*
X319849778Y-99585497D01*
X319821568Y-99678495D01*
X319812042Y-99775210D01*
X64446025Y-99775210D01*
X64446027Y-89124201D01*
X205412620Y-89124201D01*
X205412620Y-89470299D01*
X205480141Y-89809748D01*
X205612587Y-90129501D01*
X205804869Y-90417272D01*
X206049598Y-90662001D01*
X206337369Y-90854283D01*
X206657122Y-90986729D01*
X206996571Y-91054250D01*
X207342669Y-91054250D01*
X207682118Y-90986729D01*
X208001871Y-90854283D01*
X208289642Y-90662001D01*
X208534371Y-90417272D01*
X208726653Y-90129501D01*
X208859099Y-89809748D01*
X208926620Y-89470299D01*
X208926620Y-89124201D01*
X208859099Y-88784752D01*
X208726653Y-88464999D01*
X208534371Y-88177228D01*
X208289642Y-87932499D01*
X208001871Y-87740217D01*
X207682118Y-87607771D01*
X207342669Y-87540250D01*
X206996571Y-87540250D01*
X206657122Y-87607771D01*
X206337369Y-87740217D01*
X206049598Y-87932499D01*
X205804869Y-88177228D01*
X205612587Y-88464999D01*
X205480141Y-88784752D01*
X205412620Y-89124201D01*
X64446027Y-89124201D01*
X64446028Y-83351427D01*
X64489200Y-82911132D01*
X64614909Y-82494762D01*
X64819096Y-82110742D01*
X65093986Y-81773693D01*
X65429103Y-81496461D01*
X65811696Y-81289594D01*
X66227174Y-81160981D01*
X66665085Y-81114955D01*
X66666963Y-81115244D01*
X66689383Y-81114264D01*
X70852214Y-80519717D01*
X70854290Y-80519774D01*
X70866978Y-80517609D01*
X70872353Y-80516841D01*
X70874373Y-80516347D01*
X70883805Y-80514737D01*
X70888872Y-80512798D01*
X70894153Y-80511506D01*
X70902842Y-80507454D01*
X70911770Y-80504038D01*
X70916359Y-80501150D01*
X70921288Y-80498851D01*
X70929021Y-80493180D01*
X70937110Y-80488089D01*
X70941047Y-80484361D01*
X70945433Y-80481145D01*
X70951910Y-80474076D01*
X70958852Y-80467503D01*
X70961986Y-80463079D01*
X70965660Y-80459069D01*
X70970636Y-80450867D01*
X70976159Y-80443071D01*
X70978369Y-80438123D01*
X70981192Y-80433470D01*
X70984469Y-80424465D01*
X70985311Y-80422579D01*
X70987019Y-80417456D01*
X70991430Y-80405334D01*
X70991746Y-80403278D01*
X71466581Y-78979125D01*
X71812060Y-78979125D01*
X71812060Y-79374469D01*
X71889188Y-79762217D01*
X72040480Y-80127468D01*
X72260121Y-80456185D01*
X72539672Y-80735736D01*
X72868389Y-80955377D01*
X73233640Y-81106669D01*
X73621388Y-81183797D01*
X74016732Y-81183797D01*
X74404480Y-81106669D01*
X74769731Y-80955377D01*
X75098448Y-80735736D01*
X75377999Y-80456185D01*
X75597640Y-80127468D01*
X75748932Y-79762217D01*
X75826060Y-79374469D01*
X75826060Y-78979125D01*
X75748932Y-78591377D01*
X75597640Y-78226126D01*
X75377999Y-77897409D01*
X75098448Y-77617858D01*
X74769731Y-77398217D01*
X74404480Y-77246925D01*
X74016732Y-77169797D01*
X73621388Y-77169797D01*
X73233640Y-77246925D01*
X72868389Y-77398217D01*
X72539672Y-77617858D01*
X72260121Y-77897409D01*
X72040480Y-78226126D01*
X71889188Y-78591377D01*
X71812060Y-78979125D01*
X71466581Y-78979125D01*
X71584741Y-78624735D01*
X71737924Y-78195386D01*
X71968207Y-77809624D01*
X72269028Y-77475944D01*
X72628932Y-77207047D01*
X73034215Y-77013175D01*
X73469432Y-76901717D01*
X73918009Y-76876915D01*
X74362868Y-76939716D01*
X74787045Y-77087724D01*
X75175695Y-77316065D01*
X75445710Y-77546813D01*
X77269293Y-79862059D01*
X77274780Y-79870103D01*
X77283849Y-79879001D01*
X77292674Y-79888187D01*
X77294534Y-79889485D01*
X77296152Y-79891072D01*
X77306793Y-79898037D01*
X77317231Y-79905318D01*
X77319309Y-79906228D01*
X77321205Y-79907469D01*
X77332989Y-79912219D01*
X77344657Y-79917329D01*
X77346876Y-79917817D01*
X77348975Y-79918663D01*
X77361455Y-79921022D01*
X77373900Y-79923758D01*
X77376171Y-79923804D01*
X77378395Y-79924224D01*
X77391103Y-79924103D01*
X77403836Y-79924359D01*
X77413436Y-79922649D01*
X121453277Y-75161606D01*
X145849166Y-75161606D01*
X145860337Y-75162160D01*
X145871481Y-75160512D01*
X145882710Y-75159406D01*
X145886277Y-75158324D01*
X145889956Y-75157780D01*
X145900556Y-75153993D01*
X145911362Y-75150715D01*
X145914652Y-75148956D01*
X145918152Y-75147706D01*
X145927807Y-75141925D01*
X145937768Y-75136601D01*
X145940651Y-75134235D01*
X145943841Y-75132325D01*
X145952185Y-75124769D01*
X145960913Y-75117606D01*
X145963280Y-75114722D01*
X145966034Y-75112228D01*
X145972736Y-75103199D01*
X145979908Y-75094461D01*
X145985199Y-75084562D01*
X147220295Y-73026071D01*
X148012380Y-73026071D01*
X148012380Y-73421415D01*
X148089508Y-73809163D01*
X148240800Y-74174414D01*
X148460441Y-74503131D01*
X148739992Y-74782682D01*
X149068709Y-75002323D01*
X149433960Y-75153615D01*
X149821708Y-75230743D01*
X150217052Y-75230743D01*
X150604800Y-75153615D01*
X150970051Y-75002323D01*
X151298768Y-74782682D01*
X151578319Y-74503131D01*
X151797960Y-74174414D01*
X151949252Y-73809163D01*
X152026380Y-73421415D01*
X152026380Y-73026071D01*
X151949252Y-72638323D01*
X151797960Y-72273072D01*
X151578319Y-71944355D01*
X151298768Y-71664804D01*
X150970051Y-71445163D01*
X150604800Y-71293871D01*
X150217052Y-71216743D01*
X149821708Y-71216743D01*
X149433960Y-71293871D01*
X149068709Y-71445163D01*
X148739992Y-71664804D01*
X148460441Y-71944355D01*
X148240800Y-72273072D01*
X148089508Y-72638323D01*
X148012380Y-73026071D01*
X147220295Y-73026071D01*
X147768364Y-72112624D01*
X148036199Y-71686733D01*
X148372509Y-71330659D01*
X148771576Y-71046691D01*
X149218197Y-70845644D01*
X149695361Y-70735176D01*
X150184897Y-70719492D01*
X150668155Y-70799193D01*
X151126732Y-70971241D01*
X151543152Y-71229082D01*
X151901565Y-71562898D01*
X152191254Y-71964046D01*
X152265737Y-72101802D01*
X152267178Y-72104845D01*
X154055017Y-75084577D01*
X154060300Y-75094461D01*
X154067460Y-75103185D01*
X154074172Y-75112227D01*
X154076931Y-75114725D01*
X154079295Y-75117606D01*
X154088013Y-75124761D01*
X154096366Y-75132325D01*
X154099560Y-75134238D01*
X154102440Y-75136601D01*
X154112385Y-75141917D01*
X154122054Y-75147706D01*
X154125560Y-75148959D01*
X154128846Y-75150715D01*
X154139643Y-75153990D01*
X154150251Y-75157780D01*
X154153932Y-75158324D01*
X154157498Y-75159406D01*
X154168724Y-75160512D01*
X154179870Y-75162160D01*
X154191042Y-75161606D01*
X241099254Y-75161606D01*
X241110425Y-75162160D01*
X241121569Y-75160512D01*
X241132798Y-75159406D01*
X241136365Y-75158324D01*
X241140044Y-75157780D01*
X241150644Y-75153993D01*
X241161450Y-75150715D01*
X241164740Y-75148956D01*
X241168240Y-75147706D01*
X241177895Y-75141925D01*
X241187856Y-75136601D01*
X241190739Y-75134235D01*
X241193929Y-75132325D01*
X241202273Y-75124769D01*
X241211001Y-75117606D01*
X241213368Y-75114722D01*
X241216122Y-75112228D01*
X241222824Y-75103199D01*
X241229996Y-75094461D01*
X241235287Y-75084562D01*
X242470383Y-73026071D01*
X243262780Y-73026071D01*
X243262780Y-73421415D01*
X243339908Y-73809163D01*
X243491200Y-74174414D01*
X243710841Y-74503131D01*
X243990392Y-74782682D01*
X244319109Y-75002323D01*
X244684360Y-75153615D01*
X245072108Y-75230743D01*
X245467452Y-75230743D01*
X245855200Y-75153615D01*
X246220451Y-75002323D01*
X246549168Y-74782682D01*
X246828719Y-74503131D01*
X247048360Y-74174414D01*
X247199652Y-73809163D01*
X247276780Y-73421415D01*
X247276780Y-73026071D01*
X247199652Y-72638323D01*
X247048360Y-72273072D01*
X246828719Y-71944355D01*
X246549168Y-71664804D01*
X246220451Y-71445163D01*
X245855200Y-71293871D01*
X245467452Y-71216743D01*
X245072108Y-71216743D01*
X244684360Y-71293871D01*
X244319109Y-71445163D01*
X243990392Y-71664804D01*
X243710841Y-71944355D01*
X243491200Y-72273072D01*
X243339908Y-72638323D01*
X243262780Y-73026071D01*
X242470383Y-73026071D01*
X243018452Y-72112624D01*
X243286287Y-71686733D01*
X243622597Y-71330659D01*
X244021664Y-71046691D01*
X244468285Y-70845644D01*
X244945449Y-70735176D01*
X245434985Y-70719492D01*
X245918243Y-70799193D01*
M02*
