G04 #@! TF.GenerationSoftware,KiCad,Pcbnew,(5.1.2-1)-1*
G04 #@! TF.CreationDate,2020-07-25T23:53:14-05:00*
G04 #@! TF.ProjectId,Dori_bottom_plate,446f7269-5f62-46f7-9474-6f6d5f706c61,rev?*
G04 #@! TF.SameCoordinates,Original*
G04 #@! TF.FileFunction,Legend,Top*
G04 #@! TF.FilePolarity,Positive*
%FSLAX46Y46*%
G04 Gerber Fmt 4.6, Leading zero omitted, Abs format (unit mm)*
G04 Created by KiCad (PCBNEW (5.1.2-1)-1) date 2020-07-25 23:53:14*
%MOMM*%
%LPD*%
G04 APERTURE LIST*
%ADD10C,0.250000*%
%ADD11C,0.200000*%
%ADD12C,0.150000*%
%ADD13C,0.120000*%
%ADD14C,0.100000*%
%ADD15C,1.052000*%
%ADD16C,3.602000*%
%ADD17C,0.902000*%
G04 APERTURE END LIST*
D10*
X123703541Y-115178630D02*
X123370208Y-114702440D01*
X123132113Y-115178630D02*
X123132113Y-114178630D01*
X123513065Y-114178630D01*
X123608303Y-114226250D01*
X123655922Y-114273869D01*
X123703541Y-114369107D01*
X123703541Y-114511964D01*
X123655922Y-114607202D01*
X123608303Y-114654821D01*
X123513065Y-114702440D01*
X123132113Y-114702440D01*
X124132113Y-115178630D02*
X124132113Y-114178630D01*
X125132113Y-114226250D02*
X125036875Y-114178630D01*
X124894017Y-114178630D01*
X124751160Y-114226250D01*
X124655922Y-114321488D01*
X124608303Y-114416726D01*
X124560684Y-114607202D01*
X124560684Y-114750059D01*
X124608303Y-114940535D01*
X124655922Y-115035773D01*
X124751160Y-115131011D01*
X124894017Y-115178630D01*
X124989255Y-115178630D01*
X125132113Y-115131011D01*
X125179732Y-115083392D01*
X125179732Y-114750059D01*
X124989255Y-114750059D01*
X125608303Y-115178630D02*
X125608303Y-114178630D01*
X125608303Y-114654821D02*
X126179732Y-114654821D01*
X126179732Y-115178630D02*
X126179732Y-114178630D01*
X126513065Y-114178630D02*
X127084494Y-114178630D01*
X126798779Y-115178630D02*
X126798779Y-114178630D01*
D11*
X187005238Y-46925476D02*
X187005238Y-45675476D01*
X187302857Y-45675476D01*
X187481428Y-45735000D01*
X187600476Y-45854047D01*
X187660000Y-45973095D01*
X187719523Y-46211190D01*
X187719523Y-46389761D01*
X187660000Y-46627857D01*
X187600476Y-46746904D01*
X187481428Y-46865952D01*
X187302857Y-46925476D01*
X187005238Y-46925476D01*
X188433809Y-46925476D02*
X188314761Y-46865952D01*
X188255238Y-46806428D01*
X188195714Y-46687380D01*
X188195714Y-46330238D01*
X188255238Y-46211190D01*
X188314761Y-46151666D01*
X188433809Y-46092142D01*
X188612380Y-46092142D01*
X188731428Y-46151666D01*
X188790952Y-46211190D01*
X188850476Y-46330238D01*
X188850476Y-46687380D01*
X188790952Y-46806428D01*
X188731428Y-46865952D01*
X188612380Y-46925476D01*
X188433809Y-46925476D01*
X189386190Y-46925476D02*
X189386190Y-46092142D01*
X189386190Y-46330238D02*
X189445714Y-46211190D01*
X189505238Y-46151666D01*
X189624285Y-46092142D01*
X189743333Y-46092142D01*
X190160000Y-46925476D02*
X190160000Y-46092142D01*
X190160000Y-45675476D02*
X190100476Y-45735000D01*
X190160000Y-45794523D01*
X190219523Y-45735000D01*
X190160000Y-45675476D01*
X190160000Y-45794523D01*
X192421904Y-46925476D02*
X192005238Y-46330238D01*
X191707619Y-46925476D02*
X191707619Y-45675476D01*
X192183809Y-45675476D01*
X192302857Y-45735000D01*
X192362380Y-45794523D01*
X192421904Y-45913571D01*
X192421904Y-46092142D01*
X192362380Y-46211190D01*
X192302857Y-46270714D01*
X192183809Y-46330238D01*
X191707619Y-46330238D01*
X193433809Y-46865952D02*
X193314761Y-46925476D01*
X193076666Y-46925476D01*
X192957619Y-46865952D01*
X192898095Y-46746904D01*
X192898095Y-46270714D01*
X192957619Y-46151666D01*
X193076666Y-46092142D01*
X193314761Y-46092142D01*
X193433809Y-46151666D01*
X193493333Y-46270714D01*
X193493333Y-46389761D01*
X192898095Y-46508809D01*
X193910000Y-46092142D02*
X194207619Y-46925476D01*
X194505238Y-46092142D01*
X196588571Y-46925476D02*
X195874285Y-46925476D01*
X196231428Y-46925476D02*
X196231428Y-45675476D01*
X196112380Y-45854047D01*
X195993333Y-45973095D01*
X195874285Y-46032619D01*
X197124285Y-46806428D02*
X197183809Y-46865952D01*
X197124285Y-46925476D01*
X197064761Y-46865952D01*
X197124285Y-46806428D01*
X197124285Y-46925476D01*
X198374285Y-46925476D02*
X197660000Y-46925476D01*
X198017142Y-46925476D02*
X198017142Y-45675476D01*
X197898095Y-45854047D01*
X197779047Y-45973095D01*
X197660000Y-46032619D01*
X183165196Y-48372142D02*
X183165196Y-49384047D01*
X183105672Y-49503095D01*
X183046148Y-49562619D01*
X182927101Y-49622142D01*
X182748529Y-49622142D01*
X182629482Y-49562619D01*
X183165196Y-49145952D02*
X183046148Y-49205476D01*
X182808053Y-49205476D01*
X182689005Y-49145952D01*
X182629482Y-49086428D01*
X182569958Y-48967380D01*
X182569958Y-48610238D01*
X182629482Y-48491190D01*
X182689005Y-48431666D01*
X182808053Y-48372142D01*
X183046148Y-48372142D01*
X183165196Y-48431666D01*
X183760434Y-49205476D02*
X183760434Y-48372142D01*
X183760434Y-47955476D02*
X183700910Y-48015000D01*
X183760434Y-48074523D01*
X183819958Y-48015000D01*
X183760434Y-47955476D01*
X183760434Y-48074523D01*
X184177101Y-48372142D02*
X184653291Y-48372142D01*
X184355672Y-47955476D02*
X184355672Y-49026904D01*
X184415196Y-49145952D01*
X184534244Y-49205476D01*
X184653291Y-49205476D01*
X185069958Y-49205476D02*
X185069958Y-47955476D01*
X185605672Y-49205476D02*
X185605672Y-48550714D01*
X185546148Y-48431666D01*
X185427101Y-48372142D01*
X185248529Y-48372142D01*
X185129482Y-48431666D01*
X185069958Y-48491190D01*
X186736624Y-48372142D02*
X186736624Y-49205476D01*
X186200910Y-48372142D02*
X186200910Y-49026904D01*
X186260434Y-49145952D01*
X186379482Y-49205476D01*
X186558053Y-49205476D01*
X186677101Y-49145952D01*
X186736624Y-49086428D01*
X187331863Y-49205476D02*
X187331863Y-47955476D01*
X187331863Y-48431666D02*
X187450910Y-48372142D01*
X187689005Y-48372142D01*
X187808053Y-48431666D01*
X187867577Y-48491190D01*
X187927101Y-48610238D01*
X187927101Y-48967380D01*
X187867577Y-49086428D01*
X187808053Y-49145952D01*
X187689005Y-49205476D01*
X187450910Y-49205476D01*
X187331863Y-49145952D01*
X188462815Y-49086428D02*
X188522339Y-49145952D01*
X188462815Y-49205476D01*
X188403291Y-49145952D01*
X188462815Y-49086428D01*
X188462815Y-49205476D01*
X189593767Y-49145952D02*
X189474720Y-49205476D01*
X189236624Y-49205476D01*
X189117577Y-49145952D01*
X189058053Y-49086428D01*
X188998529Y-48967380D01*
X188998529Y-48610238D01*
X189058053Y-48491190D01*
X189117577Y-48431666D01*
X189236624Y-48372142D01*
X189474720Y-48372142D01*
X189593767Y-48431666D01*
X190308053Y-49205476D02*
X190189005Y-49145952D01*
X190129482Y-49086428D01*
X190069958Y-48967380D01*
X190069958Y-48610238D01*
X190129482Y-48491190D01*
X190189005Y-48431666D01*
X190308053Y-48372142D01*
X190486624Y-48372142D01*
X190605672Y-48431666D01*
X190665196Y-48491190D01*
X190724720Y-48610238D01*
X190724720Y-48967380D01*
X190665196Y-49086428D01*
X190605672Y-49145952D01*
X190486624Y-49205476D01*
X190308053Y-49205476D01*
X191260434Y-49205476D02*
X191260434Y-48372142D01*
X191260434Y-48491190D02*
X191319958Y-48431666D01*
X191439005Y-48372142D01*
X191617577Y-48372142D01*
X191736624Y-48431666D01*
X191796148Y-48550714D01*
X191796148Y-49205476D01*
X191796148Y-48550714D02*
X191855672Y-48431666D01*
X191974720Y-48372142D01*
X192153291Y-48372142D01*
X192272339Y-48431666D01*
X192331863Y-48550714D01*
X192331863Y-49205476D01*
X193819958Y-47895952D02*
X192748529Y-49503095D01*
X194772339Y-49205476D02*
X194772339Y-47955476D01*
X194772339Y-49145952D02*
X194653291Y-49205476D01*
X194415196Y-49205476D01*
X194296148Y-49145952D01*
X194236624Y-49086428D01*
X194177101Y-48967380D01*
X194177101Y-48610238D01*
X194236624Y-48491190D01*
X194296148Y-48431666D01*
X194415196Y-48372142D01*
X194653291Y-48372142D01*
X194772339Y-48431666D01*
X195367577Y-49205476D02*
X195367577Y-48372142D01*
X195367577Y-47955476D02*
X195308053Y-48015000D01*
X195367577Y-48074523D01*
X195427101Y-48015000D01*
X195367577Y-47955476D01*
X195367577Y-48074523D01*
X196439005Y-49145952D02*
X196319958Y-49205476D01*
X196081863Y-49205476D01*
X195962815Y-49145952D01*
X195903291Y-49026904D01*
X195903291Y-48550714D01*
X195962815Y-48431666D01*
X196081863Y-48372142D01*
X196319958Y-48372142D01*
X196439005Y-48431666D01*
X196498529Y-48550714D01*
X196498529Y-48669761D01*
X195903291Y-48788809D01*
X197034244Y-49205476D02*
X197034244Y-48372142D01*
X197034244Y-48610238D02*
X197093767Y-48491190D01*
X197153291Y-48431666D01*
X197272339Y-48372142D01*
X197391386Y-48372142D01*
X197808053Y-49205476D02*
X197808053Y-48372142D01*
X197808053Y-47955476D02*
X197748529Y-48015000D01*
X197808053Y-48074523D01*
X197867577Y-48015000D01*
X197808053Y-47955476D01*
X197808053Y-48074523D01*
X198939005Y-49145952D02*
X198819958Y-49205476D01*
X198581863Y-49205476D01*
X198462815Y-49145952D01*
X198403291Y-49086428D01*
X198343767Y-48967380D01*
X198343767Y-48610238D01*
X198403291Y-48491190D01*
X198462815Y-48431666D01*
X198581863Y-48372142D01*
X198819958Y-48372142D01*
X198939005Y-48431666D01*
X199474720Y-49205476D02*
X199474720Y-47955476D01*
X199593767Y-48729285D02*
X199950910Y-49205476D01*
X199950910Y-48372142D02*
X199474720Y-48848333D01*
X201022339Y-49205476D02*
X201022339Y-47955476D01*
X201022339Y-49145952D02*
X200903291Y-49205476D01*
X200665196Y-49205476D01*
X200546148Y-49145952D01*
X200486624Y-49086428D01*
X200427101Y-48967380D01*
X200427101Y-48610238D01*
X200486624Y-48491190D01*
X200546148Y-48431666D01*
X200665196Y-48372142D01*
X200903291Y-48372142D01*
X201022339Y-48431666D01*
X201617577Y-49205476D02*
X201617577Y-48372142D01*
X201617577Y-47955476D02*
X201558053Y-48015000D01*
X201617577Y-48074523D01*
X201677101Y-48015000D01*
X201617577Y-47955476D01*
X201617577Y-48074523D01*
X202689005Y-49145952D02*
X202569958Y-49205476D01*
X202331863Y-49205476D01*
X202212815Y-49145952D01*
X202153291Y-49026904D01*
X202153291Y-48550714D01*
X202212815Y-48431666D01*
X202331863Y-48372142D01*
X202569958Y-48372142D01*
X202689005Y-48431666D01*
X202748529Y-48550714D01*
X202748529Y-48669761D01*
X202153291Y-48788809D01*
D10*
X362188244Y-115149255D02*
X361712053Y-115149255D01*
X361712053Y-114149255D01*
X362521577Y-114625446D02*
X362854910Y-114625446D01*
X362997767Y-115149255D02*
X362521577Y-115149255D01*
X362521577Y-114149255D01*
X362997767Y-114149255D01*
X363759672Y-114625446D02*
X363426339Y-114625446D01*
X363426339Y-115149255D02*
X363426339Y-114149255D01*
X363902529Y-114149255D01*
X364140625Y-114149255D02*
X364712053Y-114149255D01*
X364426339Y-115149255D02*
X364426339Y-114149255D01*
D11*
X288045196Y-48372142D02*
X288045196Y-49384047D01*
X287985672Y-49503095D01*
X287926148Y-49562619D01*
X287807101Y-49622142D01*
X287628529Y-49622142D01*
X287509482Y-49562619D01*
X288045196Y-49145952D02*
X287926148Y-49205476D01*
X287688053Y-49205476D01*
X287569005Y-49145952D01*
X287509482Y-49086428D01*
X287449958Y-48967380D01*
X287449958Y-48610238D01*
X287509482Y-48491190D01*
X287569005Y-48431666D01*
X287688053Y-48372142D01*
X287926148Y-48372142D01*
X288045196Y-48431666D01*
X288640434Y-49205476D02*
X288640434Y-48372142D01*
X288640434Y-47955476D02*
X288580910Y-48015000D01*
X288640434Y-48074523D01*
X288699958Y-48015000D01*
X288640434Y-47955476D01*
X288640434Y-48074523D01*
X289057101Y-48372142D02*
X289533291Y-48372142D01*
X289235672Y-47955476D02*
X289235672Y-49026904D01*
X289295196Y-49145952D01*
X289414244Y-49205476D01*
X289533291Y-49205476D01*
X289949958Y-49205476D02*
X289949958Y-47955476D01*
X290485672Y-49205476D02*
X290485672Y-48550714D01*
X290426148Y-48431666D01*
X290307101Y-48372142D01*
X290128529Y-48372142D01*
X290009482Y-48431666D01*
X289949958Y-48491190D01*
X291616624Y-48372142D02*
X291616624Y-49205476D01*
X291080910Y-48372142D02*
X291080910Y-49026904D01*
X291140434Y-49145952D01*
X291259482Y-49205476D01*
X291438053Y-49205476D01*
X291557101Y-49145952D01*
X291616624Y-49086428D01*
X292211863Y-49205476D02*
X292211863Y-47955476D01*
X292211863Y-48431666D02*
X292330910Y-48372142D01*
X292569005Y-48372142D01*
X292688053Y-48431666D01*
X292747577Y-48491190D01*
X292807101Y-48610238D01*
X292807101Y-48967380D01*
X292747577Y-49086428D01*
X292688053Y-49145952D01*
X292569005Y-49205476D01*
X292330910Y-49205476D01*
X292211863Y-49145952D01*
X293342815Y-49086428D02*
X293402339Y-49145952D01*
X293342815Y-49205476D01*
X293283291Y-49145952D01*
X293342815Y-49086428D01*
X293342815Y-49205476D01*
X294473767Y-49145952D02*
X294354720Y-49205476D01*
X294116624Y-49205476D01*
X293997577Y-49145952D01*
X293938053Y-49086428D01*
X293878529Y-48967380D01*
X293878529Y-48610238D01*
X293938053Y-48491190D01*
X293997577Y-48431666D01*
X294116624Y-48372142D01*
X294354720Y-48372142D01*
X294473767Y-48431666D01*
X295188053Y-49205476D02*
X295069005Y-49145952D01*
X295009482Y-49086428D01*
X294949958Y-48967380D01*
X294949958Y-48610238D01*
X295009482Y-48491190D01*
X295069005Y-48431666D01*
X295188053Y-48372142D01*
X295366624Y-48372142D01*
X295485672Y-48431666D01*
X295545196Y-48491190D01*
X295604720Y-48610238D01*
X295604720Y-48967380D01*
X295545196Y-49086428D01*
X295485672Y-49145952D01*
X295366624Y-49205476D01*
X295188053Y-49205476D01*
X296140434Y-49205476D02*
X296140434Y-48372142D01*
X296140434Y-48491190D02*
X296199958Y-48431666D01*
X296319005Y-48372142D01*
X296497577Y-48372142D01*
X296616624Y-48431666D01*
X296676148Y-48550714D01*
X296676148Y-49205476D01*
X296676148Y-48550714D02*
X296735672Y-48431666D01*
X296854720Y-48372142D01*
X297033291Y-48372142D01*
X297152339Y-48431666D01*
X297211863Y-48550714D01*
X297211863Y-49205476D01*
X298699958Y-47895952D02*
X297628529Y-49503095D01*
X299652339Y-49205476D02*
X299652339Y-47955476D01*
X299652339Y-49145952D02*
X299533291Y-49205476D01*
X299295196Y-49205476D01*
X299176148Y-49145952D01*
X299116624Y-49086428D01*
X299057101Y-48967380D01*
X299057101Y-48610238D01*
X299116624Y-48491190D01*
X299176148Y-48431666D01*
X299295196Y-48372142D01*
X299533291Y-48372142D01*
X299652339Y-48431666D01*
X300247577Y-49205476D02*
X300247577Y-48372142D01*
X300247577Y-47955476D02*
X300188053Y-48015000D01*
X300247577Y-48074523D01*
X300307101Y-48015000D01*
X300247577Y-47955476D01*
X300247577Y-48074523D01*
X301319005Y-49145952D02*
X301199958Y-49205476D01*
X300961863Y-49205476D01*
X300842815Y-49145952D01*
X300783291Y-49026904D01*
X300783291Y-48550714D01*
X300842815Y-48431666D01*
X300961863Y-48372142D01*
X301199958Y-48372142D01*
X301319005Y-48431666D01*
X301378529Y-48550714D01*
X301378529Y-48669761D01*
X300783291Y-48788809D01*
X301914244Y-49205476D02*
X301914244Y-48372142D01*
X301914244Y-48610238D02*
X301973767Y-48491190D01*
X302033291Y-48431666D01*
X302152339Y-48372142D01*
X302271386Y-48372142D01*
X302688053Y-49205476D02*
X302688053Y-48372142D01*
X302688053Y-47955476D02*
X302628529Y-48015000D01*
X302688053Y-48074523D01*
X302747577Y-48015000D01*
X302688053Y-47955476D01*
X302688053Y-48074523D01*
X303819005Y-49145952D02*
X303699958Y-49205476D01*
X303461863Y-49205476D01*
X303342815Y-49145952D01*
X303283291Y-49086428D01*
X303223767Y-48967380D01*
X303223767Y-48610238D01*
X303283291Y-48491190D01*
X303342815Y-48431666D01*
X303461863Y-48372142D01*
X303699958Y-48372142D01*
X303819005Y-48431666D01*
X304354720Y-49205476D02*
X304354720Y-47955476D01*
X304473767Y-48729285D02*
X304830910Y-49205476D01*
X304830910Y-48372142D02*
X304354720Y-48848333D01*
X305902339Y-49205476D02*
X305902339Y-47955476D01*
X305902339Y-49145952D02*
X305783291Y-49205476D01*
X305545196Y-49205476D01*
X305426148Y-49145952D01*
X305366624Y-49086428D01*
X305307101Y-48967380D01*
X305307101Y-48610238D01*
X305366624Y-48491190D01*
X305426148Y-48431666D01*
X305545196Y-48372142D01*
X305783291Y-48372142D01*
X305902339Y-48431666D01*
X306497577Y-49205476D02*
X306497577Y-48372142D01*
X306497577Y-47955476D02*
X306438053Y-48015000D01*
X306497577Y-48074523D01*
X306557101Y-48015000D01*
X306497577Y-47955476D01*
X306497577Y-48074523D01*
X307569005Y-49145952D02*
X307449958Y-49205476D01*
X307211863Y-49205476D01*
X307092815Y-49145952D01*
X307033291Y-49026904D01*
X307033291Y-48550714D01*
X307092815Y-48431666D01*
X307211863Y-48372142D01*
X307449958Y-48372142D01*
X307569005Y-48431666D01*
X307628529Y-48550714D01*
X307628529Y-48669761D01*
X307033291Y-48788809D01*
X291885238Y-46925476D02*
X291885238Y-45675476D01*
X292182857Y-45675476D01*
X292361428Y-45735000D01*
X292480476Y-45854047D01*
X292540000Y-45973095D01*
X292599523Y-46211190D01*
X292599523Y-46389761D01*
X292540000Y-46627857D01*
X292480476Y-46746904D01*
X292361428Y-46865952D01*
X292182857Y-46925476D01*
X291885238Y-46925476D01*
X293313809Y-46925476D02*
X293194761Y-46865952D01*
X293135238Y-46806428D01*
X293075714Y-46687380D01*
X293075714Y-46330238D01*
X293135238Y-46211190D01*
X293194761Y-46151666D01*
X293313809Y-46092142D01*
X293492380Y-46092142D01*
X293611428Y-46151666D01*
X293670952Y-46211190D01*
X293730476Y-46330238D01*
X293730476Y-46687380D01*
X293670952Y-46806428D01*
X293611428Y-46865952D01*
X293492380Y-46925476D01*
X293313809Y-46925476D01*
X294266190Y-46925476D02*
X294266190Y-46092142D01*
X294266190Y-46330238D02*
X294325714Y-46211190D01*
X294385238Y-46151666D01*
X294504285Y-46092142D01*
X294623333Y-46092142D01*
X295040000Y-46925476D02*
X295040000Y-46092142D01*
X295040000Y-45675476D02*
X294980476Y-45735000D01*
X295040000Y-45794523D01*
X295099523Y-45735000D01*
X295040000Y-45675476D01*
X295040000Y-45794523D01*
X297301904Y-46925476D02*
X296885238Y-46330238D01*
X296587619Y-46925476D02*
X296587619Y-45675476D01*
X297063809Y-45675476D01*
X297182857Y-45735000D01*
X297242380Y-45794523D01*
X297301904Y-45913571D01*
X297301904Y-46092142D01*
X297242380Y-46211190D01*
X297182857Y-46270714D01*
X297063809Y-46330238D01*
X296587619Y-46330238D01*
X298313809Y-46865952D02*
X298194761Y-46925476D01*
X297956666Y-46925476D01*
X297837619Y-46865952D01*
X297778095Y-46746904D01*
X297778095Y-46270714D01*
X297837619Y-46151666D01*
X297956666Y-46092142D01*
X298194761Y-46092142D01*
X298313809Y-46151666D01*
X298373333Y-46270714D01*
X298373333Y-46389761D01*
X297778095Y-46508809D01*
X298790000Y-46092142D02*
X299087619Y-46925476D01*
X299385238Y-46092142D01*
X301468571Y-46925476D02*
X300754285Y-46925476D01*
X301111428Y-46925476D02*
X301111428Y-45675476D01*
X300992380Y-45854047D01*
X300873333Y-45973095D01*
X300754285Y-46032619D01*
X302004285Y-46806428D02*
X302063809Y-46865952D01*
X302004285Y-46925476D01*
X301944761Y-46865952D01*
X302004285Y-46806428D01*
X302004285Y-46925476D01*
X303254285Y-46925476D02*
X302540000Y-46925476D01*
X302897142Y-46925476D02*
X302897142Y-45675476D01*
X302778095Y-45854047D01*
X302659047Y-45973095D01*
X302540000Y-46032619D01*
D12*
X98568452Y-138358630D02*
X98568452Y-139072916D01*
X98520833Y-139215773D01*
X98425595Y-139311011D01*
X98282738Y-139358630D01*
X98187500Y-139358630D01*
X99520833Y-139358630D02*
X99044642Y-139358630D01*
X99044642Y-138358630D01*
X100425595Y-139263392D02*
X100377976Y-139311011D01*
X100235119Y-139358630D01*
X100139880Y-139358630D01*
X99997023Y-139311011D01*
X99901785Y-139215773D01*
X99854166Y-139120535D01*
X99806547Y-138930059D01*
X99806547Y-138787202D01*
X99854166Y-138596726D01*
X99901785Y-138501488D01*
X99997023Y-138406250D01*
X100139880Y-138358630D01*
X100235119Y-138358630D01*
X100377976Y-138406250D01*
X100425595Y-138453869D01*
X101139880Y-138358630D02*
X101139880Y-139072916D01*
X101092261Y-139215773D01*
X100997023Y-139311011D01*
X100854166Y-139358630D01*
X100758928Y-139358630D01*
X102092261Y-139358630D02*
X101616071Y-139358630D01*
X101616071Y-138358630D01*
X102997023Y-139263392D02*
X102949404Y-139311011D01*
X102806547Y-139358630D01*
X102711309Y-139358630D01*
X102568452Y-139311011D01*
X102473214Y-139215773D01*
X102425595Y-139120535D01*
X102377976Y-138930059D01*
X102377976Y-138787202D01*
X102425595Y-138596726D01*
X102473214Y-138501488D01*
X102568452Y-138406250D01*
X102711309Y-138358630D01*
X102806547Y-138358630D01*
X102949404Y-138406250D01*
X102997023Y-138453869D01*
X103711309Y-138358630D02*
X103711309Y-139072916D01*
X103663690Y-139215773D01*
X103568452Y-139311011D01*
X103425595Y-139358630D01*
X103330357Y-139358630D01*
X104663690Y-139358630D02*
X104187500Y-139358630D01*
X104187500Y-138358630D01*
X105568452Y-139263392D02*
X105520833Y-139311011D01*
X105377976Y-139358630D01*
X105282738Y-139358630D01*
X105139880Y-139311011D01*
X105044642Y-139215773D01*
X104997023Y-139120535D01*
X104949404Y-138930059D01*
X104949404Y-138787202D01*
X104997023Y-138596726D01*
X105044642Y-138501488D01*
X105139880Y-138406250D01*
X105282738Y-138358630D01*
X105377976Y-138358630D01*
X105520833Y-138406250D01*
X105568452Y-138453869D01*
X106282738Y-138358630D02*
X106282738Y-139072916D01*
X106235119Y-139215773D01*
X106139880Y-139311011D01*
X105997023Y-139358630D01*
X105901785Y-139358630D01*
X107235119Y-139358630D02*
X106758928Y-139358630D01*
X106758928Y-138358630D01*
X108139880Y-139263392D02*
X108092261Y-139311011D01*
X107949404Y-139358630D01*
X107854166Y-139358630D01*
X107711309Y-139311011D01*
X107616071Y-139215773D01*
X107568452Y-139120535D01*
X107520833Y-138930059D01*
X107520833Y-138787202D01*
X107568452Y-138596726D01*
X107616071Y-138501488D01*
X107711309Y-138406250D01*
X107854166Y-138358630D01*
X107949404Y-138358630D01*
X108092261Y-138406250D01*
X108139880Y-138453869D01*
D13*
X390241250Y-81133767D02*
X390241250Y-80791233D01*
X389221250Y-81133767D02*
X389221250Y-80791233D01*
X101316250Y-81133767D02*
X101316250Y-80791233D01*
X100296250Y-81133767D02*
X100296250Y-80791233D01*
%LPC*%
D14*
G36*
X390020029Y-79512766D02*
G01*
X390045559Y-79516553D01*
X390070595Y-79522825D01*
X390094896Y-79531520D01*
X390118227Y-79542555D01*
X390140365Y-79555823D01*
X390161095Y-79571198D01*
X390180219Y-79588531D01*
X390197552Y-79607655D01*
X390212927Y-79628385D01*
X390226195Y-79650523D01*
X390237230Y-79673854D01*
X390245925Y-79698155D01*
X390252197Y-79723191D01*
X390255984Y-79748721D01*
X390257250Y-79774500D01*
X390257250Y-80400500D01*
X390255984Y-80426279D01*
X390252197Y-80451809D01*
X390245925Y-80476845D01*
X390237230Y-80501146D01*
X390226195Y-80524477D01*
X390212927Y-80546615D01*
X390197552Y-80567345D01*
X390180219Y-80586469D01*
X390161095Y-80603802D01*
X390140365Y-80619177D01*
X390118227Y-80632445D01*
X390094896Y-80643480D01*
X390070595Y-80652175D01*
X390045559Y-80658447D01*
X390020029Y-80662234D01*
X389994250Y-80663500D01*
X389468250Y-80663500D01*
X389442471Y-80662234D01*
X389416941Y-80658447D01*
X389391905Y-80652175D01*
X389367604Y-80643480D01*
X389344273Y-80632445D01*
X389322135Y-80619177D01*
X389301405Y-80603802D01*
X389282281Y-80586469D01*
X389264948Y-80567345D01*
X389249573Y-80546615D01*
X389236305Y-80524477D01*
X389225270Y-80501146D01*
X389216575Y-80476845D01*
X389210303Y-80451809D01*
X389206516Y-80426279D01*
X389205250Y-80400500D01*
X389205250Y-79774500D01*
X389206516Y-79748721D01*
X389210303Y-79723191D01*
X389216575Y-79698155D01*
X389225270Y-79673854D01*
X389236305Y-79650523D01*
X389249573Y-79628385D01*
X389264948Y-79607655D01*
X389282281Y-79588531D01*
X389301405Y-79571198D01*
X389322135Y-79555823D01*
X389344273Y-79542555D01*
X389367604Y-79531520D01*
X389391905Y-79522825D01*
X389416941Y-79516553D01*
X389442471Y-79512766D01*
X389468250Y-79511500D01*
X389994250Y-79511500D01*
X390020029Y-79512766D01*
X390020029Y-79512766D01*
G37*
D15*
X389731250Y-80087500D03*
D14*
G36*
X390020029Y-81262766D02*
G01*
X390045559Y-81266553D01*
X390070595Y-81272825D01*
X390094896Y-81281520D01*
X390118227Y-81292555D01*
X390140365Y-81305823D01*
X390161095Y-81321198D01*
X390180219Y-81338531D01*
X390197552Y-81357655D01*
X390212927Y-81378385D01*
X390226195Y-81400523D01*
X390237230Y-81423854D01*
X390245925Y-81448155D01*
X390252197Y-81473191D01*
X390255984Y-81498721D01*
X390257250Y-81524500D01*
X390257250Y-82150500D01*
X390255984Y-82176279D01*
X390252197Y-82201809D01*
X390245925Y-82226845D01*
X390237230Y-82251146D01*
X390226195Y-82274477D01*
X390212927Y-82296615D01*
X390197552Y-82317345D01*
X390180219Y-82336469D01*
X390161095Y-82353802D01*
X390140365Y-82369177D01*
X390118227Y-82382445D01*
X390094896Y-82393480D01*
X390070595Y-82402175D01*
X390045559Y-82408447D01*
X390020029Y-82412234D01*
X389994250Y-82413500D01*
X389468250Y-82413500D01*
X389442471Y-82412234D01*
X389416941Y-82408447D01*
X389391905Y-82402175D01*
X389367604Y-82393480D01*
X389344273Y-82382445D01*
X389322135Y-82369177D01*
X389301405Y-82353802D01*
X389282281Y-82336469D01*
X389264948Y-82317345D01*
X389249573Y-82296615D01*
X389236305Y-82274477D01*
X389225270Y-82251146D01*
X389216575Y-82226845D01*
X389210303Y-82201809D01*
X389206516Y-82176279D01*
X389205250Y-82150500D01*
X389205250Y-81524500D01*
X389206516Y-81498721D01*
X389210303Y-81473191D01*
X389216575Y-81448155D01*
X389225270Y-81423854D01*
X389236305Y-81400523D01*
X389249573Y-81378385D01*
X389264948Y-81357655D01*
X389282281Y-81338531D01*
X389301405Y-81321198D01*
X389322135Y-81305823D01*
X389344273Y-81292555D01*
X389367604Y-81281520D01*
X389391905Y-81272825D01*
X389416941Y-81266553D01*
X389442471Y-81262766D01*
X389468250Y-81261500D01*
X389994250Y-81261500D01*
X390020029Y-81262766D01*
X390020029Y-81262766D01*
G37*
D15*
X389731250Y-81837500D03*
D14*
G36*
X101095029Y-79512766D02*
G01*
X101120559Y-79516553D01*
X101145595Y-79522825D01*
X101169896Y-79531520D01*
X101193227Y-79542555D01*
X101215365Y-79555823D01*
X101236095Y-79571198D01*
X101255219Y-79588531D01*
X101272552Y-79607655D01*
X101287927Y-79628385D01*
X101301195Y-79650523D01*
X101312230Y-79673854D01*
X101320925Y-79698155D01*
X101327197Y-79723191D01*
X101330984Y-79748721D01*
X101332250Y-79774500D01*
X101332250Y-80400500D01*
X101330984Y-80426279D01*
X101327197Y-80451809D01*
X101320925Y-80476845D01*
X101312230Y-80501146D01*
X101301195Y-80524477D01*
X101287927Y-80546615D01*
X101272552Y-80567345D01*
X101255219Y-80586469D01*
X101236095Y-80603802D01*
X101215365Y-80619177D01*
X101193227Y-80632445D01*
X101169896Y-80643480D01*
X101145595Y-80652175D01*
X101120559Y-80658447D01*
X101095029Y-80662234D01*
X101069250Y-80663500D01*
X100543250Y-80663500D01*
X100517471Y-80662234D01*
X100491941Y-80658447D01*
X100466905Y-80652175D01*
X100442604Y-80643480D01*
X100419273Y-80632445D01*
X100397135Y-80619177D01*
X100376405Y-80603802D01*
X100357281Y-80586469D01*
X100339948Y-80567345D01*
X100324573Y-80546615D01*
X100311305Y-80524477D01*
X100300270Y-80501146D01*
X100291575Y-80476845D01*
X100285303Y-80451809D01*
X100281516Y-80426279D01*
X100280250Y-80400500D01*
X100280250Y-79774500D01*
X100281516Y-79748721D01*
X100285303Y-79723191D01*
X100291575Y-79698155D01*
X100300270Y-79673854D01*
X100311305Y-79650523D01*
X100324573Y-79628385D01*
X100339948Y-79607655D01*
X100357281Y-79588531D01*
X100376405Y-79571198D01*
X100397135Y-79555823D01*
X100419273Y-79542555D01*
X100442604Y-79531520D01*
X100466905Y-79522825D01*
X100491941Y-79516553D01*
X100517471Y-79512766D01*
X100543250Y-79511500D01*
X101069250Y-79511500D01*
X101095029Y-79512766D01*
X101095029Y-79512766D01*
G37*
D15*
X100806250Y-80087500D03*
D14*
G36*
X101095029Y-81262766D02*
G01*
X101120559Y-81266553D01*
X101145595Y-81272825D01*
X101169896Y-81281520D01*
X101193227Y-81292555D01*
X101215365Y-81305823D01*
X101236095Y-81321198D01*
X101255219Y-81338531D01*
X101272552Y-81357655D01*
X101287927Y-81378385D01*
X101301195Y-81400523D01*
X101312230Y-81423854D01*
X101320925Y-81448155D01*
X101327197Y-81473191D01*
X101330984Y-81498721D01*
X101332250Y-81524500D01*
X101332250Y-82150500D01*
X101330984Y-82176279D01*
X101327197Y-82201809D01*
X101320925Y-82226845D01*
X101312230Y-82251146D01*
X101301195Y-82274477D01*
X101287927Y-82296615D01*
X101272552Y-82317345D01*
X101255219Y-82336469D01*
X101236095Y-82353802D01*
X101215365Y-82369177D01*
X101193227Y-82382445D01*
X101169896Y-82393480D01*
X101145595Y-82402175D01*
X101120559Y-82408447D01*
X101095029Y-82412234D01*
X101069250Y-82413500D01*
X100543250Y-82413500D01*
X100517471Y-82412234D01*
X100491941Y-82408447D01*
X100466905Y-82402175D01*
X100442604Y-82393480D01*
X100419273Y-82382445D01*
X100397135Y-82369177D01*
X100376405Y-82353802D01*
X100357281Y-82336469D01*
X100339948Y-82317345D01*
X100324573Y-82296615D01*
X100311305Y-82274477D01*
X100300270Y-82251146D01*
X100291575Y-82226845D01*
X100285303Y-82201809D01*
X100281516Y-82176279D01*
X100280250Y-82150500D01*
X100280250Y-81524500D01*
X100281516Y-81498721D01*
X100285303Y-81473191D01*
X100291575Y-81448155D01*
X100300270Y-81423854D01*
X100311305Y-81400523D01*
X100324573Y-81378385D01*
X100339948Y-81357655D01*
X100357281Y-81338531D01*
X100376405Y-81321198D01*
X100397135Y-81305823D01*
X100419273Y-81292555D01*
X100442604Y-81281520D01*
X100466905Y-81272825D01*
X100491941Y-81266553D01*
X100517471Y-81262766D01*
X100543250Y-81261500D01*
X101069250Y-81261500D01*
X101095029Y-81262766D01*
X101095029Y-81262766D01*
G37*
D15*
X100806250Y-81837500D03*
D16*
X380206250Y-100012500D03*
X380206250Y-61912500D03*
D17*
X373459375Y-61912500D03*
X373459375Y-60388500D03*
X373459375Y-58864500D03*
X373459375Y-63690500D03*
X373459375Y-65214500D03*
X373459375Y-100012500D03*
X373459375Y-98488500D03*
X373459375Y-96964500D03*
X373459375Y-101536500D03*
X373459375Y-103060500D03*
X278606250Y-43259375D03*
X280130250Y-43259375D03*
X281654250Y-43259375D03*
X277082250Y-43259375D03*
X275558250Y-43259375D03*
X354806250Y-43259375D03*
X356330250Y-43259375D03*
X357854250Y-43259375D03*
X353282250Y-43259375D03*
X351758250Y-43259375D03*
X135731250Y-43259375D03*
X137255250Y-43259375D03*
X138779250Y-43259375D03*
X134207250Y-43259375D03*
X132683250Y-43259375D03*
X211931250Y-43259375D03*
X213455250Y-43259375D03*
X214979250Y-43259375D03*
X210407250Y-43259375D03*
X208883250Y-43259375D03*
X193675000Y-118665625D03*
X195199000Y-118665625D03*
X196723000Y-118665625D03*
X192151000Y-118665625D03*
X190627000Y-118665625D03*
X135731250Y-118665625D03*
X137255250Y-118665625D03*
X138779250Y-118665625D03*
X134207250Y-118665625D03*
X132683250Y-118665625D03*
X296862500Y-118665625D03*
X298386500Y-118665625D03*
X299910500Y-118665625D03*
X295338500Y-118665625D03*
X293814500Y-118665625D03*
X354806250Y-118665625D03*
X356330250Y-118665625D03*
X357854250Y-118665625D03*
X353282250Y-118665625D03*
X351758250Y-118665625D03*
X117006250Y-61912500D03*
X117006250Y-60515500D03*
X117006250Y-59118500D03*
X117006250Y-63309500D03*
X117006250Y-64706500D03*
D16*
X110331250Y-100012500D03*
X354806250Y-61912500D03*
X221853125Y-105171875D03*
D17*
X117005893Y-100012500D03*
X117005893Y-98615500D03*
X117005893Y-97218500D03*
X117005893Y-101409500D03*
X117005893Y-102806500D03*
D16*
X135731250Y-61912500D03*
X211931250Y-61940000D03*
X135731250Y-100012500D03*
X278606250Y-61912500D03*
X268684375Y-105171875D03*
X354806250Y-100012500D03*
X110331250Y-61912500D03*
M02*
