M48
; DRILL file {KiCad (5.1.2-1)-1} date Saturday, July 25, 2020 at 11:53:16 PM
; FORMAT={-:-/ absolute / inch / decimal}
; #@! TF.CreationDate,2020-07-25T23:53:16-05:00
; #@! TF.GenerationSoftware,Kicad,Pcbnew,(5.1.2-1)-1
; #@! TF.FileFunction,NonPlated,1,2,NPTH
FMAT,2
INCH
T1C0.0315
%
G90
G05
T1
X11.5675Y-4.6719
X11.6275Y-4.6719
X11.6875Y-4.6719
X11.7475Y-4.6719
X11.8075Y-4.6719
X14.7031Y-3.8175
X14.7031Y-3.8775
X14.7031Y-3.9375
X14.7031Y-3.9975
X14.7031Y-4.0575
X14.7031Y-2.3175
X14.7031Y-2.3775
X14.7031Y-2.4375
X14.7031Y-2.5075
X14.7031Y-2.5675
X7.505Y-4.6719
X7.565Y-4.6719
X7.625Y-4.6719
X7.685Y-4.6719
X7.745Y-4.6719
X4.6065Y-3.8275
X4.6065Y-3.8825
X4.6065Y-3.9375
X4.6065Y-3.9925
X4.6065Y-4.0475
X4.6065Y-2.3275
X4.6065Y-2.3825
X4.6065Y-2.4375
X4.6065Y-2.4925
X4.6065Y-2.5475
X8.2237Y-1.7031
X8.2837Y-1.7031
X8.3438Y-1.7031
X8.4038Y-1.7031
X8.4637Y-1.7031
X5.2237Y-1.7031
X5.2837Y-1.7031
X5.3438Y-1.7031
X5.4037Y-1.7031
X5.4638Y-1.7031
X13.8487Y-4.6719
X13.9087Y-4.6719
X13.9688Y-4.6719
X14.0288Y-4.6719
X14.0887Y-4.6719
X13.8487Y-1.7031
X13.9087Y-1.7031
X13.9688Y-1.7031
X14.0288Y-1.7031
X14.0887Y-1.7031
X5.2237Y-4.6719
X5.2837Y-4.6719
X5.3438Y-4.6719
X5.4037Y-4.6719
X5.4638Y-4.6719
X10.8487Y-1.7031
X10.9087Y-1.7031
X10.9688Y-1.7031
X11.0288Y-1.7031
X11.0887Y-1.7031
T0
M30
