G04 #@! TF.GenerationSoftware,KiCad,Pcbnew,(5.1.4-0)*
G04 #@! TF.CreationDate,2021-10-13T07:22:11-05:00*
G04 #@! TF.ProjectId,niko_top_plate,6e696b6f-5f74-46f7-905f-706c6174652e,rev?*
G04 #@! TF.SameCoordinates,Original*
G04 #@! TF.FileFunction,Profile,NP*
%FSLAX46Y46*%
G04 Gerber Fmt 4.6, Leading zero omitted, Abs format (unit mm)*
G04 Created by KiCad (PCBNEW (5.1.4-0)) date 2021-10-13 07:22:11*
%MOMM*%
%LPD*%
G04 APERTURE LIST*
%ADD10C,0.050000*%
G04 APERTURE END LIST*
D10*
X66676284Y-176212816D02*
G75*
G02X64295032Y-173831564I0J2381252D01*
G01*
X64295032Y-83343988D02*
G75*
G02X66676284Y-80962736I2381252J0D01*
G01*
X319088996Y-80962736D02*
G75*
G02X321470248Y-83343988I0J-2381252D01*
G01*
X321470248Y-173831564D02*
G75*
G02X319088996Y-176212816I-2381252J0D01*
G01*
X164125944Y-180334286D02*
G75*
G02X159843157Y-178891521I-2199196J549798D01*
G01*
X159843156Y-178891520D02*
X160438468Y-177403240D01*
X164125944Y-180334286D02*
X164605652Y-178593864D01*
X225326618Y-177403900D02*
X251221766Y-170259484D01*
X221639958Y-180334274D02*
G75*
G03X225922745Y-178891509I2199196J549798D01*
G01*
X221639958Y-180334274D02*
X221160250Y-178593852D01*
X225922746Y-178891508D02*
X225327434Y-177403228D01*
X203596566Y-183356414D02*
X221159434Y-178594524D01*
X164605652Y-178593864D02*
X182166390Y-183357020D01*
X76200320Y-176212816D02*
X101203550Y-176213240D01*
X66676284Y-176212816D02*
X71438788Y-176212816D01*
X71437800Y-177999187D02*
X71438788Y-176212816D01*
X76200320Y-177999187D02*
G75*
G02X71437800Y-177999187I-2381260J0D01*
G01*
X76200320Y-177999187D02*
X76200320Y-176212816D01*
X134541190Y-170260090D02*
X122634890Y-170260090D01*
X203597730Y-183357020D02*
X182166390Y-183357020D01*
X263129230Y-170260090D02*
X251221766Y-170259484D01*
X309563800Y-176213240D02*
X284560570Y-176213240D01*
X319088996Y-176212816D02*
X314326320Y-176212816D01*
X309563800Y-177998755D02*
X309563800Y-176213240D01*
X314326320Y-177998755D02*
G75*
G02X309563800Y-177998755I-2381260J0D01*
G01*
X314326320Y-177998755D02*
X314326320Y-176212816D01*
X263129230Y-75009690D02*
X238126428Y-75009606D01*
X309563800Y-80962736D02*
X284560570Y-80962840D01*
X319088996Y-80962736D02*
X314326320Y-80962736D01*
X314326320Y-79176793D02*
X314326320Y-80962736D01*
X309563800Y-79176893D02*
G75*
G02X314326320Y-79176893I2381260J0D01*
G01*
X309563800Y-79176797D02*
X309563800Y-80962736D01*
X238126000Y-73223743D02*
X238126428Y-75009606D01*
X233363480Y-73223743D02*
G75*
G02X238126000Y-73223743I2381260J0D01*
G01*
X233363480Y-73223743D02*
X233363480Y-75009606D01*
X152400640Y-75009606D02*
X233363480Y-75009606D01*
X122634890Y-75009690D02*
X147638120Y-75009606D01*
X76201292Y-80962736D02*
X101203550Y-80962840D01*
X66676284Y-80962840D02*
X71438788Y-80962736D01*
X76200320Y-79176893D02*
X76201292Y-80962736D01*
X71437800Y-79176893D02*
G75*
G02X76200320Y-79176893I2381260J0D01*
G01*
X71437800Y-79176893D02*
X71438788Y-80962736D01*
X147638120Y-73223743D02*
X147638120Y-75009606D01*
X152400640Y-73223743D02*
X152400640Y-75009606D01*
X147638120Y-73223743D02*
G75*
G02X152400640Y-73223743I2381260J0D01*
G01*
X103584810Y-77390950D02*
X101203550Y-80962840D01*
X120253630Y-77390950D02*
X103584810Y-77390950D01*
X122634890Y-75009690D02*
X120253630Y-77390950D01*
X265510490Y-77390950D02*
X263129230Y-75009690D01*
X282179310Y-77390950D02*
X265510490Y-77390950D01*
X284560570Y-80962840D02*
X282179310Y-77390950D01*
X321470248Y-173831564D02*
X321470100Y-83343988D01*
X282179310Y-172641350D02*
X284560570Y-176213240D01*
X265510490Y-172641350D02*
X282179310Y-172641350D01*
X263129230Y-170260090D02*
X265510490Y-172641350D01*
X134541190Y-170260090D02*
X160438468Y-177403240D01*
X120253630Y-172641350D02*
X122634890Y-170260090D01*
X103584810Y-172641350D02*
X120253630Y-172641350D01*
X101203550Y-176213240D02*
X103584810Y-172641350D01*
X64295032Y-83343988D02*
X64295032Y-173831564D01*
M02*
