G04 #@! TF.GenerationSoftware,KiCad,Pcbnew,(5.1.2-1)-1*
G04 #@! TF.CreationDate,2020-07-25T23:38:00-05:00*
G04 #@! TF.ProjectId,Dori_top_plate,446f7269-5f74-46f7-905f-706c6174652e,rev?*
G04 #@! TF.SameCoordinates,Original*
G04 #@! TF.FileFunction,Legend,Top*
G04 #@! TF.FilePolarity,Positive*
%FSLAX46Y46*%
G04 Gerber Fmt 4.6, Leading zero omitted, Abs format (unit mm)*
G04 Created by KiCad (PCBNEW (5.1.2-1)-1) date 2020-07-25 23:38:00*
%MOMM*%
%LPD*%
G04 APERTURE LIST*
%ADD10C,4.102000*%
%ADD11C,0.902000*%
G04 APERTURE END LIST*
%LPC*%
D10*
X221853125Y-105171875D03*
X268697075Y-105171875D03*
X380218950Y-100012500D03*
X380218950Y-59918600D03*
X110331250Y-100012500D03*
X110331250Y-61912500D03*
X354806250Y-61912500D03*
X354806250Y-100012500D03*
X278606250Y-61912500D03*
X135731250Y-100012500D03*
X211931250Y-61912500D03*
X135731250Y-61912500D03*
D11*
X373062500Y-61912500D03*
X373062500Y-60388500D03*
X373062500Y-58864500D03*
X373062500Y-63690500D03*
X373062500Y-65214500D03*
X373062500Y-100012500D03*
X373062500Y-98488500D03*
X373062500Y-96964500D03*
X373062500Y-101536500D03*
X373062500Y-103060500D03*
X278606250Y-43656250D03*
X280130250Y-43656250D03*
X281654250Y-43656250D03*
X277082250Y-43656250D03*
X275558250Y-43656250D03*
X354806250Y-43656250D03*
X356330250Y-43656250D03*
X357854250Y-43656250D03*
X353282250Y-43656250D03*
X351758250Y-43656250D03*
X135731250Y-43656250D03*
X137255250Y-43656250D03*
X138779250Y-43656250D03*
X134207250Y-43656250D03*
X132683250Y-43656250D03*
X211931250Y-43656250D03*
X213455250Y-43656250D03*
X214979250Y-43656250D03*
X210407250Y-43656250D03*
X208883250Y-43656250D03*
X193675000Y-118268750D03*
X195199000Y-118268750D03*
X196723000Y-118268750D03*
X192151000Y-118268750D03*
X190627000Y-118268750D03*
X135731250Y-118268750D03*
X137255250Y-118268750D03*
X138779250Y-118268750D03*
X134207250Y-118268750D03*
X132683250Y-118268750D03*
X296862500Y-118268750D03*
X298386500Y-118268750D03*
X299910500Y-118268750D03*
X295338500Y-118268750D03*
X293814500Y-118268750D03*
X354806250Y-118268750D03*
X356330250Y-118268750D03*
X357854250Y-118268750D03*
X353282250Y-118268750D03*
X351758250Y-118268750D03*
X117403125Y-61912500D03*
X117403125Y-60515500D03*
X117403125Y-59118500D03*
X117403125Y-63309500D03*
X117403125Y-64706500D03*
X117402768Y-100012500D03*
X117402768Y-98615500D03*
X117402768Y-97218500D03*
X117402768Y-101409500D03*
X117402768Y-102806500D03*
M02*
