G04 #@! TF.GenerationSoftware,KiCad,Pcbnew,(5.1.4-0-10_14)*
G04 #@! TF.CreationDate,2021-10-03T11:39:20-05:00*
G04 #@! TF.ProjectId,lucy_top_plate,6c756379-5f74-46f7-905f-706c6174652e,rev?*
G04 #@! TF.SameCoordinates,Original*
G04 #@! TF.FileFunction,Soldermask,Bot*
G04 #@! TF.FilePolarity,Negative*
%FSLAX46Y46*%
G04 Gerber Fmt 4.6, Leading zero omitted, Abs format (unit mm)*
G04 Created by KiCad (PCBNEW (5.1.4-0-10_14)) date 2021-10-03 11:39:20*
%MOMM*%
%LPD*%
G04 APERTURE LIST*
%ADD10C,2.000000*%
%ADD11C,0.100000*%
%ADD12C,1.000000*%
%ADD13C,3.500000*%
G04 APERTURE END LIST*
D10*
X315373170Y-113156700D02*
X315373170Y-101156700D01*
X314373170Y-114156700D02*
X302373170Y-114156700D01*
X301373170Y-113156700D02*
X301373170Y-101156700D01*
X314373170Y-100156700D02*
X302373170Y-100156700D01*
X315373170Y-113156700D02*
G75*
G02X314373170Y-114156700I-1000000J0D01*
G01*
X302373170Y-114156700D02*
G75*
G02X301373170Y-113156700I0J1000000D01*
G01*
X301373170Y-101156700D02*
G75*
G02X302373170Y-100156700I1000000J0D01*
G01*
X314373170Y-100156700D02*
G75*
G02X315373170Y-101156700I0J-1000000D01*
G01*
X162972530Y-56006460D02*
X162972530Y-44006460D01*
X161972530Y-57006460D02*
X149972530Y-57006460D01*
X148972530Y-56006460D02*
X148972530Y-44006460D01*
X161972530Y-43006460D02*
X149972530Y-43006460D01*
X162972530Y-56006460D02*
G75*
G02X161972530Y-57006460I-1000000J0D01*
G01*
X149972530Y-57006460D02*
G75*
G02X148972530Y-56006460I0J1000000D01*
G01*
X148972530Y-44006460D02*
G75*
G02X149972530Y-43006460I1000000J0D01*
G01*
X161972530Y-43006460D02*
G75*
G02X162972530Y-44006460I0J-1000000D01*
G01*
X396336010Y-113156700D02*
X396336010Y-101156700D01*
X395336010Y-114156700D02*
X383336010Y-114156700D01*
X382336010Y-113156700D02*
X382336010Y-101156700D01*
X395336010Y-100156700D02*
X383336010Y-100156700D01*
X396336010Y-113156700D02*
G75*
G02X395336010Y-114156700I-1000000J0D01*
G01*
X383336010Y-114156700D02*
G75*
G02X382336010Y-113156700I0J1000000D01*
G01*
X382336010Y-101156700D02*
G75*
G02X383336010Y-100156700I1000000J0D01*
G01*
X395336010Y-100156700D02*
G75*
G02X396336010Y-101156700I0J-1000000D01*
G01*
X396335890Y-94106428D02*
X396335890Y-82106428D01*
X395335890Y-95106428D02*
X383335890Y-95106428D01*
X382335890Y-94106428D02*
X382335890Y-82106428D01*
X395335890Y-81106428D02*
X383335890Y-81106428D01*
X396335890Y-94106428D02*
G75*
G02X395335890Y-95106428I-1000000J0D01*
G01*
X383335890Y-95106428D02*
G75*
G02X382335890Y-94106428I0J1000000D01*
G01*
X382335890Y-82106428D02*
G75*
G02X383335890Y-81106428I1000000J0D01*
G01*
X395335890Y-81106428D02*
G75*
G02X396335890Y-82106428I0J-1000000D01*
G01*
X396335890Y-75056444D02*
X396335890Y-63056444D01*
X395335890Y-76056444D02*
X383335890Y-76056444D01*
X382335890Y-75056444D02*
X382335890Y-63056444D01*
X395335890Y-62056444D02*
X383335890Y-62056444D01*
X396335890Y-75056444D02*
G75*
G02X395335890Y-76056444I-1000000J0D01*
G01*
X383335890Y-76056444D02*
G75*
G02X382335890Y-75056444I0J1000000D01*
G01*
X382335890Y-63056444D02*
G75*
G02X383335890Y-62056444I1000000J0D01*
G01*
X395335890Y-62056444D02*
G75*
G02X396335890Y-63056444I0J-1000000D01*
G01*
X396336010Y-56006460D02*
X396336010Y-44006460D01*
X395336010Y-57006460D02*
X383336010Y-57006460D01*
X382336010Y-56006460D02*
X382336010Y-44006460D01*
X395336010Y-43006460D02*
X383336010Y-43006460D01*
X396336010Y-56006460D02*
G75*
G02X395336010Y-57006460I-1000000J0D01*
G01*
X383336010Y-57006460D02*
G75*
G02X382336010Y-56006460I0J1000000D01*
G01*
X382336010Y-44006460D02*
G75*
G02X383336010Y-43006460I1000000J0D01*
G01*
X395336010Y-43006460D02*
G75*
G02X396336010Y-44006460I0J-1000000D01*
G01*
X372523410Y-113156700D02*
X372523410Y-101156700D01*
X371523410Y-114156700D02*
X359523410Y-114156700D01*
X358523410Y-113156700D02*
X358523410Y-101156700D01*
X371523410Y-100156700D02*
X359523410Y-100156700D01*
X372523410Y-113156700D02*
G75*
G02X371523410Y-114156700I-1000000J0D01*
G01*
X359523410Y-114156700D02*
G75*
G02X358523410Y-113156700I0J1000000D01*
G01*
X358523410Y-101156700D02*
G75*
G02X359523410Y-100156700I1000000J0D01*
G01*
X371523410Y-100156700D02*
G75*
G02X372523410Y-101156700I0J-1000000D01*
G01*
X353473330Y-113160000D02*
X353473330Y-101160000D01*
X352473330Y-114160000D02*
X340473330Y-114160000D01*
X339473330Y-113160000D02*
X339473330Y-101160000D01*
X352473330Y-100160000D02*
X340473330Y-100160000D01*
X353473330Y-113160000D02*
G75*
G02X352473330Y-114160000I-1000000J0D01*
G01*
X340473330Y-114160000D02*
G75*
G02X339473330Y-113160000I0J1000000D01*
G01*
X339473330Y-101160000D02*
G75*
G02X340473330Y-100160000I1000000J0D01*
G01*
X352473330Y-100160000D02*
G75*
G02X353473330Y-101160000I0J-1000000D01*
G01*
X334423250Y-113156700D02*
X334423250Y-101156700D01*
X333423250Y-114156700D02*
X321423250Y-114156700D01*
X320423250Y-113156700D02*
X320423250Y-101156700D01*
X333423250Y-100156700D02*
X321423250Y-100156700D01*
X334423250Y-113156700D02*
G75*
G02X333423250Y-114156700I-1000000J0D01*
G01*
X321423250Y-114156700D02*
G75*
G02X320423250Y-113156700I0J1000000D01*
G01*
X320423250Y-101156700D02*
G75*
G02X321423250Y-100156700I1000000J0D01*
G01*
X333423250Y-100156700D02*
G75*
G02X334423250Y-101156700I0J-1000000D01*
G01*
X296323090Y-113156700D02*
X296323090Y-101156700D01*
X295323090Y-114156700D02*
X283323090Y-114156700D01*
X282323090Y-113156700D02*
X282323090Y-101156700D01*
X295323090Y-100156700D02*
X283323090Y-100156700D01*
X296323090Y-113156700D02*
G75*
G02X295323090Y-114156700I-1000000J0D01*
G01*
X283323090Y-114156700D02*
G75*
G02X282323090Y-113156700I0J1000000D01*
G01*
X282323090Y-101156700D02*
G75*
G02X283323090Y-100156700I1000000J0D01*
G01*
X295323090Y-100156700D02*
G75*
G02X296323090Y-101156700I0J-1000000D01*
G01*
X277273010Y-113156700D02*
X277273010Y-101156700D01*
X276273010Y-114156700D02*
X264273010Y-114156700D01*
X263273010Y-113156700D02*
X263273010Y-101156700D01*
X276273010Y-100156700D02*
X264273010Y-100156700D01*
X277273010Y-113156700D02*
G75*
G02X276273010Y-114156700I-1000000J0D01*
G01*
X264273010Y-114156700D02*
G75*
G02X263273010Y-113156700I0J1000000D01*
G01*
X263273010Y-101156700D02*
G75*
G02X264273010Y-100156700I1000000J0D01*
G01*
X276273010Y-100156700D02*
G75*
G02X277273010Y-101156700I0J-1000000D01*
G01*
X258222930Y-113156700D02*
X258222930Y-101156700D01*
X257222930Y-114156700D02*
X245222930Y-114156700D01*
X244222930Y-113156700D02*
X244222930Y-101156700D01*
X257222930Y-100156700D02*
X245222930Y-100156700D01*
X258222930Y-113156700D02*
G75*
G02X257222930Y-114156700I-1000000J0D01*
G01*
X245222930Y-114156700D02*
G75*
G02X244222930Y-113156700I0J1000000D01*
G01*
X244222930Y-101156700D02*
G75*
G02X245222930Y-100156700I1000000J0D01*
G01*
X257222930Y-100156700D02*
G75*
G02X258222930Y-101156700I0J-1000000D01*
G01*
X239172850Y-113156700D02*
X239172850Y-101156700D01*
X238172850Y-114156700D02*
X226172850Y-114156700D01*
X225172850Y-113156700D02*
X225172850Y-101156700D01*
X238172850Y-100156700D02*
X226172850Y-100156700D01*
X239172850Y-113156700D02*
G75*
G02X238172850Y-114156700I-1000000J0D01*
G01*
X226172850Y-114156700D02*
G75*
G02X225172850Y-113156700I0J1000000D01*
G01*
X225172850Y-101156700D02*
G75*
G02X226172850Y-100156700I1000000J0D01*
G01*
X238172850Y-100156700D02*
G75*
G02X239172850Y-101156700I0J-1000000D01*
G01*
X220122770Y-113156700D02*
X220122770Y-101156700D01*
X219122770Y-114156700D02*
X207122770Y-114156700D01*
X206122770Y-113156700D02*
X206122770Y-101156700D01*
X219122770Y-100156700D02*
X207122770Y-100156700D01*
X220122770Y-113156700D02*
G75*
G02X219122770Y-114156700I-1000000J0D01*
G01*
X207122770Y-114156700D02*
G75*
G02X206122770Y-113156700I0J1000000D01*
G01*
X206122770Y-101156700D02*
G75*
G02X207122770Y-100156700I1000000J0D01*
G01*
X219122770Y-100156700D02*
G75*
G02X220122770Y-101156700I0J-1000000D01*
G01*
X201072690Y-113156700D02*
X201072690Y-101156700D01*
X200072690Y-114156700D02*
X188072690Y-114156700D01*
X187072690Y-113156700D02*
X187072690Y-101156700D01*
X200072690Y-100156700D02*
X188072690Y-100156700D01*
X201072690Y-113156700D02*
G75*
G02X200072690Y-114156700I-1000000J0D01*
G01*
X188072690Y-114156700D02*
G75*
G02X187072690Y-113156700I0J1000000D01*
G01*
X187072690Y-101156700D02*
G75*
G02X188072690Y-100156700I1000000J0D01*
G01*
X200072690Y-100156700D02*
G75*
G02X201072690Y-101156700I0J-1000000D01*
G01*
X182022610Y-113156700D02*
X182022610Y-101156700D01*
X181022610Y-114156700D02*
X169022610Y-114156700D01*
X168022610Y-113156700D02*
X168022610Y-101156700D01*
X181022610Y-100156700D02*
X169022610Y-100156700D01*
X182022610Y-113156700D02*
G75*
G02X181022610Y-114156700I-1000000J0D01*
G01*
X169022610Y-114156700D02*
G75*
G02X168022610Y-113156700I0J1000000D01*
G01*
X168022610Y-101156700D02*
G75*
G02X169022610Y-100156700I1000000J0D01*
G01*
X181022610Y-100156700D02*
G75*
G02X182022610Y-101156700I0J-1000000D01*
G01*
X162972530Y-113156700D02*
X162972530Y-101156700D01*
X161972530Y-114156700D02*
X149972530Y-114156700D01*
X148972530Y-113156700D02*
X148972530Y-101156700D01*
X161972530Y-100156700D02*
X149972530Y-100156700D01*
X162972530Y-113156700D02*
G75*
G02X161972530Y-114156700I-1000000J0D01*
G01*
X149972530Y-114156700D02*
G75*
G02X148972530Y-113156700I0J1000000D01*
G01*
X148972530Y-101156700D02*
G75*
G02X149972530Y-100156700I1000000J0D01*
G01*
X161972530Y-100156700D02*
G75*
G02X162972530Y-101156700I0J-1000000D01*
G01*
X372523410Y-94106620D02*
X372523410Y-82106620D01*
X371523410Y-95106620D02*
X359523410Y-95106620D01*
X358523410Y-94106620D02*
X358523410Y-82106620D01*
X371523410Y-81106620D02*
X359523410Y-81106620D01*
X372523410Y-94106620D02*
G75*
G02X371523410Y-95106620I-1000000J0D01*
G01*
X359523410Y-95106620D02*
G75*
G02X358523410Y-94106620I0J1000000D01*
G01*
X358523410Y-82106620D02*
G75*
G02X359523410Y-81106620I1000000J0D01*
G01*
X371523410Y-81106620D02*
G75*
G02X372523410Y-82106620I0J-1000000D01*
G01*
X353473330Y-94106620D02*
X353473330Y-82106620D01*
X352473330Y-95106620D02*
X340473330Y-95106620D01*
X339473330Y-94106620D02*
X339473330Y-82106620D01*
X352473330Y-81106620D02*
X340473330Y-81106620D01*
X353473330Y-94106620D02*
G75*
G02X352473330Y-95106620I-1000000J0D01*
G01*
X340473330Y-95106620D02*
G75*
G02X339473330Y-94106620I0J1000000D01*
G01*
X339473330Y-82106620D02*
G75*
G02X340473330Y-81106620I1000000J0D01*
G01*
X352473330Y-81106620D02*
G75*
G02X353473330Y-82106620I0J-1000000D01*
G01*
X334423250Y-94106620D02*
X334423250Y-82106620D01*
X333423250Y-95106620D02*
X321423250Y-95106620D01*
X320423250Y-94106620D02*
X320423250Y-82106620D01*
X333423250Y-81106620D02*
X321423250Y-81106620D01*
X334423250Y-94106620D02*
G75*
G02X333423250Y-95106620I-1000000J0D01*
G01*
X321423250Y-95106620D02*
G75*
G02X320423250Y-94106620I0J1000000D01*
G01*
X320423250Y-82106620D02*
G75*
G02X321423250Y-81106620I1000000J0D01*
G01*
X333423250Y-81106620D02*
G75*
G02X334423250Y-82106620I0J-1000000D01*
G01*
X315373170Y-94106620D02*
X315373170Y-82106620D01*
X314373170Y-95106620D02*
X302373170Y-95106620D01*
X301373170Y-94106620D02*
X301373170Y-82106620D01*
X314373170Y-81106620D02*
X302373170Y-81106620D01*
X315373170Y-94106620D02*
G75*
G02X314373170Y-95106620I-1000000J0D01*
G01*
X302373170Y-95106620D02*
G75*
G02X301373170Y-94106620I0J1000000D01*
G01*
X301373170Y-82106620D02*
G75*
G02X302373170Y-81106620I1000000J0D01*
G01*
X314373170Y-81106620D02*
G75*
G02X315373170Y-82106620I0J-1000000D01*
G01*
X296323090Y-94106620D02*
X296323090Y-82106620D01*
X295323090Y-95106620D02*
X283323090Y-95106620D01*
X282323090Y-94106620D02*
X282323090Y-82106620D01*
X295323090Y-81106620D02*
X283323090Y-81106620D01*
X296323090Y-94106620D02*
G75*
G02X295323090Y-95106620I-1000000J0D01*
G01*
X283323090Y-95106620D02*
G75*
G02X282323090Y-94106620I0J1000000D01*
G01*
X282323090Y-82106620D02*
G75*
G02X283323090Y-81106620I1000000J0D01*
G01*
X295323090Y-81106620D02*
G75*
G02X296323090Y-82106620I0J-1000000D01*
G01*
X277273010Y-94106620D02*
X277273010Y-82106620D01*
X276273010Y-95106620D02*
X264273010Y-95106620D01*
X263273010Y-94106620D02*
X263273010Y-82106620D01*
X276273010Y-81106620D02*
X264273010Y-81106620D01*
X277273010Y-94106620D02*
G75*
G02X276273010Y-95106620I-1000000J0D01*
G01*
X264273010Y-95106620D02*
G75*
G02X263273010Y-94106620I0J1000000D01*
G01*
X263273010Y-82106620D02*
G75*
G02X264273010Y-81106620I1000000J0D01*
G01*
X276273010Y-81106620D02*
G75*
G02X277273010Y-82106620I0J-1000000D01*
G01*
X258222930Y-94106620D02*
X258222930Y-82106620D01*
X257222930Y-95106620D02*
X245222930Y-95106620D01*
X244222930Y-94106620D02*
X244222930Y-82106620D01*
X257222930Y-81106620D02*
X245222930Y-81106620D01*
X258222930Y-94106620D02*
G75*
G02X257222930Y-95106620I-1000000J0D01*
G01*
X245222930Y-95106620D02*
G75*
G02X244222930Y-94106620I0J1000000D01*
G01*
X244222930Y-82106620D02*
G75*
G02X245222930Y-81106620I1000000J0D01*
G01*
X257222930Y-81106620D02*
G75*
G02X258222930Y-82106620I0J-1000000D01*
G01*
X239172850Y-94106620D02*
X239172850Y-82106620D01*
X238172850Y-95106620D02*
X226172850Y-95106620D01*
X225172850Y-94106620D02*
X225172850Y-82106620D01*
X238172850Y-81106620D02*
X226172850Y-81106620D01*
X239172850Y-94106620D02*
G75*
G02X238172850Y-95106620I-1000000J0D01*
G01*
X226172850Y-95106620D02*
G75*
G02X225172850Y-94106620I0J1000000D01*
G01*
X225172850Y-82106620D02*
G75*
G02X226172850Y-81106620I1000000J0D01*
G01*
X238172850Y-81106620D02*
G75*
G02X239172850Y-82106620I0J-1000000D01*
G01*
X220122770Y-94106620D02*
X220122770Y-82106620D01*
X219122770Y-95106620D02*
X207122770Y-95106620D01*
X206122770Y-94106620D02*
X206122770Y-82106620D01*
X219122770Y-81106620D02*
X207122770Y-81106620D01*
X220122770Y-94106620D02*
G75*
G02X219122770Y-95106620I-1000000J0D01*
G01*
X207122770Y-95106620D02*
G75*
G02X206122770Y-94106620I0J1000000D01*
G01*
X206122770Y-82106620D02*
G75*
G02X207122770Y-81106620I1000000J0D01*
G01*
X219122770Y-81106620D02*
G75*
G02X220122770Y-82106620I0J-1000000D01*
G01*
X201072690Y-94106620D02*
X201072690Y-82106620D01*
X200072690Y-95106620D02*
X188072690Y-95106620D01*
X187072690Y-94106620D02*
X187072690Y-82106620D01*
X200072690Y-81106620D02*
X188072690Y-81106620D01*
X201072690Y-94106620D02*
G75*
G02X200072690Y-95106620I-1000000J0D01*
G01*
X188072690Y-95106620D02*
G75*
G02X187072690Y-94106620I0J1000000D01*
G01*
X187072690Y-82106620D02*
G75*
G02X188072690Y-81106620I1000000J0D01*
G01*
X200072690Y-81106620D02*
G75*
G02X201072690Y-82106620I0J-1000000D01*
G01*
X182022610Y-94106620D02*
X182022610Y-82106620D01*
X181022610Y-95106620D02*
X169022610Y-95106620D01*
X168022610Y-94106620D02*
X168022610Y-82106620D01*
X181022610Y-81106620D02*
X169022610Y-81106620D01*
X182022610Y-94106620D02*
G75*
G02X181022610Y-95106620I-1000000J0D01*
G01*
X169022610Y-95106620D02*
G75*
G02X168022610Y-94106620I0J1000000D01*
G01*
X168022610Y-82106620D02*
G75*
G02X169022610Y-81106620I1000000J0D01*
G01*
X181022610Y-81106620D02*
G75*
G02X182022610Y-82106620I0J-1000000D01*
G01*
X162972530Y-94106620D02*
X162972530Y-82106620D01*
X161972530Y-95106620D02*
X149972530Y-95106620D01*
X148972530Y-94106620D02*
X148972530Y-82106620D01*
X161972530Y-81106620D02*
X149972530Y-81106620D01*
X162972530Y-94106620D02*
G75*
G02X161972530Y-95106620I-1000000J0D01*
G01*
X149972530Y-95106620D02*
G75*
G02X148972530Y-94106620I0J1000000D01*
G01*
X148972530Y-82106620D02*
G75*
G02X149972530Y-81106620I1000000J0D01*
G01*
X161972530Y-81106620D02*
G75*
G02X162972530Y-82106620I0J-1000000D01*
G01*
X372523410Y-75056540D02*
X372523410Y-63056540D01*
X371523410Y-76056540D02*
X359523410Y-76056540D01*
X358523410Y-75056540D02*
X358523410Y-63056540D01*
X371523410Y-62056540D02*
X359523410Y-62056540D01*
X372523410Y-75056540D02*
G75*
G02X371523410Y-76056540I-1000000J0D01*
G01*
X359523410Y-76056540D02*
G75*
G02X358523410Y-75056540I0J1000000D01*
G01*
X358523410Y-63056540D02*
G75*
G02X359523410Y-62056540I1000000J0D01*
G01*
X371523410Y-62056540D02*
G75*
G02X372523410Y-63056540I0J-1000000D01*
G01*
X353473330Y-75056540D02*
X353473330Y-63056540D01*
X352473330Y-76056540D02*
X340473330Y-76056540D01*
X339473330Y-75056540D02*
X339473330Y-63056540D01*
X352473330Y-62056540D02*
X340473330Y-62056540D01*
X353473330Y-75056540D02*
G75*
G02X352473330Y-76056540I-1000000J0D01*
G01*
X340473330Y-76056540D02*
G75*
G02X339473330Y-75056540I0J1000000D01*
G01*
X339473330Y-63056540D02*
G75*
G02X340473330Y-62056540I1000000J0D01*
G01*
X352473330Y-62056540D02*
G75*
G02X353473330Y-63056540I0J-1000000D01*
G01*
X334423250Y-75056540D02*
X334423250Y-63056540D01*
X333423250Y-76056540D02*
X321423250Y-76056540D01*
X320423250Y-75056540D02*
X320423250Y-63056540D01*
X333423250Y-62056540D02*
X321423250Y-62056540D01*
X334423250Y-75056540D02*
G75*
G02X333423250Y-76056540I-1000000J0D01*
G01*
X321423250Y-76056540D02*
G75*
G02X320423250Y-75056540I0J1000000D01*
G01*
X320423250Y-63056540D02*
G75*
G02X321423250Y-62056540I1000000J0D01*
G01*
X333423250Y-62056540D02*
G75*
G02X334423250Y-63056540I0J-1000000D01*
G01*
X315373170Y-75056540D02*
X315373170Y-63056540D01*
X314373170Y-76056540D02*
X302373170Y-76056540D01*
X301373170Y-75056540D02*
X301373170Y-63056540D01*
X314373170Y-62056540D02*
X302373170Y-62056540D01*
X315373170Y-75056540D02*
G75*
G02X314373170Y-76056540I-1000000J0D01*
G01*
X302373170Y-76056540D02*
G75*
G02X301373170Y-75056540I0J1000000D01*
G01*
X301373170Y-63056540D02*
G75*
G02X302373170Y-62056540I1000000J0D01*
G01*
X314373170Y-62056540D02*
G75*
G02X315373170Y-63056540I0J-1000000D01*
G01*
X296323090Y-75056540D02*
X296323090Y-63056540D01*
X295323090Y-76056540D02*
X283323090Y-76056540D01*
X282323090Y-75056540D02*
X282323090Y-63056540D01*
X295323090Y-62056540D02*
X283323090Y-62056540D01*
X296323090Y-75056540D02*
G75*
G02X295323090Y-76056540I-1000000J0D01*
G01*
X283323090Y-76056540D02*
G75*
G02X282323090Y-75056540I0J1000000D01*
G01*
X282323090Y-63056540D02*
G75*
G02X283323090Y-62056540I1000000J0D01*
G01*
X295323090Y-62056540D02*
G75*
G02X296323090Y-63056540I0J-1000000D01*
G01*
X277273010Y-75056540D02*
X277273010Y-63056540D01*
X276273010Y-76056540D02*
X264273010Y-76056540D01*
X263273010Y-75056540D02*
X263273010Y-63056540D01*
X276273010Y-62056540D02*
X264273010Y-62056540D01*
X277273010Y-75056540D02*
G75*
G02X276273010Y-76056540I-1000000J0D01*
G01*
X264273010Y-76056540D02*
G75*
G02X263273010Y-75056540I0J1000000D01*
G01*
X263273010Y-63056540D02*
G75*
G02X264273010Y-62056540I1000000J0D01*
G01*
X276273010Y-62056540D02*
G75*
G02X277273010Y-63056540I0J-1000000D01*
G01*
X258222930Y-75056540D02*
X258222930Y-63056540D01*
X257222930Y-76056540D02*
X245222930Y-76056540D01*
X244222930Y-75056540D02*
X244222930Y-63056540D01*
X257222930Y-62056540D02*
X245222930Y-62056540D01*
X258222930Y-75056540D02*
G75*
G02X257222930Y-76056540I-1000000J0D01*
G01*
X245222930Y-76056540D02*
G75*
G02X244222930Y-75056540I0J1000000D01*
G01*
X244222930Y-63056540D02*
G75*
G02X245222930Y-62056540I1000000J0D01*
G01*
X257222930Y-62056540D02*
G75*
G02X258222930Y-63056540I0J-1000000D01*
G01*
X239172850Y-75056540D02*
X239172850Y-63056540D01*
X238172850Y-76056540D02*
X226172850Y-76056540D01*
X225172850Y-75056540D02*
X225172850Y-63056540D01*
X238172850Y-62056540D02*
X226172850Y-62056540D01*
X239172850Y-75056540D02*
G75*
G02X238172850Y-76056540I-1000000J0D01*
G01*
X226172850Y-76056540D02*
G75*
G02X225172850Y-75056540I0J1000000D01*
G01*
X225172850Y-63056540D02*
G75*
G02X226172850Y-62056540I1000000J0D01*
G01*
X238172850Y-62056540D02*
G75*
G02X239172850Y-63056540I0J-1000000D01*
G01*
X220122770Y-75056540D02*
X220122770Y-63056540D01*
X219122770Y-76056540D02*
X207122770Y-76056540D01*
X206122770Y-75056540D02*
X206122770Y-63056540D01*
X219122770Y-62056540D02*
X207122770Y-62056540D01*
X220122770Y-75056540D02*
G75*
G02X219122770Y-76056540I-1000000J0D01*
G01*
X207122770Y-76056540D02*
G75*
G02X206122770Y-75056540I0J1000000D01*
G01*
X206122770Y-63056540D02*
G75*
G02X207122770Y-62056540I1000000J0D01*
G01*
X219122770Y-62056540D02*
G75*
G02X220122770Y-63056540I0J-1000000D01*
G01*
X201072690Y-75056540D02*
X201072690Y-63056540D01*
X200072690Y-76056540D02*
X188072690Y-76056540D01*
X187072690Y-75056540D02*
X187072690Y-63056540D01*
X200072690Y-62056540D02*
X188072690Y-62056540D01*
X201072690Y-75056540D02*
G75*
G02X200072690Y-76056540I-1000000J0D01*
G01*
X188072690Y-76056540D02*
G75*
G02X187072690Y-75056540I0J1000000D01*
G01*
X187072690Y-63056540D02*
G75*
G02X188072690Y-62056540I1000000J0D01*
G01*
X200072690Y-62056540D02*
G75*
G02X201072690Y-63056540I0J-1000000D01*
G01*
X182022610Y-75056540D02*
X182022610Y-63056540D01*
X181022610Y-76056540D02*
X169022610Y-76056540D01*
X168022610Y-75056540D02*
X168022610Y-63056540D01*
X181022610Y-62056540D02*
X169022610Y-62056540D01*
X182022610Y-75056540D02*
G75*
G02X181022610Y-76056540I-1000000J0D01*
G01*
X169022610Y-76056540D02*
G75*
G02X168022610Y-75056540I0J1000000D01*
G01*
X168022610Y-63056540D02*
G75*
G02X169022610Y-62056540I1000000J0D01*
G01*
X181022610Y-62056540D02*
G75*
G02X182022610Y-63056540I0J-1000000D01*
G01*
X162972530Y-75056540D02*
X162972530Y-63056540D01*
X161972530Y-76056540D02*
X149972530Y-76056540D01*
X148972530Y-75056540D02*
X148972530Y-63056540D01*
X161972530Y-62056540D02*
X149972530Y-62056540D01*
X162972530Y-75056540D02*
G75*
G02X161972530Y-76056540I-1000000J0D01*
G01*
X149972530Y-76056540D02*
G75*
G02X148972530Y-75056540I0J1000000D01*
G01*
X148972530Y-63056540D02*
G75*
G02X149972530Y-62056540I1000000J0D01*
G01*
X161972530Y-62056540D02*
G75*
G02X162972530Y-63056540I0J-1000000D01*
G01*
X372523410Y-56006460D02*
X372523410Y-44006460D01*
X371523410Y-57006460D02*
X359523410Y-57006460D01*
X358523410Y-56006460D02*
X358523410Y-44006460D01*
X371523410Y-43006460D02*
X359523410Y-43006460D01*
X372523410Y-56006460D02*
G75*
G02X371523410Y-57006460I-1000000J0D01*
G01*
X359523410Y-57006460D02*
G75*
G02X358523410Y-56006460I0J1000000D01*
G01*
X358523410Y-44006460D02*
G75*
G02X359523410Y-43006460I1000000J0D01*
G01*
X371523410Y-43006460D02*
G75*
G02X372523410Y-44006460I0J-1000000D01*
G01*
X353473330Y-56006460D02*
X353473330Y-44006460D01*
X352473330Y-57006460D02*
X340473330Y-57006460D01*
X339473330Y-56006460D02*
X339473330Y-44006460D01*
X352473330Y-43006460D02*
X340473330Y-43006460D01*
X353473330Y-56006460D02*
G75*
G02X352473330Y-57006460I-1000000J0D01*
G01*
X340473330Y-57006460D02*
G75*
G02X339473330Y-56006460I0J1000000D01*
G01*
X339473330Y-44006460D02*
G75*
G02X340473330Y-43006460I1000000J0D01*
G01*
X352473330Y-43006460D02*
G75*
G02X353473330Y-44006460I0J-1000000D01*
G01*
X334423250Y-56006460D02*
X334423250Y-44006460D01*
X333423250Y-57006460D02*
X321423250Y-57006460D01*
X320423250Y-56006460D02*
X320423250Y-44006460D01*
X333423250Y-43006460D02*
X321423250Y-43006460D01*
X334423250Y-56006460D02*
G75*
G02X333423250Y-57006460I-1000000J0D01*
G01*
X321423250Y-57006460D02*
G75*
G02X320423250Y-56006460I0J1000000D01*
G01*
X320423250Y-44006460D02*
G75*
G02X321423250Y-43006460I1000000J0D01*
G01*
X333423250Y-43006460D02*
G75*
G02X334423250Y-44006460I0J-1000000D01*
G01*
X315373170Y-56006460D02*
X315373170Y-44006460D01*
X314373170Y-57006460D02*
X302373170Y-57006460D01*
X301373170Y-56006460D02*
X301373170Y-44006460D01*
X314373170Y-43006460D02*
X302373170Y-43006460D01*
X315373170Y-56006460D02*
G75*
G02X314373170Y-57006460I-1000000J0D01*
G01*
X302373170Y-57006460D02*
G75*
G02X301373170Y-56006460I0J1000000D01*
G01*
X301373170Y-44006460D02*
G75*
G02X302373170Y-43006460I1000000J0D01*
G01*
X314373170Y-43006460D02*
G75*
G02X315373170Y-44006460I0J-1000000D01*
G01*
X296323090Y-56006460D02*
X296323090Y-44006460D01*
X295323090Y-57006460D02*
X283323090Y-57006460D01*
X282323090Y-56006460D02*
X282323090Y-44006460D01*
X295323090Y-43006460D02*
X283323090Y-43006460D01*
X296323090Y-56006460D02*
G75*
G02X295323090Y-57006460I-1000000J0D01*
G01*
X283323090Y-57006460D02*
G75*
G02X282323090Y-56006460I0J1000000D01*
G01*
X282323090Y-44006460D02*
G75*
G02X283323090Y-43006460I1000000J0D01*
G01*
X295323090Y-43006460D02*
G75*
G02X296323090Y-44006460I0J-1000000D01*
G01*
X277273010Y-56006460D02*
X277273010Y-44006460D01*
X276273010Y-57006460D02*
X264273010Y-57006460D01*
X263273010Y-56006460D02*
X263273010Y-44006460D01*
X276273010Y-43006460D02*
X264273010Y-43006460D01*
X277273010Y-56006460D02*
G75*
G02X276273010Y-57006460I-1000000J0D01*
G01*
X264273010Y-57006460D02*
G75*
G02X263273010Y-56006460I0J1000000D01*
G01*
X263273010Y-44006460D02*
G75*
G02X264273010Y-43006460I1000000J0D01*
G01*
X276273010Y-43006460D02*
G75*
G02X277273010Y-44006460I0J-1000000D01*
G01*
X258222930Y-56006460D02*
X258222930Y-44006460D01*
X257222930Y-57006460D02*
X245222930Y-57006460D01*
X244222930Y-56006460D02*
X244222930Y-44006460D01*
X257222930Y-43006460D02*
X245222930Y-43006460D01*
X258222930Y-56006460D02*
G75*
G02X257222930Y-57006460I-1000000J0D01*
G01*
X245222930Y-57006460D02*
G75*
G02X244222930Y-56006460I0J1000000D01*
G01*
X244222930Y-44006460D02*
G75*
G02X245222930Y-43006460I1000000J0D01*
G01*
X257222930Y-43006460D02*
G75*
G02X258222930Y-44006460I0J-1000000D01*
G01*
X239172850Y-56006460D02*
X239172850Y-44006460D01*
X238172850Y-57006460D02*
X226172850Y-57006460D01*
X225172850Y-56006460D02*
X225172850Y-44006460D01*
X238172850Y-43006460D02*
X226172850Y-43006460D01*
X239172850Y-56006460D02*
G75*
G02X238172850Y-57006460I-1000000J0D01*
G01*
X226172850Y-57006460D02*
G75*
G02X225172850Y-56006460I0J1000000D01*
G01*
X225172850Y-44006460D02*
G75*
G02X226172850Y-43006460I1000000J0D01*
G01*
X238172850Y-43006460D02*
G75*
G02X239172850Y-44006460I0J-1000000D01*
G01*
X220122770Y-56006460D02*
X220122770Y-44006460D01*
X219122770Y-57006460D02*
X207122770Y-57006460D01*
X206122770Y-56006460D02*
X206122770Y-44006460D01*
X219122770Y-43006460D02*
X207122770Y-43006460D01*
X220122770Y-56006460D02*
G75*
G02X219122770Y-57006460I-1000000J0D01*
G01*
X207122770Y-57006460D02*
G75*
G02X206122770Y-56006460I0J1000000D01*
G01*
X206122770Y-44006460D02*
G75*
G02X207122770Y-43006460I1000000J0D01*
G01*
X219122770Y-43006460D02*
G75*
G02X220122770Y-44006460I0J-1000000D01*
G01*
X201072690Y-56006460D02*
X201072690Y-44006460D01*
X200072690Y-57006460D02*
X188072690Y-57006460D01*
X187072690Y-56006460D02*
X187072690Y-44006460D01*
X200072690Y-43006460D02*
X188072690Y-43006460D01*
X201072690Y-56006460D02*
G75*
G02X200072690Y-57006460I-1000000J0D01*
G01*
X188072690Y-57006460D02*
G75*
G02X187072690Y-56006460I0J1000000D01*
G01*
X187072690Y-44006460D02*
G75*
G02X188072690Y-43006460I1000000J0D01*
G01*
X200072690Y-43006460D02*
G75*
G02X201072690Y-44006460I0J-1000000D01*
G01*
X182022610Y-56006460D02*
X182022610Y-44006460D01*
X181022610Y-57006460D02*
X169022610Y-57006460D01*
X168022610Y-56006460D02*
X168022610Y-44006460D01*
X181022610Y-43006460D02*
X169022610Y-43006460D01*
X182022610Y-56006460D02*
G75*
G02X181022610Y-57006460I-1000000J0D01*
G01*
X169022610Y-57006460D02*
G75*
G02X168022610Y-56006460I0J1000000D01*
G01*
X168022610Y-44006460D02*
G75*
G02X169022610Y-43006460I1000000J0D01*
G01*
X181022610Y-43006460D02*
G75*
G02X182022610Y-44006460I0J-1000000D01*
G01*
D11*
G36*
X371044864Y-58920108D02*
G01*
X371069133Y-58923708D01*
X371092931Y-58929669D01*
X371116031Y-58937934D01*
X371138209Y-58948424D01*
X371159253Y-58961037D01*
X371178958Y-58975651D01*
X371197137Y-58992127D01*
X371213613Y-59010306D01*
X371228227Y-59030011D01*
X371240840Y-59051055D01*
X371251330Y-59073233D01*
X371259595Y-59096333D01*
X371265556Y-59120131D01*
X371269156Y-59144400D01*
X371270360Y-59168904D01*
X371270360Y-59868904D01*
X371269156Y-59893408D01*
X371265556Y-59917677D01*
X371259595Y-59941475D01*
X371251330Y-59964575D01*
X371240840Y-59986753D01*
X371228227Y-60007797D01*
X371213613Y-60027502D01*
X371197137Y-60045681D01*
X371178958Y-60062157D01*
X371159253Y-60076771D01*
X371138209Y-60089384D01*
X371116031Y-60099874D01*
X371092931Y-60108139D01*
X371069133Y-60114100D01*
X371044864Y-60117700D01*
X371020360Y-60118904D01*
X370520360Y-60118904D01*
X370495856Y-60117700D01*
X370471587Y-60114100D01*
X370447789Y-60108139D01*
X370424689Y-60099874D01*
X370402511Y-60089384D01*
X370381467Y-60076771D01*
X370361762Y-60062157D01*
X370343583Y-60045681D01*
X370327107Y-60027502D01*
X370312493Y-60007797D01*
X370299880Y-59986753D01*
X370289390Y-59964575D01*
X370281125Y-59941475D01*
X370275164Y-59917677D01*
X370271564Y-59893408D01*
X370270360Y-59868904D01*
X370270360Y-59168904D01*
X370271564Y-59144400D01*
X370275164Y-59120131D01*
X370281125Y-59096333D01*
X370289390Y-59073233D01*
X370299880Y-59051055D01*
X370312493Y-59030011D01*
X370327107Y-59010306D01*
X370343583Y-58992127D01*
X370361762Y-58975651D01*
X370381467Y-58961037D01*
X370402511Y-58948424D01*
X370424689Y-58937934D01*
X370447789Y-58929669D01*
X370471587Y-58923708D01*
X370495856Y-58920108D01*
X370520360Y-58918904D01*
X371020360Y-58918904D01*
X371044864Y-58920108D01*
X371044864Y-58920108D01*
G37*
D12*
X370770360Y-59518904D03*
D11*
G36*
X367744864Y-58920108D02*
G01*
X367769133Y-58923708D01*
X367792931Y-58929669D01*
X367816031Y-58937934D01*
X367838209Y-58948424D01*
X367859253Y-58961037D01*
X367878958Y-58975651D01*
X367897137Y-58992127D01*
X367913613Y-59010306D01*
X367928227Y-59030011D01*
X367940840Y-59051055D01*
X367951330Y-59073233D01*
X367959595Y-59096333D01*
X367965556Y-59120131D01*
X367969156Y-59144400D01*
X367970360Y-59168904D01*
X367970360Y-59868904D01*
X367969156Y-59893408D01*
X367965556Y-59917677D01*
X367959595Y-59941475D01*
X367951330Y-59964575D01*
X367940840Y-59986753D01*
X367928227Y-60007797D01*
X367913613Y-60027502D01*
X367897137Y-60045681D01*
X367878958Y-60062157D01*
X367859253Y-60076771D01*
X367838209Y-60089384D01*
X367816031Y-60099874D01*
X367792931Y-60108139D01*
X367769133Y-60114100D01*
X367744864Y-60117700D01*
X367720360Y-60118904D01*
X367220360Y-60118904D01*
X367195856Y-60117700D01*
X367171587Y-60114100D01*
X367147789Y-60108139D01*
X367124689Y-60099874D01*
X367102511Y-60089384D01*
X367081467Y-60076771D01*
X367061762Y-60062157D01*
X367043583Y-60045681D01*
X367027107Y-60027502D01*
X367012493Y-60007797D01*
X366999880Y-59986753D01*
X366989390Y-59964575D01*
X366981125Y-59941475D01*
X366975164Y-59917677D01*
X366971564Y-59893408D01*
X366970360Y-59868904D01*
X366970360Y-59168904D01*
X366971564Y-59144400D01*
X366975164Y-59120131D01*
X366981125Y-59096333D01*
X366989390Y-59073233D01*
X366999880Y-59051055D01*
X367012493Y-59030011D01*
X367027107Y-59010306D01*
X367043583Y-58992127D01*
X367061762Y-58975651D01*
X367081467Y-58961037D01*
X367102511Y-58948424D01*
X367124689Y-58937934D01*
X367147789Y-58929669D01*
X367171587Y-58923708D01*
X367195856Y-58920108D01*
X367220360Y-58918904D01*
X367720360Y-58918904D01*
X367744864Y-58920108D01*
X367744864Y-58920108D01*
G37*
D12*
X367470360Y-59518904D03*
D13*
X155973586Y-38695532D03*
X155973586Y-118467340D03*
X233364146Y-38695532D03*
X233364146Y-118454889D03*
X311945330Y-38695532D03*
X311945330Y-118467340D03*
X389335890Y-38695532D03*
X389335890Y-118467340D03*
M02*
