G04 #@! TF.GenerationSoftware,KiCad,Pcbnew,(5.1.4-0-10_14)*
G04 #@! TF.CreationDate,2021-10-03T11:39:20-05:00*
G04 #@! TF.ProjectId,lucy_top_plate,6c756379-5f74-46f7-905f-706c6174652e,rev?*
G04 #@! TF.SameCoordinates,Original*
G04 #@! TF.FileFunction,Legend,Bot*
G04 #@! TF.FilePolarity,Positive*
%FSLAX46Y46*%
G04 Gerber Fmt 4.6, Leading zero omitted, Abs format (unit mm)*
G04 Created by KiCad (PCBNEW (5.1.4-0-10_14)) date 2021-10-03 11:39:20*
%MOMM*%
%LPD*%
G04 APERTURE LIST*
%ADD10C,0.150000*%
%ADD11C,0.200000*%
G04 APERTURE END LIST*
D10*
X259414425Y-97083800D02*
X259414425Y-97798086D01*
X259462044Y-97940943D01*
X259557282Y-98036181D01*
X259700139Y-98083800D01*
X259795378Y-98083800D01*
X258462044Y-98083800D02*
X258938235Y-98083800D01*
X258938235Y-97083800D01*
X257557282Y-97988562D02*
X257604901Y-98036181D01*
X257747758Y-98083800D01*
X257842997Y-98083800D01*
X257985854Y-98036181D01*
X258081092Y-97940943D01*
X258128711Y-97845705D01*
X258176330Y-97655229D01*
X258176330Y-97512372D01*
X258128711Y-97321896D01*
X258081092Y-97226658D01*
X257985854Y-97131420D01*
X257842997Y-97083800D01*
X257747758Y-97083800D01*
X257604901Y-97131420D01*
X257557282Y-97179039D01*
X256842997Y-97083800D02*
X256842997Y-97798086D01*
X256890616Y-97940943D01*
X256985854Y-98036181D01*
X257128711Y-98083800D01*
X257223949Y-98083800D01*
X255890616Y-98083800D02*
X256366806Y-98083800D01*
X256366806Y-97083800D01*
X254985854Y-97988562D02*
X255033473Y-98036181D01*
X255176330Y-98083800D01*
X255271568Y-98083800D01*
X255414425Y-98036181D01*
X255509663Y-97940943D01*
X255557282Y-97845705D01*
X255604901Y-97655229D01*
X255604901Y-97512372D01*
X255557282Y-97321896D01*
X255509663Y-97226658D01*
X255414425Y-97131420D01*
X255271568Y-97083800D01*
X255176330Y-97083800D01*
X255033473Y-97131420D01*
X254985854Y-97179039D01*
X254271568Y-97083800D02*
X254271568Y-97798086D01*
X254319187Y-97940943D01*
X254414425Y-98036181D01*
X254557282Y-98083800D01*
X254652520Y-98083800D01*
X253319187Y-98083800D02*
X253795378Y-98083800D01*
X253795378Y-97083800D01*
X252414425Y-97988562D02*
X252462044Y-98036181D01*
X252604901Y-98083800D01*
X252700139Y-98083800D01*
X252842997Y-98036181D01*
X252938235Y-97940943D01*
X252985854Y-97845705D01*
X253033473Y-97655229D01*
X253033473Y-97512372D01*
X252985854Y-97321896D01*
X252938235Y-97226658D01*
X252842997Y-97131420D01*
X252700139Y-97083800D01*
X252604901Y-97083800D01*
X252462044Y-97131420D01*
X252414425Y-97179039D01*
X251700139Y-97083800D02*
X251700139Y-97798086D01*
X251747758Y-97940943D01*
X251842997Y-98036181D01*
X251985854Y-98083800D01*
X252081092Y-98083800D01*
X250747758Y-98083800D02*
X251223949Y-98083800D01*
X251223949Y-97083800D01*
X249842997Y-97988562D02*
X249890616Y-98036181D01*
X250033473Y-98083800D01*
X250128711Y-98083800D01*
X250271568Y-98036181D01*
X250366806Y-97940943D01*
X250414425Y-97845705D01*
X250462044Y-97655229D01*
X250462044Y-97512372D01*
X250414425Y-97321896D01*
X250366806Y-97226658D01*
X250271568Y-97131420D01*
X250128711Y-97083800D01*
X250033473Y-97083800D01*
X249890616Y-97131420D01*
X249842997Y-97179039D01*
D11*
X377697507Y-95219227D02*
X376685602Y-95219227D01*
X376566554Y-95278751D01*
X376507030Y-95338275D01*
X376447507Y-95457322D01*
X376447507Y-95635894D01*
X376507030Y-95754941D01*
X376923697Y-95219227D02*
X376864173Y-95338275D01*
X376864173Y-95576370D01*
X376923697Y-95695418D01*
X376983221Y-95754941D01*
X377102269Y-95814465D01*
X377459411Y-95814465D01*
X377578459Y-95754941D01*
X377637983Y-95695418D01*
X377697507Y-95576370D01*
X377697507Y-95338275D01*
X377637983Y-95219227D01*
X376864173Y-94623989D02*
X377697507Y-94623989D01*
X378114173Y-94623989D02*
X378054650Y-94683513D01*
X377995126Y-94623989D01*
X378054650Y-94564465D01*
X378114173Y-94623989D01*
X377995126Y-94623989D01*
X377697507Y-94207322D02*
X377697507Y-93731132D01*
X378114173Y-94028751D02*
X377042745Y-94028751D01*
X376923697Y-93969227D01*
X376864173Y-93850180D01*
X376864173Y-93731132D01*
X376864173Y-93314465D02*
X378114173Y-93314465D01*
X376864173Y-92778751D02*
X377518935Y-92778751D01*
X377637983Y-92838275D01*
X377697507Y-92957322D01*
X377697507Y-93135894D01*
X377637983Y-93254941D01*
X377578459Y-93314465D01*
X377697507Y-91647799D02*
X376864173Y-91647799D01*
X377697507Y-92183513D02*
X377042745Y-92183513D01*
X376923697Y-92123989D01*
X376864173Y-92004941D01*
X376864173Y-91826370D01*
X376923697Y-91707322D01*
X376983221Y-91647799D01*
X376864173Y-91052560D02*
X378114173Y-91052560D01*
X377637983Y-91052560D02*
X377697507Y-90933513D01*
X377697507Y-90695418D01*
X377637983Y-90576370D01*
X377578459Y-90516846D01*
X377459411Y-90457322D01*
X377102269Y-90457322D01*
X376983221Y-90516846D01*
X376923697Y-90576370D01*
X376864173Y-90695418D01*
X376864173Y-90933513D01*
X376923697Y-91052560D01*
X376983221Y-89921608D02*
X376923697Y-89862084D01*
X376864173Y-89921608D01*
X376923697Y-89981132D01*
X376983221Y-89921608D01*
X376864173Y-89921608D01*
X376923697Y-88790656D02*
X376864173Y-88909703D01*
X376864173Y-89147799D01*
X376923697Y-89266846D01*
X376983221Y-89326370D01*
X377102269Y-89385894D01*
X377459411Y-89385894D01*
X377578459Y-89326370D01*
X377637983Y-89266846D01*
X377697507Y-89147799D01*
X377697507Y-88909703D01*
X377637983Y-88790656D01*
X376864173Y-88076370D02*
X376923697Y-88195418D01*
X376983221Y-88254941D01*
X377102269Y-88314465D01*
X377459411Y-88314465D01*
X377578459Y-88254941D01*
X377637983Y-88195418D01*
X377697507Y-88076370D01*
X377697507Y-87897799D01*
X377637983Y-87778751D01*
X377578459Y-87719227D01*
X377459411Y-87659703D01*
X377102269Y-87659703D01*
X376983221Y-87719227D01*
X376923697Y-87778751D01*
X376864173Y-87897799D01*
X376864173Y-88076370D01*
X376864173Y-87123989D02*
X377697507Y-87123989D01*
X377578459Y-87123989D02*
X377637983Y-87064465D01*
X377697507Y-86945418D01*
X377697507Y-86766846D01*
X377637983Y-86647799D01*
X377518935Y-86588275D01*
X376864173Y-86588275D01*
X377518935Y-86588275D02*
X377637983Y-86528751D01*
X377697507Y-86409703D01*
X377697507Y-86231132D01*
X377637983Y-86112084D01*
X377518935Y-86052560D01*
X376864173Y-86052560D01*
X378173697Y-84564465D02*
X376566554Y-85635894D01*
X376864173Y-83612084D02*
X378114173Y-83612084D01*
X376923697Y-83612084D02*
X376864173Y-83731132D01*
X376864173Y-83969227D01*
X376923697Y-84088275D01*
X376983221Y-84147799D01*
X377102269Y-84207322D01*
X377459411Y-84207322D01*
X377578459Y-84147799D01*
X377637983Y-84088275D01*
X377697507Y-83969227D01*
X377697507Y-83731132D01*
X377637983Y-83612084D01*
X376864173Y-83016846D02*
X377697507Y-83016846D01*
X378114173Y-83016846D02*
X378054650Y-83076370D01*
X377995126Y-83016846D01*
X378054650Y-82957322D01*
X378114173Y-83016846D01*
X377995126Y-83016846D01*
X376923697Y-81945418D02*
X376864173Y-82064465D01*
X376864173Y-82302560D01*
X376923697Y-82421608D01*
X377042745Y-82481132D01*
X377518935Y-82481132D01*
X377637983Y-82421608D01*
X377697507Y-82302560D01*
X377697507Y-82064465D01*
X377637983Y-81945418D01*
X377518935Y-81885894D01*
X377399888Y-81885894D01*
X377280840Y-82481132D01*
X376864173Y-81350180D02*
X377697507Y-81350180D01*
X377459411Y-81350180D02*
X377578459Y-81290656D01*
X377637983Y-81231132D01*
X377697507Y-81112084D01*
X377697507Y-80993037D01*
X376864173Y-80576370D02*
X377697507Y-80576370D01*
X378114173Y-80576370D02*
X378054650Y-80635894D01*
X377995126Y-80576370D01*
X378054650Y-80516846D01*
X378114173Y-80576370D01*
X377995126Y-80576370D01*
X376923697Y-79445418D02*
X376864173Y-79564465D01*
X376864173Y-79802560D01*
X376923697Y-79921608D01*
X376983221Y-79981132D01*
X377102269Y-80040656D01*
X377459411Y-80040656D01*
X377578459Y-79981132D01*
X377637983Y-79921608D01*
X377697507Y-79802560D01*
X377697507Y-79564465D01*
X377637983Y-79445418D01*
X376864173Y-78909703D02*
X378114173Y-78909703D01*
X377340364Y-78790656D02*
X376864173Y-78433513D01*
X377697507Y-78433513D02*
X377221316Y-78909703D01*
X376864173Y-77362084D02*
X378114173Y-77362084D01*
X376923697Y-77362084D02*
X376864173Y-77481132D01*
X376864173Y-77719227D01*
X376923697Y-77838275D01*
X376983221Y-77897799D01*
X377102269Y-77957322D01*
X377459411Y-77957322D01*
X377578459Y-77897799D01*
X377637983Y-77838275D01*
X377697507Y-77719227D01*
X377697507Y-77481132D01*
X377637983Y-77362084D01*
X376864173Y-76766846D02*
X377697507Y-76766846D01*
X378114173Y-76766846D02*
X378054650Y-76826370D01*
X377995126Y-76766846D01*
X378054650Y-76707322D01*
X378114173Y-76766846D01*
X377995126Y-76766846D01*
X376923697Y-75695418D02*
X376864173Y-75814465D01*
X376864173Y-76052560D01*
X376923697Y-76171608D01*
X377042745Y-76231132D01*
X377518935Y-76231132D01*
X377637983Y-76171608D01*
X377697507Y-76052560D01*
X377697507Y-75814465D01*
X377637983Y-75695418D01*
X377518935Y-75635894D01*
X377399888Y-75635894D01*
X377280840Y-76231132D01*
X376864173Y-71943053D02*
X376923697Y-72062100D01*
X377042745Y-72121624D01*
X378114173Y-72121624D01*
X377697507Y-70931148D02*
X376864173Y-70931148D01*
X377697507Y-71466862D02*
X377042745Y-71466862D01*
X376923697Y-71407338D01*
X376864173Y-71288291D01*
X376864173Y-71109719D01*
X376923697Y-70990672D01*
X376983221Y-70931148D01*
X376923697Y-69800196D02*
X376864173Y-69919243D01*
X376864173Y-70157338D01*
X376923697Y-70276386D01*
X376983221Y-70335910D01*
X377102269Y-70395434D01*
X377459411Y-70395434D01*
X377578459Y-70335910D01*
X377637983Y-70276386D01*
X377697507Y-70157338D01*
X377697507Y-69919243D01*
X377637983Y-69800196D01*
X377697507Y-69383529D02*
X376864173Y-69085910D01*
X377697507Y-68788291D02*
X376864173Y-69085910D01*
X376566554Y-69204957D01*
X376507030Y-69264481D01*
X376447507Y-69383529D01*
X376864173Y-67359719D02*
X377697507Y-67359719D01*
X377459411Y-67359719D02*
X377578459Y-67300196D01*
X377637983Y-67240672D01*
X377697507Y-67121624D01*
X377697507Y-67002576D01*
X376923697Y-66109719D02*
X376864173Y-66228767D01*
X376864173Y-66466862D01*
X376923697Y-66585910D01*
X377042745Y-66645434D01*
X377518935Y-66645434D01*
X377637983Y-66585910D01*
X377697507Y-66466862D01*
X377697507Y-66228767D01*
X377637983Y-66109719D01*
X377518935Y-66050196D01*
X377399888Y-66050196D01*
X377280840Y-66645434D01*
X377697507Y-65633529D02*
X376864173Y-65335910D01*
X377697507Y-65038291D01*
X376864173Y-62954957D02*
X376864173Y-63669243D01*
X376864173Y-63312100D02*
X378114173Y-63312100D01*
X377935602Y-63431148D01*
X377816554Y-63550196D01*
X377757030Y-63669243D01*
X376983221Y-62419243D02*
X376923697Y-62359719D01*
X376864173Y-62419243D01*
X376923697Y-62478767D01*
X376983221Y-62419243D01*
X376864173Y-62419243D01*
X377995126Y-61883529D02*
X378054650Y-61824005D01*
X378114173Y-61704957D01*
X378114173Y-61407338D01*
X378054650Y-61288291D01*
X377995126Y-61228767D01*
X377876078Y-61169243D01*
X377757030Y-61169243D01*
X377578459Y-61228767D01*
X376864173Y-61943053D01*
X376864173Y-61169243D01*
M02*
