G04 #@! TF.GenerationSoftware,KiCad,Pcbnew,(5.1.4-0)*
G04 #@! TF.CreationDate,2021-10-13T07:08:27-05:00*
G04 #@! TF.ProjectId,niko_top_plate,6e696b6f-5f74-46f7-905f-706c6174652e,rev?*
G04 #@! TF.SameCoordinates,Original*
G04 #@! TF.FileFunction,Paste,Bot*
G04 #@! TF.FilePolarity,Positive*
%FSLAX46Y46*%
G04 Gerber Fmt 4.6, Leading zero omitted, Abs format (unit mm)*
G04 Created by KiCad (PCBNEW (5.1.4-0)) date 2021-10-13 07:08:27*
%MOMM*%
%LPD*%
G04 APERTURE LIST*
%ADD10C,0.100000*%
%ADD11C,1.000000*%
G04 APERTURE END LIST*
D10*
G36*
X317466514Y-118451608D02*
G01*
X317490783Y-118455208D01*
X317514581Y-118461169D01*
X317537681Y-118469434D01*
X317559859Y-118479924D01*
X317580903Y-118492537D01*
X317600608Y-118507151D01*
X317618787Y-118523627D01*
X317635263Y-118541806D01*
X317649877Y-118561511D01*
X317662490Y-118582555D01*
X317672980Y-118604733D01*
X317681245Y-118627833D01*
X317687206Y-118651631D01*
X317690806Y-118675900D01*
X317692010Y-118700404D01*
X317692010Y-119400404D01*
X317690806Y-119424908D01*
X317687206Y-119449177D01*
X317681245Y-119472975D01*
X317672980Y-119496075D01*
X317662490Y-119518253D01*
X317649877Y-119539297D01*
X317635263Y-119559002D01*
X317618787Y-119577181D01*
X317600608Y-119593657D01*
X317580903Y-119608271D01*
X317559859Y-119620884D01*
X317537681Y-119631374D01*
X317514581Y-119639639D01*
X317490783Y-119645600D01*
X317466514Y-119649200D01*
X317442010Y-119650404D01*
X316942010Y-119650404D01*
X316917506Y-119649200D01*
X316893237Y-119645600D01*
X316869439Y-119639639D01*
X316846339Y-119631374D01*
X316824161Y-119620884D01*
X316803117Y-119608271D01*
X316783412Y-119593657D01*
X316765233Y-119577181D01*
X316748757Y-119559002D01*
X316734143Y-119539297D01*
X316721530Y-119518253D01*
X316711040Y-119496075D01*
X316702775Y-119472975D01*
X316696814Y-119449177D01*
X316693214Y-119424908D01*
X316692010Y-119400404D01*
X316692010Y-118700404D01*
X316693214Y-118675900D01*
X316696814Y-118651631D01*
X316702775Y-118627833D01*
X316711040Y-118604733D01*
X316721530Y-118582555D01*
X316734143Y-118561511D01*
X316748757Y-118541806D01*
X316765233Y-118523627D01*
X316783412Y-118507151D01*
X316803117Y-118492537D01*
X316824161Y-118479924D01*
X316846339Y-118469434D01*
X316869439Y-118461169D01*
X316893237Y-118455208D01*
X316917506Y-118451608D01*
X316942010Y-118450404D01*
X317442010Y-118450404D01*
X317466514Y-118451608D01*
X317466514Y-118451608D01*
G37*
D11*
X317192010Y-119050404D03*
D10*
G36*
X314166514Y-118451608D02*
G01*
X314190783Y-118455208D01*
X314214581Y-118461169D01*
X314237681Y-118469434D01*
X314259859Y-118479924D01*
X314280903Y-118492537D01*
X314300608Y-118507151D01*
X314318787Y-118523627D01*
X314335263Y-118541806D01*
X314349877Y-118561511D01*
X314362490Y-118582555D01*
X314372980Y-118604733D01*
X314381245Y-118627833D01*
X314387206Y-118651631D01*
X314390806Y-118675900D01*
X314392010Y-118700404D01*
X314392010Y-119400404D01*
X314390806Y-119424908D01*
X314387206Y-119449177D01*
X314381245Y-119472975D01*
X314372980Y-119496075D01*
X314362490Y-119518253D01*
X314349877Y-119539297D01*
X314335263Y-119559002D01*
X314318787Y-119577181D01*
X314300608Y-119593657D01*
X314280903Y-119608271D01*
X314259859Y-119620884D01*
X314237681Y-119631374D01*
X314214581Y-119639639D01*
X314190783Y-119645600D01*
X314166514Y-119649200D01*
X314142010Y-119650404D01*
X313642010Y-119650404D01*
X313617506Y-119649200D01*
X313593237Y-119645600D01*
X313569439Y-119639639D01*
X313546339Y-119631374D01*
X313524161Y-119620884D01*
X313503117Y-119608271D01*
X313483412Y-119593657D01*
X313465233Y-119577181D01*
X313448757Y-119559002D01*
X313434143Y-119539297D01*
X313421530Y-119518253D01*
X313411040Y-119496075D01*
X313402775Y-119472975D01*
X313396814Y-119449177D01*
X313393214Y-119424908D01*
X313392010Y-119400404D01*
X313392010Y-118700404D01*
X313393214Y-118675900D01*
X313396814Y-118651631D01*
X313402775Y-118627833D01*
X313411040Y-118604733D01*
X313421530Y-118582555D01*
X313434143Y-118561511D01*
X313448757Y-118541806D01*
X313465233Y-118523627D01*
X313483412Y-118507151D01*
X313503117Y-118492537D01*
X313524161Y-118479924D01*
X313546339Y-118469434D01*
X313569439Y-118461169D01*
X313593237Y-118455208D01*
X313617506Y-118451608D01*
X313642010Y-118450404D01*
X314142010Y-118450404D01*
X314166514Y-118451608D01*
X314166514Y-118451608D01*
G37*
D11*
X313892010Y-119050404D03*
M02*
