G04 #@! TF.GenerationSoftware,KiCad,Pcbnew,(5.1.4-0)*
G04 #@! TF.CreationDate,2021-10-19T11:43:31-05:00*
G04 #@! TF.ProjectId,top_plate,746f705f-706c-4617-9465-2e6b69636164,rev?*
G04 #@! TF.SameCoordinates,Original*
G04 #@! TF.FileFunction,Profile,NP*
%FSLAX46Y46*%
G04 Gerber Fmt 4.6, Leading zero omitted, Abs format (unit mm)*
G04 Created by KiCad (PCBNEW (5.1.4-0)) date 2021-10-19 11:43:31*
%MOMM*%
%LPD*%
G04 APERTURE LIST*
%ADD10C,0.050000*%
%ADD11C,0.100000*%
G04 APERTURE END LIST*
D10*
X292896116Y-172641350D02*
X302420020Y-157163160D01*
X317303065Y-157162800D02*
X302420020Y-157163160D01*
X237233110Y-176807916D02*
X230684678Y-178593852D01*
X239316602Y-179785126D02*
X237233110Y-176807916D01*
X213123282Y-188714389D02*
X230684678Y-178593852D01*
X244079198Y-175021980D02*
X252711222Y-172641370D01*
X243579191Y-178494517D02*
X244079198Y-175021980D01*
X252711222Y-172640732D02*
X292895346Y-172640732D01*
X243578673Y-178494411D02*
G75*
G02X239316702Y-179784476I-2476132J495224D01*
G01*
X64294028Y-83343988D02*
G75*
G02X66675280Y-80962736I2381252J0D01*
G01*
X71438936Y-78581484D02*
X70843475Y-80367423D01*
X70843475Y-80367423D02*
X66675280Y-80962736D01*
X142579066Y-172640732D02*
X102394180Y-172641350D01*
X151711097Y-178494517D02*
X151211090Y-175021980D01*
X151711615Y-178494411D02*
G75*
G03X155973586Y-179784476I2476132J495224D01*
G01*
X182167006Y-188714389D02*
X164605610Y-178593852D01*
X151211090Y-175021980D02*
X142579066Y-172641370D01*
X158057178Y-176807916D02*
X164605610Y-178593852D01*
X155973686Y-179785126D02*
X158057178Y-176807916D01*
X323851506Y-160139365D02*
G75*
G02X319089005Y-160139364I-2381250J1190626D01*
G01*
X323851507Y-160139365D02*
X325637447Y-157162800D01*
X319089004Y-160139365D02*
X317303065Y-157162800D01*
X76201290Y-160139365D02*
G75*
G02X71438789Y-160139364I-2381250J1190626D01*
G01*
X76201291Y-160139365D02*
X77987231Y-157162800D01*
X71438788Y-160139365D02*
X69652849Y-157162800D01*
X145852913Y-75009606D02*
X121445080Y-75009606D01*
X75555848Y-77440993D02*
G75*
G03X71438788Y-78581484I-1735652J-1735804D01*
G01*
X75555848Y-77440993D02*
X77391918Y-79772090D01*
X152401356Y-72033041D02*
X154187295Y-75009606D01*
X147638854Y-72033041D02*
G75*
G02X152401355Y-72033042I2381250J-1190626D01*
G01*
X147638853Y-72033041D02*
X145852913Y-75009606D01*
X247651444Y-72033041D02*
X249437383Y-75009606D01*
X242888941Y-72033041D02*
X241103001Y-75009606D01*
X242888942Y-72033041D02*
G75*
G02X247651443Y-72033042I2381250J-1190626D01*
G01*
X319734448Y-77440993D02*
X317898378Y-79772090D01*
X249437383Y-75009606D02*
X273845216Y-75009606D01*
X324446821Y-80367423D02*
X328614012Y-80962736D01*
X273845216Y-75009606D02*
X317898378Y-79772090D01*
X77987231Y-157162800D02*
X92869140Y-157163160D01*
X69652849Y-157162800D02*
X66675280Y-157163160D01*
X102394180Y-172641350D02*
X92869140Y-157163160D01*
X66675280Y-157163160D02*
G75*
G02X64294028Y-154781908I0J2381252D01*
G01*
X328614012Y-80962736D02*
G75*
G02X330995264Y-83343988I0J-2381252D01*
G01*
X330995288Y-154781484D02*
G75*
G02X328614036Y-157162736I-2381252J0D01*
G01*
X213123282Y-188714389D02*
X182167006Y-188714156D01*
X328614036Y-157162736D02*
X325637447Y-157162800D01*
X323851360Y-78581484D02*
X324446821Y-80367423D01*
X319734448Y-77440993D02*
G75*
G02X323851508Y-78581484I1735652J-1735804D01*
G01*
X154187295Y-75009606D02*
X241103001Y-75009606D01*
X77391918Y-79772090D02*
X121445080Y-75009606D01*
X330995288Y-154781484D02*
X330995264Y-83343988D01*
X64294028Y-83343988D02*
X64294020Y-154781900D01*
D11*
X216615770Y-162038542D02*
X205011030Y-168738542D01*
X223615770Y-174162898D02*
X212011030Y-180862898D01*
X217025578Y-162148350D02*
X223725578Y-173753090D01*
X204901222Y-169148350D02*
X211601222Y-180753090D01*
X223725578Y-173753090D02*
G75*
G02X223615770Y-174162898I-259808J-150000D01*
G01*
X212011030Y-180862898D02*
G75*
G02X211601222Y-180753090I-150000J259808D01*
G01*
X204901222Y-169148350D02*
G75*
G02X205011030Y-168738542I259808J150000D01*
G01*
X216615770Y-162038542D02*
G75*
G02X217025578Y-162148350I150000J-259808D01*
G01*
X190278130Y-168738542D02*
X178673390Y-162038542D01*
X183278130Y-180862898D02*
X171673390Y-174162898D01*
X190387938Y-169148350D02*
X183687938Y-180753090D01*
X178263582Y-162148350D02*
X171563582Y-173753090D01*
X183687938Y-180753090D02*
G75*
G02X183278130Y-180862898I-259808J150000D01*
G01*
X171673390Y-174162898D02*
G75*
G02X171563582Y-173753090I150000J259808D01*
G01*
X178263582Y-162148350D02*
G75*
G02X178673390Y-162038542I259808J-150000D01*
G01*
X190278130Y-168738542D02*
G75*
G02X190387938Y-169148350I-150000J-259808D01*
G01*
D10*
X190644580Y-140447085D02*
G75*
G02X191644580Y-139447085I1000000J0D01*
G01*
X204644580Y-152447085D02*
G75*
G02X203644580Y-153447085I-1000000J0D01*
G01*
X203644580Y-139447085D02*
G75*
G02X204644580Y-140447085I0J-1000000D01*
G01*
X191644580Y-153447085D02*
G75*
G02X190644580Y-152447085I0J1000000D01*
G01*
X191644580Y-153447085D02*
X203644580Y-153447085D01*
X204644580Y-140447085D02*
X204644580Y-152447085D01*
X191644580Y-139447085D02*
X203644580Y-139447085D01*
X190644580Y-152447085D02*
X190644580Y-140447085D01*
X314470100Y-84487880D02*
G75*
G02X315470100Y-83487880I1000000J0D01*
G01*
X328470100Y-96487880D02*
G75*
G02X327470100Y-97487880I-1000000J0D01*
G01*
X327470100Y-83487880D02*
G75*
G02X328470100Y-84487880I0J-1000000D01*
G01*
X315470100Y-97487880D02*
G75*
G02X314470100Y-96487880I0J1000000D01*
G01*
X315470100Y-97487880D02*
X327470100Y-97487880D01*
X328470100Y-84487880D02*
X328470100Y-96487880D01*
X315470100Y-83487880D02*
X327470100Y-83487880D01*
X314470100Y-96487880D02*
X314470100Y-84487880D01*
X295420020Y-84487880D02*
G75*
G02X296420020Y-83487880I1000000J0D01*
G01*
X309420020Y-96487880D02*
G75*
G02X308420020Y-97487880I-1000000J0D01*
G01*
X308420020Y-83487880D02*
G75*
G02X309420020Y-84487880I0J-1000000D01*
G01*
X296420020Y-97487880D02*
G75*
G02X295420020Y-96487880I0J1000000D01*
G01*
X296420020Y-97487880D02*
X308420020Y-97487880D01*
X309420020Y-84487880D02*
X309420020Y-96487880D01*
X296420020Y-83487880D02*
X308420020Y-83487880D01*
X295420020Y-96487880D02*
X295420020Y-84487880D01*
X276369940Y-80915990D02*
G75*
G02X277369940Y-79915990I1000000J0D01*
G01*
X290369940Y-92915990D02*
G75*
G02X289369940Y-93915990I-1000000J0D01*
G01*
X289369940Y-79915990D02*
G75*
G02X290369940Y-80915990I0J-1000000D01*
G01*
X277369940Y-93915990D02*
G75*
G02X276369940Y-92915990I0J1000000D01*
G01*
X277369940Y-93915990D02*
X289369940Y-93915990D01*
X290369940Y-80915990D02*
X290369940Y-92915990D01*
X277369940Y-79915990D02*
X289369940Y-79915990D01*
X276369940Y-92915990D02*
X276369940Y-80915990D01*
X257319860Y-78534730D02*
G75*
G02X258319860Y-77534730I1000000J0D01*
G01*
X271319860Y-90534730D02*
G75*
G02X270319860Y-91534730I-1000000J0D01*
G01*
X270319860Y-77534730D02*
G75*
G02X271319860Y-78534730I0J-1000000D01*
G01*
X258319860Y-91534730D02*
G75*
G02X257319860Y-90534730I0J1000000D01*
G01*
X258319860Y-91534730D02*
X270319860Y-91534730D01*
X271319860Y-78534730D02*
X271319860Y-90534730D01*
X258319860Y-77534730D02*
X270319860Y-77534730D01*
X257319860Y-90534730D02*
X257319860Y-78534730D01*
X238269780Y-80915990D02*
G75*
G02X239269780Y-79915990I1000000J0D01*
G01*
X252269780Y-92915990D02*
G75*
G02X251269780Y-93915990I-1000000J0D01*
G01*
X251269780Y-79915990D02*
G75*
G02X252269780Y-80915990I0J-1000000D01*
G01*
X239269780Y-93915990D02*
G75*
G02X238269780Y-92915990I0J1000000D01*
G01*
X239269780Y-93915990D02*
X251269780Y-93915990D01*
X252269780Y-80915990D02*
X252269780Y-92915990D01*
X239269780Y-79915990D02*
X251269780Y-79915990D01*
X238269780Y-92915990D02*
X238269780Y-80915990D01*
X219219700Y-83297250D02*
G75*
G02X220219700Y-82297250I1000000J0D01*
G01*
X233219700Y-95297250D02*
G75*
G02X232219700Y-96297250I-1000000J0D01*
G01*
X232219700Y-82297250D02*
G75*
G02X233219700Y-83297250I0J-1000000D01*
G01*
X220219700Y-96297250D02*
G75*
G02X219219700Y-95297250I0J1000000D01*
G01*
X220219700Y-96297250D02*
X232219700Y-96297250D01*
X233219700Y-83297250D02*
X233219700Y-95297250D01*
X220219700Y-82297250D02*
X232219700Y-82297250D01*
X219219700Y-95297250D02*
X219219700Y-83297250D01*
X162069460Y-83297250D02*
G75*
G02X163069460Y-82297250I1000000J0D01*
G01*
X176069460Y-95297250D02*
G75*
G02X175069460Y-96297250I-1000000J0D01*
G01*
X175069460Y-82297250D02*
G75*
G02X176069460Y-83297250I0J-1000000D01*
G01*
X163069460Y-96297250D02*
G75*
G02X162069460Y-95297250I0J1000000D01*
G01*
X163069460Y-96297250D02*
X175069460Y-96297250D01*
X176069460Y-83297250D02*
X176069460Y-95297250D01*
X163069460Y-82297250D02*
X175069460Y-82297250D01*
X162069460Y-95297250D02*
X162069460Y-83297250D01*
X143019380Y-80915990D02*
G75*
G02X144019380Y-79915990I1000000J0D01*
G01*
X157019380Y-92915990D02*
G75*
G02X156019380Y-93915990I-1000000J0D01*
G01*
X156019380Y-79915990D02*
G75*
G02X157019380Y-80915990I0J-1000000D01*
G01*
X144019380Y-93915990D02*
G75*
G02X143019380Y-92915990I0J1000000D01*
G01*
X144019380Y-93915990D02*
X156019380Y-93915990D01*
X157019380Y-80915990D02*
X157019380Y-92915990D01*
X144019380Y-79915990D02*
X156019380Y-79915990D01*
X143019380Y-92915990D02*
X143019380Y-80915990D01*
X123969300Y-78534730D02*
G75*
G02X124969300Y-77534730I1000000J0D01*
G01*
X137969300Y-90534730D02*
G75*
G02X136969300Y-91534730I-1000000J0D01*
G01*
X136969300Y-77534730D02*
G75*
G02X137969300Y-78534730I0J-1000000D01*
G01*
X124969300Y-91534730D02*
G75*
G02X123969300Y-90534730I0J1000000D01*
G01*
X124969300Y-91534730D02*
X136969300Y-91534730D01*
X137969300Y-78534730D02*
X137969300Y-90534730D01*
X124969300Y-77534730D02*
X136969300Y-77534730D01*
X123969300Y-90534730D02*
X123969300Y-78534730D01*
X104919220Y-80915990D02*
G75*
G02X105919220Y-79915990I1000000J0D01*
G01*
X118919220Y-92915990D02*
G75*
G02X117919220Y-93915990I-1000000J0D01*
G01*
X117919220Y-79915990D02*
G75*
G02X118919220Y-80915990I0J-1000000D01*
G01*
X105919220Y-93915990D02*
G75*
G02X104919220Y-92915990I0J1000000D01*
G01*
X105919220Y-93915990D02*
X117919220Y-93915990D01*
X118919220Y-80915990D02*
X118919220Y-92915990D01*
X105919220Y-79915990D02*
X117919220Y-79915990D01*
X104919220Y-92915990D02*
X104919220Y-80915990D01*
X85869140Y-84487880D02*
G75*
G02X86869140Y-83487880I1000000J0D01*
G01*
X99869140Y-96487880D02*
G75*
G02X98869140Y-97487880I-1000000J0D01*
G01*
X98869140Y-83487880D02*
G75*
G02X99869140Y-84487880I0J-1000000D01*
G01*
X86869140Y-97487880D02*
G75*
G02X85869140Y-96487880I0J1000000D01*
G01*
X86869140Y-97487880D02*
X98869140Y-97487880D01*
X99869140Y-84487880D02*
X99869140Y-96487880D01*
X86869140Y-83487880D02*
X98869140Y-83487880D01*
X85869140Y-96487880D02*
X85869140Y-84487880D01*
X66819060Y-84487880D02*
G75*
G02X67819060Y-83487880I1000000J0D01*
G01*
X80819060Y-96487880D02*
G75*
G02X79819060Y-97487880I-1000000J0D01*
G01*
X79819060Y-83487880D02*
G75*
G02X80819060Y-84487880I0J-1000000D01*
G01*
X67819060Y-97487880D02*
G75*
G02X66819060Y-96487880I0J1000000D01*
G01*
X67819060Y-97487880D02*
X79819060Y-97487880D01*
X80819060Y-84487880D02*
X80819060Y-96487880D01*
X67819060Y-83487880D02*
X79819060Y-83487880D01*
X66819060Y-96487880D02*
X66819060Y-84487880D01*
X258319860Y-167735050D02*
X270319860Y-167735050D01*
X271319860Y-154735050D02*
X271319860Y-166735050D01*
X258319860Y-153735050D02*
X270319860Y-153735050D01*
X257319860Y-166735050D02*
X257319860Y-154735050D01*
X257319860Y-154735050D02*
G75*
G02X258319860Y-153735050I1000000J0D01*
G01*
X271319860Y-166735050D02*
G75*
G02X270319860Y-167735050I-1000000J0D01*
G01*
X270319860Y-153735050D02*
G75*
G02X271319860Y-154735050I0J-1000000D01*
G01*
X258319860Y-167735050D02*
G75*
G02X257319860Y-166735050I0J1000000D01*
G01*
X67819060Y-116537960D02*
X79819060Y-116537960D01*
X80819060Y-103537960D02*
X80819060Y-115537960D01*
X67819060Y-102537960D02*
X79819060Y-102537960D01*
X66819060Y-115537960D02*
X66819060Y-103537960D01*
X66819060Y-103537960D02*
G75*
G02X67819060Y-102537960I1000000J0D01*
G01*
X80819060Y-115537960D02*
G75*
G02X79819060Y-116537960I-1000000J0D01*
G01*
X79819060Y-102537960D02*
G75*
G02X80819060Y-103537960I0J-1000000D01*
G01*
X67819060Y-116537960D02*
G75*
G02X66819060Y-115537960I0J1000000D01*
G01*
X277369940Y-170116310D02*
X289369940Y-170116310D01*
X290369940Y-157116310D02*
X290369940Y-169116310D01*
X277369940Y-156116310D02*
X289369940Y-156116310D01*
X276369940Y-169116310D02*
X276369940Y-157116310D01*
X276369940Y-157116310D02*
G75*
G02X277369940Y-156116310I1000000J0D01*
G01*
X290369940Y-169116310D02*
G75*
G02X289369940Y-170116310I-1000000J0D01*
G01*
X289369940Y-156116310D02*
G75*
G02X290369940Y-157116310I0J-1000000D01*
G01*
X277369940Y-170116310D02*
G75*
G02X276369940Y-169116310I0J1000000D01*
G01*
X242109822Y-158373805D02*
X230518712Y-161479633D01*
X232917433Y-174295488D02*
X229811605Y-162704378D01*
X245733288Y-171896767D02*
X234142178Y-175002595D01*
X243334567Y-159080912D02*
X246440395Y-170672022D01*
X246440395Y-170672022D02*
G75*
G02X245733288Y-171896767I-965926J-258819D01*
G01*
X229811605Y-162704378D02*
G75*
G02X230518712Y-161479633I965926J258819D01*
G01*
X234142178Y-175002595D02*
G75*
G02X232917433Y-174295488I-258819J965926D01*
G01*
X242109822Y-158373805D02*
G75*
G02X243334567Y-159080912I258819J-965926D01*
G01*
X164770448Y-161479633D02*
X153179338Y-158373805D01*
X148848765Y-170672022D02*
X151954593Y-159080912D01*
X161146982Y-175002595D02*
X149555872Y-171896767D01*
X165477555Y-162704378D02*
X162371727Y-174295488D01*
X162371727Y-174295488D02*
G75*
G02X161146982Y-175002595I-965926J258819D01*
G01*
X151954593Y-159080912D02*
G75*
G02X153179338Y-158373805I965926J-258819D01*
G01*
X149555872Y-171896767D02*
G75*
G02X148848765Y-170672022I258819J965926D01*
G01*
X164770448Y-161479633D02*
G75*
G02X165477555Y-162704378I-258819J-965926D01*
G01*
X124969300Y-167735050D02*
X136969300Y-167735050D01*
X137969300Y-154735050D02*
X137969300Y-166735050D01*
X124969300Y-153735050D02*
X136969300Y-153735050D01*
X123969300Y-166735050D02*
X123969300Y-154735050D01*
X123969300Y-154735050D02*
G75*
G02X124969300Y-153735050I1000000J0D01*
G01*
X137969300Y-166735050D02*
G75*
G02X136969300Y-167735050I-1000000J0D01*
G01*
X136969300Y-153735050D02*
G75*
G02X137969300Y-154735050I0J-1000000D01*
G01*
X124969300Y-167735050D02*
G75*
G02X123969300Y-166735050I0J1000000D01*
G01*
X105919220Y-170116310D02*
X117919220Y-170116310D01*
X118919220Y-157116310D02*
X118919220Y-169116310D01*
X105919220Y-156116310D02*
X117919220Y-156116310D01*
X104919220Y-169116310D02*
X104919220Y-157116310D01*
X104919220Y-157116310D02*
G75*
G02X105919220Y-156116310I1000000J0D01*
G01*
X118919220Y-169116310D02*
G75*
G02X117919220Y-170116310I-1000000J0D01*
G01*
X117919220Y-156116310D02*
G75*
G02X118919220Y-157116310I0J-1000000D01*
G01*
X105919220Y-170116310D02*
G75*
G02X104919220Y-169116310I0J1000000D01*
G01*
X315470100Y-154638120D02*
X327470100Y-154638120D01*
X328470100Y-141638120D02*
X328470100Y-153638120D01*
X315470100Y-140638120D02*
X327470100Y-140638120D01*
X314470100Y-153638120D02*
X314470100Y-141638120D01*
X314470100Y-141638120D02*
G75*
G02X315470100Y-140638120I1000000J0D01*
G01*
X328470100Y-153638120D02*
G75*
G02X327470100Y-154638120I-1000000J0D01*
G01*
X327470100Y-140638120D02*
G75*
G02X328470100Y-141638120I0J-1000000D01*
G01*
X315470100Y-154638120D02*
G75*
G02X314470100Y-153638120I0J1000000D01*
G01*
X296420020Y-154638120D02*
X308420020Y-154638120D01*
X309420020Y-141638120D02*
X309420020Y-153638120D01*
X296420020Y-140638120D02*
X308420020Y-140638120D01*
X295420020Y-153638120D02*
X295420020Y-141638120D01*
X295420020Y-141638120D02*
G75*
G02X296420020Y-140638120I1000000J0D01*
G01*
X309420020Y-153638120D02*
G75*
G02X308420020Y-154638120I-1000000J0D01*
G01*
X308420020Y-140638120D02*
G75*
G02X309420020Y-141638120I0J-1000000D01*
G01*
X296420020Y-154638120D02*
G75*
G02X295420020Y-153638120I0J1000000D01*
G01*
X277369940Y-151066230D02*
X289369940Y-151066230D01*
X290369940Y-138066230D02*
X290369940Y-150066230D01*
X277369940Y-137066230D02*
X289369940Y-137066230D01*
X276369940Y-150066230D02*
X276369940Y-138066230D01*
X276369940Y-138066230D02*
G75*
G02X277369940Y-137066230I1000000J0D01*
G01*
X290369940Y-150066230D02*
G75*
G02X289369940Y-151066230I-1000000J0D01*
G01*
X289369940Y-137066230D02*
G75*
G02X290369940Y-138066230I0J-1000000D01*
G01*
X277369940Y-151066230D02*
G75*
G02X276369940Y-150066230I0J1000000D01*
G01*
X258319860Y-148684970D02*
X270319860Y-148684970D01*
X271319860Y-135684970D02*
X271319860Y-147684970D01*
X258319860Y-134684970D02*
X270319860Y-134684970D01*
X257319860Y-147684970D02*
X257319860Y-135684970D01*
X257319860Y-135684970D02*
G75*
G02X258319860Y-134684970I1000000J0D01*
G01*
X271319860Y-147684970D02*
G75*
G02X270319860Y-148684970I-1000000J0D01*
G01*
X270319860Y-134684970D02*
G75*
G02X271319860Y-135684970I0J-1000000D01*
G01*
X258319860Y-148684970D02*
G75*
G02X257319860Y-147684970I0J1000000D01*
G01*
X239269780Y-151066230D02*
X251269780Y-151066230D01*
X252269780Y-138066230D02*
X252269780Y-150066230D01*
X239269780Y-137066230D02*
X251269780Y-137066230D01*
X238269780Y-150066230D02*
X238269780Y-138066230D01*
X238269780Y-138066230D02*
G75*
G02X239269780Y-137066230I1000000J0D01*
G01*
X252269780Y-150066230D02*
G75*
G02X251269780Y-151066230I-1000000J0D01*
G01*
X251269780Y-137066230D02*
G75*
G02X252269780Y-138066230I0J-1000000D01*
G01*
X239269780Y-151066230D02*
G75*
G02X238269780Y-150066230I0J1000000D01*
G01*
X220219700Y-153447490D02*
X232219700Y-153447490D01*
X233219700Y-140447490D02*
X233219700Y-152447490D01*
X220219700Y-139447490D02*
X232219700Y-139447490D01*
X219219700Y-152447490D02*
X219219700Y-140447490D01*
X219219700Y-140447490D02*
G75*
G02X220219700Y-139447490I1000000J0D01*
G01*
X233219700Y-152447490D02*
G75*
G02X232219700Y-153447490I-1000000J0D01*
G01*
X232219700Y-139447490D02*
G75*
G02X233219700Y-140447490I0J-1000000D01*
G01*
X220219700Y-153447490D02*
G75*
G02X219219700Y-152447490I0J1000000D01*
G01*
X163069460Y-153447490D02*
X175069460Y-153447490D01*
X176069460Y-140447490D02*
X176069460Y-152447490D01*
X163069460Y-139447490D02*
X175069460Y-139447490D01*
X162069460Y-152447490D02*
X162069460Y-140447490D01*
X162069460Y-140447490D02*
G75*
G02X163069460Y-139447490I1000000J0D01*
G01*
X176069460Y-152447490D02*
G75*
G02X175069460Y-153447490I-1000000J0D01*
G01*
X175069460Y-139447490D02*
G75*
G02X176069460Y-140447490I0J-1000000D01*
G01*
X163069460Y-153447490D02*
G75*
G02X162069460Y-152447490I0J1000000D01*
G01*
X144019380Y-151066230D02*
X156019380Y-151066230D01*
X157019380Y-138066230D02*
X157019380Y-150066230D01*
X144019380Y-137066230D02*
X156019380Y-137066230D01*
X143019380Y-150066230D02*
X143019380Y-138066230D01*
X143019380Y-138066230D02*
G75*
G02X144019380Y-137066230I1000000J0D01*
G01*
X157019380Y-150066230D02*
G75*
G02X156019380Y-151066230I-1000000J0D01*
G01*
X156019380Y-137066230D02*
G75*
G02X157019380Y-138066230I0J-1000000D01*
G01*
X144019380Y-151066230D02*
G75*
G02X143019380Y-150066230I0J1000000D01*
G01*
X124969300Y-148684970D02*
X136969300Y-148684970D01*
X137969300Y-135684970D02*
X137969300Y-147684970D01*
X124969300Y-134684970D02*
X136969300Y-134684970D01*
X123969300Y-147684970D02*
X123969300Y-135684970D01*
X123969300Y-135684970D02*
G75*
G02X124969300Y-134684970I1000000J0D01*
G01*
X137969300Y-147684970D02*
G75*
G02X136969300Y-148684970I-1000000J0D01*
G01*
X136969300Y-134684970D02*
G75*
G02X137969300Y-135684970I0J-1000000D01*
G01*
X124969300Y-148684970D02*
G75*
G02X123969300Y-147684970I0J1000000D01*
G01*
X105919220Y-151066230D02*
X117919220Y-151066230D01*
X118919220Y-138066230D02*
X118919220Y-150066230D01*
X105919220Y-137066230D02*
X117919220Y-137066230D01*
X104919220Y-150066230D02*
X104919220Y-138066230D01*
X104919220Y-138066230D02*
G75*
G02X105919220Y-137066230I1000000J0D01*
G01*
X118919220Y-150066230D02*
G75*
G02X117919220Y-151066230I-1000000J0D01*
G01*
X117919220Y-137066230D02*
G75*
G02X118919220Y-138066230I0J-1000000D01*
G01*
X105919220Y-151066230D02*
G75*
G02X104919220Y-150066230I0J1000000D01*
G01*
X86869140Y-154638120D02*
X98869140Y-154638120D01*
X99869140Y-141638120D02*
X99869140Y-153638120D01*
X86869140Y-140638120D02*
X98869140Y-140638120D01*
X85869140Y-153638120D02*
X85869140Y-141638120D01*
X85869140Y-141638120D02*
G75*
G02X86869140Y-140638120I1000000J0D01*
G01*
X99869140Y-153638120D02*
G75*
G02X98869140Y-154638120I-1000000J0D01*
G01*
X98869140Y-140638120D02*
G75*
G02X99869140Y-141638120I0J-1000000D01*
G01*
X86869140Y-154638120D02*
G75*
G02X85869140Y-153638120I0J1000000D01*
G01*
X67819060Y-154638120D02*
X79819060Y-154638120D01*
X80819060Y-141638120D02*
X80819060Y-153638120D01*
X67819060Y-140638120D02*
X79819060Y-140638120D01*
X66819060Y-153638120D02*
X66819060Y-141638120D01*
X66819060Y-141638120D02*
G75*
G02X67819060Y-140638120I1000000J0D01*
G01*
X80819060Y-153638120D02*
G75*
G02X79819060Y-154638120I-1000000J0D01*
G01*
X79819060Y-140638120D02*
G75*
G02X80819060Y-141638120I0J-1000000D01*
G01*
X67819060Y-154638120D02*
G75*
G02X66819060Y-153638120I0J1000000D01*
G01*
X315470100Y-135588040D02*
X327470100Y-135588040D01*
X328470100Y-122588040D02*
X328470100Y-134588040D01*
X315470100Y-121588040D02*
X327470100Y-121588040D01*
X314470100Y-134588040D02*
X314470100Y-122588040D01*
X314470100Y-122588040D02*
G75*
G02X315470100Y-121588040I1000000J0D01*
G01*
X328470100Y-134588040D02*
G75*
G02X327470100Y-135588040I-1000000J0D01*
G01*
X327470100Y-121588040D02*
G75*
G02X328470100Y-122588040I0J-1000000D01*
G01*
X315470100Y-135588040D02*
G75*
G02X314470100Y-134588040I0J1000000D01*
G01*
X296420020Y-135588040D02*
X308420020Y-135588040D01*
X309420020Y-122588040D02*
X309420020Y-134588040D01*
X296420020Y-121588040D02*
X308420020Y-121588040D01*
X295420020Y-134588040D02*
X295420020Y-122588040D01*
X295420020Y-122588040D02*
G75*
G02X296420020Y-121588040I1000000J0D01*
G01*
X309420020Y-134588040D02*
G75*
G02X308420020Y-135588040I-1000000J0D01*
G01*
X308420020Y-121588040D02*
G75*
G02X309420020Y-122588040I0J-1000000D01*
G01*
X296420020Y-135588040D02*
G75*
G02X295420020Y-134588040I0J1000000D01*
G01*
X277369940Y-132016150D02*
X289369940Y-132016150D01*
X290369940Y-119016150D02*
X290369940Y-131016150D01*
X277369940Y-118016150D02*
X289369940Y-118016150D01*
X276369940Y-131016150D02*
X276369940Y-119016150D01*
X276369940Y-119016150D02*
G75*
G02X277369940Y-118016150I1000000J0D01*
G01*
X290369940Y-131016150D02*
G75*
G02X289369940Y-132016150I-1000000J0D01*
G01*
X289369940Y-118016150D02*
G75*
G02X290369940Y-119016150I0J-1000000D01*
G01*
X277369940Y-132016150D02*
G75*
G02X276369940Y-131016150I0J1000000D01*
G01*
X258319860Y-129634890D02*
X270319860Y-129634890D01*
X271319860Y-116634890D02*
X271319860Y-128634890D01*
X258319860Y-115634890D02*
X270319860Y-115634890D01*
X257319860Y-128634890D02*
X257319860Y-116634890D01*
X257319860Y-116634890D02*
G75*
G02X258319860Y-115634890I1000000J0D01*
G01*
X271319860Y-128634890D02*
G75*
G02X270319860Y-129634890I-1000000J0D01*
G01*
X270319860Y-115634890D02*
G75*
G02X271319860Y-116634890I0J-1000000D01*
G01*
X258319860Y-129634890D02*
G75*
G02X257319860Y-128634890I0J1000000D01*
G01*
X239269780Y-132016150D02*
X251269780Y-132016150D01*
X252269780Y-119016150D02*
X252269780Y-131016150D01*
X239269780Y-118016150D02*
X251269780Y-118016150D01*
X238269780Y-131016150D02*
X238269780Y-119016150D01*
X238269780Y-119016150D02*
G75*
G02X239269780Y-118016150I1000000J0D01*
G01*
X252269780Y-131016150D02*
G75*
G02X251269780Y-132016150I-1000000J0D01*
G01*
X251269780Y-118016150D02*
G75*
G02X252269780Y-119016150I0J-1000000D01*
G01*
X239269780Y-132016150D02*
G75*
G02X238269780Y-131016150I0J1000000D01*
G01*
X220219700Y-134397410D02*
X232219700Y-134397410D01*
X233219700Y-121397410D02*
X233219700Y-133397410D01*
X220219700Y-120397410D02*
X232219700Y-120397410D01*
X219219700Y-133397410D02*
X219219700Y-121397410D01*
X219219700Y-121397410D02*
G75*
G02X220219700Y-120397410I1000000J0D01*
G01*
X233219700Y-133397410D02*
G75*
G02X232219700Y-134397410I-1000000J0D01*
G01*
X232219700Y-120397410D02*
G75*
G02X233219700Y-121397410I0J-1000000D01*
G01*
X220219700Y-134397410D02*
G75*
G02X219219700Y-133397410I0J1000000D01*
G01*
X163069460Y-134397410D02*
X175069460Y-134397410D01*
X176069460Y-121397410D02*
X176069460Y-133397410D01*
X163069460Y-120397410D02*
X175069460Y-120397410D01*
X162069460Y-133397410D02*
X162069460Y-121397410D01*
X162069460Y-121397410D02*
G75*
G02X163069460Y-120397410I1000000J0D01*
G01*
X176069460Y-133397410D02*
G75*
G02X175069460Y-134397410I-1000000J0D01*
G01*
X175069460Y-120397410D02*
G75*
G02X176069460Y-121397410I0J-1000000D01*
G01*
X163069460Y-134397410D02*
G75*
G02X162069460Y-133397410I0J1000000D01*
G01*
X144019380Y-132016150D02*
X156019380Y-132016150D01*
X157019380Y-119016150D02*
X157019380Y-131016150D01*
X144019380Y-118016150D02*
X156019380Y-118016150D01*
X143019380Y-131016150D02*
X143019380Y-119016150D01*
X143019380Y-119016150D02*
G75*
G02X144019380Y-118016150I1000000J0D01*
G01*
X157019380Y-131016150D02*
G75*
G02X156019380Y-132016150I-1000000J0D01*
G01*
X156019380Y-118016150D02*
G75*
G02X157019380Y-119016150I0J-1000000D01*
G01*
X144019380Y-132016150D02*
G75*
G02X143019380Y-131016150I0J1000000D01*
G01*
X124969300Y-129634890D02*
X136969300Y-129634890D01*
X137969300Y-116634890D02*
X137969300Y-128634890D01*
X124969300Y-115634890D02*
X136969300Y-115634890D01*
X123969300Y-128634890D02*
X123969300Y-116634890D01*
X123969300Y-116634890D02*
G75*
G02X124969300Y-115634890I1000000J0D01*
G01*
X137969300Y-128634890D02*
G75*
G02X136969300Y-129634890I-1000000J0D01*
G01*
X136969300Y-115634890D02*
G75*
G02X137969300Y-116634890I0J-1000000D01*
G01*
X124969300Y-129634890D02*
G75*
G02X123969300Y-128634890I0J1000000D01*
G01*
X105919220Y-132016150D02*
X117919220Y-132016150D01*
X118919220Y-119016150D02*
X118919220Y-131016150D01*
X105919220Y-118016150D02*
X117919220Y-118016150D01*
X104919220Y-131016150D02*
X104919220Y-119016150D01*
X104919220Y-119016150D02*
G75*
G02X105919220Y-118016150I1000000J0D01*
G01*
X118919220Y-131016150D02*
G75*
G02X117919220Y-132016150I-1000000J0D01*
G01*
X117919220Y-118016150D02*
G75*
G02X118919220Y-119016150I0J-1000000D01*
G01*
X105919220Y-132016150D02*
G75*
G02X104919220Y-131016150I0J1000000D01*
G01*
X86869140Y-135588040D02*
X98869140Y-135588040D01*
X99869140Y-122588040D02*
X99869140Y-134588040D01*
X86869140Y-121588040D02*
X98869140Y-121588040D01*
X85869140Y-134588040D02*
X85869140Y-122588040D01*
X85869140Y-122588040D02*
G75*
G02X86869140Y-121588040I1000000J0D01*
G01*
X99869140Y-134588040D02*
G75*
G02X98869140Y-135588040I-1000000J0D01*
G01*
X98869140Y-121588040D02*
G75*
G02X99869140Y-122588040I0J-1000000D01*
G01*
X86869140Y-135588040D02*
G75*
G02X85869140Y-134588040I0J1000000D01*
G01*
X67819060Y-135588040D02*
X79819060Y-135588040D01*
X80819060Y-122588040D02*
X80819060Y-134588040D01*
X67819060Y-121588040D02*
X79819060Y-121588040D01*
X66819060Y-134588040D02*
X66819060Y-122588040D01*
X66819060Y-122588040D02*
G75*
G02X67819060Y-121588040I1000000J0D01*
G01*
X80819060Y-134588040D02*
G75*
G02X79819060Y-135588040I-1000000J0D01*
G01*
X79819060Y-121588040D02*
G75*
G02X80819060Y-122588040I0J-1000000D01*
G01*
X67819060Y-135588040D02*
G75*
G02X66819060Y-134588040I0J1000000D01*
G01*
X315470100Y-116537960D02*
X327470100Y-116537960D01*
X328470100Y-103537960D02*
X328470100Y-115537960D01*
X315470100Y-102537960D02*
X327470100Y-102537960D01*
X314470100Y-115537960D02*
X314470100Y-103537960D01*
X314470100Y-103537960D02*
G75*
G02X315470100Y-102537960I1000000J0D01*
G01*
X328470100Y-115537960D02*
G75*
G02X327470100Y-116537960I-1000000J0D01*
G01*
X327470100Y-102537960D02*
G75*
G02X328470100Y-103537960I0J-1000000D01*
G01*
X315470100Y-116537960D02*
G75*
G02X314470100Y-115537960I0J1000000D01*
G01*
X296420020Y-116537960D02*
X308420020Y-116537960D01*
X309420020Y-103537960D02*
X309420020Y-115537960D01*
X296420020Y-102537960D02*
X308420020Y-102537960D01*
X295420020Y-115537960D02*
X295420020Y-103537960D01*
X295420020Y-103537960D02*
G75*
G02X296420020Y-102537960I1000000J0D01*
G01*
X309420020Y-115537960D02*
G75*
G02X308420020Y-116537960I-1000000J0D01*
G01*
X308420020Y-102537960D02*
G75*
G02X309420020Y-103537960I0J-1000000D01*
G01*
X296420020Y-116537960D02*
G75*
G02X295420020Y-115537960I0J1000000D01*
G01*
X277369940Y-112966070D02*
X289369940Y-112966070D01*
X290369940Y-99966070D02*
X290369940Y-111966070D01*
X277369940Y-98966070D02*
X289369940Y-98966070D01*
X276369940Y-111966070D02*
X276369940Y-99966070D01*
X276369940Y-99966070D02*
G75*
G02X277369940Y-98966070I1000000J0D01*
G01*
X290369940Y-111966070D02*
G75*
G02X289369940Y-112966070I-1000000J0D01*
G01*
X289369940Y-98966070D02*
G75*
G02X290369940Y-99966070I0J-1000000D01*
G01*
X277369940Y-112966070D02*
G75*
G02X276369940Y-111966070I0J1000000D01*
G01*
X258319860Y-110584810D02*
X270319860Y-110584810D01*
X271319860Y-97584810D02*
X271319860Y-109584810D01*
X258319860Y-96584810D02*
X270319860Y-96584810D01*
X257319860Y-109584810D02*
X257319860Y-97584810D01*
X257319860Y-97584810D02*
G75*
G02X258319860Y-96584810I1000000J0D01*
G01*
X271319860Y-109584810D02*
G75*
G02X270319860Y-110584810I-1000000J0D01*
G01*
X270319860Y-96584810D02*
G75*
G02X271319860Y-97584810I0J-1000000D01*
G01*
X258319860Y-110584810D02*
G75*
G02X257319860Y-109584810I0J1000000D01*
G01*
X239269780Y-112966070D02*
X251269780Y-112966070D01*
X252269780Y-99966070D02*
X252269780Y-111966070D01*
X239269780Y-98966070D02*
X251269780Y-98966070D01*
X238269780Y-111966070D02*
X238269780Y-99966070D01*
X238269780Y-99966070D02*
G75*
G02X239269780Y-98966070I1000000J0D01*
G01*
X252269780Y-111966070D02*
G75*
G02X251269780Y-112966070I-1000000J0D01*
G01*
X251269780Y-98966070D02*
G75*
G02X252269780Y-99966070I0J-1000000D01*
G01*
X239269780Y-112966070D02*
G75*
G02X238269780Y-111966070I0J1000000D01*
G01*
X220219700Y-115347330D02*
X232219700Y-115347330D01*
X233219700Y-102347330D02*
X233219700Y-114347330D01*
X220219700Y-101347330D02*
X232219700Y-101347330D01*
X219219700Y-114347330D02*
X219219700Y-102347330D01*
X219219700Y-102347330D02*
G75*
G02X220219700Y-101347330I1000000J0D01*
G01*
X233219700Y-114347330D02*
G75*
G02X232219700Y-115347330I-1000000J0D01*
G01*
X232219700Y-101347330D02*
G75*
G02X233219700Y-102347330I0J-1000000D01*
G01*
X220219700Y-115347330D02*
G75*
G02X219219700Y-114347330I0J1000000D01*
G01*
X163069460Y-115347330D02*
X175069460Y-115347330D01*
X176069460Y-102347330D02*
X176069460Y-114347330D01*
X163069460Y-101347330D02*
X175069460Y-101347330D01*
X162069460Y-114347330D02*
X162069460Y-102347330D01*
X162069460Y-102347330D02*
G75*
G02X163069460Y-101347330I1000000J0D01*
G01*
X176069460Y-114347330D02*
G75*
G02X175069460Y-115347330I-1000000J0D01*
G01*
X175069460Y-101347330D02*
G75*
G02X176069460Y-102347330I0J-1000000D01*
G01*
X163069460Y-115347330D02*
G75*
G02X162069460Y-114347330I0J1000000D01*
G01*
X144019380Y-112966070D02*
X156019380Y-112966070D01*
X157019380Y-99966070D02*
X157019380Y-111966070D01*
X144019380Y-98966070D02*
X156019380Y-98966070D01*
X143019380Y-111966070D02*
X143019380Y-99966070D01*
X143019380Y-99966070D02*
G75*
G02X144019380Y-98966070I1000000J0D01*
G01*
X157019380Y-111966070D02*
G75*
G02X156019380Y-112966070I-1000000J0D01*
G01*
X156019380Y-98966070D02*
G75*
G02X157019380Y-99966070I0J-1000000D01*
G01*
X144019380Y-112966070D02*
G75*
G02X143019380Y-111966070I0J1000000D01*
G01*
X124969300Y-110584810D02*
X136969300Y-110584810D01*
X137969300Y-97584810D02*
X137969300Y-109584810D01*
X124969300Y-96584810D02*
X136969300Y-96584810D01*
X123969300Y-109584810D02*
X123969300Y-97584810D01*
X123969300Y-97584810D02*
G75*
G02X124969300Y-96584810I1000000J0D01*
G01*
X137969300Y-109584810D02*
G75*
G02X136969300Y-110584810I-1000000J0D01*
G01*
X136969300Y-96584810D02*
G75*
G02X137969300Y-97584810I0J-1000000D01*
G01*
X124969300Y-110584810D02*
G75*
G02X123969300Y-109584810I0J1000000D01*
G01*
X105919220Y-112966070D02*
X117919220Y-112966070D01*
X118919220Y-99966070D02*
X118919220Y-111966070D01*
X105919220Y-98966070D02*
X117919220Y-98966070D01*
X104919220Y-111966070D02*
X104919220Y-99966070D01*
X104919220Y-99966070D02*
G75*
G02X105919220Y-98966070I1000000J0D01*
G01*
X118919220Y-111966070D02*
G75*
G02X117919220Y-112966070I-1000000J0D01*
G01*
X117919220Y-98966070D02*
G75*
G02X118919220Y-99966070I0J-1000000D01*
G01*
X105919220Y-112966070D02*
G75*
G02X104919220Y-111966070I0J1000000D01*
G01*
X86869140Y-116537960D02*
X98869140Y-116537960D01*
X99869140Y-103537960D02*
X99869140Y-115537960D01*
X86869140Y-102537960D02*
X98869140Y-102537960D01*
X85869140Y-115537960D02*
X85869140Y-103537960D01*
X85869140Y-103537960D02*
G75*
G02X86869140Y-102537960I1000000J0D01*
G01*
X99869140Y-115537960D02*
G75*
G02X98869140Y-116537960I-1000000J0D01*
G01*
X98869140Y-102537960D02*
G75*
G02X99869140Y-103537960I0J-1000000D01*
G01*
X86869140Y-116537960D02*
G75*
G02X85869140Y-115537960I0J1000000D01*
G01*
M02*
