G04 #@! TF.GenerationSoftware,KiCad,Pcbnew,(5.1.4-0)*
G04 #@! TF.CreationDate,2021-10-13T07:08:27-05:00*
G04 #@! TF.ProjectId,niko_top_plate,6e696b6f-5f74-46f7-905f-706c6174652e,rev?*
G04 #@! TF.SameCoordinates,Original*
G04 #@! TF.FileFunction,Soldermask,Bot*
G04 #@! TF.FilePolarity,Negative*
%FSLAX46Y46*%
G04 Gerber Fmt 4.6, Leading zero omitted, Abs format (unit mm)*
G04 Created by KiCad (PCBNEW (5.1.4-0)) date 2021-10-13 07:08:27*
%MOMM*%
%LPD*%
G04 APERTURE LIST*
%ADD10C,2.000000*%
%ADD11C,0.100000*%
%ADD12C,1.000000*%
%ADD13C,3.500000*%
G04 APERTURE END LIST*
D10*
X199882785Y-152447085D02*
G75*
G02X198882785Y-153447085I-1000000J0D01*
G01*
X186882785Y-153447085D02*
G75*
G02X185882785Y-152447085I0J1000000D01*
G01*
X185882785Y-140447085D02*
G75*
G02X186882785Y-139447085I1000000J0D01*
G01*
X198882785Y-139447085D02*
G75*
G02X199882785Y-140447085I0J-1000000D01*
G01*
X199882785Y-152447085D02*
X199882785Y-140447085D01*
X198882785Y-153447085D02*
X186882785Y-153447085D01*
X185882785Y-152447085D02*
X185882785Y-140447085D01*
X198882785Y-139447085D02*
X186882785Y-139447085D01*
X318945060Y-96487880D02*
G75*
G02X317945060Y-97487880I-1000000J0D01*
G01*
X305945060Y-97487880D02*
G75*
G02X304945060Y-96487880I0J1000000D01*
G01*
X304945060Y-84487880D02*
G75*
G02X305945060Y-83487880I1000000J0D01*
G01*
X317945060Y-83487880D02*
G75*
G02X318945060Y-84487880I0J-1000000D01*
G01*
X318945060Y-96487880D02*
X318945060Y-84487880D01*
X317945060Y-97487880D02*
X305945060Y-97487880D01*
X304945060Y-96487880D02*
X304945060Y-84487880D01*
X317945060Y-83487880D02*
X305945060Y-83487880D01*
X299894980Y-96487880D02*
G75*
G02X298894980Y-97487880I-1000000J0D01*
G01*
X286894980Y-97487880D02*
G75*
G02X285894980Y-96487880I0J1000000D01*
G01*
X285894980Y-84487880D02*
G75*
G02X286894980Y-83487880I1000000J0D01*
G01*
X298894980Y-83487880D02*
G75*
G02X299894980Y-84487880I0J-1000000D01*
G01*
X299894980Y-96487880D02*
X299894980Y-84487880D01*
X298894980Y-97487880D02*
X286894980Y-97487880D01*
X285894980Y-96487880D02*
X285894980Y-84487880D01*
X298894980Y-83487880D02*
X286894980Y-83487880D01*
X280844900Y-92915990D02*
G75*
G02X279844900Y-93915990I-1000000J0D01*
G01*
X267844900Y-93915990D02*
G75*
G02X266844900Y-92915990I0J1000000D01*
G01*
X266844900Y-80915990D02*
G75*
G02X267844900Y-79915990I1000000J0D01*
G01*
X279844900Y-79915990D02*
G75*
G02X280844900Y-80915990I0J-1000000D01*
G01*
X280844900Y-92915990D02*
X280844900Y-80915990D01*
X279844900Y-93915990D02*
X267844900Y-93915990D01*
X266844900Y-92915990D02*
X266844900Y-80915990D01*
X279844900Y-79915990D02*
X267844900Y-79915990D01*
X261794820Y-90534730D02*
G75*
G02X260794820Y-91534730I-1000000J0D01*
G01*
X248794820Y-91534730D02*
G75*
G02X247794820Y-90534730I0J1000000D01*
G01*
X247794820Y-78534730D02*
G75*
G02X248794820Y-77534730I1000000J0D01*
G01*
X260794820Y-77534730D02*
G75*
G02X261794820Y-78534730I0J-1000000D01*
G01*
X261794820Y-90534730D02*
X261794820Y-78534730D01*
X260794820Y-91534730D02*
X248794820Y-91534730D01*
X247794820Y-90534730D02*
X247794820Y-78534730D01*
X260794820Y-77534730D02*
X248794820Y-77534730D01*
X242744740Y-92915990D02*
G75*
G02X241744740Y-93915990I-1000000J0D01*
G01*
X229744740Y-93915990D02*
G75*
G02X228744740Y-92915990I0J1000000D01*
G01*
X228744740Y-80915990D02*
G75*
G02X229744740Y-79915990I1000000J0D01*
G01*
X241744740Y-79915990D02*
G75*
G02X242744740Y-80915990I0J-1000000D01*
G01*
X242744740Y-92915990D02*
X242744740Y-80915990D01*
X241744740Y-93915990D02*
X229744740Y-93915990D01*
X228744740Y-92915990D02*
X228744740Y-80915990D01*
X241744740Y-79915990D02*
X229744740Y-79915990D01*
X223694660Y-95297250D02*
G75*
G02X222694660Y-96297250I-1000000J0D01*
G01*
X210694660Y-96297250D02*
G75*
G02X209694660Y-95297250I0J1000000D01*
G01*
X209694660Y-83297250D02*
G75*
G02X210694660Y-82297250I1000000J0D01*
G01*
X222694660Y-82297250D02*
G75*
G02X223694660Y-83297250I0J-1000000D01*
G01*
X223694660Y-95297250D02*
X223694660Y-83297250D01*
X222694660Y-96297250D02*
X210694660Y-96297250D01*
X209694660Y-95297250D02*
X209694660Y-83297250D01*
X222694660Y-82297250D02*
X210694660Y-82297250D01*
X176069460Y-95297250D02*
G75*
G02X175069460Y-96297250I-1000000J0D01*
G01*
X163069460Y-96297250D02*
G75*
G02X162069460Y-95297250I0J1000000D01*
G01*
X162069460Y-83297250D02*
G75*
G02X163069460Y-82297250I1000000J0D01*
G01*
X175069460Y-82297250D02*
G75*
G02X176069460Y-83297250I0J-1000000D01*
G01*
X176069460Y-95297250D02*
X176069460Y-83297250D01*
X175069460Y-96297250D02*
X163069460Y-96297250D01*
X162069460Y-95297250D02*
X162069460Y-83297250D01*
X175069460Y-82297250D02*
X163069460Y-82297250D01*
X157019380Y-92915990D02*
G75*
G02X156019380Y-93915990I-1000000J0D01*
G01*
X144019380Y-93915990D02*
G75*
G02X143019380Y-92915990I0J1000000D01*
G01*
X143019380Y-80915990D02*
G75*
G02X144019380Y-79915990I1000000J0D01*
G01*
X156019380Y-79915990D02*
G75*
G02X157019380Y-80915990I0J-1000000D01*
G01*
X157019380Y-92915990D02*
X157019380Y-80915990D01*
X156019380Y-93915990D02*
X144019380Y-93915990D01*
X143019380Y-92915990D02*
X143019380Y-80915990D01*
X156019380Y-79915990D02*
X144019380Y-79915990D01*
X137969300Y-90534730D02*
G75*
G02X136969300Y-91534730I-1000000J0D01*
G01*
X124969300Y-91534730D02*
G75*
G02X123969300Y-90534730I0J1000000D01*
G01*
X123969300Y-78534730D02*
G75*
G02X124969300Y-77534730I1000000J0D01*
G01*
X136969300Y-77534730D02*
G75*
G02X137969300Y-78534730I0J-1000000D01*
G01*
X137969300Y-90534730D02*
X137969300Y-78534730D01*
X136969300Y-91534730D02*
X124969300Y-91534730D01*
X123969300Y-90534730D02*
X123969300Y-78534730D01*
X136969300Y-77534730D02*
X124969300Y-77534730D01*
X118919220Y-92915990D02*
G75*
G02X117919220Y-93915990I-1000000J0D01*
G01*
X105919220Y-93915990D02*
G75*
G02X104919220Y-92915990I0J1000000D01*
G01*
X104919220Y-80915990D02*
G75*
G02X105919220Y-79915990I1000000J0D01*
G01*
X117919220Y-79915990D02*
G75*
G02X118919220Y-80915990I0J-1000000D01*
G01*
X118919220Y-92915990D02*
X118919220Y-80915990D01*
X117919220Y-93915990D02*
X105919220Y-93915990D01*
X104919220Y-92915990D02*
X104919220Y-80915990D01*
X117919220Y-79915990D02*
X105919220Y-79915990D01*
X99869140Y-96487880D02*
G75*
G02X98869140Y-97487880I-1000000J0D01*
G01*
X86869140Y-97487880D02*
G75*
G02X85869140Y-96487880I0J1000000D01*
G01*
X85869140Y-84487880D02*
G75*
G02X86869140Y-83487880I1000000J0D01*
G01*
X98869140Y-83487880D02*
G75*
G02X99869140Y-84487880I0J-1000000D01*
G01*
X99869140Y-96487880D02*
X99869140Y-84487880D01*
X98869140Y-97487880D02*
X86869140Y-97487880D01*
X85869140Y-96487880D02*
X85869140Y-84487880D01*
X98869140Y-83487880D02*
X86869140Y-83487880D01*
X80819060Y-96487880D02*
G75*
G02X79819060Y-97487880I-1000000J0D01*
G01*
X67819060Y-97487880D02*
G75*
G02X66819060Y-96487880I0J1000000D01*
G01*
X66819060Y-84487880D02*
G75*
G02X67819060Y-83487880I1000000J0D01*
G01*
X79819060Y-83487880D02*
G75*
G02X80819060Y-84487880I0J-1000000D01*
G01*
X80819060Y-96487880D02*
X80819060Y-84487880D01*
X79819060Y-97487880D02*
X67819060Y-97487880D01*
X66819060Y-96487880D02*
X66819060Y-84487880D01*
X79819060Y-83487880D02*
X67819060Y-83487880D01*
X261794820Y-166735050D02*
X261794820Y-154735050D01*
X260794820Y-167735050D02*
X248794820Y-167735050D01*
X247794820Y-166735050D02*
X247794820Y-154735050D01*
X260794820Y-153735050D02*
X248794820Y-153735050D01*
X261794820Y-166735050D02*
G75*
G02X260794820Y-167735050I-1000000J0D01*
G01*
X248794820Y-167735050D02*
G75*
G02X247794820Y-166735050I0J1000000D01*
G01*
X247794820Y-154735050D02*
G75*
G02X248794820Y-153735050I1000000J0D01*
G01*
X260794820Y-153735050D02*
G75*
G02X261794820Y-154735050I0J-1000000D01*
G01*
X80819060Y-115537960D02*
X80819060Y-103537960D01*
X79819060Y-116537960D02*
X67819060Y-116537960D01*
X66819060Y-115537960D02*
X66819060Y-103537960D01*
X79819060Y-102537960D02*
X67819060Y-102537960D01*
X80819060Y-115537960D02*
G75*
G02X79819060Y-116537960I-1000000J0D01*
G01*
X67819060Y-116537960D02*
G75*
G02X66819060Y-115537960I0J1000000D01*
G01*
X66819060Y-103537960D02*
G75*
G02X67819060Y-102537960I1000000J0D01*
G01*
X79819060Y-102537960D02*
G75*
G02X80819060Y-103537960I0J-1000000D01*
G01*
X318945060Y-172688200D02*
X318945060Y-160688200D01*
X317945060Y-173688200D02*
X305945060Y-173688200D01*
X304945060Y-172688200D02*
X304945060Y-160688200D01*
X317945060Y-159688200D02*
X305945060Y-159688200D01*
X318945060Y-172688200D02*
G75*
G02X317945060Y-173688200I-1000000J0D01*
G01*
X305945060Y-173688200D02*
G75*
G02X304945060Y-172688200I0J1000000D01*
G01*
X304945060Y-160688200D02*
G75*
G02X305945060Y-159688200I1000000J0D01*
G01*
X317945060Y-159688200D02*
G75*
G02X318945060Y-160688200I0J-1000000D01*
G01*
X299894980Y-172691500D02*
X299894980Y-160691500D01*
X298894980Y-173691500D02*
X286894980Y-173691500D01*
X285894980Y-172691500D02*
X285894980Y-160691500D01*
X298894980Y-159691500D02*
X286894980Y-159691500D01*
X299894980Y-172691500D02*
G75*
G02X298894980Y-173691500I-1000000J0D01*
G01*
X286894980Y-173691500D02*
G75*
G02X285894980Y-172691500I0J1000000D01*
G01*
X285894980Y-160691500D02*
G75*
G02X286894980Y-159691500I1000000J0D01*
G01*
X298894980Y-159691500D02*
G75*
G02X299894980Y-160691500I0J-1000000D01*
G01*
X280844900Y-169116310D02*
X280844900Y-157116310D01*
X279844900Y-170116310D02*
X267844900Y-170116310D01*
X266844900Y-169116310D02*
X266844900Y-157116310D01*
X279844900Y-156116310D02*
X267844900Y-156116310D01*
X280844900Y-169116310D02*
G75*
G02X279844900Y-170116310I-1000000J0D01*
G01*
X267844900Y-170116310D02*
G75*
G02X266844900Y-169116310I0J1000000D01*
G01*
X266844900Y-157116310D02*
G75*
G02X267844900Y-156116310I1000000J0D01*
G01*
X279844900Y-156116310D02*
G75*
G02X280844900Y-157116310I0J-1000000D01*
G01*
X220286565Y-162704378D02*
X223392393Y-174295488D01*
X220993672Y-161479633D02*
X232584782Y-158373805D01*
X233809527Y-159080912D02*
X236915355Y-170672022D01*
X224617138Y-175002595D02*
X236208248Y-171896767D01*
X220286565Y-162704378D02*
G75*
G02X220993672Y-161479633I965926J258819D01*
G01*
X232584782Y-158373805D02*
G75*
G02X233809527Y-159080912I258819J-965926D01*
G01*
X236915355Y-170672022D02*
G75*
G02X236208248Y-171896767I-965926J-258819D01*
G01*
X224617138Y-175002595D02*
G75*
G02X223392393Y-174295488I-258819J965926D01*
G01*
X198107442Y-168563938D02*
X204107442Y-178956242D01*
X198473468Y-167197912D02*
X208865772Y-161197912D01*
X210231798Y-161563938D02*
X216231798Y-171956242D01*
X205473468Y-179322268D02*
X215865772Y-173322268D01*
X198107442Y-168563938D02*
G75*
G02X198473468Y-167197912I866026J500000D01*
G01*
X208865772Y-161197912D02*
G75*
G02X210231798Y-161563938I500000J-866026D01*
G01*
X216231798Y-171956242D02*
G75*
G02X215865772Y-173322268I-866026J-500000D01*
G01*
X205473468Y-179322268D02*
G75*
G02X204107442Y-178956242I-500000J866026D01*
G01*
X175532322Y-161563938D02*
X169532322Y-171956242D01*
X176898348Y-161197912D02*
X187290652Y-167197912D01*
X187656678Y-168563938D02*
X181656678Y-178956242D01*
X169898348Y-173322268D02*
X180290652Y-179322268D01*
X175532322Y-161563938D02*
G75*
G02X176898348Y-161197912I866026J-500000D01*
G01*
X187290652Y-167197912D02*
G75*
G02X187656678Y-168563938I-500000J-866026D01*
G01*
X181656678Y-178956242D02*
G75*
G02X180290652Y-179322268I-866026J500000D01*
G01*
X169898348Y-173322268D02*
G75*
G02X169532322Y-171956242I500000J866026D01*
G01*
X151954593Y-159080912D02*
X148848765Y-170672022D01*
X153179338Y-158373805D02*
X164770448Y-161479633D01*
X165477555Y-162704378D02*
X162371727Y-174295488D01*
X149555872Y-171896767D02*
X161146982Y-175002595D01*
X151954593Y-159080912D02*
G75*
G02X153179338Y-158373805I965926J-258819D01*
G01*
X164770448Y-161479633D02*
G75*
G02X165477555Y-162704378I-258819J-965926D01*
G01*
X162371727Y-174295488D02*
G75*
G02X161146982Y-175002595I-965926J258819D01*
G01*
X149555872Y-171896767D02*
G75*
G02X148848765Y-170672022I258819J965926D01*
G01*
X137969300Y-166735050D02*
X137969300Y-154735050D01*
X136969300Y-167735050D02*
X124969300Y-167735050D01*
X123969300Y-166735050D02*
X123969300Y-154735050D01*
X136969300Y-153735050D02*
X124969300Y-153735050D01*
X137969300Y-166735050D02*
G75*
G02X136969300Y-167735050I-1000000J0D01*
G01*
X124969300Y-167735050D02*
G75*
G02X123969300Y-166735050I0J1000000D01*
G01*
X123969300Y-154735050D02*
G75*
G02X124969300Y-153735050I1000000J0D01*
G01*
X136969300Y-153735050D02*
G75*
G02X137969300Y-154735050I0J-1000000D01*
G01*
X118919220Y-169116310D02*
X118919220Y-157116310D01*
X117919220Y-170116310D02*
X105919220Y-170116310D01*
X104919220Y-169116310D02*
X104919220Y-157116310D01*
X117919220Y-156116310D02*
X105919220Y-156116310D01*
X118919220Y-169116310D02*
G75*
G02X117919220Y-170116310I-1000000J0D01*
G01*
X105919220Y-170116310D02*
G75*
G02X104919220Y-169116310I0J1000000D01*
G01*
X104919220Y-157116310D02*
G75*
G02X105919220Y-156116310I1000000J0D01*
G01*
X117919220Y-156116310D02*
G75*
G02X118919220Y-157116310I0J-1000000D01*
G01*
X99869140Y-172688200D02*
X99869140Y-160688200D01*
X98869140Y-173688200D02*
X86869140Y-173688200D01*
X85869140Y-172688200D02*
X85869140Y-160688200D01*
X98869140Y-159688200D02*
X86869140Y-159688200D01*
X99869140Y-172688200D02*
G75*
G02X98869140Y-173688200I-1000000J0D01*
G01*
X86869140Y-173688200D02*
G75*
G02X85869140Y-172688200I0J1000000D01*
G01*
X85869140Y-160688200D02*
G75*
G02X86869140Y-159688200I1000000J0D01*
G01*
X98869140Y-159688200D02*
G75*
G02X99869140Y-160688200I0J-1000000D01*
G01*
X80819060Y-172688200D02*
X80819060Y-160688200D01*
X79819060Y-173688200D02*
X67819060Y-173688200D01*
X66819060Y-172688200D02*
X66819060Y-160688200D01*
X79819060Y-159688200D02*
X67819060Y-159688200D01*
X80819060Y-172688200D02*
G75*
G02X79819060Y-173688200I-1000000J0D01*
G01*
X67819060Y-173688200D02*
G75*
G02X66819060Y-172688200I0J1000000D01*
G01*
X66819060Y-160688200D02*
G75*
G02X67819060Y-159688200I1000000J0D01*
G01*
X79819060Y-159688200D02*
G75*
G02X80819060Y-160688200I0J-1000000D01*
G01*
X318945060Y-153638120D02*
X318945060Y-141638120D01*
X317945060Y-154638120D02*
X305945060Y-154638120D01*
X304945060Y-153638120D02*
X304945060Y-141638120D01*
X317945060Y-140638120D02*
X305945060Y-140638120D01*
X318945060Y-153638120D02*
G75*
G02X317945060Y-154638120I-1000000J0D01*
G01*
X305945060Y-154638120D02*
G75*
G02X304945060Y-153638120I0J1000000D01*
G01*
X304945060Y-141638120D02*
G75*
G02X305945060Y-140638120I1000000J0D01*
G01*
X317945060Y-140638120D02*
G75*
G02X318945060Y-141638120I0J-1000000D01*
G01*
X299894980Y-153638120D02*
X299894980Y-141638120D01*
X298894980Y-154638120D02*
X286894980Y-154638120D01*
X285894980Y-153638120D02*
X285894980Y-141638120D01*
X298894980Y-140638120D02*
X286894980Y-140638120D01*
X299894980Y-153638120D02*
G75*
G02X298894980Y-154638120I-1000000J0D01*
G01*
X286894980Y-154638120D02*
G75*
G02X285894980Y-153638120I0J1000000D01*
G01*
X285894980Y-141638120D02*
G75*
G02X286894980Y-140638120I1000000J0D01*
G01*
X298894980Y-140638120D02*
G75*
G02X299894980Y-141638120I0J-1000000D01*
G01*
X280844900Y-150066230D02*
X280844900Y-138066230D01*
X279844900Y-151066230D02*
X267844900Y-151066230D01*
X266844900Y-150066230D02*
X266844900Y-138066230D01*
X279844900Y-137066230D02*
X267844900Y-137066230D01*
X280844900Y-150066230D02*
G75*
G02X279844900Y-151066230I-1000000J0D01*
G01*
X267844900Y-151066230D02*
G75*
G02X266844900Y-150066230I0J1000000D01*
G01*
X266844900Y-138066230D02*
G75*
G02X267844900Y-137066230I1000000J0D01*
G01*
X279844900Y-137066230D02*
G75*
G02X280844900Y-138066230I0J-1000000D01*
G01*
X261794820Y-147684970D02*
X261794820Y-135684970D01*
X260794820Y-148684970D02*
X248794820Y-148684970D01*
X247794820Y-147684970D02*
X247794820Y-135684970D01*
X260794820Y-134684970D02*
X248794820Y-134684970D01*
X261794820Y-147684970D02*
G75*
G02X260794820Y-148684970I-1000000J0D01*
G01*
X248794820Y-148684970D02*
G75*
G02X247794820Y-147684970I0J1000000D01*
G01*
X247794820Y-135684970D02*
G75*
G02X248794820Y-134684970I1000000J0D01*
G01*
X260794820Y-134684970D02*
G75*
G02X261794820Y-135684970I0J-1000000D01*
G01*
X242744740Y-150066230D02*
X242744740Y-138066230D01*
X241744740Y-151066230D02*
X229744740Y-151066230D01*
X228744740Y-150066230D02*
X228744740Y-138066230D01*
X241744740Y-137066230D02*
X229744740Y-137066230D01*
X242744740Y-150066230D02*
G75*
G02X241744740Y-151066230I-1000000J0D01*
G01*
X229744740Y-151066230D02*
G75*
G02X228744740Y-150066230I0J1000000D01*
G01*
X228744740Y-138066230D02*
G75*
G02X229744740Y-137066230I1000000J0D01*
G01*
X241744740Y-137066230D02*
G75*
G02X242744740Y-138066230I0J-1000000D01*
G01*
X223694660Y-152447490D02*
X223694660Y-140447490D01*
X222694660Y-153447490D02*
X210694660Y-153447490D01*
X209694660Y-152447490D02*
X209694660Y-140447490D01*
X222694660Y-139447490D02*
X210694660Y-139447490D01*
X223694660Y-152447490D02*
G75*
G02X222694660Y-153447490I-1000000J0D01*
G01*
X210694660Y-153447490D02*
G75*
G02X209694660Y-152447490I0J1000000D01*
G01*
X209694660Y-140447490D02*
G75*
G02X210694660Y-139447490I1000000J0D01*
G01*
X222694660Y-139447490D02*
G75*
G02X223694660Y-140447490I0J-1000000D01*
G01*
X176069460Y-152447490D02*
X176069460Y-140447490D01*
X175069460Y-153447490D02*
X163069460Y-153447490D01*
X162069460Y-152447490D02*
X162069460Y-140447490D01*
X175069460Y-139447490D02*
X163069460Y-139447490D01*
X176069460Y-152447490D02*
G75*
G02X175069460Y-153447490I-1000000J0D01*
G01*
X163069460Y-153447490D02*
G75*
G02X162069460Y-152447490I0J1000000D01*
G01*
X162069460Y-140447490D02*
G75*
G02X163069460Y-139447490I1000000J0D01*
G01*
X175069460Y-139447490D02*
G75*
G02X176069460Y-140447490I0J-1000000D01*
G01*
X157019380Y-150066230D02*
X157019380Y-138066230D01*
X156019380Y-151066230D02*
X144019380Y-151066230D01*
X143019380Y-150066230D02*
X143019380Y-138066230D01*
X156019380Y-137066230D02*
X144019380Y-137066230D01*
X157019380Y-150066230D02*
G75*
G02X156019380Y-151066230I-1000000J0D01*
G01*
X144019380Y-151066230D02*
G75*
G02X143019380Y-150066230I0J1000000D01*
G01*
X143019380Y-138066230D02*
G75*
G02X144019380Y-137066230I1000000J0D01*
G01*
X156019380Y-137066230D02*
G75*
G02X157019380Y-138066230I0J-1000000D01*
G01*
X137969300Y-147684970D02*
X137969300Y-135684970D01*
X136969300Y-148684970D02*
X124969300Y-148684970D01*
X123969300Y-147684970D02*
X123969300Y-135684970D01*
X136969300Y-134684970D02*
X124969300Y-134684970D01*
X137969300Y-147684970D02*
G75*
G02X136969300Y-148684970I-1000000J0D01*
G01*
X124969300Y-148684970D02*
G75*
G02X123969300Y-147684970I0J1000000D01*
G01*
X123969300Y-135684970D02*
G75*
G02X124969300Y-134684970I1000000J0D01*
G01*
X136969300Y-134684970D02*
G75*
G02X137969300Y-135684970I0J-1000000D01*
G01*
X118919220Y-150066230D02*
X118919220Y-138066230D01*
X117919220Y-151066230D02*
X105919220Y-151066230D01*
X104919220Y-150066230D02*
X104919220Y-138066230D01*
X117919220Y-137066230D02*
X105919220Y-137066230D01*
X118919220Y-150066230D02*
G75*
G02X117919220Y-151066230I-1000000J0D01*
G01*
X105919220Y-151066230D02*
G75*
G02X104919220Y-150066230I0J1000000D01*
G01*
X104919220Y-138066230D02*
G75*
G02X105919220Y-137066230I1000000J0D01*
G01*
X117919220Y-137066230D02*
G75*
G02X118919220Y-138066230I0J-1000000D01*
G01*
X99869140Y-153638120D02*
X99869140Y-141638120D01*
X98869140Y-154638120D02*
X86869140Y-154638120D01*
X85869140Y-153638120D02*
X85869140Y-141638120D01*
X98869140Y-140638120D02*
X86869140Y-140638120D01*
X99869140Y-153638120D02*
G75*
G02X98869140Y-154638120I-1000000J0D01*
G01*
X86869140Y-154638120D02*
G75*
G02X85869140Y-153638120I0J1000000D01*
G01*
X85869140Y-141638120D02*
G75*
G02X86869140Y-140638120I1000000J0D01*
G01*
X98869140Y-140638120D02*
G75*
G02X99869140Y-141638120I0J-1000000D01*
G01*
X80819060Y-153638120D02*
X80819060Y-141638120D01*
X79819060Y-154638120D02*
X67819060Y-154638120D01*
X66819060Y-153638120D02*
X66819060Y-141638120D01*
X79819060Y-140638120D02*
X67819060Y-140638120D01*
X80819060Y-153638120D02*
G75*
G02X79819060Y-154638120I-1000000J0D01*
G01*
X67819060Y-154638120D02*
G75*
G02X66819060Y-153638120I0J1000000D01*
G01*
X66819060Y-141638120D02*
G75*
G02X67819060Y-140638120I1000000J0D01*
G01*
X79819060Y-140638120D02*
G75*
G02X80819060Y-141638120I0J-1000000D01*
G01*
X318945060Y-134588040D02*
X318945060Y-122588040D01*
X317945060Y-135588040D02*
X305945060Y-135588040D01*
X304945060Y-134588040D02*
X304945060Y-122588040D01*
X317945060Y-121588040D02*
X305945060Y-121588040D01*
X318945060Y-134588040D02*
G75*
G02X317945060Y-135588040I-1000000J0D01*
G01*
X305945060Y-135588040D02*
G75*
G02X304945060Y-134588040I0J1000000D01*
G01*
X304945060Y-122588040D02*
G75*
G02X305945060Y-121588040I1000000J0D01*
G01*
X317945060Y-121588040D02*
G75*
G02X318945060Y-122588040I0J-1000000D01*
G01*
X299894980Y-134588040D02*
X299894980Y-122588040D01*
X298894980Y-135588040D02*
X286894980Y-135588040D01*
X285894980Y-134588040D02*
X285894980Y-122588040D01*
X298894980Y-121588040D02*
X286894980Y-121588040D01*
X299894980Y-134588040D02*
G75*
G02X298894980Y-135588040I-1000000J0D01*
G01*
X286894980Y-135588040D02*
G75*
G02X285894980Y-134588040I0J1000000D01*
G01*
X285894980Y-122588040D02*
G75*
G02X286894980Y-121588040I1000000J0D01*
G01*
X298894980Y-121588040D02*
G75*
G02X299894980Y-122588040I0J-1000000D01*
G01*
X280844900Y-131016150D02*
X280844900Y-119016150D01*
X279844900Y-132016150D02*
X267844900Y-132016150D01*
X266844900Y-131016150D02*
X266844900Y-119016150D01*
X279844900Y-118016150D02*
X267844900Y-118016150D01*
X280844900Y-131016150D02*
G75*
G02X279844900Y-132016150I-1000000J0D01*
G01*
X267844900Y-132016150D02*
G75*
G02X266844900Y-131016150I0J1000000D01*
G01*
X266844900Y-119016150D02*
G75*
G02X267844900Y-118016150I1000000J0D01*
G01*
X279844900Y-118016150D02*
G75*
G02X280844900Y-119016150I0J-1000000D01*
G01*
X261794820Y-128634890D02*
X261794820Y-116634890D01*
X260794820Y-129634890D02*
X248794820Y-129634890D01*
X247794820Y-128634890D02*
X247794820Y-116634890D01*
X260794820Y-115634890D02*
X248794820Y-115634890D01*
X261794820Y-128634890D02*
G75*
G02X260794820Y-129634890I-1000000J0D01*
G01*
X248794820Y-129634890D02*
G75*
G02X247794820Y-128634890I0J1000000D01*
G01*
X247794820Y-116634890D02*
G75*
G02X248794820Y-115634890I1000000J0D01*
G01*
X260794820Y-115634890D02*
G75*
G02X261794820Y-116634890I0J-1000000D01*
G01*
X242744740Y-131016150D02*
X242744740Y-119016150D01*
X241744740Y-132016150D02*
X229744740Y-132016150D01*
X228744740Y-131016150D02*
X228744740Y-119016150D01*
X241744740Y-118016150D02*
X229744740Y-118016150D01*
X242744740Y-131016150D02*
G75*
G02X241744740Y-132016150I-1000000J0D01*
G01*
X229744740Y-132016150D02*
G75*
G02X228744740Y-131016150I0J1000000D01*
G01*
X228744740Y-119016150D02*
G75*
G02X229744740Y-118016150I1000000J0D01*
G01*
X241744740Y-118016150D02*
G75*
G02X242744740Y-119016150I0J-1000000D01*
G01*
X223694660Y-133397410D02*
X223694660Y-121397410D01*
X222694660Y-134397410D02*
X210694660Y-134397410D01*
X209694660Y-133397410D02*
X209694660Y-121397410D01*
X222694660Y-120397410D02*
X210694660Y-120397410D01*
X223694660Y-133397410D02*
G75*
G02X222694660Y-134397410I-1000000J0D01*
G01*
X210694660Y-134397410D02*
G75*
G02X209694660Y-133397410I0J1000000D01*
G01*
X209694660Y-121397410D02*
G75*
G02X210694660Y-120397410I1000000J0D01*
G01*
X222694660Y-120397410D02*
G75*
G02X223694660Y-121397410I0J-1000000D01*
G01*
X176069460Y-133397410D02*
X176069460Y-121397410D01*
X175069460Y-134397410D02*
X163069460Y-134397410D01*
X162069460Y-133397410D02*
X162069460Y-121397410D01*
X175069460Y-120397410D02*
X163069460Y-120397410D01*
X176069460Y-133397410D02*
G75*
G02X175069460Y-134397410I-1000000J0D01*
G01*
X163069460Y-134397410D02*
G75*
G02X162069460Y-133397410I0J1000000D01*
G01*
X162069460Y-121397410D02*
G75*
G02X163069460Y-120397410I1000000J0D01*
G01*
X175069460Y-120397410D02*
G75*
G02X176069460Y-121397410I0J-1000000D01*
G01*
X157019380Y-131016150D02*
X157019380Y-119016150D01*
X156019380Y-132016150D02*
X144019380Y-132016150D01*
X143019380Y-131016150D02*
X143019380Y-119016150D01*
X156019380Y-118016150D02*
X144019380Y-118016150D01*
X157019380Y-131016150D02*
G75*
G02X156019380Y-132016150I-1000000J0D01*
G01*
X144019380Y-132016150D02*
G75*
G02X143019380Y-131016150I0J1000000D01*
G01*
X143019380Y-119016150D02*
G75*
G02X144019380Y-118016150I1000000J0D01*
G01*
X156019380Y-118016150D02*
G75*
G02X157019380Y-119016150I0J-1000000D01*
G01*
X137969300Y-128634890D02*
X137969300Y-116634890D01*
X136969300Y-129634890D02*
X124969300Y-129634890D01*
X123969300Y-128634890D02*
X123969300Y-116634890D01*
X136969300Y-115634890D02*
X124969300Y-115634890D01*
X137969300Y-128634890D02*
G75*
G02X136969300Y-129634890I-1000000J0D01*
G01*
X124969300Y-129634890D02*
G75*
G02X123969300Y-128634890I0J1000000D01*
G01*
X123969300Y-116634890D02*
G75*
G02X124969300Y-115634890I1000000J0D01*
G01*
X136969300Y-115634890D02*
G75*
G02X137969300Y-116634890I0J-1000000D01*
G01*
X118919220Y-131016150D02*
X118919220Y-119016150D01*
X117919220Y-132016150D02*
X105919220Y-132016150D01*
X104919220Y-131016150D02*
X104919220Y-119016150D01*
X117919220Y-118016150D02*
X105919220Y-118016150D01*
X118919220Y-131016150D02*
G75*
G02X117919220Y-132016150I-1000000J0D01*
G01*
X105919220Y-132016150D02*
G75*
G02X104919220Y-131016150I0J1000000D01*
G01*
X104919220Y-119016150D02*
G75*
G02X105919220Y-118016150I1000000J0D01*
G01*
X117919220Y-118016150D02*
G75*
G02X118919220Y-119016150I0J-1000000D01*
G01*
X99869140Y-134588040D02*
X99869140Y-122588040D01*
X98869140Y-135588040D02*
X86869140Y-135588040D01*
X85869140Y-134588040D02*
X85869140Y-122588040D01*
X98869140Y-121588040D02*
X86869140Y-121588040D01*
X99869140Y-134588040D02*
G75*
G02X98869140Y-135588040I-1000000J0D01*
G01*
X86869140Y-135588040D02*
G75*
G02X85869140Y-134588040I0J1000000D01*
G01*
X85869140Y-122588040D02*
G75*
G02X86869140Y-121588040I1000000J0D01*
G01*
X98869140Y-121588040D02*
G75*
G02X99869140Y-122588040I0J-1000000D01*
G01*
X80819060Y-134588040D02*
X80819060Y-122588040D01*
X79819060Y-135588040D02*
X67819060Y-135588040D01*
X66819060Y-134588040D02*
X66819060Y-122588040D01*
X79819060Y-121588040D02*
X67819060Y-121588040D01*
X80819060Y-134588040D02*
G75*
G02X79819060Y-135588040I-1000000J0D01*
G01*
X67819060Y-135588040D02*
G75*
G02X66819060Y-134588040I0J1000000D01*
G01*
X66819060Y-122588040D02*
G75*
G02X67819060Y-121588040I1000000J0D01*
G01*
X79819060Y-121588040D02*
G75*
G02X80819060Y-122588040I0J-1000000D01*
G01*
X318945060Y-115537960D02*
X318945060Y-103537960D01*
X317945060Y-116537960D02*
X305945060Y-116537960D01*
X304945060Y-115537960D02*
X304945060Y-103537960D01*
X317945060Y-102537960D02*
X305945060Y-102537960D01*
X318945060Y-115537960D02*
G75*
G02X317945060Y-116537960I-1000000J0D01*
G01*
X305945060Y-116537960D02*
G75*
G02X304945060Y-115537960I0J1000000D01*
G01*
X304945060Y-103537960D02*
G75*
G02X305945060Y-102537960I1000000J0D01*
G01*
X317945060Y-102537960D02*
G75*
G02X318945060Y-103537960I0J-1000000D01*
G01*
X299894980Y-115537960D02*
X299894980Y-103537960D01*
X298894980Y-116537960D02*
X286894980Y-116537960D01*
X285894980Y-115537960D02*
X285894980Y-103537960D01*
X298894980Y-102537960D02*
X286894980Y-102537960D01*
X299894980Y-115537960D02*
G75*
G02X298894980Y-116537960I-1000000J0D01*
G01*
X286894980Y-116537960D02*
G75*
G02X285894980Y-115537960I0J1000000D01*
G01*
X285894980Y-103537960D02*
G75*
G02X286894980Y-102537960I1000000J0D01*
G01*
X298894980Y-102537960D02*
G75*
G02X299894980Y-103537960I0J-1000000D01*
G01*
X280844900Y-111966070D02*
X280844900Y-99966070D01*
X279844900Y-112966070D02*
X267844900Y-112966070D01*
X266844900Y-111966070D02*
X266844900Y-99966070D01*
X279844900Y-98966070D02*
X267844900Y-98966070D01*
X280844900Y-111966070D02*
G75*
G02X279844900Y-112966070I-1000000J0D01*
G01*
X267844900Y-112966070D02*
G75*
G02X266844900Y-111966070I0J1000000D01*
G01*
X266844900Y-99966070D02*
G75*
G02X267844900Y-98966070I1000000J0D01*
G01*
X279844900Y-98966070D02*
G75*
G02X280844900Y-99966070I0J-1000000D01*
G01*
X261794820Y-109584810D02*
X261794820Y-97584810D01*
X260794820Y-110584810D02*
X248794820Y-110584810D01*
X247794820Y-109584810D02*
X247794820Y-97584810D01*
X260794820Y-96584810D02*
X248794820Y-96584810D01*
X261794820Y-109584810D02*
G75*
G02X260794820Y-110584810I-1000000J0D01*
G01*
X248794820Y-110584810D02*
G75*
G02X247794820Y-109584810I0J1000000D01*
G01*
X247794820Y-97584810D02*
G75*
G02X248794820Y-96584810I1000000J0D01*
G01*
X260794820Y-96584810D02*
G75*
G02X261794820Y-97584810I0J-1000000D01*
G01*
X242744740Y-111966070D02*
X242744740Y-99966070D01*
X241744740Y-112966070D02*
X229744740Y-112966070D01*
X228744740Y-111966070D02*
X228744740Y-99966070D01*
X241744740Y-98966070D02*
X229744740Y-98966070D01*
X242744740Y-111966070D02*
G75*
G02X241744740Y-112966070I-1000000J0D01*
G01*
X229744740Y-112966070D02*
G75*
G02X228744740Y-111966070I0J1000000D01*
G01*
X228744740Y-99966070D02*
G75*
G02X229744740Y-98966070I1000000J0D01*
G01*
X241744740Y-98966070D02*
G75*
G02X242744740Y-99966070I0J-1000000D01*
G01*
X223694660Y-114347330D02*
X223694660Y-102347330D01*
X222694660Y-115347330D02*
X210694660Y-115347330D01*
X209694660Y-114347330D02*
X209694660Y-102347330D01*
X222694660Y-101347330D02*
X210694660Y-101347330D01*
X223694660Y-114347330D02*
G75*
G02X222694660Y-115347330I-1000000J0D01*
G01*
X210694660Y-115347330D02*
G75*
G02X209694660Y-114347330I0J1000000D01*
G01*
X209694660Y-102347330D02*
G75*
G02X210694660Y-101347330I1000000J0D01*
G01*
X222694660Y-101347330D02*
G75*
G02X223694660Y-102347330I0J-1000000D01*
G01*
X176069460Y-114347330D02*
X176069460Y-102347330D01*
X175069460Y-115347330D02*
X163069460Y-115347330D01*
X162069460Y-114347330D02*
X162069460Y-102347330D01*
X175069460Y-101347330D02*
X163069460Y-101347330D01*
X176069460Y-114347330D02*
G75*
G02X175069460Y-115347330I-1000000J0D01*
G01*
X163069460Y-115347330D02*
G75*
G02X162069460Y-114347330I0J1000000D01*
G01*
X162069460Y-102347330D02*
G75*
G02X163069460Y-101347330I1000000J0D01*
G01*
X175069460Y-101347330D02*
G75*
G02X176069460Y-102347330I0J-1000000D01*
G01*
X157019380Y-111966070D02*
X157019380Y-99966070D01*
X156019380Y-112966070D02*
X144019380Y-112966070D01*
X143019380Y-111966070D02*
X143019380Y-99966070D01*
X156019380Y-98966070D02*
X144019380Y-98966070D01*
X157019380Y-111966070D02*
G75*
G02X156019380Y-112966070I-1000000J0D01*
G01*
X144019380Y-112966070D02*
G75*
G02X143019380Y-111966070I0J1000000D01*
G01*
X143019380Y-99966070D02*
G75*
G02X144019380Y-98966070I1000000J0D01*
G01*
X156019380Y-98966070D02*
G75*
G02X157019380Y-99966070I0J-1000000D01*
G01*
X137969300Y-109584810D02*
X137969300Y-97584810D01*
X136969300Y-110584810D02*
X124969300Y-110584810D01*
X123969300Y-109584810D02*
X123969300Y-97584810D01*
X136969300Y-96584810D02*
X124969300Y-96584810D01*
X137969300Y-109584810D02*
G75*
G02X136969300Y-110584810I-1000000J0D01*
G01*
X124969300Y-110584810D02*
G75*
G02X123969300Y-109584810I0J1000000D01*
G01*
X123969300Y-97584810D02*
G75*
G02X124969300Y-96584810I1000000J0D01*
G01*
X136969300Y-96584810D02*
G75*
G02X137969300Y-97584810I0J-1000000D01*
G01*
X118919220Y-111966070D02*
X118919220Y-99966070D01*
X117919220Y-112966070D02*
X105919220Y-112966070D01*
X104919220Y-111966070D02*
X104919220Y-99966070D01*
X117919220Y-98966070D02*
X105919220Y-98966070D01*
X118919220Y-111966070D02*
G75*
G02X117919220Y-112966070I-1000000J0D01*
G01*
X105919220Y-112966070D02*
G75*
G02X104919220Y-111966070I0J1000000D01*
G01*
X104919220Y-99966070D02*
G75*
G02X105919220Y-98966070I1000000J0D01*
G01*
X117919220Y-98966070D02*
G75*
G02X118919220Y-99966070I0J-1000000D01*
G01*
X99869140Y-115537960D02*
X99869140Y-103537960D01*
X98869140Y-116537960D02*
X86869140Y-116537960D01*
X85869140Y-115537960D02*
X85869140Y-103537960D01*
X98869140Y-102537960D02*
X86869140Y-102537960D01*
X99869140Y-115537960D02*
G75*
G02X98869140Y-116537960I-1000000J0D01*
G01*
X86869140Y-116537960D02*
G75*
G02X85869140Y-115537960I0J1000000D01*
G01*
X85869140Y-103537960D02*
G75*
G02X86869140Y-102537960I1000000J0D01*
G01*
X98869140Y-102537960D02*
G75*
G02X99869140Y-103537960I0J-1000000D01*
G01*
D11*
G36*
X317466514Y-118451608D02*
G01*
X317490783Y-118455208D01*
X317514581Y-118461169D01*
X317537681Y-118469434D01*
X317559859Y-118479924D01*
X317580903Y-118492537D01*
X317600608Y-118507151D01*
X317618787Y-118523627D01*
X317635263Y-118541806D01*
X317649877Y-118561511D01*
X317662490Y-118582555D01*
X317672980Y-118604733D01*
X317681245Y-118627833D01*
X317687206Y-118651631D01*
X317690806Y-118675900D01*
X317692010Y-118700404D01*
X317692010Y-119400404D01*
X317690806Y-119424908D01*
X317687206Y-119449177D01*
X317681245Y-119472975D01*
X317672980Y-119496075D01*
X317662490Y-119518253D01*
X317649877Y-119539297D01*
X317635263Y-119559002D01*
X317618787Y-119577181D01*
X317600608Y-119593657D01*
X317580903Y-119608271D01*
X317559859Y-119620884D01*
X317537681Y-119631374D01*
X317514581Y-119639639D01*
X317490783Y-119645600D01*
X317466514Y-119649200D01*
X317442010Y-119650404D01*
X316942010Y-119650404D01*
X316917506Y-119649200D01*
X316893237Y-119645600D01*
X316869439Y-119639639D01*
X316846339Y-119631374D01*
X316824161Y-119620884D01*
X316803117Y-119608271D01*
X316783412Y-119593657D01*
X316765233Y-119577181D01*
X316748757Y-119559002D01*
X316734143Y-119539297D01*
X316721530Y-119518253D01*
X316711040Y-119496075D01*
X316702775Y-119472975D01*
X316696814Y-119449177D01*
X316693214Y-119424908D01*
X316692010Y-119400404D01*
X316692010Y-118700404D01*
X316693214Y-118675900D01*
X316696814Y-118651631D01*
X316702775Y-118627833D01*
X316711040Y-118604733D01*
X316721530Y-118582555D01*
X316734143Y-118561511D01*
X316748757Y-118541806D01*
X316765233Y-118523627D01*
X316783412Y-118507151D01*
X316803117Y-118492537D01*
X316824161Y-118479924D01*
X316846339Y-118469434D01*
X316869439Y-118461169D01*
X316893237Y-118455208D01*
X316917506Y-118451608D01*
X316942010Y-118450404D01*
X317442010Y-118450404D01*
X317466514Y-118451608D01*
X317466514Y-118451608D01*
G37*
D12*
X317192010Y-119050404D03*
D11*
G36*
X314166514Y-118451608D02*
G01*
X314190783Y-118455208D01*
X314214581Y-118461169D01*
X314237681Y-118469434D01*
X314259859Y-118479924D01*
X314280903Y-118492537D01*
X314300608Y-118507151D01*
X314318787Y-118523627D01*
X314335263Y-118541806D01*
X314349877Y-118561511D01*
X314362490Y-118582555D01*
X314372980Y-118604733D01*
X314381245Y-118627833D01*
X314387206Y-118651631D01*
X314390806Y-118675900D01*
X314392010Y-118700404D01*
X314392010Y-119400404D01*
X314390806Y-119424908D01*
X314387206Y-119449177D01*
X314381245Y-119472975D01*
X314372980Y-119496075D01*
X314362490Y-119518253D01*
X314349877Y-119539297D01*
X314335263Y-119559002D01*
X314318787Y-119577181D01*
X314300608Y-119593657D01*
X314280903Y-119608271D01*
X314259859Y-119620884D01*
X314237681Y-119631374D01*
X314214581Y-119639639D01*
X314190783Y-119645600D01*
X314166514Y-119649200D01*
X314142010Y-119650404D01*
X313642010Y-119650404D01*
X313617506Y-119649200D01*
X313593237Y-119645600D01*
X313569439Y-119639639D01*
X313546339Y-119631374D01*
X313524161Y-119620884D01*
X313503117Y-119608271D01*
X313483412Y-119593657D01*
X313465233Y-119577181D01*
X313448757Y-119559002D01*
X313434143Y-119539297D01*
X313421530Y-119518253D01*
X313411040Y-119496075D01*
X313402775Y-119472975D01*
X313396814Y-119449177D01*
X313393214Y-119424908D01*
X313392010Y-119400404D01*
X313392010Y-118700404D01*
X313393214Y-118675900D01*
X313396814Y-118651631D01*
X313402775Y-118627833D01*
X313411040Y-118604733D01*
X313421530Y-118582555D01*
X313434143Y-118561511D01*
X313448757Y-118541806D01*
X313465233Y-118523627D01*
X313483412Y-118507151D01*
X313503117Y-118492537D01*
X313524161Y-118479924D01*
X313546339Y-118469434D01*
X313569439Y-118461169D01*
X313593237Y-118455208D01*
X313617506Y-118451608D01*
X313642010Y-118450404D01*
X314142010Y-118450404D01*
X314166514Y-118451608D01*
X314166514Y-118451608D01*
G37*
D12*
X313892010Y-119050404D03*
D13*
X73819060Y-79176893D03*
X73819060Y-177999187D03*
X150019380Y-73223743D03*
X161926392Y-179784702D03*
X235744740Y-73223743D03*
X223839154Y-179784476D03*
X311945060Y-79176893D03*
X311945060Y-177998755D03*
M02*
