G04 #@! TF.GenerationSoftware,KiCad,Pcbnew,(5.1.4-0)*
G04 #@! TF.CreationDate,2021-10-13T07:08:27-05:00*
G04 #@! TF.ProjectId,niko_top_plate,6e696b6f-5f74-46f7-905f-706c6174652e,rev?*
G04 #@! TF.SameCoordinates,Original*
G04 #@! TF.FileFunction,Legend,Bot*
G04 #@! TF.FilePolarity,Positive*
%FSLAX46Y46*%
G04 Gerber Fmt 4.6, Leading zero omitted, Abs format (unit mm)*
G04 Created by KiCad (PCBNEW (5.1.4-0)) date 2021-10-13 07:08:27*
%MOMM*%
%LPD*%
G04 APERTURE LIST*
%ADD10C,0.150000*%
%ADD11C,0.200000*%
G04 APERTURE END LIST*
D10*
X173689497Y-156912656D02*
X173689497Y-157626942D01*
X173737116Y-157769799D01*
X173832354Y-157865037D01*
X173975211Y-157912656D01*
X174070450Y-157912656D01*
X172737116Y-157912656D02*
X173213307Y-157912656D01*
X173213307Y-156912656D01*
X171832354Y-157817418D02*
X171879973Y-157865037D01*
X172022830Y-157912656D01*
X172118069Y-157912656D01*
X172260926Y-157865037D01*
X172356164Y-157769799D01*
X172403783Y-157674561D01*
X172451402Y-157484085D01*
X172451402Y-157341228D01*
X172403783Y-157150752D01*
X172356164Y-157055514D01*
X172260926Y-156960276D01*
X172118069Y-156912656D01*
X172022830Y-156912656D01*
X171879973Y-156960276D01*
X171832354Y-157007895D01*
X171118069Y-156912656D02*
X171118069Y-157626942D01*
X171165688Y-157769799D01*
X171260926Y-157865037D01*
X171403783Y-157912656D01*
X171499021Y-157912656D01*
X170165688Y-157912656D02*
X170641878Y-157912656D01*
X170641878Y-156912656D01*
X169260926Y-157817418D02*
X169308545Y-157865037D01*
X169451402Y-157912656D01*
X169546640Y-157912656D01*
X169689497Y-157865037D01*
X169784735Y-157769799D01*
X169832354Y-157674561D01*
X169879973Y-157484085D01*
X169879973Y-157341228D01*
X169832354Y-157150752D01*
X169784735Y-157055514D01*
X169689497Y-156960276D01*
X169546640Y-156912656D01*
X169451402Y-156912656D01*
X169308545Y-156960276D01*
X169260926Y-157007895D01*
X168546640Y-156912656D02*
X168546640Y-157626942D01*
X168594259Y-157769799D01*
X168689497Y-157865037D01*
X168832354Y-157912656D01*
X168927592Y-157912656D01*
X167594259Y-157912656D02*
X168070450Y-157912656D01*
X168070450Y-156912656D01*
X166689497Y-157817418D02*
X166737116Y-157865037D01*
X166879973Y-157912656D01*
X166975211Y-157912656D01*
X167118069Y-157865037D01*
X167213307Y-157769799D01*
X167260926Y-157674561D01*
X167308545Y-157484085D01*
X167308545Y-157341228D01*
X167260926Y-157150752D01*
X167213307Y-157055514D01*
X167118069Y-156960276D01*
X166975211Y-156912656D01*
X166879973Y-156912656D01*
X166737116Y-156960276D01*
X166689497Y-157007895D01*
X165975211Y-156912656D02*
X165975211Y-157626942D01*
X166022830Y-157769799D01*
X166118069Y-157865037D01*
X166260926Y-157912656D01*
X166356164Y-157912656D01*
X165022830Y-157912656D02*
X165499021Y-157912656D01*
X165499021Y-156912656D01*
X164118069Y-157817418D02*
X164165688Y-157865037D01*
X164308545Y-157912656D01*
X164403783Y-157912656D01*
X164546640Y-157865037D01*
X164641878Y-157769799D01*
X164689497Y-157674561D01*
X164737116Y-157484085D01*
X164737116Y-157341228D01*
X164689497Y-157150752D01*
X164641878Y-157055514D01*
X164546640Y-156960276D01*
X164403783Y-156912656D01*
X164308545Y-156912656D01*
X164165688Y-156960276D01*
X164118069Y-157007895D01*
D11*
X205056217Y-152369647D02*
X204044312Y-152369647D01*
X203925264Y-152429171D01*
X203865740Y-152488695D01*
X203806217Y-152607742D01*
X203806217Y-152786314D01*
X203865740Y-152905361D01*
X204282407Y-152369647D02*
X204222883Y-152488695D01*
X204222883Y-152726790D01*
X204282407Y-152845838D01*
X204341931Y-152905361D01*
X204460979Y-152964885D01*
X204818121Y-152964885D01*
X204937169Y-152905361D01*
X204996693Y-152845838D01*
X205056217Y-152726790D01*
X205056217Y-152488695D01*
X204996693Y-152369647D01*
X204222883Y-151774409D02*
X205056217Y-151774409D01*
X205472883Y-151774409D02*
X205413360Y-151833933D01*
X205353836Y-151774409D01*
X205413360Y-151714885D01*
X205472883Y-151774409D01*
X205353836Y-151774409D01*
X205056217Y-151357742D02*
X205056217Y-150881552D01*
X205472883Y-151179171D02*
X204401455Y-151179171D01*
X204282407Y-151119647D01*
X204222883Y-151000600D01*
X204222883Y-150881552D01*
X204222883Y-150464885D02*
X205472883Y-150464885D01*
X204222883Y-149929171D02*
X204877645Y-149929171D01*
X204996693Y-149988695D01*
X205056217Y-150107742D01*
X205056217Y-150286314D01*
X204996693Y-150405361D01*
X204937169Y-150464885D01*
X205056217Y-148798219D02*
X204222883Y-148798219D01*
X205056217Y-149333933D02*
X204401455Y-149333933D01*
X204282407Y-149274409D01*
X204222883Y-149155361D01*
X204222883Y-148976790D01*
X204282407Y-148857742D01*
X204341931Y-148798219D01*
X204222883Y-148202980D02*
X205472883Y-148202980D01*
X204996693Y-148202980D02*
X205056217Y-148083933D01*
X205056217Y-147845838D01*
X204996693Y-147726790D01*
X204937169Y-147667266D01*
X204818121Y-147607742D01*
X204460979Y-147607742D01*
X204341931Y-147667266D01*
X204282407Y-147726790D01*
X204222883Y-147845838D01*
X204222883Y-148083933D01*
X204282407Y-148202980D01*
X204341931Y-147072028D02*
X204282407Y-147012504D01*
X204222883Y-147072028D01*
X204282407Y-147131552D01*
X204341931Y-147072028D01*
X204222883Y-147072028D01*
X204282407Y-145941076D02*
X204222883Y-146060123D01*
X204222883Y-146298219D01*
X204282407Y-146417266D01*
X204341931Y-146476790D01*
X204460979Y-146536314D01*
X204818121Y-146536314D01*
X204937169Y-146476790D01*
X204996693Y-146417266D01*
X205056217Y-146298219D01*
X205056217Y-146060123D01*
X204996693Y-145941076D01*
X204222883Y-145226790D02*
X204282407Y-145345838D01*
X204341931Y-145405361D01*
X204460979Y-145464885D01*
X204818121Y-145464885D01*
X204937169Y-145405361D01*
X204996693Y-145345838D01*
X205056217Y-145226790D01*
X205056217Y-145048219D01*
X204996693Y-144929171D01*
X204937169Y-144869647D01*
X204818121Y-144810123D01*
X204460979Y-144810123D01*
X204341931Y-144869647D01*
X204282407Y-144929171D01*
X204222883Y-145048219D01*
X204222883Y-145226790D01*
X204222883Y-144274409D02*
X205056217Y-144274409D01*
X204937169Y-144274409D02*
X204996693Y-144214885D01*
X205056217Y-144095838D01*
X205056217Y-143917266D01*
X204996693Y-143798219D01*
X204877645Y-143738695D01*
X204222883Y-143738695D01*
X204877645Y-143738695D02*
X204996693Y-143679171D01*
X205056217Y-143560123D01*
X205056217Y-143381552D01*
X204996693Y-143262504D01*
X204877645Y-143202980D01*
X204222883Y-143202980D01*
X205532407Y-141714885D02*
X203925264Y-142786314D01*
X204222883Y-140762504D02*
X205472883Y-140762504D01*
X204282407Y-140762504D02*
X204222883Y-140881552D01*
X204222883Y-141119647D01*
X204282407Y-141238695D01*
X204341931Y-141298219D01*
X204460979Y-141357742D01*
X204818121Y-141357742D01*
X204937169Y-141298219D01*
X204996693Y-141238695D01*
X205056217Y-141119647D01*
X205056217Y-140881552D01*
X204996693Y-140762504D01*
X204222883Y-140167266D02*
X205056217Y-140167266D01*
X205472883Y-140167266D02*
X205413360Y-140226790D01*
X205353836Y-140167266D01*
X205413360Y-140107742D01*
X205472883Y-140167266D01*
X205353836Y-140167266D01*
X204282407Y-139095838D02*
X204222883Y-139214885D01*
X204222883Y-139452980D01*
X204282407Y-139572028D01*
X204401455Y-139631552D01*
X204877645Y-139631552D01*
X204996693Y-139572028D01*
X205056217Y-139452980D01*
X205056217Y-139214885D01*
X204996693Y-139095838D01*
X204877645Y-139036314D01*
X204758598Y-139036314D01*
X204639550Y-139631552D01*
X204222883Y-138500600D02*
X205056217Y-138500600D01*
X204818121Y-138500600D02*
X204937169Y-138441076D01*
X204996693Y-138381552D01*
X205056217Y-138262504D01*
X205056217Y-138143457D01*
X204222883Y-137726790D02*
X205056217Y-137726790D01*
X205472883Y-137726790D02*
X205413360Y-137786314D01*
X205353836Y-137726790D01*
X205413360Y-137667266D01*
X205472883Y-137726790D01*
X205353836Y-137726790D01*
X204282407Y-136595838D02*
X204222883Y-136714885D01*
X204222883Y-136952980D01*
X204282407Y-137072028D01*
X204341931Y-137131552D01*
X204460979Y-137191076D01*
X204818121Y-137191076D01*
X204937169Y-137131552D01*
X204996693Y-137072028D01*
X205056217Y-136952980D01*
X205056217Y-136714885D01*
X204996693Y-136595838D01*
X204222883Y-136060123D02*
X205472883Y-136060123D01*
X204699074Y-135941076D02*
X204222883Y-135583933D01*
X205056217Y-135583933D02*
X204580026Y-136060123D01*
X204222883Y-134512504D02*
X205472883Y-134512504D01*
X204282407Y-134512504D02*
X204222883Y-134631552D01*
X204222883Y-134869647D01*
X204282407Y-134988695D01*
X204341931Y-135048219D01*
X204460979Y-135107742D01*
X204818121Y-135107742D01*
X204937169Y-135048219D01*
X204996693Y-134988695D01*
X205056217Y-134869647D01*
X205056217Y-134631552D01*
X204996693Y-134512504D01*
X204222883Y-133917266D02*
X205056217Y-133917266D01*
X205472883Y-133917266D02*
X205413360Y-133976790D01*
X205353836Y-133917266D01*
X205413360Y-133857742D01*
X205472883Y-133917266D01*
X205353836Y-133917266D01*
X204282407Y-132845838D02*
X204222883Y-132964885D01*
X204222883Y-133202980D01*
X204282407Y-133322028D01*
X204401455Y-133381552D01*
X204877645Y-133381552D01*
X204996693Y-133322028D01*
X205056217Y-133202980D01*
X205056217Y-132964885D01*
X204996693Y-132845838D01*
X204877645Y-132786314D01*
X204758598Y-132786314D01*
X204639550Y-133381552D01*
X205056217Y-129301710D02*
X204222883Y-129301710D01*
X204937169Y-129301710D02*
X204996693Y-129242186D01*
X205056217Y-129123139D01*
X205056217Y-128944567D01*
X204996693Y-128825520D01*
X204877645Y-128765996D01*
X204222883Y-128765996D01*
X204222883Y-128170758D02*
X205056217Y-128170758D01*
X205472883Y-128170758D02*
X205413360Y-128230281D01*
X205353836Y-128170758D01*
X205413360Y-128111234D01*
X205472883Y-128170758D01*
X205353836Y-128170758D01*
X204222883Y-127575520D02*
X205472883Y-127575520D01*
X204699074Y-127456472D02*
X204222883Y-127099329D01*
X205056217Y-127099329D02*
X204580026Y-127575520D01*
X204222883Y-126385043D02*
X204282407Y-126504091D01*
X204341931Y-126563615D01*
X204460979Y-126623139D01*
X204818121Y-126623139D01*
X204937169Y-126563615D01*
X204996693Y-126504091D01*
X205056217Y-126385043D01*
X205056217Y-126206472D01*
X204996693Y-126087424D01*
X204937169Y-126027900D01*
X204818121Y-125968377D01*
X204460979Y-125968377D01*
X204341931Y-126027900D01*
X204282407Y-126087424D01*
X204222883Y-126206472D01*
X204222883Y-126385043D01*
X204222883Y-124480281D02*
X205056217Y-124480281D01*
X204818121Y-124480281D02*
X204937169Y-124420758D01*
X204996693Y-124361234D01*
X205056217Y-124242186D01*
X205056217Y-124123139D01*
X204282407Y-123230281D02*
X204222883Y-123349329D01*
X204222883Y-123587424D01*
X204282407Y-123706472D01*
X204401455Y-123765996D01*
X204877645Y-123765996D01*
X204996693Y-123706472D01*
X205056217Y-123587424D01*
X205056217Y-123349329D01*
X204996693Y-123230281D01*
X204877645Y-123170758D01*
X204758598Y-123170758D01*
X204639550Y-123765996D01*
X205056217Y-122754091D02*
X204222883Y-122456472D01*
X205056217Y-122158853D01*
X204222883Y-120075520D02*
X204222883Y-120789805D01*
X204222883Y-120432662D02*
X205472883Y-120432662D01*
X205294312Y-120551710D01*
X205175264Y-120670758D01*
X205115740Y-120789805D01*
X204341931Y-119539805D02*
X204282407Y-119480281D01*
X204222883Y-119539805D01*
X204282407Y-119599329D01*
X204341931Y-119539805D01*
X204222883Y-119539805D01*
X205472883Y-118706472D02*
X205472883Y-118587424D01*
X205413360Y-118468377D01*
X205353836Y-118408853D01*
X205234788Y-118349329D01*
X204996693Y-118289805D01*
X204699074Y-118289805D01*
X204460979Y-118349329D01*
X204341931Y-118408853D01*
X204282407Y-118468377D01*
X204222883Y-118587424D01*
X204222883Y-118706472D01*
X204282407Y-118825520D01*
X204341931Y-118885043D01*
X204460979Y-118944567D01*
X204699074Y-119004091D01*
X204996693Y-119004091D01*
X205234788Y-118944567D01*
X205353836Y-118885043D01*
X205413360Y-118825520D01*
X205472883Y-118706472D01*
M02*
